<svg xmlns="http://www.w3.org/2000/svg" width="606.578" height="361.758" viewBox="0 0 606.578 361.758">
  <g id="pixel-cells-3974170" transform="translate(-144.9 -163.201)">
    <path id="Path_242" data-name="Path 242" d="M519.813,251.837l-.554,4.99,7.54,11.643-11.088,9.2-40.029-20.181,4.768-25.947L455.058,215.8,188.163,277.894l-1.663.333,37.367,20.735.554,53.224,18.3,13.417,4.99-5.322,70.41,10.312-1,12.2,85.38-24.949-30.16-25.059,1.552-25.836,43.91-9.758-2,19.072,11.421,6.764,49.01-5.1,5.544,8.982,99.462-37.7ZM280.307,328.9l-19.626,10.977-26.5-27.388L252.7,299.184,255.469,279l29.273,17.741Zm62.87-45.573-22.62-19.294,52.78-12.751,13.417,12.751Z" transform="translate(4.527 5.724)" fill="#e5e723"/>
    <g id="Group_2" data-name="Group 2" transform="translate(144.9 163.201)">
      <path id="Path_243" data-name="Path 243" d="M397.6,391.84a6.244,6.244,0,0,0-1.109.222c-.776.333-1.552.554-2.329.887.887.665,1.774,1.331,2.661,1.885.111.111.554,0,.554-.111a19.118,19.118,0,0,0,.776-2.329C398.156,392.283,397.712,392.062,397.6,391.84Zm7.207-12.086c-.222.222-.444.333-.554.554l-2,5.988c-.111.222.111.554.222.665a1.591,1.591,0,0,0,1.774-1.109c.222-1.885.665-5.877.554-6.1ZM447.72,222.3a3.238,3.238,0,0,0-.222-1c-.554-2.218-1.109-4.324-1.774-6.542-.776-2.661-1.663-5.211-2.439-7.762-.111-.222-.333-.444-.444-.665-.111.222-.444.554-.444.776a52.463,52.463,0,0,0-.111,5.877c.222,3.326.665,6.653,1,10.09.222,1.774.222,1.774,2,1.22l1.331-.333c.887-.222,1.109-.776,1.109-1.663ZM199.565,388.513c0,.222-.111.444,0,.665.111.554.333,1.22.444,1.774a11.545,11.545,0,0,0,1.774-.665c1.885-1.109,3.659-2.218,5.544-3.326,1.663-1,1.663-1.331.111-2.329-2-1.22-3.992-2.439-5.988-3.548l-2-1c-.111.776-.222,1.552-.333,2.439,0,.222.111.444.111.665l.333,5.322ZM369.881,236.382c0,.776-.111,1.552-.111,2.218,0,1,.222,1.441,1.331,1.109a17.726,17.726,0,0,1,2.329-.554c1.663-.333,1.885-.665,1.663-2.218-.111-.554-.222-1-.333-1.552-.444-2.439-.887-4.768-1.22-7.207-.444-2.772-.665-5.655-1.109-8.427a2.348,2.348,0,0,0-.333-.776c-.111.222-.444.444-.444.665-.222.776-.554,1.552-.776,2.329-1.331,4.768-.887,9.536-1,14.415ZM227.618,371.659a45.6,45.6,0,0,1,.222,5.212,2.089,2.089,0,0,0,.222.887,1.8,1.8,0,0,0,1-.554c.444-.444,6.431-4.657,7.318-6.653.111-.222-.111-.776-.333-1l-7.318-7.651a2.422,2.422,0,0,0-.554-.333,1.576,1.576,0,0,0-.222.665c-.111,3.216-.222,6.32-.333,9.425Zm293.728-92.033a3.239,3.239,0,0,0,.222,1,2.74,2.74,0,0,0,1-.444c1.552-1.109,3.1-2.329,4.768-3.437,1.331-.887,2.661-1.663,3.992-2.55,1-.665,1.109-1.22.333-1.885l-7.984-5.988c-.554-.444-.887-.222-1,.333l-.333,1.331C521.9,271.089,521.236,278.85,521.347,279.627ZM277.959,262c2.772-.776,5.544-1.331,8.316-2,.444-.111,1-.333,1.441-.444-.333-.554-4.1-3.659-4.99-4.546-2.661-2.661-5.211-5.433-7.762-8.205-.111-.111-.333-.111-.444-.222a.841.841,0,0,0-.222.444c0,.222.111.444.111.665C274.522,251.906,275.963,262.551,277.959,262Zm-6.1-16.854a5.4,5.4,0,0,1-.111-1.331c0-3.881-1.663-7.1-3.77-10.09a2.423,2.423,0,0,0-.554-.333,1.873,1.873,0,0,0-.222.554c0,1.22,0,2.439.111,3.659.444,4.546.776,8.981,1.22,13.528a62.889,62.889,0,0,0,1.109,6.32,42.239,42.239,0,0,0,1.441,4.99.835.835,0,0,0,1.552.222,3.613,3.613,0,0,0,.444-1.441c-.222-3.548-.887-14.3-1.22-16.078ZM544.3,416.234a2.441,2.441,0,0,0,.111-.887c0-3.437,0-3.326-3.437-3.659a4.072,4.072,0,0,1-2.218-1c-1.885-1.774-3.659-3.548-5.322-5.433a2.513,2.513,0,0,0-2.772-.776c-1.22.333-1.331.554-.554,1.552.443.554.887,1.22,1.331,1.885.554.887.887,1.774,1.441,2.55,2,2.55,3.992,4.99,5.988,7.429,1.663,2,3.216,4.1,4.768,6.209.222.222.554.333.776.554a3.237,3.237,0,0,0,.222-1c-.111-2.55-.222-4.99-.333-7.429Zm34.6-105.782v.222c.111.887.444,3.881.554,5.544.222,3.216.444,6.431.665,9.536,0,.776,0,1.885.444,2.329.444.333,1.552,0,2.328.111.887.111,1.22-.444,1.331-1.22a6.823,6.823,0,0,1,.111-1.441c.222-5.766.444-11.643.665-17.409v-2.439c0-.776-.333-1.109-1.22-.887-1.109.444-2.328.554-3.548,1a1.957,1.957,0,0,0-.887,1,20.614,20.614,0,0,0-.444,3.659Zm-230.3-66.308c-.333-1.331-.665-2.55-.887-3.881-.444-2.772-.776-5.655-1.22-8.427a54.284,54.284,0,0,0-1.441-6.1c-1-4.1-2.107-8.205-3.216-12.308a2.94,2.94,0,0,0-.554-.665c0,.222-.111.554-.111.776.222,4.546.665,9.2.776,13.749a56.8,56.8,0,0,0,2,16.743c.665,2,.665,2.107,2.661,1.774a2.61,2.61,0,0,0,.887-.222C348.259,245.475,348.591,245.031,348.591,244.144Zm-26.834,185.95c.111,3.77.333,7.207.333,10.645a1.888,1.888,0,0,0,1.22,1.885c2.107.887,4.214,2,6.32,2.883a12.962,12.962,0,0,0,2.218.665c.887.222,1.331-.111,1-1-.665-2.218-1.441-4.546-2.329-6.764-.887-2.329-1.663-4.657-2.661-6.875-1.552-3.437-3.327-6.764-5.1-10.09-.111-.222-.333-.333-.444-.444a1.6,1.6,0,0,0-.222.776c0,2.772-.111,5.655-.333,8.316ZM267.536,194.358v-1.885c0-.776-.222-1-.887-.665-1.663.887-3.1,1.885-3.1,3.992a67.233,67.233,0,0,0,.111,8.205c.776,6.653,1.774,13.306,2.772,20.07a17.98,17.98,0,0,0,3.326,8.094c.111.222.444.333.554.554a1.314,1.314,0,0,0,.111-.887c-.222-1.885-.665-3.659-.776-5.544-.444-6.1-.776-12.308-1.109-18.407C268.312,203.229,267.869,198.793,267.536,194.358ZM226.842,311.783h.111v-3.1c0-1.22-.222-1.331-1.109-.665-1.22.776-2.439,1.441-3.659,2.329a1.515,1.515,0,0,0-.444,1.22c-.111,3.326-.333,6.764-.333,10.09a183.2,183.2,0,0,1-.776,20.624c-.111,1.109,2.883,3.548,3.77,3.881,1.331.554,1.663.333,1.663-1.109.111-5.877.333-11.754.444-17.63.222-5.211.222-10.423.333-15.634Zm381.325,19.626c.333-.111.776-.333,1.109-.444a4.924,4.924,0,0,0-1.22-.887,2.73,2.73,0,0,0-1.331-.111c-1.331,0-2.661,0-3.992.111l-11.643.333c-1.885,0-3.881.222-5.766.111-1.774,0-14.082,1-17.741,1.109-3.326.111-15.413.554-18.074.776-2.994.222-5.988.554-8.982.887-1.109.111-2.218.222-3.326.444-.333.111-.887.554-.887.887a1.241,1.241,0,0,0,.776.887,15.647,15.647,0,0,0,5.988.776c2.218-.222,4.435-.222,6.653-.333,1.663-.111,3.216-.111,4.879-.222,4.657-.333,9.2-.776,13.86-1.109,2.107-.111,4.214-.111,6.209-.333,3.881-.444,7.651-1,11.532-1.441,1-.111,2,.111,2.994,0,4.324-.333,16.965-1.109,18.961-1.441ZM572.8,206.444c-.222-.333-.333-1-.554-1a1.836,1.836,0,0,0-1.331.554,4.281,4.281,0,0,0-.887,2.218c.111,4.546-1.109,8.982-1.552,13.528-.444,3.881-.776,7.762-2.107,11.421a11.694,11.694,0,0,0-.665,2.661c-.444,3.1-.665,6.1-1.22,9.2a134.583,134.583,0,0,0-2.328,17.63c-.111,3.548-.444,7.1-.776,10.645-.111,1-.887,2.329-.444,2.994.444.887,1.885,1.331,2.883,1.885.111.111.222.111.222.222.665.333,1,.554,1-.554,0-1.774.222-3.548.333-5.433.333-3.326.665-6.653.887-9.869.333-6.431.665-12.862,1-19.4a17.512,17.512,0,0,0-.333-5.877c-.222-.887.444-2.107.776-3.216.111-.333.554-.665.665-1,.444-2.55,1-4.99,1.331-7.54.333-2.329.554-4.768,1-7.1.665-3.881,1.331-7.873,2.107-11.975ZM427.318,402.928c.444-2.55.111-2.883-2.55-2.661a9.481,9.481,0,0,1-1.774,0,33.452,33.452,0,0,0-9.979,0,3.883,3.883,0,0,1-2.439-.665c-1.331-.887-2.439-2.218-3.77-3.1-2-1.441-3.659-2.772-2.661-5.655a1.911,1.911,0,0,0-.665-.665c-1.331.444-2.772.665-2.994,2.439a18.146,18.146,0,0,1-.776,3.1,2.021,2.021,0,0,0,1.109,2.329c2.107,1.331,3.992,2.772,6.1,3.992,3.1,1.885,6.431,3.548,9.647,5.211,1.331.776,2.772,1.441,4.214,2.107a34.614,34.614,0,0,0,4.657,2c1.441.444,1.885,0,2-1.441,0-2.329-.111-4.657-.111-6.986ZM515.137,173.4v.222c-.333,0-.554-.111-.887-.111-.333.111-.776.222-.776.444-.111.222.222.554.333.887.111.222.333.222.554.444,3.326,1.885,6.764,3.659,10.09,5.544s6.542,3.77,9.758,5.655c2.218,1.331,4.214,2.883,6.542,3.992,3.326,1.663,6.875,2.883,10.2,4.435,2.772,1.331,5.433,2.994,8.316,4.1a26.858,26.858,0,0,1,6.986,3.881,2.994,2.994,0,0,0,1.22.554c1.331-.222,2.772-.554,4.1-.887a1.989,1.989,0,0,0,.776-.554c-.222-.111-.444-.333-.665-.444-3.548-1.774-6.986-3.659-10.645-5.322a198.125,198.125,0,0,1-18.074-9.314c-2.439-1.441-4.879-2.661-7.318-3.992-2-1.109-3.992-2.218-6.1-3.326l-4.657-2.329c-1.885-.887-3.659-1.885-5.655-2.772a18.8,18.8,0,0,0-4.1-1.109ZM531.88,391.84c-.111,1.331-.111,2.55-.111,3.881a9.766,9.766,0,0,0,2.55,6.431c.222.333.665.444,1,.665,0-.333.111-.665.111-1q-.166-5.322-.333-10.645c0-2.107.222-4.214.222-6.209V371.548c.111-6.1.222-12.2.443-18.3a82.074,82.074,0,0,1,.554-10.423c.333-2.439-.776-4.1-2.107-5.766-.222-.333-.776-.444-1.109-.665a4.224,4.224,0,0,0-.333,1.109c-.222,4.214-.554,8.538-.665,12.751-.222,4.99-.222,9.869-.333,14.858,0,.665.111.887.776,1.109,1.22.333,1.441.887,1.109,2a16.763,16.763,0,0,1-1,2,12.558,12.558,0,0,0-1.441,3.659,40.1,40.1,0,0,0-.111,6.32c.222,3.77.554,7.762.776,11.643ZM164.637,261.109c-.333,3.1.111,5.877,2.883,7.984,1,.776,1.885,1.663,2.883,2.439a13.017,13.017,0,0,0,1.22.554c0-.444.222-.887.111-1.331-.665-3.77-1.441-7.429-2.107-11.088-.554-3.437-.887-6.764-1.22-10.2-.554-4.99-1.109-10.09-1.663-15.08-.333-2.55-.776-5.1-1.109-7.54s-.554-4.879-1-7.207c-.111-.554-.554-1.331-1-1.331a10.732,10.732,0,0,0-3.216.222c-.111,0-.111.665-.111,1.109a10.925,10.925,0,0,0,.222,1.885c.111,1.774.222,3.437.333,5.211l1.663,13.639c.333,2.994.554,5.877.776,8.871.111.665.333,1.441.444,2.107.333-.554.665-1.22,1-1.774.444-.665.776-1.552,1.663-1,.444.222.333,1.331.444,2a1.576,1.576,0,0,1-.222.665,17.245,17.245,0,0,0-2,9.869ZM456.7,331.742s16.854-1.109,24.949-2.772l1-.333c.776-.333.665-.887,0-1.109a17.906,17.906,0,0,0-3.992-1.109,32.271,32.271,0,0,0-5.655.333c-6.542.444-13.2.776-19.737,1.331-1.109.111-2.218.554-3.326.776-3.881.554-7.873.887-11.754,1.441-4.657.665-9.2,1.441-13.749,2.329-2.994.554-6.1,1.109-9.092,1.663-.111,0-.333.111-.444.111a2.424,2.424,0,0,0,.333.554c1.441.776,2.883,1.441,4.324,2.107a2.305,2.305,0,0,0,1.22-.111,16.031,16.031,0,0,1,5.1-1,82.4,82.4,0,0,0,8.982-1c4.214-.665,8.538-1.441,12.751-2a78.162,78.162,0,0,1,9.092-1.22ZM226.288,352.92a9.656,9.656,0,0,1-.111-2.107c.111-1-.222-1.441-1.22-1.774a14.288,14.288,0,0,1-3.659-1.885c-.887-.554-1.22-.554-1.331.554-.444,3.216-1.109,6.431-1.331,9.647-.333,5.877-.444,11.754-.665,17.63-.111,2.994,0,5.877.111,8.871a1.875,1.875,0,0,0,.776,1.109c1.441.554,5.1-.665,5.877-2.107.111-.222.222-.554.333-.776.111-1.441.333-2.772.333-4.214.111-4.324,0-8.649.111-12.973C225.733,360.9,225.955,356.912,226.288,352.92Zm81.721,26.944a13.332,13.332,0,0,0,2.661-.665,50.146,50.146,0,0,0,5.544-2.55,9.729,9.729,0,0,0,1.663-1.331,11.7,11.7,0,0,0-2.107-.554c-2.55-.222-5.1-.222-7.651-.444-1.109-.111-2.107-.444-3.216-.665-2-.444-3.992-.776-5.988-1.22-1.331-.222-2.772-.665-4.1-.776-2.883-.333-5.877-.665-8.76-1-3.548-.444-7.1-.887-10.756-1.22-1.331-.111-2.772,0-4.214-.111-1.774-.111-3.437-.111-5.211-.333a63.569,63.569,0,0,0-6.431-.776c-2.661,0-5.322.333-7.984.554-.333,0-.554.222-.887.333a5.123,5.123,0,0,0,.776.776c3.1.665,6.1,1.441,9.2,2,3.77.665,7.651,1.331,11.532,2,4.435.665,8.982,1.331,13.417,1.885a135.988,135.988,0,0,1,20.07,3.659,8.652,8.652,0,0,0,2.439.444Zm-152.8-115.318a2.779,2.779,0,0,0-.776.444c-1.22,1.109-2.439,2.107-3.548,3.216-.887.887-.776,1.663.333,2.218,1.663.887,3.326,1.885,4.99,2.661,2.772,1.22,5.544,2.329,8.316,3.548,3.659,1.663,7.318,3.437,10.867,5.212,2.439,1.22,4.879,2.772,7.318,4.1,3.992,2.107,7.984,4.214,11.864,6.209,2,1,3.881,2,5.877,2.994,1.22.665,2.439,1.109,3.548,1.774,1.663,1,3.216,2.107,4.879,2.994,2.994,1.441,6.1,2.661,8.538,5.1a4.353,4.353,0,0,0,1.441.665,22.167,22.167,0,0,1,2.329,1.109c1,.554,1.441.111,2.107-.554.776-.776.333-1.22-.222-1.774l-1-.665c-2.107-1.22-4.214-2.329-6.209-3.548-1.663-1-3.216-2.107-4.879-3.1-1-.554-2.107-1-3.1-1.552-2.661-1.441-5.322-3.1-8.094-4.546-3.437-1.774-6.875-3.326-10.312-4.99-2-1-3.77-2.439-5.766-3.216a29.2,29.2,0,0,1-6.209-4.214c-2-1.441-3.881-3.1-5.988-4.546-3.437-2.329-7.54-3.659-10.534-6.542l-.111-.111c-1.331-.887-2.661-1.663-3.992-2.55a3,3,0,0,1-1.663-.333Zm257.8,103.232c.665,1.552-3.216,2.994-4.214,4.214a6.188,6.188,0,0,0-1,2.329c-.333,3.1-.665,6.1-.776,9.2-.111,1.774.111,3.659-.111,5.433a7.407,7.407,0,0,0,2,5.766c1.552,1.774,1.552,1.774,2.329-.554l.333-1c.444-3.548.887-6.986,1.331-10.534.333-2.661.554-5.322,1-7.984.665-4.1,1.22-8.094,2-12.2,1-5.544,2.439-20.735,2.772-22.066-.222-.554-.222-1.331-.554-1.552-1-.776-4.99-2.439-5.655-3.1-.776-.776-1.109-.554-1.331.444a3.07,3.07,0,0,0-.111,1c-.333,4.435-.665,8.76-1,13.2-.554,5.433-.111,11.088-1.552,16.522a6.029,6.029,0,0,0,0,2c.554-.333,2-1.441,2.218-1.552-.222,0,1.663-1.109,2.329.444Zm-5.433-15.745a4.548,4.548,0,0,0,.111-1.22l-.333-1.663a9.343,9.343,0,0,0-1.552.665c-1.109.554-2.107,1.331-3.216,1.774a1.6,1.6,0,0,1-2.218-.776c-.333-.887.444-1.22,1-1.552,1.663-1,3.326-1.885,4.99-2.772a2.648,2.648,0,0,0,1.663-2.439c.222-3.216.444-6.431.665-9.758.111-1,.444-1.552,1.552-1.663,1.441-.111,2.883-.444,4.214-.665,2.994-.554,5.877-1.109,8.871-1.663a17.43,17.43,0,0,0,2.55-.444,4.492,4.492,0,0,0,1-.554c-.222-.222-.333-.554-.554-.776a19.8,19.8,0,0,1-2.883-2.218c-1.109-1.109-2.107-.887-3.326-.222-2.661,1.22-5.433,2.439-8.094,3.659-3.548,1.552-7.318,2.772-10.866,4.435-5.1,2.439-10.2,5.211-15.191,7.762-1.331.665-1.441,1.441-.222,2.329,2.883,2.218,5.766,4.324,8.76,6.32,2.772,1.885,5.766,3.548,8.649,5.211,1,.554,2,1.22,2.994,1.774.554.333,1,.444,1.109-.444.111-1.663.222-3.326.333-5.1Zm12.2-46.016c0-1.552-.554-1.774-2-1.331-1.552.444-3.1.665-4.546,1-2.661.665-19.626,5.433-19.848,5.544-4.546,1.22-9.092,2.55-13.639,3.77a1.466,1.466,0,0,0-1.331,1.552c0,1.22.111,2.55.111,3.881,0,2.772,0,5.433.111,8.205.111,2.329.444,4.768.665,7.1.111,1.441.444,2.883.554,4.324a1.025,1.025,0,0,0,1.331,1,19.532,19.532,0,0,0,4.324-1.331c3.548-1.774,7.1-3.77,10.645-5.544,2.883-1.441,5.988-2.661,8.871-3.881,2.329-1,4.657-1.885,6.875-2.883,2.329-1,4.657-2.107,6.986-3.1a2.085,2.085,0,0,0,1.331-2.218c.111-2.883-.333-13.417-.444-16.078ZM302.908,462.694a33.1,33.1,0,0,0-3.326,0c-1.331.111-1.663.665-1.774,2v2.55c.222,3.548,0,13.084,0,13.639s.111,1.441.444,1.552a2.246,2.246,0,0,0,1.663-.444c.776-.554,1.441-1.441,2.218-2,2.439-1.885,4.99-3.548,7.429-5.544,3.216-2.661,6.431-5.433,9.647-8.094,4.879-4.1,9.869-8.094,14.858-12.2a3.015,3.015,0,0,0-.444-4.546,40.835,40.835,0,0,0-3.881-1.663c-2.107-1-4.657-1-6.542-2.661-.554-.554-.776-.111-.776.554a10.923,10.923,0,0,0,.222,1.885c.222,2.994.444,5.877.554,8.871a2.724,2.724,0,0,1-.554,1.663,23.229,23.229,0,0,1-7.318,4.324,3.541,3.541,0,0,1-1.552.333c-1.552,0-2.994.111-4.546,0-2.329,0-4.546-.111-6.32-.222Zm77.174-286.521v-3.548c0-3.881-.222-4.1-3.659-5.766a.109.109,0,0,1-.111-.111c-1.552-.665-2.55-.111-2.661,1.552-.222,4.1-.444,8.094-.333,12.2.333,6.875.776,13.86.554,20.735a29.51,29.51,0,0,0,.333,3.1.841.841,0,0,0,.222.444,2.422,2.422,0,0,0,.554-.333c.554-1.22,1.22-2.55,1.663-3.77.333-.776.554-1.441,1.552-1.109a1.421,1.421,0,0,1,.776,2c-1.109,2.329-2.439,4.546-3.548,6.764a8.108,8.108,0,0,0-.776,2.107,28.046,28.046,0,0,0,.111,6.1c.554,5.1,1.331,10.2,2.107,15.191a39.836,39.836,0,0,0,1.331,5.211,1,1,0,0,0,1.441.776c1.663-.333,3.326-.554,4.99-.887,1.331-.222,1.663-.887,1.441-2.329-.222-1.663-.554-3.326-.776-4.99-.222-1.885-.444-3.659-.665-5.544-.665-4.324-1.441-8.538-2-12.862-.333-3.326-.333-6.764-.554-10.09-.222-3.992-.554-7.984-.887-11.975-.444-3.881-.776-8.205-1.109-12.862ZM313.663,446.394c.222,1.885.665,3.659,1,5.544.333,1.552.554,3.1.887,4.657.222,1,.887,1.663,1.774,1.552,1.663-.222,2.994-.776,2.883-2.772-.111-2.218-.222-4.546-.333-6.764-.111-5.877-.222-11.643-.222-17.519,0-3.548.333-7.1.333-10.645,0-2.107.111-4.214-1.774-6.1-1.22-1.109-1.774-3.1-2.439-4.768-.111-.222.111-.776.333-1,.111-.111.665,0,.887.222a5,5,0,0,1,1.109,1.552l1.331,2.661c.111.222.333.222.444.444,0-.222.111-.444.111-.665-.222-4.1-.444-8.094-.554-12.2,0-3.992.111-7.984.222-12.086.111-2.994.222-6.1.333-9.092,0-1.331-.222-1.552-1.441-1.109-1.331.444-2.439,1.331-3.77,1.663-2.439.665-2.772,2.661-2.883,4.657-.222,2.772-.111,5.544-.222,8.316-.111,2.883-.554,5.655-.554,8.538,0,3.881.333,7.651.554,11.532,0,.776.111,1.552.111,2.218,0,3.1-.111,6.209,0,9.314.333,4.324,1.441,18.961,1.885,21.844Zm269-214.447a2.534,2.534,0,0,0-1.441-2.661c-2.661-1.22-5.211-2.55-7.762-3.881-1-.444-1.441-.222-1.663,1-.333,2.661-.665,5.322-1.109,7.984-.554,2.772-.665,5.433.554,7.984.111.333.111.665.222,1,.554,1.885,1,3.881,1.552,5.766,1,3.437,2.107,6.875,2.883,10.423.665,3.216.887,6.542,1.441,9.869.222,1.441.554,2.994.776,4.435.111.665.111,1.552-.776,1.663a2.733,2.733,0,0,1-2-.665,2.478,2.478,0,0,1-.444-1.663c-.111-2.55-.111-5.212-.444-7.762A57.225,57.225,0,0,0,573.35,258c-.887-3.881-2-7.651-2.994-11.421,0-.222-.222-.333-.333-.554-.111.222-.333.444-.333.665l-.665,11.643c-.222,2.661-.444,5.322-.554,7.984-.222,2.55-.222,5.1-.444,7.651-.111,1.885.665,3.77-.333,5.655-.111.222.222.776.444.887l8.649,5.322c1.663,1,2.218.776,2.439-1.22.333-2.661.444-5.322.554-7.984.333-5.322.554-10.534,1-15.856.333-4.657.776-9.425,1.22-14.082a10.922,10.922,0,0,1,.222-1.885c.111-3.437.444-11.975.444-12.862Zm-21.733,97.909,15.634-1a1.291,1.291,0,0,0,1.441-1.22c0-1.22-.111-2.439-.222-3.659-.111-1.663-1-12.308-1.441-15.967-.111-1-.665-1.22-1.552-1l-7.651,2.329c-7.762,2.329-15.524,4.768-23.4,7.1-2,.665-2,.554-1.774,2.772a60.534,60.534,0,0,1,.443,6.32,14.6,14.6,0,0,0,.444,3.77,1.718,1.718,0,0,0,2.107,1.331c5.433-.444,15.967-1,15.967-.776ZM482.2,261.664a2.047,2.047,0,0,0,1.441,2.218c.444.222,7.318,4.1,10.2,5.877,2.329,1.441,4.768,2.439,7.207,3.77,3.992,2.107,7.984,4.324,11.975,6.431,1.109.554,2.218,1.109,3.326,1.552,1.774.665,2.218.333,2.439-1.663.333-3.548.665-7.207,1.109-10.756a68.384,68.384,0,0,1,1-6.875c.554-2.994,1.109-5.877,1.663-8.871a1.347,1.347,0,0,0-1-1.774c-1.22-.444-2.328-1-3.548-1.552-2.329-1.109-4.546-2.439-6.764-3.548-2.107-1.109-4.1-2.107-6.209-3.216-1.663-.887-3.327-1.885-5.1-2.661-1.331-.665-2.772-1.22-3.992-1.885-2.883-1.552-5.766-3.1-8.538-4.657-1-.554-1.441-.554-1.663.665a53.415,53.415,0,0,0-1.22,5.766c-.444,3.881-.554,7.762-.887,11.643-.111.887,0,1.774-.111,2.55-.444,2.218-.887,4.657-1.331,6.986ZM421.22,397.717v-.111h4.768c1.885-.111,2.439-.665,2.107-2.55-.665-4.435-.222-8.982,0-13.417.222-3.992.554-7.984.776-11.975a2.061,2.061,0,0,1,2-2c2.329-.222,4.768-.333,7.1-.776,5.433-1.109,10.756-2.439,16.078-3.77,2.661-.665,5.433-1.331,8.094-2,5.544-1.441,11.088-2.883,16.632-4.214,1.885-.444,1.885-.333,2.107-2.218.333-3.77.444-7.429.776-11.2.333-3.216,1-6.431,1.552-9.647.333-1.885,0-2.439-1.774-2.329-2.107.111-4.324.333-6.431.444-5.1.444-10.2.776-15.3,1.109-3.1.222-6.32.222-9.425.665-2.994.333-5.877,1-8.76,1.441-4.1.554-8.205,1-12.2,1.663a53.393,53.393,0,0,0-5.766,1.22,4.389,4.389,0,0,0-3.326,3.77,80.1,80.1,0,0,0-.887,8.871,122.5,122.5,0,0,1-1.663,15.634c-.554,3.992-1.441,7.984-2.107,12.086-.444,2.661-.665,5.322-1,7.984-.333,3.1-.554,6.1-.887,9.2-.111,1,.111,1.441,1.109,1.552C417.006,397.384,419.113,397.495,421.22,397.717Zm8.205,11.975h.222c0,.444-.111.887-.111,1.441-.111,1.663.333,1.774,1.885,1.331,3.437-1,6.764-2,10.2-2.994,4.99-1.441,9.979-2.772,14.858-4.435a76.552,76.552,0,0,1,11.31-2.772c3.881-.776,7.651-1.774,11.532-2.772,3.1-.776,6.1-1.885,9.2-2.55,1.22-.222,1.552-.776,1.441-1.885-.111-1.885-.333-3.77-.333-5.544-.111-4.657,0-9.2,0-13.86,0-2.107,0-4.324.111-6.431l.333-10.312c0-1.663-.222-1.885-1.885-1.552-2.994.444-5.988,1.109-8.982,1.774-3.992,1-7.984,2-11.975,3.1-2.994.776-5.988,1.552-8.871,2.329-2.218.554-4.546,1.22-6.764,1.663-4.324,1-8.76,2-13.084,2.994-1.441.333-2.994.554-4.435.776-1.885.222-2.439.776-2.661,2.772-.222,2.107-.665,23.618-.776,26.057-.444,3.77-.887,7.318-1.22,10.866Zm115.207-26.944c-.111-2.994-.111-6.1-.111-9.092,0-1.552.554-2,2.107-2a17.829,17.829,0,0,0,3.437-.111c5.988-.776,11.864-1.663,17.852-2.218,4.768-.444,9.536-.554,14.3-.887a10.68,10.68,0,0,0,1.885,0l12.308-1c3.659-.222,7.318-.333,10.977-.665,2.107-.111,2.107-.222,2.328-2.329a1,1,0,0,1,.111-.554c1.441-3.77.776-7.873,1.109-11.754.333-3.992.444-7.984.665-11.975.111-1.441.333-2.772.333-4.214s-.444-1.774-1.774-1.774c-2.107,0-4.324-.222-6.431-.111-3.326.111-6.653.222-9.869.333-2.883.111-5.766.222-8.538.444-4.768.444-9.536,1.109-14.415,1.552-2.772.222-5.433.444-8.205.665-4.324.333-8.649.554-13.084.776-3.1.222-6.1.554-9.2.887-1.22.111-1.885.887-1.885,2.329a10.68,10.68,0,0,1,0,1.885c-.333,3.992-.776,7.984-.887,11.975-.222,8.649-.333,17.3-.222,25.836.111,7.984.444,15.967.665,23.951.111,2.55,2.107,3.992,4.99,3.77,1-.111,1.441-.444,1.441-1.552-.111-1.885-.222-3.881-.222-5.766.111-5.877.222-12.2.333-18.407ZM293.483,441.183v-6.431a3.313,3.313,0,0,0-1.885-3.1c-1.663-.887-3.327-1.885-4.99-2.883-2.55-1.441-5.211-2.883-7.873-4.1-4.1-2-8.538-3.326-11.975-6.542a3.691,3.691,0,0,0-.665-.333c-2.107-1.109-4.324-2.218-6.431-3.326a37.186,37.186,0,0,0-4.1-2.218c-3.659-1.663-7.429-3.216-11.2-4.879-.665-.333-1-.222-1.109.444a4.716,4.716,0,0,0-.222,1.22c-.111,2.994-.111,5.877-.222,8.871,0,3.1.222,6.209.111,9.314-.222,4.1-.665,8.094-.887,12.2-.111,2.994-.222,5.988-.111,8.982.111,3.659.444,7.318.887,10.977a2.207,2.207,0,0,0,.887,1.331c1.774,1,3.77,1.663,5.433,2.883,3.659,2.55,7.873,4.1,11.754,6.1a87.808,87.808,0,0,0,8.871,3.659c4.879,2,9.536,4.324,14.526,5.877,2.994.887,5.766,2.439,8.649,3.659a9.983,9.983,0,0,0,1.774.333,12.217,12.217,0,0,0,.222-2c0-.554.111-9.869-.111-13.971-.222-4.546-.887-9.092-1.109-13.749-.111-4.435-.111-12.308-.222-12.308Zm-143.926-80.5h-.222c0,.333-.111.554-.111.887a5.294,5.294,0,0,0,3.216,5.766c1.552.776,3.216,1.663,4.768,2.439,3.992,2.218,7.984,4.435,12.086,6.653,3.548,1.885,6.986,3.881,10.534,5.766a15.625,15.625,0,0,0,3.548,1.885c4.1,1.441,12.308,4.99,12.53,5.1a4.5,4.5,0,0,0,1,.554,5.565,5.565,0,0,0,.222-1.331c-.111-3.437-.222-6.875-.222-10.312,0-4.657.222-9.314.222-13.971,0-2.439-.222-4.879-.222-7.318.111-7.1.333-14.082.554-21.179,0-.444-.111-1.109-.333-1.22-1.552-1.109-3.216-2.329-4.879-3.326l-12.308-6.653c-3.216-1.663-6.32-3.548-9.536-4.99-5.322-2.329-10.756-4.435-16.189-6.542a44.7,44.7,0,0,0-5.1-1.552c-1.441-.444-1.663-.111-1.663,1.331,0,3.216.222,6.542.111,9.758a97.383,97.383,0,0,0,.665,17.076c.222,2.329.554,4.768.776,7.1.111,4.99.333,9.536.554,14.082Zm158.229,99.684c1.441-.111,2.661-.444,3.77-.444,1,0,1.331-.333,1.109-1.331-1.331-6.431-1.552-12.973-2.107-19.4-.333-3.881-.333-7.762-.554-11.643-.111-3.1-.333-6.209-.444-9.2-.111-3.77,0-7.54-.222-11.31a69.359,69.359,0,0,1,0-8.316c.222-3.548.444-7.207.554-10.756a38.459,38.459,0,0,0-.665-4.99c-.111-.887-.776-1.22-1.774-1.331-2.107-.222-4.214-.665-6.431-1-3.326-.665-6.764-1.441-10.09-1.885-4.1-.554-8.316-.776-12.419-1.441-4.657-.776-9.314-1.774-14.082-2.661-4.657-.887-9.314-1.663-13.971-2.55-.665-.111-1.109,0-1.22.776-.444,3.77-1,7.651-1.331,11.421-.333,4.214-.333,8.427-.444,12.53-.111,2.55-.333,5.1-.444,7.651a1.515,1.515,0,0,0,.444,1.22c2.329,1.441,4.657,3.326,7.207,4.1,2.994.887,5.544,2.55,8.094,3.881,4.214,2.218,8.316,4.768,12.419,7.1l.111.111a104.182,104.182,0,0,1,12.308,5.877c2.218,1.331,4.546,2.439,6.764,3.659a3.366,3.366,0,0,1,1.774,3.326c-.111,1.885-.222,3.77-.333,5.766-.111,2.218-.222,4.546-.222,6.764.111,2.107.444,4.324.554,6.431.222,1.774.333,3.548.444,5.433,0,.665.111,1.109.887,1.22,3.77.222,7.1.665,10.312,1ZM199.343,370a35.818,35.818,0,0,0,0,4.879,2.634,2.634,0,0,0,.333,1.331,54.961,54.961,0,0,0,5.544,4.546c1.441,1,7.318,4.214,7.984,4.768,1,.776,1.552.222,1.663-.776.222-2.55.333-5.1.444-7.651s0-5.1.111-7.651c.222-5.212.554-10.312,1-15.524a47.557,47.557,0,0,1,.887-7.984,66.875,66.875,0,0,0,1.441-10.534c.444-4.879.222-9.758.554-14.637a43.723,43.723,0,0,0-.444-10.09,3.379,3.379,0,0,0-.887-1.774,44.457,44.457,0,0,0-4.546-3.437c-2.329-1.441-4.879-2.772-7.207-4.1-2-1.109-3.881-2.329-5.877-3.326-2.107-1.109-4.324-2.218-6.542-3.437-2.55-1.441-4.99-3.1-7.54-4.435-4.324-2.329-8.649-4.657-12.973-6.875-2.439-1.331-4.879-2.772-7.429-3.881-4.879-2.218-9.979-4.324-14.858-6.431-1.109-.444-1.331-.333-1.331.887a35.819,35.819,0,0,0,0,4.879c.444,5.433,1,10.866,1.552,16.3.444,4.657.776,9.425,1,14.082a2.13,2.13,0,0,0,1.552,2.107c4.99,2,9.869,4.1,14.858,6.209,2.55,1.109,5.1,2.107,7.54,3.326s4.768,2.439,7.1,3.77a74.651,74.651,0,0,0,8.427,4.214c2.55,1,4.768,2.661,7.207,3.992a1.746,1.746,0,0,1,1.22,2c-.333,2.772-.554,5.655-.776,8.538-.111,1.774-.222,3.437-.222,5.212-.111,2.772-.333,5.544-.222,8.316,0,4.214.222,8.649.444,13.2ZM383.852,167.857c-.776-.333-1.22,0-1.331.776a43.33,43.33,0,0,0-.333,5.433c.222,4.99.665,9.979,1,14.969l.665,10.977.333,3.992c.111,2.55.111,5.1.444,7.651.444,3.77,1.441,7.54,1.663,11.421.333,4.214,2,7.984,2.439,12.086a1.048,1.048,0,0,0,1.441,1c1.885-.444,3.77-.776,5.655-1.109,2.107-.333,4.214-.554,6.209-.887,3.77-.665,7.54-1.552,11.31-2.218h.222c2.883-.554,5.766-1.109,8.538-1.774,2.107-.554,4.1-1.441,6.32-2,3.1-.776,6.32-1.331,9.536-2,.887-.222,1.885-.222,2.439-.776.333-.222-.222-1.331-.222-2.107-.111-3.326-.333-6.764-.333-10.09-.111-3.659,0-7.318,0-10.977a125.856,125.856,0,0,1,1-12.751c.776-6.431,1.22-12.862,1.774-19.294.111-1.441-.111-1.774-1.663-1.774-2.772-.111-5.655,0-8.427-.111-4.435-.222-8.871-.554-13.2-.665-3.326-.111-6.764-.111-10.09,0-4.99.111-9.869.554-14.858.665-3.437-.111-6.986-.333-10.534-.444Zm183.733,41.137c-.222-.665-.111-1.774-.665-2.329a24.084,24.084,0,0,0-8.76-5.544c-2-.776-3.881-1.663-5.766-2.55-3.548-1.663-7.207-3.326-10.645-5.1-2.661-1.331-5.322-2.661-7.873-4.1-2.439-1.441-4.768-3.326-7.207-4.768-4.324-2.55-8.871-4.879-13.306-7.318l-1-.665c-.554-.444-.887-.111-1,.444-.333,1.331-.665,2.55-.887,3.881-.887,4.879-1.552,9.758-2.772,14.526a142.587,142.587,0,0,0-2.883,18.074c-.333,2.994-.554,5.988-.887,8.982-.444,4.214-1,8.427-1.441,12.641-.111,1.22-.444,2.661.776,3.659a21.271,21.271,0,0,0,3.881,2.55c2.55,1.441,5.1,2.661,7.651,3.992,1.109.554,2.218,1.331,3.326,1.885,1.663.665,3.437,1.109,5.1,1.774s2.439,1.663,2.218,3.326a23.675,23.675,0,0,0,0,2.883s13.528,9.314,14.636,9.758c2.439,1.109,4.324,2.994,6.875,3.992,3.326,1.22,6.32,3.326,9.425,5.1,1.663,1,2.107,1,2.328-1,.554-2.994.776-6.1,1.109-9.2.333-3.216.333-6.431.776-9.536.333-2.883,1-5.766,1.552-8.649a118.406,118.406,0,0,1,2.218-12.53,56.254,56.254,0,0,0,1.22-7.54c.333-2.55.665-5.1.887-7.651C566.919,215.2,567.252,212.321,567.585,208.994ZM555.72,431.647c1-.111,2.328-.111,3.659-.333,2.883-.444,5.655-1.109,8.538-1.552,3.992-.665,7.873-1.331,11.865-1.885,4.1-.554,8.205-1.109,12.308-1.552,2.218-.222,4.435-.111,6.542-.333,2-.111,3.992-.554,6.1-.665,3.77-.222,7.651-.554,11.421-1.109,1.109-.111,1.441-.554,1.331-1.552-.222-2.994-.444-5.988-.554-8.871-.222-5.1-.554-10.09-.665-15.191,0-4.214.111-8.538.444-12.751.333-4.768.776-9.536,1.331-14.193.333-2.661,1-3.437-2.994-2.994-4.324.444-8.538.776-12.862,1-2.994.222-5.988.222-9.092.444-4.546.222-9.2.665-13.75.887-2.328.111-4.768,0-7.1.222q-3.659.166-7.318.665c-2.772.333-5.655.776-8.427,1.22-2.439.333-4.768.887-7.207,1.22-2.218.333-2.661.776-2.772,3.1,0,.444-.111.887-.111,1.441v22.4c.111,7.762.222,15.634.333,23.4a9,9,0,0,0,.776,3.881c1.331,2.329,3.216,3.77,6.209,3.326a3.686,3.686,0,0,1,2-.222ZM338.5,204.448c-.111-1.331-.222-2.661-.444-3.992-.444-3.437-1-6.875-1.441-10.423-.333-3.659-.554-7.429-.887-11.2-.111-1.885-.665-2.218-2.439-1.885-4.768.887-9.536,1.663-14.3,2.661-4.435.887-8.871,2.107-13.306,3.1a68.489,68.489,0,0,1-6.875,1.331c-4.324.776-8.76,1.552-13.084,2.329-2.661.444-5.433.887-8.094,1.441a47.179,47.179,0,0,0-5.655,1.552,3.488,3.488,0,0,0-1.885,1.885,13.079,13.079,0,0,0-.554,4.1c0,2.55.333,5.1.444,7.651.111,2.329.222,4.768.444,7.1l1,11.643c.111,1.331.111,2.661.222,3.992.222,2.994.554,5.988.887,9.092a15.5,15.5,0,0,0,.887,3.77,21.7,21.7,0,0,0,3.659,6.875,43.4,43.4,0,0,0,4.1,4.879c3.216,2.883,6.764,5.433,10.2,8.205a1.8,1.8,0,0,0,1.331.111c5.766-1.22,11.643-2.439,17.3-3.881,4.546-1.109,8.981-2.661,13.639-3.881,3.548-1,7.207-1.663,10.866-2.439,1.663-.333,3.326-.554,4.99-1,2.107-.554,2.439-1.331,1.885-3.437a33.376,33.376,0,0,1-1-4.546c-.333-3.216-.554-6.431-.776-9.758-.222-2.994-.333-5.988-.444-9.092-.111-1.885.111-3.77,0-5.544-.222-3.548-.776-10.645-.665-10.645Zm-97.909,6.986c-.333-3.216-.665-6.32-1-9.536-.222-1.885-.444-2.218-2.218-1.774-6.1,1.22-12.2,2.55-18.3,3.881-4.657,1-9.314,2-13.971,3.1-5.655,1.331-11.31,2.883-16.965,4.324-2.883.776-5.766,1.441-8.649,2.329-3.659,1.22-7.207,2.55-10.867,3.77-1,.333-1.22.776-1.22,1.774.222,2.661.333,5.211.444,7.873a52.952,52.952,0,0,0,.665,5.877c.887,6.653,1.885,13.306,2.55,19.959a140.51,140.51,0,0,0,3.437,19.294,6.486,6.486,0,0,0,1.552,2.661c1.109,1.22,2.439,2.107,3.659,3.216a18.977,18.977,0,0,0,2.218,2c2.55,1.441,5.211,2.772,7.873,4.1a1.571,1.571,0,0,0,1.22-.111c1-.444,14.082-4.546,15.967-5.1a87.4,87.4,0,0,0,9.2-2.661c5.322-1.885,10.756-2.994,16.189-4.435q5.489-1.331,10.977-2.994c2.55-.776,3.1-1.774,2.661-4.435-.333-2.661-.776-5.433-1.109-8.094-.665-5.1-1.441-10.312-2-15.413s-.887-10.2-1.331-15.3c-.333-4.1-1-13.528-1-14.3ZM428.76,230.617c-2.439.665-4.879,1.441-7.429,2-3.437.776-6.875,1.331-10.312,2-4.768.887-9.536,1.774-14.3,2.55-3.659.665-7.429,1-11.088,1.774-5.1,1-10.2,2.329-15.3,3.437-2.994.665-5.988,1.331-8.982,2.107-2.107.554-4.1,1.109-6.209,1.663l-7.318,1.663c-4.214,1-8.427,2.329-12.751,2.883a127.9,127.9,0,0,0-18.185,4.435c-4.1,1.22-8.205,2.218-12.308,3.216-3.216.776-6.431,1.441-9.758,2.218-1.109.222-1.331.887-.333,1.441a61.414,61.414,0,0,0,6.875,3.992,2.21,2.21,0,0,1,1.663,2c.111,1.22-.222,1.441-1.331,1a17.665,17.665,0,0,1-3.216-1.663c-2.55-1.663-4.99-3.437-7.429-5.1a2.524,2.524,0,0,0-1.774-.444c-2,.333-3.881.776-5.766,1.22-5.544,1.22-10.977,2.439-16.522,3.659-3.659.776-7.318,1.22-10.977,2-3.77.776-7.54,1.774-11.421,2.661-2.661.665-5.322,1.22-7.984,1.885-5.211,1.331-10.312,2.661-15.524,4.1-3.881,1.109-7.762,2.329-11.754,3.437-3.437,1-6.875,2-10.312,3.1-1.109.333-2.218.887-3.326,1.331-.333.111-.554.554-.887.776a7.174,7.174,0,0,0,1,.887,138.466,138.466,0,0,1,14.526,7.54c1.441.887,3.1,1.22,4.435,2.218a112.305,112.305,0,0,0,13.639,7.984,1.8,1.8,0,0,1,1.109,1.885c-.111,2-.333,4.1-.333,6.1-.111,4.214-.222,8.538-.333,12.751-.111,3.992-.333,7.873-.554,11.864,0,0,.111,5.655.111,8.427,0,.554.222,1.441.665,1.663a8.439,8.439,0,0,0,3.326,1.109,93.028,93.028,0,0,0,17.519,1.109,20.775,20.775,0,0,0,4.546-1,1.58,1.58,0,0,1,2.218,1.22,1.494,1.494,0,0,1-1.22,2,23.305,23.305,0,0,1-4.768.554c-1.552.111-2.994-.222-4.546-.222-5.544-.111-11.088,0-16.411-1.441-.887-.222-1.331-.111-1.331.887,0,1.663-.111,3.437,0,5.1a2.189,2.189,0,0,0,.665,1.331c1.885,2,3.77,3.881,5.655,5.877a15.75,15.75,0,0,0,1.331,1.441c2.329,2.107,4.768,4.1,7.1,6.1a18.886,18.886,0,0,0,2.439,1.663c.444.222.887.333,1.331.554a9.238,9.238,0,0,1,.444-1.663v-.554a4.862,4.862,0,0,1,4.99-5.322h2.772c3.77.111,7.54.111,11.31.333,5.1.333,10.2.776,15.3,1.109a9.764,9.764,0,0,1,1.885.222c2.329.333,4.657.776,7.1,1.109,1.441.222,2.883.333,4.324.554,2.329.444,4.546,1,6.875,1.22a34.591,34.591,0,0,1,7.651,1.441,11.741,11.741,0,0,0,3.437.554,37.18,37.18,0,0,1,8.538,1.441c1.22.333,1.552.887,1.109,2.218a17.728,17.728,0,0,0-.554,2.329c-.222,4.1-.444,8.094-.554,12.2,0,1.441.222,1.663,1.663,1.109,1-.333,2-.776,2.994-1,2.218-.554,4.546-1,6.764-1.663,2.772-.887,5.433-2,8.205-2.994,3.216-1.109,6.431-2.107,9.425-3.437,5.322-2.218,10.645-4.768,15.967-7.1,3.216-1.441,6.653-2.661,9.869-3.881,2.439-1,4.879-2.107,7.429-2.994,2.107-.776,4.324-1.331,6.542-2,4.657-1.441,9.314-2.883,13.971-4.435a12.12,12.12,0,0,0,1.663-.887c-.444-.444-.776-1-1.22-1.441a1.787,1.787,0,0,0-.776-.444c-2.883-1.774-5.877-3.548-8.76-5.433-1.22-.776-2.439-1.774-3.659-2.661-3.992-2.661-7.984-5.322-11.864-7.984-1.885-1.331-3.216-2.994-2.994-5.433a19.281,19.281,0,0,0-.111-3.548l-.665-13.639a56.193,56.193,0,0,1,.333-6.1c.111-1.552.444-2.218,2-2.661,2.661-.665,5.433-1.441,8.094-2.107,2.55-.665,5.322-1.109,7.762-2,5.211-1.885,10.645-2.661,15.856-4.214,3.1-.887,6.209-1.885,9.314-3.1,2-.776,2.772-.554,2.772,1.663.111,2.107,0,4.214.111,6.209.222,4.1.444,8.094.665,12.2a1.874,1.874,0,0,0,.333,1.109,30.247,30.247,0,0,0,2.994,3.437c2.107,1.774,4.324,3.216,7.54,2.661,5.322-.887,10.645-1.441,15.967-2,5.655-.665,11.31-1.109,17.076-1.663,2.994-.333,5.988-.554,8.982-.887.776-.111,1.441-.444,2.218-.554a5.361,5.361,0,0,1,2.661.111,43.888,43.888,0,0,1,4.99,2.772c1.22.665,1.331,1.441,1,2.883a16.208,16.208,0,0,0-.554,2.218c-.111.333.111.776.222,1.109a7.65,7.65,0,0,0,.887-.333c2-.776,3.881-1.774,5.988-2.439,3.216-1.109,6.431-2,9.647-3.1,2.994-.887,5.877-1.885,8.871-2.883,4.1-1.331,8.205-2.439,12.308-3.77,2.883-1,5.766-2.107,8.76-2.994,5.655-1.663,11.31-3.216,16.965-4.768,2.439-.665,4.879-1.331,7.207-2.107,3.659-1.109,7.207-2.218,10.867-3.326,4.324-1.331,8.649-2.55,13.084-3.881,3.1-.887,6.1-1.885,9.2-2.772a1.973,1.973,0,0,0,1.22-.887c.111-.333-.333-.887-.776-1.22-1.441-1.109-3.1-2.107-4.546-3.326a35.5,35.5,0,0,0-5.766-3.992c-1.885-1-3.548-2.218-5.322-3.327-3.216-2-6.431-4.1-9.647-5.988-2.994-1.663-6.1-3.216-9.092-4.879-3.77-2-7.429-3.992-11.2-6.1-1.441-.776-2.994-1.441-4.546-2.329-1.331-.776-2.661-1.663-3.992-2.439a40.059,40.059,0,0,1-11.2-8.538c-.554-.554-.776-.444-.887.222-.333,1.331-.665,2.661-.887,3.881a1.34,1.34,0,0,0,.333,1.109c1.552,1.552,3.216,2.994,4.879,4.435,2.107,1.774,4.324,3.548,6.542,5.212a.886.886,0,0,1,0,1.552,44.7,44.7,0,0,1-3.548,2.883c-.776.554-1.663,1-2.439,1.663-2.661,2.107-5.322,4.214-7.762,6.431a3.079,3.079,0,0,1-3.659.554c-1.885-.887-3.77-2-5.655-2.994-3.327-1.885-6.542-3.77-9.869-5.544-2.772-1.552-5.655-2.994-8.427-4.546-3.992-2.218-7.984-4.435-12.086-6.653a2.062,2.062,0,0,1-1.331-2.439c.444-2.218,1.331-16.965,1.663-21.733.111-2.107-.111-3.548-2.439-4.657-3.77-2-7.1-4.546-10.645-6.875a11.19,11.19,0,0,0-1.663-.776,16.372,16.372,0,0,1-5.655-2.994c-1.331-1-2.661-1.774-4.1-2.661a1.251,1.251,0,0,0-.887.111c-1.885.665-3.659,1.441-5.544,2-3.1.887-6.32,1.552-9.425,2.329Zm-184.841,270c-.333-5.766-.665-11.532-.887-17.3-.111-4.768,0-9.536-.111-14.3,0-1.774.111-3.77-1.885-4.99-.554-.333-.665-1.441-.665-2.107a24.12,24.12,0,0,0-.111-2.883,52.61,52.61,0,0,1-.887-12.53c0-1.774.111-3.548.222-5.211.111-6.32.222-12.751.333-19.072.111-3.1.444-6.209.333-9.314-.111-2.883-.554-5.766-.776-8.649a2.484,2.484,0,0,1,.776-1.885,3.1,3.1,0,0,1,2.218.111,4.976,4.976,0,0,1,1.441,1.22c.776.554,1.22.554,1.331-.554.111-2.772.444-5.544.554-8.427.111-3.216.111-6.542.222-9.758,0-2.107.222-4.214.111-6.32a3.506,3.506,0,0,0-.665-1.885c-1.441-1.441-2.883-2.883-4.435-4.214-.444-.333-1-.887-1.441-.111-.776,1.331-2.107,1.552-3.216,2.329-1,.665-2,1.22-2.883,1.885-1.663,1.22-3.216,2.55-4.879,3.659a3.408,3.408,0,0,0-1.331,2.883c-.222,2.329-.333,2.329-2.772,2.661a11.948,11.948,0,0,0-3.216,1c-1.331.444-2.55,1-3.881,1.552a4.785,4.785,0,0,1-4.99-.444,2.283,2.283,0,0,0-1.885-.222c-3.1,1.774-5.988,3.77-8.981,5.655a3.076,3.076,0,0,0-1.441,3.1c.444,5.544.665,11.088,1.109,16.522.222,2.661.776,5.322,1.22,7.984.333,2,.554,3.992.887,6.1v.333c0,.887.111,2-1.109,2.329-.776.222-1.663-1-1.663-2.329-.111-1.552.111-3.1-.111-4.546-.554-4.214-1.331-8.427-1.885-12.641-.333-2.994-.554-5.988-.776-9.092-.222-2.661-.554-5.212-.776-7.873-.111-.665-.222-1-1-1a7.729,7.729,0,0,1-2.107-.665,10.3,10.3,0,0,0-1.109-.554c-1.552-.776-3.1-1.663-4.768-2.439-2.439-1.109-4.99-2.218-7.429-3.326a41.242,41.242,0,0,1-3.77-2.107c-2.883-1.774-5.655-3.659-8.538-5.433-1.552-1-1.885-.776-2,1a20.978,20.978,0,0,0,1.441,10.423,1.8,1.8,0,0,1-.111,1.331c-.333.222-1.109.222-1.331-.111a2.245,2.245,0,0,1-.887-1.552c-.444-3.548-1-6.986-1.109-10.534a4.689,4.689,0,0,0-2.883-4.324c-3.216-1.663-6.542-3.216-9.869-4.879-1.22-.554-1.552-.444-1.552,1-.111,1.22.111,2.55.111,3.881,0,2.994-.111,5.988,0,8.871.222,6.1.665,12.086,1,18.185l.333,6.986c0,.333.111.665-.111.887-.222.444-.554,1-1,1.109-.333.111-1-.333-1.22-.665a3.068,3.068,0,0,1-.554-1.774,151.134,151.134,0,0,0-.887-20.07,29.048,29.048,0,0,1-.111-3.1c0-4.879.111-9.758,0-14.637-.111-5.988-.111-11.975-.333-17.963-.222-3.881-.776-7.762-1.109-11.643a146.938,146.938,0,0,1-.665-18.517,96.442,96.442,0,0,0-.444-11.31c0-.333-.111-.665-.111-1,0-1.22.444-1.552,1.663-1.22a16.755,16.755,0,0,1,2,1c1,.554,1.441.444,1.441-.776,0-2.994.111-5.877-.111-8.871-.444-6.1-1.109-12.2-1.552-18.3-.222-3.216-.444-6.542-.665-9.758a3.524,3.524,0,0,0-.333-1,2.917,2.917,0,0,1,.776-3.216c1.663-1.552,3.216-2.994,4.879-4.435,2-1.885,2.772-1.774,4.657.222a11.812,11.812,0,0,0,3.1,2.107c.776.444,1.109,0,1.22-.776a80.779,80.779,0,0,0-.444-15.524c-.776-5.322-1-10.756-1.663-16.189-.333-3.437-.887-6.764-1.441-10.2-.222-1.885-.665-3.77-.887-5.655a1.473,1.473,0,0,1,1.885-1.663l4.324.665a6.7,6.7,0,0,0,2.107,0c5.655-.887,10.867-3.1,16.189-4.768,4.768-1.552,9.536-2.883,14.415-4.1,5.766-1.441,11.643-2.439,17.409-3.77,3.77-.887,7.429-2.107,11.088-2.994,3.881-.887,7.873-1.552,11.864-2.218a13.41,13.41,0,0,0,2-.554c2.107-.665,2.883-.111,3.1,2l.333,4.657c.554,7.54,1.109,14.969,1.774,22.509a51.159,51.159,0,0,0,1.331,9.2,73.042,73.042,0,0,0,3.326,8.094c.554,1.22,1.22,2.55,1.774,3.77l3.326,6.653c1.22,2.439,2.55,4.99,3.881,7.429.333.665.665,1.331-.222,2-1,.554-1.441.554-2-.444-.665-1.331-1.22-2.883-1.885-4.214-1.885-3.992-3.881-8.094-5.877-12.086a27.889,27.889,0,0,1-1.331-3.216l-.333-.333c0,.111-.111.333-.111.444.554,4.214,1,8.427,1.552,12.641.444,3.216.887,6.32,1.331,9.536.333,1.774.333,1.774,2.107,1.441,5.211-1.109,10.423-2.329,15.745-3.437.887-.222,1.22-.444,1-1.331-.554-3.992-1.22-8.094-1.774-12.086-.333-2.439-.554-4.99-.665-7.429l-.665-11.643c-.111-2.772-.333-5.544-.554-8.427-.333-3.77-.776-7.651-1.22-11.421-.554-4.657-1.22-9.314-1.663-14.082a16.6,16.6,0,0,1,.444-4.657c.111-.554.776-1,1.22-1.331,1.663-1.109,3.548-2.107,5.211-3.216,2.439-1.552,5.211-1.552,7.873-2.107,2-.444,4.1-.554,6.209-.887,3.437-.665,6.875-1.22,10.312-2,2.439-.665,4.99-.776,7.54-1.22,6.1-1,12.086-2.661,18.185-3.992,1.22-.222,2.439-.222,3.659-.554,3.881-1.22,7.984-1.663,11.975-2.439.554-.111,1-.111,1.552-.222a1.638,1.638,0,0,1,2,1.441c.333,2.55.776,5.211,1,7.762.554,5.766,1.109,11.643,1.774,17.409a23,23,0,0,0,1.109,3.659c1.109,3.881,2.218,7.873,3.1,11.864,1.441,6.542,3.659,12.862,4.435,19.515a49.677,49.677,0,0,0,1.22,6.875c.444,1.774.665,1.774,2.329,1.22,4.435-1.22,8.871-2.329,13.306-3.659a2.364,2.364,0,0,0,1.22-1.109,7.657,7.657,0,0,0,.444-2.772c.333-4.768.333-9.647,1.109-14.415a83.121,83.121,0,0,1,2.883-11.2,12.294,12.294,0,0,0,.444-5.322c-.222-2.218-.111-4.435-.111-6.653,0-2.661-.111-5.211-.111-7.873-.111-2.661-.222-5.211-.333-7.873-.111-2.994-.333-6.1-.333-9.092,0-3.1.333-6.32.554-9.425.111-1.663,1.663-2.661,2.994-1.774,2.994,1.774,6.209,1.774,9.536,1.885,3.216.111,6.32.222,9.536.333,4.99.222,9.979-.444,14.969-.665,1.663-.111,3.326,0,5.1,0h9.425c2.883.111,5.766.444,8.76.444,3.659.111,7.318.111,10.977.111,2,0,2.661.776,2.439,2.772-.554,5.322-.887,10.534-1.441,15.856a70.866,70.866,0,0,1-1,8.316,17.534,17.534,0,0,0,.776,8.316c1.22,4.214,2.772,8.427,4.214,12.641.665,2.107,1.22,4.214,1.774,6.431.776,3.216,1.22,3.437,4.214,2.218.111-.111.333-.111.444-.222,2.883-2,5.322-.665,7.762,1.109a25.18,25.18,0,0,0,5.1,3.326,38.854,38.854,0,0,1,6.875,4.1c2.55,1.552,5.322,2.994,7.873,4.435.665.444,1.109.111,1.331-.554s.444-1.441.665-2.218a2.268,2.268,0,0,1,3.659-1.331c2.772,1.774,5.655,3.659,8.427,5.433l.111.111a6.541,6.541,0,0,0,2.772.776c1.331-.111.887-1.552,1.109-2.439.554-3.77,1.109-7.54,1.552-11.421.111-.887.222-1.885.333-2.772a2.055,2.055,0,0,0-.222-.776c-.222.111-.665.222-.776.554a8.94,8.94,0,0,1-3.77,3.548,8.112,8.112,0,0,1-3.437,1,22.468,22.468,0,0,1-4.768-.665,3.539,3.539,0,0,1-1.774-1c-1.441-1.552-2.994-3.1-4.324-4.768-2-2.661-3.992-5.433-5.766-8.316a29.088,29.088,0,0,1-2.107-5.1,11.545,11.545,0,0,1-.665-1.774,3.048,3.048,0,0,1,.111-2c.222-.444,1-1,1.441-.887a1.486,1.486,0,0,1,.887,1.441,10.356,10.356,0,0,0,2.218,6.986c2.772,3.881,5.766,7.54,8.649,11.421,2.107,2.772,6.764,2.329,9.314.887,2.439-1.331,3.437-3.77,4.435-6.1a38.289,38.289,0,0,0,2.55-11.2c.333-2.661,1.109-5.322,1.552-8.094.665-3.326,1.441-6.764,2-10.09.443-2.661.665-5.322,1-7.984a16.671,16.671,0,0,0,0-3.326,1.489,1.489,0,0,1,.776-1.552c1.663-.776,3.327-1.552,4.879-2.329a2.834,2.834,0,0,1,2.661.111c1.552.887,3.326,1.441,4.879,2.218,1.22.554,2.329,1.331,3.437,1.885,1.774,1,3.659,2,5.433,2.994,2,1.109,3.881,2.218,5.877,3.326.444.222.887.554,1.331.776,5.1,2.661,10.2,5.433,15.413,8.094.776.333,1.441.665,2.218,1a86.06,86.06,0,0,1,10.2,4.879c2.772,1.552,5.877,2.772,8.76,4.214a2.449,2.449,0,0,1,1.109,1.441,7.782,7.782,0,0,1-.111,2.772c-.554,3.548-1.109,6.986-1.774,10.534-.333,1.885-.776,3.77-1.22,5.655a1.586,1.586,0,0,0,.887,2.107c3.326,1.663,6.542,3.77,10.423,4.324a1.83,1.83,0,0,1,1.552,2c-.111,1.885-.222,3.77-.333,5.544-.222,3.881-.554,7.651-.776,11.532-.444,6.764-1,13.528-1.441,20.181-.333,5.988-.554,11.975-.887,17.963a8.553,8.553,0,0,0,.222,1.663,13.869,13.869,0,0,1,.333,2.107,2.3,2.3,0,0,0,1,2.107c3.326,2.329,6.653,4.768,9.869,7.1,2,1.441,2,3.1-.111,4.435a5.46,5.46,0,0,1-1.885.665c-.776.222-1.552.333-2.439.554a1.943,1.943,0,0,0-1.552,2c-.222,4.768-.444,9.425-.665,14.193a55.966,55.966,0,0,0,0,6.1c.111,2.329.554,2.772,2.772,2.772,4.546,0,9.092-.333,13.639-.333q3.659,0,7.318.333c.444,0,1,.554,1.331.887a23.415,23.415,0,0,1,2.328,3.437,3.764,3.764,0,0,1,.554,2.107c-.333,2.883-.887,5.766-1.109,8.649-.222,2.329-.111,4.768-.111,7.1v8.205c0,2.439-.222,4.768-.333,7.1,0,.665.222.887.776.776,1.552-.222,2.994-.444,4.435-.665a4.356,4.356,0,0,1,1.663-.111,1.6,1.6,0,0,1,1.331,2.329,78.687,78.687,0,0,0-2.55,17.63c-.222,4.324-.111,8.649-.111,12.973.111,4.546-.111,9.2.444,13.749,1,9.2,1.22,18.517,1.331,27.721V452.6c0,3.548.222,7.1.333,10.645,0,.776.554,1.441.554,2.218a3.5,3.5,0,0,1-.776,2.107c-.222.222-1.22.111-1.663-.111a2.2,2.2,0,0,1-.665-1.441c-.111-8.316-.222-16.521-.333-24.838-.111-4.1-.222-8.205-.333-12.419,0-1.885-.333-2.218-2.218-2.107-5.877.333-11.864.776-17.741,1.109-4.1.222-8.094.333-12.2.776-2.661.222-5.322.887-7.873,1.331-2.107.333-4.214.333-6.209.776-2.107.333-4.324,1-6.431,1.441-1.663.333-3.437.665-5.1.887-2.55.333-5.211.554-7.762.665a17.912,17.912,0,0,1-3.437-.222c-.665-.111-1,0-.887.776.333,7.984.665,16.078,1.109,24.062.111,2.218.554,4.546.887,6.764a13.512,13.512,0,0,1,0,2.994,1.2,1.2,0,0,1-.887.887c-.222,0-.887-.444-.887-.776a30.086,30.086,0,0,1-.665-4.214c-.111-.776,0-1.663-.111-2.439-.222-3.216-.665-6.32-.887-9.536-.333-4.99-.554-9.869-.776-14.858v-2.772a9.408,9.408,0,0,0-2.439-6.875,61.972,61.972,0,0,1-5.1-6.653c-1-1.22-1.774-2.55-2.772-3.77-2.107-2.772-4.1-5.655-6.209-8.427-.222-.222-.554-.333-.776-.554-.111.333-.333.554-.333.887-.222,3.77-.554,7.54-.665,11.31,0,7.207.111,14.3.222,21.511,0,2,0,4.1.111,6.1.111,1,.444,1.885.554,2.883a3.624,3.624,0,0,1,0,1.885c-.222.554-.776,1.22-1.22,1.22-.776-.111-1.774-.333-2-1.441v-.554c0-7.54.111-15.08.111-22.509,0-4.324-.111-8.76-.111-13.084,0-2.107.333-4.324.333-6.431a41.119,41.119,0,0,0-.333-5.211c-.222-1.885,0-2.107,1.774-2.218,2.329-.111,2.772-.665,2.661-2.994-.222-2.994-.222-6.1-.333-9.092-.111-2.661-.222-5.322-.333-8.094a7.319,7.319,0,0,0-.111-1.552c0-.222-.222-.333-.444-.444a1.531,1.531,0,0,0-.333.444c-1.109,3.77-2.439,7.429-3.216,11.2-1.109,4.99-1.774,9.979-2.55,14.969a20.169,20.169,0,0,0,0,3.659,7.243,7.243,0,0,1,0,1.552c-.222.554-.776,1.441-1.22,1.441-.887.111-1.441-.776-1.441-1.663,0-1.552,0-3.216.111-4.768a115.982,115.982,0,0,1,3.77-20.4,76.991,76.991,0,0,1,3.77-9.979,28.3,28.3,0,0,0,2.107-10.866c.222-7.207.333-14.415.887-21.622.222-3.437.444-6.986.333-10.423a1.335,1.335,0,0,1,.776-1.109,7.731,7.731,0,0,1,2.107-.665c1.885-.444,3.881-.776,5.766-1.109.444-.111.887,0,.887-.776.111-2.883.333-5.766.443-8.76a23.353,23.353,0,0,0-.222-2.772c0-.333-.222-.776-.333-.776a7.152,7.152,0,0,0-2.661,0c-.776.222-2,.333-1.885,1.663.111.665.111,1.331.222,1.885a3.883,3.883,0,0,1-1.885,3.992c-2,1.22-4.1,2.439-6.1,3.659-.665.444-1.109.222-1.441-.444a1.964,1.964,0,0,1,.887-2.772c1.441-.776,2.994-1.552,4.435-2.439,1.441-.776,1.552-2.107,1.22-3.437-.111-.665-.333-.887-1.109-.665-1.663.665-3.326,1.22-5.1,1.885-2.883,1-5.766,2-8.76,2.994s-5.988,1.885-8.982,2.772c-5.433,1.663-10.756,3.326-16.078,5.211a42.088,42.088,0,0,0-6.653,3.437,2.3,2.3,0,0,0-1,1.441,72.124,72.124,0,0,0-1.441,16.189c0,1.885.444,2.218,2.218,1.774,1.663-.444,3.326-.887,4.99-1.441,1-.333,1.552-.111,1.774.887a7.486,7.486,0,0,1,.222,1.552c-.222,2.661-.554,5.212-.665,7.762-.111,3.437-.222,6.986-.222,10.423v6.431a129.086,129.086,0,0,0,.554,13.084c.776,6.209.554,12.419.776,18.628.222,3.326.444,6.764.665,10.09.222,4.657.444,9.425.554,14.082.111,2.55.111,5.1.222,7.651,0,.887.111,1.885-1.22,1.885a1.93,1.93,0,0,1-1.885-2.107c.111-4.435.222-8.871.111-13.306-.111-5.1-.665-10.2-.887-15.3-.111-2.772,0-5.433-.111-8.205,0-2.218-.222-4.435-.333-6.653q0-1.663-1.663-1.331c-2.218.444-4.546,1-6.764,1.552-3.216.776-6.32,1.552-9.536,2.218-2.772.665-5.544,1.109-8.427,1.774-1.663.333-3.216.887-4.879,1.331a1.936,1.936,0,0,0-1.663,2c-.222,4.99-.776,9.979.222,14.969.111.554.333,1.109.444,1.663a5,5,0,0,1,.333,1.22,1.555,1.555,0,0,1-1.109,1.885c-.887.222-1.441-.444-1.552-1.331a41.553,41.553,0,0,1-.554-5.211c0-3.992.111-7.984.111-12.086,0-1.441-.444-1.885-1.885-1.552-2,.444-3.881,1.109-5.877,1.663-2.994.887-5.877,1.774-8.76,2.772a49.424,49.424,0,0,0-5.544,2.439,3.523,3.523,0,0,1-1,.333c-1.885.554-2.439,1.109-2.329,3.1.665,9.979,1.331,19.848,1.885,29.827.111,1.109,0,2.218.111,3.326,0,.887.665,4.99.444,5.877-.111.776-.111,1.663-1.22,1.552-1-.111-1.441-.665-1.441-1.774,0-2.107.111-4.324,0-6.431-.222-4.214-.665-8.316-.887-12.53-.333-5.433-.554-10.866-.776-16.189-.111-1.552-.111-3.1-.333-4.657s-1.441-2.439-2.772-3.216c-2-1.109-4.1-2.107-6.1-3.216l-9.647-4.99c-1.552-.776-1.663-.665-1.552,1.109,0,1.552-.111,2.994-.111,4.546,0,1.885.222,3.881.333,5.766.111,1.109.111,2.107-1.109,2.439-1.109.333-1.663-.333-2.218-1.22a10.825,10.825,0,0,0-1.885-2c-.665-.665-1.331-1.331-.665-2.218a1.354,1.354,0,0,1,2.218-.333c.111.111.776-.222.776-.444,0-2.994.111-6.1,0-9.092a1.589,1.589,0,0,0-.554-1.22c-1.441-1-2.883-1.885-4.324-2.883-.665-.444-1-.222-1.109.444a17.118,17.118,0,0,0-.444,3.326c0,4.1.111,8.205,0,12.2a4.273,4.273,0,0,1-.665,2,2.089,2.089,0,0,1-1.331-.222c-.776-.444-.887-1-.776-1.885a58.438,58.438,0,0,0,.444-6.209l.333-10.312c.111-1.885,0-2-1.663-2.772a11.082,11.082,0,0,1-1.552-.887c-.887-.554-1.22-.444-1.331.665-.111,1.22-.222,2.55-.333,3.77a56.637,56.637,0,0,0-.554,6.1c0,2.994.111,5.988.333,8.871.222,5.1.444,10.09.776,15.191.222,2.994,0,5.988,1,8.982.554,1.885-.444,3.1-1.885,2.55-.887-.333-1.885-1.552-1.552-2.439.665-1.885.111-3.659.111-5.544,0-4.324-.222-8.76-.333-13.084s-.444-8.649-.444-12.973c0-3.992.222-7.984.333-12.086a12.318,12.318,0,0,1,.111-2.883,25.366,25.366,0,0,1,1.109-2.55c.444-1.109,5.544-1.331,7.1-2,.776-.333,1.109-1.441,1.552-2.329.333-.665.554-1.552.887-2.218.776-1.885,1.441-3.77,2.329-5.655.554-1.331,1.331-2.55,2-3.881a9.164,9.164,0,0,0,.887-2.439c.222-1.885.333-3.881.554-5.766.111-.887,0-1.331-1.109-1.109-3.437.887-6.764,1.552-10.2,2.55-3.326,1-6.653,2.218-9.869,3.326-3.77,1.331-7.318,2.994-11.088,4.1a124.267,124.267,0,0,0-14.3,5.766c-4.214,1.885-8.427,3.881-12.751,5.655-1.885.776-4.1,1-5.988,1.663-5.1,1.774-10.2,3.77-15.413,5.655a6.355,6.355,0,0,1-1.552.444c-2.218.444-2.661,1-2.55,3.216l.333,6.32a64.006,64.006,0,0,1,.222,7.984c-.222,2.994,1,5.322,2.439,7.651a71.616,71.616,0,0,1,7.1,14.3,21.566,21.566,0,0,0,.887,2.439c1.663,2.772,2.218,5.877,3.326,8.76a3.835,3.835,0,0,0,2.55,2.661,13.247,13.247,0,0,1,2.883,1.22c.887.444,1.109.887.444,1.552l-4.324,3.992a13.727,13.727,0,0,0-2.883,2.772,8.007,8.007,0,0,0-.665,3.992c.222,6.542.554,13.084.776,19.737.222,6.764.554,13.639-.111,20.4a37.33,37.33,0,0,0,.333,4.879,7.273,7.273,0,0,1-.111,2.218c-.111.443-.665,1-1,1a1.6,1.6,0,0,1-1.22-.776,11.17,11.17,0,0,1-.333-2.772c.111-7.318.333-14.526.222-21.844-.111-6.986-.554-13.971-.887-20.957v-2.661a1.576,1.576,0,0,0-.222-.665c-.222.111-.444.111-.554.222-2.661,2.107-5.433,4.214-8.094,6.32-3.437,2.772-6.875,5.766-10.312,8.538-2.439,1.885-4.99,3.659-7.429,5.544a31.258,31.258,0,0,0-3.992,3.659,3.578,3.578,0,0,0-.887,2.329c.111,3.881.333,7.651.444,11.532.222,4.879.333,9.647.665,14.526.222,3.881.665,7.762,1,11.643,0,.333.111.776-.111,1-.333.443-2.55.554-2.55.111a22.669,22.669,0,0,1,0-3.881l-.333-8.649c-.111-2.994-.222-6.1-.333-9.092q-.333-7.152-1-14.3a4.084,4.084,0,0,0-3.216-3.881c-2.329-.776-4.546-2-6.875-2.994-.333-.111-.776-.333-1.109-.444l-1.331-.333a6.322,6.322,0,0,1,.111,1.441c0,2.661.111,5.322.111,7.984a23.118,23.118,0,0,0,0,2.772c.111,1.441-.333,2.329-1.441,2.329a1.934,1.934,0,0,1-1.774-2.329c.111-1.109.444-2.329.665-3.437.444-2.661-1.22-10.534-2.107-10.866-6.1-2.55-12.308-4.879-18.407-7.54-5.211-2.329-10.2-4.879-15.3-7.429-1.331-.665-1.552-.665-1.552.887,0,3.992.111,7.873.111,11.864.111,3.992.222,7.873.333,11.864.111,4.1.222,8.094.444,12.2,0,.887.444,1.663.444,2.55a12.173,12.173,0,0,1-.222,2.883c-.111.443-1,1.109-1.331,1-.554-.111-1-.776-1.331-1.331-.222-.333-.111-.887-.111-1.331v-5.1c1,1.109,1,1.109,1.109,1.109Z" transform="translate(-144.9 -163.201)" fill="#181715" fill-rule="evenodd"/>
      <path id="Path_244" data-name="Path 244" d="M634.138,331.648c-.665-.665-1.22-1.331-1.885-2a2.007,2.007,0,0,0-2.218-.665c-.554.222-1.22,0-1.774.111-1.663.333-3.437.776-5.1,1.22-1,.333-1.109.776-.444,1.663a3.912,3.912,0,0,1,.887,1.441c.222.887.665.887,1.441.665,2.772-.776,5.544-1.441,8.316-2.218A1.6,1.6,0,0,0,634.138,331.648Zm-1.109,14.415h-2.107c-.887,0-1.22.554-.776,1.331.776,1.331,1.441,2.661,2.218,3.881.333.554.776.776,1.663.554,3.216-.887,6.431-1.552,9.647-2.329,2.329-.554,4.768-.887,6.986-2.218,1.331-.776,1.441-.776.222-1.885a15.736,15.736,0,0,1-1.441-1.331,2.6,2.6,0,0,0-3.216-.887,21.889,21.889,0,0,1-2.883.776A34.185,34.185,0,0,1,633.029,346.063Zm-31.6,22.842a66.645,66.645,0,0,1-.554,7.429c-.111,1.22-.333,2.55-.333,3.77,0,.333.554,1,.554,1,1-.444,2.439-.665,2.994-1.552a8.508,8.508,0,0,0,1.552-5.211c-.222-2.55-.111-5.1-.111-7.651.111-4.435.222-8.982.333-13.417a9.758,9.758,0,0,0-.222-1.885,3.492,3.492,0,0,0-2.55-1.552c-1,.222-.776,1.109-.776,1.774-.444,5.766-.665,11.532-.887,17.3Zm27.831-25.17c1.663-.111,2.994-.111,4.324-.333,3.326-.554,6.653-1.22,9.979-1.885,1.441-.333,1.441-.665.333-1.663-1.663-1.552-3.437-2.994-4.99-4.546a1.969,1.969,0,0,0-2-.776c-1.22.222-2.328.554-3.548.776-1.109.222-2.107.554-3.216.776-1.441.333-2.883.665-4.324,1.109-.776.222-1,.665-.444,1.441a19.657,19.657,0,0,1,1.663,3.437c.444,1.22,1,2.107,2.218,1.663Zm55.885-13.86v-1.663c-.333.222-.776.222-1,.554a14.73,14.73,0,0,1-5.211,3.437c-1,.333-1.109,1.109-1.109,2q-.166,4.823-.333,9.647c-.222,5.433-.554,10.756-.776,16.189-.111,2.661-.111,2.661,2.55,2.661.222,0,.444.111.665.111,1.774,0,2.994-1,2.994-2.439l.333-7.651c.111-1.885.111-3.77.333-5.766.444-5.766,1.109-11.421,1.552-17.076Zm1.663-32.489c0-1.331.111-2.439,0-3.437A2.7,2.7,0,0,0,685.7,292.4a4.522,4.522,0,0,0-4.657,1.663,9.226,9.226,0,0,0-1.441,4.768c-.222,2.329-.222,4.768-.444,7.1-.333,3.437-.665,6.764-1,10.2a46.679,46.679,0,0,0-.444,5.544c0,2.439,0,4.879.111,7.318,0,.222.665.554.776.444,1.331-.776,2.772-1.552,3.437-3.1,1-2.107,1-2.107,2.883-.776.111.111.554-.111.554-.222.222-2.883.444-5.655.444-8.538.111-3.548,0-7.207.111-10.756.333-2.883.665-5.877.776-8.649Zm-5.766-7.429c.444-.111.887-.222,1.22-.333,1.441-.443,1.552-.887.333-1.774a64.369,64.369,0,0,1-6.209-6.1c-2.883-3.1-6.1-5.877-9.2-8.76-3.326-3.1-6.764-6.209-10.09-9.425-2.994-2.883-6.542-5.212-9.2-8.538-2.218-2.772-4.879-5.322-7.318-7.873a59.155,59.155,0,0,0-4.657-4.435c-2.329-2-4.435-2-6.986-.222-.444.333-.554.554-.111,1.109,3.216,3.216,6.431,6.431,9.758,9.647A47.461,47.461,0,0,0,646,259.907a13.081,13.081,0,0,1,2,1.441c2,2.218,3.77,4.546,6.32,6.32a88.673,88.673,0,0,1,6.986,6.1c2.328,2.107,4.657,4.1,7.1,6.209l5.655,4.657,5.988,4.99a10.449,10.449,0,0,0,1,.333Zm-5.877,47.79h0v-1.441c0-2.329-.222-2.439-2.439-1.663-3.992,1.441-7.984,2.772-12.086,4.214-2.994,1-6.1,2-9.2,2.883-.776.222-1.109.444-.222,1.22,1.774,1.663,3.881,2.883,5.433,4.768a43.71,43.71,0,0,0,5.211,4.879c3.216,2.772,6.431,5.433,9.647,8.094a10.524,10.524,0,0,0,1.885,1.109,8.889,8.889,0,0,0,.554-2.328c.554-7.207.887-14.415,1.22-21.733Zm-55-47.014v-2.107c0-1.109-.444-1.109-1.109-.443-1.774,1.552-3.548,3.1-5.211,4.768a31.052,31.052,0,0,0-7.1,9.425c-.333.665-.887,1.22-1.22,1.885-1.441,2.55-2.883,4.99-4.214,7.651a2.806,2.806,0,0,0,.333,2.772c1.663,2.772,4.324,4.546,6.653,6.542,2.218,2,4.657,3.77,6.986,5.544a4.319,4.319,0,0,0,2.55,1.109c2.661-.222,5.212-.776,7.873-1.22a2.534,2.534,0,0,0,1.109-.776,6.737,6.737,0,0,0-.776-1.109c-1.331-1.22-2.661-2.55-4.1-3.77-.776-.665-1.885-1.22-2.661-1.885a3.488,3.488,0,0,1-.887-1.663c-.111-1.109.222-2.218.222-3.326.222-4.214.444-8.316.776-12.53.333-3.548.887-10.867.776-10.867Zm80.279,31.38c.111-2.883,0-3.548-1.441-5.212a12.456,12.456,0,0,0-2.218-2l-6.986-4.657c-.887-.554-1.22-.443-1.331.665l-.333,3.992c-.111,1.774-.111,3.548-.222,5.211-.333,4.214-.776,8.316-1.109,12.53-.333,3.881-.554,7.762-.776,11.643a3.069,3.069,0,0,0,.333,1.441c2.328,2.439,4.657,4.768,6.986,7.207,1.552,1.552,3.216,2.994,4.879,4.435.665.665,1.109.222,1.22-.443a23.353,23.353,0,0,0,.222-2.772c.887-4.324.333-8.649.444-13.084C700.557,334.864,700.446,328.544,700.446,322.112Zm-77.4,21.4c1.109,0,1.552-.333,1.22-1.22-1.109-2.218-2.218-4.324-3.437-6.431a7.869,7.869,0,0,0-1.109-1.552c-3.326-2.994-6.764-5.988-10.2-8.982-2.107-1.774-4.324-3.548-6.431-5.433-1.441-1.22-2.883-2.439-4.214-3.659-.776-.665-1.331-1.441-2.107-2.107l-5.655-4.324c-.333-.222-.776-.443-1.109-.665,0,.444-.222.776-.111,1.22.444,3.1.665,6.1,1.22,9.2a97.816,97.816,0,0,0,2.218,9.869c1.331,4.99,3.881,9.647,6.1,14.3a5.237,5.237,0,0,0,2.107,2,36.62,36.62,0,0,0,4.546,2.55c1.331.665,2.772,1.331,4.214,1.885,1.331.554,2.772,1,4.1,1.441,2.328.776,4.657,1.774,7.1,2.439,2.439.776,4.879,1.331,7.429,1.885a5.565,5.565,0,0,0,1.331.222c1.331,0,1.663-.554,1-1.774-1.109-2.107-2.439-4.1-3.548-6.209-1-2-2.55-2.328-4.435-2.107h-.222a2.413,2.413,0,0,1-2.55-.554c-.665-.444-1.441-1.109-1-2a1.752,1.752,0,0,1,2.328-.665A4.588,4.588,0,0,0,623.05,343.513Zm62.094,17.076h.111v2.994c0,.887-.333,1.22-1.22,1.331-1.552.222-3.216.776-4.768.887-1.885.111-3.881.443-5.655-.887-2.55-2-5.211-3.659-7.762-5.655-1.552-1.22-3.1-2.439-4.546-3.77-2.107-1.885-4.324-3.77-6.32-5.766-.887-.887-1.774-.776-2.883-.554-1.885.554-3.77,1-5.766,1.552-3.548,1-6.986,2.107-10.534,3.1-1.663.443-1.774.887-.776,2.218.665.887,1.441,1.774,2.107,2.772a1.585,1.585,0,0,1-.333,2.218c-.776.444-1.331.222-2-.443a3.268,3.268,0,0,0-1.441-.554c-.222,0-.444.222-.665.333l.444.444a10.169,10.169,0,0,1,2.329,1.441c1.885,1.552,3.548,3.326,5.433,4.879,1.109.887,2.329,1.552,3.326,2.439,2.994,2.55,5.766,5.211,8.76,7.762a16.645,16.645,0,0,0,3.659,2.107,1.409,1.409,0,0,0,1.331,0,28.872,28.872,0,0,0,2.772-1.109l12.641-5.655c2.661-1.22,5.322-2.328,7.984-3.548,1.22-.554,2.55-.776,3.77-1.331,3.326-1.552,6.542-3.216,9.869-4.879.776-.333,1.552-.665,2.218-1a1.111,1.111,0,0,0,.333-1.885c-1.552-1.663-3.216-3.216-4.768-4.768-2-1.885-3.992-3.77-5.988-5.544-.222-.222-.444-.222-.665-.333a1.656,1.656,0,0,0-.333.776c-.222,3.437-.444,6.986-.665,10.423Zm-7.54-63.979v-.333c.333-2.661-.111-4.99-2.883-6.32-.444-.222-.665-.665-1-1-1.109-1.109-2.218-2.329-3.326-3.327-4.879-4.324-9.758-8.649-14.637-12.862-1.22-1.109-2.661-2.107-3.881-3.216-1.331-1.109-2.55-2.218-3.77-3.326-1.663-1.552-3.216-3.326-4.99-4.879-2.439-2.218-5.1-4.324-7.54-6.653-3.1-2.883-5.988-5.988-8.871-9.092-.554-.554-.887-.444-1.109.333-.111.333-.111.665-.222,1-.111,2.218-.333,4.435-.444,6.653-.222,4.324-.444,8.649-.776,13.084,0,.333-.111.665-.111,1-.222,2.439-.444,4.99-.554,7.429-.222,3.992-.554,7.984-.665,12.086-.111,2-.111,4.1-.222,6.1-.111,3.659-.333,7.318-.444,10.977a21.292,21.292,0,0,1-.333,2.439c-.222,2.439-.333,4.879-.665,7.318a5.22,5.22,0,0,0,1.885,5.1c3.1,2.55,6.32,5.1,9.425,7.762,4.768,4.1,9.425,8.205,14.193,12.419a3.035,3.035,0,0,0,2.994.776,9.241,9.241,0,0,1,1.663-.443c3.992-1.331,8.094-2.55,12.086-3.881,3.77-1.22,7.429-2.218,10.867-4.324a1.473,1.473,0,0,0,.887-1.109c.111-1.22.444-17.076.554-18.407.776-5.322,2-15.3,1.885-15.3ZM625.933,379.66v8.982c0,1.109.111,2.329,0,3.437-.111,1-.887,1.552-1.774,1.109-2.772-1.441-5.433-.665-8.094,0q-2.329.5-2-1.663c.111-.887.554-1.441,1.552-1.109,2,.665,3.881-.333,5.877-.444,1.441-.111,2-.776,2-2.328.222-4.214.222-8.427.444-12.53.111-2.329.333-4.768.444-7.1.111-3.1.222-6.1.222-9.2a1.274,1.274,0,0,0-.665-1c-1.109-.444-2.218-.776-3.326-1.109-2.661-.887-5.322-1.774-7.873-2.772-1-.333-1.885-.776-2.883-1.22-1.109-.443-1.441-.222-1.552.887-.222,2.439-.444,4.99-.444,7.54,0,4.99.111,9.979.222,15.08,0,1.441.333,2.994.333,4.435,0,1.663-.222,1.774-1.885,2a34.687,34.687,0,0,0-4.879,1.109,1.722,1.722,0,0,0-1.441,1.885c0,2.661-.444,5.211.776,7.762a1.633,1.633,0,0,1-.554,2.329,1.751,1.751,0,0,1-2.107-1.552c-.222-1.22-.222-2.55-.333-3.77v-2.439c0-.665.111-1.552-.222-2s-1.22-.444-1.774-.776c-.444-.333-1.109-.887-1-1.22a3.725,3.725,0,0,1,1.109-1.774c.222-.222.776-.222,1.22-.333a1.348,1.348,0,0,0,1.331-1.331c.554-6.431,1.331-12.752,1.22-19.183-.111-2.883.111-5.655.222-8.538,0-1.441.111-2.772-1.22-3.77a3.33,3.33,0,0,1-1.109-2.329,18.927,18.927,0,0,0-2.439-5.988c-3.326-6.209-4.879-12.862-5.766-19.737-.222-2.218-1.109-4.324-1.552-6.431l-2-8.982c-.111-.665-.444-1.331.444-1.885,1-.554,2.439-.554,2.883,0a39.641,39.641,0,0,1,3.437,4.1,13.513,13.513,0,0,0,4.99,3.992c.554.333.776.111,1.109-.444,2.218-3.881,4.324-7.984,6.875-11.754,2-2.883,4.546-5.433,6.764-8.205a34.755,34.755,0,0,1,5.211-4.657,14.815,14.815,0,0,0,2.883-2.994,4.111,4.111,0,0,0,.444-1.663c.333-5.544.665-11.088,1-16.521.444-6.32.887-12.53,1.331-18.85a25,25,0,0,1,.665-3.992,2.231,2.231,0,0,1,1.774-1.885c2-.554,3.881-1.22,5.766-1.885,3.1-1.109,5.322-.444,7.429,2.218a39.651,39.651,0,0,0,2.994,3.216c1.22,1.22,2.55,2.439,3.77,3.77,2.439,2.55,4.99,5.1,7.207,7.762a49.389,49.389,0,0,0,7.984,7.207c2.661,2.107,4.99,4.657,7.429,6.986,2.328,2.218,4.879,4.324,7.207,6.542,1.552,1.441,2.994,3.1,4.546,4.546,2.55,2.329,5.322,4.546,7.762,6.986a7.27,7.27,0,0,1,2,5.766c-.111.887-.333,1.885-.444,2.772-.222,2.55-.444,5.1-.554,7.651a2.833,2.833,0,0,0,1.552,2.883c2.994,1.774,5.877,3.548,8.76,5.322,1.22.776,2.328,1.441,3.437,2.218a2.331,2.331,0,0,1,.776,1.22c.111,1.22,0,2.439,0,3.659-.111,5.655-.222,11.31-.222,16.965-.111,5.766-.111,11.421-.222,17.076a21.292,21.292,0,0,1-.333,2.439,17.294,17.294,0,0,0,.333,4.768c.333,1.774-.222,3.659-.333,5.544-.111,2.218-.222,4.546-.333,6.764-.333,6.209-.554,12.419-.887,18.628-.111,1.663-.333,3.326-.444,4.99a23.633,23.633,0,0,0,.333,2.772,4.715,4.715,0,0,1,.222,1.22c-.111.665,0,1.663-1,1.774-.776.111-1.441-.665-1.441-1.885,0-1.885-.111-3.77,0-5.544.222-3.437.554-6.986.776-10.423.222-3.1.333-6.32.333-9.425s0-6.209-.111-9.314c0-1.663-.222-1.885-1.774-1.22-2.107.887-4.1,2-6.1,2.883l-5.988,2.661c-2.55,1.109-5.211,2.218-7.873,3.326-3.77,1.552-7.651,3.1-11.421,4.768-2.328,1-4.546,2-6.875,3.1a4.5,4.5,0,0,0-2.772,4.214c-.222,6.986-.554,13.971-.776,20.957a60.2,60.2,0,0,0,.222,6.32c0,.887-.111,1.552-1.109,1.552-1.109,0-1.331-.776-1.22-1.663q.166-4.823.333-9.647c.222-6.653.554-13.306.776-19.848a3.439,3.439,0,0,0-1.109-2.661c-.333-.222-.665-.554-1-.776-3.659-2.218-6.431-5.544-9.536-8.427-2-1.885-4.324-3.437-6.542-5.211-.444-.333-.776-.665-1.22-1a31.969,31.969,0,0,0-7.984-5.211c-.887-.444-.776.333-.887.776-.222,2.329-.554,4.657-.665,6.986-.444,4.324-.554,8.538-.665,11.754Z" transform="translate(-96.912 -155.014)" fill="#181715" fill-rule="evenodd"/>
      <path id="Path_245" data-name="Path 245" d="M279.4,296.9c0-1.663.222-3.437-1.441-4.657-1.885-1.331-3.77-2.661-5.766-3.992-2.772-1.885-5.655-3.659-8.427-5.544-2.883-2-5.766-4.1-8.649-6.209-2.218-1.552-3.326-1.109-3.548,1.441-.222,3.437-.333,6.875-.444,10.312,0,1.109.444,2.218.222,3.326-.444,1.885.333,3.326,1.331,4.768a35.107,35.107,0,0,1,3.1,3.992c1.331,2.329,3.548,3.659,5.322,5.433,2.218,2.218,4.435,4.214,6.653,6.431,2.329,2.329,4.657,4.768,6.986,7.1,1,1,1.441.776,1.774-.444a20.333,20.333,0,0,0,.776-3.548c.776-6.209,1.441-12.308,2.107-18.407Zm-22.287,34.152c.887-.333,1.663-.554,2.439-.776.887-.333,1.663-.887,2.55-1.22a60.326,60.326,0,0,0,11.2-5.988c.776-.554,1-1,.222-1.663-.887-.887-1.774-1.663-2.55-2.55-2.661-2.661-5.211-5.322-7.873-7.873-3.881-3.881-8.316-7.318-11.532-11.864a6.348,6.348,0,0,0-1.774-1.663,1.948,1.948,0,0,0-1.552-.222,20.812,20.812,0,0,0-3.326,1.331c-3.659,1.663-7.318,3.437-10.977,5.212-1.331.665-1.331,1.441-.444,2.439l3.992,4.324c.776.887,1.441,2,2.329,2.883,3.548,3.881,6.542,8.205,10.534,11.643.222.222.333.444.554.665,1.331,1.441,2.661,3.1,4.1,4.435.444.444,1.441.554,2.107.887Zm24.949-38.365c-.554,5.544-1.109,10.977-1.663,16.411-.444,3.659-1.109,7.207-1.552,10.866-.111,1.109-.111,2.329-.222,3.437-.111.444-.554,1.22-.776,1.22-3.548.111-6.1,2.439-9.092,3.77-2.107.887-4.1,1.885-6.1,2.883-1.774.887-3.659,1.774-5.433,2.772-1.552.887-2.439.554-3.437-1a33.606,33.606,0,0,0-3.548-4.546c-2-2.218-3.992-4.324-5.988-6.542-.776-.887-1.331-1.885-2-2.772-2.55-2.994-4.99-6.1-7.762-8.871-1.552-1.552-3.1-3.326-5.1-4.214-1.331-.554-1.22-2,0-2.661,4.214-2.218,8.538-4.324,12.751-6.542a23.748,23.748,0,0,1,2.107-1.441,14.011,14.011,0,0,1,2.883-1.441c1-.333,1.441-.665,1.22-1.885a6.837,6.837,0,0,1,.222-2.55c.554-4.546,1.109-9.092,1.663-13.749.111-1.109.222-2.329.444-3.437.111-.887.665-1.22,1.441-.887a10.458,10.458,0,0,1,2.55,1.109c2,1.441,3.881,3.1,5.988,4.546,1.552,1.109,3.216,2.107,4.879,3.1,3.216,2,6.542,3.881,9.758,5.877a6.354,6.354,0,0,1,1.22,1.22,7,7,0,0,0,3.659,2.218c1.663.776,2,1.109,1.885,3.1Z" transform="translate(-135.809 -151.428)" fill="#181715" fill-rule="evenodd"/>
      <path id="Path_246" data-name="Path 246" d="M331.8,278.473c.665-.222,1.109-.333,1.663-.554,3.992-1.441,7.984-2.772,11.864-4.324,3.326-1.331,6.653-2.883,9.869-4.435a65.819,65.819,0,0,1,6.32-2.994c2.55-1,5.322-1.774,7.984-2.661,1.331-.444,2.55-1,3.881-1.552.554-.222.887-.776.333-1.331-.887-.887-1.885-1.774-2.772-2.661-3.437-2.994-6.986-5.988-10.423-9.092a2.9,2.9,0,0,0-2.772-.776c-4.546,1.109-9.092,2.107-13.639,3.216-4.324,1.109-8.538,2.218-12.862,3.437-2.772.776-5.544,1.774-8.316,2.772-3.548,1.22-6.986,2.55-10.534,3.881-1.109.444-1.109.665-.333,1.331,2.218,1.774,4.546,3.659,6.764,5.433,3.881,3.1,7.651,6.209,11.532,9.314a11.244,11.244,0,0,0,1.441,1Zm45.684-16.3a4.767,4.767,0,0,1-1.109,1,30.382,30.382,0,0,1-4.435,1.663c-2.329.776-4.657,1.331-6.986,2.329-4.324,1.885-8.649,3.992-12.973,5.988-2.329,1-4.546,2-6.986,2.883-3.1,1.22-6.209,2.329-9.314,3.437a18.459,18.459,0,0,0-2.55,1.331,1.7,1.7,0,0,1-2.329-.111,6.339,6.339,0,0,1-.887-.776c-1.663-1.552-3.326-3.216-5.1-4.768-1.331-1.22-2.661-2.439-4.1-3.548-2.994-2.329-5.988-4.546-9.092-6.653-1.22-.776-2.55-1.441-3.77-2.107-.222-.111-.665-.111-.776-.333a3.417,3.417,0,0,1-.776-1.552c0-.333.776-.776,1.22-1,1.774-.444,3.659-.776,5.433-1.331,3.659-1.109,7.207-2.329,10.756-3.548,3.1-1,6.32-1.885,9.536-2.883,2.661-.776,5.322-1.552,8.094-2.218,4.99-1.22,9.979-2.439,14.969-3.77l2-.665c1.331-.665,2.218-.554,3.1.554,3.1,3.992,7.1,7.207,10.866,10.534,1.441,1.22,2.883,2.439,4.324,3.77.333.554.554,1.109.887,1.774Z" transform="translate(-127.335 -154.285)" fill="#181715" fill-rule="evenodd"/>
      <path id="Path_247" data-name="Path 247" d="M224.518,235.781c0,1.109-.665,1.885-1.774,1.552-3.881-.887-17.409,1.885-19.959,2.772-2.107.776-3.548-.333-3.992-2.439-.222-1.109-.554-2.107-.887-3.216-.111-.444-.222-2.439.887-2.55s1.663,2.439,1.885,3.216A2.268,2.268,0,0,0,203.34,237c5.766-1.22,17.519-2.439,18.739-3.437.887-.665,2.329.665,2.439,2.218Z" transform="translate(-139.139 -155.725)" fill="#181715" fill-rule="evenodd"/>
      <path id="Path_248" data-name="Path 248" d="M205.029,221.721c0,1-.665.887-1.109,1a.989.989,0,0,1-1.22-1.109,1.026,1.026,0,0,1,1.22-1.109A1.212,1.212,0,0,1,205.029,221.721Z" transform="translate(-138.61 -156.967)" fill="#181715" fill-rule="evenodd"/>
      <path id="Path_249" data-name="Path 249" d="M217.809,219.2c1-.111,1.22,1.331,1.109,1.774s-.444,1.22-1.22,1.109a1.043,1.043,0,0,1-1-1c0-.444.111-1.663,1.109-1.885Z" transform="translate(-137.086 -157.108)" fill="#181715" fill-rule="evenodd"/>
      <path id="Path_250" data-name="Path 250" d="M288.42,210.506c.665-.222,1,.222,1.22.887.444,1.441,1.331,2,3.1,1.885a53.135,53.135,0,0,0,12.419-2.218c.776-.222,1.441-.111,1.663.776s-.111,1.552-1,1.663c-2.218.444-4.324.776-6.542,1.22-2.661.554-5.211,1.109-7.873,1.552a2.275,2.275,0,0,1-1.885-.554C288.531,214.608,287.865,210.617,288.42,210.506Z" transform="translate(-129.303 -158.06)" fill="#181715" fill-rule="evenodd"/>
      <path id="Path_251" data-name="Path 251" d="M304.885,197.891c0,.665-.222,1.331-1,1.331S301.781,198,302,197.448a3.033,3.033,0,0,1,1.441-1.441c.887-.333,1.441.665,1.441,1.885Z" transform="translate(-127.806 -159.638)" fill="#181715" fill-rule="evenodd"/>
      <path id="Path_252" data-name="Path 252" d="M285.874,200.921c-.111.111-.444.776-.887.887-.776.222-2.107-.887-1.885-1.552a3.058,3.058,0,0,1,1.331-1.552c.665-.222,1.441.776,1.441,2.218Z" transform="translate(-129.863 -159.341)" fill="#181715" fill-rule="evenodd"/>
      <path id="Path_253" data-name="Path 253" d="M509.343,220.311a9.172,9.172,0,0,0-1-1.774c0-.111-.554,0-.665.111-1.109,2-3.216,2.772-4.99,3.881-.222.111-.444.444-.333.665,0,.222.333.444.554.554a1.314,1.314,0,0,0,.887-.111,12.1,12.1,0,0,0,4.99-2.661C509.011,220.755,509.121,220.533,509.343,220.311Zm-8.205,6.986c-2.218-.333-2.772-3.992-3.326-5.433a1.353,1.353,0,0,1,1.663-1.885c1.109.333,2.107,1,3.1.111a36.15,36.15,0,0,0,3.659-3.437c.554-.554.665-1.552,1.663-1.552,1.109,0,1.663.776,2.107,1.663.554,1.22,1.109,2.439,1.552,3.659a1.683,1.683,0,0,1-.665,2.329,25.074,25.074,0,0,1-3.881,1.885c-1.441.776-3.659,2.994-5.877,2.661Z" transform="translate(-106.507 -157.553)" fill="#181715" fill-rule="evenodd"/>
      <path id="Path_254" data-name="Path 254" d="M488.473,197.041c0,.665-.222,1.331-1.109,1.331a1.45,1.45,0,0,1-1.663-1.441c-.111-1,.554-1.331,1.441-1.331S488.362,196.154,488.473,197.041Z" transform="translate(-107.813 -159.675)" fill="#181715" fill-rule="evenodd"/>
      <path id="Path_255" data-name="Path 255" d="M502.591,202.617c-1.22,0-.887-1.774-.887-1.885a1.064,1.064,0,0,1,1.22-1.331c.776.111,1.663.887,1.441,1.663A1.712,1.712,0,0,1,502.591,202.617Z" transform="translate(-106.075 -159.263)" fill="#181715" fill-rule="evenodd"/>
      <path id="Path_256" data-name="Path 256" d="M384.748,200.965c-2.107.111-2.994-.665-3.216-2.772-.111-.665-.222-1.331-.333-2.107,0-.887.111-1.774,1.109-1.885s1.22.776,1.22,1.552a1.719,1.719,0,0,0,1.774,1.885c1.331.111,2.55.222,3.77.333,3.548.111,15.191-1.22,16.189-1.109.887.111.554,1.331.444,1.885,0,.222-8.981,1.331-12.862,1.331-2.55.111-5.322.554-8.094.887Z" transform="translate(-119.184 -159.829)" fill="#181715" fill-rule="evenodd"/>
      <path id="Path_257" data-name="Path 257" d="M383.183,181.732c.333,1.441-.776,1.552-1.22,1.774-.665.333-1.663-.776-1.663-1.663s.554-1.552,1.441-1.441c.444.111,1.109,0,1.441,1.331Z" transform="translate(-119.282 -161.331)" fill="#181715" fill-rule="evenodd"/>
      <path id="Path_258" data-name="Path 258" d="M398.945,182.373c-1.441.111-1.22-.887-1.441-1.441s.665-1.441,1.441-1.331C400.275,179.6,400.386,182.151,398.945,182.373Z" transform="translate(-117.414 -161.418)" fill="#181715" fill-rule="evenodd"/>
      <path id="Path_259" data-name="Path 259" d="M391.345,304.682c-.111-.887-.222-1.663-.333-2.55s-.111-1.885-.222-2.772c-.444-2.661-1.774-3.216-4.1-1.774a19.445,19.445,0,0,1-3.1,1.441c-1.331.444-2.772.665-4.214,1.109-3.548,1-7.1,2.107-10.645,3.216-2,.665-3.992,1.552-5.988,2.439a1.591,1.591,0,0,0-1.109,1.774c.554,2.883,1,5.877,1.441,8.76a20.976,20.976,0,0,1,.554,2.55c0,1.22.554,1.22,1.441,1a10.407,10.407,0,0,0,1.663-.665c1.663-1.109,3.326-2.218,4.99-3.216a29.3,29.3,0,0,1,4.1-2.218c4.657-1.885,9.425-3.437,13.749-5.877C390.791,306.9,391.789,306.234,391.345,304.682Zm2.329,3.1c.222.776-.333,1.22-1.663,1.663-2.55.776-4.879,1.885-7.318,2.772-2.55,1-5.1,1.885-7.651,2.883-.444.222-.887.554-1.331.776a46.887,46.887,0,0,1-11.864,6.32c-1.109.333-1.663,0-1.885-1.109-.887-3.881-1.663-7.873-2.439-11.754a28.26,28.26,0,0,1-.222-4.324,1.69,1.69,0,0,1,.665-1.109,6.472,6.472,0,0,1,2.439-.887c3.659-1,7.318-1.885,10.977-2.772a37.671,37.671,0,0,0,3.77-1.331c3.216-1.109,6.431-2.218,9.647-3.437a23.459,23.459,0,0,0,2.329-1.22c1.663-1.109,2.883-.665,3.1,1.22l1,7.984c.111,1.22.222,2.55.444,4.324Z" transform="translate(-121.568 -149.004)" fill="#181715" fill-rule="evenodd"/>
      <path id="Path_260" data-name="Path 260" d="M643.708,306.253c-.333,0-.665.222-.887,0a4.256,4.256,0,0,1-1.22-1.22c-.111-.111.554-.887.887-1a32.233,32.233,0,0,1,4.324-1.331,1.407,1.407,0,0,0,1.331-1.774c-.111-.887-.222-2.107.887-2.328,1.22-.222,1.331,1.109,1.552,2a14.046,14.046,0,0,0,.665,2,1.213,1.213,0,0,1-.776,1.774C648.587,305.034,644.041,306.253,643.708,306.253Z" transform="translate(-90.847 -148.469)" fill="#181715" fill-rule="evenodd"/>
      <path id="Path_261" data-name="Path 261" d="M651.11,285.6a2.788,2.788,0,0,1,2.328,1.885,2,2,0,0,1-1.774,1.663A1.662,1.662,0,0,1,650,287.374C650,286.6,650.112,285.711,651.11,285.6Z" transform="translate(-89.933 -149.881)" fill="#181715" fill-rule="evenodd"/>
      <path id="Path_262" data-name="Path 262" d="M629.742,275.3a1.266,1.266,0,0,1-1.441-1.22,1.828,1.828,0,0,1,1.663-1.885,1.636,1.636,0,0,1,1.774,1.441c.111,1.109-.665,1.663-2,1.663Z" transform="translate(-92.294 -151.339)" fill="#181715" fill-rule="evenodd"/>
      <path id="Path_263" data-name="Path 263" d="M239.309,303a3.989,3.989,0,0,1,1,.554c1.331,1.552,2.661,3.1,4.1,4.657a12.607,12.607,0,0,1,1.663,1.774c.887,1,1.663,2.218,2.661,3.216a16.228,16.228,0,0,0,3.1,2.329c.665.444,1.22.776,1,1.552a2.4,2.4,0,0,1-1.22,1.331c-.665.333-1.109-.111-1.552-.776-.887-1.109-1.885-2-2.883-3.1-2.883-2.994-5.655-5.988-8.538-8.982a2.676,2.676,0,0,1-.444-1.885A3.149,3.149,0,0,0,239.309,303Z" transform="translate(-134.746 -147.988)" fill="#181715" fill-rule="evenodd"/>
      <path id="Path_264" data-name="Path 264" d="M253.543,289.279a17.907,17.907,0,0,1,0,2.439,2.091,2.091,0,0,0,1.109,2.107c2.55,1.885,4.99,3.881,7.54,5.877,1.774,1.441,3.548,2.994,5.433,4.435,1.441,1.109,2.107.776,2.439-1.109a6.245,6.245,0,0,0,0-1.441,6.739,6.739,0,0,1,.111-2.107,3.815,3.815,0,0,0-1.663-4.657c-4.214-3.216-8.538-6.431-12.751-9.647-.111-.111-.222-.111-.333-.222-1.109-.554-1.552-.333-1.663.776-.111,1.22-.111,2.329-.222,3.548Zm19.737,6.653a1.644,1.644,0,0,1-.111.776c-.665,3.77-1.331,7.54-2.107,11.31-.111.554-.111,1.441-1,1.441a1.937,1.937,0,0,1-2-1,10.137,10.137,0,0,0-2.218-2.661c-3.77-3.216-7.318-6.764-11.754-9.314-3.437-2-3.326-2-2.661-5.877.444-2.661.887-5.433.111-8.094-.222-.776-.333-1.774.554-2.107a2.521,2.521,0,0,1,2,.333c2.55,1.885,5.1,3.992,7.651,5.988.222.222.554.444.776.665,2.218,1.552,4.546,3.216,6.764,4.768a9.065,9.065,0,0,0,2.218,1.331c1.774.222,1.774,1.331,1.774,2.439Z" transform="translate(-133.346 -150.456)" fill="#181715" fill-rule="evenodd"/>
    </g>
  </g>
</svg>
