<svg xmlns="http://www.w3.org/2000/svg" xmlns:xlink="http://www.w3.org/1999/xlink" width="667.501" height="445" viewBox="0 0 667.501 445">
  <defs>
    <linearGradient id="linear-gradient" x1="0.875" y1="0.054" x2="0.284" y2="0.668" gradientUnits="objectBoundingBox">
      <stop offset="0" stop-color="#ffc4e6"/>
      <stop offset="0.466" stop-color="#8e8aea"/>
      <stop offset="0.898" stop-color="#60023a"/>
      <stop offset="1" stop-color="#5f0037"/>
    </linearGradient>
  </defs>
  <path id="path2" d="M335.18,32.371V64.834l-.69.145a8.527,8.527,0,0,0-3.226,1.669,7.108,7.108,0,0,0-2.459,5.451,6.719,6.719,0,0,0,2.136,5.129,6.807,6.807,0,0,0,3.393,1.991l.79.2.033,4.127c.022,3.86.011,4.138-.167,4.194a4.06,4.06,0,0,0-2.737,5.2l.222.634-1.513.879c-.834.478-4.439,2.559-8.021,4.628s-8.911,5.151-11.848,6.842c-13.395,7.732-19.246,11.114-20.67,11.937l-1.535.879-.545-.567a4.053,4.053,0,1,0-5.818,5.64,4.114,4.114,0,0,0,2.181,1.09l.523.078v11.959l-1.635-.946c-.912-.523-3.171-1.824-5.04-2.892s-3.449-1.991-3.516-2.047c-.089-.067-.056-.289.1-.734a4.217,4.217,0,0,0-1.1-4.25,4.044,4.044,0,0,0-3.349-1.012,4.1,4.1,0,0,0-3.082,2.336,2.974,2.974,0,0,0-.345,1.613,3.844,3.844,0,0,0,.211,1.424,2.12,2.12,0,0,1,.167.567c-.022.022-1.546.912-3.382,1.969s-6.341,3.66-10.013,5.774-10.124,5.852-14.351,8.288-9.5,5.5-11.737,6.786L224.1,156.17l-.478-.534a4.315,4.315,0,0,0-1.224-.9,2.994,2.994,0,0,0-1.858-.367,2.946,2.946,0,0,0-1.68.3,6.859,6.859,0,0,0-.912.59l-.345.289-2.481-1.435c-1.368-.779-2.948-1.691-3.516-2.025a10.584,10.584,0,0,1-1.079-.667,2.081,2.081,0,0,1,.122-.623,7.3,7.3,0,0,0-12.927-6.419,7.8,7.8,0,0,0-1.246,2.948l-.078.59-95.1.033-95.085.022v1.78H196.451l.067.3a7.461,7.461,0,0,0,1.991,3.649,7.208,7.208,0,0,0,2.859,1.813,9.4,9.4,0,0,0,4.628,0,7.086,7.086,0,0,0,2.815-1.769l.734-.723,3.549,2.047,3.549,2.047-.033,1.012a3.448,3.448,0,0,0,.2,1.658,4.268,4.268,0,0,0,3.093,2.548l.579.122V212.8l-.534.078a4.261,4.261,0,0,0-2.993,2.2,5.434,5.434,0,0,0,0,3.627,4.259,4.259,0,0,0,1.925,1.858,4.383,4.383,0,0,0,3.382-.011,4.712,4.712,0,0,0,1.279-.912l.567-.567.712.423c.4.234,2.581,1.491,4.839,2.792s4.25,2.459,4.428,2.559l.3.189-3.193,1.836c-1.769,1.012-4.083,2.358-5.162,2.981l-1.969,1.124-.567-.6a3.618,3.618,0,0,0-2.9-1.235,3.086,3.086,0,0,0-1.691.345,4.021,4.021,0,0,0-1.969,1.914,3.274,3.274,0,0,0-.289,1.791,2.721,2.721,0,0,0,.378,1.869,4.016,4.016,0,0,0,2.937,2.092l.523.078V287.59l-.3.056a4.085,4.085,0,0,0-2.625,1.391,3.6,3.6,0,0,0-.957,2.87l.033,1.035-2.67,1.524c-1.457.846-3.048,1.769-3.538,2.047l-.868.5-.69-.679a7.271,7.271,0,0,0-2.9-1.813,8.808,8.808,0,0,0-4.561,0,7.219,7.219,0,0,0-2.97,1.88,7.752,7.752,0,0,0-2.08,5.262l.033.668-95.085.033-95.085.022v1.78H196.841l.389.734a7.511,7.511,0,0,0,5.607,3.827,7.405,7.405,0,0,0,7.932-5.451,9.11,9.11,0,0,0-.056-3.838,2.116,2.116,0,0,1-.156-.857c.044-.044,1.646-.979,3.56-2.091l3.482-2,.456.389a3.852,3.852,0,0,0,2.536.868,3.658,3.658,0,0,0,2.826-1.157,8.078,8.078,0,0,1,.7-.656c.033,0,1.569.879,10.547,6.063,7.521,4.35,16.421,9.478,26.366,15.219,3.616,2.08,6.586,3.8,6.608,3.816a2.955,2.955,0,0,1-.167.623,4.467,4.467,0,0,0-.211,1.424,4.032,4.032,0,0,0,7.71,1.569,4.377,4.377,0,0,0,.167-2.937l-.223-.645,1.012-.59c.812-.467,6.486-3.749,8.711-5.028a3.7,3.7,0,0,1,.523-.267c.033,0,.067,2.67.067,5.941v5.93l-.5.067A4.215,4.215,0,0,0,281.7,327.4a2.891,2.891,0,0,0-.312,1.691,2.962,2.962,0,0,0,.367,1.8,4.046,4.046,0,0,0,5.462,1.847,4.833,4.833,0,0,0,1.09-.834l.59-.59,6.809,3.927c3.749,2.169,9.9,5.718,13.662,7.888s8.944,5.162,11.514,6.653,6.23,3.593,8.132,4.684l3.46,2-.223.634a4.447,4.447,0,0,0,.178,3.037,4.243,4.243,0,0,0,2.036,1.958l.712.311-.022,4.094-.033,4.105-.946.278a6.851,6.851,0,0,0-3.026,1.68A7.222,7.222,0,0,0,328.839,377a7.355,7.355,0,0,0,3.282,7.042,7.878,7.878,0,0,0,2.592,1.057l.467.078V444.9h1.78l.022-29.826.033-29.826.946-.278a7.483,7.483,0,0,0,5.385-7.1,5.274,5.274,0,0,0-.312-2.225,7.115,7.115,0,0,0-2.826-3.76,8,8,0,0,0-2.659-1.135l-.478-.078v-8.277l.645-.289a3.744,3.744,0,0,0,1.991-1.947,2.771,2.771,0,0,0,.4-1.735,4.571,4.571,0,0,0-.189-1.4,1.024,1.024,0,0,1-.1-.578c.089-.078,4.228-2.481,15.608-9.056,2.848-1.646,7.9-4.561,11.236-6.486s8.366-4.828,11.181-6.453,5.2-3,5.3-3.059c.133-.078.3.022.745.5a4.031,4.031,0,0,0,5.807.022,3.263,3.263,0,0,0,1.057-2.826,2.775,2.775,0,0,0-.311-1.758,4.18,4.18,0,0,0-2.993-2.2l-.534-.078v-5.93c0-3.271.044-5.941.089-5.941s1.112.59,2.358,1.313,3.538,2.036,5.062,2.915,2.792,1.6,2.815,1.624a3.035,3.035,0,0,1-.2.7,3.72,3.72,0,0,0-.044,2.359,3.915,3.915,0,0,0,2.292,2.592,4,4,0,0,0,5.629-3.471,3.348,3.348,0,0,0-.178-1.5l-.234-.634.245-.156c.134-.078,2.7-1.569,5.7-3.293s8.711-5.029,12.682-7.32,8.511-4.917,10.079-5.818,5.529-3.193,8.822-5.1,6.019-3.46,6.063-3.46a2.144,2.144,0,0,1,.478.478,3.942,3.942,0,0,0,1.046.823,4.092,4.092,0,0,0,4.617-.423l.4-.311.334.211c.189.111,1.758,1.012,3.493,2.014s3.182,1.824,3.2,1.836a5.585,5.585,0,0,1-.211.946,8.239,8.239,0,0,0-.056,3.716,7.321,7.321,0,0,0,9.734,5.051,7.485,7.485,0,0,0,4.617-5.7l.067-.412h197.9v-1.78l-98.968-.022-98.968-.033-.245-.834a6.745,6.745,0,0,0-1.9-3.171,5.887,5.887,0,0,0-1.847-1.368,7.17,7.17,0,0,0-8.31,1.257l-.846.8-3.282-1.891c-1.813-1.035-3.393-1.958-3.516-2.047-.2-.133-.223-.278-.223-1.235a3.122,3.122,0,0,0-.356-1.824,3.841,3.841,0,0,0-2.815-2.258l-.612-.133-.033-25.2-.022-25.209.523-.078a4.405,4.405,0,0,0,1.179-.412,4.035,4.035,0,1,0-4.739-6.419l-.645.656-3.36-1.936c-5.2-2.993-6.686-3.86-6.786-3.949-.044-.056,2.214-1.424,5.04-3.059l5.129-2.97.5.556a4.38,4.38,0,0,0,1.246.923,4.373,4.373,0,0,0,3.482.011,4.219,4.219,0,0,0,1.969-2.014,4.6,4.6,0,0,0,0-3.271,4.323,4.323,0,0,0-3.048-2.381l-.489-.067V187.632c0-22.851.011-25.176.178-25.243a1.518,1.518,0,0,1,.412-.067,4.881,4.881,0,0,0,1.858-.89,4.248,4.248,0,0,0,1.424-3.516l-.033-.834,3.5-2.036,3.5-2.025.9.834a7.132,7.132,0,0,0,10.113-.156,6.4,6.4,0,0,0,1.313-1.691,8.463,8.463,0,0,0,.857-2.892v-.367H673.714v-1.78l-99.035-.022-99.024-.033-.2-.578a7.432,7.432,0,0,0-4.661-4.706,9.092,9.092,0,0,0-3.949-.178,7.342,7.342,0,0,0-5.4,9.067,5.592,5.592,0,0,1,.211.946c-.033.022-6.8,3.916-7.031,4.038-.044.033-.267-.111-.489-.311a3.213,3.213,0,0,0-2.537-.823,3.071,3.071,0,0,0-1.78.323,5.727,5.727,0,0,0-1.19.868,3.7,3.7,0,0,1-.59.534c-.033,0-1-.545-2.147-1.213s-5.529-3.193-9.757-5.629-10.68-6.163-14.351-8.288-9-5.2-11.848-6.842-5.229-3.026-5.3-3.07c-.089-.067-.056-.289.1-.734a4.269,4.269,0,0,0-.189-2.97,4.367,4.367,0,0,0-2.025-1.98,2.924,2.924,0,0,0-1.58-.345,3.7,3.7,0,0,0-2.792,1.1,3.914,3.914,0,0,0-1.135,4.15,3.449,3.449,0,0,1,.211.734c-.267.189-10.135,5.841-10.213,5.841s-.1-2.125-.089-5.919l.033-5.919.478-.089a4.14,4.14,0,0,0,2.926-2.114,2.737,2.737,0,0,0,.378-1.869,3.092,3.092,0,0,0-.311-1.8A4.035,4.035,0,0,0,386.8,116.9a3.642,3.642,0,0,0-2.826,1.157,8.076,8.076,0,0,1-.7.656c-.011,0-3.593-2.058-7.954-4.584s-12.26-7.076-17.555-10.135-11.514-6.631-13.817-7.954c-3.649-2.091-4.194-2.447-4.15-2.637.423-1.546.423-1.624.289-2.358a4.011,4.011,0,0,0-2.314-3.059l-.7-.334V79.33h.256a7.978,7.978,0,0,0,2.525-.946,7.478,7.478,0,0,0,3.193-4.005,5.931,5.931,0,0,0,.3-2.225,5.784,5.784,0,0,0-.734-3.282,5.514,5.514,0,0,0-1.413-1.891,6.9,6.9,0,0,0-3.4-1.969l-.779-.211-.033-32.452L336.96-.1h-1.78Zm-.245,63.157.245.067v76.585l-.779.189a7.441,7.441,0,0,0-5.407,5.318,8.48,8.48,0,0,0,0,3.549,6.669,6.669,0,0,0,1.947,3.337,6.818,6.818,0,0,0,3.371,1.991l.812.211.033,9.011.022,9.011-.311.078c-.278.056-1.19-.434-6.519-3.515l-6.186-3.571V162.434l.312-.056a4.3,4.3,0,0,0,2.881-1.769,4.085,4.085,0,0,0-1.635-5.952,3.122,3.122,0,0,0-1.724-.289,2.95,2.95,0,0,0-1.736.312,4.872,4.872,0,0,0-1.19.9l-.556.59-1.435-.834c-2.158-1.257-18.679-10.791-24.253-14.006l-4.928-2.837V124.13l.456-.49a4.355,4.355,0,0,0,.99-1.836c0-.256-.122-.189,7.343-4.494,3.582-2.058,8.733-5.04,11.459-6.608s6.631-3.827,8.678-5.006,6.085-3.5,8.956-5.173c7.031-4.061,8.778-5.062,8.844-5.062.033,0,.167.033.311.067Zm11.4,4.962c4.784,2.759,11.1,6.408,14.04,8.1s7.064,4.083,9.178,5.307,5.952,3.438,8.533,4.917l4.684,2.715.133.512a3.948,3.948,0,0,0,.968,1.691l.367.412-.022,7.2-.033,7.2-2.837,1.635c-1.557.9-6.085,3.515-10.068,5.818-12.115,7-16.443,9.49-17.032,9.823l-.579.323-.567-.59a4.884,4.884,0,0,0-1.2-.879,3.18,3.18,0,0,0-1.758-.3,2.862,2.862,0,0,0-1.758.334,4,4,0,0,0-2.236,3.671,2.933,2.933,0,0,0,.345,1.635,4.025,4.025,0,0,0,2.7,2.258c.211.033.478.1.59.122.178.056.189,1,.189,17.733V197.8l-.69.412c-.389.223-3.171,1.836-6.2,3.582-4.884,2.815-5.529,3.16-5.785,3.07l-.289-.1-.033-8.989c-.022-7.131,0-8.989.111-9.022a7.357,7.357,0,0,0,5.919-4.951,5.2,5.2,0,0,0,.334-2.292,6.428,6.428,0,0,0-2.147-5.173,6.9,6.9,0,0,0-3.4-1.969l-.779-.211.011-38.248c.011-40.439-.011-38.437.467-38.448.078,0,4.049,2.258,8.844,5.029Zm-75.617,32.585a3.077,3.077,0,0,0,1.335-.056l.768-.156,6.2,3.582,6.208,3.571v35.4l-.534.078a4.159,4.159,0,0,0-2.993,2.27,2.891,2.891,0,0,0-.312,1.691,2.962,2.962,0,0,0,.367,1.8A3.863,3.863,0,0,0,285.4,183.5a2.934,2.934,0,0,0,1.669-.367,4.33,4.33,0,0,0,1.3-.912l.523-.556,4.428,2.548c2.436,1.413,6.786,3.916,9.656,5.574s7.765,4.483,10.869,6.275l5.64,3.248.011,7.165c0,6.519-.022,7.187-.189,7.376a.592.592,0,0,1-.278.2c-.056,0-3.582-2.014-7.832-4.472-6.831-3.938-7.732-4.495-7.687-4.695.033-.133.133-.556.245-.957a8.238,8.238,0,0,0-.223-4.116,7.285,7.285,0,0,0-7.788-4.795,7.548,7.548,0,0,0-4.439,2.225l-.512.567-5.04-2.915c-8.555-4.939-18.3-10.569-25.443-14.685-3.76-2.169-9.746-5.629-13.294-7.676s-7.131-4.116-7.954-4.595c-1.19-.679-7.877-4.539-13.828-7.977-.69-.4-.745-.456-.679-.734a2.159,2.159,0,0,1,.089-.312c.011-.011,5.073-2.937,11.247-6.5s13.461-7.776,16.187-9.345,7.754-4.472,11.181-6.453,6.286-3.638,6.341-3.693a.412.412,0,0,1,.334-.033C270.054,132.93,270.41,133.008,270.722,133.075Zm129.606,0a3.077,3.077,0,0,0,1.335-.056l.768-.156,5.34,3.093c6.508,3.76,17.166,9.912,21.694,12.527,18.334,10.569,18.134,10.446,18.134,10.78,0,.3-.312.49-5.674,3.593-5.318,3.071-8.811,5.084-26.088,15.063-3.76,2.169-10.09,5.83-14.073,8.121s-10.179,5.885-13.784,7.966l-6.564,3.794-.857-.812A7.3,7.3,0,0,0,368.6,200a5.356,5.356,0,0,0-.312,2.314,5.752,5.752,0,0,0,.245,2.058,4.794,4.794,0,0,1,.211.734c-.111.089-15.208,8.778-15.4,8.867a.362.362,0,0,1-.423-.033c-.145-.122-.167-1.023-.167-7.4V199.28l1.7-.968c2.459-1.413,23.952-13.84,28.569-16.5.267-.167.3-.156.8.389a3.98,3.98,0,0,0,5.7.245,4.725,4.725,0,0,0,.912-1.19,3.092,3.092,0,0,0,.311-1.8,2.91,2.91,0,0,0-.3-1.747,3.919,3.919,0,0,0-2.759-2.158l-.723-.189V140.017l6.174-3.582a65.3,65.3,0,0,1,6.4-3.527C399.661,132.93,400.017,133.008,400.328,133.075ZM295.542,145.98c4.15,2.4,9.045,5.229,10.88,6.286s5.184,2.993,7.443,4.294l4.094,2.37.2.623a4.569,4.569,0,0,0,1.1,1.813l.234.211v17.288c0,9.5-.044,17.277-.1,17.277s-2.592-1.446-5.64-3.2c-8.055-4.65-18.979-10.958-21.683-12.516-2.537-1.457-2.726-1.58-2.726-1.847a4.454,4.454,0,0,0-.99-1.825l-.456-.49V158.94c0-9.523.022-17.311.056-17.311s3.438,1.958,7.587,4.35Zm88.7,12.961v17.322l-.389.423a4.764,4.764,0,0,0-.99,1.847c-.067.289-.211.434-.712.712-.645.367-10.146,5.852-18.768,10.836-7.988,4.617-10.513,6.063-10.569,6.063-.033,0-.056-7.787-.056-17.311V161.51l.389-.423a4.917,4.917,0,0,0,.99-1.824c.078-.356-.612.056,15.419-9.189,1.991-1.146,6.074-3.516,9.067-5.251s5.485-3.171,5.54-3.182.078,7.776.078,17.3Zm-153.47,6.33c3.738,2.158,9.712,5.618,13.294,7.676,6.43,3.716,14.273,8.244,28.035,16.187,3.883,2.247,9.223,5.329,11.848,6.842s5.051,2.915,5.373,3.1c.412.245.556.389.512.512a6.6,6.6,0,0,0-.423,2.726,5.274,5.274,0,0,0,.311,2.225,7.258,7.258,0,0,0,4.795,4.684,7.167,7.167,0,0,0,7.231-1.758l.779-.757,3.059,1.758c11.181,6.43,12.46,7.2,12.46,7.42a.746.746,0,0,1-.089.345c-.044.067-1.624,1.012-3.527,2.1s-4.639,2.681-6.108,3.527-2.714,1.535-2.8,1.535-2.058-1.113-4.406-2.459-5.841-3.382-7.765-4.495-6.864-3.961-10.98-6.33l-7.476-4.317.189-.467a5.464,5.464,0,0,0-.067-3.1,4.613,4.613,0,0,0-2.058-2.036,3.092,3.092,0,0,0-1.691-.323,2.874,2.874,0,0,0-1.747.367,4.026,4.026,0,0,0-2.236,3.07,2.78,2.78,0,0,0,.078,1.469c.111.423.2.834.211.912.022.156-.645.556-7.821,4.695-1.991,1.146-7.843,4.528-13.016,7.509s-9.49,5.451-9.59,5.485a43.67,43.67,0,0,1-4.228-2.292c-2.225-1.279-4.984-2.881-6.141-3.538a25.06,25.06,0,0,1-2.136-1.324,6.1,6.1,0,0,0-1-2.014l-.49-.6V187.554c0-23.9.011-26.066.178-26.244a.278.278,0,0,1,.423-.078c.122.067,3.293,1.88,7.02,4.038ZM449.1,187.61v26.033l-.456.489a4.454,4.454,0,0,0-.99,1.825.568.568,0,0,1-.189.345c-.111.089-2.826,1.68-6.041,3.538s-5.941,3.427-6.063,3.5c-.245.156.223.412-12.905-7.176-2.937-1.691-8.143-4.695-11.57-6.675s-6.263-3.616-6.308-3.66a1.58,1.58,0,0,1,.156-.734,4.06,4.06,0,0,0-2.125-4.873,4.408,4.408,0,0,0-3.471,0,4.219,4.219,0,0,0-1.969,2.014,2.92,2.92,0,0,0-.289,1.635,3.673,3.673,0,0,0,.189,1.435c.111.245.156.478.111.523s-3.493,2.047-7.654,4.439c-9.478,5.473-20.114,11.615-21.594,12.471a8.088,8.088,0,0,1-1.257.656c-.133,0-2.236-1.2-10.024-5.7-1.88-1.09-2.414-1.446-2.492-1.68-.056-.167-.089-.312-.056-.334s2.37-1.391,5.218-3.026,6.341-3.66,7.776-4.483l2.592-1.5.434.512a8.563,8.563,0,0,0,2.737,1.858,7.312,7.312,0,0,0,8.166-1.98,8.753,8.753,0,0,0,1.6-3.082,8.9,8.9,0,0,0-.056-3.671,2.782,2.782,0,0,1-.145-.957c.078-.078,9.212-5.373,14-8.11,1.1-.634,4.183-2.414,6.842-3.949s6.219-3.593,7.9-4.561,4.584-2.648,6.453-3.727,4.572-2.637,6.008-3.471,5.373-3.093,8.733-5.04,8.244-4.762,10.847-6.252,4.873-2.826,5.062-2.937c.323-.2.334-.2.578.033l.256.234ZM325.746,202.94c1.914,1.112,4.216,2.436,5.106,2.948l1.624.946-.222.634a3.586,3.586,0,0,0-.167,1.524,3.807,3.807,0,0,0,2.336,3.427l.756.356v5.318c0,2.926-.044,5.307-.089,5.284s-2.114-1.2-4.595-2.637l-4.506-2.6.011-1.124a3.137,3.137,0,0,0-.3-1.758,4.3,4.3,0,0,0-3.048-2.381l-.49-.067v-5.941c0-3.271.022-5.941.056-5.941s1.613.9,3.527,2.014Zm24.23,3.916v5.93l-.667.133a4.155,4.155,0,0,0-3.16,4.495l.111.656-.612.367c-1.213.723-8.577,4.962-8.633,4.962-.033,0-.056-2.4-.056-5.329v-5.329l.534-.178a4.187,4.187,0,0,0,2.325-2.258,2.86,2.86,0,0,0,.289-1.535,4.465,4.465,0,0,0-.189-1.38c-.145-.4-.156-.523-.044-.623.078-.078,1.2-.734,2.481-1.468s3.516-2.025,4.951-2.859,2.626-1.513,2.648-1.513.022,2.67.022,5.93ZM270.9,207.9a4.559,4.559,0,0,0,1.29-.078l.656-.133,3.549,2.058c4.617,2.67,16.142,9.323,21.794,12.571,2.448,1.413,4.495,2.592,4.539,2.637a10.138,10.138,0,0,1-1.836,1.19c-3.938,2.281-15.809,9.134-21.861,12.627l-6.252,3.616-.69-.167a2.576,2.576,0,0,0-1.424-.033c-.4.078-.779.145-.846.145s-2.637-1.457-5.729-3.249-7.943-4.595-10.791-6.23c-11.692-6.753-13.383-7.743-13.383-7.843a26.078,26.078,0,0,1,2.436-1.5c1.346-.779,6.063-3.5,10.5-6.063s10.046-5.8,12.46-7.2c3.482-2.014,4.45-2.537,4.672-2.481.156.033.567.089.912.133Zm129.606,0a4.608,4.608,0,0,0,1.29-.078l.645-.133,14.451,8.355c7.954,4.583,14.707,8.488,15,8.666l.545.312-5.273,3.048c-2.892,1.669-8.511,4.917-12.493,7.209s-8.366,4.839-9.768,5.64l-2.525,1.468-.69-.167a2.534,2.534,0,0,0-1.413-.033c-.4.078-.779.145-.845.145s-2.214-1.2-4.784-2.692c-5.4-3.115-16.365-9.456-21.66-12.516-2-1.157-3.638-2.1-3.616-2.114.033-.033,9.479-5.5,19.825-11.459,4.228-2.436,8.233-4.75,8.9-5.14.923-.534,1.291-.7,1.5-.645.156.033.567.089.912.133Zm-81.48,11.7a4.064,4.064,0,0,0,4.038,1.2,6.48,6.48,0,0,0,1.824-1.012,101.273,101.273,0,0,1,9.211,5.284c-.111.111-8.31,4.851-8.778,5.073-.334.167-.356.156-.857-.223a3.832,3.832,0,0,0-2.525-.79,3.573,3.573,0,0,0-2.792,1.168l-.668.667-4.639-2.692c-2.548-1.468-4.862-2.8-5.117-2.959s-.445-.323-.389-.367,2.092-1.235,4.539-2.648,4.706-2.7,5.006-2.892a5.09,5.09,0,0,1,.612-.345A2.961,2.961,0,0,1,319.027,219.605Zm39.772,2.414c2.826,1.635,5.151,2.97,5.162,2.982s-2.881,1.713-8.388,4.873l-1.9,1.1-.512-.545a4.013,4.013,0,0,0-2.37-1.268,3.864,3.864,0,0,0-2.948.69,4.3,4.3,0,0,1-.712.445c-.033,0-2.114-1.179-4.617-2.626-3.972-2.292-4.528-2.648-4.361-2.77.111-.078,2.058-1.2,4.317-2.5l4.405-2.525c.267-.167.312-.145.857.234a5.775,5.775,0,0,0,1.213.645,4.02,4.02,0,0,0,4.15-1.1c.278-.312.512-.567.534-.579S355.973,220.4,358.8,222.019Zm-118.315,6.508c1.813,1.057,5.362,3.1,7.865,4.55s7.877,4.55,11.937,6.9c6.686,3.86,7.376,4.283,7.309,4.494a4.15,4.15,0,0,0-.311,2.258,4.026,4.026,0,0,0,2.236,3.059,2.962,2.962,0,0,0,1.8.367,2.852,2.852,0,0,0,1.68-.312,5.021,5.021,0,0,0,2.014-2.047,4.445,4.445,0,0,0,.111-2.87c-.122-.367-.223-.679-.211-.679s2.425-1.413,5.362-3.1,7.743-4.472,10.68-6.174,7.365-4.25,9.846-5.685,4.606-2.6,4.728-2.6c.211,0,11.9,6.686,12.327,7.042.534.467.634.4-7.287,4.973-4.116,2.381-7.621,4.406-7.788,4.495-.3.178-.311.167-.645-.234a7.533,7.533,0,0,0-6.375-2.425,7.245,7.245,0,0,0-6.386,6.953,7.4,7.4,0,0,0,.456,2.959c.067.145-.4.456-2.292,1.546-1.3.757-5.918,3.415-10.268,5.93s-10.98,6.341-14.741,8.511-9.723,5.607-13.239,7.643-9.679,5.585-13.684,7.9-8.355,4.828-9.668,5.585c-2.258,1.313-2.392,1.368-2.581,1.19s-.211-.968-.211-26.266V236.415l.49-.6a4.961,4.961,0,0,0,.723-1.257c.133-.356.256-.7.278-.756s2.136-1.313,4.695-2.781,5.3-3.059,6.1-3.527a13.555,13.555,0,0,1,1.6-.857c.078-.011,1.624.845,3.449,1.891Zm94.618,8.778a3.8,3.8,0,0,1-.645.278,4.748,4.748,0,0,0-2.058,2,4.554,4.554,0,0,0-.134,2.981l.211.645-.79.456c-.434.245-1.068.612-1.4.812-1.569.923-8.01,4.617-8.066,4.617-.033,0-.056-2.67-.056-5.941v-5.93l.5-.067a4.011,4.011,0,0,0,2.982-2.281,3.2,3.2,0,0,0,.356-1.869l-.011-1.113,1.068-.6,4.561-2.637,3.5-2.025.033,5.3C335.169,234.846,335.147,237.272,335.1,237.305Zm11.092-5.04a5.413,5.413,0,0,0,.211,2.392,4.277,4.277,0,0,0,3.082,2.492l.489.067v5.952c0,3.349-.044,5.93-.1,5.907s-2.358-1.335-5.117-2.926c-4.361-2.514-5.006-2.926-4.962-3.115.412-1.513.423-1.624.289-2.358a4.1,4.1,0,0,0-2.926-3.3c-.189-.056-.2-.412-.2-5.329,0-2.9.022-5.3.067-5.329s2.114,1.124,4.639,2.581c4.506,2.614,4.584,2.659,4.528,2.97ZM367.431,227c.645.389,22.317,12.905,28.191,16.276,1.313.757,1.635.99,1.569,1.135a4.08,4.08,0,0,0,3.46,5.774,4.021,4.021,0,0,0,4.061-5.318,1.5,1.5,0,0,1-.134-.679c.044-.033,1.157-.679,2.47-1.435,2.347-1.335,8.822-5.084,21.571-12.449,3.5-2.025,6.43-3.682,6.5-3.682s2.125,1.157,4.572,2.581,5.162,2.97,6.019,3.46c1.858,1.068,1.9,1.1,1.991,1.558a3.675,3.675,0,0,0,.968,1.691l.434.456v52.076l-.256.234-.256.234-7.61-4.394c-4.194-2.425-10.569-6.108-14.184-8.188-6.13-3.538-9.568-5.529-28.091-16.22-3.949-2.281-9.256-5.34-11.8-6.809l-4.617-2.681.223-.623a6.986,6.986,0,0,0,.267-1.9,5.755,5.755,0,0,0-.189-2.169,7.3,7.3,0,0,0-12.338-3.193l-.59.6-.579-.334c-.323-.178-3.16-1.824-6.308-3.638s-6.4-3.694-7.2-4.161c-1.48-.846-1.624-1-1.335-1.368.067-.1,1.913-1.213,4.083-2.459s4.906-2.837,6.063-3.5,2.181-1.235,2.27-1.246a3.135,3.135,0,0,1,.779.378Zm-48.138,9.156c.189.167.2.545.2,7.365v7.187l-3.315,1.913-10.758,6.208c-7.365,4.25-16.265,9.39-16.443,9.49a2.23,2.23,0,0,1-.723-.567,3.87,3.87,0,0,0-2.2-1.19,4.124,4.124,0,0,0-4.361,2.314,3.112,3.112,0,0,0-.3,1.691,2.914,2.914,0,0,0,.323,1.713,4.176,4.176,0,0,0,2.982,2.27l.478.089.033,17.678.022,17.689-.968.567c-7.9,4.583-11.37,6.542-11.548,6.53-.122-.011-.612-.056-1.079-.1a4.742,4.742,0,0,0-1.368.056l-.5.122-6.708-3.871c-3.682-2.136-9.846-5.7-13.706-7.921-6.319-3.649-18.523-10.691-22.973-13.261-.946-.545-1.735-1.012-1.747-1.012s-.045-.156-.089-.312c-.067-.256-.011-.323.412-.567.59-.334,5.841-3.36,13.94-8.043,6.241-3.593,15.364-8.867,26.923-15.542,3.549-2.047,9.912-5.718,14.129-8.155s8.388-4.839,9.245-5.34l1.58-.912.823.79a7.228,7.228,0,0,0,8.466,1.213,8.268,8.268,0,0,0,3.1-3.148,7.924,7.924,0,0,0,.579-1.558,9.054,9.054,0,0,0,0-3.5c-.1-.367-.2-.768-.234-.89-.044-.2.612-.612,4.717-2.982,2.614-1.513,6.085-3.515,7.71-4.461s2.993-1.724,3.048-1.724a.534.534,0,0,1,.312.178Zm41.674,4.283c4.261,2.447,7.765,4.472,7.776,4.483a6.325,6.325,0,0,1-.2.723,7.528,7.528,0,0,0,.49,5.451,7.3,7.3,0,0,0,11.926,1.613l.445-.489,3.5,2.036c1.925,1.112,6.964,4.027,11.181,6.464,9.356,5.4,19.647,11.336,41.441,23.93,3.582,2.069,7.309,4.216,8.288,4.784,1.635.934,1.78,1.046,1.78,1.335,0,.345,1.435-.5-20.915,12.393-3.849,2.225-9.356,5.407-12.238,7.064-13.105,7.576-12.015,6.975-12.482,6.853a5.147,5.147,0,0,0-2.181,0c-.412.111-.456.089-3.56-1.713-1.724-1-4.528-2.614-6.219-3.593l-3.093-1.769.033-17.689.022-17.689.545-.078a4.209,4.209,0,0,0,2.97-2.281,3.053,3.053,0,0,0,.267-1.7,3.091,3.091,0,0,0-.312-1.8,4.043,4.043,0,0,0-3.638-2.236,3.658,3.658,0,0,0-2.826,1.157c-.367.367-.69.656-.7.656s-1.224-.69-2.681-1.524c-4.661-2.681-16.71-9.645-22.35-12.905l-5.485-3.171v-7.254c0-7.253.011-7.521.356-7.521.056,0,3.593,2.014,7.854,4.472Zm-26.033,4.717.245.067v18.056l-.812.189a7.3,7.3,0,0,0,.022,14.2l.79.178v76.585l-.323.078c-.278.056-1.012-.334-5.362-2.848-2.781-1.6-7.8-4.506-11.169-6.441s-9.145-5.284-12.849-7.42-8.755-5.062-11.236-6.486-4.595-2.67-4.695-2.759a.536.536,0,0,1-.2-.345,4.454,4.454,0,0,0-.99-1.825l-.456-.489V311.564l5.04-2.915c2.759-1.591,8.088-4.672,11.815-6.82s7.888-4.55,9.234-5.329,2.915-1.68,3.482-2.014l1.023-.59.667.634a4.034,4.034,0,0,0,2.281,1.19,4.118,4.118,0,0,0,4.25-2.325,4.745,4.745,0,0,0,0-3.382,4.289,4.289,0,0,0-2.748-2.258c-.211-.033-.478-.1-.578-.122-.189-.056-.2-.99-.2-17.722V252.246l6.208-3.571c3.4-1.969,6.219-3.582,6.252-3.582S334.791,245.126,334.935,245.159Zm7.676,2.815c2.737,1.58,5.5,3.182,6.141,3.549l1.168.667v35.444l-.5.089a4.357,4.357,0,0,0-2.87,2.158,4.039,4.039,0,0,0,.946,4.828,3.742,3.742,0,0,0,2.726,1.035,2.782,2.782,0,0,0,1.691-.4,4.188,4.188,0,0,0,1.268-.912,2.923,2.923,0,0,1,.512-.5c.044,0,1.313.712,2.826,1.591s3.927,2.27,5.362,3.1c5.952,3.438,15.775,9.111,17.744,10.246,1.168.667,2.681,1.535,3.371,1.936l1.246.723v14.362l-.389.423a4.764,4.764,0,0,0-.99,1.847c-.078.323-.289.467-2.436,1.713-2.848,1.647-14.307,8.255-22.773,13.15-3.393,1.958-6.8,3.927-7.565,4.361s-3.838,2.225-6.842,3.949-5.551,3.171-5.674,3.193a.646.646,0,0,1-.389-.067c-.145-.1-.167-4.483-.167-38.348V277.889l.946-.278a7.483,7.483,0,0,0,5.384-7.1,5.273,5.273,0,0,0-.312-2.225,7.294,7.294,0,0,0-5.129-4.795l-.89-.234-.033-8.945c-.022-8.31-.011-8.956.167-9.089a.8.8,0,0,1,.334-.133c.078,0,2.392,1.291,5.129,2.881Zm-23.118,23.24v17.333l-.4.389a3.878,3.878,0,0,0-.99,1.713c-.145.5.834-.089-14.351,8.666-3.794,2.192-8.844,5.106-11.214,6.486s-4.394,2.525-4.472,2.559c-.145.044-.167-2.181-.167-17.266V273.762l.456-.49a4.355,4.355,0,0,0,.99-1.836c0-.267-2.047.934,19.691-11.6,2.848-1.647,6.33-3.649,7.732-4.472s2.592-1.48,2.648-1.48S319.494,261.68,319.494,271.214ZM358.12,256.93c5.218,3.015,17.1,9.879,22.094,12.749a20.863,20.863,0,0,1,2.581,1.635,4.414,4.414,0,0,0,.946,1.891l.5.567v17.311c0,9.523-.022,17.311-.056,17.311s-1.157-.645-2.525-1.435l-10.713-6.186c-18.646-10.758-16.732-9.612-16.866-10.124a4.375,4.375,0,0,0-.934-1.713l-.389-.423V271.192c0-9.523.022-17.311.044-17.311s2.414,1.368,5.318,3.048Z" transform="translate(-6.213 0.103)" fill="url(#linear-gradient)"/>
</svg>
