<svg id="blockchain" xmlns="http://www.w3.org/2000/svg" width="557.853" height="353.452" viewBox="0 0 557.853 353.452">
  <path id="Path_527" data-name="Path 527" d="M419.7,174.4l.9,38.7,5.8,8.9,26.9-4.4-9.1-34.5Z" transform="translate(-160.289 -112.5)" fill="#7ac191"/>
  <path id="Path_528" data-name="Path 528" d="M199,284.9l44.6-.8,7.6,61.8-49.1,7.2Z" transform="translate(-160.289 -112.5)" fill="#f0e400"/>
  <path id="Path_529" data-name="Path 529" d="M427.1,311.2l-.8,42.7,73.4,5.1.9-40.6Z" transform="translate(-160.289 -112.5)" fill="#75c5bf"/>
  <path id="Path_530" data-name="Path 530" d="M302.7,336.9l78.1-12.3,8.7,41.4-70.2,22.3Z" transform="translate(-160.289 -112.5)" fill="#7bc290"/>
  <path id="Path_531" data-name="Path 531" d="M349.5,379.4l8.8-1,3.7,8,89.8-18.3v-5.5h5.7l.5,12.8-71.7,15.5-30,3Z" transform="translate(-160.289 -112.5)" fill="#f0e400"/>
  <path id="Path_532" data-name="Path 532" d="M358.3,408.1a8.406,8.406,0,0,1,1-.4,25.191,25.191,0,0,1,4-1.3c.8,0,4.8,9.2,4.8,9.2l92-16.8v9.5l-84.8,13-12.5,1.5Z" transform="translate(-160.289 -112.5)" fill="#7bc290"/>
  <path id="Path_533" data-name="Path 533" d="M546.9,309.9c2.3-1.5,9.5-6.2,9.4-8.2-.4-6.8-1-33.9-1.3-38.1s-1-4.8,2.6-5.7a62.439,62.439,0,0,0,10-3.9,1.854,1.854,0,0,1,2.5.3c.3.3,42.5,32.1,42.6,32.2,2.2,1.5,30,23,35.1,26.7,3.1,2.3,6.2,4.4,9.4,6.5,2.8,1.8,3.3,3,3,6.2-.4,3.9-.9,40.9-1.4,46a15.674,15.674,0,0,0,1.2,7.8c2.3,5.3,7,20.2,8.4,23.8,2.1,5.6,2.7,10.1,4.3,15.8,1.9,6.8,2,13.7,1.3,20.7-.2,2.4-.6,5.3-.8,7.2-.2,2-2.6,1.4-2.8.1a10.87,10.87,0,0,1,0-3.6,60.163,60.163,0,0,0-.2-20.3c-.6-3-3-13.3-3.8-16.2-1.7-6-5.3-16.5-7.7-22.3h-.6c-.2,1.8-.3,15.2-.3,20.2.1,4.1,0,8.3.1,12.4.1,2.3-.4,13.8-.4,17.3,0,1,.8,5-.5,5.3-2.3.5-4.6,1-6.8,1.7-1.5.4-2.9,1.2-4.4,1.7a5.664,5.664,0,0,1-4.9-.5c-2.6-1.6-15.5-12.4-19.4-15.9-2.5-2.2-5.1-4.4-7.7-6.5a3.8,3.8,0,0,0-1.6-.8,4.451,4.451,0,0,0-1.2,2.1c-.3,2.6-2.2,32.1-1.9,34.2.2,2-5.6,7.4-7.4,9.5-.6.7-1.4.3-2.5-.7-.9-.8-1.1-1.5-.2-2.3,1.8-1.6,3.5-3.2,5.3-4.7a5.234,5.234,0,0,0,2-4.6c0-2.9,0-5.8.2-8.7.2-4,1.1-25.7,1-28.5a3.115,3.115,0,0,0-1.1-2.1c-6.1-4.7-12.3-9.3-18.4-14-1.3-1-2.5-2-3.8-3-1-.8-1.5-.7-1.6.6-.2,1.8-.3,3.6-.4,5.5-.3,5.1-1.7,32.8-1.3,34.6a4.5,4.5,0,0,1-2.3,4.8c-2.2,1.4-5.5,3.6-8.4,3.5-.5,0-1.1-2.3-.7-2.7a10.165,10.165,0,0,1,2-1.1,9.878,9.878,0,0,0,6-8.6c.2-2.7.5-15.2.6-18.7.3-5.4.6-17.5.7-18.1.4-3.3.4-3.3-2.3-4.9-3.2-1.9-6.4-3.9-9.6-5.7a18.536,18.536,0,0,0-4.4-1.8c-1-.3-2.5-1.2-2.7-2.2-.8-4.5-1.6-22-1.8-26.5-.2-3.3-1.3-42.9-1.7-45.6-.2-1.7-.5-2.3-1.9-1.6-1.9,1.1-13.4,10.2-25,18.4-12,8.5-24.2,16.1-24.2,16.1s.1,16.4.1,23c0,2.1-.8,2.8-3,2.6-7.8-.9-27.4-3.9-29.5-4-1.3-.1-1.9.3-1.8,1.9.2,4.6.2,9.3.4,13.9.1,1.4,0,2.3-1.8,2.5-1.6.2-2,1.5-1.8,3.4.3,3.7.5,7.5.9,11.2.2,1.8-3.8,3.8-4.6,3.8-1.7.1-1.8,1.1-1.7,2.3a24.24,24.24,0,0,0,1,4.5c.6,1.6-.1,2.2-1.4,2.4-1.7.2-3.5.4-5.2.5-.3,0-13.8,2.1-20.2,3.9-3.6,1-66.4,11.6-68.3,12.3-2.4.9-4.3,0-4.8-2.5-.8-4-3-13.4-3.4-14.2a1.55,1.55,0,0,0-2.1-.9c-3.2.7-2.6.5-4.5-2.2a197.18,197.18,0,0,1-10.2-18.1c-2.3-5.5-2.2-5.6-7.8-4.1-4.4,1.2-10,2.9-12.9,3.5s-4.1.2-4.8-1.9c-1-3.1-12.4-33.7-12.8-35.3-.9-3.1-2.9-9.4-4.2-12.5-1.3-3.2-.1-4,1.3-4.2,2-.2,2.9-.5,4.9-.8a26.443,26.443,0,0,0,5.6-1.1c1.3-.4.7-1.5.2-2.3-1.4-2.4-3.1-4.8-4.4-7.3s-11.4-25.7-14-31.8a70.159,70.159,0,0,0-3-7c0,1.9-.1,3.8,0,5.7.2,4.7,1.4,19.5,1.7,22.2.1.6.7,7.3-1.2,8-.1.1-2.6.8-7.2,2.1-4.5,1.3-16.6,2.8-22.1,3.5-1.7.2-5.9,1-5.9,1a27.127,27.127,0,0,0,.5,3.4c.9,3.6.7,6.5,1.6,10.2.4,1.7,1.3,4.7.4,6.3s-2.9,1.7-4.1,1.9c-3.8.8-4.6.3-4.1,4.2.8,5.2,1.5,10.4,2.3,15.6a17.6,17.6,0,0,0,1,3c.5,1.5.2,2.3-1.1,3.3-1.9,1.4-3.7,2.9-5.6,4.3a18.063,18.063,0,0,1-2.3,1.8c-.5.3-2.4-1.9-2-2.3,2.1-2,4.3-3.9,6.5-5.7,1.1-.9,1.7-1.8,1.3-3.3-1-4.1-2.1-7.2-3-11.4a34.207,34.207,0,0,1-1.2-7c0-2-.8-1.7-2.1-1.4-2.6.5-4.4.5-7.1.8-4.3.5-8.7,1-13,1.4-1.2.1-1.7.6-1.5,1.8.8,5,3.1,16.5,3.3,17.2.6,1.4,1.3,1.9-1.3,3.4-2.7,1.5-9.4,5.7-10.9,6.4-.5.2-1.5-1.8-1.1-2.1,1.7-1.2,7.5-4.8,8.5-5.8a5.685,5.685,0,0,0,1.4-4.9c-.9-4.6-1.8-9.3-2.7-13.9-.3-1.4-1.2-1.4-2.3-1.3-2.4.3-4.8.6-7.2,1-1.8.3-3.6.7-5.4,1.1-1.6.3-2-.1-2.1-1.8-.5-5.5-1.2-10.9-1.7-16.4a34.215,34.215,0,0,1-.4-4.6c-.1-2.6-.5-3.2-.5-3.2l-16.9,1.1c-2.2.1-2.3,0-2.6-2.2-.6-4.4-1.2-8.8-1.7-13.2-.2-2-1.2-2.1-3.1-3.1-2.8-1.4-5.4-4-7.7-6-4.8-4.3-8.3-9.8-8.5-16.4a42.934,42.934,0,0,1,1.7-12.8c1.9-6.5,5.1-14,9.7-19.1.9-1,1-2.7,1-4-.2-5.5-1.8-25.6-2.3-31.3-.1-1.1-.1-3.2,1.2-4.2.9-.7,8.4-4.8,10.7-5,4.3-.3,8.5-.6,12.8-.9.8-.1,10.9.4,15.3.1,5-.3,9.9-.1,14.9,0,6.7.1,33.4-1.6,36-1.9,7.7-.7,15.5-1,23.2-2.6,2.1-.4,4.4,0,6.6.2.9.1,1.7,2.3,1.6,4-.3,3.2-.6,6.4-.8,9.6-.2,5-.1,9.9-.2,14.9-.1,5.1-.5,10.2-.6,15.3-.1,5.7,0,11.4.1,17.1,0,2.2.4,6.6.4,6.6s21.9,49.4,24.3,52.8a14.523,14.523,0,0,1,1.2,2.5c.7,1.5,1.6,1.9,2.9,1.6l9.6-2.1c1.9-.4,56.2-8.9,57.1-9.1,1.5-.5,2.3-.1,2.8,1.5s.8,3.3,1.2,4.9c.5,2.1,1.3,2.8,3.3,2.7a63.764,63.764,0,0,0,8.7-.7c7.2-1.1,14.3-2.3,21.4-3.5,2.1-.3,2.1-.3,2.1-2.4,0-3.3,0-6.6-.1-9.9,0-1.4.5-2.2,1.9-2.2s2.9.1,4.3.1c4.6.1,9.3-.1,13.9.2q10.5.6,21,1.8a68.9,68.9,0,0,1,15.4,3.6c3.2,1.1,18.7,2.8,23.1,1.9,1.2-.3,1.9.3,1.9,1.6a25.486,25.486,0,0,1-.2,3.9c-.7,4.1-1.4,13.7-1.4,13.7s11.8-7,22.3-14.4c8.9-5.8,16.8-12.6,18.6-13.8ZM558,264.2c.4,10,3.1,99.3,3.5,105,.2,3.3.7,6.7,1.2,10a2.555,2.555,0,0,0,1.2,1.5c2.9,1.8,6,2.4,8.8,4.3,6.9,4.6,27.4,19.5,30.9,22.4,4.2,3.5,39.4,33.9,39.8,34a2.55,2.55,0,0,0,1.5,0c.2-.1-.3-3.2-.3-4.2.1-4.5,1.4-59.3,1.4-64.1,0-5.6-.3-38.5-.5-44.1a3.194,3.194,0,0,0-1.1-2.4c-1.9-1.5-15.5-10.2-20.2-13.3-3.6-2.4-50.7-36.3-53.2-38.3-4.2-3.5-8.4-7.1-13-10.8ZM183,223.6s-5.2,0-7.8-.1c-1.5-.1-1.9.7-1.8,2,.5,4.6,2.5,23.1,2.8,27.8.2,3.4,4.1,40.6,5,46.1.5,3.2,1,6.3,1.4,9.5a1.728,1.728,0,0,0,1.5,1.7c2.3.4,15.9.1,15.9.1s.1.2,0-1.1c-.4-5.2-1.4-17.3-1.5-20.3-.1-2.3.3-3,1.5-3.3a10.053,10.053,0,0,1,2.5-.4c2.1,0,41.1-3.4,45.6-3.9a5.1,5.1,0,0,1,3.7.4c1.7,1.1.9,4.2.9,5.2-.1,1.7,2.6,27.9,3.3,33.6a25.74,25.74,0,0,0,.9,3.5s19.6-2.3,23.5-2.9c1.2-.2,1.6-.8,1.5-2.1-.2-4.2-.4-8.5-.5-12.7-.1-3.9-1.7-38.7-1.9-42-.1-2.3,0-12.5,0-15.3-.2-9-.6-18-.8-27.1-.1-2.6-.1-2.7-2.8-2.3-1.8.3-27.3,2.9-30.3,3-7.3.3-22,.6-22.2.6-2.7.1-20-1-26.4-.8-4.7.1-9.3.5-14,.8ZM394,367c-.4-3-.8-5.6-1.2-8.3-.3-1.6-2.9-17.4-3.9-23.7-.5-2.8-1.3-5.6-2-8.4-.2-.9-.8-1.1-1.7-1-3.6.5-7.3.9-10.9,1.4-3.5.5-26.6,3.6-34.7,4.7-3.7.5-7.3,1.6-11,2.3-4.6.9-9.2,1.7-13.7,2.5-3,.5-6,1.1-9,1.4-1.1.1-1.1.5-.9,1.3.5,2.2.9,4.5,1.5,6.7a25.2,25.2,0,0,0,1.2,3.9c1.7,4.7,3.4,9.3,5.1,14,1.7,4.5,3.3,9,5,13.4.9,2.6,1.9,5.1,2.8,7.7a3.035,3.035,0,0,0,2.5.6c5.6-.9,20.1-4.9,34.5-8.5,14.2-3.5,28.4-6.6,34.7-8.3C394.1,368.1,394,367,394,367Zm108.5-22.1c-.9.4-1.7.9-2.6,1.3-1.2.6-2.3.7-2.5-.7-.3-1.5.3-2.7,2-3.5a13.8,13.8,0,0,0,3.9-2.5s-.1-9.8,1.2-13c.6-1.6-.5-2.8-2.2-3-4.9-.4-19.4-1.9-21.4-2.9-4.3-2.3-9-2.9-13.7-3.4-6.1-.7-30-1.8-35.9-1.4-.9.1-1.5.4-1.5,1.4-.1,2.4-.6,32.4-.7,40.3,0,.6.6,1.6,1.1,1.7,2.8.5,18.7,2.1,18.8,2.1,3.1.3,6.2.9,9.3,1a108.418,108.418,0,0,0,11.4-.2c5.4-.4,25.3,2.8,30,3.2,2.3.2,2.7-.3,2.7-2.5V349.5ZM203.8,328c.4,4.8,2,19.7,2.3,22.3.2,1.5.8,2.2,2.4,1.9,2.1-.4,11.1-2,13.5-2.2,5.4-.6,27.1-2.8,32.5-3.5,1.6-.2,2.1-.8,1.8-2.4-.3-2.2-4.7-29.1-5.4-34.8-.6-5.1-.7-10.2-1-15.3v-.4c-.2-2.4-.3-4.7-.7-7.1-.3-1.9-.6-2-2.4-1.8-2.1.2-4.3.3-6.4.4-3.4.1-6.8-.1-10.2.8a95.766,95.766,0,0,1-20.6,2.4c-2,.1-4.1.6-6.1.8-1.1.1-1.6.6-1.5,1.8.2,6.1.4,12.2.6,18.2,0,1.1.5,1.7,1.7,1.6a5.862,5.862,0,0,1,2.3.1c.6.2,1.5.7,1.5,1a5.576,5.576,0,0,1-1,2.8,3.289,3.289,0,0,1-2,.4c-1.3,0-1.7.4-1.6,1.8ZM395,357.7c.6,3.3,1.6,6.5,2.3,9.8.1.6-.3,1.9-.8,2.1a70.387,70.387,0,0,1-9.7,3.5c-5.5,1.4-11.2,2.3-16.8,3.5-1.7.4-3.4,1-5.1,1.5-1,.3-1.4.7-1,1.8a19.84,19.84,0,0,1,1.3,3.9c.3,1.6,1.2,1.9,2.6,1.7,3.8-.6,30-5.9,39.3-7.9,8.4-1.8,38.5-7.7,43.3-8.6.8-.2,1.9-.2,1.8-1.3s-.1-2.5-1.5-2.8c-2.7-.6-18.5-1.7-20.1-1.7-3,0-3.3-.3-3.7-3.4-.1-.8-.4-26.3-.5-28.2,0-1.6-.4-2-1.8-1.8-5.1.8-25.6,3.8-30.8,4.3-1.5.2-2,.6-1.8,2.1Zm260.2-34.8c-2.4-1.9-4.3-3.4-6.3-5-3.4-2.7-21.6-16.6-27.2-20.9-3.9-3-18.1-13.1-21.3-15.3-3.9-2.7-23.8-17.4-28.2-20.8a14.8,14.8,0,0,0-2.9-2.2,3.624,3.624,0,0,0-2.7-.1c-1.8.8-4.1.9-5.8,1.9-.9.6-1.4,1.1-.5,1.8,2.2,1.6,5.6,4.2,7.7,5.9,3.1,2.6,6,5.4,9.2,7.8,3.4,2.6,6.9,5,10.4,7.5a.1.1,0,0,1,.1.1c5.4,3.8,10.9,7.5,16.4,11.2l.1.1c2,1.4,4,2.7,6,4.1,3.3,2.3,6.6,4.6,10,6.9,4.4,3.1,8.8,6.3,13.2,9.3,3.3,2.3,6.8,4.4,10.2,6.6a8.272,8.272,0,0,0,1.6.9C648.2,323.7,651.4,323.6,655.2,322.9Zm1.1,50.1c.3-1.1.6-28.9.6-34.7,0-3.9.1-7.8.1-11.7,0-1.1-.1-1.7-1.6-1.4a40.2,40.2,0,0,1-5,.6c-2.1.3-2.2.5-2.1,2.6.1,2.4.7,43.9.7,47.5,0,.1-1.7,55.3-1.6,60.2.1,3.8-.4,3.4,3.6,2.6,1.8-.4,4.2-.8,4.2-2.4,0-1.7-.1-20.3-.2-24.2,0-2.4.7-33,.7-33s-3.2-5.4-4.6-7.6l-.3-.6a1.967,1.967,0,0,1,.2-2.9c1.1-.8,2.1-.1,2.8.7,1,1.1,1.4,2.8,2.5,4.3ZM361.6,394c.9-.1,1.3-.1,1.8-.2,6-.8,42-6.9,45.8-7.7,3.1-.6,19.7-4,22.7-4.6,21.2-4.1,19.7-5.1,23-6.3,1.4-.5,2.8-.8,4.1-1.4.6-.2,1.4-.9,1.3-1.4-.2-2-.6-4-1-6-.3-1.3-1.4-1.3-2.4-1-1.1.3-1.3,1.1-1,2.2.6,3,.1,3.7-2.9,4.2-.6.1-7.4.8-10.2,1.3s-12.5,2.6-14.5,3c-7.7,1.7-15.5,3.4-23.2,5.2-3.9.9-7.7,2-11.6,2.8-4.8,1-9.7,1.9-14.6,2.7-4.1.7-8.4,1-12.5,1.8-1.7.4-2.6.1-3.2-1.4-.9-2.3-1.9-4.5-2.9-6.7-.2-.5-.9-1.2-1.3-1.2a35.4,35.4,0,0,0-4.5.8c-1.2.2-1.5.8-1.1,2.1a34.274,34.274,0,0,0,4.7,9.6c1,1.4,2.1,2.5,3.5,2.2Zm12.9,23a11.424,11.424,0,0,0-2.6.9c-1.9.9-2.2.8-3.1-1.2q-1.35-3.45-2.4-6.9c-.3-.9-.9-1.3-1.7-1-.3.1-.5,1-.5,1.4.4,3.4.9,6.8,1.4,10.2.4,2.5.7,2.6,4.1,2.7.7-.2,84.1-13.4,88-15.6.5-.3,1.2-.6,1.4-1a2.956,2.956,0,0,0-3.4-4.2c-4.5.8-81.2,14.7-81.2,14.7ZM288.9,267.6c0-2-.6-6.9-.6-9.1.1-5.3,2.3-45.8,2.1-46.3a15.339,15.339,0,0,0-2.1,1.4c-1.1.9-2.2,1.9-3.4,2.7a7.47,7.47,0,0,0-3.5,7c.2,4.4.3,17.7.4,17.8.1,3.2,2.8,67.5,3,73.7a12.977,12.977,0,0,0,.7,3.3,12.813,12.813,0,0,0,3.3-1.1,2.693,2.693,0,0,0,1-1.8,7.017,7.017,0,0,0-.1-2.5c-1.1-4.6-1.5-30.9-1.5-34.2,0-2.4-3.6-11-3.9-12.9a2.24,2.24,0,0,1,1.4-2.4c1.1-.6,2.1,3.7,3.2,4.4ZM174.7,220a22.6,22.6,0,0,0,3,.6c3.8.1,29.4-1.3,35.2-.5,1.7.2,11.1.3,14.2.3,4.5,0,37.6-2.4,42.5-2.9,2.7-.3,5.3-.3,8-.5,3.7-.3,7.3-3.5,9.9-6-1.7-.1-5.2.8-6.8,1-2.9.3-36.9,2.5-41.3,2.5-3.4,0-27.2.7-30.7.8-3,.1-22.3-.3-25.2.2-2.8.3-6.7,1.6-8.8,4.5ZM465.5,364.9c-2.5,0-2.7.3-2.3,2.6a42.611,42.611,0,0,1,.6,5c.4,3.9-.7,5-4.6,5.4-1.7.1-13.4,4.4-28.3,6.9-7.3,1.5-47.4,9.9-54.6,10.2-1.5.1-1.8,1-1.5,3,.2,1.3.9,1.5,2.1,1.3,2.2-.4,31.1-5.6,36.3-6.7,4.4-.9,49.8-10.9,53.7-12a2.3,2.3,0,0,0,1.8-2.9c-.5-3.5-.7-7-1.1-10.5C467.5,364.9,467.5,364.9,465.5,364.9ZM178.9,308.3c0-1.3.1-2.4,0-3.4-.7-4.8-5.4-33.7-5.6-41a5.639,5.639,0,0,0-.4-1.2c-.4.2-5.9,9.6-7.1,14.8a33.747,33.747,0,0,0-1,11,21.523,21.523,0,0,0,6.8,14.3,23.8,23.8,0,0,0,7.3,5.5Zm196.4,95.1v.8c.7,0,21.6-.6,25.8-1.1,6.8-.8,40.4-6.3,50.4-7.9a2.235,2.235,0,0,0,2.2-2.5c-.1-1.4-.3-2.9-.5-4.3-.1-.9-.6-1.3-1.6-1-3.3.9-19.2,4.7-23.8,5.7-3.8.8-32,6.8-37.2,7.3C387.9,400.7,377.8,402.9,375.3,403.4Zm52.3,1.1c6.4-1,30.7-5.4,36.5-6.5a1.791,1.791,0,0,0,1.5-2.2c-.3-3-.6-6.1-.9-9.1-.1-1.3-.8-1.9-2.2-1.7-1.3.3-2.7.5-4.1.7-1.9.3-2.2.7-1.8,2.6.3,1.5.6,3,.8,4.5.3,2.5-.3,3.5-2.6,4.4-1.1.4-38.3,6.2-45,7.2-2.7.4-5.4,1.2-8.1,1.4-7.9.6-26.9,1.5-28.6,1.6-2.1.1-2.9,1-2.6,3.1a7.619,7.619,0,0,0,.6,2,2.172,2.172,0,0,0,2.4,1.4c2.2-.4,46.8-8.3,54.1-9.4Zm-56.8-6.1c.1-2.3.1-2.3-2.2-2-.8.1-7,1.3-9.2,1.8-1,.2-1.7.1-2.2-1-2.2-4.6-4.4-9.1-6.7-13.5-1-1.9-2.8-2.2-5.5-.7-1.9,1,5.5,14.6,9.4,19a15.333,15.333,0,0,0,2.9,2.8c3,2,6.2.7,9.3.1.7-.1,5-.9,4.7-3.1-.1-1.1-.3-2.2-.5-3.4ZM200.4,315.3c-.1-1.1-3.1.2-9.2,0a49.629,49.629,0,0,1-8.3-.7c.1,3.5,1,12.9,2,13,4.1.3,16.1-1.4,16.1-1.4Z" transform="translate(-160.289 -112.5)" fill-rule="evenodd"/>
  <path id="Path_534" data-name="Path 534" d="M511.9,117.6c0-1.1.7-3.1,0-3.8a4.248,4.248,0,0,0-3-1.1c-.4,0-11,.2-12.4.3-1.9.1-37.7-.4-40.1-.5-1.4,0-26.4.2-28.3.2a4.2,4.2,0,0,0-2.6.6c-1.5,1.1-3.8,3.4-5,4.5a2.026,2.026,0,0,0-.6,1.6c.2,1.5.3,2.9.4,4.4.3,3.4,2.7,26.2,3.3,31,.1.8,0,1.2-.6,1.5-2.4,1.2-5.2,5.1-7.9,8.4s-5.3,10.4-5.7,12c-1.1,5.1.9,14.1,1.2,14.7,1,2.5,2.2,5.1,4.9,6.6a1.8,1.8,0,0,1,.9,1.5c.4,3.2,1,6.5,1.6,9.9.3,1.6,1.5,5.8,1.5,5.8a43.272,43.272,0,0,0,4.3,10.1,1.832,1.832,0,0,0,1.7.6c1.4-.3,18.6-4.6,19.4-4.9.3-.1.6.1.4.3a.1.1,0,0,1-.1.1c-.8,1.4-6.4,12.4-6.5,12.5-.6,1.2-2.8,5.5-3.6,6.9-.5.8-.9.9-1.6.5-.4-.3-4.8-2.2-5.3-1.5a1.389,1.389,0,0,0-.2,1.1,1.962,1.962,0,0,0,1.4,1.4c1.9.9,6.6,2.8,6.8,2.8,1,0,1.3-.9,1.5-1.6.4-1.5,8.5-19.1,11.7-23.6a2.233,2.233,0,0,1,.7-.7c.7-.2,7.4-2.2,8.1-2.9.7-.8-3.3-6.8-3.3-6.9s.3-.2,1-.3c1-.1,16.3-1.3,17-1.4a.83.83,0,0,1,1.1.7c.1.4,4.2,13.3,4.2,13.3.6,1.4,5.2,15.1,5.4,15.5a1.509,1.509,0,0,0,2.7.5c.2-.2,11.4-8,14.3-9.1a5.755,5.755,0,0,1,1-.2c.6,0,1,.3,1.6,1.4.5.9,1.1,1.8,1.7,2.7l.1.2c.6.9,1.4,1.1,2,.5s-.9-3.5-1.2-4-1.6-2.8-1.9-3.3c-.5-.8-.9-1.1-1.5-1.1a2.385,2.385,0,0,0-1.2.4c-.4.2-14.9,8-15.1,8s-1.2-2.3-1.7-2.9c-1.2-1.9-7-20.9-7.2-21.7a1.961,1.961,0,0,1-.2-1.2c.1-.2,18.3-1.5,19-1.5a73.867,73.867,0,0,0,8-.4c.5-.1,4.8-3,5.8-3.6a2.824,2.824,0,0,0,1.5-2.9c-.1-3.3-.2-15.5-.2-16.4.1-2,.4-38.9.4-40.7-.2-5,.3-23.3.4-24.3Zm-41.1,2.6h14c1.8,0,17.8.3,18.1.3a1.215,1.215,0,0,1,1.2,1.4s-.3,9.9-.3,10.7c-.1,1.4-.6,21.9-.8,24.3v3.7a12.962,12.962,0,0,1-2.7,3.6c-1.3,1.3-12.3,12.4-16.2,15.3-8.5,6.3-14.7,8.6-17.9,10.2-2.9,1.4-12.6,3.7-14.4,4.1,0,0-1.9.4-2.1.4-.4,0-.6-.1-.8-1.3-.1-1.1-.5-7.8-.6-8.8a3.2,3.2,0,0,0-2.5-2.6c-.4-.1-3.5-.5-4.6-.7-3.7-.9-11.1-3.5-11.7-4.2a6.083,6.083,0,0,1-.8-2.7v-.1c-.4-2.8-3.7-28.3-4-33.2,0,0-2.5-19.7-2.3-20.4.3-.7,46.9,0,48.4,0Zm34.4,44c.3-.5,1.6-2.7,2.2-3.9.7-1.4,1.5-3.6,1.6-3.8,0,.2-.9,41.1-1,42.9a1.524,1.524,0,0,1-.6,1.1,29.735,29.735,0,0,1-3.5,1.8c-.3,0-.4-.5-.4-.7v-.1c.1-1.8,1.6-37.1,1.7-37.3Zm-79.1,11.2-1.5-.6a33.714,33.714,0,0,1-3.2-1.9l-.2-.1a1.922,1.922,0,0,0-1.2-.4c-.4,0-1.2.2-1.4,1.5-.3,1.8-.5,3.7-.7,5.5-.1,1.1-.3,2.3-.4,3.4l-.3,1.8c-.1.9-.3,1.7-.4,2.6-.2,1.6-.3,3.1-.4,4.7-.1.8-.1,1.5-.2,2.3a1.087,1.087,0,0,1-.1.5,4.982,4.982,0,0,1-2-2.1,27.008,27.008,0,0,1-2.2-15.7,25.838,25.838,0,0,1,5.9-12.1,31.832,31.832,0,0,1,6-5.4l2.7,16.1c-.1,0-.3-.1-.4-.1ZM419,199.6a.758.758,0,0,1,.7-.1,5.043,5.043,0,0,0,2.1-.1,1.438,1.438,0,0,0,1-1,1.306,1.306,0,0,0-.7-1.2c-.4-.2-1.6-.4-1.8-.5-1.3-.3-1.5-.5-1.4-1.8.1-1.8,1.2-16.8,1.3-17.7.1-1.1.2-1.2.4-1.2.3,0,6.3,3.2,8,3.9,2,.8,15,4.9,15.8,5.1.7.2,1.1.4,1.1,1,.1,1.4.6,6.4.7,7.6,0,.2,0,.3-.1.4s-5.4-.2-5.6-.1a1.594,1.594,0,0,0-.9,1.2,1.281,1.281,0,0,0,1.1,1c.6.1,4,.2,4.5.3,1.7.3,1.7.3,2,1.9a34.96,34.96,0,0,0,3.3,9.9c.8,1.4,4.3,6.3,4.3,6.5-.1.2-.3.3-.9.5-3.2,1-6.7,2.2-11.1,3.7a34.1,34.1,0,0,1-6.7,1.6c-1.2,0-9.6,1.8-9.7,1.8-.6.1-.9-.2-1.3-.9a51.381,51.381,0,0,1-4.5-12.2c-.5-2.1-1.4-8.3-1.6-9.1a.454.454,0,0,1,0-.5Zm33.4,6a84.468,84.468,0,0,1-2.7-8.8.894.894,0,0,1,.8-.4c11.4-1.2,23.7-6.7,31.9-12.1s17.3-15,18.2-15.8c.5-.5,1.8-1.7,1.8-1.7l.6-.6c.1.1-.3,5.8-.3,5.8L501,200.9c-.1,1.9-.4,2.2-2.2,2.3-1.3.1-41.2,3.3-45.2,3.4a2,2,0,0,1-1.2-1Zm56.5-54.3v.5a4.907,4.907,0,0,0-1.1-.1c-.9,0-2.1,5-2.4,5.9-.1-.5.6-27.1.7-30.9.1-1.8.2-3.6.4-5.6a2.274,2.274,0,0,1,.6-1.2,8.285,8.285,0,0,1,2.1-1.5h.1a.1.1,0,0,0,.1.1,1.421,1.421,0,0,1,.2.6c-.2.5-.7,31.6-.7,32.2Zm-2.2-34.1a6.356,6.356,0,0,1-4.7,1c-1.6-.2-17.8,0-17.8,0-1.7,0-17.7-.4-18.8-.4-2.2,0-22.4-.3-24.6-.3,0,0-12.9.3-15,.4a19.3,19.3,0,0,1-2.3-.1h-.1v-.1c.3-.1,3-2.5,3.8-2.7,2.8-.7,67.6-.4,77.3-.2a22.006,22.006,0,0,1,4.8.5c.7.5-2.4,1.6-2.6,1.9Z" transform="translate(-160.289 -112.5)"/>
  <path id="Path_535" data-name="Path 535" d="M618.3,328.3c-.1-.9-1.6-2.4-2.4-2.3a2.517,2.517,0,0,0-2.6,2.6,2.869,2.869,0,0,0,2.6,2.4A2.987,2.987,0,0,0,618.3,328.3Z" transform="translate(-160.289 -112.5)" fill="none"/>
  <g id="Group_28" data-name="Group 28" transform="translate(-160.289 -112.5)">
    <path id="Path_536" data-name="Path 536" d="M583.8,352.5c-.4,1.5-.4,2.5,1.8,3.2,2.2.6,8.7,3.7,13.2,5.1,3.5,1.1,7.4,2.5,10.8,3.6,1.1.4,1.9-2.4,2-3,.2-.8.5-1.9,1.6-1.4a1.632,1.632,0,0,1,1.2,2.3c-.4,1.2-.7,5.5-1.8,6.1-1.2.6-2.1,0-3.2-.6-1.9-1.1-25.5-9.4-28.2-10.7-1.5-.8-1.7-1.8-1.2-3.6.1-.5.2-1.1.3-1.6.2-1.1.5-2.4,2.1-2.1,1.7.2,1.6,1.4,1.4,2.7Z" fill-rule="evenodd"/>
    <path id="Path_537" data-name="Path 537" d="M618.3,328.3a2.691,2.691,0,0,1-2.4,2.6,2.779,2.779,0,0,1-2.6-2.4,2.517,2.517,0,0,1,2.6-2.6A3.6,3.6,0,0,1,618.3,328.3Z" fill-rule="evenodd"/>
    <path id="Path_538" data-name="Path 538" d="M230.7,278c-.5-.5-1.6-1-1.8-1.8-.3-1.4,1-1.7,2.1-1.8,4.1-.3,8.2-.7,12.3-.9,1.3-.1,2.2-.1,2.2-1.8,0-.6.1-1.6,1.2-1.7s.8,1.1,1.1,1.7c.1.3.1.6.2.9.7,2.2.2,3-2.1,3.3-3.8.5-7.6.9-11.3,1.4-1.1.1-2.3.4-3.9.7Z" fill-rule="evenodd"/>
    <path id="Path_539" data-name="Path 539" d="M245.9,255.9c.4,1.1-1.4,2.8-2.6,2.8-.7,0-1.9-1.8-1.9-2.7a2.783,2.783,0,0,1,2.5-2.2C245,253.8,245.5,254.8,245.9,255.9Z" fill-rule="evenodd"/>
    <path id="Path_540" data-name="Path 540" d="M208.5,256.3c.7.9-.9,3.1-2.1,2.9-.9-.2-2-.4-2-1.8,0-1.1,1.4-2.1,2.9-2,.5.1.5,0,1.2.9Z" fill-rule="evenodd"/>
    <path id="Path_541" data-name="Path 541" d="M716.1,221c-2.5-.1-43.4-1.2-50-1.3-5.9-.1-94.8-3.1-99.8-3.6-1.6-.2-13.7-.7-14.1-.5s-1,.7-1,1a2.628,2.628,0,0,0,.7,1.5c.4.3,75.8,2.4,80.2,2.5,3.8.1,7.6.3,11.4.4,7.1.2,63,1.4,68.4,1.5,1.4,0,1.5.1,4.3.1s2.4-1.5-.1-1.6Z" fill-rule="evenodd"/>
    <path id="Path_542" data-name="Path 542" d="M320.1,216.8c8.2.1,36,.1,41.8-.1,3.7-.1,32.3-.2,34.9-.2.9,0,1.5,2.3.4,2.7-.5.2-17.2.2-20.1.3-6.4.3-61.8-.5-64.9-.6-7.1-.3,1.4-2.2,7.9-2.1Z" fill-rule="evenodd"/>
    <path id="Path_543" data-name="Path 543" d="M544,206.6c-4.5,1.3-7.6,3.5-11.6,5.6a45.383,45.383,0,0,0-7.4,5.4c-.3.2-.5.7-.8.8-.4.2-1.6-2-1.3-2.3,1.4-1.2,6.1-5.3,8.2-6.8,5.3-3.6,9.1-4.2,12.6-5.6.2,0,.6,2.8.3,2.9Z" fill-rule="evenodd"/>
    <path id="Path_544" data-name="Path 544" d="M530.8,195.3c.2-.2-2.1-.9-2.3-.7a33.318,33.318,0,0,0-4.6,4.6c-2.5,3.6-4.3,6.9-6.2,10.2a31.674,31.674,0,0,0-2.1,4.1c-.4.8,1.1,1.7,2.1,1.7,0-.1.3-.3.4-.6,0,0,3.9-7.2,6.4-10.6,2.6-3.5,6.3-8.7,6.3-8.7Z" fill-rule="evenodd"/>
    <path id="Path_545" data-name="Path 545" d="M581.7,306c.6,1.5-1.5,3.2-2.6,2.9a2.428,2.428,0,0,1-2-2.7c-.1-1.8.3-2.6,2-2.6,1.6,0,2,.9,2.6,2.4Z" fill-rule="evenodd"/>
  </g>
  <path id="Path_546" data-name="Path 546" d="M478.1,161.1c-1.5-.2-13.6.3-13.6.3-2,.1-10.4.1-12.3.1-1.5,0-3-.1-4.5-.1-.7,0-.9-.2-1-.9a4.356,4.356,0,0,0-.7-1.7,1.2,1.2,0,0,0-.8-.5.94.94,0,0,0-.9.9,5.656,5.656,0,0,0,.3,3.6,2.024,2.024,0,0,0,1.8,1.2h.5c.7-.1,11.2,0,13.5,0,2.9,0,19-.4,19.7-.4,1.1,0,2.3.1,3.4,0a3.216,3.216,0,0,0,1.8-.6c.9-.8,1-4.3.3-5.2a1.584,1.584,0,0,0-1.2-.5c-.3,0-.5.4-.7.9a21.749,21.749,0,0,1-.1,2.5Z" transform="translate(-160.289 -112.5)"/>
  <path id="Path_547" data-name="Path 547" d="M481.5,136c1.2-.1,1.4.7,1.6,1.4.3.8-.6,1.8-1.5,1.9-.7.1-1.7-1-1.5-1.9C480.3,136.8,480.2,136.1,481.5,136Z" transform="translate(-160.289 -112.5)" fill-rule="evenodd"/>
  <path id="Path_548" data-name="Path 548" d="M442.9,136.1c1-.4,2,.8,1.8,1.6a2.037,2.037,0,0,1-1.4,1.3,1.227,1.227,0,0,1-1.5-1.5c.1-.6.1-1,1.1-1.4Z" transform="translate(-160.289 -112.5)" fill-rule="evenodd"/>
</svg>
