<svg xmlns="http://www.w3.org/2000/svg" width="59.746" height="56.155" viewBox="0 0 59.746 56.155">
  <path id="path2" d="M48.935,4v4.1l-.087.018a1.076,1.076,0,0,0-.407.211.9.9,0,0,0-.31.688.848.848,0,0,0,.27.647.859.859,0,0,0,.428.251l.1.025,0,.521c0,.487,0,.522-.021.529a.512.512,0,0,0-.345.656l.028.08-.191.111-1.012.584-1.5.863-2.608,1.506-.194.111-.069-.072a.511.511,0,1,0-.734.712.519.519,0,0,0,.275.138l.066.01V17.19l-.206-.119-.636-.365c-.236-.136-.435-.251-.444-.258s-.007-.036.013-.093a.532.532,0,0,0-.139-.536.51.51,0,0,0-.423-.128.518.518,0,0,0-.389.295.375.375,0,0,0-.044.2.485.485,0,0,0,.027.18.268.268,0,0,1,.021.072s-.2.115-.427.248l-1.263.729L36.91,18.463l-1.481.856-.512.3-.06-.067a.544.544,0,0,0-.154-.114.378.378,0,0,0-.234-.046.372.372,0,0,0-.212.038.865.865,0,0,0-.115.074l-.044.037-.313-.181c-.173-.1-.372-.213-.444-.256a1.337,1.337,0,0,1-.136-.084.263.263,0,0,1,.015-.079.921.921,0,0,0-1.631-.81.985.985,0,0,0-.157.372l-.01.074-12,0,12.007.227.008.038a.942.942,0,0,0,.251.46.91.91,0,0,0,.361.229,1.186,1.186,0,0,0,.584,0,.894.894,0,0,0,.355-.223l.093-.091.448.258.448.258,0,.128a.435.435,0,0,0,.025.209.539.539,0,0,0,.39.321l.073.015v6.352l-.067.01a.538.538,0,0,0-.378.278.686.686,0,0,0,0,.458.538.538,0,0,0,.243.234.553.553,0,0,0,.427,0,.6.6,0,0,0,.161-.115l.072-.072.09.053.611.352.559.323.038.024-.4.232c-.223.128-.515.3-.651.376l-.248.142-.072-.076a.457.457,0,0,0-.366-.156.389.389,0,0,0-.213.044.507.507,0,0,0-.248.241.413.413,0,0,0-.036.226.343.343,0,0,0,.048.236.507.507,0,0,0,.371.264l.066.01V36.2l-.038.007a.516.516,0,0,0-.331.175.454.454,0,0,0-.121.362l0,.131-.337.192-.446.258-.11.063L33,37.3a.918.918,0,0,0-.366-.229,1.112,1.112,0,0,0-.576,0,.911.911,0,0,0-.375.237.978.978,0,0,0-.263.664l0,.084-12,0,12.056.227.049.093a.948.948,0,0,0,.708.483.934.934,0,0,0,1-.688,1.15,1.15,0,0,0-.007-.484.267.267,0,0,1-.02-.108c.006-.006.208-.124.449-.264l.439-.253.058.049a.486.486,0,0,0,.32.11.462.462,0,0,0,.357-.146A1.02,1.02,0,0,1,34.92,37s.2.111,1.331.765c.949.549,2.072,1.2,3.327,1.92l.834.482a.372.372,0,0,1-.021.079.564.564,0,0,0-.027.18.509.509,0,0,0,.973.2.552.552,0,0,0,.021-.371l-.028-.081.128-.074,1.1-.635a.466.466,0,0,1,.066-.034s.008.337.008.75v.748l-.063.008a.532.532,0,0,0-.382.288.365.365,0,0,0-.039.213.374.374,0,0,0,.046.227.511.511,0,0,0,.689.233.61.61,0,0,0,.138-.105l.074-.074.859.5,1.724,1,1.453.84,1.026.591.437.253-.028.08a.561.561,0,0,0,.022.383.535.535,0,0,0,.257.247l.09.039,0,.517,0,.518-.119.035a.864.864,0,0,0-.382.212.911.911,0,0,0-.292.56.928.928,0,0,0,.414.889.994.994,0,0,0,.327.133l.059.01v7.536h.112l.115-3.764,0-3.764.119-.035a.944.944,0,0,0,.679-.9.665.665,0,0,0-.039-.281.9.9,0,0,0-.357-.475,1.01,1.01,0,0,0-.336-.143l-.06-.01V45.641l.081-.037a.473.473,0,0,0,.251-.246.35.35,0,0,0,.051-.219.577.577,0,0,0-.024-.177.129.129,0,0,1-.013-.073c.011-.01.533-.313,1.97-1.143l1.418-.818,1.411-.814.668-.386c.017-.01.038,0,.094.063a.509.509,0,0,0,.733,0,.412.412,0,0,0,.133-.357.35.35,0,0,0-.039-.222.527.527,0,0,0-.378-.278l-.067-.01V40.18c0-.413.006-.75.011-.75s.14.074.3.166l.639.368c.194.111.352.2.355.2a.384.384,0,0,1-.025.088.469.469,0,0,0-.006.3.494.494,0,0,0,.289.327.5.5,0,0,0,.71-.438.422.422,0,0,0-.022-.19l-.029-.08.031-.02.719-.416,1.6-.924,1.272-.734,1.113-.643c.414-.24.759-.437.765-.437a.271.271,0,0,1,.06.06.5.5,0,0,0,.132.1.516.516,0,0,0,.583-.053l.051-.039.042.027.441.254.4.232a.7.7,0,0,1-.027.119,1.04,1.04,0,0,0-.007.469.924.924,0,0,0,1.228.637.945.945,0,0,0,.583-.719l.008-.052H79.167l-12.49-.232-.031-.105a.851.851,0,0,0-.24-.4.743.743,0,0,0-.233-.173.9.9,0,0,0-1.049.159l-.107.1-.414-.239c-.229-.131-.428-.247-.444-.258s-.028-.035-.028-.156a.394.394,0,0,0-.045-.23.485.485,0,0,0-.355-.285l-.077-.017,0-3.18,0-3.181.066-.01a.556.556,0,0,0,.149-.052.509.509,0,1,0-.6-.81l-.081.083-.424-.244c-.656-.378-.844-.487-.856-.5s.279-.18.636-.386l.647-.375.063.07a.553.553,0,0,0,.157.117.552.552,0,0,0,.439,0,.532.532,0,0,0,.248-.254.581.581,0,0,0,0-.413.545.545,0,0,0-.385-.3l-.062-.008V23.587c0-2.884,0-3.177.022-3.185a.191.191,0,0,1,.052-.008.616.616,0,0,0,.234-.112.536.536,0,0,0,.18-.444l0-.105.442-.257.442-.256.114.105a.9.9,0,0,0,1.276-.02.808.808,0,0,0,.166-.213,1.068,1.068,0,0,0,.108-.365v-.046H79.167l-12.506-.232-.025-.073a.938.938,0,0,0-.588-.594,1.147,1.147,0,0,0-.5-.022.926.926,0,0,0-.681,1.144.706.706,0,0,1,.027.119s-.858.494-.887.51c-.006,0-.034-.014-.062-.039a.405.405,0,0,0-.32-.1.388.388,0,0,0-.225.041.723.723,0,0,0-.15.11.467.467,0,0,1-.074.067s-.126-.069-.271-.153l-1.231-.71L59.864,17.7l-1.5-.863c-.359-.206-.66-.382-.668-.387s-.007-.036.013-.093a.539.539,0,0,0-.024-.375.551.551,0,0,0-.256-.25.369.369,0,0,0-.2-.044.466.466,0,0,0-.352.139.494.494,0,0,0-.143.524.436.436,0,0,1,.027.093c-.034.024-1.279.737-1.289.737s-.013-.268-.011-.747l0-.747.06-.011a.522.522,0,0,0,.369-.267.345.345,0,0,0,.048-.236.39.39,0,0,0-.039-.227.509.509,0,0,0-.459-.282.46.46,0,0,0-.357.146,1.02,1.02,0,0,1-.088.083s-.453-.26-1-.578l-2.215-1.279-1.744-1c-.46-.264-.529-.309-.524-.333.053-.2.053-.2.037-.3a.506.506,0,0,0-.292-.386l-.088-.042V9.921h.032a1.007,1.007,0,0,0,.319-.119.944.944,0,0,0,.4-.505.748.748,0,0,0,.038-.281.73.73,0,0,0-.093-.414.7.7,0,0,0-.178-.239.871.871,0,0,0-.43-.248l-.1-.027,0-4.1,0-4.1h-.112Zm-.031,7.97.031.008v9.664l-.1.024a.939.939,0,0,0-.682.671,1.07,1.07,0,0,0,0,.448.842.842,0,0,0,.246.421.86.86,0,0,0,.425.251l.1.027,0,1.137,0,1.137-.039.01a4.067,4.067,0,0,1-.823-.444l-.781-.451V20.408l.039-.007a.542.542,0,0,0,.364-.223.515.515,0,0,0-.206-.751.394.394,0,0,0-.218-.037.372.372,0,0,0-.219.039.615.615,0,0,0-.15.114l-.07.074-.181-.105c-.272-.159-2.357-1.362-3.06-1.767l-.622-.358V15.574l.058-.062a.55.55,0,0,0,.125-.232c0-.032-.015-.024.927-.567l1.446-.834,1.1-.632c.258-.149.768-.442,1.13-.653.887-.512,1.108-.639,1.116-.639l.039.008Zm1.439.626,1.772,1.022,1.158.67,1.077.621.591.343.017.065a.5.5,0,0,0,.122.213l.046.052,0,.908,0,.908-.358.206-1.27.734c-1.529.883-2.075,1.2-2.149,1.24l-.073.041-.072-.074a.616.616,0,0,0-.152-.111.4.4,0,0,0-.222-.038.361.361,0,0,0-.222.042.5.5,0,0,0-.282.463.37.37,0,0,0,.044.206.508.508,0,0,0,.341.285c.027,0,.06.013.074.015A18.712,18.712,0,0,1,50.8,22.64v2.231l-.087.052-.782.452c-.616.355-.7.4-.73.387l-.037-.013,0-1.134a10.117,10.117,0,0,1,.014-1.139.928.928,0,0,0,.747-.625.656.656,0,0,0,.042-.289.811.811,0,0,0-.271-.653.871.871,0,0,0-.43-.248l-.1-.027V16.808c0-5.1,0-4.85.059-4.852.01,0,.511.285,1.116.635ZM40.8,16.7a.388.388,0,0,0,.168-.007l.1-.02.782.452.783.451v4.467l-.067.01a.525.525,0,0,0-.378.286.365.365,0,0,0-.039.213.374.374,0,0,0,.046.227.487.487,0,0,0,.459.284.37.37,0,0,0,.211-.046.546.546,0,0,0,.164-.115l.066-.07.559.321,1.219.7,1.372.792.712.41v.9a4.1,4.1,0,0,1-.024.931.075.075,0,0,1-.035.025c-.007,0-.452-.254-.988-.564-.862-.5-.976-.567-.97-.592s.017-.07.031-.121a1.04,1.04,0,0,0-.028-.519.919.919,0,0,0-.983-.605.952.952,0,0,0-.56.281l-.065.072L42.7,24.5l-3.211-1.853-1.678-.969c-.448-.26-.9-.519-1-.58-.15-.086-.994-.573-1.745-1.007-.087-.051-.094-.058-.086-.093a.273.273,0,0,1,.011-.039l1.419-.82,2.043-1.179,1.411-.814c.432-.248.793-.459.8-.466a.052.052,0,0,1,.042,0Zm16.355,0a.388.388,0,0,0,.168-.007l.1-.02.674.39,2.738,1.581a14.579,14.579,0,0,1,2.288,1.36c0,.038-.039.062-.716.453l-3.292,1.9-1.776,1.025L55.6,24.392l-.828.479-.108-.1a.921.921,0,0,0-1.509.38.676.676,0,0,0-.039.292.726.726,0,0,0,.031.26.605.605,0,0,1,.027.093c-.014.011-1.919,1.108-1.943,1.119a.046.046,0,0,1-.053,0,4.849,4.849,0,0,1-.021-.934v-.917l.215-.122,3.605-2.082c.034-.021.038-.02.1.049a.5.5,0,0,0,.719.031.6.6,0,0,0,.115-.15.39.39,0,0,0,.039-.227.367.367,0,0,0-.038-.22.5.5,0,0,0-.348-.272l-.091-.024v-4.46l.779-.452a8.24,8.24,0,0,1,.807-.445ZM43.933,18.331l1.373.793.939.542.517.3.025.079a.577.577,0,0,0,.139.229l.029.027v2.182c0,1.2-.006,2.18-.013,2.18s-.327-.183-.712-.4l-2.736-1.579c-.32-.184-.344-.2-.344-.233a.562.562,0,0,0-.125-.23l-.058-.062V19.967c0-1.2,0-2.184.007-2.184S43.409,18.03,43.933,18.331Zm11.193,1.635v2.186l-.049.053a.6.6,0,0,0-.125.233c-.008.036-.027.055-.09.09L52.493,23.9c-1.008.583-1.327.765-1.334.765s-.007-.983-.007-2.184V20.291l.049-.053a.621.621,0,0,0,.125-.23c.01-.045-.077.007,1.946-1.16l1.144-.663c.379-.22.692-.4.7-.4s.01.981.01,2.183Zm-19.366.8c.472.272,1.226.709,1.678.969l3.538,2.043,1.5.863c.333.191.637.368.678.392s.07.049.065.065a.833.833,0,0,0-.053.344.666.666,0,0,0,.039.281.916.916,0,0,0,.605.591.9.9,0,0,0,.913-.222l.1-.1.386.222a12.885,12.885,0,0,1,1.572.936.094.094,0,0,1-.011.044c-.006.008-.2.128-.445.265l-.771.445c-.184.107-.343.194-.354.194s-.26-.14-.556-.31l-.98-.567c-.243-.139-.866-.5-1.386-.8l-.943-.545.024-.059a.689.689,0,0,0-.008-.392.582.582,0,0,0-.26-.257.39.39,0,0,0-.213-.041.363.363,0,0,0-.22.046.508.508,0,0,0-.282.387.351.351,0,0,0,.01.185c.014.053.025.105.027.115a6.577,6.577,0,0,1-.987.592l-1.643.948c-.653.376-1.2.688-1.21.692a5.511,5.511,0,0,1-.533-.289c-.281-.161-.629-.364-.775-.446a3.164,3.164,0,0,1-.27-.167.769.769,0,0,0-.126-.254l-.062-.076V23.578c0-3.015,0-3.289.022-3.312a.035.035,0,0,1,.053-.01c.015.008.416.237.886.51ZM63.31,23.585V26.87l-.058.062a.562.562,0,0,0-.125.23.072.072,0,0,1-.024.044c-.014.011-.357.212-.762.446s-.75.432-.765.442c-.031.02.028.052-1.628-.905l-1.46-.842c-.432-.248-.79-.456-.8-.462a.2.2,0,0,1,.02-.093.512.512,0,0,0-.268-.615.556.556,0,0,0-.438,0,.532.532,0,0,0-.248.254.368.368,0,0,0-.036.206.463.463,0,0,0,.024.181c.014.031.02.06.014.066s-.441.258-.966.56l-2.725,1.574a1.021,1.021,0,0,1-.159.083c-.017,0-.282-.152-1.265-.719-.237-.138-.3-.182-.314-.212s-.011-.039-.007-.042.3-.175.658-.382l.981-.566.327-.19.055.065a1.081,1.081,0,0,0,.345.234.923.923,0,0,0,1.03-.25,1.1,1.1,0,0,0,.2-.389,1.123,1.123,0,0,0-.007-.463.351.351,0,0,1-.018-.121c.01-.01,1.162-.678,1.766-1.023l.863-.5c.336-.2.785-.453,1-.576l.814-.47.758-.438c.181-.1.678-.39,1.1-.636s1.04-.6,1.369-.789.615-.357.639-.371c.041-.025.042-.025.073,0l.032.029ZM47.744,25.519l.644.372.2.119-.028.08a.453.453,0,0,0-.021.192.48.48,0,0,0,.295.432l.1.045v.671c0,.369-.006.67-.011.667s-.267-.152-.58-.333l-.569-.329V27.3a.4.4,0,0,0-.038-.222.542.542,0,0,0-.385-.3l-.062-.008v-.75c0-.413,0-.75.007-.75s.2.114.445.254Zm3.058.494v.748l-.084.017a.524.524,0,0,0-.4.567l.014.083-.077.046c-.153.091-1.082.626-1.089.626s-.007-.3-.007-.672v-.672l.067-.022a.528.528,0,0,0,.293-.285.361.361,0,0,0,.037-.194.563.563,0,0,0-.024-.174c-.018-.051-.02-.066-.006-.079s.152-.093.313-.185l.625-.361c.181-.105.331-.191.334-.191S50.8,25.6,50.8,26.013Zm-9.979.132a.575.575,0,0,0,.163-.01l.083-.017.448.26c.583.337,2.037,1.176,2.75,1.586.309.178.567.327.573.333a1.279,1.279,0,0,1-.232.15l-2.759,1.593-.789.456-.087-.021a.325.325,0,0,0-.18,0c-.051.01-.1.018-.107.018s-.333-.184-.723-.41-1-.58-1.362-.786c-1.475-.852-1.689-.977-1.689-.99a3.29,3.29,0,0,1,.307-.19l1.325-.765,1.572-.908a2.778,2.778,0,0,1,.59-.313c.02,0,.072.011.115.017Zm16.355,0a.582.582,0,0,0,.163-.01l.081-.017,1.824,1.054c1,.578,1.856,1.071,1.892,1.094l.069.039-.665.385-1.577.91c-.5.291-1.056.611-1.233.712l-.319.185-.087-.021a.32.32,0,0,0-.178,0c-.051.01-.1.018-.107.018s-.279-.152-.6-.34L53.7,28.571c-.253-.146-.459-.265-.456-.267s1.2-.694,2.5-1.446l1.123-.649c.117-.067.163-.088.19-.081s.072.011.115.017ZM46.9,27.622a.513.513,0,0,0,.51.152.818.818,0,0,0,.23-.128,12.778,12.778,0,0,1,1.162.667c-.014.014-1.049.612-1.108.64-.042.021-.045.02-.108-.028a.484.484,0,0,0-.319-.1.451.451,0,0,0-.352.147l-.084.084-.585-.34-.646-.373c-.034-.02-.056-.041-.049-.046s.264-.156.573-.334.594-.341.632-.365a.643.643,0,0,1,.077-.044A.374.374,0,0,1,46.9,27.622Zm5.019.3.651.376s-.364.216-1.059.615l-.24.139-.065-.069a.506.506,0,0,0-.3-.16.488.488,0,0,0-.372.087.543.543,0,0,1-.09.056s-.267-.149-.583-.331c-.5-.289-.571-.334-.55-.35s.26-.152.545-.316l.556-.319c.034-.021.039-.018.108.029a.729.729,0,0,0,.153.081.507.507,0,0,0,.524-.139c.035-.039.065-.072.067-.073S51.558,27.722,51.915,27.927Zm-14.93.821.993.574,1.506.87c.844.487.931.54.922.567a.524.524,0,0,0-.039.285.508.508,0,0,0,.282.386.374.374,0,0,0,.227.046.36.36,0,0,0,.212-.039.634.634,0,0,0,.254-.258.561.561,0,0,0,.014-.362c-.015-.046-.028-.086-.027-.086s.306-.178.677-.392l1.348-.779,1.242-.717c.313-.18.581-.329.6-.329s1.5.844,1.555.889.08.051-.92.628l-.983.567c-.038.022-.039.021-.081-.029a.951.951,0,0,0-.8-.306.914.914,0,0,0-.806.877.933.933,0,0,0,.058.373c.008.018-.051.058-.289.2l-1.3.748-1.86,1.074L38.1,34.5l-1.727,1-1.22.7c-.285.166-.3.173-.326.15s-.027-.122-.027-3.315V29.743l.062-.076a.626.626,0,0,0,.091-.159l.035-.1c0-.008.27-.166.592-.351s.668-.386.769-.445a1.71,1.71,0,0,1,.2-.108c.01,0,.2.107.435.239Zm11.94,1.108a.48.48,0,0,1-.081.035.6.6,0,0,0-.26.253.575.575,0,0,0-.017.376l.027.081-.1.058-.177.1c-.2.117-1.011.583-1.018.583s-.007-.337-.007-.75v-.748l.063-.008a.506.506,0,0,0,.376-.288.4.4,0,0,0,.045-.236v-.14l.135-.076.576-.333.442-.256,0,.668C48.933,29.545,48.93,29.851,48.925,29.856Zm1.4-.636a.683.683,0,0,0,.027.3.54.54,0,0,0,.389.314l.062.008V30.6c0,.423-.006.748-.013.745s-.3-.168-.646-.369c-.55-.317-.632-.369-.626-.393.052-.191.053-.2.037-.3a.517.517,0,0,0-.369-.417c-.024-.007-.025-.052-.025-.672,0-.366,0-.668.008-.672s.267.142.585.326c.569.33.578.336.571.375ZM53,28.556c.081.049,2.816,1.628,3.557,2.054.166.1.206.125.2.143a.515.515,0,0,0,.437.729.507.507,0,0,0,.512-.671.189.189,0,0,1-.017-.086L58,30.544c.3-.168,1.113-.642,2.722-1.571.442-.256.811-.465.82-.465s.268.146.577.326l.759.437c.234.135.24.139.251.2a.464.464,0,0,0,.122.213l.055.058v6.571l-.032.029-.032.029-.96-.555L60.5,34.78l-3.545-2.047-1.49-.859-.583-.338.028-.079a.882.882,0,0,0,.034-.24.726.726,0,0,0-.024-.274.921.921,0,0,0-1.557-.4l-.074.076-.073-.042c-.041-.022-.4-.23-.8-.459l-.908-.525c-.187-.107-.2-.126-.168-.173.008-.013.241-.153.515-.31l.765-.442c.147-.086.275-.156.286-.157a.4.4,0,0,1,.1.048ZM46.93,29.711c.024.021.025.069.025.929v.907l-.418.241-1.358.783L43.1,33.77a.281.281,0,0,1-.091-.072.488.488,0,0,0-.278-.15.52.52,0,0,0-.55.292.393.393,0,0,0-.038.213.368.368,0,0,0,.041.216.527.527,0,0,0,.376.286l.06.011,0,2.231,0,2.232-.122.072c-1,.578-1.435.825-1.457.824l-.136-.013a.6.6,0,0,0-.173.007l-.063.015-.847-.489-1.73-1-2.9-1.673-.22-.128s-.006-.02-.011-.039,0-.041.052-.072c.074-.042.737-.424,1.759-1.015.788-.453,1.939-1.119,3.4-1.961l1.783-1.029,1.167-.674.2-.115.1.1a.912.912,0,0,0,1.068.153,1.043,1.043,0,0,0,.392-.4,1,1,0,0,0,.073-.2,1.142,1.142,0,0,0,0-.442c-.013-.046-.025-.1-.029-.112s.077-.077.6-.376l.973-.563c.2-.119.378-.218.385-.218A.067.067,0,0,1,46.93,29.711Zm5.259.54c.538.309.98.564.981.566a.8.8,0,0,1-.025.091.95.95,0,0,0,.062.688.921.921,0,0,0,1.5.2l.056-.062L55.21,32l1.411.816c1.181.681,2.479,1.431,5.229,3.02l1.046.6c.206.118.225.132.225.168s.181-.063-2.639,1.564l-1.544.891c-1.654.956-1.516.88-1.575.865a.65.65,0,0,0-.275,0c-.052.014-.058.011-.449-.216l-.785-.453-.39-.223,0-2.232,0-2.232.069-.01a.531.531,0,0,0,.375-.288.385.385,0,0,0,.034-.215.39.39,0,0,0-.039-.227.51.51,0,0,0-.459-.282.462.462,0,0,0-.357.146c-.046.046-.087.083-.088.083s-.154-.087-.338-.192c-.588-.338-2.109-1.217-2.82-1.628l-.692-.4v-.915c0-.915,0-.949.045-.949.007,0,.453.254.991.564Zm-3.285.6.031.008v2.278l-.1.024a.921.921,0,0,0,0,1.791l.1.022v9.664l-.041.01c-.035.007-.128-.042-.677-.359-.351-.2-.984-.569-1.409-.813l-1.621-.936c-.467-.27-1.1-.639-1.418-.818s-.58-.337-.592-.348a.068.068,0,0,1-.025-.044.562.562,0,0,0-.125-.23l-.058-.062V39.226l.636-.368L45.1,38l1.165-.672.439-.254L46.829,37l.084.08a.509.509,0,0,0,.288.15.52.52,0,0,0,.536-.293.6.6,0,0,0,0-.427.541.541,0,0,0-.347-.285c-.027,0-.06-.013-.073-.015a17.6,17.6,0,0,1-.025-2.236V31.741l.783-.451c.43-.248.785-.452.789-.452Zm.969.355.775.448.147.084v4.473l-.063.011a.55.55,0,0,0-.362.272.51.51,0,0,0,.119.609.472.472,0,0,0,.344.131.351.351,0,0,0,.213-.051.529.529,0,0,0,.16-.115A.369.369,0,0,1,51.271,37c.006,0,.166.09.357.2l.677.392,2.239,1.293.425.244.157.091v1.812l-.049.053a.6.6,0,0,0-.125.233c-.01.041-.036.059-.307.216L51.77,43.2c-.428.247-.858.5-.955.55s-.484.281-.863.5-.7.4-.716.4a.082.082,0,0,1-.049-.008c-.018-.013-.021-.566-.021-4.839V34.977l.119-.035a.944.944,0,0,0,.679-.9.666.666,0,0,0-.039-.281.92.92,0,0,0-.647-.605l-.112-.029,0-1.129a5.434,5.434,0,0,1,.021-1.147.1.1,0,0,1,.042-.017c.01,0,.3.163.647.364Zm-2.917,2.933v2.187l-.051.049a.489.489,0,0,0-.125.216c-.018.063.105-.011-1.811,1.094-.479.277-1.116.644-1.415.818s-.555.319-.564.323-.021-.275-.021-2.179V34.456l.058-.062a.55.55,0,0,0,.125-.232c0-.034-.258.118,2.485-1.464.359-.208.8-.46.976-.564s.327-.187.334-.187S46.955,32.932,46.955,34.135Zm4.874-1.8c.658.38,2.158,1.247,2.788,1.609a2.633,2.633,0,0,1,.326.206.557.557,0,0,0,.119.239l.063.072v2.184c0,1.2,0,2.184-.007,2.184s-.146-.081-.319-.181l-1.352-.781c-2.353-1.358-2.111-1.213-2.128-1.278a.552.552,0,0,0-.118-.216l-.049-.053V34.132c0-1.2,0-2.184.006-2.184S51.463,32.12,51.829,32.332Z" transform="translate(-19.421 0.103)" fill="#fff"/>
</svg>
