<svg xmlns="http://www.w3.org/2000/svg" width="484.464" height="256.747" viewBox="0 0 484.464 256.747">
  <g id="communitygov" transform="translate(2.224 2.11)">
    <path id="Path_340" data-name="Path 340" d="M1107.554,305.805c-7.745-8.988-15.885-16.394-28.1-18.712-12.946-2.431-28.944,1.809-36.18,13.624-7.293,11.815-5.54,26.061-1.244,38.667a21.319,21.319,0,0,0,9.61,11.363c4.24,2.374,8.48,2.883,12.946,4.466" transform="translate(-878.208 -230.242)" fill="none" stroke="#000" stroke-linecap="round" stroke-linejoin="round" stroke-miterlimit="10" stroke-width="4.252"/>
    <path id="Path_341" data-name="Path 341" d="M1127.5,358.15c3.562-8.367,7.123-16,9.554-24.421a54.235,54.235,0,0,1,2.487-7.406c1.017-2.148,2.431-4.07,3.5-6.218,1.7-3.448,2.544-7.688,4.918-10.8,6.84-8.875,14.585,1.809,17.242,8.649,3.788,9.723,3.505,21.086,0,30.866-2.374,6.558-4.975,13.85-8.649,19.786-4.24,6.784-10.289,10.289-15.49,15.829" transform="translate(-916.978 -238.719)" fill="none" stroke="#000" stroke-linecap="round" stroke-linejoin="round" stroke-miterlimit="10" stroke-width="4.252"/>
    <path id="Path_342" data-name="Path 342" d="M1034.764,304.321c-4.918-1.922-7.462-3.731-11.532-.678-3.166,2.318-4.579,7.293-5.6,10.911a60.179,60.179,0,0,0,0,31.036c1.583,5.71,4.522,10.741,6.671,16.224,1.866,4.692,3.279,8.593,6.614,12.437,2.94,3.335,8.423,9.61,12.55,10.345" transform="translate(-868.337 -237.012)" fill="none" stroke="#000" stroke-linecap="round" stroke-linejoin="round" stroke-miterlimit="10" stroke-width="4.252"/>
    <path id="Path_343" data-name="Path 343" d="M1061.667,446.7c-.792,9.949-1.413,18.712-.678,28.492.283,3.279.9,6.5,1.131,9.78.509,6.049-.735,12.041-1.018,18.033-.226,5.653-.057,11.25-.678,16.9-.452,3.788-1.187,8.2.113,11.928,1.47,4.07,3.448,9.441,7.179,11.985,3.957,2.714,10.006,2.77,13.341-.848,1.074-1.131,1.526-2.657,2.6-3.731.9-.9,2.2-1.3,3.166-2.148,1.018-.9,1.583-2.657,3.053-2.77,3.562-.226,6.5,8.48,8.988,10.571,2.714,2.318,7.688,3.5,11.024,2.035,9.045-3.9,6.445-12.776,6.5-20.408,0-6.84,1.074-13.228.339-20.182-.509-4.409-1.583-8.649-2.261-13-.678-4.07-.226-7.858-.113-11.928.17-7.293-1.074-14.755-1.357-22.1-.17-4.183.057-8.31.057-12.437" transform="translate(-887.551 -299.908)" fill="none" stroke="#000" stroke-linecap="round" stroke-linejoin="round" stroke-miterlimit="10" stroke-width="4.252"/>
    <path id="Path_344" data-name="Path 344" d="M1067.691,339c4.579.057,14.924-.622,13.85,6.9-.9,6.218-9.949,7.123-14.641,6.105" transform="translate(-890.636 -253.092)" fill="none" stroke="#000" stroke-linecap="round" stroke-linejoin="round" stroke-miterlimit="10" stroke-width="4.252"/>
    <path id="Path_345" data-name="Path 345" d="M1064.4,311.787a1.016,1.016,0,0,0,1.074-.113c-.565-.17-.848.339-.509.735" transform="translate(-889.549 -241.199)" fill="none" stroke="#000" stroke-linecap="round" stroke-linejoin="round" stroke-miterlimit="10" stroke-width="4.252"/>
    <path id="Path_346" data-name="Path 346" d="M1104.574,317.2a1.51,1.51,0,0,0,.565,1.583.725.725,0,0,0-.452-1.244" transform="translate(-906.998 -243.616)" fill="none" stroke="#000" stroke-linecap="round" stroke-linejoin="round" stroke-miterlimit="10" stroke-width="4.252"/>
    <path id="Path_347" data-name="Path 347" d="M1261.722,349.127c-7.123-3.618-14.359-5.936-18.655-12.889a37.431,37.431,0,0,1-4.07-9.554c-1.922-7.01-1.583-13,.113-19.955,4.353-17.92,22.047-29.17,39.968-27.813,9.328.735,19.164,4.127,24.535,12.38,4.353,6.671,4.918,16.959,5.6,24.648,1.187,12.889-7.123,29.735-20.182,33.749" transform="translate(-964.877 -226.926)" fill="none" stroke="#000" stroke-linecap="round" stroke-linejoin="round" stroke-miterlimit="10" stroke-width="4.252"/>
    <path id="Path_348" data-name="Path 348" d="M1268.6,398.7c-3.957,11.758-7.236,22.9-7.406,35.275-.057,3.053,1.357,6.558,1.526,8.649" transform="translate(-975.095 -279.043)" fill="none" stroke="#000" stroke-linecap="round" stroke-linejoin="round" stroke-miterlimit="10" stroke-width="4.252"/>
    <path id="Path_349" data-name="Path 349" d="M1245.5,432.548c-5.144-4.409-7.01-7.971-13.568-6.9a15.328,15.328,0,0,0-9.045,5.257c-4.805,5.427-5.088,13.4-3.279,20.125a32.86,32.86,0,0,0,14.981,19.164c3.787,2.2,8.819,5.37,13.454,4.014" transform="translate(-956.571 -290.675)" fill="none" stroke="#000" stroke-linecap="round" stroke-linejoin="round" stroke-miterlimit="10" stroke-width="4.252"/>
    <path id="Path_350" data-name="Path 350" d="M1297.335,445.266c-2.883-4.579-8.254-17.242-16.564-14.3-6.558,2.318-6.9,12.38-6.105,17.864.848,5.936,3.674,19.164,10.4,21.764a23.029,23.029,0,0,0,9.61,1.018,28.291,28.291,0,0,0,10.8-3.957c1.357-.848,5.427-2.714,5.37-4.692" transform="translate(-980.817 -292.877)" fill="none" stroke="#000" stroke-linecap="round" stroke-linejoin="round" stroke-miterlimit="10" stroke-width="4.252"/>
    <path id="Path_351" data-name="Path 351" d="M1269.886,496.3c-.9,12.606-1.639,25.213-1.526,37.819.057,7.236-.4,15.094.622,22.16,1.074,7.349,7.632,12.946,15.207,11.476,2.883-.565,13.172-6.105,11.193-10.176" transform="translate(-978.186 -321.469)" fill="none" stroke="#000" stroke-linecap="round" stroke-linejoin="round" stroke-miterlimit="10" stroke-width="4.252"/>
    <path id="Path_352" data-name="Path 352" d="M1312.3,510.852c1.413,6.049,2.318,11.137,7.349,14.981,3.9,2.94,10.4,4.635,14.981,2.148,1.809-.961,3-2.713,4.183-4.353,3.335-4.579,6.784-9.723,8.875-15.037,2.6-6.671,3.166-14.133,2.94-21.2-.509-17.92-7.519-35.332-16.224-50.652-3.392-5.992-7.18-13.511-8.31-20.351a32.082,32.082,0,0,0-3.335-8.988" transform="translate(-997.309 -282.825)" fill="none" stroke="#000" stroke-linecap="round" stroke-linejoin="round" stroke-miterlimit="10" stroke-width="4.252"/>
    <path id="Path_353" data-name="Path 353" d="M1265.7,332.926a65.435,65.435,0,0,0,16.79-1.526c.9,6.332-9.667,13.624-15.263,11.476" transform="translate(-977.052 -249.788)" fill="none" stroke="#000" stroke-linecap="round" stroke-linejoin="round" stroke-miterlimit="10" stroke-width="4.252"/>
    <path id="Path_354" data-name="Path 354" d="M1263.9,309.7a.6.6,0,0,0,.622.283c-.113-.17-.226-.283-.4-.226" transform="translate(-976.27 -240.356)" fill="none" stroke="#000" stroke-linecap="round" stroke-linejoin="round" stroke-miterlimit="10" stroke-width="4.252"/>
    <path id="Path_355" data-name="Path 355" d="M1301.757,319.4a.962.962,0,0,0,.169.961.514.514,0,0,0,.057-.622" transform="translate(-992.701 -244.572)" fill="none" stroke="#000" stroke-linecap="round" stroke-linejoin="round" stroke-miterlimit="10" stroke-width="4.252"/>
    <path id="Path_356" data-name="Path 356" d="M1423.5,355.639c-5.314-2.883-13.511-6.331-18.26-11.08-1.074-1.074-2.148-2.487-3.279-3.618-2.6-2.6-2.883-5.257-4.409-8.367-2.148-4.409-2.035-10.4-1.187-15.263,3-17.581,19.616-35.219,38.5-33.41,8.48.791,20.86,5.314,26.174,12.324,5.031,6.671,5.257,15.15,5.088,23.178-.113,7.8-1.583,15.829-5.879,22.5-1.922,3-6.558,8.367-10.4,8.593" transform="translate(-1033.604 -229.085)" fill="none" stroke="#000" stroke-linecap="round" stroke-linejoin="round" stroke-miterlimit="10" stroke-width="4.252"/>
    <path id="Path_357" data-name="Path 357" d="M1429.727,409.1c-4.014,9.836-7.914,20.069-12.719,29.509-1.979,3.844-4.918,7.914-5.766,12.154-.9,4.579-.735,13.681,2.714,17.468,2.092,2.261,8.027,2.714,9.328-.735" transform="translate(-1040.115 -283.564)" fill="none" stroke="#000" stroke-linecap="round" stroke-linejoin="round" stroke-miterlimit="10" stroke-width="4.252"/>
    <path id="Path_358" data-name="Path 358" d="M1431.737,481.7c-.961,7.123-1.131,16.959-4.353,24.082a45.334,45.334,0,0,0-3.618,10.628c-1.017,5.427-2.487,10.628-1.583,16.111.735,4.692,1.3,9.158,2.827,13.624,2.657,7.688,6.614,11.815,14.528,13.907,3.335.9,9.328,2.431,10.854-1.865" transform="translate(-1044.951 -315.122)" fill="none" stroke="#000" stroke-linecap="round" stroke-linejoin="round" stroke-miterlimit="10" stroke-width="4.252"/>
    <path id="Path_359" data-name="Path 359" d="M1466.3,524.654c.452,7.632.283,24.7,11.193,27.3,8.989,2.148,16.111-2.2,20.069-10.006,4.127-8.141,2.148-16.959,2.035-25.665-.057-6.5-1.413-12.776-2.6-19.164-.452-2.261-2.6-29.9-5.427-36.123" transform="translate(-1064.251 -306.124)" fill="none" stroke="#000" stroke-linecap="round" stroke-linejoin="round" stroke-miterlimit="10" stroke-width="4.252"/>
    <path id="Path_360" data-name="Path 360" d="M1492.3,380c5.088-.961,11.136-.622,14.528-4.862,1.47-1.866,3.279-3.561,4.466-5.653,1.922-3.279,2.883-7.179,4.579-10.628,2.092-4.127,5.37-8.762,10.8-7.519,6.162,1.357,7.575,11.306,8.14,16.394,1.526,13.624-6.953,31.488-17.977,39.176-6.332,4.409-11.985,5.54-19.107,7.971" transform="translate(-1075.553 -258.368)" fill="none" stroke="#000" stroke-linecap="round" stroke-linejoin="round" stroke-miterlimit="10" stroke-width="4.252"/>
    <path id="Path_361" data-name="Path 361" d="M1425.1,344.2c5.879-2.94,22.669-11.193,24.817,1.639.565,3.5-1.47,7.632-4.127,9.723-1.7,1.357-5.936,4.014-7.745,3.109" transform="translate(-1046.342 -253.036)" fill="none" stroke="#000" stroke-linecap="round" stroke-linejoin="round" stroke-miterlimit="10" stroke-width="4.252"/>
    <path id="Path_362" data-name="Path 362" d="M1420.6,315c.17.057-.057.339.226.4" transform="translate(-1044.386 -242.659)" fill="none" stroke="#000" stroke-linecap="round" stroke-linejoin="round" stroke-miterlimit="10" stroke-width="4.252"/>
    <path id="Path_363" data-name="Path 363" d="M1465.5,315.9c.113.4.226.565.452.452-.113-.283-.17-.17-.339-.283" transform="translate(-1063.903 -243.051)" fill="none" stroke="#000" stroke-linecap="round" stroke-linejoin="round" stroke-miterlimit="10" stroke-width="4.252"/>
    <path id="Path_364" data-name="Path 364" d="M1180.7,293.428c3.222-5.031,6.275-12.154,12.267-14.3,5.031-1.866,10.571-3.731,16-4.24a35.609,35.609,0,0,1,9.5.4c4.353.9,9.667,2.77,11.985,6.614" transform="translate(-940.104 -225.157)" fill="none" stroke="#000" stroke-linecap="round" stroke-linejoin="round" stroke-miterlimit="10" stroke-width="4.252"/>
    <path id="Path_365" data-name="Path 365" d="M1184.419,402.4c-.565-.226,12.776,6.558,15.32,4.522-3.166,5.823-6.275,11.08-8.988,17.072-1.752,3.957-3.957,7.858-5.6,11.928a81.392,81.392,0,0,0-4.918,25.722c-.17,5.653-.283,13.228,1.809,18.6,1.526,3.957,5.088,8.367,8.988,4.353" transform="translate(-939.866 -280.647)" fill="none" stroke="#000" stroke-linecap="round" stroke-linejoin="round" stroke-miterlimit="10" stroke-width="4.252"/>
    <path id="Path_366" data-name="Path 366" d="M1206.4,500.4c-2.431,9.667-5.823,19.164-5.879,29.114,0,3.448,0,6.727-.17,10.176a42.5,42.5,0,0,0,4.353,20.747c4.522,8.819,17.977,9.441,22.047-.622.452,1.752,2.431,4.183,3.618,5.427a15.567,15.567,0,0,0,3.9,2.714c2.035,1.018,9.384,3.448,11.136,1.357" transform="translate(-948.622 -323.251)" fill="none" stroke="#000" stroke-linecap="round" stroke-linejoin="round" stroke-miterlimit="10" stroke-width="4.252"/>
    <path id="Path_367" data-name="Path 367" d="M1205.9,353.593a75.413,75.413,0,0,0,10.967-1.47c.735-.17,1.131-.622,1.979-.452,1.526.339,2.487,2.713,2.544,4.24.113,5.031-7.406,13.567-12.719,10.967" transform="translate(-951.058 -258.584)" fill="none" stroke="#000" stroke-linecap="round" stroke-linejoin="round" stroke-miterlimit="10" stroke-width="4.252"/>
    <path id="Path_368" data-name="Path 368" d="M1220.8,321.81a.363.363,0,0,0,.509-.057c-.057-.17-.283-.226-.339-.17" transform="translate(-957.535 -245.512)" fill="none" stroke="#000" stroke-linecap="round" stroke-linejoin="round" stroke-miterlimit="10" stroke-width="4.252"/>
    <path id="Path_369" data-name="Path 369" d="M925.917,352.005c4.24-3.166,11.024-6.558,14.02-11.193.735-1.074.9-3.109,1.3-4.353a67.195,67.195,0,0,0,2.657-8.706c1.866-9.836.452-17.016-3.9-26-2.318-4.862-6.105-12.889-10.91-15.885-7.632-4.692-18.033-5.936-26.739-4.918-7.858.9-13.624,2.94-19.447,8.367-7.688,7.179-14.189,15.263-15.32,26.117-.9,8.819,2.092,19.164,7.123,26.343a34.515,34.515,0,0,0,7.971,8.254c4.24,3.166,8.31,3.618,13.624,4.409" transform="translate(-803.923 -227.712)" fill="none" stroke="#000" stroke-linecap="round" stroke-linejoin="round" stroke-miterlimit="10" stroke-width="4.252"/>
    <path id="Path_370" data-name="Path 370" d="M903.5,340.288a48.466,48.466,0,0,0,14.02-4.522,3.087,3.087,0,0,1,1.018-1.357,6.244,6.244,0,0,1,3.618-.848c3,.509,4.862,3.844,5.257,6.558,1.3,9.158-8.649,17.3-17.355,14.868" transform="translate(-819.608 -250.705)" fill="none" stroke="#000" stroke-linecap="round" stroke-linejoin="round" stroke-miterlimit="10" stroke-width="4.252"/>
    <path id="Path_371" data-name="Path 371" d="M853.713,375.675c-2.827-1.922-12.1-11.08-18.09-9.949a10.958,10.958,0,0,0-7.123,5.314c-.961,2.092-.678,5.031-.283,7.292,1.131,6.388,4.636,12.324,7.8,17.92,2.827,4.975,5.37,8.2,10.289,11.193,7.349,4.522,16.168,6.331,24.535,7.858" transform="translate(-786.724 -264.668)" fill="none" stroke="#000" stroke-linecap="round" stroke-linejoin="round" stroke-miterlimit="10" stroke-width="4.252"/>
    <path id="Path_372" data-name="Path 372" d="M903.572,443.2c2.318,10.741,4.466,20.747,4.692,31.6.17,9.384,2.035,18.486-.226,27.7-1.922,7.858-5.031,15.659-6.049,23.743-.735,5.992-1.3,16.677,6.218,18.768,5.314,1.526,16.338-1.866,18.825-7.066" transform="translate(-818.776 -298.387)" fill="none" stroke="#000" stroke-linecap="round" stroke-linejoin="round" stroke-miterlimit="10" stroke-width="4.252"/>
    <path id="Path_373" data-name="Path 373" d="M937.8,500.2c.678,7.858.452,13.4,4.466,19.956a26.829,26.829,0,0,0,5.879,7.179c3.279,2.77,6.784,6.275,11.137,6.84,1.753.226,5.088.678,6.84.283,4.3-.9,8.084-5.653,9.723-9.328,4.127-9.215,3.788-19.729,3.505-29.566-.565-18.994,1.131-38.1-3-56.757a40.381,40.381,0,0,0-11.024-19.447,34.638,34.638,0,0,1-7.01-10.063" transform="translate(-834.518 -283.651)" fill="none" stroke="#000" stroke-linecap="round" stroke-linejoin="round" stroke-miterlimit="10" stroke-width="4.252"/>
    <path id="Path_374" data-name="Path 374" d="M950.822,424.9c-2.092,8.367-3.674,16.394-5.37,24.761-.848,4.07-2.374,7.971-2.883,12.1-.678,6.162-.678,14.3,5.144,17.977a12.661,12.661,0,0,0,14.02-.339c6.671-4.466,7.745-14.359,8.875-21.595" transform="translate(-836.459 -290.432)" fill="none" stroke="#000" stroke-linecap="round" stroke-linejoin="round" stroke-miterlimit="10" stroke-width="4.252"/>
    <path id="Path_375" data-name="Path 375" d="M904.87,307.75h.17c-.113-.113-.17-.057-.339,0" transform="translate(-820.13 -239.48)" fill="none" stroke="#000" stroke-linecap="round" stroke-linejoin="round" stroke-miterlimit="10" stroke-width="4.252"/>
    <path id="Path_376" data-name="Path 376" d="M944.183,315.362q-.085.424.17.339c.057-.283-.283-.678-.452-.452" transform="translate(-837.169 -242.738)" fill="none" stroke="#000" stroke-linecap="round" stroke-linejoin="round" stroke-miterlimit="10" stroke-width="4.252"/>
    <path id="Path_377" data-name="Path 377" d="M843.377,296.278c-6.84-3.053-11.589-5.257-18.712-5.936a44.83,44.83,0,0,0-14.529.961c-9.949,2.374-18.26,8.254-23.178,17.129-4.805,8.649-4.24,20.125-.339,29.113,4.014,9.271,12.211,17.412,20.295,23.178,1.7,1.244,3.448,2.77,5.54,2.431" transform="translate(-767.455 -231.852)" fill="none" stroke="#000" stroke-linecap="round" stroke-linejoin="round" stroke-miterlimit="10" stroke-width="4.252"/>
    <path id="Path_378" data-name="Path 378" d="M806.531,419.922c-5.936,4.636-13.794,7.971-20.747,3-2.544-1.809-4.3-4.353-7.745-4.636-3.5-.283-5.879,2.2-7.349,4.918-3.561,6.614-3.675,12.719.848,18.712,5.653,7.462,22.1,13.059,30.244,7.8" transform="translate(-760.741 -287.546)" fill="none" stroke="#000" stroke-linecap="round" stroke-linejoin="round" stroke-miterlimit="10" stroke-width="4.252"/>
    <path id="Path_379" data-name="Path 379" d="M828.693,457.2c-.113,9.723,1.187,20.916-1.3,30.357-.735,2.714-1.639,5.6-2.374,8.31-.848,3.053-1.922,6.049-2.714,9.1a77.532,77.532,0,0,0-2.544,22.5c.226,5.992.113,13.567,4.918,17.751,4.523,3.957,9.949,6.275,15.829,4.3a8.917,8.917,0,0,0,3.957-2.2c1.752-1.752,2.77-5.766,4.636-7.349.452-.4.735-1.187,1.526-1.131,2.431.283,1.074,3.618,1.809,5.71,3.674,10.232,13.059,11.7,20.351,4.353" transform="translate(-783.185 -304.472)" fill="none" stroke="#000" stroke-linecap="round" stroke-linejoin="round" stroke-miterlimit="10" stroke-width="4.252"/>
    <path id="Path_380" data-name="Path 380" d="M876.552,457.2c-4.975,1.7-9.893,3-14.868,4.24a14.775,14.775,0,0,0-7.858,4.522c-3.166,3.392-3.618,5.879-2.6,10.345.735,3.279,2.092,8.254,4.918,10.458,4.07,3.166,12.889,4.07,17.694,2.94,4.127-1.018,7.971-2.827,10.176-6.614" transform="translate(-796.674 -304.472)" fill="none" stroke="#000" stroke-linecap="round" stroke-linejoin="round" stroke-miterlimit="10" stroke-width="4.252"/>
    <path id="Path_381" data-name="Path 381" d="M810.3,344.617c5.992-2.544,9.893-5.37,15.659-1.809a5.608,5.608,0,0,1,2.544,3.053c.622,1.809.057,4.692-.735,6.388-2.035,4.409-10.684,9.158-14.811,4.749" transform="translate(-779.095 -254.017)" fill="none" stroke="#000" stroke-linecap="round" stroke-linejoin="round" stroke-miterlimit="10" stroke-width="4.252"/>
    <path id="Path_382" data-name="Path 382" d="M812.357,319.141a.8.8,0,0,0,.509.452c-.113-.226-.339-.622-.565-.509" transform="translate(-779.964 -244.426)" fill="none" stroke="#000" stroke-linecap="round" stroke-linejoin="round" stroke-miterlimit="10" stroke-width="4.252"/>
    <path id="Path_383" data-name="Path 383" d="M854.77,322.5a1.651,1.651,0,0,1,.113.509c-.113-.17-.283-.283-.283-.226" transform="translate(-798.351 -245.92)" fill="none" stroke="#000" stroke-linecap="round" stroke-linejoin="round" stroke-miterlimit="10" stroke-width="4.252"/>
    <path id="Path_384" data-name="Path 384" d="M1510.9,616.861c17.581-.9,35.106.226,52.574-2.261" transform="translate(-1083.638 -372.892)" fill="none" stroke="#000" stroke-linecap="round" stroke-linejoin="round" stroke-miterlimit="10" stroke-width="4.252"/>
    <path id="Path_385" data-name="Path 385" d="M1354.7,617.7c17.129.17,33.523.17,50.708.4" transform="translate(-1015.74 -374.24)" fill="none" stroke="#000" stroke-linecap="round" stroke-linejoin="round" stroke-miterlimit="10" stroke-width="4.252"/>
    <path id="Path_386" data-name="Path 386" d="M1308.5,617.757c3.618-.057,7.292-.057,10.911-.057" transform="translate(-995.657 -374.24)" fill="none" stroke="#000" stroke-linecap="round" stroke-linejoin="round" stroke-miterlimit="10" stroke-width="4.252"/>
    <path id="Path_387" data-name="Path 387" d="M755.1,623.957c47.995,2.261,96.046,5.088,144.1,3.392,46.921-1.131,93.842-3.957,140.988-7.349" transform="translate(-755.1 -375.24)" fill="none" stroke="#000" stroke-linecap="round" stroke-linejoin="round" stroke-miterlimit="10" stroke-width="4.252"/>
    <path id="Path_388" data-name="Path 388" d="M986.1,286.279c1.526-1.074,11.532-9.384,16.224-10.232a35.017,35.017,0,0,1,5.37.226,28.191,28.191,0,0,1,10.571,2.092c4.692,1.979,6.218,5.257,9.045,9.045" transform="translate(-855.513 -225.697)" fill="none" stroke="#000" stroke-linecap="round" stroke-linejoin="round" stroke-miterlimit="10" stroke-width="4.252"/>
    <path id="Path_389" data-name="Path 389" d="M1126.3,283.293c8.423-4.692,16.79-11.589,26.57-7.971a13.183,13.183,0,0,1,4.749,3.053,9.974,9.974,0,0,1,3.053,4.636" transform="translate(-916.457 -224.972)" fill="none" stroke="#000" stroke-linecap="round" stroke-linejoin="round" stroke-miterlimit="10" stroke-width="4.252"/>
    <path id="Path_390" data-name="Path 390" d="M1361,297.078c5.6-4.579,8.254-6.953,15.15-7.8a25.147,25.147,0,0,1,7.971.057c4.749.9,6.671,2.883,9.61,6.614" transform="translate(-1018.478 -231.352)" fill="none" stroke="#000" stroke-linecap="round" stroke-linejoin="round" stroke-miterlimit="10" stroke-width="4.252"/>
    <path id="Path_391" data-name="Path 391" d="M858.9,283.81c5.483-1.639,10.967-3.279,16.394-4.918,2.2-.283,4.409-.509,6.614-.791.792.283,2.148,2.261,2.827,2.883a20.548,20.548,0,0,1,3.674,3.675" transform="translate(-800.221 -226.619)" fill="none" stroke="#000" stroke-linecap="round" stroke-linejoin="round" stroke-miterlimit="10" stroke-width="4.252"/>
    <path id="Path_392" data-name="Path 392" d="M959.5,274.535a103.618,103.618,0,0,1,18.146-3.335c1.244,2.2,3.844,3.222,5.144,5.653" transform="translate(-843.951 -223.62)" fill="none" stroke="#000" stroke-linecap="round" stroke-linejoin="round" stroke-miterlimit="10" stroke-width="4.252"/>
    <path id="Path_393" data-name="Path 393" d="M860.388,273.53c-7.688-2.544-19.842-8.819-26.852-.4-1.357,1.639-2.544,5.031-1.809,7.236" transform="translate(-788.311 -222.615)" fill="none" stroke="#000" stroke-linecap="round" stroke-linejoin="round" stroke-miterlimit="10" stroke-width="4.252"/>
    <path id="Path_394" data-name="Path 394" d="M1046.9,271.375c4.692-5.031,7.01-9.215,13-10.4a38.077,38.077,0,0,1,6.727-.4c5.257-.17,10.232.339,14.755,3.335,3.957,2.6,7.01,6.84,6.727,11.758" transform="translate(-881.942 -218.99)" fill="none" stroke="#000" stroke-linecap="round" stroke-linejoin="round" stroke-miterlimit="10" stroke-width="4.252"/>
    <path id="Path_395" data-name="Path 395" d="M1120.3,271.448A41.11,41.11,0,0,1,1136.468,268a20.813,20.813,0,0,0,1.413,2.318" transform="translate(-913.849 -222.229)" fill="none" stroke="#000" stroke-linecap="round" stroke-linejoin="round" stroke-miterlimit="10" stroke-width="4.252"/>
    <path id="Path_396" data-name="Path 396" d="M1180.1,274.39c3.675-1.809,14.076-8.084,16.451-.565" transform="translate(-939.843 -223.192)" fill="none" stroke="#000" stroke-linecap="round" stroke-linejoin="round" stroke-miterlimit="10" stroke-width="4.252"/>
    <path id="Path_397" data-name="Path 397" d="M1257.4,274.862A60.8,60.8,0,0,1,1268.932,270c2.374,2.2,6.049,1.866,7.462,5.427" transform="translate(-973.444 -223.098)" fill="none" stroke="#000" stroke-linecap="round" stroke-linejoin="round" stroke-miterlimit="10" stroke-width="4.252"/>
    <path id="Path_398" data-name="Path 398" d="M1339.4,287.2a40.447,40.447,0,0,1,16.168-3.9,10.923,10.923,0,0,1,2.035,5.031" transform="translate(-1009.089 -228.88)" fill="none" stroke="#000" stroke-linecap="round" stroke-linejoin="round" stroke-miterlimit="10" stroke-width="4.252"/>
    <path id="Path_399" data-name="Path 399" d="M1426.969,282.663c-6.671-3.222-15.49-8.875-21.934-1.979a22.32,22.32,0,0,0-3.335,5.144" transform="translate(-1036.17 -226.32)" fill="none" stroke="#000" stroke-linecap="round" stroke-linejoin="round" stroke-miterlimit="10" stroke-width="4.252"/>
    <path id="Path_400" data-name="Path 400" d="M1396.091,279.594c-3.675-.565-18.429-3.222-15.32,5.992" transform="translate(-1026.887 -226.926)" fill="none" stroke="#000" stroke-linecap="round" stroke-linejoin="round" stroke-miterlimit="10" stroke-width="4.252"/>
    <path id="Path_401" data-name="Path 401" d="M1343.1,277.979c-6.162-3.957-9.554-8.084-16.337-5.144-1.866.791-3.448,1.809-3.562,4.014" transform="translate(-1002.047 -223.898)" fill="none" stroke="#000" stroke-linecap="round" stroke-linejoin="round" stroke-miterlimit="10" stroke-width="4.252"/>
    <path id="Path_402" data-name="Path 402" d="M1254.09,266.716c-5.71-2.657-8.48-5.6-13.681-2.261-1.413.9-2.77,1.979-3.109,3.674" transform="translate(-964.707 -220.041)" fill="none" stroke="#000" stroke-linecap="round" stroke-linejoin="round" stroke-miterlimit="10" stroke-width="4.252"/>
    <path id="Path_403" data-name="Path 403" d="M1173.1,270.039c-2.2-.848-13.794-6.5-15.6-.848" transform="translate(-930.019 -221.668)" fill="none" stroke="#000" stroke-linecap="round" stroke-linejoin="round" stroke-miterlimit="10" stroke-width="4.252"/>
    <path id="Path_404" data-name="Path 404" d="M1046.728,270.931a47.205,47.205,0,0,0-8.479-.057c0,1.018-.565,1.131-.848,2.035" transform="translate(-877.813 -223.408)" fill="none" stroke="#000" stroke-linecap="round" stroke-linejoin="round" stroke-miterlimit="10" stroke-width="4.252"/>
    <path id="Path_405" data-name="Path 405" d="M926.751,275c-4.975-1.3-16.394-6.275-19.051,1.7" transform="translate(-821.433 -224.087)" fill="none" stroke="#000" stroke-linecap="round" stroke-linejoin="round" stroke-miterlimit="10" stroke-width="4.252"/>
    <path id="Path_406" data-name="Path 406" d="M872.5,271.482a137.694,137.694,0,0,1,17.411.283c-.283,1.074.509.848.792,1.413" transform="translate(-806.132 -223.675)" fill="none" stroke="#000" stroke-linecap="round" stroke-linejoin="round" stroke-miterlimit="10" stroke-width="4.252"/>
    <path id="Path_407" data-name="Path 407" d="M945.4,271.982a48.734,48.734,0,0,1,10.345.283c1.583-.17,1.922,0,1.017.565" transform="translate(-837.821 -223.893)" fill="none" stroke="#000" stroke-linecap="round" stroke-linejoin="round" stroke-miterlimit="10" stroke-width="4.252"/>
    <path id="Path_408" data-name="Path 408" d="M1002.2,274.6a28.934,28.934,0,0,1,7.293-.622c-.17.678-.113.4-.226.339" transform="translate(-862.512 -224.815)" fill="none" stroke="#000" stroke-linecap="round" stroke-linejoin="round" stroke-miterlimit="10" stroke-width="4.252"/>
    <path id="Path_409" data-name="Path 409" d="M1030.3,273.8c1.244-.565,2.487-1.131,3.675-1.7" transform="translate(-874.726 -224.011)" fill="none" stroke="#000" stroke-linecap="round" stroke-linejoin="round" stroke-miterlimit="10" stroke-width="4.252"/>
    <path id="Path_410" data-name="Path 410" d="M1225.625,269.931a95.09,95.09,0,0,0-12.041-.057,3.819,3.819,0,0,0-.452,2.6" transform="translate(-954.163 -222.973)" fill="none" stroke="#000" stroke-linecap="round" stroke-linejoin="round" stroke-miterlimit="10" stroke-width="4.252"/>
    <path id="Path_411" data-name="Path 411" d="M1134.38,246.517c-3.279-7.914-5.823-17.355-10.062-24.761a4.908,4.908,0,0,0-1.018-1.357" transform="translate(-915.153 -201.538)" fill="none" stroke="#000" stroke-linecap="round" stroke-linejoin="round" stroke-miterlimit="10" stroke-width="4.252"/>
    <path id="Path_412" data-name="Path 412" d="M1095.984,209.571c7.914-3.335,16.224-7.406,24.422-10.458a18.312,18.312,0,0,1,4.579-1.244c-1.866-2.713-6.727-10.176-10.119-10.8-2.431-.452-6.5,3.335-8.31,4.353a87.822,87.822,0,0,1-13.172,6.275c-1.865.678-4.014,1.131-5.483,2.431,2.148,1.866,3.448,8.367,6.331,8.819" transform="translate(-899.765 -187.034)" fill="none" stroke="#000" stroke-linecap="round" stroke-linejoin="round" stroke-miterlimit="10" stroke-width="4.252"/>
    <path id="Path_413" data-name="Path 413" d="M1088.471,221.4c-2.2,1.131-4.409,2.2-6.671,3.166a9.843,9.843,0,0,0,1.018-.622" transform="translate(-897.113 -201.973)" fill="none" stroke="#000" stroke-linecap="round" stroke-linejoin="round" stroke-miterlimit="10" stroke-width="4.252"/>
    <path id="Path_414" data-name="Path 414" d="M1108.88,195.8c.509.4-5.031-3.392-4.24-3.109" transform="translate(-907.008 -189.485)" fill="none" stroke="#000" stroke-linecap="round" stroke-linejoin="round" stroke-miterlimit="10" stroke-width="4.252"/>
    <path id="Path_415" data-name="Path 415" d="M1148.9,192.244a42.565,42.565,0,0,0,5.37-2.544" transform="translate(-926.281 -188.193)" fill="none" stroke="#000" stroke-linecap="round" stroke-linejoin="round" stroke-miterlimit="10" stroke-width="4.252"/>
    <path id="Path_416" data-name="Path 416" d="M952.9,257.668c1.018-5.54,2.148-10.854,3.392-16.168" transform="translate(-841.081 -210.71)" fill="none" stroke="#000" stroke-linecap="round" stroke-linejoin="round" stroke-miterlimit="10" stroke-width="4.252"/>
    <path id="Path_417" data-name="Path 417" d="M959.41,218.358c-8.875-2.487-17.751-4.862-26.457-7.858.509,4.353-3.9,9.893-5.653,13.285.791,1.074,1.583,2.2,2.374,3.279,2.657.226,5.314.509,7.971.735a62.648,62.648,0,0,1,10.006,1.639c3.335.9,7.632,3.053,11.08,2.657a3.75,3.75,0,0,0,2.77-1.244c1.639-1.526,6.218-11.476,5.6-11.589" transform="translate(-829.953 -197.234)" fill="none" stroke="#000" stroke-linecap="round" stroke-linejoin="round" stroke-miterlimit="10" stroke-width="4.252"/>
    <path id="Path_418" data-name="Path 418" d="M971,214.17c.678-1.809,1.3-3.618,1.979-5.37" transform="translate(-848.95 -196.495)" fill="none" stroke="#000" stroke-linecap="round" stroke-linejoin="round" stroke-miterlimit="10" stroke-width="4.252"/>
    <path id="Path_419" data-name="Path 419" d="M1294.211,204.135c2.092-.339-20.068,1.979-21.03,3.675-1.074,1.866.226,2.94.678,4.862.848,3.561-.678,11.985,1.922,14.755,3.335,3.448,14.3.226,18.26-.735,5.992-1.413,11.984-2.827,17.977-4.127,2.77-.622,6.84-.678,8.932-2.544-2.544-5.427.9-18.316-5.314-20.973-2.374-1.018-6.784.622-9.384.961-3.9.509-7.745.791-11.419,2.092" transform="translate(-980.124 -192.113)" fill="none" stroke="#000" stroke-linecap="round" stroke-linejoin="round" stroke-miterlimit="10" stroke-width="4.252"/>
    <path id="Path_420" data-name="Path 420" d="M1312.527,200c-1.357-2.318-2.77-4.636-4.127-6.9.17.226.283.452.452.678" transform="translate(-995.614 -189.671)" fill="none" stroke="#000" stroke-linecap="round" stroke-linejoin="round" stroke-miterlimit="10" stroke-width="4.252"/>
    <path id="Path_421" data-name="Path 421" d="M1270.61,232.9c-1.922.4-3.788.848-5.71,1.413" transform="translate(-976.705 -206.971)" fill="none" stroke="#000" stroke-linecap="round" stroke-linejoin="round" stroke-miterlimit="10" stroke-width="4.252"/>
    <path id="Path_422" data-name="Path 422" d="M1357.9,219.031c2.092-.4,4.183-.735,6.275-1.131" transform="translate(-1017.131 -200.451)" fill="none" stroke="#000" stroke-linecap="round" stroke-linejoin="round" stroke-miterlimit="10" stroke-width="4.252"/>
    <path id="Path_423" data-name="Path 423" d="M1321.3,245c1.187,4.24,3.335,9.1,4.24,13.341" transform="translate(-1001.221 -212.231)" fill="none" stroke="#000" stroke-linecap="round" stroke-linejoin="round" stroke-miterlimit="10" stroke-width="4.252"/>
    <path id="Path_424" data-name="Path 424" d="M1312.918,222.749a65.693,65.693,0,0,1-2.487-8.649c1.357,2.883,1.865,6.218,3.222,9.045-.9-2.77,2.487-5.653,4.24-7.349-1.583,1.639-3.675,4.579-3.562,6.84,2.261-.622,4.41-1.357,6.784-.735a16.316,16.316,0,0,0-5.653,1.187,19.085,19.085,0,0,1,3.788,3.618,16.1,16.1,0,0,0-5.766-4.183c.735,1.752,1.413,3.731,1.979,5.6-.452-1.47-1.131-2.827-1.639-4.24a23.528,23.528,0,0,0-4.409,4.749c1.244-1.809,2.374-3.618,3.731-5.314-1.809-.848-3.957.113-5.71.848a7.007,7.007,0,0,1,5.6-1.583,12.725,12.725,0,0,0-6.332-1.752" transform="translate(-994.875 -198.799)" fill="none" stroke="#000" stroke-linecap="round" stroke-linejoin="round" stroke-miterlimit="10" stroke-width="4.252"/>
  </g>
</svg>
