<svg id="communitygov" xmlns="http://www.w3.org/2000/svg" width="487.727" height="390.935" viewBox="0 0 487.727 390.935">
  <path id="Path_780" data-name="Path 780" d="M363.1,266.9s0,1.9.1,1.5c.5-3.7,3.6-27.2,5.9-36.4,2.5-9.9,5.5-22.3,5.5-22.3L373.2,222s-6.5,42.4-6.9,43.8c-.3,1.6-3.2,1.1-3.2,1.1" transform="translate(-171.2 -95.4)" fill="#e5e723"/>
  <path id="Path_781" data-name="Path 781" d="M330.1,351.1V304.4l17.8-14.9,29.5-9,.3,61.3-21.2,5.1Z" transform="translate(-171.2 -95.4)" fill="#9dd3cc"/>
  <g id="Group_41" data-name="Group 41" transform="translate(-171.2 -95.4)">
    <path id="Path_782" data-name="Path 782" d="M171.4,207.7c-.1-.2-.1-.4-.2-.5.1,0,.3-.1.4,0s.1.2.2.4C171.7,207.5,171.5,207.6,171.4,207.7Z" fill="#181715" fill-rule="evenodd"/>
    <path id="Path_783" data-name="Path 783" d="M656,365.1c-1.3.3-2.7.6-4,.9-3.3.7-6.5,1.5-9.8,2.2-1.9.4-3.7.8-5.6,1.3-2.5.6-5,1.3-7.5,1.9-3.1.8-6.1,1.8-9.2,2.6-2.4.6-4.9.8-7.4,1.3a28.754,28.754,0,0,0-4,.9c-5,1.5-10.1,2.7-15.2,3.8-.2.1-2.2-.8-2-.9a19.679,19.679,0,0,1,3.5-.5c6.9-1.4,13.7-3.6,20.4-5.6,3.2-1,6.5-1.7,9.6-3a47.592,47.592,0,0,1,7.4-2l20.1-5.1c.9-.2,1.8-.4,2.4-.5a2.194,2.194,0,0,1,2.1,1.5c.2.5-.1,1-.8,1.2Zm-80.3,12.4c.2-4.5.5-3.7-3.3-5.3-.4-.2-.9-.3-1.3-.5a4.01,4.01,0,0,0-3.7-.2,31.552,31.552,0,0,1-5.3,1.3c-3.3.6-6.7,1.2-10.1,1.8a2.919,2.919,0,0,1-.9.2c-2.3.5-2.5.4-2.5-2,0-4.6.1-9.1.1-13.7,0-1.8.6-3.1,2.4-3.6l6.9-2.4c1.1-.4,2.3-.7,3.5-1.1,6.3-2.3,12.7-4.7,19-7,3.3-1.2,6.5-2.4,9.8-3.6,4.7-1.6,9.3-3.2,14-4.8a23.392,23.392,0,0,1,3.8-.9c.9-.2,1.1,0,1,1-.2,2.3-.6,4.5-.8,6.8-.3,3.8-.7,7.6-.9,11.3-.2,5.1-.3,10.2-.4,15.2v1.1c.2,2.1.2,2.2-1.9,2.8-4.2,1.2-8.3,2.4-12.5,3.5a22.267,22.267,0,0,1-3.6.5c-.9,0-1.3.4-1.3,1.2v2c0,4.3.1,8.5.1,12.8a2.264,2.264,0,0,1-1.3,2.1c-1.8,1.3-3.9,1.7-5.9,2.4a35.738,35.738,0,0,1-3.5,1c-1.6.4-1.9.2-2-1.4v-8.7Zm-4.8-2.6c-3.1,1-6.2,2-9.4,2.8a130.167,130.167,0,0,0-15.1,4.3c-2.5.9-5.1,1.5-7.6,2.3-1.4.4-2.7.9-4.1,1.3-2.7.8-5.4,1.6-8.1,2.2-2.9.6-5.8,1-8.7,1.4a9.693,9.693,0,0,0-2.3.3,2.965,2.965,0,0,1-2.6-.2,11.781,11.781,0,0,1-1.9-1.1,6.916,6.916,0,0,1,1.9-1c4.6-1.4,9.3-2.8,13.9-4.2,1.2-.4,2.5-.6,3.7-1,2.5-.8,5-1.7,7.6-2.4,3.2-.8,6.4-1.4,9.5-2.1,1-.2,2.1-.5,3.1-.8a84.65,84.65,0,0,1,14-2.8c1.4-.2,2.8-.5,4.1-.7a10.086,10.086,0,0,1,2,.4c.3.1.5.4.8.7-.3.1-.5.5-.8.6Zm-61.3,38.9-.4-6.1c0-.4-.1-.8-.1-1.1-.1-4.2-.3-8.3-.4-12.5a19.531,19.531,0,0,1,.3-3.4.825.825,0,0,1,1.5-.4,3.941,3.941,0,0,1,1.4,2.5c0,.4.1.8.1,1.1-.1,5.5.7,11,1.1,16.5a5.153,5.153,0,0,1-.9,3.6,33.665,33.665,0,0,0-1.9,3.8c-.1.2-.5.3-.7.3-.1,0-.3-.4-.3-.5l.3-3.6m-1.9-26.9c-.7.2-.8.9-.7,1.5a99.4,99.4,0,0,0,.5,10.9c.3,2.3,0,4.7.1,7,.1,3,.3,5.9.4,8.9.1,1.3-.1,1.4-1.3,1.7-1,.3-2,.6-3,1-3.2,1.3-6.7,1.2-10,1.9a18.663,18.663,0,0,1-2.5.4c-1.2.2-1.6-.2-1.8-1.5v-.7c.1-3.1.2-6.2.3-9,.2-4.2.4-8.1.7-11.9a4.332,4.332,0,0,0-1.8-3.7c-1.1-1-2-1.6-3.6-.7a12.439,12.439,0,0,1-3.9,1c-2.4.5-4.9,1-7.3,1.5a18.663,18.663,0,0,1-2.5.4c-.5.1-.9,0-.9-.7-.1-2.6-.4-5.3-.5-7.9-.1-2.3-.1-4.5-.2-6.8a2.168,2.168,0,0,1,1.6-2.2,37.06,37.06,0,0,1,4.6-1.9l9.9-3.3c7.2-2.4,14.4-4.8,21.6-7.3,4.2-1.5,8.4-3.1,12.6-4.6l.9-.3c1.2-.3,1.4-.1,1.5,1.2.1,4,.2,8,.4,12.1.1,2.3.3,4.7.6,7,.1.7,0,1-.6,1.2a46.274,46.274,0,0,1-8,2.5,53.564,53.564,0,0,0-7.1,2.3Zm-21,9c-2.1.6-4.2,1.2-6.4,1.6-5.1.9-10.3,1.6-15.5,2.6-3.6.7-7.2,1.9-10.8,2.6-4.7,1-9.4,1.7-14,2.7-3.3.7-6.7,1.4-10,2.2-3.5.8-11.9,3.1-12,3a13.028,13.028,0,0,1-1.5-1,1.012,1.012,0,0,1,.7-.4c1.2-.3,2.3-.6,3.5-.9,1.8-.4,3.5-.8,5.3-1.2,1.4-.3,2.8-.7,4.2-1,6.4-1.5,12.8-3,19.3-4.5l4.2-.9c5.3-1,10.6-2,15.9-3.1,5.3-1,10.5-2.1,15.8-3.2a2.854,2.854,0,0,1,1.3,0c.3.1.5.5.6.8,0,.3-.4.6-.6.7Zm-69.5,36.4c-.3-.1-.8.8-1.2,1.2-.6.9-1.1,1.8-1.7,2.7-.1-1-.2-2.1-.2-3.1,0-3.2-.2-15.2-.1-17.9a12.59,12.59,0,0,1,.4-2.7c.1-.3.3-.7.6-.8.1-.1.6.2.7.4a4.7,4.7,0,0,1,1.4,2.8c0,1.4.3,2.7.3,4.1a70.094,70.094,0,0,0,.8,10.2c.1.7.1,1.4.2,2,0,.7.1,1.3-1.2,1.1Zm-4.6-21.8c-.1,1.5-.3,3-.5,4.5a1.324,1.324,0,0,1-1.3,1.3c-1.6.2-26.9,2.1-29.1,2.2a1.415,1.415,0,0,0-1.4,1.3,21.662,21.662,0,0,1-.4,2.5c-.1.3-.5.8-.8.8-1.7.1-3.5.1-5.2.1-.8,0-1.1-.5-1-1.2v-.7c.8-3.6-.1-7.3,0-10.9.1-2.8.2-5.6.2-8.4.1-1.9.1-3.8.2-5.7.1-2.2.5-2.6,2.7-2.8,3.2-.3,6.5-.6,9.8-.8,4.5-.2,9.1-.3,13.6-.5a49.864,49.864,0,0,0,5.4-.7c4.7-.7,9.4-1.4,14.2-2,2.4-.3,4.8-.4,7.2-.5,1.4-.1,2.9.1,4.3.1.6,0,.8.3.9.8.2,4.1.5,8.2.6,12.3,0,1.6-.2,1.8-1.8,2.1-4.1.9-8.3,1.8-12.4,2.8a21.37,21.37,0,0,0-4.2,1.6,2.12,2.12,0,0,0-1,1.8Zm-41.2-20.8q-.6-.9.3-1.2a7.772,7.772,0,0,1,1.6-.2c2.4-.3,4.8-.7,7.2-.9,1.7-.2,3.5-.2,5.2-.4l7.2-.9c2.9-.5,5.8-1.1,8.7-1.6a202.966,202.966,0,0,1,20.6-2.4h.9a2.365,2.365,0,0,1,2.9,1.5,11.5,11.5,0,0,0,2.1,2.3,1.719,1.719,0,0,1,.4.7,1.456,1.456,0,0,1-.9.6c-2.3.3-4.7.4-7,.7l-12,1.5c-2.1.3-4.2.8-6.3,1s-11.8.6-14.5.8l-11.4.6a8.839,8.839,0,0,1-4.5-1.4,3.039,3.039,0,0,0-.5-.7Zm.3,32.4a4.253,4.253,0,0,1-.2,1.1c0,.1-.2.2-.4.2-.1,0-.3-.1-.3-.2a7.772,7.772,0,0,1-.2-1.6c0-2.8-.2-15-.1-18.2.1-3,0-6.1.1-9.1a8.6,8.6,0,0,1,.1-1.6c0-.1.2-.2.3-.2a.451.451,0,0,1,.3.3,21.051,21.051,0,0,1,.2,2.5c.1,2,.2,3.9.2,5.9,0,1.4,0,2.7-.1,4.1v10c0,2.2,0,4.5.1,6.8Zm-1.8-35.5c-1.2,0-1.6.5-1.6,1.7.1,3.3.3,6.5.4,9.8.1,2.6,0,5.1-.1,7.7-.2,3.5.1,7.1.2,10.7.1,2,.2,4.1.3,6.1,0,.7-.3.9-.9,1-3,.2-6,.4-9.1.5-1.1,0-1.4-.3-1.5-1.5a68.37,68.37,0,0,1-.5-7.9c.1-2.4-.2-4.8-.3-7.3-.2-3.7-.2-7.4-.6-11.1a58.022,58.022,0,0,1,.4-11.8c.2-2.4.6-2.8,3-3.2,3.1-.4,6.2-.7,9.3-1.1,4.7-.6,9.3-1.1,14-1.7,1.8-.2,2-.1,2.2,1.6.2,1.3.2,2.6.3,3.9.1.8-.4,1.2-1.2,1.3-4.1.4-13.8,1.3-14.3,1.3Zm-15.4,37.4c-2.7.1-5.4.2-8.2.3-1.5,0-1.7-.1-1.7-1.7-.3-4.8-.5-9.5-.7-14.3,0-.7.1-1.2.9-1.3,2.8-.4,5.7-.9,8.5-1.3,1.5-.2,1.7,0,1.8,1.5.2,3,.4,6,.5,9.1.1,2.1.2,4.2.2,6.3,0,1.2-.2,1.4-1.3,1.4Zm-11.8-31.5c-1.3-.4-2.6-.6-4-.9-1.8-.4-1.8-.3-1.9-2.2-.5-9.5-1-18.9-1.4-28.4a20.851,20.851,0,0,0,0-2.5c-.1-1.5.7-2.2,2.1-2.6,2.6-.6,5.2-1.3,7.8-1.8,4.7-.8,9.4-1.4,14.2-2.2,7.1-1.2,14.2-2.5,21.3-3.6,3.3-.5,6.6-.8,9.9-1.2a9.063,9.063,0,0,1,2.3.1,1.533,1.533,0,0,1,1,.7c.1.3-.1,1-.4,1.1a29.617,29.617,0,0,1-3.1,1.5,6.1,6.1,0,0,1-1.3.3c-1.8.6-2.4,1.2-2.2,3.2.5,4.5,1,9,1.5,13.6.3,2.6.6,5.3,1,7.9.3,2.1.7,4.2,1,6.3a11.271,11.271,0,0,1,.3,1.8c0,.3,0,.8-.1.8a15.984,15.984,0,0,1-2.1.5.912.912,0,0,1-1.2-.8,11.019,11.019,0,0,1-.2-1.8c-.1-1.3,0-2.6-.2-3.9-.2-1.8-1.2-2.4-3-2.1a147.687,147.687,0,0,1-17.5,2.6c-3.2.2-6.3.8-9.4,1.3-1.7.3-1.9.6-2,2.3-.2,3.3-.3,6.7-.5,9.8.1,3.2.3,6.3.3,9.3,0,1.7,0,1.7-1.7,2-2.5.4-5,.7-7.4,1-1.5.2-1.6.1-1.7-1.3a37.847,37.847,0,0,1,0-8.9c.1-1-.2-1.5-1.4-1.9Zm-3,32.5a1.387,1.387,0,0,1-.7-.8,13.789,13.789,0,0,1-.8-2.9c-.5-4.8-1-9.7-1.3-14.5a41.552,41.552,0,0,1,.3-6.1,2.513,2.513,0,0,1,.6-1.4,30.7,30.7,0,0,1,2.6-2.5c.3-.3.8-.3,1.2-.4a5.273,5.273,0,0,1,.3,1.2V401a13.333,13.333,0,0,1,0,2c-.5,4.9.1,9.8.5,14.8.1,1.5.4,3,.5,4.5a2.52,2.52,0,0,1-3.2,2.9Zm-4-27.9c-1.8-.5-3.2-1-4.7-1.3-3.2-.7-6.4-1.2-9.5-2.1-4-1.2-7.8-2.8-11.8-4.2-6.9-2.4-13.6-5.2-20.6-7.1a108.955,108.955,0,0,1-10.9-3.9,14.242,14.242,0,0,1-2.5-1.2c-.4-.2-.5-.7-.1-.9,2.1-.9,4-2.3,6.6-1a90.618,90.618,0,0,0,9.1,3.6c1.5.6,3,1.2,4.4,1.7,2.4.9,4.8,1.9,7.3,2.6,4.1,1.2,8.2,2.1,12.3,3.3,4.9,1.4,9.8,2.5,14.6,4.3a84.807,84.807,0,0,0,8.3,2.2,14.465,14.465,0,0,1,2.2.9,8.224,8.224,0,0,1-1.8,1.9A11.184,11.184,0,0,1,335.7,397.3Zm-5.9-39.4a16.608,16.608,0,0,1,.3-2.2,15.712,15.712,0,0,1,2.3.9,2.561,2.561,0,0,1,1.2,2.3c.2,5.5.5,11,.7,16.5.1,1.6,0,3.2,0,4.8h.1c.1,2.9.3,5.7.4,8.6,0,2.1-.5,2.4-2.4,1.6a.993.993,0,0,1-.7-1c-.2-3.6-.3-7.3-.6-10.9-.6-6.9-1.3-13.7-1.3-20.6Zm2-5.1a5.023,5.023,0,0,1,1.3-.5c5.8-1.4,11.6-3.1,17.5-4.2,7.7-1.5,15.4-2.7,23.1-4,3.1-.5,6.2-.7,9.3-1.1,1.8-.2,3.6-.4,5.7-.6a5.088,5.088,0,0,1,1.4.4c.7.5,1.4,1.1,2.1,1.6a2.913,2.913,0,0,1-2.4,1c-2.9.5-5.9.8-8.8,1.3-4.6.7-9.1,1.5-13.7,2.3-5.8.9-11.5,1.9-17.3,2.8a95.55,95.55,0,0,0-10.7,1.8c-.8.2-1.6.2-2.5.4-.4.1-.8.3-1.3.4-.5.2-1.2.6-1.6.5a14.165,14.165,0,0,1-2.3-1.4c-.1,0,0-.6.2-.7Zm23.5-60.4-8.5,3c-3.3,1.2-6.7,2.4-10.1,3.5a1.421,1.421,0,0,1-.6.2h-.6a1,1,0,0,1,.4-.5l9-6.9,3-2.1a12.638,12.638,0,0,1,2.6-1.3c4-1.4,8-2.7,12.1-4,1.3-.4,2.6-.8,4-1.1,0,0,10.5-3.3,10.8-2.6s-3.1,1.8-3.1,1.8c-8.5,3.8-19,10-19,10Zm-26.6,9.3a2.107,2.107,0,0,0-1.1,1.8c-.1,2.7-.3,5.5-.3,8.2a3.916,3.916,0,0,1-2.1,3.9c-5.8,3.4-11.4,7.2-17.3,10.6-4.4,2.5-8.5,5.5-13,7.9-.3.1-.5.3-.8.4-.6.3-1,.3-1.2-.5a31.047,31.047,0,0,1-.8-4.2c-.4-3.5-.6-7.1-.9-10.7-.2-3-.2-6.1-.6-9.1-.5-3.6-.2-7.3-.2-10.9v-2.5l-.7-12.7c0-.5-.1-1.1-.1-1.6a.919.919,0,0,1,.9-1c2-.6,4.1-1.2,6-1.8,1.7-.6,3.4-1.2,5.1-1.9,1-.4,1.7-.5,2.3.5a3.745,3.745,0,0,0,1.3,1.2c1.6,1,3.2,1.3,4.9.1.8-.6,1.7-1.1,2.5-1.7a5.127,5.127,0,0,0,2.1-3.4,1.823,1.823,0,0,1,2.1-1.8,13.525,13.525,0,0,0,3.3-.9c.5-.1.9-.2,1.2.3,1,2.1,2.5,3.1,4.9,2.6,2.5-.5,4.6-1.9,5-4.4.4-2.1,1.7-3.1,3-4.2,1.8-1.6,3.7-3.1,5.6-4.6.2-.2.6-.4.8-.3.2,0,.3.4.4.7a1.483,1.483,0,0,1,.1.7c.1,5.4.2,10.8.4,16.2.1,3.2.1,6.4.5,9.5a4.981,4.981,0,0,1-2.3,5.2c-3.6,2.8-7.2,5.6-11,8.4Zm-1.3,23.1c0,.7-.9,1.5-1.6,2.1-2.1,1.7-4.3,3.3-6.5,4.9-2.5,1.9-5.1,3.9-7.6,5.8-1.2.9-2.4,1.8-3.7,2.6-.9.6-1.3.4-1.3-.6-.1-1.5,0-3,0-4.5,0,0,.1-3,.1-4.5a2.262,2.262,0,0,1,1.1-2.1c.6-.4,1.2-.9,1.9-1.3,3.4-2.2,6.7-4.3,10.2-6.4,2.1-1.3,4.2-2.4,6.3-3.6.5-.3.9-.1,1,.5C327.3,320,327.5,322.4,327.4,324.8Zm-36.5,8.3c-.2,0-.5.1-.6,0a26.583,26.583,0,0,1-3.5-3.2,2.883,2.883,0,0,1-.6-1.9c-.2-3.3-.3-6.7-.5-10-.2-4.3-.5-8.6-.7-12.9-.2-2.5-.2-5,1.2-7.3a34.339,34.339,0,0,0,1.9-4.4,2,2,0,0,0,.2-1.3,1.387,1.387,0,0,0-.8-.7c-.2-.1-.6.2-.7.4a15.714,15.714,0,0,0-.9,2.3c0,.1-.3.2-.4.2a.451.451,0,0,1-.3-.3,10.868,10.868,0,0,0-.1-1.8c-.1-2.7-.1-5.5-.2-8.2a12.31,12.31,0,0,1,.2-2c.2-1,.6-1.2,1.5-1.2a1.181,1.181,0,0,1,1.2,1.3c.4,5.1.8,10.1,1.1,13.6a138.254,138.254,0,0,0,.6,18.8c.5,5.1.7,10.1,1.1,15.2.1,1,.3,2,.4,2.9.1.3,0,.5-.1.5Zm-3.5-55c-.2.2-.4.7-.7.7a1.984,1.984,0,0,1-1.3-.6c-.2-.1-.2-.6-.2-.9v-9a2.92,2.92,0,0,1,.2-.9c0-.1.2-.2.3-.2a.55.55,0,0,1,.5.3.6.6,0,0,1,.1.4C286.7,271.2,287,274.5,287.4,278.1Zm-4.3-10.8c.2,3.5.2,7,.3,10.5,0,6.8-.1,13.5,0,20.3a3.218,3.218,0,0,1-2,3.4c-4.6,2.1-8.7,5-12.9,7.7-4,2.5-7.8,5.2-11.8,7.8-2.5,1.7-3,1.5-3.4-1.5-.8-6.2-1.5-12.5-2.3-18.8-.3-2.6-.6-5.1-1-7.7a219.3,219.3,0,0,1-2.8-31.3c-.1-5.4-.6-10.8-.9-16.1-.3-4.2-.5-8.5-.8-12.7-.2-3.9-.3-7.7-.6-11.6a3.366,3.366,0,0,1,1.7-3.4,149.61,149.61,0,0,1,20.8-12.3c5.6-2.8,11.1-5.9,16.7-8.9,1.7-.9,3.5-1.8,5.3-2.7,4.1-2.1,8.2-4.2,12.4-6.2,5.7-2.7,11.5-5.2,17.2-7.7,13.2-5.7,26.5-11.1,39.6-17,7.9-3.5,16-6.2,24.1-9.1a50.272,50.272,0,0,0,9.8-4.3,26.232,26.232,0,0,1,4.6-1.9c.5-.2.7.1.7.5v4.3h-.1c-.2,5-.4,10-.5,15-.2,5.1-.3,10.2-.4,15.2l-.6,18.9c-.1,3.6-.2,7.3-.2,10.9,0,3.1,0,6.2.1,9.3.2,4.7.5,9.4.8,14.1,0,.6.1,1.2.1,1.8a1.543,1.543,0,0,1-1,1.6c-3,1.8-6,3.6-9,5.3a2.994,2.994,0,0,1-.8.4.782.782,0,0,1-1.1-.5,3.545,3.545,0,0,1-.3-1.1c-.6-4.9-1.3-9.8-1.8-14.7-.6-6-1.1-11.9-1.8-17.9-.5-4.4-1.2-8.9-1.7-13.3-.2-2.2-.2-4.4-.3-6.6-.1-2-.2-3.9-.3-5.9-.1-1.5-.6-1.9-2.1-1.5a50.3,50.3,0,0,0-6.3,1.9c-2.9,1-5.8,2.1-8.8,3.2-.9.3-1.3.9-1.1,1.7,1.1,4.4.5,8.9,1.6,13.3.7,2.8.6,5.7.9,8.6.1,1.5.3,3,.5,4.5.3,3.4.5,6.8.8,10.2.4,4.1,2.3,16.3,1.5,18.4a19.806,19.806,0,0,0-.8,3.3c-.5,2.9-1,5.8-1.4,8.8a2.491,2.491,0,0,1-1.2,2c-2.1,1.3-4.3,2.6-6.4,3.9-.9.5-1.2.5-1.4-.6-.3-1.6-.6-3.1-.8-4.7-.7-4.9-1.5-9.8-2.1-14.7-.5-3.6-.8-7.2-1.1-10.9-.4-3.6-.6-7.3-1-10.9-.2-1.6-.6-1.9-2.2-1.7a3.6,3.6,0,0,0-1.1.2c-3.6,1.4-7.2,2.7-10.9,4.1-.5.2-1,.2-1.5.4-1.5.3-2.2,1.1-1.9,2.5.3,2.1.8,4.2,1.1,6.3.5,2.9.9,5.9,1.3,8.8.1.8-.2,1.2-1,1.5a15.053,15.053,0,0,0-1.7,1c-1.2.8-2.4,1.6-3.6,2.3-.9.5-1.4.3-1.7-.7a46.692,46.692,0,0,1-1.4-5c-.7-4-1.3-8.1-1.9-12.1-.3-1.9-.4-3.8-.6-5.7-.1-1.3-.1-2.6-.2-3.8,0-1.3-.6-1.7-1.7-1.1l-9.9,4.5c-1.5.7-3.1,1.3-4.6,2.1-.8.4-1.2,0-1.3-.7-.1-1.3-.2-2.6-.2-3.9a10.553,10.553,0,0,0-.2-2.5c-.2-1.4-.7-1.7-2-1-3.2,1.5-6.4,3.1-9.6,4.6-1.3.6-2.6,1.1-4,1.6a1.436,1.436,0,0,0-1.1,1.7,24.994,24.994,0,0,0,.5,2.9c.9,4.8,1.8,9.5,2.6,14.3.5,2.9.7,5.9,1.1,8.8l1.5,10.8c.3,2,.2,2.1-1.7,2.9a7.814,7.814,0,0,0-2,1.1,15.436,15.436,0,0,1-4.4,2.3c-2.2.8-2.3,1.4-2.3,3.2Zm98-23c-2.8,1.7-5.6,3.4-8.3,5.1-.6.4-1.3.7-2,1.1a6.889,6.889,0,0,0-.8.3,4.052,4.052,0,0,1,0-1.1c.1-.5.2-1,.3-1.6,1.3-6.7,1.9-13.5,3.5-20.2.9-3.9,1.8-7.9,2.5-11.8a39.567,39.567,0,0,0,1.1-9c0-.7.3-1.7-.7-1.9-1.1-.3-1.1.8-1.4,1.4A44.71,44.71,0,0,0,371,220c-.2,1-.4,1.9-.7,2.9-.8,2.8-2,5.6-2.3,8.6,0,.2-.3.5-.4.7l-.3-.6a50.113,50.113,0,0,1-.8-6.5c-.1-5.3-.9-10.4-1.5-15.6-.6-5.8-1.3-11.6-1.9-17.4-.1-1.3-.2-2.6-.4-3.8a1.172,1.172,0,0,1,.8-1.4,68.4,68.4,0,0,1,12.4-4.6c.9-.3,1.2-.1,1.3,1,.2,2.2.5,4.4.5,6.6a87.8,87.8,0,0,0,1.1,11.5c.4,3.2.6,6.5.9,9.7.4,4.1.9,8.1,1.3,12.2.3,2.6.5,5.3.9,7.9.4,3,.8,6,1.3,9,.2,2.1,0,2.8-2.1,4.1Zm-13.6,7a16.006,16.006,0,0,0-.3,2.3c0,1.9-.9,3.5-1.4,5.2,0,.2-.3.2-.5.3a1.421,1.421,0,0,1-.2-.6c0-.5.5-7.3,1-10.2,1.1-6.2,2.2-12.4,3.4-18.6.5-2.4,1.3-4.7,1.9-7,.8-3,1.6-6,2.5-9a36.83,36.83,0,0,1,1.5-3.5c.6,1.3.1,2.6-.2,3.9-.6,2.8-1.5,5.6-2.2,8.4a50.415,50.415,0,0,0-1.1,5.6c-.4,2-.9,4-1.2,6-.3,1.5-.4,3-.7,4.5-.8,4.3-1.6,8.5-2.5,12.7Zm-2.8,17.1c0,.2-.3.4-.5.4s-.4-.3-.4-.4a10.3,10.3,0,0,1,.8-5.5.682.682,0,0,1,.5-.3c.1,0,.3.3.3.5a3.749,3.749,0,0,1-.1,1.1,28.374,28.374,0,0,1-.6,4.2Zm-3.7-5.6c-3.8,2.2-7.5,4.5-11.3,6.7-1.8,1-3.6,1.9-5.4,2.9-.4.2-.7.2-.8-.4a2.236,2.236,0,0,1,.9-2.4c1.2-.9,2.4-1.8,3.7-2.6,4.2-2.8,8.5-5.5,12.8-8.3.4-.2.7-.5,1.1-.7.9-.5,1.2-.3,1.2.7a2.252,2.252,0,0,1-.1.7c.3,1.5-.7,2.6-2.1,3.4Zm-61.5-3.4c5.9-2.5,11.5-5.6,17-8.6,3.1-1.7,6.2-3.1,9.4-4.7,2.1-1,4.2-2.1,6.3-3.1a6.007,6.007,0,0,1,1.4-.5c.5,0,.6,0,.8.1.9.3,1.7.5,2.6.8-.4.9-1.3,1.1-2,1.5a65.7,65.7,0,0,1-11.3,4.7c-3.4,1.2-6.6,2.6-9.9,3.9-6.5,2.7-12.5,6.5-18.9,9.4-1.4.7-2.8,1.4-4.3,2.1-1.1.5-2.5.3-2.2,0a3.838,3.838,0,0,1,1.5-1.3c3.1-1.4,6.4-2.8,9.6-4.3Zm7-36.3a94.354,94.354,0,0,1,12.2-5.4c1.1-.4,1.4-.3,1.6.8a41.661,41.661,0,0,1,.8,4.9,134.011,134.011,0,0,0,1.8,14c.2.9.5,1.8.7,2.6.2,1,.5,2.1.6,3.1.2,1.6,0,1.6-1.4,2.4-3.5,1.8-6.9,3.8-10.4,5.6-2.6,1.4-2.5,1.8-3.4-1.4a27.8,27.8,0,0,1-.8-4.9l-1.2-9c-.5-3.5-1.1-7-1.7-10.5a2.015,2.015,0,0,1,1.2-2.2Zm-.2,20.5c.4,2.9.8,5.8,1.4,8.7.1.7.1,1.1-.6,1.5-3.5,1.7-7.1,3.5-10.6,5.2-1,.5-1.4.2-1.6-.8-.3-1.6-.6-3.3-.8-4.9l-2.7-19.8c-.5-3.1-1.1-6.3-1.7-9.4-.4-2.1-.3-2.4,1.7-3.4,2.8-1.4,5.7-2.8,8.6-4.2.6-.3,1.3-.5,2-.8.2.2.5.4.6.6a14.158,14.158,0,0,1,.4,2,108.215,108.215,0,0,0,2,13.9c.3,3.8.7,7.6,1.3,11.4Zm6.3,32.3a21.1,21.1,0,0,1-2.3,1.9c-2.2,1.7-4.7.4-5.5-2.2a3.751,3.751,0,0,1-.1-1,4.381,4.381,0,0,1,3.1-4.5,3.8,3.8,0,0,1,4.6.7c1.5,1.6,1.7,3.6.2,5.1Zm17.4-5.3a5.948,5.948,0,0,1-4.4,2.4,2.424,2.424,0,0,1-2.3-1.5c-1.4-2.8,1.3-6.8,4.4-6.6a2.166,2.166,0,0,1,2.1,1.4,14.161,14.161,0,0,1,.7,2.2,3.645,3.645,0,0,1-.5,2.1Zm-8.6-2.8a5.456,5.456,0,0,1-5.3,3.7,2.274,2.274,0,0,1-1.2-.6c-.6-.5-1.1-1.2-1.8-1.7a5.113,5.113,0,0,0-6.4-.1c-.6.4-1.2,1-1.8,1.4a3.213,3.213,0,0,0-1.6,2.6c-.2,2.1-1.6,3.1-3.5,3.6-2,.6-3.8,1.4-5.8,2.1a1.421,1.421,0,0,1-.6.2c-4.3,1.3-4.1.4-4.4-2.8-.1-1-.1-2-.2-3-.1-.9-.2-1.8-.2-2.2v-1.2a2.567,2.567,0,0,1,1.8-3c2.7-1.2,5.4-2.4,8.1-3.7,1.9-.9,3.7-2,5.6-3,2.8-1.4,5.5-2.9,8.4-4.1,5.5-2.3,11.1-4.4,16.7-6.7,2.9-1.2,5.7-2.5,8.5-3.8,2-.9,2.3-.7,2.4,1.5.2,3,.4,6,.8,9a4.236,4.236,0,0,1-.9,3.1,23.653,23.653,0,0,1-6.5,5.3,2.108,2.108,0,0,1-2.5-.1,6.393,6.393,0,0,0-9.6,3.5Zm21.7-.6c-.1-1.1-.3-6-.4-7.2-.4-4.3-.7-8.6-1.1-12.9-.1-.9-.1-1.8-.2-2.7-.2-1.7-.9-2.7-2.7-2.8a2.394,2.394,0,0,1-2.5-2.4c-.2-1.6-.4-3.2-.7-4.7-.4-2.2-.9-4.5-1.2-6.7-.2-1.2-.2-2.4-.3-3.6a1.416,1.416,0,0,1,.9-1.4,49.21,49.21,0,0,1,11.3-4.1c1.8-.3,1.8-.3,1.9,1.4.3,4.6.5,9.2,1,13.8.6,5.5,1.5,11,2.3,16.4.5,3.2,1,6.4,1.6,9.6a2.62,2.62,0,0,1-1.3,2.8c-2.5,1.6-5,3.2-7.5,4.7-.8.7-1,.7-1.1-.2Zm35.9,16c0,2.1-.1,4.1-.2,6.2l-.3,7.5h.1c0,4.6-.3,9.1.1,13.7.4,5.5.2,11.1.2,16.6,0,4.3.3,8.5.4,12.7,0,1.6,0,1.6-1.5,1.9-5.8,1-11.7,1.9-17.5,2.9a2.92,2.92,0,0,0-.9.2,1.033,1.033,0,0,1-1.3-1c-.1-1.4-.2-2.7-.3-4.1-.2-5.2-.5-10.3-.7-15.5-.1-3.6,0-7.1.1-10.7,0-1.4.1-2.9.1-4.3-.2-4.6-.7-11.5-.7-13.8s.1-2,1.5-2.7c1.3-.7.7-.3.7-.3s17.5-9.1,18.9-10c1.3-1,1.3.2,1.3.7Zm47.3-10.1c2.7-.1,5.5-.4,8.2-.4,1.3,0,1.4.1,1.5,1.4.5,6.2,1,12.4,1.6,18.6v.5c.2.6.2,1.5,1.1,1.5.9-.1.9-.9.9-1.6,0-2.3.1-2.5,2.2-3.3,1.8-.7,3.6-1.2,5.4-1.8,1.2-.4,1.5-.8,1.3-2a49.565,49.565,0,0,1-.7-10.9c.1-2.9.1-2.9,2.9-2.8,1.8,0,3.6.1,5.4.1,1.6.1,2,.4,2.3,2,.4,2.4.7,4.8,1,7.2a4.83,4.83,0,0,1-2.4,5.2,2.189,2.189,0,0,0-1,.9,1.8,1.8,0,0,0,.2,1.2,1.228,1.228,0,0,0,1-.1c1.3-.9,2.5-1.9,3.8-2.9a2.24,2.24,0,0,0,.7-2.4c-.6-2.9-1-5.8-1.5-8.7a4.033,4.033,0,0,1,0-1.1c0-.5.2-.9.8-.9a19.4,19.4,0,0,1,3.4.2c.4,0,.7.4,1.1.7.2.1.2.4.3.6.3.6.5,1.5,1.3,1.4,1-.2.4-1.1.4-1.7a1.7,1.7,0,0,1,.1-.7c0-.1.2-.2.4-.2a2.268,2.268,0,0,1,.4.1,7.972,7.972,0,0,1,.3,1.5c0,2,0,3.9.1,5.9,0,1.5.2,1.9,1.7,2.3,1.2.3,2.5.6,3.8.9a4.671,4.671,0,0,1,1,.5c-.3.3-.5.7-.9.9-1.2.9-2.4,1.8-3.7,2.6a1.471,1.471,0,0,0-.7,1.9,5.5,5.5,0,0,1,.2,2.2c-.3,2.9-.8,5.9-1.1,8.8-.1,1.1-.2,2.3-.2,3.4a15.143,15.143,0,0,1-.1,5.2,2.079,2.079,0,0,0,.1,1.1,1.012,1.012,0,0,0,.7.4c.2,0,.6-.3.6-.5.2-1.4.3-2.9.4-4.3.3-4.5.6-8.9,1-13.4.3-2.8.6-2.9,3.3-2.3a2.97,2.97,0,0,1,2.5,2.6,15.039,15.039,0,0,1,.3,2.9c.1,3.2,0,6.4.1,9.6a3.891,3.891,0,0,1-2.2,4.1,2.189,2.189,0,0,0-1,.9.786.786,0,0,0,.3,1.2c.3.1.9.2,1,0a7.961,7.961,0,0,1,3.2-2.5c.8-.4.8-1.2.7-2-.2-1.4-.5-2.9-.6-4.3-.1-3.2,0-6.4,0-9.6,0-1.2.3-1.6,1.5-1.5,2,.2,4.1.6,6.1.9a.932.932,0,0,1,.7.4c.1,2,2.1,3.2,2.1,5.2,0,1.1.3,2.3.4,3.4.1,2.9.1,5.8.2,8.7a2.3,2.3,0,0,1-1.5,2.5,14.144,14.144,0,0,0-2.4,1.3c-.3.2-.2.8-.3,1.2.4.1.9.4,1.2.2,1.5-.7,2.9-1.6,4.4-2.4a1.689,1.689,0,0,0,.8-1.7c-.3-2.9-.5-5.7-.7-8.6a28.042,28.042,0,0,0-1.2-7.6c-.4-1.3-.1-1.6,1.1-1.4,1.4.2,2.8.6,4.2.9a1.383,1.383,0,0,1,1.2,1.6c-.1,2.7-.2,5.5-.2,8.2-.1,2.1-.2,4.2-.2,6.4a2.768,2.768,0,0,0,.1.9,1.157,1.157,0,0,0,.7.5c.3-.1.7-.3.8-.6.1-.2,0-.6,0-.9,0-1.1-.1-2.1-.1-3.2l.6-9.3a11.273,11.273,0,0,1,.3-1.8c.1-.6.3-1,1-.9.6.1,1.3.3,1.2,1-.1,2.8,0,9.7,0,10.4a1.682,1.682,0,0,0,.9,1.7c1.5,1.1,3,2.3,4.5,3.5a10.614,10.614,0,0,1,1.7,2,25.577,25.577,0,0,1-2.4,1.1c-.7.2-1.5.3-2.2.5-1.5.3-1.9.9-1.5,2.4a37.816,37.816,0,0,1,.9,9.5c0,1.7-.1,1.7-1.7,2.2a35.74,35.74,0,0,0-3.5,1,15.054,15.054,0,0,0-2.2,1.1,2.754,2.754,0,0,0-1.4,2.9c.1.5-.1,1.1,0,1.6.5,5.9,1,11.8,1.4,17.7.1,1.7.1,3.3.1,5,0,.8-.2,1.4-1,1.6-4.2.8-7.8,3.3-11.9,4.4l-.6.3c-1,.3-1.2.2-1.3-.9-.1-3.1-.2-6.2-.2-9.3s.3-6.2.4-9.3a2.419,2.419,0,0,0-1.4-2.6c-1.4-.8-2.7-1.7-4.1-2.5a2.5,2.5,0,0,0-1.7-.1c-4,1.6-8,3.2-12.1,4.8-2,.8-4.1,1.6-6.2,2.3-4.4,1.5-8.2,4-12.2,6a8.794,8.794,0,0,1-1,.6c-1.5.7-1.6.6-1.7-1-.1-2-.4-3.9-.4-5.9-.1-3.6-.1-7.3-.1-10.9,0-2.8-.3-3-3-3.9a8.553,8.553,0,0,0-7.3.8c-3,1.6-6.3,2.5-9.5,3.9-4.3,1.9-8.5,4-12.8,6-3.4,1.5-6.8,2.9-10.2,4.4-.7.3-1.1,0-1.1-.7.2-1.9-4.3-7-6.4-6.7-1.8.3-5.4.8-7.2.9-1.2.1-1.3-.1-1.4-1.3-.4-6.8-.5-13.6-.5-20.5,0-6.3-.2-12.6-.3-18.9v-.2c0-1.6-.1-3.2,1.8-4.1,1.7-.9,3.2-2.2,4.9-3.3,6.6-4.1,13.3-7.8,19.6-12.4,3.2-2.4,6.5-4.7,9.8-7a3.2,3.2,0,0,1,1.9-.5m20.8-.5a45.127,45.127,0,0,1,5.2-.1c1.3,0,1.5.1,1.5,1.4.1,2,0,3.9,0,5.9v4.8a2.376,2.376,0,0,1-1.6,2.5c-1.4.5-2.8,1.2-4.2,1.7-.9.3-1.3.1-1.5-.8a16.278,16.278,0,0,1-.3-3.1l-.9-10.2c0-1.8.1-1.9,1.8-2.1Zm2.7-2.5c1-.1,2.1-.2,3.1-.3.1,0,.2.3.4.4-.1.1-.2.2-.3.2h-3.1c-.9,0-1.8-.1-2.7-.1A11.844,11.844,0,0,0,442.1,270.2Zm22.1-3.1a5.017,5.017,0,0,1-1.4.3H462a4.88,4.88,0,0,1-.7-.3c.1-.2.1-.5.3-.6a20.281,20.281,0,0,1,1.8-1.3c.4-.2.8-.9,1.4-.3.4.6.1,2-.6,2.2Zm-4.4,2.3c.8-.1,1.6-.2,2.5-.3.5,0,1-.1,1.6-.1.8,0,1,.5,1,1.2s-.4,1-1,.9c-1.3-.1-2.7-.3-4-.5-.2,0-.5-.4-.5-.6C459.3,269.8,459.6,269.5,459.8,269.4Zm-3.2-1.5a28.032,28.032,0,0,1-2.9,0v.1h-2.5c-.3,0-.5-.2-.8-.3.1-.3.2-.8.5-.9a10.518,10.518,0,0,1,3.1-1.7,60.214,60.214,0,0,1,6.1-.5.758.758,0,0,1,.4.2.6.6,0,0,1-.1.4,22.845,22.845,0,0,1-2.2,2.2,2.518,2.518,0,0,1-1.6.5Zm-13.9.6h-1.1c-.3,0-.5-.2-.8-.3.2-.2.3-.5.5-.7a8.121,8.121,0,0,1,6.6-2.2c.2,0,.3.2.5.4a.758.758,0,0,1-.2.4c-1.6,1.2-3.1,2.9-5.5,2.4Zm5.9,1.4c1.2-.2,2.4-.3,3.6-.4,1.1,0,2.2,0,3.4.1a2.92,2.92,0,0,1,.9.2.55.55,0,0,1,.3.5.7.7,0,0,1-.5.4h-2.9a6.15,6.15,0,0,1-1.3-.1h-3.4c-.2,0-.3-.2-.5-.3.1-.2.2-.4.4-.4Zm18.8-.7c.3.4.6.7.6,1s-.3.5-.5.8a3.328,3.328,0,0,1-.6-1C466.8,269.8,467.1,269.6,467.4,269.2Zm-.1-4.2a1.47,1.47,0,0,1,.6.5,1.974,1.974,0,0,1,.1.9l-.6.6c-.2-.3-.4-.5-.6-.8a.878.878,0,0,1,.1-.7C467,265.2,467.2,264.9,467.3,265Zm.4-7.6v.1c.1,1.2.2,2.5.2,3.7,0,.3-.4.5-.5.8-.1-.2-.4-.5-.4-.7.3-1.3-.1-2.7.7-3.8v-.1h0m-14.4,5.4c-.4,0-.7.2-1.1.2a7.972,7.972,0,0,1-1.5.3c-2.8.1-5.6.1-8.4.1a25.827,25.827,0,0,1-2.9-.3c-2.2-.3-2.2-.3-2.3-2.6a38.435,38.435,0,0,1,0-4.8c0-.9.3-1,1.2-.6,1.4.7,2.7,1.3,4.1,1.9a3.079,3.079,0,0,0,1.3.3,1.012,1.012,0,0,0,.7-.4,1.062,1.062,0,0,0-.1-.8,11.9,11.9,0,0,0-1.5-.9c-1.3-.6-2.6-1.2-3.9-1.9a3.288,3.288,0,0,1-1.8-3.6,114.962,114.962,0,0,0,.8-11.8c.1-5.7,0-11.4.1-17.1,0-2.1,0-4.3.1-6.4s.8-2.8,2.9-2.7c4,.3,7.8-.9,11.8-.8,5.5,0,10.9-1.2,16.3-1.6,4-.3,8-.6,12-.8,3.7-.2,7.4-.5,11.1-.7h1.1c2.6.1,3-.5,2.9,2.9-.1,4-.5,8-.7,12-.1,1.6,0,3.2,0,4.8,0,.4.1.8.1,1.1-.1,2.5-.4,2.8-2.8,2.3-5.9-1.2-11.8-1.8-17.8-2.5a28.754,28.754,0,0,1-4-.9c-1.2-.3-1.4-.2-1.7,1a4.253,4.253,0,0,0-.2,1.1c-.2,3-.4,6-.6,9.1a25.386,25.386,0,0,0,0,3.9,13.384,13.384,0,0,1-.8,5.6,42.19,42.19,0,0,0-2.6,12.2c-.1,1.7-.3,1.9-2.1,2h-5m39.3-38.2c.5-4.2.5-8.3.6-12.5a10.818,10.818,0,0,0,0-1.8,1.5,1.5,0,0,1,1.1-1.5c1.3-.5,1.9,0,1.8,1.3,0,1.2-.1,3.6-.1,3.6-.1,3.4-.3,6.8-.4,10.2,0,.7,0,1.3-1.1,1.3-.8,0-.9.5-.6,1.3.4.9.9,1.7,1.3,2.6a6.468,6.468,0,0,1,.4,1.3c.2,1.8-.5,2.4-2.2,1.7a1.411,1.411,0,0,1-.8-1.5,40.033,40.033,0,0,1,0-6ZM479.6,288a19.1,19.1,0,0,1-2.1,1.4c-1.6-.4-2.9-.7-4.2-1.1-.1,0-.2-.6-.1-.7,1.3-.9,2.5-2.1,4.1-2.3a3.219,3.219,0,0,1,1.7.1c.8.2,1.9.6,2.1,1.1C481.5,287.3,480.2,287.5,479.6,288Zm1.7,1.2c1.2-1.3,2.4-2.2,4.3-1.5a37.344,37.344,0,0,0,4.6.9c1,.2,1.1.6.4,1.4-.6.7-1,1.8-2.3,1.4-2.2-.4-4.5-.7-6.7-1.1-.6-.1-.8-.6-.3-1.1Zm16.1,3.1a1.014,1.014,0,0,1-1.4.7c-.7-.2-1.5-.3-2.2-.5-.6-.2-1.1-.4-1.7-.6a16.672,16.672,0,0,1,1.2-1.6,4.264,4.264,0,0,1,4.1,0C497.9,291,497.6,291.6,497.4,292.3Zm3.9-.7a8.471,8.471,0,0,1-.4,1.7.782.782,0,0,1-1.1.5,1.834,1.834,0,0,1-.7-1,3.708,3.708,0,0,1,.4-1.5,3.592,3.592,0,0,1,1-.7,5.769,5.769,0,0,1,.8,1Zm7.9-55.4c3.9,1,7.8,2,11.7,3.1,2,.5,2,.5,1.9,2.6-.2,2.8-.3,5.6-.4,8.4-.2,4.9-.3,9.9-.5,14.8,0,.5-.1.9-.1,1.4,0,.7-.5.7-.9.4-1.4-.8-2.7-1.7-4.1-2.5-1.1-.7-2.2-1.3-3.3-1.9-1.4-.8-2.8-1.5-4.1-2.4a2.243,2.243,0,0,0-2.5-.3,30.865,30.865,0,0,1-4.3,1.4c-1.9.6-1.9.9-1.9,2.8.1,2.6-.1,5.3-.1,7.9,0,2,.1,3.9.1,5.9.1,2,.2,4.1.2,6.1,0,1.7-1.2,2.9-2.2,4.1-.2.3-1,.3-1.5.2-1.3-.2-2.7-.6-4-.8-1.6-.3-3.3-.6-4.9-1a7.107,7.107,0,0,1-3-1,9.954,9.954,0,0,0-2.6-.9c-3.5-1.1-7.1-2.2-10.6-3.2a1.96,1.96,0,0,1-1.7-2c-.2-2.5-.4-11.2-.4-12.7-.1-4.2,0-8.5.1-12.8.2-6.7.6-13.3.9-20v-.2c.2-3.4.2-3.3,3.5-3.1,8.3.5,16.4,2.2,24.6,3.5,1,.2,2.1.2,3.2.4,2.2.6,4.6,1.2,6.9,1.8Zm14.3,29.2c.9-4.6.6-9.2.7-13.8.1-3.6.3-7.3.4-10.9.1-1.3.3-1.4,1.6-1.3a25.125,25.125,0,0,1,2.7.4c1.5.2,1.5.2,1.5,1.6,0,3.4.2,16.9.2,20.3,0,.3-.2.5-.2.8-.3-.1-.6-.2-.7-.4-.8-1-1.5-2.1-2.3-3.1-.3-.5-.8-.8-1.3-.4a1.262,1.262,0,0,0-.1,1.2c.6,1,1.3,2,2,3a12.7,12.7,0,0,1,2.6,9.4c-.1.9-.4,1.2-1.1.7a54.031,54.031,0,0,1-4.6-3.3,4.28,4.28,0,0,1-1.4-4.2Zm7.2,10.6c3.7,1.8,6.9,4.4,10.2,6.8,1.7,1.2,3.4,2.6,5,3.9a2.507,2.507,0,0,1,.4.7,1.421,1.421,0,0,1-.6.2h-1.5c-1.5.5-2.8-.7-4-1.6a90.739,90.739,0,0,0-10.3-6.2c-3.1-1.7-6.2-3.4-9.3-5.3-1.9-1.1-3.6-2.5-5.4-3.7l-9.9-6.9a5.5,5.5,0,0,1-.9-.7c-.1-.1,0-.7.1-.7,1.4-.6,2.6-1.3,4.2-.3,2.8,1.8,5.9,3.1,8.7,4.9,3.6,2.3,7.1,4.9,10.7,7.3.9.5,1.7,1.2,2.6,1.6Zm12.2,1.9c.1-2.7.5-5.3.6-7.9.2-5.6.2-11.2.4-16.8.1-2.7.2-2.8,2.7-1.7,1.2.5,2.4.9,3.6,1.4,2.4,1,4.7,2.1,7.1,3.1,4.5,1.9,8.9,3.8,13.4,5.7,5,2.1,10,4.1,15,6.1a2.83,2.83,0,0,1,1.8,2.9c0,1.4,0,2.7-.1,4.1-.2,3-.5,6.1-.7,9.1-.5,6.7-1.1,13.5-1.5,20.2l-.9,13.8a12.306,12.306,0,0,1-.2,2,1.466,1.466,0,0,1-.2.4,1.072,1.072,0,0,1-.6-.2c-2.3-4-4.7-8-7-11.9-.9-1.5-1.9-2.9-2.8-4.3-1.3-1.9-2.7-3.9-4.1-5.7-1.3-1.7-2.7-3.3-4-4.9a1.786,1.786,0,0,0-1.8-.6c-1.8.3-3.6.5-5.4.7-1,.1-1.4.9-1.6,1.7a18.678,18.678,0,0,0-.4,2.5c-.7,5.3-1.7,10.5-1.8,15.8a28.845,28.845,0,0,1-.4,2.9c-.1.7.3,1,.9,1.1a.831.831,0,0,0,1.1-.8c.1-2.1.2-4.2.4-6.3.5-4.1,1.2-8.3,1.8-12.4,0-.2.2-.4.2-.6.2.2.5.3.7.5,3.7,5.1,7.6,10.1,10.8,15.5,2.2,3.6,4.2,7.4,6.2,11.1.3.5.6,1.1.9,1.6,1.6,2.6,3.2,5.1,4.8,7.7.6,1,.6,1.2-.6,1.7-3.5,1.4-7,2.8-10.6,4.1-3.4,1.3-6.8,2.5-10.2,3.8-.4.1-.7.3-1.1.4-1,.3-1.5,0-1.5-1-.3-3.6-.9-17.6-1.2-20.9a3.455,3.455,0,0,0-3.2-3.3,17.982,17.982,0,0,1-2.2-.6c-2-.5-2.1-.5-2-2.4a20.356,20.356,0,0,0-.8-6.5,20.747,20.747,0,0,1-.6-6.1c.1-2.4.2-4.9.3-7.3.2-2,.5-3.9.8-5.9.2-1.5.1-2.9-1.4-3.8a14.308,14.308,0,0,1-1.5-1.1c-3.2-2.9-3.3-3-3.1-6.9Zm5.6-28.8c.1-.1.3,0,.7-.1.3.1.8.2,1.3.4,2.3.9,4.7,1.7,7,2.6,3.5,1.4,7,2.8,10.5,4.4,1.9.9,3.7,2,5.6,3a15.456,15.456,0,0,0,2.2,1.2c3.6,1.5,7.2,2.9,10.8,4.4,1.6.7,3.1,1.6,4.6,2.4.2.1.3.4.4.7a3.091,3.091,0,0,1-.8.2,6.941,6.941,0,0,1-1.3-.5c-2.5-1.2-4.9-2.4-7.4-3.5-2.9-1.2-5.8-2.3-8.7-3.5-3.6-1.4-7.2-2.8-10.8-4.3-2.6-1.1-5-2.5-7.5-3.7-1-.5-2.1-.9-3.1-1.3-1.2-.5-2.4-.8-3.6-1.3-.2-.1-.4-.4-.6-.6a1.794,1.794,0,0,1,.7-.5Zm25.2-1.8c.2-1.8.2-3.6.3-5.5.1-1,.4-1.2,1.3-.9,6.9,1.8,13.8,3.7,20.6,5.7,3.7,1.1,7.5,1.8,11.3,2.7s7.6,2,11.5,2.9a41.662,41.662,0,0,0,4.9.8c1.8.2,2,.4,1.8,2.3a96.734,96.734,0,0,0-.8,12c0,4.7-.4,9.4-.6,14.1-.2,6.4-.4,12.9-.5,19.3a2.118,2.118,0,0,1-.3.7l-.6-.6c-3.3-5.1-6.6-10.2-9.5-15.5-.5-1-1.6-2.4-2.3-2.2-1.2.3-4.4,1.2-6,1.5-1.9.4-2.6.7-2.5,2.7a87.736,87.736,0,0,1,.1,8.9c-.2,5.9-.5,11.8-.8,17.7-.1,1.3-.1,2.6-.3,3.9a41.5,41.5,0,0,0-.6,8.6c0,1.7,0,1.7-1.6,2.2-2.2.6-4.4,1.3-6.5,2-1.6.5-2.1.2-2.2-1.5-.1-.9,0-1.8,0-3.2a89.076,89.076,0,0,0,.3-11.7c-.1-3,.3-6,.5-9.1.1-1.7-.1-3.3,0-5,.1-2,.2-3.9.4-5.9.8-7.6,1.6-15.2,3.1-22.8,0-.2.1-.5.1-.7.7-3.2.7-3.2-2.2-4.7a105.454,105.454,0,0,0-13-5.5c-1.3-.5-2.7-1.1-4-1.7a2.34,2.34,0,0,1-1.6-2.2c.1-3.1-.7-6.1-.3-9.3Zm4-9.2a11.272,11.272,0,0,1,1.8-.3,2.921,2.921,0,0,1,.9.2,120.352,120.352,0,0,1,15.5,3.7c4.4,1.5,9,2.5,13.6,3.7,1.9.5,3.7,1.2,5.6,1.7,3,.8,6,1.5,9,2.2,1,.2,1.9.5,2.9.7.1,0,.2.2.2.3s-.2.2-.3.3a7.118,7.118,0,0,1-4.8.6c-4.3-1.2-8.7-2.1-13-3.1-2.1-.5-4.1-1-6.2-1.5-4.9-1.3-9.9-2.4-14.7-4.1a63.329,63.329,0,0,0-7.5-1.9c-1.1-.3-2.2-.5-3.3-.9a5.669,5.669,0,0,1-1.3-.8c.6-.3,1.1-.6,1.6-.8Zm52.8,13.4a1.524,1.524,0,0,1,.6,1.1,25.394,25.394,0,0,1,0,3.9c-.1,2.8-.2,5.6-.4,8.4-.2,2.4-.5,4.8-.7,7.2-.1,1.1-.2,2.3-.3,3.4-.1,1-.1,1.9-1.4,2.2-.8.2-1,1.1-.8,1.9l1.2,9.3a33.285,33.285,0,0,1,.2,5.9c-.1,5.1-.1,10.1-.2,15.2v.7c0,.2-.2.3-.3.5-.1-.1-.3-.2-.3-.3-1.3-2.1-2.6-4.1-2.5-6.9.2-3.5-.3-10.5-.3-10.6,0-.8.2-1.7.2-2.6.2-3.9.4-7.9.6-11.8.1-2.7.3-5.4.4-8.2.1-2.2-.1-4.4.1-6.6.3-3.8.8-7.5,1.2-11.3-.1-1,1.8-1.9,2.7-1.4Zm-43.7,77.2c.5.8,1,1.5,1.5,2.3.4.6.2,1-.4,1.2l-1.5.6c-.7.2-1.5.7-2.2.5-.5-.1-.7-1-1.1-1.6-1.3-2-2.7-3.9-3.9-5.9-2.6-4.4-4.9-8.9-7.5-13.3a130.594,130.594,0,0,0-7.4-10.9,52.2,52.2,0,0,1-3.8-5.4c-.7-1.2-.5-1.5.9-1.8.5-.1.7-.5,1.8-.4s1.1.7,1.6,1.2c2,2.5,3.9,5,5.8,7.6a57.724,57.724,0,0,1,6.1,10.1,84.536,84.536,0,0,0,4.9,8.2c1.7,2.6,3.5,5.1,5.2,7.6Zm1.8-1a18.06,18.06,0,0,1-2.9-5,6.339,6.339,0,0,1-.2-3q.6-4.65.9-9.3c.2-1.9.1-3.8.2-5.7.4-6.4,1-12.8,1.4-19.3.2-2.6.3-5.3.5-7.9.2-2.1.4-4.2.7-6.3.1-.5.4-1.1.7-1.2a11.844,11.844,0,0,1,2.7-.2c.1,0,.3.5.4.8a10.746,10.746,0,0,1,0,1.8c-.3,1.7-.5,3.5-.8,5.4a142.7,142.7,0,0,0-2,16c-.2,4.2-.5,8.5-.4,12.7,0,2.7-1.1,20.8-1.2,21.2Zm-44.3,24.9a.725.725,0,0,1,.2-1.3c1-.5,1.9-.9,2.9-1.3,3-1.4,6-2.8,9.2-4.1,4.7-1.8,9.4-3.5,14.1-5.2,4.1-1.5,8.3-2.8,12.3-4.6,2.3-1,4.5-2.2,7-2.4.1,0,.3-.1.4-.1,3.9-2.1,8.2-2.5,12.3-4a1.661,1.661,0,0,1,1.9.2c1.3.9,2.7,1.8,3.9,2.7.9.7.8,1.2-.2,1.6-.1.1-.3.1-.4.2-9,2.5-17.7,6-26.5,9-5.1,1.8-10.2,3.5-15.3,5.3a.6.6,0,0,1-.4.1c-4.6,2.4-9.7,3.4-14.6,5.1-.9.3-1.8.7-2.7,1-1.7-.1-2.9-1.2-4.1-2.2Zm-2.7,1.9c0-.8.4-1,1-.6l3.6,2.7a2.8,2.8,0,0,1,1,2.4c0,2.6-.3,12.7-.3,15.2,0,1.5-.2,1.8-1.8,2-1.4.2-1.6.1-1.7-1.4-.6-5.2-1.2-10.4-1.7-15.5a38.46,38.46,0,0,1-.1-4.8ZM499,338.3c-.2,3.3-.4,6.7-.3,10,.1,3.1-.3,6-.4,9.1a5.663,5.663,0,0,1-.3,1.8c-.1.2-.4.3-.7.4-.1,0-.3-.3-.3-.5a20.291,20.291,0,0,1,0-3.6c-.4-5.2-.9-10.4-1.3-15.6-.1-1.4-.1-2.9-.1-4.3,0-1.2.1-1.2,1.3-.7,1.6.5,2.2,1.6,2.1,3.4ZM546.4,300c0,.5,0,.9-.8.7-.4-.1-.7-.4-1.2.1s0,.9.2,1.2a9.56,9.56,0,0,1,1.4,7c-.2,1.7-.3,3.5-.5,5.2a1.923,1.923,0,0,1-1.7,1.8c-.1,0-.4-.1-.4-.2-.1-1.2-.3-2.4-.3-3.6,0-2,.2-4.1.2-6.1.1-5,.1-10,.1-15a2.314,2.314,0,0,1,2.9-2.2,1.268,1.268,0,0,1,.4.9c0,1.7-.3,8.5-.3,10.2Zm-40.8,30.1c2.5-.8,5-1.4,7.4-2.3,1.7-.6,3.4-1.4,5-2.1a3.259,3.259,0,0,1,1.3-.4c4.1-.4,7.7-2.4,11.5-3.5,1.7-.5,3.5-.8,5.3-1.3l6.3-1.8a9.067,9.067,0,0,1,4.9-.1c1.2.3,2.4.4,3.5.6-.8,1.2-2.2,1.1-3.4,1.4-3,.9-6,1.7-9,2.6s-5.9,1.9-8.9,2.8c-3.9,1.1-7.9,1.9-11.8,3.1-5.1,1.6-10.3,2.7-15.4,4.1a18.289,18.289,0,0,0-2.5.8c-.4-.1-.8,0-1-.2-.4-.2-.6-.6-.9-.9a7.05,7.05,0,0,1,.9-.7c2.3-.7,4.6-1.4,6.8-2.1Zm.3-7.5c-.1.5-.2,4-.4,5.2-.1.3-.5.5-.8.7-.2-.3-.6-.5-.6-.8-.2-2.3-.4-4.7-.5-7,0-.7.3-.8.8-.6a2.142,2.142,0,0,1,1.5,2.5Zm4.5-6.4c.4.2.6.7,1,1.1-.4.2-.7.6-1.1.7-1,.3-3.9.9-4.1.7a12.136,12.136,0,0,1-1.4-1,3.915,3.915,0,0,1,1-.8,17.6,17.6,0,0,1,3-1,4.53,4.53,0,0,1,1.6.3Zm2.3,9.2a1.176,1.176,0,0,1-.9,1.2c-1,.4-2,.7-3,1-1.1.3-1.4,0-1.4-1.2V326c.5-4.5,0-4.1,4-2.6C512.4,323.6,512.7,324.4,512.7,325.4Zm-2.9-4.6c-.1,0-.1-.6-.1-.6,1.1-.5,2.2-.9,3.4-1.4a5.894,5.894,0,0,0,.8.4,5.8,5.8,0,0,1,1.2,1,14.948,14.948,0,0,1,1.1,1.3c-.7.3-1.6,1-2.2.9a21.37,21.37,0,0,1-4.2-1.6Zm9.7,3.1a2.01,2.01,0,0,1-.8.4,1.566,1.566,0,0,1-1.8-.5.3.3,0,0,1,0-.4,13.028,13.028,0,0,0,1.5-1c.4.3.9.4,1.2.7a2.2,2.2,0,0,1-.1.8Zm-17.1-49.1c0-2.9.2-5.8.3-8.6,0-.9.3-1.1,1.1-.6,1.4.8,2.8,1.6,4.1,2.5,3.2,2.3,6.3,4.7,9.6,6.9a112.733,112.733,0,0,0,10.6,6.2,124.759,124.759,0,0,1,12.6,7.7,2.377,2.377,0,0,1,1,2.1v12.8c-.1,2.4-.2,6.1-.3,9.7v.9c-.3,2.7-.5,3.1-3.1,3.7a97.092,97.092,0,0,0-13.9,4.3,2.82,2.82,0,0,1-2.8-.2,41.72,41.72,0,0,1-10.2-7.6,51.239,51.239,0,0,0-4.9-4.4c-.5-.4-.9-.8-1.4-1.2-3.3-3.1-2.9-2.9-2.8-7.2.1-5.4.4-10.8.4-16.2.1-3.6-.2-7.2-.3-10.8Zm-37.3,99.4c-.6-.5-.5-.9.2-1.1,2.6-.9,5.2-1.6,7.8-2.6,2.6-.9,5.1-1.9,7.6-2.9,4.9-2,9.7-4.3,14.9-5.5,2.4-.5,4.6-1.5,6.9-2.2,3.9-1.2,7.8-2.3,11.8-3.3,2.3-.6,4.3.6,6.2,1.7.1.1.1.3.2.4-.1.1-.1.3-.3.4-.3.2-.7.3-1,.5-4.3,1.6-8.7,3.2-13,4.7-5.5,1.9-10.9,4.1-16.6,5.5l-.9.3c-5.2,2.3-10.7,3.8-16.1,5.6-.1,0-.2,0-.2.1C469.6,377.6,467.3,376.1,465.1,374.2Zm-29.5-12.8a25.83,25.83,0,0,1-2.6-.8c.4-1,1.5-.9,2.2-1.3,5.8-2.5,11.4-5.4,16.9-8.4a48.308,48.308,0,0,1,5.8-2.5q7.05-2.7,14.1-5.1a7.834,7.834,0,0,1,2.6-.4,1.157,1.157,0,0,1,.7.5c.1.2-.2.5-.4.7-1.1.7-2.2,1.3-3.3,1.9a74.378,74.378,0,0,1-12.9,5.7,37.04,37.04,0,0,0-5.4,2.4c-4.4,2.2-8.9,4.2-13,7.1-.6.5-1.5.5-1.9.7-1.2-.2-2-.3-2.8-.5Zm-7.7,19.9c.4-2.9.5-5.9.9-8.8.4-3.1.9-6.2,1.4-9.2a4.13,4.13,0,0,1,.7-1.1c2,.5,3.7.8,5.4,1.3.2,0,.4.5.3.7-.8,4.6-.6,9.2-.7,13.8-.3,6.9.6,13.8.7,20.7,0,1.1,0,2.1.1,3.2,0,.4.2,1.1.1,1.2a4.674,4.674,0,0,1-1.9.6c-.3,0-.8-.7-.9-1.1-.2-1.6-.3-3.2-.4-4.8-.2-3.1-.3-6.2-.4-9.3,0-1.4-.9-2.2-1.8-3s-1.9-1.5-2.8-2.3a1.76,1.76,0,0,1-.7-1.9Zm-29.5-25.9c5.7-2.6,11.4-5.4,17-8.2,2.3-1.1,4.4-2.7,6.7-3.8,3.6-1.9,7.4-3.6,11-5.4,1.3-.6,2.6-1.3,3.9-2,.7-.4,1,0,1,.7v8.5c.1,0,.3,5.3.3,8a2.953,2.953,0,0,0,.2,1.3c.5,1.3.6,1.3-.5,1.8-2.6,1.1-5.1,2.3-7.8,3.2a2.465,2.465,0,0,0-1.8,2.5c-.2,2.4-.7,4.8-1,7.2-.2,2.2-.3,4.4-.4,6.6v1.4c-.4,4.1-.4,3.3-3.5,3.5-6,.5-11.9,1.1-17.9,1.7-2.2.2-4.3.8-6.5,1.1-1.5.2-1.7.2-1.9-1.4-.2-1.7-.4-3.5-.5-5.2-.2-5.9-.3-11.8-.6-17.7-.2-2.1.6-3,2.3-3.8Zm-6.1-2.1c-.5-.2-.6-.7-.1-1.1a1.38,1.38,0,0,1,.4-.3c3.1-1.5,6.3-3,9.5-4.5,3.7-1.7,7.5-3.4,11.2-5.1,3.4-1.5,6.7-3.1,10.2-4.6,3-1.3,6.1-2.4,9.1-3.6a3.258,3.258,0,0,1,1.3-.4,8.468,8.468,0,0,1,1.7.4c-.4.4-.7.9-1.2,1.1-3.2,1.6-6.4,3.1-9.6,4.6a42.967,42.967,0,0,0-5.2,2.8,95.778,95.778,0,0,1-12.2,6.6c-2.9,1.4-5.8,2.7-8.7,4-1,.4-2,.8-3,1.1a15.157,15.157,0,0,1-3.4-1Zm2.7,25.3a35.293,35.293,0,0,1,0,4.6c0,.9-.6,1.2-1.8,1.3-.9.1-1.2-.4-1.3-1.2-.6-4.4-1.2-8.7-1.7-13.1-.5-4.2-.8-8.5-1.2-12.7,0-.5-.1-1.1-.1-1.6,0-.7.4-1.2,1.2-1h.2c3.3.7,3.3.4,3.7,4.1.3,1.8.7,14.9,1,19.6ZM438.3,397c-.2-3.2-.4-6.4-.6-9.5-.1,0,0-10.9.1-16.4,0-1.4.1-2.9.1-4.3a2.973,2.973,0,0,1,.8-2,12.188,12.188,0,0,1,4.8-3.6,62.287,62.287,0,0,0,7.6-4.1c4.6-2.6,9.7-4.2,14.6-6.4,2.5-1.1,4.9-2.4,7.3-3.6,1.4-.7,2.7-1.4,4.1-2,1.1-.5,1.8,0,1.8,1.2,0,1-.1,2-.1,3-.1,4.9-.2,9.9-.3,14.8a3.749,3.749,0,0,0,.1,1.1c.1.5.5.9.5,1.3-.1.3-.8.4-1.2.6a23.4,23.4,0,0,1-7.3,2.5,31.3,31.3,0,0,0-5.1,1.9,10.926,10.926,0,0,1-1.7.5c-1.4.4-1.7.6-1.7,1.9,0,2.4.1,4.8.2,7.3.1,3.9.2,7.9.3,11.8a12.414,12.414,0,0,0,.3,2.7c.1.3,1.5.2,1.5-.1,0-1.7-.1-3.3-.1-5-.1-4.3-.2-8.6-.2-13,0-1.2.2-1.3,1.3-.8,1.7.8,2.7,1.8,2.7,3.8,0,1.7.2,3.3.2,5,.1,3.2.2,6.4.3,9.5,0,.9-.2,1.3-1,1.5-3.5.8-6.9,1.6-10.4,2.3-3.1.7-6.3,1.2-9.4,1.9-3,.7-5.9,1.5-8.8,2.2-.6.1-.7-.1-.7-.7a46.814,46.814,0,0,0,0-5.3Zm101.6-44.9c.3,5.2.6,10.5,1,15.7l.6,7.5c.1,1.4,0,1.5-1.3,1.9l-9.3,3c-1.4.4-2.9.8-4.4,1.3a.987.987,0,0,1-1.4-.7,6.465,6.465,0,0,1-.4-2c-.2-3.6-.4-16.2-.4-18.9a2.731,2.731,0,0,0-1.9-3c-1.7-.7-3.3-1.5-5-2.2a2.532,2.532,0,0,0-1.7-.2c-4,1.1-8,2.2-12,3.4a22.508,22.508,0,0,0-2.4.8c-.8.2-1.2-.1-1.3-.9a10.818,10.818,0,0,1,0-1.8c.1-3.1.1-6.2.2-9.3.1-2.6.2-5.3.3-7.9.1-2,1-3,3-3.7,6.4-2,13-3.7,19.5-5.5,4.9-1.4,9.8-2.6,14.7-4,4.7-1.3,9.3-2.8,13.9-4.2,3.1-.9,3.3-.7,3.4,2.5.2,4.9.4,9.7.6,14.6.1,1.7.2,3.3.3,5a1.371,1.371,0,0,1-1,1.7c-3,1.3-5.9,2.7-8.9,4-1.4.4-6.2,1.5-6.1,2.9Zm84.8,11.7c0,.2.1.5.1.7-.2,3.2.2,3.3-3.1,4.3-3.8,1.2-7.7,2.4-11.5,3.5-.9.3-1,.2-.9-.8a13.337,13.337,0,0,0,0-2c0-.6-.2-1.2-.2-1.8,0-3.2.1-6.4.2-9.6.2-4.3.6-8.6.9-12.9v-.5c.1-2.2.2-2.3,2.1-1.2.1,0,.1.1.2.1,2.3,1.3,4-1.8,3.4-2.3-.6-.6-1.4,1.4-2.2,1.1a12.03,12.03,0,0,1-2.7-1.6c-.2-.2-.1-.9,0-1.3.2-1.6.6-3.1.8-4.7a3.159,3.159,0,0,0-1.6-3.6c-1.2-.7-2.3-1.7-3.5-2.5a5.723,5.723,0,0,0-2.5-1.4c-1.1-.2-1.4-.6-1.4-1.6,0-1.1,0-2.1.1-3.2.3-3.9.6-7.9.9-11.8.3-5.1.6-10.1.8-15.2v-3a.85.85,0,0,1,.3-.5,1,1,0,0,1,.5.4l1.2,2.4c2.3,4.2,4.1,8.6,6,13,.8,1.8,1.8,3.5,2.7,5.2,2,3.6,3.9,7.2,5.9,10.7l2.7,4.5a8.049,8.049,0,0,1,1.3,4.3c0,3.3.2,6.5.3,8.9-.3,4.1-.6,7.2-.7,10.4C624.5,355.8,624.6,359.8,624.7,363.8Zm9.3-38.7c.6,1.1.5,1.4-.8,1.8a7.578,7.578,0,0,1-1.6.3c-1.5.3-3,.6-4.4,1-1.2.3-1.6.2-2.2-.9-.8-1.3-1.5-2.6-2.2-4-2-3.7-4-7.5-6.1-11.2a89.537,89.537,0,0,1-4.3-8.8c-2.1-4.6-4.3-9-6.6-13.5-1.6-3.2-1.7-3.2,1.8-4,.8-.2,1.6-.3,2.4-.5a1.4,1.4,0,0,1,1.5.8c1.1,2,2.2,4,3.4,5.9.8,1.4,1.7,2.7,2.5,4.1a79.494,79.494,0,0,1,5.9,10.2c1.8,3.7,4.1,7.1,6.1,10.7,1.7,2.8,3.2,5.4,4.6,8.1Zm1.9,4.4c.1,1.1.2,2.3.2,3.4-.1,3-.3,8.9-.2,8.9v8.4c0,.2-.4,9.4-.4,13.9,0,.3-.1.9-.3,1a6.465,6.465,0,0,1-2,.4,1.511,1.511,0,0,1-.4-.9c-.1-1.9-.1-3.8-.2-5.7,0-3.3,0-6.7-.1-10a5.537,5.537,0,0,0-.2-1.8c-.1-.3-.7-.5-1.1-.6-.2,0-.7.4-.7.7a16.954,16.954,0,0,0-.1,2.3c.1,3.3.2,6.7.2,10,0,2-.2,4.1-.4,6.1,0,.3-.4.6-.6.8-.3.2-.7.1-1.1.2-2.3.6-2.1.6-2.3-1.9-.4-4.7.2-9.4.1-14.1,0-2.4.2-4.9.4-7.3a86.782,86.782,0,0,0,.1-10.2c0-3,.1-3.2,3-3.8,1.6-.3,3.1-.6,4.7-.9,1.1-.2,1.3-.1,1.4,1.1ZM436.1,240l-.6,8.4c0,.2-.2.5-.4.5a1.332,1.332,0,0,1-.5-.3,9.7,9.7,0,0,1-1.1-4.8c.2-2.9.5-5.7,1.9-8.3a1.47,1.47,0,0,1,.6-.5,3.091,3.091,0,0,1,.2.8,32.958,32.958,0,0,0-.1,4.2ZM656.8,360.4a1.721,1.721,0,0,0-1.2-.2c-3.8.9-7.7,1.8-11.5,2.7-1.6.4-3.2.8-4.9,1.2s-1.8.3-1.8-1.5a28.061,28.061,0,0,1,0-4.1c.1-3.5.3-7,.4-10.5,0-2-.2-3.9-.2-5.9,0-2.3.2-4.5.3-6.8.1-2.1.2-4.2.2-6.4,0-1.3-.1-2.6-1.4-3.4a3.134,3.134,0,0,1-.8-1.1c-1-1.8-1.9-3.7-3-5.4a13.678,13.678,0,0,1-2.4-8.8c.2-2.1-.2-4.2-.2-6.4a1.421,1.421,0,0,1,.2-.6c.2.2.4.4.4.6.2,2.5.3,5,.4,7.5.1,1,.8,1.6,1.6,1.4.9-.3.7-1,.6-1.7-.2-1.6-.4-3.1-.5-4.7-.1-1.5-.1-3-.3-4.5-.2-1.9-.6-3.7-.8-5.6-.2-2.1-.4-4.2-.5-6.4-.1-3.8-.3-7.6-.1-11.4.3-5.8,1-11.5,1.4-17.3a44.925,44.925,0,0,0,.1-8.2c-.3-3.7.4-3.5-3.7-4.4-5.2-1.2-10.4-2-15.4-4a18.578,18.578,0,0,0-4.2-1.2c-3.6-.4-6.9-1.9-10.3-2.8-3.2-.9-6.4-2-9.6-2.8-2.6-.7-5.2-1.1-7.8-1.6a5.16,5.16,0,0,0-1.1-.2,21.912,21.912,0,0,0-7.1,2.3,2.036,2.036,0,0,0-1.1,1.9c-.1,1.7-.4,3.5-.4,5.2,0,3.4.2,6.8.3,10.2.1,1.3-.1,1.5-1.2.9-4.5-2.3-9.4-3.6-13.7-6.2a22.77,22.77,0,0,0-3.6-1.5c-1.4-.5-2.8-.8-4.1-1.4a4.028,4.028,0,0,0-3.7.2,11.937,11.937,0,0,1-1.6.8,3.206,3.206,0,0,0-2.2,3.3V255c-.3,7.6-.6,15.2-1,22.8,0,.3-.1.6-.1.9-.2,1.2-.4,1.4-1.4.7-1.1-.7-2.1-1.4-3.2-2.2a3.233,3.233,0,0,1-1.2-1.4,28.59,28.59,0,0,1-2.7-10.3c-.3-4.2-.1-8.3-.2-12.5,0-4.3-.1-8.5-.1-12.8,0-1.4-.3-1.8-1.6-2-1.7-.3-3.5-.5-5.2-.7a50.5,50.5,0,0,1-5.6-.6c-5.2-1.3-10.4-2.8-15.6-4.2a1.486,1.486,0,0,1-1.2-1.2,25.421,25.421,0,0,1-.7-4.7c0-3.9.2-7.9.2-11.8,0-2.3.1-4.6,0-6.8-.1-2-.1-2-2.3-2-.7,0-1.4-.1-2-.1-5.2.2-10.5.4-15.7.7q-7.95.45-15.9,1.2a114.948,114.948,0,0,1-11.8,1.1c-5.1,0-10.1,1.1-15.2.8h-.7a2.817,2.817,0,0,0-2.5,2.8c-.1,1.9-.3,3.8-.3,5.7,0,3.4,0,6.8.1,10.2a4.451,4.451,0,0,1-1,2.9,20.024,20.024,0,0,0-1.6,2.4c-1.8,3-2,6.4-2.4,9.7a5.017,5.017,0,0,0,.8,3.9,20.836,20.836,0,0,1,2,3.6,9.869,9.869,0,0,1,1,2.7c.2,3,.3,6.1.4,9.1a2.329,2.329,0,0,0,2.2,2.4,4.033,4.033,0,0,1,1.1,0c.4.1.8.3,1.2.4-.3.3-.5.7-.8,1a2.947,2.947,0,0,1-1.3.5c-1.3.3-2.1,1-2.1,2.3,0,.8-.3,1.1-1.1,1.1l-3.6.3c-4.1.1-8.2.2-12.3.2-.7,0-1.3.1-2,.1-.8,0-1.3-.2-1.3-1.2-.1-1.8-.2-3.6-.3-5.5-.2-7.6-.5-15.2-.5-22.8,0-11.8.2-23.5.4-35.3.1-6.1.3-12.1.5-18.2.1-5.9.2-11.8.4-17.8.3-6.1.7-12.1,1-18.2.2-4.5.3-9,.6-13.4.4-6.2,1.1-12.4,1.5-18.6.5-7.7.8-15.3,1.1-23a4.033,4.033,0,0,0,0-1.1c-.1-.3-.5-.7-.7-.7a1.05,1.05,0,0,0-.9.5,6.447,6.447,0,0,0-.3,2c-.2,4.2-.4,8.3-.6,12.5l-.9,15.9c-.4,6-.8,12-1.2,17.9-.5,8.6-1,17.1-1.4,25.7-.2,5.4-.3,10.8-.4,16.2,0,2,.1,3.9.1,5.9-.1,4.2-.4,8.5-.5,12.7-.1,2,0,3.9-.1,5.9-.1,8.3-.2,16.5-.3,24.8,0,6.3.1,12.6.1,18.9,0,2.4.1,4.9.2,7.3.1,3.1.3,6.2.5,9.3a2.962,2.962,0,0,1-1.4,3.1c-.3.2-.6.5-.9.7-5.7,4-11.2,8.1-17.2,11.5-3.7,2.1-7.2,4.5-10.8,6.7a12.812,12.812,0,0,1-2,1.1.675.675,0,0,1-1-.6,3.3,3.3,0,0,1,0-1.4c.1-3.2.1-6.4.2-9.6a24.368,24.368,0,0,0-.1-2.7c-.2-1.4-.6-1.8-2-1.6a50.338,50.338,0,0,0-5.6,1c-2.6.6-5.1,1.4-7.7,2.1-1.8.5-3.6,1.1-5.4,1.7-3.1,1-6.1,2.3-9.3,3.1-2.1.5-4.2.8-5.5,2.7-.3.4-.7.3-.9-.2a6.373,6.373,0,0,1-.2-.7c-1.2-4-.7-8.1-.5-12.2a1.623,1.623,0,0,1,.5-.9,22.032,22.032,0,0,1,3.2-2.1c4.7-2.7,9.4-5.4,14-8,.6-.4.9-.1.9.7-.1,1.1-.3,2.3-.4,3.4-.1,1.4.4,2,1.7,2.6a1.852,1.852,0,0,0,2.4-.7,4.593,4.593,0,0,0,1.1-2.2,58.136,58.136,0,0,0,.9-5.8,5.758,5.758,0,0,1,1.2-3.8,1.643,1.643,0,0,0,.4-1.9c-.9-2.1-.6-3.3,1.1-4.6a7.607,7.607,0,0,1,1.9-1.2c2.1-1.3,4.3-2.6,6.4-3.9,2-1.2,3.9-2.3,5.9-3.4,2.8-1.6,5.6-3.1,8.4-4.6a44.494,44.494,0,0,1,4.8-2.6c1.4-.6,1.7-1,1.2-2.4a27.88,27.88,0,0,1-1.2-8.1c-.3-11.4-.4-22.8.2-34.2.4-7.9.4-15.8.6-25.1.2-4.6.5-10.7.7-16.8.1-2.1.2-4.2.3-6.4a1.986,1.986,0,0,0-2.5-2.1,12.213,12.213,0,0,0-3.8,1.3,78.511,78.511,0,0,1-13.8,6.4c-3.7,1.3-7.3,2.5-10.9,3.9-4.6,1.8-9.1,3.7-13.7,5.6-6.4,2.7-12.7,5.3-19.1,8.1-7.8,3.3-15.6,6.7-23.4,10.1-4.5,2-9,4-13.5,6.1-3.4,1.6-6.8,3.5-10.1,5.2-6.2,3.2-12.4,6.5-18.6,9.7-5.7,2.9-11.4,5.7-16.9,9-2.7,1.7-5.5,3.1-8.2,4.8-1.4.8-2.5,1.9-2.3,3.8.3,3.7.3,7.4.6,11.1.5,7.2,1.1,14.4,1.5,21.6.4,6.1.5,12.3.8,18.4.1,2.5.4,5,.7,7.5.7,5.7,1.4,11.4,2.2,17.2l2.4,19.2c.3,2.7.7,5.4,1,8.1.2,1.2.8,1.6,2,1.1a12.218,12.218,0,0,0,2.8-1.4c5.1-3.4,10.2-6.9,15.4-10.2,2.9-1.9,5.9-3.5,8.8-5.2.3-.2.7-.1,1-.2a2.719,2.719,0,0,1,0,.9c-.4,2.2-.8,4.3-1.3,6.5a97.638,97.638,0,0,0-2.5,15.3c-.2,3.4.1,6.8.2,10.2a.781.781,0,0,0,.8.6c.6,0,.5-.7.6-.8.1-.4.1-9.5.2-12.1s1.7-9.9,2.6-14c.1-.3.3-.5.4-.8.1.3.4.6.4.9.1,1.7.1,3.5.2,5.2.2,4.9.5,9.8.8,14.8a2.513,2.513,0,0,0,.6,1.4c1.5,1.3,4.7,4.2,6.6,5.2s2.8.2,3.1,0l.1-.1c1.6-1,3.2-2.1,4.9-3.1,1.3-.8,2.6-1.6,3.9-2.3.6-.4,1-.1,1,.6,0,.5.1.9.1,1.4.1,2.7.1,5.3.2,8a1.714,1.714,0,0,1-1.1,1.6c-7.1,4.4-14.1,9-20.7,14-4,3-8.3,5.7-12.5,8.4-4.5,2.9-9.1,5.7-13.7,8.6-4.3,2.8-8.6,5.7-12.9,8.5-4.8,3.2-9.6,6.3-14.4,9.6-3.4,2.4-6.8,4.9-10.1,7.3-5.8,4.2-11.7,8.5-17.5,12.7-3.5,2.5-7.1,5-10.6,7.5-.1.1-.3.2-.3.3a.6.6,0,0,0-.1.4.758.758,0,0,0,.4.2,17.91,17.91,0,0,0,2.4-1.2c4.7-3.4,9.2-6.9,14-10.2,8-5.6,16.1-11.1,24.2-16.7,2.6-1.8,5.2-3.6,7.9-5.4,4.3-2.9,8.6-5.7,13-8.5,3.6-2.3,7.1-4.6,10.7-6.9,3.9-2.5,7.9-4.9,11.8-7.4a104.711,104.711,0,0,0,9.7-6.7c4.9-3.8,10.1-7.2,15.3-10.7a24.952,24.952,0,0,1,3.5-2.1c.9-.5,1.3-.3,1.3.7.1,2.7.2,5.3.3,8,0,1.4.1,2.7.1,4.1a1.146,1.146,0,0,0,1,1.3c1.6.3,3.1.6,4.7.8.2,0,.7-.4.7-.6a1.126,1.126,0,0,0-.5-.8,6.638,6.638,0,0,0-2-.6,2.406,2.406,0,0,1-2.1-2.5c-.2-3.5-.4-7-.7-10.5-.1-1.1.4-1.6,1.3-2.2,2.2-1.5,4.4-3,6.5-4.6a94.523,94.523,0,0,1,11.7-8.2c1.1-.7,1.3-.6,1.3.6v10.5c0,2.5,0,5,.1,7.5,0,.5.3,1.2.9,1.1.4-.1,1.1-1.6,1.1-1.9-.1-2.2-.3-4.4-.3-6.6-.1-8.5,0-17-.2-25.5a66.2,66.2,0,0,1,.3-8.9,2.725,2.725,0,0,1,1.7-2.5,28.257,28.257,0,0,1,4-1.7c5.4-1.9,10.7-3.8,16.1-5.6,3.4-1.2,3.3-2,3.7,2.5.4,5,.3,10,.4,15,0,1.6-.2,3.2-.2,4.8,0,2.5.1,5,.2,7.5.2,6.1.5,12.1.7,18.2,0,1.3,0,1.4-1.3,1.7-1.8.4-3.7.7-5.6,1.1-4.3,1-8.6,2-12.8,3-2.1.5-4.1,1-6.2,1.5s-2.2.4-2.3,2.6v.9c.1,3.3.2,6.5.4,9.8l1.5,19.5c.1,1.1.1,2.3.1,3.4-.1,1.5-.5,1.8-2,1.5a8.8,8.8,0,0,1-1.5-.5c-1.2-.4-2.3-.8-3.5-1.1-3.5-.9-7.1-1.8-10.6-2.7-2.7-.7-5.5-1.4-8.1-2.2-5.1-1.7-10.2-3.5-15.2-5.4-2.6-1-5.4-1.7-7.6-3.6a2.044,2.044,0,0,0-1.7-.3c-2.2.8-4.3,1.8-6.6,2.6a2.522,2.522,0,0,0-1.9,2.5c0,1.7.1,3.3.1,5,.1,6,.1,12,.2,18,0,1.7-.2,3.5-.1,5.2.2,3.1.5,6.2.7,9.3.4,5.8.8,11.5,1.3,17.3.2,2.7.5,5.4.7,8.2.1.7.3,1.3,1.1,1.2s.8-.8.7-1.4l-.6-4.5c-.3-4-.7-8-.9-12-.5-8.6-1.4-17.1-1.1-25.7.1-1.6-.1-3.2-.1-4.8-.1-4.6-.1-9.1-.2-13.7v-.5a.675.675,0,0,1,1-.6,11.214,11.214,0,0,1,1.3.5c4.2,1.6,8.3,3.3,12.6,4.7,6,2,12,3.9,18,5.9a41.4,41.4,0,0,1,4.9,1.9,84.936,84.936,0,0,0,16.3,4.9c2.4.4,4.7,1.2,7.1,1.7a1.322,1.322,0,0,1,1.2,1.6v.9a74.942,74.942,0,0,0,.3,11.6c.4,3.2.6,6.3.9,9.5a17.7,17.7,0,0,1,.1,2.3c0,.8-.4,1.1-1.1,1.2-2.7.2-5.4.5-8.2.6-1.3.1-1.3,0-1.3-1.4a1.765,1.765,0,0,0-1.3-1.9,47.038,47.038,0,0,0-5.1-1.2c-2.8-.6-5.7-1-8.5-1.8-5.4-1.5-10.8-3.2-16.1-4.8l-8.1-2.4a20.248,20.248,0,0,0-3.3-.9c-1.8-.3-3,1-3,2.8.1,1.3.1,2.6.1,3.9-.1,4.7-.2,9.4-.2,14.1,0,3.8.2,7.6.3,11.4,0,2.9-.1,5.8-.2,8.6,0,.7.1,1.2.7,1.5.3.1.9.2,1,0a7.581,7.581,0,0,0,.6-1.6c0-.1-.1-.1-.1-.2-.3-2.7-.7-5.4-.9-8.1-.2-4.1-.1-8.2-.1-12.3.1-4.7.2-9.4.4-14.1a13.52,13.52,0,0,1,.5-2.9c.1-.7.5-.8,1.2-.6a88.165,88.165,0,0,1,11.2,3c3,1.1,6.1,1.7,9.2,2.7a106.317,106.317,0,0,0,14.5,3.7,19.656,19.656,0,0,1,4,1.6,1.05,1.05,0,0,1,.5.9c0,.2-.5.4-.9.5-.2.1-.5,0-.7,0h-6.3c-1.1,0-1.3.3-1.4,1.3-.1,1.5-.3,3-.4,4.5-.2,2.4-.3,4.8-.5,7.3-.1,1.1,0,2.1-.1,3.2a154.428,154.428,0,0,0-.1,18c.2,4.7,1,9.4.4,14.1a17.744,17.744,0,0,0,.2,3.2,1.072,1.072,0,0,0,.2.6,1.14,1.14,0,0,0,.6.3c.2,0,.5-.2.5-.3a5.852,5.852,0,0,0,.2-1.3,118.057,118.057,0,0,0-.7-16.8c-.1-1-.2-2-.2-3,.1-6,.2-12,.4-18a71.771,71.771,0,0,1,.6-8c.3-2.6.6-3.1,3.4-3.3,4.2-.2,8.3-.5,12.5-.9,4.5-.4,9.1-1,13.6-1.3,5.3-.3,10.6-.9,15.9-.6a17.7,17.7,0,0,0,2.3-.1c2.4-.1,4.7-.2,7.1-.2,2.5-.1,5,0,7.5-.2a66.7,66.7,0,0,1,13.4.2c1.7.2,1.7.2,1.6,1.9,0,1.4-.2,2.7-.2,4.1-.1,5.6-.2,11.2-.2,16.9,0,6.8,0,13.7.1,20.5,0,5.2.2,10.3-.9,15.4-.1.3-.2.7,0,.9a3.566,3.566,0,0,0,1,1.1c.7.2.8-.5.9-1,.1-1,.1-2,.2-3,.9-6,.6-12.1.5-18.2-.1-2.3.1-4.7.1-7.1a.758.758,0,0,1,.2-.4c.1.1.2.1.3.2.1.4.3.7.4,1.1a180.833,180.833,0,0,1,3.9,22,11.273,11.273,0,0,0,.3,1.8c.1.3.6.7.8.6.4-.1.9-.5.9-.8a6.559,6.559,0,0,0-.1-2c-.8-5.2-1.6-10.5-2.5-15.7a74.278,74.278,0,0,0-2.3-9.3,29.133,29.133,0,0,1-1.9-10.9c.3-5.5.3-11.1.5-16.6.1-2.8-.2-3.4-3.1-3.4-2.6-.1-5.2,0-7.7,0-.5,0-1.2,0-1.2-.7-.1-.7-.1-1.4.7-1.8a8.8,8.8,0,0,1,1.5-.5c.7-.1,1.5-.1,2.3-.2,4.8-.4,9.5-.8,14.3-1.2,3-.2,6.1-.5,9.1-.6,1.5-.1,1.7.2,1.7,1.7.1,5.4.3,10.8.4,16.2,0,2.3.2,4.6.1,6.8a207.075,207.075,0,0,1-2.5,20.8,40.485,40.485,0,0,0-.4,5,4.013,4.013,0,0,0,.3,1.5c0,.2.4.4.5.3a1.276,1.276,0,0,0,.7-.5,2.161,2.161,0,0,0-.1-1.1,20.9,20.9,0,0,1-.1-2.5c.5-3.5,1.1-7,1.8-10.6,0-.2.2-.3.4-.5.1.2.2.3.2.5.3,4.1.7,8.2,1,12.2,0,.3-.1.7.1.9.2.4.6.6.9,1,.2-.3.5-.7.7-1a.3.3,0,0,0,0-.4c-.7-2-.3-4.1-.5-6.1-.4-5.1-.7-10.1-1.2-15.2-.4-4.4,1-8.2,2.8-12,.2-.3.4-.7.6-1l.6-.6c.1.3.3.5.3.8.2,2.3.4,4.7.4,7,0,8.4.7,16.7,1.5,25,.1,1.2.5,1.9,1.1,1.7.9-.4.5-1.1.4-1.8-.3-3-.8-6-1-9-.2-4.1-.1-8.2-.3-12.3-.2-5.2-.4-10.3-.9-15.5s-.9-10.4-1-15.7c0-1.7.1-1.8,1.6-2.3.4-.1.9-.2,1.3-.3,2.7-.6,5.3-1.3,8-1.9,2.9-.7,5.9-1.5,8.8-2.1,3.6-.7,7.2-1.3,10.7-2l19.8-4.2c3.2-.7,6.4-1.3,9.6-1.9,2.8-.5,5.5-1,8.3-1.5,1.1-.2,1.2-.1,1.3,1.2,0,.2.1.5.1.7-.2,4.5-.4,9.1-.6,13.6-.2,5.8-.4,11.5-.6,17.3-.1,2.9,0,5.8.1,8.7.1,3.1.3,6.2.4,9.3.1,1.4,0,2.7.1,4.1,0,.2,1.3.4,1.3.1a49.035,49.035,0,0,0,.4-5.4c-.1-2.7-.4-5.5-.4-8.2,0-4.5.1-9,.1-13.4,0-.2.2-.3.2-.5l.3.3c1.1,2.8,2.6,5.5,3.2,8.5a142.318,142.318,0,0,1,2.7,14.5,7.862,7.862,0,0,0,.8,2.6,1.012,1.012,0,0,0,.7.4,1.275,1.275,0,0,0,.5-.7c.1-.2,0-.4,0-.7-.2-1.4-.4-2.9-.6-4.3-.7-3.7-1.4-7.3-2.1-11a35.081,35.081,0,0,0-2.1-7.2l-1.5-3.6c-.4-1.1-.3-1.3.7-1.7,1.1-.3,2.2-.7,3.3-.9a110.657,110.657,0,0,0,11.1-2.5c1.9-.6,1.9-.5,2,1.5v1.1c0,4.8-1.3,9.3-2.5,13.8a43.473,43.473,0,0,0-1.7,10.8,8.33,8.33,0,0,0,.3,2.2c.1.4,1.3.2,1.5-.1v-.2a27.21,27.21,0,0,1,.6-8.1c.4-2,1.1-3.9,1.7-5.9,0-.1.2-.2.2-.3.1.1.2.2.2.3.3,1.6.7,3.3.9,4.9.3,2.5.4,5,.5,7.5a3.079,3.079,0,0,0,.3,1.3c.1.2.5.3.8.3a.781.781,0,0,0,.4-.4,16.351,16.351,0,0,0,.2-2.2c-.4-6.1-1.1-12.1-1.4-18.2a17.637,17.637,0,0,1,2.7-10.1c.1-.2.3-.3.4-.5,0,.2.1.4.1.6.3,5,.6,10,1,15,.3,4.3.8,8.6,1.2,12.9a3.079,3.079,0,0,0,.3,1.3c.2.2.7.5.9.4.3-.1.5-.5.7-.8.1-.2,0-.4-.1-.7-.6-6-1.2-11.9-1.7-17.9-.4-5.4-.7-10.7-1-16.1-.3-3.9-.7-7.7-.9-11.6-.1-2.1-.2-4.2-.2-6.4,0-1.3.6-1.9,1.9-2.2a5.853,5.853,0,0,1,1.3-.2c3-.5,6-.9,9-1.6,3.8-.9,7.6-2.2,11.4-3.2a127.374,127.374,0,0,0,13.3-4.1,59,59,0,0,1,7.2-2c4.7-1.3,9.4-2.6,14-4,1.9-.6,1.9-.7,1.9,1.3,0,.7-.1,1.4-.1,2.1-.1,3.9-.2,7.9-.2,11.8,0,4.2.1,8.5,0,12.7-.1,4.6-.3,9.1-.4,13.7-.1,3.9-.2,7.7-.2,11.6a2.769,2.769,0,0,0,.1.9,1.724,1.724,0,0,0,.6.6c.2,0,.6-.3.6-.5a18.609,18.609,0,0,0,.4-3.4c.1-6.5.1-12.9.2-19.4a18.108,18.108,0,0,1,.3-2.3c0-.1.1-.3.2-.3a.758.758,0,0,1,.4.2,20.2,20.2,0,0,1,1.1,3.2c.9,3.8,1.8,7.7,2.6,11.5.1.6.3,1.1,1,1s.7-.7.6-1.2c0-.1-.1-.3-.1-.4-.6-3-1.2-6.1-2-9.1-.6-2.3-1.5-4.6-2.2-6.9-.5-1.5-.5-1.6,1.1-2.1,2.7-.9,5.4-1.6,8-2.5,1.3-.4,1.5-.3,1.5,1.3-.1,3.5,0,7-.2,10.5a59.674,59.674,0,0,1-.5,7.3c-.6,3.8-1.5,7.6-2.2,11.4a5.538,5.538,0,0,0-.2,1.8c0,.3,1.1.5,1.1.3.4-1.2.7-2.5,1.2-3.7.2-.6-.1-1.5.8-1.9a13.556,13.556,0,0,1,.2,2c0,.3-.1.6-.1.9-.1.7-.4,1.6.6,1.9.7.2,1-.4,1-1.9V428c0-3.7-.1-7.4,0-11.2a11.152,11.152,0,0,1,.5-3.1,34.635,34.635,0,0,1,3.4-8.2,6.717,6.717,0,0,0,.6-1.2,1.33,1.33,0,0,0-.3-.8c-.2-.1-.7-.1-.8.1a10.15,10.15,0,0,0-1.3,1.8c-.5.9-.9,1.8-1.3,2.7-.1.2-.3.3-.5.5-.1-.2-.4-.5-.4-.7,0-1.7-.1-3.3,0-5,.2-4,.5-8,.7-12,.1-2.7,0-5.5,0-8.2,0-1.1.2-1.1,1.2-.9s2.1.4,3.1.5c1.6.1,1.8.2,1.9,1.9v.9c0,4.4.1,8.8.1,13.2v24.8c0,1.4,0,2.7.1,4.1.1.9.6,1.5,1.2,1.3,1-.2.8-1,.6-1.6a41.917,41.917,0,0,1-.4-10c.1-4.1.4-8.2.3-12.3,0-7.3-.2-14.6-.4-21.9,0-1.8,0-2,1.8-2.2a54.89,54.89,0,0,0,10-2.9,6.469,6.469,0,0,1,1.3-.4c2.2-.3,4.3-.8,6.5-1a46.708,46.708,0,0,0,8.2-2c4-1.2,8-2.3,12.1-3.4,2.3-.6,4.6-1.1,6.9-1.6,3.6-.8,7.1-1.5,10.7-2.2,1.4-.3,1.5-.1,1.4,1.2-.5,4.5-1.2,9-1.7,13.6l-.9,9.3c-.5,5.3-1,10.6-1.4,15.9a2.719,2.719,0,0,0,0,.9c.1.3.4.8.7.8a1.255,1.255,0,0,0,1.1-.6,3.646,3.646,0,0,0,.2-1.5c.1-2.1,0-4.3.2-6.4.4-4.8,1-9.5,1.5-14.2.4-3.5.9-7.1,1.4-10.6.4-3.1.7-6.2,1.3-9.2.7-2.6-.3-4.3-1.9-5.8Z" fill="#181715" fill-rule="evenodd"/>
    <path id="Path_784" data-name="Path 784" d="M571.2,286.5c0,1.1-.3,1.5-1.6,1.3a58.461,58.461,0,0,1-5.7-1.3c-2.8-.7-5.6-1.4-8.4-2-.9-.2-2-.3-2.1-1.4a10.88,10.88,0,0,1,.7-3c0-.2.6-.3.8-.2s.6.4.5.6c-.4,2.2,1.2,2.5,2.7,2.9,2.5.7,4.9,1.5,7.4,2.1,1.5.3,3.1.9,4.6-.1C570.8,284.9,571.2,285.4,571.2,286.5Z" fill="#181715" fill-rule="evenodd"/>
    <path id="Path_785" data-name="Path 785" d="M570.9,328.1c.8.2.8.6.7,1.3s-.4,1-1,1c-.5,0-.7-.3-.8-1.1s.3-1.4,1.1-1.2Z" fill="#181715" fill-rule="evenodd"/>
    <path id="Path_786" data-name="Path 786" d="M566,321.5c-.1.8-1.1.8-1.5.8a.781.781,0,0,1-.8-.8.988.988,0,0,1,.9-1c.3-.1,1.5.1,1.4,1Z" fill="#181715" fill-rule="evenodd"/>
    <path id="Path_787" data-name="Path 787" d="M559.2,268.2c-.1.6-.2.9-.9.8a1.156,1.156,0,0,1-1-1,.6.6,0,0,1,.7-.8C558.4,267.3,559.3,267.6,559.2,268.2Z" fill="#181715" fill-rule="evenodd"/>
    <path id="Path_788" data-name="Path 788" d="M572.6,276.1c-1.1,0-1-.8-1-1.4,0-.5.7-.8,1-.8.6-.1.9.4.8,1,0,.6.3,1.2-.8,1.2Z" fill="#181715" fill-rule="evenodd"/>
    <path id="Path_789" data-name="Path 789" d="M479.8,258.7a.961.961,0,0,1,.1-.7c-.1-2,1.5-.6,1.5-.2,0,1.5,1,1.9,2.3,2,1.7.1,3.5.2,5.2.4a8.715,8.715,0,0,1,4.4,1.1c.2.1.3.6.3.7a1.012,1.012,0,0,1-.7.4c-3.6-1.2-7.4-.5-11-1.2-2-.3-2.2-.5-2.1-2.5Z" fill="#181715" fill-rule="evenodd"/>
    <path id="Path_790" data-name="Path 790" d="M482.3,245.6c.7-.1.7.6.8.9.1.5-.1.9-.7.9-.3,0-.8-.4-.8-.6.1-.3-.1-1.1.7-1.2Z" fill="#181715" fill-rule="evenodd"/>
    <path id="Path_791" data-name="Path 791" d="M495.6,248.8c0,.5-.8.6-1.1.5-.2-.1-.6-.5-.5-.8,0-.2.2-1,.8-1a1.287,1.287,0,0,1,.8,1.3Z" fill="#181715" fill-rule="evenodd"/>
    <path id="Path_792" data-name="Path 792" d="M454.9,238.7c-1.9,0-2-.1-2.3-1.8a13.8,13.8,0,0,1-.3-2,1.265,1.265,0,0,1,.7-1c.2-.1.8.3,1,.6.4.6.5,1.6,1.1,1.9a6.1,6.1,0,0,0,2.7.1c1.1,0,2.1-.2,3.2-.2.2,0,.5.3.7.4-.2.2-.3.6-.5.6-2.2.5-4.3.9-6.3,1.4Z" fill="#181715" fill-rule="evenodd"/>
    <path id="Path_793" data-name="Path 793" d="M453,223.6c0,.7-.6,1.5-1.2,1.4a1.078,1.078,0,0,1-1.1-1.2,1.2,1.2,0,0,1,1-1.3c.7.1,1.3.6,1.3,1.1Z" fill="#181715" fill-rule="evenodd"/>
    <path id="Path_794" data-name="Path 794" d="M478.9,221.8a1.322,1.322,0,0,1-1.3,1.5,1.208,1.208,0,0,1-.7-.7c-.2-.8.4-1.6,1-1.5A6.071,6.071,0,0,1,478.9,221.8Z" fill="#181715" fill-rule="evenodd"/>
    <path id="Path_795" data-name="Path 795" d="M608.1,274.1c0,1.1-.3,1.4-1.3,1.3-1.5-.1-3-.3-4.5-.5a.824.824,0,0,1-.7-1c.1-.3.5-.7.7-.7.7,0,1.5.1,2.2.1s1.4.2,2.1-.5c.7-.8,1.3-.5,1.4.5a2.2,2.2,0,0,1,.1.8Z" fill="#181715" fill-rule="evenodd"/>
    <path id="Path_796" data-name="Path 796" d="M598.4,260.7c.2.6-.5,1.2-1.1,1.1-.5-.1-1.1-.3-.9-1a1.327,1.327,0,0,1,1.1-.8.888.888,0,0,1,.9.7Z" fill="#181715" fill-rule="evenodd"/>
    <path id="Path_797" data-name="Path 797" d="M610.2,265.1c-.8,0-.8-.7-.8-1a1.326,1.326,0,0,1,.6-1c.5-.2,1.4.5,1.2.9S611,265.1,610.2,265.1Z" fill="#181715" fill-rule="evenodd"/>
    <path id="Path_798" data-name="Path 798" d="M531.6,303.3a.894.894,0,0,1-1,1.1,12.928,12.928,0,0,1-2.1-.7c-3.6-2-7.6-3-11.5-4.1-1.9-.5-2-.7-1.6-2.7.1-.5,0-2.5.9-2.3.9.1.9.6.8.9-.4,2,.9,2.6,2.5,3.1a61.662,61.662,0,0,1,9.3,3.6,11.7,11.7,0,0,0,2,.5,3.735,3.735,0,0,1,.7.6Z" fill="#181715" fill-rule="evenodd"/>
    <path id="Path_799" data-name="Path 799" d="M517.1,284.3c.6-.1,1.3.6,1.3,1.3,0,.6-.7,1.2-1.2,1a1.2,1.2,0,0,1-.9-1.4c.1-.4.2-.8.8-.9Z" fill="#181715" fill-rule="evenodd"/>
    <path id="Path_800" data-name="Path 800" d="M531.7,292.2c0,1-.4.7-.8.8-.6.1-.9-.4-.9-1s.4-1.1,1-1C531.3,291.1,531.7,291.2,531.7,292.2Z" fill="#181715" fill-rule="evenodd"/>
    <path id="Path_801" data-name="Path 801" d="M617,325.8a4.308,4.308,0,0,1-1,.7c-.5.1-1-.5-1-1.1a.9.9,0,0,1,1-1C616.6,324.3,617,324.9,617,325.8Z" fill="#181715" fill-rule="evenodd"/>
    <path id="Path_802" data-name="Path 802" d="M609.2,315a1.087,1.087,0,0,1,1.2,1.3c-.1.6-.6.8-1.2.7C608.6,317,608.3,315.2,609.2,315Z" fill="#181715" fill-rule="evenodd"/>
    <path id="Path_803" data-name="Path 803" d="M309.9,274.5c-.2.2-.5.6-.8.6a.965.965,0,0,1-1.2-1,1.445,1.445,0,0,1,.7-1C309.1,272.8,309.8,273.6,309.9,274.5Z" fill="#181715" fill-rule="evenodd"/>
    <path id="Path_804" data-name="Path 804" d="M327.6,268.4c0,1-.7,1.9-1.4,1.7a1.447,1.447,0,0,1-.8-.9c-.1-.6.6-1.5,1.1-1.4a2.268,2.268,0,0,1,1.1.6Z" fill="#181715" fill-rule="evenodd"/>
    <path id="Path_805" data-name="Path 805" d="M306.7,288.4c1.6.6,3.3.6,4.9,1.2-.2.4-.3.9-.5,1.3-1.5-.8-3.2-1.2-4.7-2.1.1,0,.2-.2.3-.4Zm6,.4a19.771,19.771,0,0,0-2.9-1.4c-.9-.2-2-.6-2.7-.7-.6-.1-.8.4-1,.5l-.1.1-.3.6a8.794,8.794,0,0,0-.6,1,.765.765,0,0,0,.2.9c1.8,1.3,4.1,1.6,5.9,2.8a.608.608,0,0,0,.9-.4c.3-.9.6-1.7.9-2.6C313,289.2,312.9,288.9,312.7,288.8Z" fill="#181715"/>
  </g>
</svg>
