<svg xmlns="http://www.w3.org/2000/svg" width="1191.264" height="340.1" viewBox="0 0 1191.264 340.1">
  <g id="community" transform="translate(-372.535 -334.541)">
    <g id="layer1" transform="translate(694.455 334.541)">
      <path id="path4" d="M1758.927,732.251a66.358,66.358,0,0,0-20.525,4.082,55.809,55.809,0,0,0-18.1,11.717,45.5,45.5,0,0,0-13.437,30.715c-.09,2.041.067,5.476.673,13.8,4.912,67.868,9.2,148.081,11.552,216.086.538,15.093.763,18.724,1.368,21.785,4.262,21.628,24.54,38.507,50.022,41.647,2.781.334,57.648.334,77.388,0,50.987-.9,93.4-2.316,141.093-4.75,19.493-1,42.754-2.355,47.218-2.767a51.28,51.28,0,0,0,44.616-37.663c1.368-5.436,1.323-3.847,1.368-40.627.022-18.508.112-35.995.2-38.86s.247-10.363.359-16.682c.471-24.023,1.458-54.287,2.243-68.692.224-3.866.471-8.773,1.234-23.552.426-8.184,1.75-29.125,2.355-37.094.538-7.026.561-8.793.112-12.5a42.122,42.122,0,0,0-8.614-21.1c-7.941-10.52-19.672-17.487-33.782-20.039-4.06-.746-5.7-.864-22.656-1.708-27.725-1.393-57.11-2.964-94.66-5.1-68.169-3.866-129.542-7.1-158.029-8.341C1762.4,732.251,1760.9,732.192,1758.927,732.251Zm15.253,27.222c3.544.157,14.311.648,18.955.9,6.37.334,11.193.589,14.917.785,1.974.118,6.124.334,9.2.491,3.1.157,7.133.393,8.973.491,1.862.118,5.787.334,8.748.491s6.954.373,8.861.491,5,.294,6.841.392c1.862.1,4.89.275,6.729.393,1.862.118,5.787.334,8.748.491s6.909.373,8.748.491c1.862.1,5.832.334,8.86.491s7.111.373,9.085.491c4.576.236,9.915.53,15.029.785a95.052,95.052,0,0,1,9.758.707c10.027,1.374,18.618,7.909,21.848,16.623,1.391,3.709,1.66,7.36,1.077,14.17-.471,5.554-1.525,24.513-1.951,34.542-.785,19.411-.987,28.458-1.122,52.5-.135,23.139-.2,26.456-.561,28.066a26.936,26.936,0,0,1-18.394,20.1c-3.163,1-5.115,1.217-17.317,1.884-1.952.118-5.115.294-7.043.392-1.907.118-6.281.334-9.69.491s-8.075.393-10.363.491c-26.693,1.276-61.507,2.041-86.024,1.9-15.41-.078-14.356,0-19.067-1.3-7.515-2.061-14.446-7.4-17.923-13.856-2.557-4.691-2.849-6.437-3.275-19.626-.135-4-.269-8.361-.336-9.715s-.224-4.848-.336-7.752c-.494-11.442-.9-20.8-1.122-25.024-.763-14.8-1.3-24.808-1.57-29.145-.112-2.061-.381-6.3-.561-9.421-.179-3.14-.426-7.242-.561-9.126s-.381-5.77-.561-8.636c-.516-8.184-.83-12.561-1.256-17.664a19.077,19.077,0,0,1,.135-5.692,31.556,31.556,0,0,1,1.054-4.612c3.32-9.813,12.719-16.6,24.248-17.526A53.661,53.661,0,0,1,1774.18,759.473Z" transform="translate(-1706.84 -732.231)" fill="#ffffa9"/>
    </g>
    <g id="layer2" transform="translate(372.535 355.449)">
      <path id="path2" d="M1249.73,1995.807c-16.442,1.57-29.094,13.908-31.314,30.462a62.051,62.051,0,0,0-.09,11.35c2.467,35.217,5.989,109.4,7.627,160.833.493,15.769.538,16.644,1.144,19.762a38,38,0,0,0,26,28.667c4.957,1.548,4.912,1.526,20.413,1.638,23.127.18,54.418-.426,85.015-1.615,28.892-1.144,71.668-3.656,76.02-4.486a33.575,33.575,0,0,0,18.685-11.283,41.046,41.046,0,0,0,8.3-17.272c.449-2.109.471-3.163.628-30.664.112-15.679.292-34.455.426-41.722.606-31.2,1.929-64.6,3.881-96.051.426-7.268-.292-12.27-2.6-17.7a33,33,0,0,0-7.649-11.193,33.932,33.932,0,0,0-19.627-9.735c-.92-.135-10.318-.763-20.861-1.368-10.543-.628-29.43-1.794-41.947-2.58-65.612-4.195-82.234-5.226-110.116-6.729-11.081-.606-11.014-.606-13.93-.314Zm19.964,20.5c11.507.651,20.345,1.167,22.431,1.346,2.4.2,38.941,2.512,51.144,3.252,6.931.4,11.889.808,12.786,1.01a18.145,18.145,0,0,1,12.225,9.533,20.243,20.243,0,0,1,1.929,11.507c-1.144,14.625-1.974,40.04-2.266,69.918-.157,17.272-.179,17.878-.651,19.4-2.064,6.842-6.864,11.777-12.921,13.324-1.817.449-7.828.92-21.646,1.7-20.345,1.144-34.342,1.548-54.06,1.548l-17.833.022-1.907-.65a20.184,20.184,0,0,1-8.255-5.07,19.251,19.251,0,0,1-5.182-9.2c-.426-1.66-.516-3.163-.808-11.889q-1.379-41.689-3.611-78.173c-.336-5.608-.516-10.094-.426-11.081a18.269,18.269,0,0,1,14.939-16.734C1257.895,2015.681,1258.455,2015.681,1269.694,2016.309Z" transform="translate(-1016.27 -1980.066)" fill="#ffd4aa" opacity="0.745"/>
      <path id="path4-6" d="M3907.782,437.883a29.42,29.42,0,0,0-10.2,2.32,26.717,26.717,0,0,0-15.68,24.11c-.044,1.16.033,3.111.334,7.84,2.442,38.563,4.572,84.141,5.743,122.782.268,8.576.379,10.639.68,12.379a29.183,29.183,0,0,0,24.869,23.664c1.383.19,28.66.19,38.474,0,25.348-.513,46.436-1.316,70.145-2.7,9.691-.569,21.256-1.338,23.475-1.572a24.6,24.6,0,0,0,15.256-8.018,30.693,30.693,0,0,0,6.925-13.382c.68-3.089.658-2.186.68-23.084.011-10.516.056-20.453.1-22.081s.123-5.888.178-9.479c.234-13.65.725-30.846,1.115-39.031.111-2.2.234-4.985.613-13.382.212-4.65.87-16.549,1.171-21.077a34.067,34.067,0,0,0,.055-7.1,26.64,26.64,0,0,0-21.077-23.374c-2.018-.424-2.833-.491-11.263-.97-13.784-.792-28.392-1.684-47.061-2.9-33.891-2.2-64.4-4.037-78.565-4.74C3909.51,437.883,3908.763,437.85,3907.782,437.883Zm7.583,15.468c1.762.089,7.115.368,9.423.513l7.416.446c.981.067,3.044.19,4.572.279s3.547.223,4.461.279,2.877.19,4.349.279,3.457.212,4.405.279,2.487.167,3.4.223,2.431.156,3.346.223,2.877.19,4.349.279,3.435.212,4.349.279,2.9.19,4.405.279,3.535.212,4.516.279c2.275.134,4.929.3,7.472.446a41.47,41.47,0,0,1,4.851.4,13.88,13.88,0,0,1,10.862,9.446c.691,2.108.825,4.182.535,8.052-.234,3.156-.758,13.929-.97,19.627-.39,11.029-.491,16.17-.558,29.831-.067,13.148-.1,15.033-.279,15.947a15.627,15.627,0,0,1-3.178,7.081,12.966,12.966,0,0,1-5.966,4.338c-1.572.569-2.543.691-8.609,1.071-.97.067-2.543.167-3.5.223s-3.123.19-4.818.279-4.015.223-5.152.279c-13.271.725-30.578,1.16-42.767,1.082-7.661-.045-7.137,0-9.479-.736a15.321,15.321,0,0,1-8.91-7.873c-1.271-2.665-1.416-3.658-1.628-11.152-.067-2.275-.134-4.751-.167-5.52s-.111-2.755-.167-4.405c-.245-6.5-.446-11.821-.557-14.219-.379-8.408-.647-14.1-.781-16.56-.056-1.171-.189-3.58-.279-5.353s-.212-4.115-.279-5.186-.19-3.279-.279-4.907c-.257-4.65-.413-7.137-.625-10.037a12.348,12.348,0,0,1,.067-3.234,20.074,20.074,0,0,1,.524-2.621,13.767,13.767,0,0,1,12.055-9.959,23.36,23.36,0,0,1,3.591.022Z" transform="translate(-3077.476 -419.383)" fill="#ffffa9"/>
      <path id="path2-6" d="M3654.632,1066.063a17.235,17.235,0,0,0-15.568,15.144,30.856,30.856,0,0,0-.045,5.643c1.227,17.508,2.978,54.387,3.792,79.959.245,7.84.267,8.275.568,9.825a18.891,18.891,0,0,0,12.925,14.252c2.465.77,2.442.758,10.148.814,11.5.089,27.054-.212,42.265-.8,14.364-.569,35.63-1.818,37.794-2.23a16.691,16.691,0,0,0,9.289-5.609,20.4,20.4,0,0,0,4.126-8.587c.223-1.048.234-1.572.312-15.245.056-7.8.145-17.129.212-20.743.3-15.512.959-32.117,1.929-47.752a18.046,18.046,0,0,0-1.293-8.8,16.416,16.416,0,0,0-3.8-5.565,16.87,16.87,0,0,0-9.758-4.84c-.457-.067-5.13-.379-10.371-.68s-14.631-.892-20.854-1.283c-32.619-2.085-40.883-2.6-54.744-3.346C3656.049,1065.918,3656.082,1065.918,3654.632,1066.063Zm9.925,10.193c5.721.323,10.115.58,11.152.669,1.193.1,19.36,1.249,25.427,1.617,3.446.2,5.91.4,6.356.5a9.022,9.022,0,0,1,6.078,4.74,10.065,10.065,0,0,1,.959,5.721c-.569,7.271-.982,19.906-1.126,34.76-.078,8.587-.089,8.888-.323,9.646a9.311,9.311,0,0,1-6.424,6.624c-.9.223-3.892.457-10.761.848-10.115.569-17.074.769-26.876.769l-8.865.011-.948-.323a10.037,10.037,0,0,1-4.1-2.52,9.569,9.569,0,0,1-2.576-4.572c-.212-.825-.257-1.572-.4-5.911q-.686-20.726-1.8-38.864c-.167-2.788-.257-5.018-.212-5.509a9.083,9.083,0,0,1,7.427-8.319c1.149-.2,1.428-.2,7.015.112Z" transform="translate(-2865.02 -1022.045)" fill="#ffd4aa" opacity="0.745"/>
      <path id="path6-3" d="M4599.752,355.538c-2.944.045-11.955.1-20.018.123-10.461.033-14.843.078-15.278.178a11.855,11.855,0,0,0-6.312,3.513,14.424,14.424,0,0,0-4.015,7.427c-.257,1.126-.335,7.717-.167,14.553.066,2.755.167,7.951.234,11.542s.223,9.836.345,13.884.291,10.115.379,13.494c.268,9.936.479,15.077.658,15.891a14.056,14.056,0,0,0,9.29,10.137c1.717.58,1.984.591,11.91.613,8.71.022,12.077-.045,20.687-.379,6.981-.268,22.538-1.3,28.66-1.9a11.1,11.1,0,0,0,6-2.23,17.763,17.763,0,0,0,3.345-3.6,17.172,17.172,0,0,0,2.2-5.386c.212-.948.469-7.4.837-20.564.055-2.119.156-5.632.223-7.806.279-9.869.357-12.468.446-16.17.056-2.175.156-5.241.223-6.8.346-7.951.457-10.394.569-12.39.212-3.569-.1-5.431-1.283-7.851a11.475,11.475,0,0,0-7.371-6.055l-1.115-.3-12.546-.011c-6.9,0-14.955.033-17.9.089Zm-23.921,10.516c1.316.089,3.5.268,4.852.39s3.033.268,3.735.335,1.684.156,2.175.223,1.394.156,2.007.212c2.074.212,6.569.68,7.639.792.58.067,2.677.268,4.651.446s3.9.413,4.293.5a6.661,6.661,0,0,1,4.617,4.438c.379,1.126.39,1.673.179,8.721-.079,2.7-.156,9.869-.168,15.947l-.022,11.04-.3.892a11.689,11.689,0,0,1-1.572,2.933,8.8,8.8,0,0,1-2.241,1.595,7.171,7.171,0,0,1-2.375.546,67.4,67.4,0,0,1-7.227.546c-2.8.1-4.36.1-8.977-.045-5.23-.145-15.211-.769-16.114-1a9.9,9.9,0,0,1-3.368-1.784,7.77,7.77,0,0,1-2.1-3.189c-.3-.97-.312-1.093-.558-6.178-.089-1.907-.223-4.26-.278-5.241s-.19-3.011-.279-4.516c-.256-4.026-.446-6.914-1.07-15.724-.323-4.494-.323-6.4-.011-7.4a6.959,6.959,0,0,1,4.4-4.55,9.68,9.68,0,0,1,3.2-.145c1.383.033,3.591.134,4.907.223Z" transform="translate(-3559.096 -355.449)" fill="#ffaaf3" opacity="0.755"/>
      <path id="path8-8" d="M4993.529,815.546c-1.372.045-6.179.223-14.554.546-2.331.089-5.119.212-6.189.279s-3.056.156-4.4.223-4.037.19-5.966.279-4.595.223-5.911.279c-9.111.435-17.006.6-24.8.524-3.735-.034-7.025-.011-7.639.045a19.681,19.681,0,0,0-11.587,5.052,11.475,11.475,0,0,0-3.356,5.2,18.727,18.727,0,0,0-.9,5.464c-.123,1.628-.3,3.9-.4,5.074-.167,2.108-1.438,12.1-2.275,17.843-.245,1.651-.613,4.26-.836,5.8-.458,3.167-.569,3.892-1.561,9.925-.39,2.386-.77,4.751-.836,5.241s-.469,3.145-.893,5.91-.87,5.922-1,7.026c-.469,4.037-.68,5.821-.848,7a10.6,10.6,0,0,0,1.394,7.606c2.442,3.959,6.925,6.591,12.691,7.427a23.515,23.515,0,0,0,5.052.167c1.874-.034,4.327-.112,5.464-.179s3.825-.178,5.966-.279c4.739-.212,9.713-.468,11.821-.613,3.345-.234,10.026-.669,12.1-.781,1.193-.067,2.353-.145,2.564-.167s1.35-.112,2.51-.167,4.583-.29,7.583-.513,6.657-.457,8.107-.546c3.189-.2,7.706-.535,11.186-.836,1.416-.123,3.791-.323,5.3-.446,8.341-.669,13.583-1.182,14.9-1.439a17.954,17.954,0,0,0,7.539-4,17.1,17.1,0,0,0,4.215-6.624,16.658,16.658,0,0,0,.334-5.721c-.056-.558-.156-1.885-.223-2.955s-.19-2.955-.279-4.182-.212-3.29-.278-4.572-.19-3.6-.279-5.13-.246-5.152-.334-8.029-.2-5.621-.224-6.078-.078-7.583-.111-15.836c-.044-8.921-.111-15.278-.178-15.691a13.757,13.757,0,0,0-4.1-7.628,15.109,15.109,0,0,0-8.431-4.3c-.893-.167-6.947-.268-10.315-.19Zm-20.554,16.705a8.9,8.9,0,0,1,2.989.937,7.074,7.074,0,0,1,1.84,1.472,7.424,7.424,0,0,1,2.2,3.847c.245.937.268,1.26.312,4.606.056,3.1.112,4.862.346,10.394.055,1.383.278,5.141.323,5.643.067.68.379,6.646.49,9.356.179,4.438-.033,10.605-.423,11.966a8.184,8.184,0,0,1-3.781,4.472,13.729,13.729,0,0,1-6.044,1.461,100.309,100.309,0,0,1-12.769.134c-1.405-.078-3.468-.19-4.573-.245s-3.212-.2-4.684-.323-3.356-.279-4.182-.346c-1.583-.123-4.817-.435-7.36-.714-.825-.1-2.431-.245-3.568-.346s-2.788-.234-3.68-.335c-3.357-.335-5.654-1.327-7.528-3.245a7.911,7.911,0,0,1-1.9-3.223c-.379-1.427-.334-15.8.067-21.3.055-.859.156-2.364.211-3.346.1-2.041.714-8.007,1-9.758.056-.335.2-1.294.323-2.13a7.761,7.761,0,0,1,1.439-4.059,10.335,10.335,0,0,1,6.847-4.505c.457-.056,4.784-.145,9.848-.19,4.973-.034,12.624-.123,17.006-.2,8.286-.123,14.051-.134,15.244-.022Z" transform="translate(-3827.124 -767.149)" fill="#aab1ff" opacity="0.777"/>
      <path id="path10-8" d="M4539.306,1042.258c-2.386.044-5.8.134-7.583.2s-5.843.2-9.033.29-7.929.268-10.539.39-5.666.245-6.8.279c-2.074.067-7.918.29-13.1.5-2.966.123-8.7.279-14.107.4-1.807.045-7.829.078-13.382.089-10.985.022-10.762.011-13.416.68a18.716,18.716,0,0,0-4.26,1.561,21.945,21.945,0,0,0-6.546,4.606,19.347,19.347,0,0,0-5.331,10.137c-.379,1.829-.356,1.26-.669,14.921-.145,6.278-.446,15.189-.892,26.04-.19,4.505-.457,11.308-.614,15.111s-.323,8.063-.39,9.479c-.357,8.152-.758,23.608-.8,31.169-.033,5.308-.022,5.542.547,7.751,1.984,7.706,8.643,13.683,17.04,15.311.747.145,2.442.178,10.482.212,23.018.123,50.15-.714,76.669-2.364,13.025-.814,14.62-.959,16.349-1.461a19,19,0,0,0,10.293-7.338,22.473,22.473,0,0,0,3.624-7.672c.658-2.387.646-2.152.68-18.546.022-8.286.089-17.687.156-20.91.29-13.761.357-16.349.569-22.861.123-3.769.268-7.918.334-9.2s.234-5.119.391-8.52c.279-6.156.558-11.408.9-16.85.29-4.494.145-6.814-.558-9.412a19.128,19.128,0,0,0-12.78-13.326c-2.375-.68-2.732-.714-8.029-.736-2.666-.011-6.8.022-9.2.067Zm-73.324,13.873c2.744.089,4.628.167,6.859.279,1.1.056,2.665.134,3.457.167s1.773.089,2.175.112c1.315.089,2.709.167,5.074.279,1.294.067,3.123.167,4.07.223s2.933.189,4.4.279,3.48.223,4.461.279,2.164.134,2.621.167c1.55.1,6.279.39,8.531.5,5.074.268,6.066.435,7.784,1.294a9.8,9.8,0,0,1,5.107,6.7c.39,1.94.334,2.677-1.015,12.691-.2,1.55-.558,4.282-.893,6.859-.189,1.438-.39,3-.446,3.457-.212,1.561-.357,2.732-.446,3.68-.056.524-.178,1.595-.278,2.4-.859,7.282-1.271,12.245-1.562,18.8-.167,3.8-.29,4.74-.792,6.089a12.074,12.074,0,0,1-4.684,5.9,6.871,6.871,0,0,1-3.167,1.216c-.7.156-1.829.4-2.509.558-1.35.3-4.171.87-5.3,1.048-.4.067-1.528.245-2.51.4s-2.386.39-3.122.5c-1.193.2-2.687.39-5.3.669-.457.045-1.338.145-1.951.212-2.409.257-4.684.457-7.193.625-1.438.1-3.323.223-4.182.279-2.956.2-15.356.39-16.427.256a12.528,12.528,0,0,1-5.431-2.23,11.605,11.605,0,0,1-3.78-5.308c-.479-1.483-.6-2.665-.691-6.825-.034-2.152-.078-4.126-.1-4.4s-.056-4.271-.112-8.888c-.111-10.193.034-17.5.5-24.679.056-.892.123-2.175.167-2.844.089-1.729.167-2.766.279-3.736.056-.457.134-1.193.167-1.617s.089-.9.111-1.059.134-1.06.223-2.007a12.665,12.665,0,0,1,1.461-5.364,18.078,18.078,0,0,1,4.717-5.464c.223-.123.658-.379.959-.558a10.593,10.593,0,0,1,2.955-.992,46.289,46.289,0,0,1,5.8.056Z" transform="translate(-3464.424 -1002.188)" fill="#abfcff" opacity="0.75"/>
      <path id="path12-6" d="M3771.131,554.508a12.583,12.583,0,0,0-6.279,3.011,14.527,14.527,0,0,0-2.13,2.855c-.926,1.84-1.148,2.955-1.506,7.695-.156,2.052-.491,5.386-.736,7.416s-.513,4.26-.6,4.963c-.323,2.676-1.193,9.211-1.628,12.156-1.673,11.442-2.888,21.1-2.888,22.85a9.93,9.93,0,0,0,.613,2.944,11.185,11.185,0,0,0,6.323,5.91c1.84.747,2.944.926,8.286,1.349,2.7.223,6.413.547,8.252.736,7.45.747,16.951,1.684,18.791,1.84,1.07.089,2.509.223,3.178.279,12.021,1.037,22.961,1.294,25.036.58a8.986,8.986,0,0,0,4.605-3.5,11.39,11.39,0,0,0,1.974-6.658c0-2.308-.68-10.182-2.342-27.445-.836-8.62-1.684-19.783-1.84-24.255-.044-1.048-.145-2.375-.245-2.955-.77-4.873-4.249-8.743-8.509-9.479-1.461-.245-6.6-.312-24.088-.3-9.847.011-19.125-.011-20.631-.056a21.166,21.166,0,0,0-3.635.067Zm30.511,7.327c2.286.48,3.881,2.42,4.227,5.13.056.457.134,2.554.167,4.673.078,4.561.246,8.81.457,11.152.179,1.985.279,7.985.179,10.382-.123,2.855-.2,3.379-.636,4.293a5.891,5.891,0,0,1-3.535,2.955,43.615,43.615,0,0,1-9.535.457c-.9-.067-2.331-.156-3.189-.2s-1.595-.078-1.673-.1-.8-.1-1.628-.167c-1.84-.145-4.338-.413-5.911-.613-.646-.089-2.253-.256-3.568-.39a29.969,29.969,0,0,1-3.067-.4,6.316,6.316,0,0,1-4.729-4.606c-.156-.758-.167-9.267-.011-13.449a114.261,114.261,0,0,1,.9-11.654c.312-2.476.323-2.52.813-3.513a7,7,0,0,1,3.915-3.569,45.88,45.88,0,0,1,6.133-.234c3.067-.045,7.283-.111,9.368-.145C3797.862,561.7,3801.007,561.7,3801.643,561.835Z" transform="translate(-2955.752 -509.779)" fill="#98fb98" opacity="0.706"/>
      <path id="path4-6-6" d="M641.4,2482.152a29.419,29.419,0,0,0-10.2,2.32,26.718,26.718,0,0,0-15.68,24.11c-.045,1.16.034,3.111.335,7.84,2.442,38.563,4.572,84.141,5.743,122.782.268,8.576.379,10.639.68,12.379a29.183,29.183,0,0,0,24.869,23.664c1.383.19,28.66.19,38.474,0,25.348-.513,46.436-1.316,70.145-2.7,9.691-.568,21.255-1.338,23.475-1.572a24.6,24.6,0,0,0,15.256-8.018,30.694,30.694,0,0,0,6.925-13.382c.68-3.089.658-2.186.68-23.084.011-10.517.056-20.453.1-22.081s.123-5.888.178-9.479c.234-13.65.725-30.846,1.115-39.031.112-2.2.234-4.985.613-13.382.212-4.65.87-16.549,1.171-21.077a34.039,34.039,0,0,0,.056-7.1,26.64,26.64,0,0,0-21.077-23.374c-2.018-.424-2.833-.491-11.263-.97-13.784-.792-28.393-1.684-47.061-2.9-33.89-2.2-64.4-4.037-78.565-4.739-4.238-.2-4.985-.234-5.966-.2Zm7.583,15.468c1.762.089,7.115.368,9.423.513l7.416.446c.981.067,3.044.189,4.572.279s3.546.223,4.461.279,2.877.19,4.349.279,3.457.212,4.4.279,2.487.167,3.4.223,2.431.156,3.346.223,2.877.189,4.349.279,3.435.212,4.349.279,2.9.189,4.405.279,3.535.212,4.516.279c2.275.134,4.929.3,7.472.446a41.5,41.5,0,0,1,4.851.4,13.88,13.88,0,0,1,10.862,9.446c.691,2.108.825,4.182.535,8.052-.234,3.156-.758,13.929-.97,19.627-.39,11.029-.491,16.17-.558,29.831-.067,13.148-.1,15.033-.279,15.947a15.629,15.629,0,0,1-3.178,7.081,12.969,12.969,0,0,1-5.966,4.338c-1.572.569-2.543.691-8.609,1.071-.97.067-2.543.167-3.5.223s-3.122.19-4.818.279-4.015.223-5.152.279c-13.271.725-30.578,1.16-42.767,1.082-7.661-.045-7.137,0-9.479-.736a15.322,15.322,0,0,1-8.91-7.873c-1.271-2.666-1.416-3.658-1.628-11.152-.067-2.275-.134-4.751-.167-5.52s-.112-2.755-.167-4.405c-.245-6.5-.446-11.821-.558-14.219-.379-8.408-.647-14.1-.781-16.561-.056-1.171-.19-3.58-.279-5.353s-.212-4.115-.279-5.186-.19-3.279-.279-4.907c-.257-4.65-.413-7.137-.624-10.037a12.368,12.368,0,0,1,.067-3.234,20.119,20.119,0,0,1,.524-2.621,13.767,13.767,0,0,1,12.055-9.958,23.321,23.321,0,0,1,3.591.022Z" transform="translate(-561.004 -2417.699)" fill="#ffffa9"/>
      <path id="path2-6-0" d="M388.252,3110.331a17.236,17.236,0,0,0-15.568,15.144,30.853,30.853,0,0,0-.045,5.643c1.227,17.509,2.978,54.388,3.792,79.959.245,7.84.268,8.275.569,9.825a18.89,18.89,0,0,0,12.925,14.252c2.465.77,2.442.758,10.148.814,11.5.089,27.054-.212,42.265-.8,14.364-.569,35.63-1.818,37.794-2.23a16.691,16.691,0,0,0,9.289-5.609,20.407,20.407,0,0,0,4.126-8.587c.223-1.048.234-1.572.312-15.245.056-7.795.145-17.129.212-20.742.3-15.512.959-32.117,1.929-47.752a18.041,18.041,0,0,0-1.294-8.8,16.412,16.412,0,0,0-3.8-5.565,16.871,16.871,0,0,0-9.758-4.84c-.457-.067-5.13-.379-10.371-.68s-14.631-.892-20.854-1.282c-32.619-2.085-40.883-2.6-54.744-3.346-5.509-.3-5.476-.3-6.925-.156Zm9.925,10.193c5.721.324,10.115.58,11.152.669,1.193.1,19.36,1.249,25.426,1.617,3.446.2,5.91.4,6.357.5a9.021,9.021,0,0,1,6.078,4.74,10.063,10.063,0,0,1,.959,5.721c-.569,7.271-.981,19.906-1.126,34.76-.078,8.587-.089,8.888-.323,9.646a9.311,9.311,0,0,1-6.423,6.624c-.9.223-3.892.457-10.762.848-10.115.569-17.073.77-26.876.77l-8.866.011-.948-.324a10.033,10.033,0,0,1-4.1-2.52,9.571,9.571,0,0,1-2.576-4.572c-.212-.825-.257-1.573-.4-5.911q-.686-20.725-1.8-38.864c-.167-2.788-.256-5.019-.212-5.509a9.083,9.083,0,0,1,7.427-8.319c1.149-.2,1.427-.2,7.014.111Z" transform="translate(-372.535 -2945.829)" fill="#ffd4aa" opacity="0.745"/>
      <path id="path8-8-3" d="M1727.148,2859.814c-1.372.045-6.178.223-14.553.546-2.331.089-5.119.212-6.189.279s-3.056.156-4.405.223-4.037.189-5.966.279-4.595.223-5.911.279c-9.111.435-17.006.6-24.8.524-3.736-.033-7.026-.011-7.639.045a19.679,19.679,0,0,0-11.587,5.052,11.476,11.476,0,0,0-3.357,5.2,18.736,18.736,0,0,0-.9,5.464c-.123,1.628-.3,3.9-.4,5.074-.167,2.107-1.439,12.1-2.275,17.843-.245,1.65-.613,4.26-.836,5.8-.457,3.167-.569,3.892-1.561,9.925-.39,2.386-.769,4.751-.836,5.241s-.469,3.145-.892,5.911-.87,5.921-1,7.026c-.468,4.037-.68,5.821-.848,7a10.6,10.6,0,0,0,1.394,7.606c2.442,3.959,6.925,6.591,12.691,7.427a23.5,23.5,0,0,0,5.052.167c1.874-.034,4.327-.112,5.464-.179s3.825-.178,5.966-.279c4.74-.212,9.713-.468,11.821-.614,3.345-.234,10.026-.669,12.1-.781,1.193-.067,2.353-.145,2.565-.167s1.349-.112,2.509-.167,4.583-.29,7.583-.513,6.658-.457,8.107-.546c3.189-.2,7.706-.535,11.185-.836,1.416-.123,3.792-.324,5.3-.446,8.341-.669,13.583-1.182,14.9-1.438a17.954,17.954,0,0,0,7.539-4,17.1,17.1,0,0,0,4.215-6.624,16.651,16.651,0,0,0,.335-5.721c-.056-.558-.156-1.885-.223-2.955s-.19-2.955-.279-4.182-.212-3.29-.279-4.572-.19-3.6-.279-5.13-.245-5.152-.335-8.029-.2-5.621-.223-6.078-.078-7.583-.112-15.835c-.044-8.922-.111-15.278-.178-15.691a13.76,13.76,0,0,0-4.1-7.628,15.111,15.111,0,0,0-8.431-4.3c-.892-.167-6.948-.268-10.315-.189ZM1706.6,2876.52a8.891,8.891,0,0,1,2.989.937,7.076,7.076,0,0,1,1.84,1.472,7.422,7.422,0,0,1,2.2,3.848c.245.937.268,1.26.312,4.605.056,3.1.112,4.862.346,10.394.056,1.383.279,5.141.323,5.643.067.68.379,6.646.491,9.356.178,4.438-.033,10.605-.424,11.966a8.183,8.183,0,0,1-3.781,4.472,13.731,13.731,0,0,1-6.044,1.461,100.385,100.385,0,0,1-12.769.134c-1.405-.078-3.468-.19-4.572-.245s-3.212-.2-4.684-.323-3.357-.279-4.182-.346c-1.584-.123-4.818-.435-7.36-.714-.825-.1-2.431-.245-3.569-.345s-2.788-.234-3.68-.335c-3.357-.334-5.654-1.327-7.528-3.245a7.9,7.9,0,0,1-1.9-3.223c-.379-1.427-.335-15.8.067-21.3.056-.859.156-2.364.212-3.346.1-2.041.714-8.007,1-9.758.056-.335.2-1.294.323-2.13a7.756,7.756,0,0,1,1.439-4.059,10.333,10.333,0,0,1,6.847-4.505c.457-.056,4.784-.145,9.847-.19,4.974-.033,12.624-.123,17.006-.2,8.286-.123,14.051-.134,15.245-.022Z" transform="translate(-1334.454 -2709.424)" fill="#aab1ff" opacity="0.777"/>
      <path id="path10-8-2" d="M1272.927,3086.527c-2.386.045-5.8.134-7.583.2s-5.844.2-9.033.29-7.929.268-10.538.39-5.665.246-6.8.279c-2.074.067-7.918.29-13.1.5-2.966.123-8.7.279-14.107.4-1.807.045-7.829.078-13.382.089-10.984.022-10.761.011-13.416.68a18.73,18.73,0,0,0-4.26,1.562,21.944,21.944,0,0,0-6.546,4.605,19.351,19.351,0,0,0-5.33,10.137c-.379,1.829-.357,1.26-.669,14.921-.145,6.279-.446,15.189-.892,26.04-.19,4.505-.457,11.308-.613,15.111s-.323,8.063-.39,9.479c-.357,8.152-.758,23.609-.8,31.17-.033,5.308-.022,5.542.547,7.75,1.985,7.706,8.643,13.683,17.04,15.312.747.145,2.442.178,10.483.212,23.017.123,50.15-.714,76.669-2.364,13.025-.814,14.62-.959,16.349-1.461a19,19,0,0,0,10.293-7.338,22.453,22.453,0,0,0,3.624-7.672c.658-2.386.647-2.152.68-18.545.022-8.286.089-17.687.156-20.91.29-13.761.357-16.349.569-22.861.123-3.769.268-7.918.334-9.2s.234-5.119.39-8.52c.279-6.156.558-11.408.9-16.85.29-4.494.145-6.814-.558-9.412a19.127,19.127,0,0,0-12.78-13.326c-2.375-.681-2.732-.714-8.029-.736-2.665-.011-6.8.022-9.2.067ZM1199.6,3100.4c2.743.089,4.628.167,6.858.279,1.1.056,2.665.134,3.457.167s1.773.089,2.175.112c1.316.089,2.71.167,5.074.279,1.293.066,3.122.167,4.07.223s2.933.189,4.405.279,3.479.223,4.461.279,2.163.134,2.621.167c1.55.1,6.279.39,8.531.5,5.074.268,6.067.435,7.784,1.293a9.8,9.8,0,0,1,5.107,6.7c.39,1.94.335,2.677-1.015,12.691-.2,1.55-.558,4.282-.892,6.858-.19,1.439-.39,3-.446,3.457-.212,1.562-.357,2.732-.446,3.68-.056.524-.178,1.595-.279,2.4-.859,7.282-1.271,12.245-1.561,18.8-.167,3.8-.29,4.739-.792,6.089a12.079,12.079,0,0,1-4.684,5.9,6.878,6.878,0,0,1-3.167,1.215c-.7.156-1.829.4-2.509.558-1.349.3-4.171.87-5.3,1.048-.4.067-1.528.245-2.509.4s-2.386.391-3.122.5c-1.193.2-2.688.39-5.3.669-.457.045-1.338.145-1.952.212-2.409.256-4.684.457-7.193.625-1.439.1-3.323.223-4.182.279-2.955.2-15.356.39-16.427.256a12.52,12.52,0,0,1-5.431-2.23,11.6,11.6,0,0,1-3.781-5.308c-.479-1.483-.6-2.665-.691-6.825-.033-2.152-.078-4.126-.1-4.405s-.056-4.271-.112-8.888c-.111-10.193.034-17.5.5-24.679.056-.892.123-2.175.167-2.844.089-1.729.167-2.766.279-3.736.056-.457.134-1.193.167-1.617s.089-.9.112-1.059.134-1.06.223-2.008a12.674,12.674,0,0,1,1.461-5.364,18.066,18.066,0,0,1,4.717-5.464c.223-.123.658-.379.959-.558a10.591,10.591,0,0,1,2.955-.992A46.429,46.429,0,0,1,1199.6,3100.4Z" transform="translate(-977.436 -2927.385)" fill="#abfcff" opacity="0.75"/>
      <path id="path12-6-8" d="M504.751,2598.776a12.584,12.584,0,0,0-6.279,3.011,14.526,14.526,0,0,0-2.13,2.855c-.926,1.84-1.149,2.956-1.506,7.695-.156,2.052-.491,5.387-.736,7.416s-.513,4.26-.6,4.963c-.323,2.677-1.193,9.211-1.628,12.156-1.673,11.442-2.888,21.1-2.888,22.85a9.925,9.925,0,0,0,.613,2.944,11.184,11.184,0,0,0,6.323,5.91c1.84.747,2.944.926,8.286,1.35,2.7.223,6.412.546,8.252.736,7.45.747,16.951,1.684,18.791,1.84,1.071.089,2.509.223,3.178.279,12.022,1.037,22.962,1.294,25.036.58a8.982,8.982,0,0,0,4.606-3.5,11.39,11.39,0,0,0,1.974-6.657c0-2.309-.68-10.182-2.342-27.445-.836-8.62-1.684-19.783-1.84-24.255-.045-1.048-.145-2.375-.245-2.955-.769-4.874-4.249-8.743-8.509-9.479-1.461-.245-6.6-.312-24.088-.3-9.847.011-19.125-.011-20.631-.056A21.144,21.144,0,0,0,504.751,2598.776Zm30.512,7.327c2.286.48,3.881,2.42,4.226,5.13.056.457.134,2.554.167,4.672.078,4.561.245,8.81.457,11.152.178,1.985.279,7.984.178,10.382-.123,2.855-.2,3.379-.636,4.293a5.891,5.891,0,0,1-3.535,2.955,43.625,43.625,0,0,1-9.535.458c-.9-.067-2.331-.156-3.189-.2s-1.595-.078-1.673-.1-.8-.1-1.628-.167c-1.84-.145-4.338-.413-5.911-.613-.647-.089-2.253-.256-3.569-.39a29.927,29.927,0,0,1-3.067-.4,6.314,6.314,0,0,1-4.728-4.605c-.156-.758-.167-9.267-.011-13.449a114.345,114.345,0,0,1,.9-11.654c.312-2.476.323-2.52.814-3.513a7,7,0,0,1,3.914-3.568,45.761,45.761,0,0,1,6.134-.234c3.067-.045,7.282-.112,9.368-.145,7.539-.134,10.683-.134,11.319,0Z" transform="translate(-462.861 -2432.716)" fill="#98fb98" opacity="0.706"/>
    </g>
    <g id="layer3" transform="translate(1010.671 386.579)">
      <path id="path6" d="M3150.791,566.621c-5.922.09-24.046.2-40.264.247-21.041.067-29.856.157-30.731.359a23.844,23.844,0,0,0-12.7,7.066,29.022,29.022,0,0,0-8.075,14.939c-.516,2.266-.673,15.523-.336,29.273.135,5.541.336,15.994.471,23.216s.449,19.784.7,27.927.583,20.345.763,27.142c.538,19.986.965,30.327,1.323,31.965a28.272,28.272,0,0,0,18.685,20.39c3.454,1.166,3.993,1.189,23.957,1.234,17.519.045,24.293-.09,41.61-.763,14.042-.538,45.334-2.624,57.649-3.813a22.318,22.318,0,0,0,12.068-4.486,35.718,35.718,0,0,0,6.729-7.245,34.546,34.546,0,0,0,4.419-10.834c.426-1.907.942-14.894,1.682-41.363.112-4.262.314-11.328.449-15.7.561-19.852.718-25.078.9-32.525.112-4.374.314-10.543.448-13.683.7-15.994.92-20.906,1.144-24.921.426-7.178-.2-10.924-2.58-15.792a23.084,23.084,0,0,0-14.827-12.18l-2.243-.606-25.235-.022c-13.885,0-30.08.067-36,.179Zm-48.115,21.153c2.647.179,7.043.538,9.758.785s6.1.538,7.514.673,3.387.314,4.374.449c.987.112,2.8.314,4.038.426,4.172.426,13.212,1.368,15.366,1.593,1.166.135,5.383.538,9.354.9,3.993.359,7.851.83,8.636,1.009a13.4,13.4,0,0,1,9.287,8.928c.763,2.266.785,3.365.359,17.541-.157,5.428-.314,19.852-.336,32.077l-.045,22.207-.605,1.794a23.515,23.515,0,0,1-3.163,5.9,17.734,17.734,0,0,1-4.509,3.208,14.414,14.414,0,0,1-4.778,1.1,135.593,135.593,0,0,1-14.536,1.1c-5.63.2-8.771.2-18.057-.09-10.52-.292-30.6-1.548-32.413-2.019a19.9,19.9,0,0,1-6.774-3.589,15.635,15.635,0,0,1-4.217-6.415c-.605-1.952-.628-2.2-1.121-12.427-.179-3.836-.449-8.569-.561-10.543-.135-1.974-.381-6.057-.561-9.085-.516-8.1-.9-13.907-2.154-31.628-.65-9.04-.65-12.876-.022-14.894a14,14,0,0,1,8.86-9.152c1.234-.359,1.974-.4,6.438-.292,2.781.067,7.223.269,9.87.449Z" transform="translate(-3058.51 -566.442)" fill="#ffaaf3" opacity="0.755"/>
    </g>
    <g id="layer5" transform="translate(1116.932 402.27)">
      <path id="path8" d="M3942.853,1491.9c-2.759.09-12.427.449-29.273,1.1-4.688.179-10.3.426-12.449.561-2.153.112-6.146.314-8.86.449-2.714.112-8.12.381-12,.561s-9.242.449-11.888.561c-18.326.875-34.208,1.211-49.887,1.054-7.514-.067-14.132-.022-15.365.09a39.585,39.585,0,0,0-23.306,10.161,23.086,23.086,0,0,0-6.752,10.453c-1.1,3.409-1.323,4.71-1.817,10.991-.247,3.275-.606,7.851-.808,10.206-.336,4.24-2.894,24.338-4.576,35.89-.493,3.32-1.234,8.569-1.682,11.664-.92,6.37-1.144,7.828-3.141,19.964-.785,4.8-1.548,9.556-1.682,10.543s-.942,6.326-1.794,11.889c-.852,5.541-1.75,11.911-2.019,14.132-.942,8.12-1.368,11.709-1.7,14.087-.83,6.3-.022,10.722,2.8,15.3,4.912,7.963,13.93,13.257,25.527,14.939,3.051.449,3.881.471,10.161.336,3.769-.067,8.7-.224,10.991-.359,2.288-.112,7.694-.359,12-.561,9.533-.426,19.538-.942,23.777-1.234,6.729-.471,20.166-1.346,24.338-1.57,2.4-.135,4.733-.292,5.159-.337.426-.067,2.714-.224,5.047-.336,2.355-.135,9.219-.583,15.253-1.032,6.056-.426,13.392-.92,16.308-1.1,6.415-.4,15.5-1.077,22.5-1.682,2.849-.247,7.626-.651,10.655-.9,16.779-1.346,27.322-2.378,29.969-2.894a36.113,36.113,0,0,0,15.163-8.053c3.656-3.454,7.38-9.331,8.479-13.324a33.475,33.475,0,0,0,.673-11.507c-.112-1.122-.314-3.791-.448-5.944s-.381-5.944-.561-8.412-.427-6.617-.561-9.2c-.135-2.6-.382-7.245-.561-10.319-.179-3.1-.494-10.363-.673-16.15-.2-5.81-.4-11.305-.449-12.225-.067-.92-.157-15.253-.224-31.853-.09-17.945-.224-30.731-.359-31.561q-1.312-8.378-8.255-15.343a30.391,30.391,0,0,0-16.959-8.659C3961.807,1491.949,3949.627,1491.748,3942.853,1491.9Zm-41.341,33.6a17.9,17.9,0,0,1,6.012,1.884,14.23,14.23,0,0,1,3.7,2.961,14.932,14.932,0,0,1,4.419,7.739c.494,1.884.539,2.535.628,9.264.112,6.236.224,9.78.7,20.906.112,2.781.561,10.341.65,11.35.135,1.368.763,13.369.987,18.82.359,8.928-.067,21.332-.852,24.069a16.461,16.461,0,0,1-7.6,8.995c-3.544,1.817-6.079,2.445-12.158,2.939a201.769,201.769,0,0,1-25.684.269c-2.826-.157-6.976-.381-9.2-.493s-6.46-.4-9.421-.651-6.752-.561-8.412-.7c-3.185-.247-9.69-.875-14.8-1.436-1.66-.2-4.89-.493-7.178-.7-2.288-.179-5.608-.471-7.4-.673-6.752-.673-11.373-2.669-15.141-6.528a15.9,15.9,0,0,1-3.813-6.483c-.762-2.871-.673-31.785.135-42.844.112-1.727.314-4.755.426-6.729.2-4.1,1.436-16.106,2.019-19.628.112-.673.4-2.6.651-4.284.628-4.172,1.189-5.787,2.894-8.165,3.612-5.092,8.524-8.322,13.773-9.062.92-.112,9.623-.292,19.807-.381,10-.067,25.392-.247,34.208-.4C3887.514,1525.3,3899.111,1525.283,3901.512,1525.507Z" transform="translate(-3753.536 -1491.85)" fill="#aab1ff" opacity="0.777"/>
    </g>
    <g id="layer6" transform="translate(956.303 355.449)">
      <path id="path10" d="M3029.208,1947.925c-4.8.09-11.664.269-15.253.4-3.567.135-11.754.4-18.169.583-6.415.2-15.948.538-21.2.785-5.249.224-11.4.494-13.683.561-4.172.135-15.926.583-26.357,1.009-5.967.247-17.5.561-28.376.807-3.634.09-15.747.157-26.918.179-22.095.045-21.646.023-26.985,1.368a37.649,37.649,0,0,0-8.569,3.14,44.137,44.137,0,0,0-13.167,9.264,38.92,38.92,0,0,0-10.722,20.39c-.763,3.679-.718,2.535-1.346,30.013-.292,12.629-.9,30.551-1.794,52.377-.381,9.062-.92,22.745-1.234,30.395s-.65,16.218-.785,19.066c-.718,16.4-1.526,47.487-1.615,62.7-.067,10.677-.045,11.148,1.1,15.59,3.993,15.5,17.384,27.523,34.275,30.8,1.5.292,4.912.359,21.085.426,46.3.247,100.874-1.435,154.216-4.755,26.2-1.637,29.408-1.929,32.885-2.938a38.213,38.213,0,0,0,20.7-14.76,45.175,45.175,0,0,0,7.29-15.433c1.323-4.8,1.3-4.329,1.368-37.3.045-16.667.18-35.576.314-42.059.583-27.68.718-32.884,1.144-45.984.247-7.582.538-15.926.673-18.506.135-2.6.471-10.3.785-17.137.561-12.382,1.122-22.947,1.817-33.894.583-9.04.292-13.706-1.121-18.932-3.544-12.9-13.526-23.306-25.707-26.806-4.778-1.368-5.5-1.436-16.151-1.48C3042.354,1947.768,3034.031,1947.835,3029.208,1947.925Zm-147.486,27.9c5.518.179,9.309.336,13.8.561,2.221.112,5.361.269,6.954.336,1.615.067,3.567.18,4.374.224,2.647.18,5.451.337,10.206.561,2.6.135,6.281.336,8.188.449s5.9.381,8.86.561,7,.449,8.973.561,4.352.269,5.271.336c3.118.2,12.629.785,17.16,1.01,10.207.538,12.2.875,15.657,2.6a19.715,19.715,0,0,1,10.274,13.481c.785,3.9.673,5.383-2.042,25.527-.4,3.118-1.121,8.614-1.794,13.8-.381,2.894-.785,6.034-.9,6.954-.426,3.14-.718,5.5-.9,7.4-.112,1.054-.358,3.208-.561,4.823-1.727,14.648-2.557,24.63-3.14,37.819-.336,7.649-.583,9.533-1.593,12.248a24.3,24.3,0,0,1-9.421,11.866c-2.153,1.436-2.938,1.727-6.37,2.445-1.413.314-3.679.808-5.047,1.122-2.714.606-8.389,1.75-10.655,2.109-.808.134-3.073.493-5.047.807s-4.8.785-6.281,1.01c-2.4.4-5.406.785-10.655,1.346-.92.09-2.692.292-3.925.426-4.845.516-9.421.919-14.468,1.256-2.894.2-6.685.448-8.412.561-5.944.4-30.888.785-33.041.516a25.2,25.2,0,0,1-10.924-4.486,23.337,23.337,0,0,1-7.6-10.677c-.965-2.983-1.211-5.361-1.391-13.728-.067-4.329-.157-8.3-.2-8.861-.022-.561-.112-8.591-.224-17.877-.225-20.5.067-35.195,1.009-49.641.112-1.795.247-4.374.336-5.72.18-3.477.336-5.563.561-7.515.112-.92.269-2.4.337-3.253.067-.875.179-1.817.224-2.131.067-.314.269-2.131.449-4.038.494-4.912,1.077-7.133,2.938-10.789,1.794-3.567,7.021-9.623,9.489-10.991.448-.247,1.323-.763,1.929-1.122a21.309,21.309,0,0,1,5.944-2c1.167-.179,3.1-.157,11.665.112Z" transform="translate(-2813.016 -1947.786)" fill="#abfcff" opacity="0.75"/>
    </g>
    <g id="layer7" transform="translate(628.809 386.727)">
      <path id="path12" d="M1484.061,966.839a25.311,25.311,0,0,0-12.629,6.057,29.234,29.234,0,0,0-4.284,5.742c-1.862,3.7-2.31,5.944-3.028,15.478-.314,4.127-.987,10.834-1.481,14.917-.493,4.06-1.032,8.569-1.211,9.982-.651,5.383-2.4,18.528-3.275,24.45-3.365,23.014-5.81,42.44-5.81,45.962a19.963,19.963,0,0,0,1.234,5.922c2.109,5.159,6.729,9.489,12.719,11.889,3.7,1.5,5.922,1.862,16.667,2.714,5.428.449,12.9,1.1,16.6,1.48,14.984,1.5,34.1,3.387,37.8,3.7,2.153.179,5.047.449,6.393.561,24.181,2.086,46.186,2.6,50.359,1.166a18.071,18.071,0,0,0,9.264-7.043,22.913,22.913,0,0,0,3.97-13.391c0-4.643-1.368-20.48-4.71-55.2-1.682-17.339-3.387-39.793-3.7-48.788-.09-2.109-.292-4.778-.494-5.944-1.548-9.8-8.546-17.586-17.115-19.067-2.939-.493-13.28-.628-48.452-.606-19.807.022-38.47-.022-41.5-.112A42.575,42.575,0,0,0,1484.061,966.839Zm61.372,14.737c4.6.965,7.806,4.868,8.5,10.318.112.92.269,5.137.336,9.4.157,9.174.494,17.721.92,22.431.359,3.993.561,16.061.359,20.884-.247,5.742-.4,6.8-1.279,8.636a11.848,11.848,0,0,1-7.111,5.944c-2.781.83-13.593,1.346-19.179.92-1.817-.135-4.688-.314-6.415-.4-1.7-.067-3.208-.157-3.365-.2-.135-.045-1.615-.2-3.275-.337-3.7-.292-8.726-.83-11.889-1.234-1.3-.179-4.531-.516-7.178-.785a60.241,60.241,0,0,1-6.169-.807c-4.755-1.144-8.614-4.913-9.511-9.264-.314-1.525-.336-18.641-.022-27.052a229.973,229.973,0,0,1,1.817-23.441c.628-4.98.651-5.07,1.638-7.066,1.7-3.432,4.868-6.326,7.873-7.178.852-.247,3.746-.359,12.337-.471,6.169-.09,14.648-.224,18.842-.292C1537.829,981.307,1544.155,981.307,1545.433,981.577Z" transform="translate(-1452.343 -966.639)" fill="#98fb98" opacity="0.706"/>
    </g>
    <g id="layer8" transform="translate(807.163 395.979)">
      <path id="path842" d="M2296.583,1048.3a27.489,27.489,0,0,0-16.743,7.629,25.947,25.947,0,0,0-6.652,10.4,26.547,26.547,0,0,0-1.353,12.308c.1.9.207,1.663.226,1.691s.15.564.291,1.184a30.627,30.627,0,0,0,10.269,16.508,27.6,27.6,0,0,0,12.411,5.75c.545.075,1.221.188,1.5.244a18.579,18.579,0,0,0,4.416.047,25.006,25.006,0,0,0,8.822-2.565,35.431,35.431,0,0,0,5.318-3.411c.47-.376,1.372-1.193,2-1.823a28.832,28.832,0,0,0,8.136-14.29c.141-.62.31-1.4.385-1.738s.207-1.137.282-1.785c.357-2.894.366-3.053.254-4.012-.066-.507-.178-1.475-.254-2.142a27.087,27.087,0,0,0-23.676-23.874A36.763,36.763,0,0,0,2296.583,1048.3Z" transform="translate(-2258.121 -1048.242)" fill="#bdc2ff"/>
      <path id="path846" d="M2245.343,1320.195a39.1,39.1,0,0,0-7.62,1.5,35.643,35.643,0,0,0-10.185,4.754,36.553,36.553,0,0,0-9.987,9.809,23.484,23.484,0,0,0-2.067,3.495,36.073,36.073,0,0,0-3.927,13.464c-.132,1.325-.188,6.173-.094,7.2.028.225.075.733.1,1.118.084,1.015.658,4.688.883,5.684.113.46.329,1.437.489,2.161.385,1.748,1.118,4.51,1.315,4.979.047.1.395,1.137.78,2.3s.789,2.283.9,2.49a1.691,1.691,0,0,1,.188.5c0,.3.912,1.015,1.926,1.513,8.54,4.172,24.052,6.323,39.038,5.412a77.687,77.687,0,0,0,18.18-3.119c2.9-.949,5.834-2.3,6.7-3.11a2.847,2.847,0,0,0,.865-1.475c.216-.573.536-1.494.714-2.067s.4-1.268.507-1.55c.395-1.156,1.127-3.993,1.409-5.449.16-.855.376-1.973.47-2.49s.338-1.832.535-2.913l.348-1.973.01-4.463c0-5.355-.019-5.6-.808-9.123a33.755,33.755,0,0,0-2.358-7.225c-.16-.338-.366-.8-.47-1.033a42.648,42.648,0,0,0-2.321-3.946,35.725,35.725,0,0,0-2.875-3.758,30.628,30.628,0,0,0-3.2-3.232,41.021,41.021,0,0,0-3.674-2.884,48.948,48.948,0,0,0-4.773-2.762,39.373,39.373,0,0,0-13.67-3.805C2251.431,1320.091,2246.677,1320.091,2245.343,1320.195Z" transform="translate(-2211.416 -1259.132)" fill="#bdc2ff"/>
    </g>
    <g id="layer9" transform="translate(479.255 361.033)">
      <path id="path840" d="M2359.593,1028.876a28.333,28.333,0,0,0-14.91,5.985,36.453,36.453,0,0,0-4.472,4.463,28.262,28.262,0,0,0-5.562,12.064,32.185,32.185,0,0,0-.376,7.864c.047.348.16,1.09.244,1.663a30.159,30.159,0,0,0,4.209,11.35,11.043,11.043,0,0,0,.8,1.221c.141.169.5.639.8,1.052a30.507,30.507,0,0,0,6.351,6.332,28.574,28.574,0,0,0,7.234,3.871,27.958,27.958,0,0,0,8.362,1.494,26.685,26.685,0,0,0,6.051-.8c.216-.066.911-.272,1.56-.47a16.061,16.061,0,0,0,1.757-.62,6.159,6.159,0,0,1,.63-.272,20.279,20.279,0,0,0,2.621-1.325,31.452,31.452,0,0,0,3.646-2.462,33.4,33.4,0,0,0,5.844-6.041,30.315,30.315,0,0,0,5.468-13.473c.084-.648.216-1.456.3-1.813a23.207,23.207,0,0,0-.047-4.81,26.347,26.347,0,0,0-1.907-7.836,27.488,27.488,0,0,0-6.577-9.734A28.159,28.159,0,0,0,2359.593,1028.876Zm5.083.846a27.2,27.2,0,0,1,17.635,8.785,25.877,25.877,0,0,1,5.083,8.146,27.532,27.532,0,0,1,1.973,9.846,20.4,20.4,0,0,1-.413,4.406,28.93,28.93,0,0,1-7.723,15.765,30.51,30.51,0,0,1-9.518,6.7c-.46.188-.968.395-1.127.47a24.922,24.922,0,0,1-8.437,1.55,26.758,26.758,0,0,1-8.55-1.7,28.814,28.814,0,0,1-11.575-8.353,37.49,37.49,0,0,1-3.7-5.543,27.878,27.878,0,0,1-2.781-18.368,27.166,27.166,0,0,1,5.581-11.857,33.991,33.991,0,0,1,4.237-4.162A27.267,27.267,0,0,1,2364.676,1029.722Z" transform="translate(-2029.364 -979.637)"/>
      <path id="path844" d="M2321.273,1293.18a8.34,8.34,0,0,1-1.221.2,10.519,10.519,0,0,0-1.306.2c-.15.047-.554.132-.892.188a11.951,11.951,0,0,0-1.419.329c-.442.132-1.09.319-1.456.423-.883.263-2.49.8-3.241,1.081a33.1,33.1,0,0,0-3.054,1.3,14.585,14.585,0,0,0-1.531.78.456.456,0,0,1-.254.122.454.454,0,0,0-.253.122,1.67,1.67,0,0,1-.423.244c-.169.066-.31.15-.31.188a3.632,3.632,0,0,1-.7.423,4.767,4.767,0,0,0-.808.489.324.324,0,0,1-.207.132,1.97,1.97,0,0,0-.479.31,4.887,4.887,0,0,1-.639.451c-.31.16-3.157,2.433-3.626,2.894a5.422,5.422,0,0,1-.583.5,7.153,7.153,0,0,0-.752.761c-.282.338-.958,1.109-1.5,1.719a47.756,47.756,0,0,0-2.959,3.815c-.047.084-.338.5-.63.921a9.531,9.531,0,0,0-.545.808,5.664,5.664,0,0,1-.563,1.118,1.506,1.506,0,0,0-.291.5c-.113.244-.32.7-.46,1.005s-.376.836-.517,1.174-.319.78-.423.987a41.532,41.532,0,0,0-1.973,6.812c-.282,1.71-.395,2.452-.432,3.053a6,6,0,0,1-.141.94c-.1.338-.094.122-.122,3.053-.01,1.269.009,2.809.047,3.429a57.5,57.5,0,0,0,.883,6.671c.066.254.282,1.231.47,2.151s.357,1.719.385,1.757.188.677.376,1.409.451,1.738.62,2.236a61.481,61.481,0,0,0,2.114,6.032,4.462,4.462,0,0,0,1.438,1.4c1,.517,2.245,1.127,2.443,1.175a1.339,1.339,0,0,1,.347.16,2.525,2.525,0,0,0,.564.216c.244.075.752.244,1.109.376s.911.329,1.221.423.864.263,1.221.376.921.263,1.25.338a3.916,3.916,0,0,1,.752.216,4.272,4.272,0,0,0,.817.188,10.485,10.485,0,0,1,1.127.244c.883.254,3.241.714,4.792.94a10,10,0,0,1,1.175.225,10.675,10.675,0,0,0,1.456.2,12.764,12.764,0,0,1,1.5.188,56.259,56.259,0,0,0,5.778.517c1.315.066,3.007.169,3.758.225,1.663.132,7.356.132,8.089.019.292-.047,1.644-.141,3.006-.2s2.631-.141,2.81-.2a16.294,16.294,0,0,1,1.926-.226c.883-.075,1.954-.2,2.4-.272a9.925,9.925,0,0,1,1.127-.141.9.9,0,0,0,.423-.094,8.2,8.2,0,0,1,1.456-.244,11.247,11.247,0,0,0,1.663-.282,1.6,1.6,0,0,1,.564-.141.638.638,0,0,0,.357-.085,4.456,4.456,0,0,1,.977-.244,8.055,8.055,0,0,0,1.034-.226,4.29,4.29,0,0,1,.761-.2,2.481,2.481,0,0,0,.7-.188,3.577,3.577,0,0,1,.7-.188,2.861,2.861,0,0,0,.7-.188,2.335,2.335,0,0,1,.517-.178,5.885,5.885,0,0,0,.61-.2,15.151,15.151,0,0,1,1.551-.536,3.159,3.159,0,0,0,.545-.235,1.43,1.43,0,0,1,.414-.169,13.8,13.8,0,0,0,2.189-1.043.664.664,0,0,1,.292-.122,6.715,6.715,0,0,0,1.785-1.409,2.939,2.939,0,0,0,.376-.629,65.679,65.679,0,0,0,2.095-6.427c.2-.724.432-1.531.507-1.785a19.984,19.984,0,0,0,.395-1.973c.141-.827.31-1.719.385-1.973s.235-1.193.376-2.067.32-2.011.423-2.509c.179-.855.188-1.221.15-5.872-.019-3.354-.066-5.083-.141-5.337-.056-.207-.178-.8-.253-1.315a21.693,21.693,0,0,0-.6-3.044c-.1-.338-.3-1.08-.441-1.654a36.875,36.875,0,0,0-3.354-7.807c-.414-.648-.611-.987-1.043-1.719-.207-.338-.545-.855-.761-1.137a7.644,7.644,0,0,1-.545-.808,1.582,1.582,0,0,0-.31-.423c-.084-.075-.451-.517-.808-.977a39.245,39.245,0,0,0-4.707-4.726c-.47-.366-.986-.789-1.137-.949a1.219,1.219,0,0,0-.366-.291,4.773,4.773,0,0,1-.77-.564,4.772,4.772,0,0,0-.771-.564,3.3,3.3,0,0,1-.592-.357c-.282-.2-.79-.517-1.127-.714s-.677-.385-.752-.432a1.75,1.75,0,0,0-.376-.188,6.657,6.657,0,0,1-.611-.32c-.207-.122-.629-.348-.939-.507-.517-.254-.893-.432-2.509-1.184a2.952,2.952,0,0,0-.7-.244.727.727,0,0,1-.357-.132,2.549,2.549,0,0,0-.563-.235c-.207-.066-.5-.178-.658-.244a3.863,3.863,0,0,0-.61-.188,1.66,1.66,0,0,1-.423-.141,17.371,17.371,0,0,0-2.114-.62c-.282-.066-.686-.169-.893-.225-3.1-.817-3.692-.874-9.161-.9C2323.557,1293.114,2321.377,1293.142,2321.273,1293.18Zm8.879.958a45,45,0,0,1,5.919,1.081c.714.2,3.937,1.268,4.745,1.578a48.124,48.124,0,0,1,7.141,3.833,36.927,36.927,0,0,1,10.6,11.209c.751,1.268,1.3,2.227,1.465,2.6.648,1.438.761,1.691.761,1.738,0,.019.131.348.291.714a38.578,38.578,0,0,1,2.349,8.85,87.426,87.426,0,0,1,.056,11.134c-.244,1.475-.7,4.04-.845,4.792-.075.385-.272,1.391-.433,2.227s-.395,1.851-.517,2.255-.282.921-.338,1.156c-.235.977-1.024,3.364-1.87,5.741-.282.78-.7,1.156-2.076,1.888-4.773,2.537-12.6,4.406-21.516,5.149a115.934,115.934,0,0,1-12.167.291c-2.837-.1-6.4-.329-7.61-.479-.413-.047-1.513-.178-2.443-.282-7.141-.827-14.394-2.706-18.65-4.839-1.719-.864-1.795-.987-3.082-4.886a47.007,47.007,0,0,1-1.475-4.885c-.122-.573-.273-1.165-.32-1.315s-.244-1.015-.432-1.917-.348-1.654-.376-1.691c-.075-.131-.507-3.251-.658-4.726a61.849,61.849,0,0,1-.141-7.065c.047-.4.1-1.1.141-1.55a46.187,46.187,0,0,1,1.315-6.915,37.434,37.434,0,0,1,3-7.094,39.874,39.874,0,0,1,2.931-4.406,46.168,46.168,0,0,1,4.594-4.9,37.758,37.758,0,0,1,11.143-6.793,38.642,38.642,0,0,1,9.48-2.405,34.408,34.408,0,0,1,4.745-.188C2327.85,1294.044,2329.7,1294.082,2330.152,1294.138Z" transform="translate(-1995.209 -1215.97)"/>
      <path id="path842-0" d="M3189.766,2153.923a27.491,27.491,0,0,0-16.743,7.629,25.954,25.954,0,0,0-6.652,10.4,26.551,26.551,0,0,0-1.353,12.308c.1.9.207,1.663.226,1.691s.15.564.291,1.184a30.626,30.626,0,0,0,10.269,16.508,27.593,27.593,0,0,0,12.411,5.75c.545.075,1.222.188,1.5.245a18.591,18.591,0,0,0,4.416.047,25.011,25.011,0,0,0,8.823-2.565,35.452,35.452,0,0,0,5.317-3.411c.47-.376,1.372-1.193,2-1.823a28.833,28.833,0,0,0,8.136-14.29c.141-.62.31-1.4.385-1.738s.207-1.137.282-1.785c.357-2.894.367-3.053.254-4.012-.066-.508-.179-1.475-.254-2.142a27.086,27.086,0,0,0-23.676-23.874,36.716,36.716,0,0,0-5.637-.122Z" transform="translate(-2573.163 -2002.511)" fill="#ffbff6"/>
      <path id="path846-5" d="M3138.526,2425.815a39.117,39.117,0,0,0-7.62,1.5,35.649,35.649,0,0,0-10.185,4.754,36.555,36.555,0,0,0-9.987,9.809,23.454,23.454,0,0,0-2.067,3.5,36.081,36.081,0,0,0-3.927,13.463c-.132,1.325-.188,6.173-.094,7.2.028.226.075.733.1,1.118.084,1.015.658,4.688.883,5.684.113.46.329,1.437.489,2.161.385,1.748,1.118,4.51,1.315,4.98.047.1.4,1.137.78,2.3s.789,2.283.9,2.49a1.691,1.691,0,0,1,.188.5c0,.3.912,1.015,1.926,1.512,8.54,4.172,24.052,6.323,39.038,5.412a77.689,77.689,0,0,0,18.18-3.119c2.9-.949,5.834-2.3,6.7-3.11a2.85,2.85,0,0,0,.864-1.475c.216-.573.536-1.494.714-2.067s.4-1.268.507-1.55c.395-1.156,1.127-3.993,1.409-5.449.16-.855.376-1.973.47-2.49s.338-1.832.536-2.912l.348-1.973.009-4.463c0-5.355-.019-5.6-.808-9.123a33.737,33.737,0,0,0-2.358-7.225c-.159-.338-.366-.8-.47-1.034a42.689,42.689,0,0,0-2.321-3.946,35.751,35.751,0,0,0-2.875-3.758,30.509,30.509,0,0,0-3.2-3.232,41.007,41.007,0,0,0-3.674-2.885,49.132,49.132,0,0,0-4.773-2.762,39.376,39.376,0,0,0-13.67-3.8C3144.614,2425.712,3139.86,2425.712,3138.526,2425.815Z" transform="translate(-2526.569 -2222.227)" fill="#ffbff6"/>
      <path id="path840-1" d="M3252.776,2134.5a28.333,28.333,0,0,0-14.91,5.985,36.48,36.48,0,0,0-4.472,4.463,28.264,28.264,0,0,0-5.562,12.064,32.173,32.173,0,0,0-.375,7.864c.047.348.16,1.09.244,1.663a30.161,30.161,0,0,0,4.209,11.35,11.051,11.051,0,0,0,.8,1.221c.141.169.5.639.8,1.052a30.51,30.51,0,0,0,6.351,6.333,28.587,28.587,0,0,0,7.234,3.871,27.967,27.967,0,0,0,8.362,1.494,26.691,26.691,0,0,0,6.051-.8c.216-.066.911-.272,1.56-.47a16.113,16.113,0,0,0,1.757-.62,6.153,6.153,0,0,1,.63-.272,20.275,20.275,0,0,0,2.621-1.325,31.473,31.473,0,0,0,3.646-2.462,33.39,33.39,0,0,0,5.844-6.041,30.313,30.313,0,0,0,5.468-13.473c.084-.648.216-1.456.3-1.813a23.218,23.218,0,0,0-.047-4.81,26.34,26.34,0,0,0-1.908-7.836,27.481,27.481,0,0,0-6.577-9.733,28.158,28.158,0,0,0-22.023-7.7Zm5.083.846a27.2,27.2,0,0,1,17.635,8.785,25.875,25.875,0,0,1,5.083,8.146,27.532,27.532,0,0,1,1.973,9.846,20.431,20.431,0,0,1-.414,4.406,28.929,28.929,0,0,1-7.723,15.766,30.512,30.512,0,0,1-9.518,6.7c-.46.188-.968.395-1.127.47a24.9,24.9,0,0,1-8.437,1.55,26.749,26.749,0,0,1-8.55-1.7,28.815,28.815,0,0,1-11.575-8.352,37.492,37.492,0,0,1-3.7-5.543,27.878,27.878,0,0,1-2.781-18.368,27.163,27.163,0,0,1,5.581-11.857,34.033,34.033,0,0,1,4.237-4.162A27.268,27.268,0,0,1,3257.859,2135.343Z" transform="translate(-2613.547 -1959.482)"/>
      <path id="path844-4" d="M3214.456,2398.8a8.387,8.387,0,0,1-1.222.2,10.563,10.563,0,0,0-1.306.2c-.15.047-.554.131-.893.188a11.952,11.952,0,0,0-1.419.329c-.441.132-1.09.32-1.456.423-.883.263-2.49.8-3.241,1.081a33.1,33.1,0,0,0-3.053,1.3,14.629,14.629,0,0,0-1.532.78.456.456,0,0,1-.254.122.454.454,0,0,0-.254.122,1.688,1.688,0,0,1-.423.244c-.169.066-.31.15-.31.188a3.638,3.638,0,0,1-.7.423,4.787,4.787,0,0,0-.808.488.322.322,0,0,1-.207.132,1.963,1.963,0,0,0-.479.31,4.906,4.906,0,0,1-.639.451c-.31.16-3.157,2.434-3.626,2.894a5.4,5.4,0,0,1-.583.5,7.156,7.156,0,0,0-.752.761c-.281.338-.958,1.109-1.5,1.719a47.9,47.9,0,0,0-2.96,3.814c-.047.085-.338.5-.629.921a9.529,9.529,0,0,0-.545.808,5.656,5.656,0,0,1-.563,1.118,1.517,1.517,0,0,0-.292.5c-.113.244-.319.7-.46,1s-.376.836-.517,1.175-.319.78-.422.987a41.489,41.489,0,0,0-1.973,6.812c-.282,1.71-.4,2.452-.432,3.053a5.991,5.991,0,0,1-.141.939c-.1.338-.094.122-.122,3.054-.01,1.268.01,2.809.047,3.429a57.557,57.557,0,0,0,.883,6.671c.066.254.282,1.231.47,2.152s.357,1.719.385,1.757.188.677.376,1.409.451,1.738.62,2.236a61.471,61.471,0,0,0,2.114,6.032,4.465,4.465,0,0,0,1.438,1.4c1,.517,2.245,1.127,2.443,1.174a1.33,1.33,0,0,1,.347.16,2.519,2.519,0,0,0,.564.216c.244.075.751.244,1.109.376s.911.329,1.221.423.864.263,1.221.376.921.263,1.25.338a3.916,3.916,0,0,1,.752.216,4.26,4.26,0,0,0,.817.188,10.412,10.412,0,0,1,1.127.244c.883.254,3.241.714,4.792.939a10.025,10.025,0,0,1,1.175.226,10.689,10.689,0,0,0,1.456.2,12.8,12.8,0,0,1,1.5.188,56.385,56.385,0,0,0,5.778.517c1.315.066,3.007.169,3.758.226,1.663.131,7.357.131,8.09.019.291-.047,1.644-.141,3.006-.2s2.631-.141,2.81-.2a16.239,16.239,0,0,1,1.926-.226c.883-.075,1.955-.2,2.4-.272a9.935,9.935,0,0,1,1.127-.141.9.9,0,0,0,.423-.094,8.156,8.156,0,0,1,1.456-.245,11.218,11.218,0,0,0,1.663-.282,1.6,1.6,0,0,1,.564-.141.638.638,0,0,0,.357-.085,4.459,4.459,0,0,1,.977-.244,8.161,8.161,0,0,0,1.034-.225,4.257,4.257,0,0,1,.761-.2,2.485,2.485,0,0,0,.7-.188,3.589,3.589,0,0,1,.7-.188,2.869,2.869,0,0,0,.7-.188,2.327,2.327,0,0,1,.517-.179,5.964,5.964,0,0,0,.611-.2,15.2,15.2,0,0,1,1.55-.536,3.193,3.193,0,0,0,.545-.235,1.43,1.43,0,0,1,.413-.169,13.8,13.8,0,0,0,2.189-1.043.666.666,0,0,1,.292-.122,6.71,6.71,0,0,0,1.785-1.409,2.91,2.91,0,0,0,.376-.63,65.708,65.708,0,0,0,2.095-6.426c.2-.724.433-1.531.508-1.785s.263-1.146.395-1.973.31-1.719.385-1.973.235-1.193.376-2.067.32-2.011.423-2.508c.179-.855.188-1.221.15-5.872-.019-3.354-.066-5.083-.141-5.337-.056-.207-.178-.8-.253-1.315a21.7,21.7,0,0,0-.6-3.044c-.1-.338-.3-1.081-.441-1.653a36.868,36.868,0,0,0-3.354-7.808c-.414-.648-.611-.987-1.043-1.719-.207-.338-.545-.855-.761-1.137a7.631,7.631,0,0,1-.545-.808,1.583,1.583,0,0,0-.31-.423c-.084-.075-.451-.517-.808-.977a39.275,39.275,0,0,0-4.707-4.726c-.47-.366-.987-.789-1.137-.949a1.217,1.217,0,0,0-.366-.291,4.764,4.764,0,0,1-.77-.564,4.772,4.772,0,0,0-.771-.564,3.3,3.3,0,0,1-.592-.357c-.282-.2-.789-.517-1.128-.714s-.677-.385-.752-.432a1.741,1.741,0,0,0-.375-.188,6.718,6.718,0,0,1-.611-.32c-.207-.122-.629-.348-.939-.507-.517-.254-.893-.432-2.509-1.184a2.95,2.95,0,0,0-.7-.244.727.727,0,0,1-.357-.131,2.521,2.521,0,0,0-.564-.235c-.207-.066-.5-.178-.658-.244a3.837,3.837,0,0,0-.61-.188,1.642,1.642,0,0,1-.423-.141,17.4,17.4,0,0,0-2.114-.62c-.282-.066-.686-.169-.893-.226-3.1-.817-3.693-.874-9.161-.9-2.556-.019-4.735.009-4.839.047Zm8.878.958a44.93,44.93,0,0,1,5.919,1.08c.714.2,3.937,1.268,4.745,1.578a48.132,48.132,0,0,1,7.14,3.833,36.924,36.924,0,0,1,10.6,11.209c.752,1.269,1.3,2.227,1.466,2.6.648,1.438.761,1.691.761,1.738,0,.019.132.348.291.714a38.592,38.592,0,0,1,2.349,8.851,87.25,87.25,0,0,1,.057,11.134c-.245,1.475-.705,4.04-.846,4.792-.075.385-.272,1.391-.432,2.227s-.4,1.851-.517,2.255-.281.921-.338,1.156c-.235.977-1.024,3.364-1.87,5.741-.282.78-.7,1.156-2.076,1.888-4.773,2.537-12.6,4.406-21.516,5.149a115.966,115.966,0,0,1-12.167.291c-2.837-.1-6.4-.329-7.61-.479-.413-.047-1.512-.179-2.443-.282-7.141-.827-14.394-2.706-18.65-4.839-1.719-.864-1.794-.987-3.082-4.885a46.914,46.914,0,0,1-1.475-4.885c-.123-.573-.272-1.165-.32-1.315s-.244-1.015-.432-1.917-.348-1.654-.376-1.691c-.075-.131-.507-3.251-.657-4.726a61.8,61.8,0,0,1-.141-7.065c.047-.4.1-1.1.141-1.55a46.223,46.223,0,0,1,1.315-6.915,37.456,37.456,0,0,1,3-7.094,39.824,39.824,0,0,1,2.931-4.406,46.169,46.169,0,0,1,4.595-4.9,37.751,37.751,0,0,1,11.143-6.793,38.658,38.658,0,0,1,9.48-2.405,34.423,34.423,0,0,1,4.745-.188C3221.033,2399.665,3222.884,2399.7,3223.334,2399.759Z" transform="translate(-2575.465 -2201.291)"/>
      <path id="path842-7" d="M3310.354,724.866a15.312,15.312,0,0,0-9.325,4.249,14.451,14.451,0,0,0-3.7,5.793,14.788,14.788,0,0,0-.754,6.855c.058.5.115.926.126.942s.084.314.162.659a17.059,17.059,0,0,0,5.72,9.194,15.37,15.37,0,0,0,6.913,3.2c.3.042.68.1.837.136a10.35,10.35,0,0,0,2.459.026,13.925,13.925,0,0,0,4.914-1.429,19.731,19.731,0,0,0,2.962-1.9c.262-.209.764-.665,1.115-1.015a16.058,16.058,0,0,0,4.532-7.959c.079-.345.173-.78.215-.968s.115-.633.157-.994a7.536,7.536,0,0,0,.141-2.234c-.036-.283-.1-.822-.141-1.193a15.087,15.087,0,0,0-13.187-13.3A20.473,20.473,0,0,0,3310.354,724.866Z" transform="translate(-2667.958 -696.166)" fill="#c0fdff"/>
      <path id="path846-2" d="M3281.814,876.3a21.775,21.775,0,0,0-4.244.837,19.851,19.851,0,0,0-5.672,2.648,20.357,20.357,0,0,0-5.563,5.463,13.1,13.1,0,0,0-1.151,1.947,20.09,20.09,0,0,0-2.187,7.5c-.073.738-.1,3.438-.052,4.008.016.126.042.408.058.623.047.565.366,2.611.492,3.166.063.256.183.8.272,1.2.215.973.623,2.512.733,2.773.026.058.22.633.434,1.282s.44,1.272.5,1.387a.936.936,0,0,1,.1.277c0,.167.508.565,1.073.842,4.757,2.323,13.4,3.522,21.743,3.014a43.272,43.272,0,0,0,10.126-1.737,13.419,13.419,0,0,0,3.731-1.732,1.585,1.585,0,0,0,.482-.822c.12-.319.3-.832.4-1.151s.225-.706.282-.863c.22-.644.628-2.224.785-3.035.089-.476.209-1.1.262-1.387s.188-1.02.3-1.622l.194-1.1.005-2.486a16.2,16.2,0,0,0-.45-5.081,18.781,18.781,0,0,0-1.313-4.024c-.089-.188-.2-.445-.261-.576a23.691,23.691,0,0,0-1.293-2.2,19.97,19.97,0,0,0-1.6-2.093,17.028,17.028,0,0,0-1.785-1.8,22.8,22.8,0,0,0-2.046-1.607,27.347,27.347,0,0,0-2.658-1.538,21.933,21.933,0,0,0-7.614-2.119C3285.205,876.244,3282.557,876.244,3281.814,876.3Z" transform="translate(-2641.865 -813.625)" fill="#c0fdff"/>
      <path id="path840-3" d="M3345.448,714.047a15.784,15.784,0,0,0-8.3,3.333,20.34,20.34,0,0,0-2.491,2.486,15.743,15.743,0,0,0-3.1,6.719,17.928,17.928,0,0,0-.209,4.38c.026.194.089.607.136.926a16.784,16.784,0,0,0,2.344,6.321,6.155,6.155,0,0,0,.445.68c.079.094.277.356.445.586a16.989,16.989,0,0,0,3.537,3.527,15.927,15.927,0,0,0,4.029,2.156,15.576,15.576,0,0,0,4.657.832,14.866,14.866,0,0,0,3.37-.445c.12-.037.508-.152.869-.262a8.98,8.98,0,0,0,.979-.345,3.433,3.433,0,0,1,.351-.152,11.308,11.308,0,0,0,1.46-.738,17.561,17.561,0,0,0,2.03-1.371,18.6,18.6,0,0,0,3.255-3.365,16.88,16.88,0,0,0,3.045-7.5c.047-.361.121-.811.167-1.01a12.891,12.891,0,0,0-.026-2.679,14.671,14.671,0,0,0-1.062-4.364,15.309,15.309,0,0,0-3.663-5.421A15.683,15.683,0,0,0,3345.448,714.047Zm2.831.471a15.147,15.147,0,0,1,9.822,4.893,14.41,14.41,0,0,1,2.831,4.537,15.336,15.336,0,0,1,1.1,5.484,11.4,11.4,0,0,1-.23,2.454,16.114,16.114,0,0,1-4.3,8.781,17,17,0,0,1-5.3,3.731c-.257.1-.539.22-.628.262a13.879,13.879,0,0,1-4.7.863,14.9,14.9,0,0,1-4.762-.947,16.048,16.048,0,0,1-6.447-4.652,20.858,20.858,0,0,1-2.062-3.087,15.525,15.525,0,0,1-1.549-10.23,15.125,15.125,0,0,1,3.108-6.6,18.938,18.938,0,0,1,2.36-2.318A15.188,15.188,0,0,1,3348.279,714.518Z" transform="translate(-2690.621 -687.745)"/>
      <path id="path844-5" d="M3324.1,861.255a4.635,4.635,0,0,1-.68.11,5.86,5.86,0,0,0-.727.11c-.084.026-.309.073-.5.1a6.637,6.637,0,0,0-.79.183c-.246.073-.607.178-.811.235-.492.147-1.386.445-1.805.6a18.472,18.472,0,0,0-1.7.722,8.194,8.194,0,0,0-.853.434.252.252,0,0,1-.141.068.252.252,0,0,0-.141.068.94.94,0,0,1-.236.136c-.094.037-.172.084-.172.1a2.021,2.021,0,0,1-.393.236,2.644,2.644,0,0,0-.45.272.18.18,0,0,1-.115.073,1.1,1.1,0,0,0-.267.173,2.744,2.744,0,0,1-.356.251c-.173.089-1.759,1.355-2.02,1.612a3.016,3.016,0,0,1-.324.277,3.983,3.983,0,0,0-.418.424c-.157.188-.534.617-.837.958a26.639,26.639,0,0,0-1.648,2.125c-.026.047-.188.277-.351.513a5.269,5.269,0,0,0-.3.45,3.149,3.149,0,0,1-.314.623.842.842,0,0,0-.162.277l-.256.56c-.083.173-.209.466-.288.654s-.178.434-.236.549a23.163,23.163,0,0,0-1.1,3.794c-.157.952-.22,1.366-.241,1.7a3.316,3.316,0,0,1-.079.523c-.058.188-.052.068-.068,1.7-.005.706.005,1.565.026,1.91a32.074,32.074,0,0,0,.492,3.715c.037.141.157.685.262,1.2s.2.958.215.979.1.377.209.785.251.968.345,1.245a34.32,34.32,0,0,0,1.177,3.359,2.486,2.486,0,0,0,.8.78c.555.288,1.25.628,1.361.654a.749.749,0,0,1,.194.089,1.393,1.393,0,0,0,.314.12c.136.042.418.136.617.209s.508.183.68.235.482.146.68.209.513.147.7.188a2.181,2.181,0,0,1,.419.12,2.376,2.376,0,0,0,.455.1,5.834,5.834,0,0,1,.628.136c.492.141,1.805.4,2.669.523a5.558,5.558,0,0,1,.654.126,5.951,5.951,0,0,0,.812.11,7.113,7.113,0,0,1,.837.1,31.324,31.324,0,0,0,3.219.288c.732.037,1.674.094,2.093.126.926.073,4.1.073,4.505.011.163-.026.916-.078,1.675-.11s1.465-.078,1.564-.11a9.081,9.081,0,0,1,1.073-.126c.492-.042,1.089-.11,1.334-.152a5.519,5.519,0,0,1,.628-.078.5.5,0,0,0,.235-.052,4.563,4.563,0,0,1,.812-.136,6.27,6.27,0,0,0,.926-.157.9.9,0,0,1,.314-.078.356.356,0,0,0,.2-.047,2.478,2.478,0,0,1,.544-.136,4.519,4.519,0,0,0,.576-.126,2.375,2.375,0,0,1,.424-.11,1.375,1.375,0,0,0,.393-.1,2,2,0,0,1,.393-.1,1.6,1.6,0,0,0,.393-.1,1.29,1.29,0,0,1,.288-.1,3.269,3.269,0,0,0,.34-.11,8.436,8.436,0,0,1,.864-.3,1.752,1.752,0,0,0,.3-.131.8.8,0,0,1,.23-.094,7.693,7.693,0,0,0,1.219-.581.373.373,0,0,1,.162-.068,3.738,3.738,0,0,0,.994-.785,1.636,1.636,0,0,0,.209-.351,36.636,36.636,0,0,0,1.167-3.579c.11-.4.241-.853.283-.994s.146-.638.22-1.1.173-.958.215-1.1.13-.665.209-1.151.178-1.12.236-1.4a15.72,15.72,0,0,0,.084-3.271c-.011-1.868-.037-2.831-.078-2.972-.031-.115-.1-.445-.142-.733a12.057,12.057,0,0,0-.335-1.7c-.057-.188-.167-.6-.246-.921a20.555,20.555,0,0,0-1.868-4.349c-.23-.361-.34-.549-.581-.958-.115-.188-.3-.476-.424-.633a4.3,4.3,0,0,1-.3-.45.882.882,0,0,0-.173-.236c-.047-.042-.251-.288-.45-.544a21.843,21.843,0,0,0-2.622-2.632c-.261-.2-.549-.44-.633-.529a.685.685,0,0,0-.2-.162,2.639,2.639,0,0,1-.429-.314,2.668,2.668,0,0,0-.429-.314,1.838,1.838,0,0,1-.33-.2c-.157-.11-.44-.288-.628-.4s-.377-.215-.419-.241a.963.963,0,0,0-.209-.1,3.71,3.71,0,0,1-.34-.178c-.115-.068-.351-.194-.523-.283-.288-.141-.5-.241-1.4-.659a1.645,1.645,0,0,0-.393-.136.4.4,0,0,1-.2-.073,1.425,1.425,0,0,0-.314-.131c-.115-.037-.278-.1-.366-.136a2.149,2.149,0,0,0-.34-.1.917.917,0,0,1-.235-.078,9.69,9.69,0,0,0-1.178-.345c-.157-.037-.382-.094-.5-.126a15.042,15.042,0,0,0-5.1-.5c-1.423-.01-2.637.005-2.695.026Zm4.945.534a25.064,25.064,0,0,1,3.3.6c.4.11,2.192.706,2.642.879a26.8,26.8,0,0,1,3.978,2.135,20.568,20.568,0,0,1,5.9,6.243c.419.706.722,1.24.816,1.449.361.8.424.942.424.968,0,.011.073.194.162.4a21.477,21.477,0,0,1,1.308,4.929,19.31,19.31,0,0,1,.115,3.244,19.513,19.513,0,0,1-.084,2.957c-.136.822-.392,2.25-.471,2.669-.042.214-.152.774-.241,1.24s-.219,1.031-.288,1.256-.157.513-.188.644c-.131.544-.57,1.873-1.041,3.2-.157.434-.387.644-1.156,1.052-2.658,1.413-7.017,2.454-11.983,2.868a64.577,64.577,0,0,1-6.777.162c-1.58-.057-3.564-.183-4.239-.267-.23-.026-.843-.1-1.361-.157a34.551,34.551,0,0,1-10.387-2.695c-.958-.482-1-.549-1.717-2.721a26.293,26.293,0,0,1-.822-2.721c-.068-.319-.152-.649-.178-.733s-.136-.565-.24-1.067-.194-.921-.209-.942c-.042-.073-.282-1.811-.366-2.632a34.462,34.462,0,0,1-.079-3.935c.026-.225.058-.612.079-.863a25.718,25.718,0,0,1,.733-3.851,20.835,20.835,0,0,1,1.669-3.951,22.145,22.145,0,0,1,1.633-2.454,25.709,25.709,0,0,1,2.559-2.726,21.031,21.031,0,0,1,6.206-3.783,21.522,21.522,0,0,1,5.28-1.34,19.157,19.157,0,0,1,2.643-.1c1.1,0,2.13.021,2.381.052Z" transform="translate(-2669.403 -801.965)"/>
      <path id="path842-70" d="M4139.055,1690.244a19.393,19.393,0,0,0-11.811,5.382,18.3,18.3,0,0,0-4.692,7.337,18.725,18.725,0,0,0-.955,8.683c.073.636.146,1.173.159,1.193s.106.4.206.835a21.606,21.606,0,0,0,7.245,11.645,19.463,19.463,0,0,0,8.755,4.056c.384.053.861.133,1.06.172a13.089,13.089,0,0,0,3.115.033,17.634,17.634,0,0,0,6.224-1.809,25,25,0,0,0,3.751-2.406c.331-.265.968-.842,1.412-1.286a20.341,20.341,0,0,0,5.74-10.081c.1-.437.219-.987.272-1.226s.146-.8.2-1.259a9.561,9.561,0,0,0,.179-2.83c-.046-.358-.126-1.041-.179-1.511a19.11,19.11,0,0,0-16.7-16.841A25.947,25.947,0,0,0,4139.055,1690.244Z" transform="translate(-3197.928 -1560.861)" fill="#ffdfc0"/>
      <path id="path846-8" d="M4102.909,1882.046a27.582,27.582,0,0,0-5.376,1.061,25.149,25.149,0,0,0-7.185,3.354,25.791,25.791,0,0,0-7.045,6.919,16.559,16.559,0,0,0-1.458,2.466,25.449,25.449,0,0,0-2.77,9.5c-.093.935-.133,4.354-.066,5.077.02.159.053.517.073.789.06.716.464,3.307.623,4.01.08.325.232,1.014.345,1.524.272,1.233.789,3.181.928,3.513.033.073.279.8.55,1.624s.557,1.611.636,1.756a1.2,1.2,0,0,1,.132.351c0,.212.643.716,1.359,1.067,6.025,2.943,16.967,4.461,27.538,3.818a54.806,54.806,0,0,0,12.825-2.2,17,17,0,0,0,4.726-2.194,2.007,2.007,0,0,0,.609-1.041c.153-.4.378-1.054.5-1.458s.285-.895.358-1.094c.278-.815.795-2.817.994-3.844.113-.6.265-1.392.332-1.756s.239-1.292.378-2.055l.245-1.392.007-3.148c0-3.778-.013-3.95-.57-6.436a23.817,23.817,0,0,0-1.663-5.1c-.113-.239-.259-.563-.332-.729a30.051,30.051,0,0,0-1.637-2.784,25.21,25.21,0,0,0-2.028-2.651,21.586,21.586,0,0,0-2.26-2.28,29.1,29.1,0,0,0-2.592-2.035,34.6,34.6,0,0,0-3.367-1.948,27.776,27.776,0,0,0-9.643-2.684C4107.2,1881.974,4103.85,1881.974,4102.909,1882.046Z" transform="translate(-3164.981 -1732.358)" fill="#ffdfc0"/>
      <path id="path840-8" d="M4183.5,1676.54a19.988,19.988,0,0,0-10.518,4.222,25.716,25.716,0,0,0-3.155,3.148,19.933,19.933,0,0,0-3.924,8.51,22.7,22.7,0,0,0-.265,5.547c.033.245.112.769.172,1.173a21.277,21.277,0,0,0,2.97,8.007,7.814,7.814,0,0,0,.563.861c.1.119.352.451.563.742a21.52,21.52,0,0,0,4.481,4.467,20.161,20.161,0,0,0,5.1,2.731,19.732,19.732,0,0,0,5.9,1.054,18.809,18.809,0,0,0,4.268-.563c.153-.046.644-.192,1.1-.331a11.325,11.325,0,0,0,1.239-.437,4.422,4.422,0,0,1,.444-.192,14.261,14.261,0,0,0,1.849-.935,22.132,22.132,0,0,0,2.572-1.736,23.553,23.553,0,0,0,4.123-4.262,21.377,21.377,0,0,0,3.857-9.5c.06-.457.152-1.027.212-1.279a16.385,16.385,0,0,0-.034-3.393,18.568,18.568,0,0,0-1.345-5.528,19.387,19.387,0,0,0-4.64-6.866A19.863,19.863,0,0,0,4183.5,1676.54Zm3.586.6a19.187,19.187,0,0,1,12.44,6.2,18.26,18.26,0,0,1,3.586,5.746,19.431,19.431,0,0,1,1.392,6.946,14.406,14.406,0,0,1-.292,3.108,20.4,20.4,0,0,1-5.448,11.121,21.523,21.523,0,0,1-6.714,4.726c-.325.133-.683.278-.8.331a17.586,17.586,0,0,1-5.952,1.094,18.882,18.882,0,0,1-6.031-1.2,20.32,20.32,0,0,1-8.165-5.892,26.4,26.4,0,0,1-2.612-3.911,19.668,19.668,0,0,1-1.962-12.957,19.162,19.162,0,0,1,3.937-8.364,23.942,23.942,0,0,1,2.989-2.936,19.236,19.236,0,0,1,13.626-4.01Z" transform="translate(-3232.149 -1549.024)"/>
      <path id="path844-2" d="M4156.473,1862.99a5.877,5.877,0,0,1-.861.139,7.388,7.388,0,0,0-.921.139c-.106.033-.391.093-.63.133a8.471,8.471,0,0,0-1,.232c-.312.093-.769.225-1.027.3-.623.186-1.756.563-2.286.762a23.239,23.239,0,0,0-2.154.915,10.2,10.2,0,0,0-1.081.55.32.32,0,0,1-.179.086.321.321,0,0,0-.179.086,1.179,1.179,0,0,1-.3.172c-.12.047-.218.106-.218.133a2.567,2.567,0,0,1-.5.3,3.368,3.368,0,0,0-.57.344.229.229,0,0,1-.146.093,1.391,1.391,0,0,0-.338.219,3.472,3.472,0,0,1-.451.318c-.219.113-2.227,1.717-2.559,2.042a3.828,3.828,0,0,1-.411.351,4.984,4.984,0,0,0-.53.537c-.2.239-.676.782-1.06,1.213a33.47,33.47,0,0,0-2.088,2.691c-.033.06-.239.351-.444.65a6.773,6.773,0,0,0-.385.57,3.957,3.957,0,0,1-.4.789,1.075,1.075,0,0,0-.206.351c-.079.172-.225.491-.325.709s-.265.59-.364.828-.225.55-.3.7a29.344,29.344,0,0,0-1.392,4.805c-.2,1.206-.278,1.73-.3,2.154a4.152,4.152,0,0,1-.1.663c-.072.239-.066.086-.086,2.154-.007.895.007,1.982.033,2.419a40.665,40.665,0,0,0,.623,4.706c.046.179.2.868.332,1.518s.251,1.213.271,1.239.132.477.265.994.318,1.226.438,1.577a43.332,43.332,0,0,0,1.491,4.255,3.151,3.151,0,0,0,1.014.988c.7.365,1.585.8,1.724.828a.954.954,0,0,1,.245.113,1.775,1.775,0,0,0,.4.152c.172.053.53.172.782.265s.643.232.862.3.61.186.862.265.649.186.881.239a2.8,2.8,0,0,1,.531.152,3.009,3.009,0,0,0,.576.133,7.328,7.328,0,0,1,.795.172c.623.179,2.287.5,3.38.663a7.052,7.052,0,0,1,.829.159,7.552,7.552,0,0,0,1.027.139,9,9,0,0,1,1.061.132,39.67,39.67,0,0,0,4.076.365c.928.047,2.121.119,2.651.159,1.173.093,5.189.093,5.706.013.205-.033,1.16-.1,2.121-.139s1.855-.1,1.981-.139a11.546,11.546,0,0,1,1.359-.159c.623-.053,1.378-.139,1.69-.192a7.069,7.069,0,0,1,.795-.1.635.635,0,0,0,.3-.066,5.775,5.775,0,0,1,1.027-.172,7.935,7.935,0,0,0,1.173-.2,1.135,1.135,0,0,1,.4-.1.449.449,0,0,0,.252-.06,3.17,3.17,0,0,1,.689-.172,5.665,5.665,0,0,0,.729-.159,3.052,3.052,0,0,1,.538-.139,1.738,1.738,0,0,0,.5-.132,2.552,2.552,0,0,1,.5-.133,2.008,2.008,0,0,0,.5-.132,1.641,1.641,0,0,1,.365-.126,4.264,4.264,0,0,0,.431-.139,10.616,10.616,0,0,1,1.094-.378,2.262,2.262,0,0,0,.384-.166,1,1,0,0,1,.292-.119,9.718,9.718,0,0,0,1.544-.736.471.471,0,0,1,.206-.086,4.727,4.727,0,0,0,1.259-.994,2.1,2.1,0,0,0,.266-.444,46.44,46.44,0,0,0,1.478-4.534c.14-.51.3-1.08.358-1.259a14.129,14.129,0,0,0,.278-1.392c.1-.583.219-1.213.271-1.392s.166-.842.266-1.458.225-1.418.3-1.77c.126-.6.132-.862.106-4.142-.013-2.366-.046-3.586-.1-3.765-.04-.146-.126-.563-.18-.928a15.363,15.363,0,0,0-.424-2.147c-.073-.239-.212-.762-.312-1.167a26.054,26.054,0,0,0-2.366-5.508c-.292-.457-.431-.7-.735-1.213-.146-.239-.385-.6-.537-.8a5.374,5.374,0,0,1-.384-.57,1.123,1.123,0,0,0-.219-.3c-.06-.053-.317-.365-.57-.689a27.7,27.7,0,0,0-3.32-3.334c-.332-.258-.7-.557-.8-.669a.857.857,0,0,0-.258-.205,3.334,3.334,0,0,1-.543-.4,3.334,3.334,0,0,0-.543-.4,2.337,2.337,0,0,1-.417-.252c-.2-.139-.557-.365-.8-.5s-.477-.272-.53-.3a1.227,1.227,0,0,0-.265-.132,4.716,4.716,0,0,1-.431-.225c-.146-.086-.444-.245-.663-.358-.364-.179-.629-.3-1.77-.835a2.078,2.078,0,0,0-.5-.172.514.514,0,0,1-.252-.093,1.787,1.787,0,0,0-.4-.166c-.146-.046-.352-.126-.464-.172a2.75,2.75,0,0,0-.431-.133,1.16,1.16,0,0,1-.3-.1,12.317,12.317,0,0,0-1.491-.437c-.2-.046-.484-.119-.63-.159-2.187-.577-2.6-.616-6.462-.636C4158.083,1862.943,4156.545,1862.963,4156.473,1862.99Zm6.264.676a31.676,31.676,0,0,1,4.175.762c.5.139,2.777.895,3.347,1.114a33.925,33.925,0,0,1,5.037,2.7,26.047,26.047,0,0,1,7.477,7.907c.53.895.915,1.571,1.034,1.836.457,1.014.536,1.193.536,1.226,0,.013.093.245.206.5a27.246,27.246,0,0,1,1.657,6.243,61.712,61.712,0,0,1,.04,7.854c-.172,1.04-.5,2.85-.6,3.38-.053.272-.192.981-.3,1.571s-.278,1.306-.364,1.591-.2.649-.239.815c-.166.689-.722,2.373-1.319,4.05-.2.55-.49.815-1.464,1.332-3.367,1.79-8.888,3.109-15.178,3.632a81.817,81.817,0,0,1-8.583.206c-2-.073-4.514-.232-5.369-.338-.292-.033-1.067-.126-1.723-.2a43.764,43.764,0,0,1-13.156-3.413c-1.213-.61-1.266-.7-2.174-3.447a33.12,33.12,0,0,1-1.041-3.446c-.086-.4-.191-.822-.225-.928s-.172-.716-.3-1.352-.246-1.167-.266-1.193c-.053-.093-.358-2.293-.464-3.334a43.49,43.49,0,0,1-.1-4.984c.033-.285.073-.775.1-1.094a32.522,32.522,0,0,1,.928-4.878,26.449,26.449,0,0,1,2.114-5,28.1,28.1,0,0,1,2.068-3.108,32.622,32.622,0,0,1,3.24-3.453,26.647,26.647,0,0,1,7.861-4.792,27.263,27.263,0,0,1,6.688-1.7,24.277,24.277,0,0,1,3.347-.133c1.392,0,2.7.027,3.016.066Z" transform="translate(-3206.641 -1715.897)"/>
      <path id="path842-2" d="M1509.019,2236.12a18.042,18.042,0,0,0-10.989,5.007,17.031,17.031,0,0,0-4.366,6.826,17.425,17.425,0,0,0-.888,8.078c.068.592.136,1.092.148,1.11s.1.37.191.777a20.1,20.1,0,0,0,6.74,10.835,18.114,18.114,0,0,0,8.146,3.774c.358.05.8.123.987.16a12.192,12.192,0,0,0,2.9.031,16.408,16.408,0,0,0,5.79-1.683,23.268,23.268,0,0,0,3.49-2.239c.308-.247.9-.783,1.314-1.2a18.923,18.923,0,0,0,5.34-9.379c.093-.407.2-.919.253-1.141s.136-.746.185-1.172a8.878,8.878,0,0,0,.166-2.633c-.043-.333-.117-.969-.166-1.406a17.778,17.778,0,0,0-15.54-15.669A24.149,24.149,0,0,0,1509.019,2236.12Z" transform="translate(-1483.776 -2041.068)" fill="#bdc2ff"/>
      <path id="path846-28" d="M1475.388,2414.574a25.7,25.7,0,0,0-5,.987,23.39,23.39,0,0,0-6.684,3.12,23.986,23.986,0,0,0-6.555,6.438,15.421,15.421,0,0,0-1.357,2.294,23.677,23.677,0,0,0-2.578,8.837c-.086.87-.123,4.052-.062,4.724.018.148.049.481.068.734.056.666.432,3.077.58,3.731.074.3.216.944.321,1.418.253,1.147.734,2.96.863,3.268.031.068.259.746.512,1.511s.518,1.5.592,1.634a1.116,1.116,0,0,1,.123.327c0,.2.6.666,1.264.993,5.605,2.738,15.786,4.15,25.622,3.552a51,51,0,0,0,11.932-2.047,15.829,15.829,0,0,0,4.4-2.041,1.87,1.87,0,0,0,.567-.968c.142-.376.351-.981.469-1.357s.265-.833.333-1.017c.259-.759.74-2.621.925-3.577.1-.561.247-1.295.308-1.634s.222-1.2.351-1.912l.228-1.3.006-2.929a19.081,19.081,0,0,0-.53-5.988,22.16,22.16,0,0,0-1.548-4.742c-.1-.222-.24-.524-.308-.678a27.935,27.935,0,0,0-1.523-2.59,23.427,23.427,0,0,0-1.887-2.467,20.064,20.064,0,0,0-2.1-2.121,26.926,26.926,0,0,0-2.411-1.893,32.249,32.249,0,0,0-3.133-1.813,25.842,25.842,0,0,0-8.972-2.5c-.814-.068-3.934-.068-4.81,0Z" transform="translate(-1453.121 -2213.528)" fill="#bdc2ff"/>
      <path id="path840-13" d="M1550.375,2223.37a18.6,18.6,0,0,0-9.786,3.928,23.958,23.958,0,0,0-2.935,2.929,18.548,18.548,0,0,0-3.651,7.918,21.13,21.13,0,0,0-.247,5.162c.031.228.1.715.16,1.091a19.79,19.79,0,0,0,2.763,7.449,7.247,7.247,0,0,0,.524.8c.092.111.327.419.524.691a20.029,20.029,0,0,0,4.168,4.156,18.768,18.768,0,0,0,4.748,2.541,18.358,18.358,0,0,0,5.488.98,17.527,17.527,0,0,0,3.971-.524c.142-.043.6-.179,1.024-.309a10.558,10.558,0,0,0,1.153-.407,4.018,4.018,0,0,1,.413-.179,13.323,13.323,0,0,0,1.72-.869,20.647,20.647,0,0,0,2.393-1.616,21.923,21.923,0,0,0,3.836-3.965,19.894,19.894,0,0,0,3.589-8.843c.056-.426.142-.956.2-1.19a15.226,15.226,0,0,0-.031-3.157,17.279,17.279,0,0,0-1.252-5.143,18.038,18.038,0,0,0-4.317-6.389A18.482,18.482,0,0,0,1550.375,2223.37Zm3.336.555a17.851,17.851,0,0,1,11.575,5.766,16.981,16.981,0,0,1,3.336,5.346,18.068,18.068,0,0,1,1.295,6.463,13.4,13.4,0,0,1-.271,2.892,18.989,18.989,0,0,1-5.069,10.348,20.021,20.021,0,0,1-6.247,4.4c-.3.124-.635.259-.74.309a16.347,16.347,0,0,1-5.538,1.018,17.558,17.558,0,0,1-5.612-1.116,18.91,18.91,0,0,1-7.6-5.482,24.6,24.6,0,0,1-2.43-3.638,18.3,18.3,0,0,1-1.825-12.056,17.83,17.83,0,0,1,3.663-7.782,22.31,22.31,0,0,1,2.781-2.732A17.9,17.9,0,0,1,1553.712,2223.925Z" transform="translate(-1515.615 -2030.195)"/>
      <path id="path844-3" d="M1525.225,2396.843a5.45,5.45,0,0,1-.8.13,6.921,6.921,0,0,0-.857.129c-.1.031-.364.086-.586.124a7.755,7.755,0,0,0-.931.216c-.29.086-.715.209-.956.277-.58.173-1.634.524-2.128.709-.937.358-1.122.438-2,.851a9.64,9.64,0,0,0-1.005.512.3.3,0,0,1-.166.08.3.3,0,0,0-.166.08,1.1,1.1,0,0,1-.278.16c-.111.043-.2.1-.2.124a2.39,2.39,0,0,1-.463.277,3.114,3.114,0,0,0-.53.321.211.211,0,0,1-.136.086,1.3,1.3,0,0,0-.314.2,3.192,3.192,0,0,1-.419.3c-.2.1-2.072,1.6-2.38,1.9a3.565,3.565,0,0,1-.382.327,4.655,4.655,0,0,0-.493.5c-.185.222-.629.728-.987,1.128a31.424,31.424,0,0,0-1.942,2.5c-.031.056-.222.327-.413.6a6.162,6.162,0,0,0-.358.53,3.712,3.712,0,0,1-.37.734,1,1,0,0,0-.191.327c-.074.16-.21.456-.3.659s-.247.549-.339.771-.21.512-.277.648a27.252,27.252,0,0,0-1.295,4.471c-.185,1.122-.259,1.61-.284,2a3.914,3.914,0,0,1-.093.617c-.068.222-.062.08-.08,2-.006.833.006,1.844.031,2.251a37.774,37.774,0,0,0,.58,4.378c.043.166.185.808.308,1.412s.234,1.129.253,1.153.124.444.247.925.3,1.141.407,1.468a40.319,40.319,0,0,0,1.387,3.958,2.925,2.925,0,0,0,.944.919c.654.339,1.474.74,1.6.771a.884.884,0,0,1,.228.1,1.651,1.651,0,0,0,.37.142c.16.049.493.16.728.247s.6.216.8.277.567.173.8.247.6.173.82.222a2.574,2.574,0,0,1,.493.142,2.834,2.834,0,0,0,.536.123,6.844,6.844,0,0,1,.74.16c.58.167,2.127.469,3.145.617a6.556,6.556,0,0,1,.771.148,7.043,7.043,0,0,0,.956.129,8.321,8.321,0,0,1,.987.123,36.832,36.832,0,0,0,3.792.339c.863.043,1.973.111,2.467.148,1.091.086,4.828.086,5.309.012.191-.031,1.079-.093,1.973-.129s1.727-.093,1.844-.13a10.628,10.628,0,0,1,1.264-.148c.58-.049,1.283-.13,1.573-.179a6.589,6.589,0,0,1,.74-.093.593.593,0,0,0,.278-.062,5.375,5.375,0,0,1,.956-.16,7.366,7.366,0,0,0,1.091-.185,1.059,1.059,0,0,1,.37-.093.415.415,0,0,0,.234-.056,2.959,2.959,0,0,1,.641-.16,5.3,5.3,0,0,0,.678-.148,2.824,2.824,0,0,1,.5-.13,1.625,1.625,0,0,0,.463-.123,2.339,2.339,0,0,1,.462-.123,1.873,1.873,0,0,0,.463-.124,1.526,1.526,0,0,1,.339-.117,3.883,3.883,0,0,0,.4-.129,9.937,9.937,0,0,1,1.018-.352,2.037,2.037,0,0,0,.358-.154.941.941,0,0,1,.271-.111,9.051,9.051,0,0,0,1.437-.685.434.434,0,0,1,.191-.08,4.4,4.4,0,0,0,1.172-.925,1.925,1.925,0,0,0,.247-.413,43.153,43.153,0,0,0,1.375-4.218c.13-.475.284-1,.333-1.171a13.1,13.1,0,0,0,.259-1.3c.093-.543.2-1.129.253-1.295s.154-.783.247-1.357.21-1.32.278-1.646a18.525,18.525,0,0,0,.1-3.854c-.012-2.2-.043-3.336-.093-3.5-.037-.135-.117-.524-.167-.864a14.24,14.24,0,0,0-.395-2c-.068-.222-.2-.709-.29-1.085a24.192,24.192,0,0,0-2.2-5.125c-.271-.426-.4-.647-.685-1.128-.136-.222-.358-.561-.5-.746a5.031,5.031,0,0,1-.358-.531,1.044,1.044,0,0,0-.2-.278c-.056-.049-.3-.339-.53-.641a25.745,25.745,0,0,0-3.089-3.1c-.308-.24-.647-.518-.746-.623a.8.8,0,0,0-.24-.191,3.117,3.117,0,0,1-.506-.37,3.107,3.107,0,0,0-.506-.37,2.179,2.179,0,0,1-.388-.234c-.185-.129-.518-.339-.74-.469s-.444-.253-.493-.284a1.139,1.139,0,0,0-.247-.123,4.465,4.465,0,0,1-.4-.21c-.135-.08-.413-.228-.616-.333-.339-.167-.586-.284-1.647-.777a1.931,1.931,0,0,0-.463-.16.478.478,0,0,1-.234-.086,1.654,1.654,0,0,0-.37-.154c-.136-.043-.327-.117-.432-.16a2.54,2.54,0,0,0-.4-.123,1.075,1.075,0,0,1-.277-.093,11.466,11.466,0,0,0-1.388-.407c-.185-.043-.45-.111-.586-.148-2.035-.537-2.424-.573-6.012-.592C1526.723,2396.8,1525.293,2396.819,1525.225,2396.843Zm5.827.629a29.566,29.566,0,0,1,3.885.709c.469.13,2.584.833,3.114,1.036a31.6,31.6,0,0,1,4.687,2.516,24.243,24.243,0,0,1,6.956,7.357c.493.833.851,1.462.962,1.708.426.944.5,1.11.5,1.141,0,.012.086.228.191.469a25.316,25.316,0,0,1,1.542,5.809,57.375,57.375,0,0,1,.037,7.307c-.16.968-.463,2.652-.555,3.145-.049.253-.179.913-.284,1.461s-.259,1.215-.339,1.48-.185.6-.222.759c-.154.641-.672,2.207-1.227,3.768-.185.512-.456.758-1.363,1.239-3.133,1.665-8.27,2.892-14.121,3.379a76.231,76.231,0,0,1-7.986.191c-1.862-.068-4.2-.216-5-.315-.271-.031-.993-.117-1.6-.185a40.731,40.731,0,0,1-12.241-3.176c-1.129-.567-1.178-.647-2.023-3.207a30.8,30.8,0,0,1-.968-3.207c-.08-.376-.179-.765-.21-.863s-.16-.666-.284-1.258-.228-1.085-.247-1.11c-.049-.086-.333-2.134-.432-3.1a40.553,40.553,0,0,1-.093-4.637c.031-.265.068-.722.093-1.018a30.327,30.327,0,0,1,.863-4.539,24.549,24.549,0,0,1,1.967-4.656,26.14,26.14,0,0,1,1.924-2.892,30.358,30.358,0,0,1,3.016-3.213,24.786,24.786,0,0,1,7.313-4.458,25.361,25.361,0,0,1,6.222-1.579,22.645,22.645,0,0,1,3.114-.123C1529.542,2397.41,1530.756,2397.435,1531.052,2397.472Z" transform="translate(-1491.882 -2199.786)"/>
      <path id="path943" d="M4161.217,606.452a13.238,13.238,0,0,0-8.062,3.673,12.494,12.494,0,0,0-3.2,5.008,12.775,12.775,0,0,0-.652,5.926c.049.434.1.8.109.814s.072.271.14.57a14.744,14.744,0,0,0,4.944,7.948,13.288,13.288,0,0,0,5.976,2.768c.263.036.588.091.724.118a8.947,8.947,0,0,0,2.126.023,12.041,12.041,0,0,0,4.248-1.235,17.084,17.084,0,0,0,2.561-1.642c.226-.181.66-.574.963-.878a13.875,13.875,0,0,0,3.918-6.88c.068-.3.149-.674.185-.837s.1-.547.136-.859a6.55,6.55,0,0,0,.123-1.932c-.032-.244-.086-.71-.123-1.031a13.042,13.042,0,0,0-11.4-11.494,17.7,17.7,0,0,0-2.714-.059Z" transform="translate(-3219.454 -604.318)" fill="#bdc2ff"/>
      <path id="path945" d="M4136.546,737.357a18.826,18.826,0,0,0-3.668.724,17.171,17.171,0,0,0-4.9,2.289,17.6,17.6,0,0,0-4.808,4.723,11.282,11.282,0,0,0-1,1.683,17.373,17.373,0,0,0-1.891,6.482c-.063.638-.09,2.972-.045,3.465.014.109.036.353.05.538.041.488.316,2.257.425,2.737.054.222.158.692.235,1.04.186.841.539,2.171.634,2.4.022.05.189.547.375,1.108s.38,1.1.435,1.2a.827.827,0,0,1,.09.24c0,.145.438.489.927.728,4.112,2.008,11.58,3.044,18.8,2.605a37.409,37.409,0,0,0,8.753-1.5,11.6,11.6,0,0,0,3.225-1.5,1.369,1.369,0,0,0,.416-.71c.1-.276.258-.719.344-1s.195-.611.245-.746c.19-.556.542-1.922.679-2.624.077-.412.181-.95.226-1.2s.163-.882.258-1.4l.167-.95,0-2.149a13.986,13.986,0,0,0-.389-4.392,16.25,16.25,0,0,0-1.135-3.479c-.077-.163-.176-.384-.227-.5a20.523,20.523,0,0,0-1.117-1.9,17.184,17.184,0,0,0-1.385-1.809,14.688,14.688,0,0,0-1.542-1.556,19.73,19.73,0,0,0-1.768-1.389,23.683,23.683,0,0,0-2.3-1.33,18.963,18.963,0,0,0-6.582-1.832C4139.478,737.308,4137.189,737.308,4136.546,737.357Z" transform="translate(-3196.968 -705.853)" fill="#bdc2ff"/>
      <path id="path947" d="M4191.553,597.1a13.643,13.643,0,0,0-7.179,2.882,17.53,17.53,0,0,0-2.153,2.149,13.613,13.613,0,0,0-2.678,5.808,15.518,15.518,0,0,0-.181,3.786c.023.167.077.525.118.8a14.516,14.516,0,0,0,2.026,5.464,5.286,5.286,0,0,0,.385.588c.068.081.239.308.384.507a14.7,14.7,0,0,0,3.058,3.049,13.764,13.764,0,0,0,3.483,1.864,13.465,13.465,0,0,0,4.026.719,12.855,12.855,0,0,0,2.914-.384l.75-.226a7.7,7.7,0,0,0,.846-.3,3.008,3.008,0,0,1,.3-.131,9.78,9.78,0,0,0,1.262-.638,15.151,15.151,0,0,0,1.755-1.185,16.092,16.092,0,0,0,2.813-2.909,14.6,14.6,0,0,0,2.633-6.487c.041-.312.1-.7.145-.873a11.178,11.178,0,0,0-.022-2.316,12.682,12.682,0,0,0-.918-3.773,13.233,13.233,0,0,0-3.167-4.686,13.557,13.557,0,0,0-10.6-3.709Zm2.447.407a13.094,13.094,0,0,1,8.491,4.229,12.463,12.463,0,0,1,2.447,3.922,13.26,13.26,0,0,1,.95,4.741,9.835,9.835,0,0,1-.2,2.122,13.927,13.927,0,0,1-3.718,7.59,14.688,14.688,0,0,1-4.582,3.225c-.222.091-.466.19-.543.226a12,12,0,0,1-4.062.746,12.878,12.878,0,0,1-4.116-.819,13.869,13.869,0,0,1-5.573-4.021,18.016,18.016,0,0,1-1.782-2.669,13.425,13.425,0,0,1-1.339-8.844,13.073,13.073,0,0,1,2.687-5.709,16.338,16.338,0,0,1,2.04-2A13.128,13.128,0,0,1,4194,597.507Z" transform="translate(-3242.809 -597.038)"/>
      <path id="path949" d="M4173.1,724.351a4.014,4.014,0,0,1-.588.095,5.066,5.066,0,0,0-.629.095,4.359,4.359,0,0,1-.43.09,5.725,5.725,0,0,0-.683.158c-.213.063-.525.154-.7.2-.426.127-1.2.384-1.561.52a15.873,15.873,0,0,0-1.471.624,7.091,7.091,0,0,0-.737.375.219.219,0,0,1-.122.059.222.222,0,0,0-.122.059.8.8,0,0,1-.2.118c-.082.032-.149.072-.149.09a1.763,1.763,0,0,1-.34.2,2.322,2.322,0,0,0-.389.235.156.156,0,0,1-.1.063.953.953,0,0,0-.23.149,2.4,2.4,0,0,1-.308.217c-.149.077-1.52,1.172-1.746,1.393a2.5,2.5,0,0,1-.281.24,3.5,3.5,0,0,0-.362.366c-.136.163-.461.534-.724.828a23.005,23.005,0,0,0-1.425,1.837c-.022.041-.163.24-.3.443a4.455,4.455,0,0,0-.262.389,2.731,2.731,0,0,1-.271.538.724.724,0,0,0-.141.24l-.221.484c-.073.149-.181.4-.249.565s-.154.375-.2.475a20.017,20.017,0,0,0-.95,3.28c-.136.823-.19,1.181-.208,1.47a2.912,2.912,0,0,1-.067.452c-.05.163-.045.059-.059,1.47,0,.611,0,1.353.022,1.651a27.656,27.656,0,0,0,.425,3.212c.032.122.136.593.227,1.036s.172.828.186.846.09.326.181.679.217.837.3,1.077a29.606,29.606,0,0,0,1.018,2.9,2.146,2.146,0,0,0,.692.674c.479.249,1.081.543,1.176.565a.638.638,0,0,1,.167.077,1.229,1.229,0,0,0,.271.1c.118.036.362.118.534.181s.438.158.588.2.416.127.588.181.443.127.6.163a1.9,1.9,0,0,1,.362.1,2.063,2.063,0,0,0,.394.09,5,5,0,0,1,.542.118c.425.122,1.561.344,2.307.452a4.822,4.822,0,0,1,.565.109,5.131,5.131,0,0,0,.7.1,6.143,6.143,0,0,1,.724.09,27.129,27.129,0,0,0,2.782.249c.633.032,1.448.081,1.81.109.8.063,3.542.063,3.9.009.14-.023.792-.068,1.447-.095s1.267-.068,1.353-.1a7.849,7.849,0,0,1,.928-.109c.425-.036.94-.1,1.153-.131a4.766,4.766,0,0,1,.543-.068.432.432,0,0,0,.2-.045,3.95,3.95,0,0,1,.7-.118,5.4,5.4,0,0,0,.8-.136.769.769,0,0,1,.271-.068.306.306,0,0,0,.172-.041,2.148,2.148,0,0,1,.47-.118,3.9,3.9,0,0,0,.5-.109,2.072,2.072,0,0,1,.366-.095,1.2,1.2,0,0,0,.34-.091,1.714,1.714,0,0,1,.339-.09,1.385,1.385,0,0,0,.34-.09,1.105,1.105,0,0,1,.248-.086,2.876,2.876,0,0,0,.294-.1,7.211,7.211,0,0,1,.747-.258,1.525,1.525,0,0,0,.262-.113.683.683,0,0,1,.2-.081,6.64,6.64,0,0,0,1.053-.5.32.32,0,0,1,.141-.059,3.242,3.242,0,0,0,.859-.678,1.373,1.373,0,0,0,.181-.3,31.558,31.558,0,0,0,1.009-3.094c.1-.348.208-.737.244-.859a9.554,9.554,0,0,0,.19-.95c.068-.4.149-.828.186-.95s.113-.575.181-1,.154-.968.2-1.208a13.557,13.557,0,0,0,.072-2.827c-.009-1.615-.032-2.447-.068-2.569-.027-.1-.086-.384-.122-.633a10.4,10.4,0,0,0-.29-1.466c-.049-.163-.145-.52-.212-.8a17.738,17.738,0,0,0-1.615-3.759c-.2-.312-.294-.475-.5-.828-.1-.163-.262-.412-.366-.547a3.746,3.746,0,0,1-.263-.389.756.756,0,0,0-.149-.2c-.041-.036-.217-.249-.389-.471a18.889,18.889,0,0,0-2.267-2.275c-.226-.176-.475-.38-.547-.457a.593.593,0,0,0-.177-.14,2.316,2.316,0,0,1-.371-.271,2.286,2.286,0,0,0-.371-.271,1.611,1.611,0,0,1-.285-.172c-.135-.1-.379-.249-.542-.344s-.326-.185-.362-.208a.839.839,0,0,0-.181-.09,3.237,3.237,0,0,1-.294-.154c-.1-.059-.3-.167-.452-.244-.249-.122-.43-.208-1.208-.57a1.428,1.428,0,0,0-.339-.118.349.349,0,0,1-.172-.063,1.249,1.249,0,0,0-.271-.113c-.1-.032-.24-.086-.317-.118a1.854,1.854,0,0,0-.294-.09.794.794,0,0,1-.2-.068,8.339,8.339,0,0,0-1.018-.3c-.136-.032-.331-.081-.43-.109a13,13,0,0,0-4.411-.434C4174.2,724.319,4173.153,724.333,4173.1,724.351Zm4.275.461a21.672,21.672,0,0,1,2.85.52c.344.1,1.9.611,2.284.76a23.2,23.2,0,0,1,3.438,1.846,17.78,17.78,0,0,1,5.1,5.4c.362.611.625,1.072.706,1.253.312.692.366.814.366.837s.063.167.14.344a18.587,18.587,0,0,1,1.131,4.261,42.173,42.173,0,0,1,.027,5.36c-.117.71-.339,1.945-.407,2.307-.036.185-.131.669-.208,1.072s-.19.891-.249,1.086-.136.443-.163.556c-.113.47-.493,1.619-.9,2.764-.136.375-.335.556-1,.909a28.809,28.809,0,0,1-10.359,2.479,55.8,55.8,0,0,1-5.858.14c-1.366-.05-3.081-.158-3.664-.231-.2-.023-.729-.086-1.176-.136a29.873,29.873,0,0,1-8.979-2.33c-.827-.416-.863-.475-1.483-2.352a22.672,22.672,0,0,1-.71-2.352c-.059-.276-.131-.561-.154-.633s-.117-.489-.208-.923-.167-.8-.181-.814c-.036-.063-.244-1.565-.316-2.275a29.853,29.853,0,0,1-.068-3.4c.023-.194.05-.529.068-.746a22.225,22.225,0,0,1,.633-3.329,18.029,18.029,0,0,1,1.443-3.415,19.2,19.2,0,0,1,1.411-2.122,22.187,22.187,0,0,1,2.212-2.357,18.184,18.184,0,0,1,5.365-3.271,18.6,18.6,0,0,1,4.564-1.158,16.572,16.572,0,0,1,2.285-.09C4176.27,724.767,4177.161,724.785,4177.378,724.812Z" transform="translate(-3225.4 -695.773)"/>
    </g>
    <g id="layer10" transform="translate(588.902 500.405)">
      <path id="path6-3-2" d="M1333.372,2399.806c-2.944.045-11.955.1-20.018.123-10.46.033-14.843.078-15.278.178a11.854,11.854,0,0,0-6.312,3.513,14.428,14.428,0,0,0-4.015,7.427c-.257,1.126-.335,7.717-.167,14.553.067,2.755.167,7.951.234,11.542s.223,9.836.346,13.884.29,10.115.379,13.494c.268,9.936.479,15.077.658,15.892a14.056,14.056,0,0,0,9.289,10.137c1.717.58,1.985.591,11.91.613,8.71.023,12.077-.044,20.687-.379,6.981-.268,22.538-1.3,28.66-1.9a11.1,11.1,0,0,0,6-2.23,17.765,17.765,0,0,0,3.345-3.6,17.175,17.175,0,0,0,2.2-5.386c.212-.948.468-7.4.836-20.564.056-2.119.156-5.632.223-7.806.279-9.869.357-12.468.446-16.17.056-2.175.156-5.241.223-6.8.346-7.951.457-10.393.569-12.39.212-3.568-.1-5.431-1.282-7.851a11.476,11.476,0,0,0-7.371-6.056l-1.115-.3-12.546-.011c-6.9,0-14.955.033-17.9.089Zm-23.921,10.516c1.316.089,3.5.268,4.851.39s3.033.268,3.736.334,1.684.156,2.175.223,1.394.156,2.007.212c2.074.212,6.568.68,7.639.792.58.067,2.677.268,4.65.446s3.9.413,4.293.5a6.661,6.661,0,0,1,4.617,4.438c.379,1.126.39,1.672.178,8.72-.078,2.7-.156,9.869-.167,15.947l-.022,11.04-.3.892a11.7,11.7,0,0,1-1.572,2.933,8.832,8.832,0,0,1-2.242,1.595,7.167,7.167,0,0,1-2.375.546,67.43,67.43,0,0,1-7.226.546c-2.8.1-4.36.1-8.977-.044-5.23-.145-15.211-.77-16.115-1a9.891,9.891,0,0,1-3.368-1.784,7.769,7.769,0,0,1-2.1-3.189c-.3-.97-.312-1.093-.558-6.178-.089-1.907-.223-4.26-.279-5.241s-.19-3.011-.279-4.516c-.256-4.026-.446-6.914-1.071-15.724-.323-4.494-.323-6.4-.011-7.4a6.957,6.957,0,0,1,4.405-4.55,9.676,9.676,0,0,1,3.2-.145c1.383.034,3.591.134,4.907.223Z" transform="translate(-1287.494 -2399.717)" fill="#ffaaf3" opacity="0.755"/>
    </g>
  </g>
</svg>
