<svg id="contactus" xmlns="http://www.w3.org/2000/svg" width="353.546" height="351.445" viewBox="0 0 353.546 351.445">
  <path id="Path_678" data-name="Path 678" d="M302.2,145.6l66.6-14.2.6,6.6-7.2,46.6L325,189.8l-21-31.5-3.5-10.9" transform="translate(-238.817 -118.2)" fill="#ebe200" fill-rule="evenodd"/>
  <path id="Path_679" data-name="Path 679" d="M259.8,365.2l40.8-30.1,7.6,2.4-5.5,55.8-22,12-9.3-1.3-14.1-37.6Z" transform="translate(-238.817 -118.2)" fill="#74c5bf" fill-rule="evenodd"/>
  <path id="Path_680" data-name="Path 680" d="M523.2,138.4l-9.9,10.5-.3,45.8L560.7,205l17.1-54.7-1.3-6.3Z" transform="translate(-238.817 -118.2)" fill="#7ac191" fill-rule="evenodd"/>
  <path id="Path_681" data-name="Path 681" d="M370.1,238l.4,20.8,16.2,57.6,54.6,3.3,11.4-68,2.3-9-1.7-5Z" transform="translate(-238.817 -118.2)" fill="#7ac191" fill-rule="evenodd"/>
  <path id="Path_682" data-name="Path 682" d="M484,370.3l52.8-32.4,3.9,8.4-12.1,61.4-35.4,15.7-9-5.1Z" transform="translate(-238.817 -118.2)" fill="#ebe200" fill-rule="evenodd"/>
  <path id="Path_683" data-name="Path 683" d="M521.8,141.2s10.1,1.1,13.6,1.6c2.5.3,4.9.8,7.4,1.1,3.1.4,6.3.7,9.4,1.1,2.3.3,4.6.6,6.9.8h.1c2,.1,4.1.2,6.1.2,2.5,0,4.9-.1,7.4-.1a1.865,1.865,0,0,1,1.9,1.5c.6,2.5,1.2,5.1,1.6,7.7a5.6,5.6,0,0,1-.5,2.5c-.6,2.1-1.2,4.1-1.9,6.2-.4,1.2-.9,2.3-1.3,3.5-.8,2.2-1.5,4.5-2.2,6.8-.4,1.3-.7,2.6-1.1,3.8a10.2,10.2,0,0,0-.3,5.5,67.716,67.716,0,0,1,1.8,17.4,11.337,11.337,0,0,1-.6,3.1c-.4,1.2-.9,2.4-1.3,3.7-.3.9-.9,1.3-1.6,1.2-.9-.2-1.1-.8-1-1.6a6.529,6.529,0,0,1,.5-2,13.231,13.231,0,0,0,1.3-7.3c-.3-3-.6-6.1-.9-9.1,0-.2-.1-.3-.1-.5-.1.2-.2.3-.3.5l-4.5,15.9c-.7,2.5-1,5.1-1.9,7.5-.8,2.4-1.8,2.6-4,1.9-2.1-.7-4.1-1.7-6.2-2.2a55.369,55.369,0,0,0-7.1-1.2,1.234,1.234,0,0,0-.8.4,4.657,4.657,0,0,0-.6,2c-.3,3.8-.6,7.7-.9,11.5a3.627,3.627,0,0,1-1.3,2.5c-1,.8-1.8,1.7-2.8,2.4-.6.4-1.1,1.1-2,.8a2.021,2.021,0,0,1-.7-3.2c.6-.8,1.3-1.6,1.9-2.5a10.733,10.733,0,0,0,1.8-5.8c.2-2.4.6-4.9.9-7.3.2-1.2-.1-1.6-1.2-1.9-2.8-.6-5.5-1.2-8.3-1.8-1.3-.3-2.5-.5-3.8-.8-1.1-.2-1.7,0-1.7,1.2-.1,3.4-1.2,6.7-.4,10.1a3.3,3.3,0,0,1,0,1.4,1.554,1.554,0,0,1-1.5,1.8,9.828,9.828,0,0,0-5.1,2.5,6.07,6.07,0,0,1-1,.7c-.6.3-1.2.7-1.8.1a2.161,2.161,0,0,1-.1-2.2,7.411,7.411,0,0,1,1.2-1.3c1.2-1,2.3-1.9,3.5-2.8a4.736,4.736,0,0,0,1.9-3.8v-6.9c0-1.8-.2-2.1-2-2.7-3.8-1.3-7.5-2.7-11.3-4a2.456,2.456,0,0,1-1.7-3c.2-1.7.3-3.4.4-5.1.2-3.3.3-6.7.5-10a16.608,16.608,0,0,1,.3-2.2c.1-.9-.2-1.2-1.1-.7-3.4,1.8-13.8,7.3-13.8,7.3s-3.1,8-3.9,11.4c-1,4-1.9,8-2.7,12.1-.4,2.2-.6,4.5-.8,6.7-.3,4.4-.5,8.8-.8,13.5.4,6.3.7,13.1,1.3,19.8a110.558,110.558,0,0,0,1.8,11.3,151.016,151.016,0,0,0,5,19.8c1.5,4.4,2.9,8.7,4.5,13a49.3,49.3,0,0,0,3,6.6c2.5,5,4.8,10,7.5,14.9a73.862,73.862,0,0,0,9.2,13.6c1.5,1.7,2.9,3.6,4.4,5.3a9.094,9.094,0,0,0,2.1,1.8c.2.1.7-.1,1-.3,1.3-1,2.6-2,3.9-3.1.8-.7,1.5-1.5,2.3-2.1a3.4,3.4,0,0,1,3.5-.2,23.223,23.223,0,0,1,5.1,2.9,6.24,6.24,0,0,1,2.6,5,32.135,32.135,0,0,1-1.1,6.8,3.092,3.092,0,0,0-.2.8c-.6,2.2-.6,2.2,1.5,3.2a12.3,12.3,0,0,0,8.2.9c.9-.2,1.9-.2,2.9-.4a6.263,6.263,0,0,0,2.2-.7c1.4-.8,2.8-1.8,4.2-2.7a1.5,1.5,0,0,1,1.9.2,1.562,1.562,0,0,1,.4,1.9,10.063,10.063,0,0,1-1.7,1.5s-.1.3.8,1.1a20.415,20.415,0,0,1,5.9,10.1c1.1,4.3,1.9,8.7,3.1,12.9,1.2,4.3,2.8,8.4,4.2,12.6.4,1.3.9,2.5,1.3,3.8a39.621,39.621,0,0,0,8.2,13.6,32.329,32.329,0,0,0,4.4,3.9,30.7,30.7,0,0,1,2.6,2.5c.8.7,1.6,1.3,2.4,2,.5.4.9.7.5,1.3-.4.7-1,.5-1.5.2l-1.8-1.5c-1.9-1.6-3.9-3.1-5.6-4.8-3.4-3.4-6.6-6.9-8.6-11.3-1.4-3.2-3-6.2-4.3-9.4-.9-2.4-1.5-5-2.2-7.5-.8-3-1.6-6-2.4-9.1-.5-2.2-.8-4.4-1.4-6.6a33.828,33.828,0,0,0-2.3-6.3,26.172,26.172,0,0,0-3.4-4.8,8.713,8.713,0,0,1-1.3-1.7s-13,9.4-18.4,13.5a30.919,30.919,0,0,0-3.9,3.3,4.968,4.968,0,0,0-1.2,2.4c-1.4,6.1-2.4,12.3-3.2,18.5-.3,2.5-.4,5-.6,7.5-.1,1.7-.3,3.3-.4,5-.1,1.9-1.3,2.6-2.8,3.3-2.6,1.1-5.1,2.3-7.6,3.6a2.645,2.645,0,0,0-1.5,3.1,11.078,11.078,0,0,1,.2,1.9c.1,3.7.2,7.4.2,11,0,1.9-1.1,2.5-2.7,1.6s-3-2.1-4.5-3.1a2.518,2.518,0,0,1-.8-2.8c.2-.8,1.2-.9,2.1-.3l2.4,1.8c.3.2.7.2,1,.4v-1c-.3-3.1-.5-6.2-.8-9.4-.1-1.2-.2-1.3-1.3-.8-2.2,1.1-4.4,2.1-6.7,3.2a1.7,1.7,0,0,0-1.2,1.9c0,2.6-.2,5.2-.2,7.7,0,.9.1,1.7.1,2.6,0,.1.1.2.1.4-.1,2.6-.9,3.2-3.1,2.2-1-.5-2.1-.9-3.1-1.4a1.863,1.863,0,0,1-1.2-2.4,1.358,1.358,0,0,1,2-1c.6.3,1.1.7,1.7,1s.9.1.9-.6c-.1-2.2,0-4.3-.1-6.5,0-1.4-.4-1.6-1.7-1-3.2,1.5-6.4,2.9-9.7,4.4a3.206,3.206,0,0,1-3-.2c-2.4-1.2-4.8-2.4-7.3-3.6a2.717,2.717,0,0,1-1.6-2.6V401c0-2.2-.1-4.5-.1-6.7,0-.7-.3-.8-.8-.5-2.8,1.5-5.6,2.9-8.4,4.4-.2.1-.3.2-.5.3-2.2,1-4.3,1.9-6.5,2.9-1.4.6-5.2,2.7-5.2,2.7s-1.5,5.2-7.1,10.6c-8.2,7.8-20.1,13.3-34.8,14.9-14.6,1.6-14.7,1.3-22.1.4a96.647,96.647,0,0,1-16.7-4c-3.4-1.1-6.8-2.2-10.2-3.5-2.3-.9-12.1-5.2-14.7-6.4-2.7-1.3-5.3-2.6-7.9-4.1-3.6-2.1-7.1-4.2-10.5-6.6a33.271,33.271,0,0,1-7.8-7.2c-.8-1.1-1.7-2.1-2.5-3.1a2.185,2.185,0,0,0-.5-.3l-.3.6c-1,5.5-1.9,11.1-3,16.7-.7,3.8-1.3,5.7-3.8,11-2.4,5.3-7,14.1-9.3,18.1a59.645,59.645,0,0,1-13.5,16.7c-8,7-11.7,9.3-14.7,11.7-.4.3-1.2-1-.8-1.3,1.2-1,7.8-5.9,13.5-10.8s11-12.4,13.2-15.5c1.3-1.9,9.9-19,12-23.9,1.2-2.8,3.3-13.9,3.7-16.4a44.922,44.922,0,0,0,.9-9.7,16.056,16.056,0,0,1,0-2.4l-9.3-.8s-4.7,4.3-6,5.2a2.764,2.764,0,0,0-1.2,2.2,50.706,50.706,0,0,0,.4,6.8c.2,1.6.1,2.5,1.3,3.4.7.6,2.8,1.3,3.6,1.9.1.1.2.3.3.4a2.75,2.75,0,0,1-.1,2.8c-.6.6-1.6.5-2.7-.2-1.2-.8-2.4-1.7-3.7-2.5-1.8-1-2.2-1.8-1.7-3.9a21.011,21.011,0,0,0,.2-7.9c-.2-1-.8-1.6-1.8-1l-3,2c-1.1.8-.1,2.2.1,3.3.3,2.5.8,4.9,1.2,7.4.1.5.2.9.3,1.3a1.32,1.32,0,0,0,1.4,1.1c1,0,2.1.2,3.1.3,1.5.2,1.8.6,1.7,2.2,0,1.4-.2,1.1-1.6,1.1-1.7.1-3.3-.2-5-.2A1.558,1.558,0,0,1,297,413c-.5-3-.5-4.2-1-7.2-.2-1.4-.8-2.8-1-4.1-.1-.8-.6-2.2-1.2-1.8-1.9,1.2-3.5,2.4-5.5,3.5-1.4.8-2.1,1.4-3.6,1.4-.6,0-7.7-1.1-8.5-2.4a37.6,37.6,0,0,1-2-4.6c-1.6-4.1-2.6-7.4-4.2-11.5-1.7-4.4-3.4-9-5.1-13.4-.9-2.3-1.5-5.4-2.4-7.8-.4-1.1.4-2.7,1.1-3.6,6.8-4.7,17.3-12,21.2-14.4,1.7-1,4.6-3.1,6.3-4.2s3.4-2.4,5.1-3.6c0,0,9.4-6.1,9.6-6.3,1.2-1.2,2.2-.6,3.7-.7,1.1,0,2.5.5,3.6.5,2.7.1,3,1.6,2.8,3.5-.3,2.7-.6,13.1-.8,15.7a2.544,2.544,0,0,0,.2.7c.2-.1.5-.1.7-.2.5-.4,12.2-11.4,12.2-11.4s-.1-.1-.9-1c-1.1-1.2-2.3-2.4-3.4-3.6-.9-1-3.4-4.3-3.8-4.8-2.5-3.4-5.2-6.8-7.4-10.4-1.9-3-6.8-14.5-7.7-17-1.4-4.1-5.2-20.6-6.1-24.6a86.538,86.538,0,0,1-1.6-8.6c-.6-5.5-1-11-1.3-16.5a152.478,152.478,0,0,1-.3-22.4c.4-4.9,2.8-14.5,2.8-14.5s-1.3,2.4-2.7,1.3a1.5,1.5,0,0,1-.1-2.4,12.662,12.662,0,0,0,.7-1.2s-2.8,1.6-6.4,3.2a107.032,107.032,0,0,1-12.6,4.4,89.244,89.244,0,0,1-16.2,2.4,58.231,58.231,0,0,1-11.8-.1c-1.9-.3-8.1-1.3-9.4-1.4a3.749,3.749,0,0,1-1.1-.1c-.2-.1,0-1.2.2-1.1,2.7.3,13.7,1.9,16.4,1.8,4.3-.1,16.8-1.9,18.8-2.3,2-.5,16.9-5.3,18.8-6.3,1.9-1.1,4.1-2.3,4.1-2.3a5.807,5.807,0,0,1-1.3-.5,51.425,51.425,0,0,1-5.1-2.9,32.357,32.357,0,0,1-12.4-18.4c-3-11.8-2.8-19-2.8-21.1a30.062,30.062,0,0,1,.5-4.2c.1-.3,1.6-.4,1.6-.3a40.558,40.558,0,0,0-.2,5.7c.1,3.3,1.7,15.9,2.2,17.8a28.92,28.92,0,0,0,5.8,12.1,30.734,30.734,0,0,0,11.6,9.7,9.346,9.346,0,0,0,1.3.4s12.1-28.1,13.2-30.5c.4-1,.8-2,1.3-3,.7-1.6,0-2.9-.8-4.2-1.6-2.5-6.2-9.9-7.4-10.9a2.483,2.483,0,0,1-.5-2.6c.5-2.6,1.2-5.1,1.8-7.7a2.021,2.021,0,0,1,1.6-1.7c3.7-1.1,7.4-2.4,11.1-3.4,4-1.1,17.8-4.7,20.7-5.4,3.5-.9,20.1-5,24.8-6.3,2.8-.8,5.6-1.8,8.4-2.7,1.4-.5,1.7-.4,2.6.8a13.533,13.533,0,0,1,2.8,6.9c0,1-.1,2.1-.2,3.1-.5,2.9-2.4,14-2.7,16.6a2.4,2.4,0,0,0,.6,2.1,14.148,14.148,0,0,1,2.8,5.1,51.455,51.455,0,0,1,1.5,6.8,80.8,80.8,0,0,1-.1,9.1,1.964,1.964,0,0,1-1.3.9c-.4,0-.9-.5-1.2-1-.2-.3,0-6.2-.1-8.8a22.389,22.389,0,0,0-2.3-8.4c-.1-.2-.4-.4-.6-.6a2.353,2.353,0,0,0-.2.8c-.6,4.5-2.4,18-2.7,20.2-.4,2.6-1.5,3.7-4.2,4.2-1.4.3-2.8.6-4.3,1-1.7.4-2.5,2.7-1.5,4.4a13.655,13.655,0,0,0,1.9,2.3c2,1.9,4.1,3.7,6,5.7a2.56,2.56,0,0,1,.3,2.9,1.425,1.425,0,0,1-1.6.9,2.567,2.567,0,0,1-1.2-.5c-1-.9-2-1.9-3-2.9-2-1.8-3.6-3.9-5.9-5.4a2.039,2.039,0,0,1-.8-2.3c.2-1.1.5-2.1.7-3.2.2-1,0-1.2-.9-1-2.9.7-5.8,1.3-8.8,2a.945.945,0,0,0-.9,1.1c.1,1.5,0,3,.2,4.5a3.334,3.334,0,0,0,2.1,2.8c1.6.7,3.1,1.4,4.7,2.1a1.919,1.919,0,0,1,1.5,1.7,2.728,2.728,0,0,1-1.2,2.7c-.2.2-.7.1-.9,0-2-.9-4-1.9-5.9-2.9-.3-.1-.6-.3-.9-.4a2.769,2.769,0,0,1-2.1-2.3c-.3-1.5-.3-3.1-.5-4.6l-.3-3c-.1-.9-.8-.7-1.3-.7-1.2.2-10.8,2.5-11.7,2.5-1.9.1-3.1-1.3-4.2-2.5-.7-.8-5.9-9.5-8-12.9l-2.1-3.3c-.6-.8-.9-.8-1.3.1-1.1,2.5-11.4,26.4-12.7,29.5-1,2.5-.7,2.1-.7,2.1s7.7,2.2,10.4,3c4,1.1,7.9,2.6,12.1,3.2,2.5.3,4.9,1.3,7.4,1.8q4.2.75,8.4,1.2c5.8.7,11.5,1.4,17.3,1.8a91.964,91.964,0,0,0,10.5.1c4.4-.2,8.8-.5,13.3-.8,4-.3,8-.9,12-1.1,7.1-.3,14-1.8,21-2.7,5.1-.6,10.2-1.5,15.2-2.5,5.5-1,10.9-2.3,16.3-3.5,3.5-.8,7-1.6,10.4-2.7a58.727,58.727,0,0,0,12.6-5.5c2.5-1.5,5.1-2.8,7.5-4.5,3-2,6.1-4,8.5-6.8.9-1,3.9-4.7,3.9-4.7a3.3,3.3,0,0,1-2.8-.1c-.4-.3-1.1-2-.3-2.7a10.137,10.137,0,0,1,3.3-1.1s-1.1-.3-3.8-2.6a17.715,17.715,0,0,1-5-6c-1.4-2.6-2.7-5.4-3.9-8.1-.9-2.1-1.7-4.3-2.6-6.4a60.083,60.083,0,0,1-3.5-9.2A66.73,66.73,0,0,1,468,141c-.3-3.5-.8-7-1.1-10.5a41.541,41.541,0,0,1,.3-4.9c.2-2.1.4-4.2.6-6.2,0-.2,0-.5.1-.6a4.349,4.349,0,0,1,.7-.6c.2.2.6.5.6.7a20.444,20.444,0,0,1,0,3.5,53.525,53.525,0,0,0-.2,12,99.041,99.041,0,0,0,2.3,14.3,84.7,84.7,0,0,0,4.6,13.1c1.4,3.4,2.8,6.8,4.4,10.1a26.932,26.932,0,0,0,5.9,7.7,30.83,30.83,0,0,0,5.1,3.3s10-4.9,14.2-7.9a3.973,3.973,0,0,0,1.6-3.1,13.342,13.342,0,0,0-1.7-7.1,7.976,7.976,0,0,1-.9-3.1,2.217,2.217,0,0,1,1.1-2.3,1.828,1.828,0,0,0,.9-1.8c0-2.2.1-4.4,0-6.6a5.926,5.926,0,0,1,2.3-4.6c1.9-1.6,3.6-3.3,5.5-4.9a3.674,3.674,0,0,1,1.6-.9,35.3,35.3,0,0,1,4.6,0ZM286.4,348.4c-2.4,1.5-16.7,10.4-19.7,13.4-.7.7-.7.9.1,1.3s1.8.7,2.6,1.1a2.19,2.19,0,0,0,2.2-.3c1.3-1,7.4-5.4,9.1-6.8,3.3-2.7,29.1-21.4,29.2-22,.1-.7-2.9-.9-2.9-.9-.6.4-19.2,13.4-20.6,14.2Zm167.4-70.8a.52.52,0,0,0-.2-.4.764.764,0,0,0-.2.5,16.962,16.962,0,0,1-.4,2.2c-.6,3-6.7,41.6-7,42.8-.3,1.4-.8,1.8-2.2,1.6-2.8-.3-19.2-1.5-22.8-1.5-1.4,0-1.8.5-1.6,1.8,0,.4.2,6.1.3,8.6a3.255,3.255,0,0,0,.4,1.4c.9,1.7,3,5.9,3.1,6.4a1.061,1.061,0,0,1-.9,1.3,1.417,1.417,0,0,1-1.7-.4c-.6-.9-5-8-5-11.3v-6.4c0-.8-.2-1.2-1-1.2-3.1-.2-6.2-.4-9.4-.5-.8,0-1.1.6-1.1,1.5.1,1.6,0,6.8.3,7.6.7,1.3,3.9,5.4,4.3,6.4a1.539,1.539,0,0,1-.2,2,1.7,1.7,0,0,1-2.3-.1c-.2-.1-2.9-2.9-4.2-4.1a3.84,3.84,0,0,1-1.1-2.8c.1-2.4.2-8.4.1-9a1.831,1.831,0,0,0-1.8-1.6c-1.3,0-10.3-.4-13.5-.5a2.624,2.624,0,0,1-2.7-1.8,40.485,40.485,0,0,1-1.7-4.9c-1-4.7-1.9-9.5-2.8-14.3-.6-3.2-5.4-27.4-6.2-30.9-.3-1.4-.6-1.5-1.7-.6-.2.1-13.8,18.6-13.8,18.6a72.7,72.7,0,0,1,3.6,19.6c.1,1.7-.2,5.3-.2,5.4a34.787,34.787,0,0,1-1.9,9.7c-1.4,3.6-6.7,13.1-10.4,16.1-3.7,2.9-8.8,5.3-11.9,5.7-1.7.1-1.7.5-1.1,1a66.969,66.969,0,0,0,6.8,5.1,25.677,25.677,0,0,0,4.1,1.9c.6.3-.2,2-.6,1.8-1.6-.6-2.1-.2-5.5-2.4a37.852,37.852,0,0,1-8-6.8c-.6-.6-1-1.1-1-1.1a36.648,36.648,0,0,0-4.6,3.1c-3.6,3.5-7.2,5.8-10.8,9.4-1.1,1.1-1.3,4-1.2,5.6,0,1-.2,2.1-.3,3.1-.4,3.7-.8,7.5-1.2,11.2-.2,2.2-.5,4.3-.7,6.5-.2,1.6-.3,2.7-.3,2.7s7.7.6,10.3.8a25.579,25.579,0,0,1,2.7.5c1,.2,1.4.4,1.4,1.5s-.4,1.5-1.6,1.5c-.4,0-1.7-.1-1.7-.1s.3,1.6.4,1.9a41.586,41.586,0,0,0,10.6,11.5,96.539,96.539,0,0,0,16,9.8c2.9,1.4,18.6,8.4,23.7,10.1,2.9,1,14.8,4.4,17.7,4.8a109.382,109.382,0,0,0,11.4.9,119.705,119.705,0,0,0,13.1-1.1c3-.5,5.9-1,8.9-1.7,4.4-1,8.3-3.1,12.3-4.9.4-.2,4.9-2.7,10.1-6.2a26.408,26.408,0,0,0,7.9-9.4s-1.8.9-2.8.2c-.9-.6-.7-1.6,0-2.4a10.416,10.416,0,0,1,1.8-1c1.9-.9,3.8-1.6,5.7-2.5,3.9-1.8,7.9-3.6,11.8-5.5,2.2-1.1,4.3-2.4,6.4-3.7,1.3-.8,1-2.2.9-3.4-.4-3.6-.8-7.2-1.3-10.8-.4-3-.3-6-1.5-8.9a1.747,1.747,0,0,1,.3-1.7,5.381,5.381,0,0,1,2.1-1.5c1.9-.9,3.8-1.7,5.6-2.7,4.1-2.2,8.2-4.4,12.2-6.7,3.4-2,6.7-4,10-6.2,4.2-2.8,8.2-5.8,12.3-8.8,1.1-.8,1.2-1.2.3-2.3-.1-.2-.3-.3-.4-.5-2.5-3-5.1-5.9-7.3-9.1-2.4-3.3-4.4-6.8-6.5-10.3-1.8-3.1-3.4-6.4-5-9.7-1.6-3.2-3-6.5-4.6-9.7-1.3-2.9-2.6-5.8-3.6-8.8a146.359,146.359,0,0,1-5.8-20.3c-.5-2.7-1.1-5.3-1.6-7.9-.5-3-.9-5.9-1.3-8.9-.4-2.9-.7-5.7-.9-8.6-.3-4.4-.4-8.8-.5-13.1,0-.7.1-1.3.1-2,.1-2.1,0-4.2.2-6.2q.6-6.45,1.5-12.9c.4-2.8,1.1-5.5,1.7-8.2.5-2,2.2-6.2,2.5-7.4s.3-1.3-.6-.6c-.8.6-6.2,5.8-9.2,7.6-2.8,1.7-5.5,3.5-8.3,5.1-2.3,1.2-4.7,2.1-7.1,3.2a62.079,62.079,0,0,1-11.8,3.7c-1.7.4-3.3.7-5,1.1-2.2.6-4.4,1.2-6.7,1.7-1.5.4-3,.6-4.5.9-2.4.5-4.8,1-7.2,1.4l-5.1.9c-2.2.4-4.4.8-6.7,1.1-3.6.5-7.1.8-10.7,1.3-2.5.3-5,.9-7.6,1.1-4.4.5-8.8.8-13.2,1.2-4.3.4-8.6.9-13,1.1a116.55,116.55,0,0,1-16.7-.2c-1.4-.1-2.8-.1-4.3-.2-1.4-.1-2.8-.1-4.2-.3-2.6-.4-5.3-.9-7.9-1.2a73.608,73.608,0,0,1-9.4-1.5l-6-1.5c-2.1-.5-4.2-.9-6.3-1.4-2.8-.7-5.5-1.6-8.3-2.4-2.2-.6-7.1-2.2-7.1-2.2l-1.3,2.7s1.8,6.2,2.6,8.9a126.2,126.2,0,0,0,5.6,15.6c2.7,5.8,5.5,11.5,8.7,17.1A65.413,65.413,0,0,0,324,269c3.7,4,16.2,14.1,18.5,15.2,2.8,1.3,10.4,2.9,10.4,2.9s15-20,16.9-22.4a2.036,2.036,0,0,0,.5-1.8c-.3-1.1-3.7-14.4-4-15.2a5.514,5.514,0,0,1-.2-4c.5-1.6.9-3.2,1.3-4.8a2.276,2.276,0,0,1,2.3-2c2.1-.1,20.7-.8,22.5-.9,2.1-.1,17.7-.7,19.4-.7,3.3-.1,38.8-.8,43.4-.7,1.8,0,2.4.6,2.5,2.4.2,2.2.4,4.4.5,6.6.1,2.4.4,4.8-.4,7.1-.4,1.3-2.5,13.1-3.2,17.7a1.7,1.7,0,0,0,.1.7c.5,1.8,1,3.5,1.5,5.3,2,7.4,2.6,27.2,1.4,31.1-.4,1.3-1,1.9-2,1.8-1.1-.2-1.6-1-1.4-2.4a19.8,19.8,0,0,0,.6-2.6c.6-3.3-.8-24.7-.8-24.7Zm-53-31.1c-3.3.1-13.8.3-15.8.4-3.2.2-13.1,1-14,1.1-.6.1-.8.4-.7.9.2.9.4,1.7.6,2.6.6,2.8,1.2,5.6,1.9,8.3.8,3.3,7.6,35.5,9,42,1.1,5.3,2,10.6,4.2,15.6a2.315,2.315,0,0,0,2.1,1.6c1.9.1,50,1.5,50,1.5,1.2.1,2.5.2,3.7.3a1.021,1.021,0,0,0,1.3-.8,23.355,23.355,0,0,0,.4-2.6c.9-5.6,8.1-46,8.8-51.1.8-5.2,1.5-10.4,2.2-15.6.2-1.4-.2-2-1.7-2.2-2.2-.2-18.2-2-19.5-1.8-2.7.4-12.9-.3-15.2-.5m-60.5,49.9a39.426,39.426,0,0,0-1.4-4.9,7.8,7.8,0,0,1-.3-1.3,10.11,10.11,0,0,1-1.9,2.3c-1.4,1.2-3.5-.8-2.9-2.2s.8-1.4.8-1.4-5.1-1.2-6.8-1.7c-3.7-1.1-6.7-3.6-9.7-5.8a87.893,87.893,0,0,1-11.5-10.5,55.576,55.576,0,0,1-8.4-10.9c-2.2-3.7-4.2-7.5-6.2-11.3a110.149,110.149,0,0,1-7-17.5c-1.1-3.5-1.6-5.5-2.7-9-.1-.2-.5-.1-.5.1-.7,4.1-1.6,7.2-1.6,11.4,0,5.8,0,16.7,1.3,32.7.5,4.1,3.8,21.2,4.8,25.6,1.3,6,2.6,12,5.2,17.6,1.4,2.9,2.6,6,4.3,8.8,2.6,4.1,5.5,8,8.4,11.9a62.5,62.5,0,0,0,7.5,8.7c1.4,1.3,1.4,1.2,1.4,1.2s1.5-1.1,1.7-1.2a1.63,1.63,0,0,1,2.6,1.4,6.594,6.594,0,0,1-1.1,2.1,1.354,1.354,0,0,0,1.3.8c1.5-.2,6.1-.6,14.6-8.1,3.8-4.1,7.2-11.5,8.9-16.9,1.4-5.6.1-17.8-.8-21.9Zm-11-103.5c2.8-.6,14.9-3.3,18.3-4,1.9-.4,3-1,3.3-3.2.2-1.3,1.5-9.6,2-12.5.5-2.5,3.8-22.2,4.6-26.8.5-2.6-.2-3.3-3-2.3s-13.8,4.2-16.5,4.9c-4.4,1.2-21.2,5.4-25.2,6.4-3,.7-16.6,5-20.4,6.4-1,.3-1.1,1-.6,1.8.5,1,1.1,2.1,1.7,3.1,1.8,3,9.8,14.5,11.9,17.5,2.3,3.2,4.4,6.4,6.5,9.6.8,1.2,1.5,2.3,3,1.9.7-.1,11.4-2.1,14.4-2.8ZM490.4,413.3a26.728,26.728,0,0,0,.1,4c.2,1.6.5,1.7,2,1l4.8-2.4c3.1-1.6,6.3-3.1,9.4-4.7,3.7-1.8,7.3-3.6,11-5.4l6.9-3.6a3.141,3.141,0,0,0,1.8-2.6c.1-1.2.3-2.5.4-3.7.4-3.5.8-7,1.3-10.4.7-4.3,1.5-8.5,2.3-12.8.9-4.7,1.9-9.3,2.9-14,.9-4.5,1.9-9.1,2.8-13.6a10.821,10.821,0,0,0,0-1.8c-.6.3-1.2.5-1.7.8-3.8,2.8-7.5,5.7-11.3,8.4-5,3.4-10.2,6.6-15.2,10-3.3,2.3-6.4,4.8-9.7,7.1-1.6,1.2-3.3,2.2-5,3.3-2,1.4-3.6,3-3.3,5.7.2,2.1.3,4.2.3,6.4,0,5.6-.1,11.3,0,16.9-.1,4,.1,7.7.2,11.4Zm17.2-218.4a3.438,3.438,0,0,0,1.9,3.4,9.147,9.147,0,0,0,1.7.9c3.8,1.3,7.6,2.7,11.4,3.8q4.5,1.35,9,2.4a49.416,49.416,0,0,0,7.5,1.4,64.05,64.05,0,0,1,9.9,1.8c2.3.6,4.6,1.3,6.8,2,1.3.4,1.5.2,2-1a15.447,15.447,0,0,0,.6-2.3c.9-3,1.8-5.9,2.6-8.9l3.3-12.3,3.6-13.2c.1-.4.2-.7.3-1.1.1-.6.1-1.2-.9-.9a23,23,0,0,1-2.6.3c-2.3.3-4.5.6-6.8.9a3.853,3.853,0,0,0-2.9,1.7,16.538,16.538,0,0,1-3.7,3.3c-4,2-9.5-.2-11.2-3.6a14.474,14.474,0,0,1-1.1-3.7c-.4-1.6-1.5-2.2-2.9-1.1a2.491,2.491,0,0,0-.8,1.7,7.4,7.4,0,0,1-2.4,4.4c-1.1,1-2.3,1.9-3.4,2.9-1.9,1.6-3.9,1.6-6.1.8-3.1-1.2-4.6-3.7-5.7-6.6a2.341,2.341,0,0,0-1.5-1.7,6.811,6.811,0,0,0-4-.3,9,9,0,0,1-1.6.3c-1.7.1-1.7.1-1.8,1.8v1.4c-.1,3-.2,5.9-.3,8.9-.4,4.1-.6,8.3-.9,12.6ZM309.5,385.5s1.9-18.1,2.2-21.2c.2-2.3,1.2-16.9,1.2-17,.1-1.5.2-2.9.3-4.3.2-2.4.4-4.7.6-7.1,0-.5-.2-.8-.7-.7a6.722,6.722,0,0,0-1.2.6c-.8.6-1.5,1.3-2.3,1.9-2,1.6-4,3.2-6.1,4.8-1.6,1.3-8.5,6.5-10.2,7.9-2.2,1.8-5.6,3.8-7.8,5.6-3,2.4-11,8.3-12.6,9.5a2.15,2.15,0,0,0-1,2.5c1.8,4.4,3.5,9.8,6,13.9,1.2,2,1,2.6,1.7,2.8,6,.7,29.9.8,29.9.8ZM515.3,154.2v.2h-5.5c-.7,0-1,.2-1,1,0,2.5,0,5.1-.1,7.6-.1,2.2.7,3.1,2.8,3.3,1,.1,1.9,0,2.9.1,2.1.2,2.3.1,3.2-1.7a7.211,7.211,0,0,1,3.5-3.6c2.1-.8,4.2-1.6,6.4-2.3a3.673,3.673,0,0,1,1.8-.1,6.758,6.758,0,0,1,5.8,4.7,1.384,1.384,0,0,0,1.3,1.1,13.667,13.667,0,0,1,1.9.2,2.14,2.14,0,0,0,2.1-.7,14.62,14.62,0,0,1,1.9-1.6,7.87,7.87,0,0,1,7.8-1.2c1.1.3,1.9,1.2,3,1.5a4.5,4.5,0,0,1,3.1,3.3c.5,1.5.9,1.8,2.5,1.8a58.281,58.281,0,0,0,5.9-.3,6.637,6.637,0,0,0,4.3-2.5c2-2.4,2.6-5.3,3.7-8,.3-.8-.2-1.2-.9-1.2-3.5-.2-7-.4-10.5-.5-2.5,0-5.1.2-7.6.2-1.1,0-2.3-.1-3.4,0-2.1.1-4.3.2-6.4.3-1.1,0-2.2-.2-3.2-.2-2.7-.2-5.4-.3-8.1-.5-1.6-.1-3.2-.3-4.9-.4-1.9-.1-3.7-.1-5.6-.2-2.2-.1-4.5-.2-6.7-.3Zm21.2,184.6c0-.2-.1-.4-.1-.7-.2-.1-.5-.2-.7-.3-1.1-.8-2.2-1.6-3.3-2.5-1.2-.9-1.2-1-2.5-.1-4.2,2.9-8.3,5.9-12.5,8.8-5,3.4-10,6.9-15.1,10.1-3.5,2.3-7.3,4.2-10.9,6.4a85.227,85.227,0,0,1-8.3,4.8,12.136,12.136,0,0,0-1.4,1,7.552,7.552,0,0,0,1.4,1.1c1.9,1.1,3.9,2,5.7,3.1a1.96,1.96,0,0,0,2.2,0c.9-.5,1.8-1.1,2.7-1.6,3.8-2,7-4.8,10.4-7.4a61.289,61.289,0,0,1,5.1-3.8c3.6-2.4,7.3-4.6,10.9-7,2.8-1.9,5.6-3.8,8.3-5.8,2.3-1.7,4.5-3.5,6.8-5.2a4.276,4.276,0,0,1,1.3-.9Zm-136.6-96c2.6-.1,14.5-.1,17.8,0,2.9.1,34.8,1.4,36.2,1.5.8.1,1.1-.3,1.1-1v-2.6c-.1-2.2-1-3.1-3.2-3.1-3-.1-40.9.6-45,.7-2,.1-9.5.8-11.2.8-1.9.1-18.2.7-21,.7v.1h-2.1c-1.6,0-1.8.2-2.1,1.8-.1.6-.5,1.3-.2,1.7s1.1.4,1.6.5c2.8.4,28.1-1.1,28.1-1.1Zm-91.5-83.7a9.749,9.749,0,0,0,2.2-.8c3.2-1.4,36-9.7,42.1-11.5,1.8-.5,12.5-3.4,16-4.6a23.181,23.181,0,0,0,4.7-2.4,1.006,1.006,0,0,0,0-1.9,4.681,4.681,0,0,0-2.3-.4c-3.9.9-7.8,2-11.7,3.1-2.1.6-14.4,3.4-18.3,4.4-3.8.9-20,5.3-24.4,6.5-2.4.7-4.8,1.3-7.2,2.1a2.292,2.292,0,0,0-1.5,1.2,17.673,17.673,0,0,0-.8,3.3c-.1.7.4,1,1.2,1ZM569,152.5a23.482,23.482,0,0,1,2.6-.1c1,0,1.2-.4.8-1.3a2.04,2.04,0,0,0-2-1.4c-2.8-.2-5.6-.3-8.5-.5-2-.1-4.1-.3-6.1-.5-3.6-.3-7.2-.5-10.8-.9-2.5-.3-4.9-.7-7.4-1.2-3.3-.6-6.6-1.4-9.9-1.8a59.188,59.188,0,0,0-8.4-.5c-1.5,0-3.1,0-4.4,1.2-1.4,1.3-2.7,2.7-4.1,4.1-.5.5-.4.9.3,1,1.3.2,2.5.3,3.8.4,1.8,0,3.6-.2,5.4-.1,2.9.1,5.7.5,8.6.7,1.6.1,3.1.2,4.7.3,2,.2,4,.4,6.1.5,1.5.1,3,0,4.5,0,1.4,0,2.9.3,4.3.3,2,0,4-.2,6-.2h3.4c2.1-.1,4.2-.2,6.2-.2a40.979,40.979,0,0,1,4.9.2ZM479.9,373.4h.2a22.532,22.532,0,0,0,0,2.6c.3,3.3.7,6.6,1.1,10,.2,1.4.2,1.4,1.4.8a1.493,1.493,0,0,1,2.2,1.3,2.555,2.555,0,0,1-1.4,2.6,3.518,3.518,0,0,0-1.7,3.5c.1,2.6.1,5.2.1,7.8,0,2.1-.1,4.2-.1,6.2,0,1.5.2,2.9.3,4.4a4.29,4.29,0,0,0,3.1,4,6.9,6.9,0,0,1,.8.3c1.6.8,2.1.5,2.2-1.3V393.8c0-1.9.2-3.8.2-5.7-.2-4.3-.6-8.5-.8-12.7a2.947,2.947,0,0,0-1.5-2.7c-1.6-.8-3.2-1.6-4.9-2.3-.8-.3-1.1-.1-1.1.8a7.746,7.746,0,0,0-.1,2.2ZM282.5,387.6c-1.2.2-.3,1.2.1,2.4,1.1,2.8,3.9,9.7,4.1,10.4.2.6.5.8,1.1.5.8-.5,1.7-.9,2.5-1.4,2.2-1.3,4.4-2.5,6.5-3.9,3-1.8,6-3.7,8.9-5.5a13.238,13.238,0,0,0,2-1.2c-.6-.2-7-.9-9-1C295.7,387.7,283.5,387.4,282.5,387.6ZM532.3,167.1a6.665,6.665,0,0,0-1.1-4.2c-.8-1.4-1.5-1.8-3.1-1.2-2.1.7-4.1,1.5-6.2,2.4a4.463,4.463,0,0,0-2.4,5.2c.6,2.2,2.2,3.6,3.9,4.9a3.044,3.044,0,0,0,4-.1,12.375,12.375,0,0,1,1.8-1.4,6.9,6.9,0,0,0,3.1-5.6Zm20.3,1.4c.1-1.3,0-2.6-1.2-3.4a6.5,6.5,0,0,0-2.2-1.1c-2.9-.9-5.3.2-7.3,2.3a1.835,1.835,0,0,0-.4,2.3c.4.8.9,1.6,1.4,2.4a5.044,5.044,0,0,0,5.7,2.3C551.1,172.6,552.6,171.3,552.6,168.5Zm-14.7,183c-.1.3-.3.6-.4.9-.4,1.7-.8,3.4-1.1,5.1-.4,1.9-.9,3.8-1.3,5.7a.43.43,0,1,0,.7.5,1.794,1.794,0,0,0,.7-.5c2.1-1.7,4.3-3.3,6.4-5,1.8-1.4,6.9-5.2,6.9-5.2s-4.5.4-5.9.5a8.684,8.684,0,0,1-5.4-1.7Zm-258.8,50c.2,0,4.3.7,4.5.7,1.2-.1-.1-2-.6-3.1,0-.1-4.5-10.4-4.5-10.4s-3.2-.1-3.9-1.3c-.6-1.1-.4-1.3.1-2.1.3-.5,2-.6,2-.6-5.7-13.3-5.5-12.8-6.3-14.8-.6-2-2.5-2.8-4.6-3.3a2.152,2.152,0,0,0-.8,0,1.7,1.7,0,0,0,.1.7c.2.5.5,1,.7,1.5,1.8,4.7,9.4,25.6,11.2,30.4.5.9.8,2.5,2.1,2.3Z" transform="translate(-238.817 -118.2)" fill-rule="evenodd"/>
  <path id="Path_684" data-name="Path 684" d="M429.8,280.1a5.282,5.282,0,0,0,1.3.1,1.788,1.788,0,0,0,2-1.8,24.518,24.518,0,0,0-.2-2.7c-.1-.8-.4-1.4-1.3-1.3-.9,0-1.7,1-1.9,2.1a1.13,1.13,0,0,1-1.3.9c-4.8-.1-9.6-.1-14.4-.3-2.6-.1-5.1-.3-7.7-.4-.4,0-.7-.1-1.1-.1-1.1,0-2.3-.1-3.4-.1s-2.2.1-3.4.1a1.308,1.308,0,0,1-1.4-1c-.1-.2-.1-.5-.2-.7a2.5,2.5,0,0,0-2.2-1.7c-.8,0-.8.7-.8,1.3l.3,3.6a1.3,1.3,0,0,0,1.5,1.2h3.6c3.4,0,6.9,0,10.3.1,2.5.1,5,.4,7.4.5,2.8.1,5.6.1,8.4.2Zm-35.7-16.6a2.111,2.111,0,0,0,1.9-2.2c0-1.2-.7-1.8-1.9-1.9-1,0-1.6.5-1.6,1.8s.6,2.2,1.6,2.3Zm33.6-1.6c0-1.3-.6-2-1.7-2a1.666,1.666,0,0,0-1.6,1.7,1.939,1.939,0,0,0,1.8,2.1c1,0,1.5-.7,1.5-1.8Z" transform="translate(-238.817 -118.2)" fill="none"/>
  <path id="Path_685" data-name="Path 685" d="M332,177.8c.1.7.2,1.7.4,2.7a1.2,1.2,0,0,0,1.6,1.2c1.4-.2,2.7-.5,4-.8,3.2-.7,6.3-1.5,9.5-2,3.7-.6,7.4-.9,11.1-1.5,1.1-.2,2.5-.2,2.9-1.6a33.957,33.957,0,0,0,.7-4.6c.1-.6-.3-.9-.9-1-1.3-.2-1.9.1-2.3,1.5a3.25,3.25,0,0,1-3.3,2.7,57.707,57.707,0,0,0-5.8.8c-2.1.3-4.2.7-6.3,1.1a57.828,57.828,0,0,0-5.7,1.2c-2.2.6-2.2.7-2.8-1.4-.3-1-.8-1.1-1.7-1.1a1.241,1.241,0,0,0-1.3,1.2,7.115,7.115,0,0,0-.1,1.6Zm-5.6-12.4c0-1.1-.6-2-1.4-2a1.934,1.934,0,0,0-2.1,1.8,2.2,2.2,0,0,0,1.9,2.3C325.7,167.5,326.4,166.7,326.4,165.4Zm36.7-7.1a2.066,2.066,0,0,0-1.8-2.3,1.735,1.735,0,0,0-1.7,1.6c0,1.1.9,2.4,1.7,2.4A1.56,1.56,0,0,0,363.1,158.3Z" transform="translate(-238.817 -118.2)" fill="none"/>
  <path id="Path_686" data-name="Path 686" d="M539.8,191.1v.2c.8-.1,1.6-.2,2.5-.3a23.356,23.356,0,0,0,2.6-.4c.7-.2,1.5-.5,1.4-1.4a39.338,39.338,0,0,0-.6-4.8c-.2-.9-.9-1.1-2-1-1,.1-.9.8-.9,1.5V186c.1.9-.4,1.3-1.1,1.6a6.469,6.469,0,0,1-1.3.4c-1.8.2-3.6.5-5.4.7-1.5.2-3,.4-4.5.5a2.091,2.091,0,0,1-2.5-1.5,3.39,3.39,0,0,0-.9-1.4,2.726,2.726,0,0,0-1.6-.4c-.2,0-.7.5-.6.8a38.53,38.53,0,0,0,.8,4.9,1.548,1.548,0,0,0,1.1.8,43.787,43.787,0,0,0,5.1-.4c2.5-.3,5.2-.6,7.9-.9Z" transform="translate(-238.817 -118.2)" fill="none"/>
  <path id="Path_687" data-name="Path 687" d="M526.9,167.8a1.839,1.839,0,0,0-1.6-1.8,1.633,1.633,0,0,0-1.3,1.6c0,1.1.6,1.9,1.4,1.9a1.82,1.82,0,0,0,1.5-1.7Z" transform="translate(-238.817 -118.2)" fill="none"/>
  <path id="Path_688" data-name="Path 688" d="M545.7,167.7a1.736,1.736,0,0,0,1.9,1.9,1.586,1.586,0,0,0,1.7-1.5,2.09,2.09,0,0,0-2-2.1c-1.1.1-1.6.5-1.6,1.7Z" transform="translate(-238.817 -118.2)" fill="none"/>
  <g id="Group_33" data-name="Group 33" transform="translate(-238.817 -118.2)">
    <path id="Path_689" data-name="Path 689" d="M429.8,280.1h-4.5c-2.8,0-5.6,0-8.4-.2-2.5-.1-5-.5-7.4-.5-3.4-.1-6.9-.1-10.3-.1h-3.6a1.357,1.357,0,0,1-1.5-1.2l-.3-3.6c0-.6,0-1.3.8-1.3a2.614,2.614,0,0,1,2.2,1.7,1.854,1.854,0,0,1,.2.7,1.224,1.224,0,0,0,1.4,1c1.1,0,2.2-.1,3.4-.1,1.1,0,2.3,0,3.4.1.4,0,.7.1,1.1.1,2.6.2,5.1.4,7.7.4l14.4.3a1.13,1.13,0,0,0,1.3-.9c.3-1.1,1.1-2.1,1.9-2.1,1,0,1.2.6,1.3,1.3a12.288,12.288,0,0,1,.2,2.7,1.788,1.788,0,0,1-2,1.8c-.4,0-.8-.1-1.3-.1Z" fill-rule="evenodd"/>
    <path id="Path_690" data-name="Path 690" d="M394.1,263.5c-1,0-1.6-.9-1.6-2.4,0-1.2.6-1.8,1.6-1.8,1.2.1,1.9.7,1.9,1.9A2.213,2.213,0,0,1,394.1,263.5Z" fill-rule="evenodd"/>
    <path id="Path_691" data-name="Path 691" d="M427.7,261.9c0,1.1-.5,1.9-1.4,1.8a1.939,1.939,0,0,1-1.8-2.1,1.55,1.55,0,0,1,1.6-1.7c1-.1,1.6.7,1.6,2Z" fill-rule="evenodd"/>
    <path id="Path_692" data-name="Path 692" d="M332,177.8a6.181,6.181,0,0,1,.1-1.5c.2-.7.5-1.2,1.3-1.2s1.4.1,1.7,1.1c.6,2.1.6,2,2.8,1.4,1.9-.5,3.8-.8,5.7-1.2,2.1-.4,4.2-.7,6.3-1.1a57.711,57.711,0,0,1,5.8-.8,3.326,3.326,0,0,0,3.3-2.7c.4-1.4,1-1.7,2.3-1.5a.919.919,0,0,1,.9,1,36.533,36.533,0,0,1-.7,4.6c-.4,1.4-1.8,1.4-2.9,1.6-3.7.5-7.4.8-11.1,1.5-3.2.5-6.3,1.4-9.5,2-1.3.3-2.7.5-4,.8-.9.2-1.4-.3-1.6-1.2-.2-1.1-.3-2.1-.4-2.8Z" fill-rule="evenodd"/>
    <path id="Path_693" data-name="Path 693" d="M326.4,165.4c-.1,1.3-.7,2.1-1.7,2.1a2.213,2.213,0,0,1-1.9-2.3,2.061,2.061,0,0,1,2.1-1.8C325.8,163.4,326.4,164.3,326.4,165.4Z" fill-rule="evenodd"/>
    <path id="Path_694" data-name="Path 694" d="M363.1,158.3a1.529,1.529,0,0,1-1.7,1.7c-.8,0-1.8-1.3-1.7-2.4a1.5,1.5,0,0,1,1.7-1.6C362.4,156,363.1,157,363.1,158.3Z" fill-rule="evenodd"/>
    <path id="Path_695" data-name="Path 695" d="M539.8,191.1l-8.1.9c-1.7.2-3.4.3-5.1.4a1.548,1.548,0,0,1-1.1-.8c-.3-1.6-.6-3.3-.8-4.9,0-.2.4-.8.6-.8a2.934,2.934,0,0,1,1.6.4,4.827,4.827,0,0,1,.9,1.4,2.142,2.142,0,0,0,2.5,1.5c1.5-.1,3-.3,4.5-.5,1.8-.2,3.6-.4,5.4-.7a4.951,4.951,0,0,0,1.3-.4c.7-.3,1.2-.7,1.1-1.6v-1.1c0-.7,0-1.3.9-1.5,1.1-.1,1.8.1,2,1a39.338,39.338,0,0,1,.6,4.8c.1.9-.7,1.2-1.4,1.4a20.235,20.235,0,0,1-2.6.4c-.8.1-1.6.2-2.5.3.2-.1.2-.2.2-.2Z" fill-rule="evenodd"/>
    <path id="Path_696" data-name="Path 696" d="M296.3,377.2c.2,1.3-.2,1.6-1.5,2.1-2.3,1-4.6,2.1-6.9,3.2-1,.5-1.7.4-2.2-.6a9.238,9.238,0,0,1-.8-2.7,1.2,1.2,0,0,1,1.6-1.4c.6.2.4,1.2.9,1.6.6.6.8.8,1.4.5.7-.4,4.3-1.8,5-2.2.8-.5-.5-2.6-.4-3s1.6-1.2,2.1-.7S296.1,375.9,296.3,377.2Z" fill-rule="evenodd"/>
    <path id="Path_697" data-name="Path 697" d="M302.4,355.4a1.773,1.773,0,0,1-1.3,1.8,2.146,2.146,0,0,1-1.7-2,1.58,1.58,0,0,1,1.6-1.6c.9-.1,1.4.7,1.4,1.8Z" fill-rule="evenodd"/>
    <path id="Path_698" data-name="Path 698" d="M280.8,368.9c0-1.2.3-1.5,1.4-1.5s1.7.6,1.6,1.9c0,1.2-.5,1.7-1.5,1.7C281.3,371.1,280.8,370.3,280.8,368.9Z" fill-rule="evenodd"/>
    <path id="Path_699" data-name="Path 699" d="M526.9,167.8a1.82,1.82,0,0,1-1.5,1.7c-.8,0-1.4-.8-1.4-1.9a1.633,1.633,0,0,1,1.3-1.6c.7,0,1.5.9,1.6,1.8Z" fill-rule="evenodd"/>
    <path id="Path_700" data-name="Path 700" d="M545.7,167.7c0-1.2.5-1.7,1.6-1.6a1.916,1.916,0,0,1,2,2.1,1.53,1.53,0,0,1-1.7,1.5,1.766,1.766,0,0,1-1.9-2Z" fill-rule="evenodd"/>
  </g>
</svg>
