<svg id="crypto" xmlns="http://www.w3.org/2000/svg" width="329.073" height="297.879" viewBox="0 0 329.073 297.879">
  <circle id="path1812" cx="43.776" cy="43.776" r="43.776" transform="translate(0.077 104.349)" fill="#d99730"/>
  <path id="path1005" d="M141.261,405.377v7.879l-10.416-.038v10.416h16.6L129.5,447.962v7.3h11.646v7.61l9.685-.192v-7.61h11.915l-.115-10.416-18.179.077,17.68-23.6-.115-7.994h-11.3l.038-7.841Z" transform="translate(-102.212 -286.001)" fill="#fff"/>
  <circle id="circle1816-5" cx="43.776" cy="43.776" r="43.776" transform="translate(241.52 104.349)" fill="#fff"/>
  <path id="path2029" d="M729.248,414l22.061,19.448c-11.684.115-25.136-1.96-26.865,11.3,1.537,9.954,9.224,9.762,16.527,9.762l10.685,10.454H730.593c-.077.846-14.72-6.188-16.1-19.255-1.115-10.531,11.607-21.677,12.914-20.37l-12.26-11.146Z" transform="translate(-462.323 -291.357)" fill="#fff"/>
  <path id="path2031" d="M812.807,464.854l-22.061-19.448c11.684-.115,25.136,1.96,26.865-11.3-1.537-9.954-9.224-9.762-16.527-9.762L790.4,413.891h21.062c.077-.846,14.72,6.188,16.1,19.255,1.115,10.531-11.607,21.677-12.914,20.37l12.26,11.146Z" transform="translate(-509.101 -291.247)" fill="#d8d8d8"/>
  <circle id="circle2149" cx="43.776" cy="43.776" r="43.776" transform="translate(241.405)" fill="#28a27d"/>
  <path id="path2502" d="M753.571,186c-10.147,0-29.671,1.076-29.671,6.957,0,4.3,19.524,6.726,29.671,6.726,9.993,0,29.248-1.268,29.248-6.726,0-6.3-19.217-6.918-29.248-6.957Zm-5.5,2.037c-.384,1.5.961,6.841.961,9.263,0,0-21.6.423-21.754-4.3,0-4.766,20.793-4.958,20.793-4.958Zm10.608,0s20.793.231,20.793,5c-.115,4.727-21.254,4.228-21.254,4.228.038-2.421.846-7.725.461-9.224Z" transform="translate(-468.16 -150.987)" fill="#fff"/>
  <path id="path2496" d="M740.5,136.807v12.875h16.334l.577,42.393,13.452-.307-1.153-42.7h17.257L786.39,136.5Z" transform="translate(-478.38 -120.511)" fill="#fff"/>
  <circle id="circle1816-2" cx="43.776" cy="43.776" r="43.776" transform="translate(120.798 104.349)" fill="#e1c257"/>
  <path id="path2541" d="M419.2,412.5v12.337l6.918-.115-.038,27.442h-6.841v12.453h32.784s19.1-.846,19.1-28.364c0-18.6-19.1-23.752-19.1-23.752Zm25.52,12.068a8.348,8.348,0,0,1,4.381.807c2.921,1.806,4.651,6.149,5.073,11.684-.077,3.267.307,13.836-9.032,15.066h-4.3V424.76c1.46-.115,2.767-.192,3.882-.192Z" transform="translate(-280.568 -290.433)" fill="#fff"/>
  <circle id="circle2151" cx="43.776" cy="43.776" r="43.776" transform="translate(120.721)" fill="#7c7c7c"/>
  <path id="path2529" d="M452.962,119.5,431.9,154.59l20.985,12.453,20.985-12.568Z" transform="translate(-288.387 -110.045)" fill="#c8c8c8"/>
  <path id="path2531" d="M432.6,221.215l20.793,29.479L474.07,221.1l-20.793,12.3Z" transform="translate(-288.818 -172.596)" fill="#c8c8c8"/>
  <path id="path2533" d="M453.278,233.622l.115,17.257L432.6,221.4Z" transform="translate(-288.818 -172.781)" fill="#fff"/>
  <path id="path2535" d="M452.885,144.982,431.9,154.59l21.062-35.09Z" transform="translate(-288.387 -110.045)" fill="#fff"/>
  <path id="path2537" d="M452.885,185.8v22.061L431.9,195.409Z" transform="translate(-288.387 -150.863)" fill="#e6e6e6"/>
  <path id="path2539" d="M486.5,145.043l20.985,9.532L486.577,119.6Z" transform="translate(-322.002 -110.107)" fill="#e6e6e6"/>
  <circle id="circle2763" cx="43.776" cy="43.776" r="43.776" fill="#f58f1a"/>
  <path id="path2663" d="M102.263,153.2s-11.146,7.456-11.146,20.947c0,14.259,11.569,21.792,11.569,21.792H82.7V153.277Z" transform="translate(-73.399 -130.793)" fill="#fff"/>
  <path id="path2665" d="M210.423,153.2s11.146,7.456,11.146,20.947c0,14.259-11.569,21.792-11.569,21.792h19.986V153.277Z" transform="translate(-151.772 -130.793)" fill="#fff"/>
  <g id="g2700" transform="translate(22.889 22.435)">
    <path id="path10-4" d="M345.907,243.806a20.575,20.575,0,0,0-5.7.8,20.982,20.982,0,1,0,5.7-.8Zm-1.125,7.7,1.053,3.739c3.013-.581,5.591-.363,6.608,2.251h0a3.663,3.663,0,0,1-.835,4.393c2.324-.109,4.03.8,4.611,3.776.69,3.667-1.706,5.41-5.446,6.717l1.089,3.776-2.287.654-1.053-3.7c-.581.182-1.2.327-1.815.508l1.053,3.739-2.287.653-1.089-3.776-1.634.436-2.941.835-.327-2.832s1.67-.472,1.634-.472a.83.83,0,0,0,.653-.98l-1.706-5.954c.073-.036.182-.036.254-.073-.109,0-.182.036-.254.036l-1.234-4.248a1.239,1.239,0,0,0-1.6-.617c.036-.036-1.634.472-1.634.472l-.69-2.432,3.122-.908h0c.472-.145.944-.29,1.452-.436l-1.053-3.739,2.287-.654,1.053,3.667c.617-.182,1.2-.363,1.815-.545l-1.053-3.631Zm1.38,6.717a13.236,13.236,0,0,0-3.631.8l1.307,4.538c1.271-.363,5.41-1.234,4.647-3.776A2.106,2.106,0,0,0,346.161,258.22Zm2.687,6.644a17.332,17.332,0,0,0-4.357.98l1.416,5.01c1.525-.436,6.462-1.525,5.664-4.32C351.208,265.19,350.119,264.827,348.848,264.863Z" transform="translate(-325.083 -243.806)" fill="#fff"/>
  </g>
  <path id="path10" d="M772.842,696.522a43.77,43.77,0,1,1-31.9-53.039A43.745,43.745,0,0,1,772.842,696.522Z" transform="translate(-445.192 -431.826)" fill="#f8a23b"/>
  <path id="path12" d="M784.678,702.853c.884-5.842-3.574-8.955-9.647-11.031l1.96-7.879-4.8-1.191-1.922,7.687c-1.268-.307-2.575-.615-3.843-.922l1.922-7.725-4.8-1.191-1.96,7.879c-1.038-.231-2.075-.461-3.075-.73v-.038l-6.611-1.653-1.268,5.112s3.574.807,3.5.884a2.531,2.531,0,0,1,2.229,2.806l-2.229,8.994c.115.038.307.077.5.154-.154-.038-.346-.077-.5-.115L750.971,716.5a1.779,1.779,0,0,1-2.191,1.153c.038.077-3.5-.884-3.5-.884l-2.383,5.5,6.265,1.576c1.153.307,2.306.615,3.421.884l-2,7.994,4.8,1.191,1.96-7.879c1.307.346,2.575.692,3.843,1l-1.96,7.841,4.8,1.192,2-7.956c8.186,1.537,14.336.922,16.949-6.5,2.075-5.957-.115-9.416-4.42-11.646,3.113-.769,5.5-2.844,6.111-7.11Zm-10.954,15.374c-1.5,5.957-11.53,2.729-14.8,1.922l2.652-10.569C764.807,710.425,775.261,712,773.724,718.227Zm1.461-15.451c-1.345,5.419-9.724,2.652-12.414,2l2.383-9.609c2.729.692,11.453,1.922,10.031,7.61Z" transform="translate(-479.857 -455.492)" fill="#fff"/>
  <circle id="circle1816" cx="43.776" cy="43.776" r="43.776" transform="translate(125.372 209.773)" fill="#fff"/>
  <path id="Shape" d="M445.627,706.385c-2.075,1.729-4.189,3.843-5.073,6.457-1,3.036.384,6.188,1.73,8.917,1.345,2.806,2.806,5.5,4.074,8.379,1,2.268,2.383,4.92,2.075,7.456-.269,1.806-.884,3.5-1.191,5.3-.269,1.191.884,0,1.268-.307,2.344-2,4.843-4.266,5.8-7.3a6.852,6.852,0,0,0-.307-4.382c-.538-1.384-1.115-2.729-1.73-4.112-1.268-2.806-2.614-5.573-3.92-8.379-.538-1-1.076-2.076-1.537-3.113a11.024,11.024,0,0,1-.807-3.574,12.388,12.388,0,0,1,.077-2.921c.077-.73.269-1.384.307-2.114.038-.538-.307-.653-.769-.307m30.517,0c-2.075,1.729-4.189,3.843-5.073,6.457-1,3.036.384,6.188,1.73,8.917,1.345,2.806,2.806,5.5,4.074,8.379,1,2.268,2.383,4.92,2.075,7.456-.269,1.806-.884,3.5-1.191,5.3-.269,1.191.884,0,1.268-.307,2.344-2,4.843-4.266,5.8-7.3a6.852,6.852,0,0,0-.307-4.382c-.538-1.384-1.115-2.729-1.73-4.112-1.268-2.806-2.614-5.573-3.92-8.379-.538-1-1.076-2.076-1.537-3.113a11.024,11.024,0,0,1-.807-3.574,12.388,12.388,0,0,1,.077-2.921c.077-.73.269-1.384.307-2.114,0-.538-.307-.653-.769-.307" transform="translate(-293.505 -471.245)" fill="#e5e5e5"/>
  <path id="path478" d="M481.318,693.039a24.21,24.21,0,0,0-6.265,6.995,8.155,8.155,0,0,0-.615,5.919,51.212,51.212,0,0,0,2.614,7.11c1.922,4.458,4.458,8.648,6.342,13.144a18.026,18.026,0,0,1,1.537,5.189c.154,2.191-.615,4.535-1.191,6.572a6.282,6.282,0,0,0-.461,2c.077.461.307.269.615.077a38.468,38.468,0,0,0,3.267-2.844c2.729-2.575,5.88-6.034,5.611-10.108a16.167,16.167,0,0,0-1.576-4.766c-.73-1.806-1.537-3.5-2.344-5.266-1.46-3.267-3-6.457-4.612-9.647a29.32,29.32,0,0,1-1.576-3.344,13.429,13.429,0,0,1-.922-4.727,19.366,19.366,0,0,1,.154-3.651c.077-.807.307-1.537.307-2.306.115-.73-.307-.807-.884-.346" transform="translate(-314.398 -462.972)" fill="#f7f7f7"/>
  <circle id="circle1814-0" cx="43.776" cy="43.776" r="43.776" transform="translate(4.651 209.773)" fill="#fff"/>
  <path id="path132" d="M147.622,779.888a2.7,2.7,0,0,0,.346-.231,51.026,51.026,0,0,0,9.685-7.341,3.667,3.667,0,0,0,.461-.615c.192-.346.384-.769.577-1.115a12.085,12.085,0,0,0,.769-9.032,12.3,12.3,0,0,0-13.413-8.725,13.02,13.02,0,0,0-4.651,1.537,15.24,15.24,0,0,1-8.878,1.922,14.96,14.96,0,0,1-4.458-1.153,15.541,15.541,0,0,1-3.152-1.883,1.065,1.065,0,0,0-.307-.192,1.3,1.3,0,0,0,.115.307,51.632,51.632,0,0,0,4.612,9.07,54.657,54.657,0,0,0,6.8,8.571A51.14,51.14,0,0,0,144.586,778c1.345.884,2.652,1.691,3.036,1.883" transform="translate(-99.195 -499.895)" fill="#ebebec"/>
  <path id="path134" d="M200.952,729.863a.787.787,0,0,0,.307-.307c1.115-1.422,2.152-2.844,3.152-4.343a53.21,53.21,0,0,0,7.3-17.526,45.911,45.911,0,0,0,.961-6.457,42.557,42.557,0,0,0,.231-4.42.749.749,0,0,0-.038-.307,1.655,1.655,0,0,1-.384-.269c-1.153-.653-2.306-1.268-3.5-1.806a38.392,38.392,0,0,0-5.265-2.075,11.643,11.643,0,0,0-6.688-.307,12.388,12.388,0,0,0-3.613,22.561c.231.154.423.269.615.384a14.679,14.679,0,0,1,5.265,5.573,14.212,14.212,0,0,1,1.768,7.841c0,.423-.077.922-.115,1.461" transform="translate(-137.958 -462.324)" fill="#f8f8f8"/>
  <path id="path136" d="M115.5,692.753v.346c0,2.037.154,4.074.346,6.111.231,1.845.538,3.651.922,5.458a5.974,5.974,0,0,0,.307.884,12.409,12.409,0,0,0,23.176-1.845,19.417,19.417,0,0,0,.5-3.651,16.672,16.672,0,0,1,.269-2.421,14.575,14.575,0,0,1,8.8-10.838,5.019,5.019,0,0,1,.807-.307c.038,0,.115-.038.077-.077a46.671,46.671,0,0,0-7.648-.73,52.489,52.489,0,0,0-16.373,2.229,51.3,51.3,0,0,0-11.184,4.843" transform="translate(-93.593 -458.613)" fill="#e5e5e5"/>
</svg>
