<svg id="crypto" xmlns="http://www.w3.org/2000/svg" width="386.885" height="293.369" viewBox="0 0 386.885 293.369">
  <path id="Path_806" data-name="Path 806" d="M281.957-292.171c-3.3-1.312-6.7-2.6-10.236-2.557,9.37,14.376,18.906,29.125,22.993,45.918,1.147,4.711,1.861,9.573,3.728,14.032a3.639,3.639,0,0,0,1.621,2.083,3.665,3.665,0,0,0,2.42-.1q15.082-4.124,29.974-8.944c3.549-1.149,7.146-2.355,10.217-4.519,3.315-2.335,5.844-5.665,8.954-8.282,8.622-7.26,20.894-8.453,29.661-15.53a4.734,4.734,0,0,0,1.571-1.86,5.381,5.381,0,0,0-.183-3.3c-2.905-10.661-5.859-21.441-11.154-31.077-2.024-3.684-4.387-7.19-6-11.084-1.992-4.809-2.773-10.042-3.537-15.21-12.138,4.9-27.575,13.265-39.1,19.548,7.842,1.432,17.937,4.208,24.893,8.2,2.112,1.212,4.005,1.451,4.5,3.888.315,1.561,1.253,1.777.752,3.288q-2.12,6.4-4.807,12.578c-1.993,4.585-4.568,9.416-9.072,11.35-4.356,1.871-9.317.516-13.848-.853a6.956,6.956,0,0,1-4.6,4.264,4.176,4.176,0,0,1-4.939-3.064c-.621-3.7-1-3.924-4.371-5.6q-4.718-2.34-9.48-4.573-9.858-4.588-19.952-8.606" transform="translate(-68.361 336.563)" fill="#6dcdbc"/>
  <path id="Path_807" data-name="Path 807" d="M337.066-173.253l22.681-31.7,31.225,15.08-4.787,28.5-5.24,2.727-9.586-5.391-8.142,9.288Z" transform="translate(-68.361 336.563)" fill="#d7e60e"/>
  <path id="Path_808" data-name="Path 808" d="M287.558-226.277c2.455-1.58,5.221-3.229,8.1-2.725.7.124,1.381.375,2.088.467a9.284,9.284,0,0,0,2.947-.244,314.626,314.626,0,0,0,37.5-9.666,26.684,26.684,0,0,0,5.668-2.356c1.344-.815,2.541-1.849,3.829-2.747a22.457,22.457,0,0,1,9.816-3.812c12.565-1.673,24.4-3.935,37.016-5.215a2.351,2.351,0,0,1,1.215.092,2.14,2.14,0,0,1,.756.683c2.479,3.183,3.255,7.346,3.692,11.354,1.281,11.714,2.855,23.75,3.883,35.488a187.773,187.773,0,0,0,3.452,22.4c-2.067.2-6.387.333-8.453.532a6.976,6.976,0,0,1-3.628-.293,2.4,2.4,0,0,1-1.367-3.005c1.841-1.565,4.933-.679,6.788-2.228,1.552-1.3,1.521-3.648,1.353-5.663-.727-8.686-3.341-20.218-4.165-28.9a220.41,220.41,0,0,0-3.987-25.871,1.993,1.993,0,0,0-.791-1.176,2.782,2.782,0,0,0-2.139-.172q-20.661,3.942-41.286,8.08a3.078,3.078,0,0,0-2.261,1.2,2.944,2.944,0,0,0-.063,1.992c2.111,9.886,8.072,18.858,8.693,28.949a6.454,6.454,0,0,1-.135,2.131,7.25,7.25,0,0,1-.723,1.567q-4.124,7.35-8.25,14.7c-4.048,7.21-11.2,12.217-13.845,20.05a4.382,4.382,0,0,1-.721,1.5,4.093,4.093,0,0,1-1.317.9,70.608,70.608,0,0,1-18.252,6.18q-8.2-21.861-16.913-43.526c-1.34-3.331-2.693-6.663-4.34-9.852-1.835-3.553-3.749-6.846-4.161-10.824" transform="translate(-68.361 336.563)" fill="#70cc8c"/>
  <path id="Path_809" data-name="Path 809" d="M291.494-302.7a5.951,5.951,0,0,1-2.231,1.213c-3.14,1.012-6.626.429-9.8-.488a7.764,7.764,0,0,1-3.441-1.705c-1.3-1.323-1.395-3.279-1.292-5.053a15.048,15.048,0,0,1,1.351-5.991,7.844,7.844,0,0,1,4.773-4.1,8.417,8.417,0,0,1,5.937.753,13.222,13.222,0,0,1,4.393,3.856,9.2,9.2,0,0,1,1.433,2.488,7.147,7.147,0,0,1,.328,2.785,15.921,15.921,0,0,1,.1,1.745A5.956,5.956,0,0,1,291.494-302.7Zm58.261,2.437c-.535-3.015-3.635-4.927-6.479-6.4a289.294,289.294,0,0,0-41.664-17.054c-9-2.991-18.153-5.723-27.585-7.109a3.631,3.631,0,0,0-1.865.06,3.364,3.364,0,0,0-1.32,1.193,101.537,101.537,0,0,0-12.024,20.3,4.274,4.274,0,0,0-.511,2.991c.608,1.84,3.163,2.167,4.888,3.2a5.065,5.065,0,0,1,1.625,7,3.274,3.274,0,0,0,2.8,1.709,4.239,4.239,0,0,0,3.2-1.7c.467-.651.808-1.505,1.605-1.736a2.836,2.836,0,0,1,1.9.393c6.117,2.8,13.122,3.457,19.34,6.06,2.444,1.024,4.745,2.341,7.229,3.272,1.592.6,3.249,1.033,4.825,1.668,3.164,1.277,5.956,3.344,9.248,4.292,1.356.391,2.955.709,3.6,1.9a3.89,3.89,0,0,1,.171,2.479,4.49,4.49,0,0,0,.052,2.492,1.684,1.684,0,0,0,2.14.96c.728-.379.684-1.064,1.352-1.531.381-1.74,2.656-2.505,4.528-2.293s3.616,1.063,5.491,1.236c3.908.364,7.485-2.3,9.59-5.424s3.184-6.76,5.02-10.03c1.413-2.515,3.34-5.115,2.843-7.92" transform="translate(-68.361 336.563)" fill="#f68a63"/>
  <g id="Group_44" data-name="Group 44" transform="translate(-68.361 336.563)">
    <path id="Path_810" data-name="Path 810" d="M400.162-196.242l-.457.035c-.337,1.931-.712,3.855-.989,5.793-.089.631.04,1.379.952,1.337.617-.028,1.465-.1,1.373-.967C400.825-192.117,400.463-194.176,400.162-196.242Zm-18.693-.871c-.2-1.637.6-2.952-.952-3.685-1.665-.788-2.889-.152-4.044,1.423Zm10.725,14.837c3.192,1.064,4.148.2,3.748-3.436C393.233-186.155,391.912-185.1,392.194-182.275Zm-22.878-21.339c1.1-2.193-.259-3.469-1.339-4.467a2.217,2.217,0,0,0-2.921.309.831.831,0,0,0,.139,1.369C366.479-205.5,367.8-204.638,369.316-203.615ZM265.06-295.3s2.7,3.161,4.977,1.631a1.555,1.555,0,0,0-.249-2.477c-1.188-.72-2.455-1.741-3.567-.925A8.168,8.168,0,0,0,265.06-295.3Zm120.133,36.456a163.207,163.207,0,0,1-21.835,7.214c7.435-.5,14.138-3.869,21.339-5.26C385.83-257.111,385.6-257.836,385.193-258.848ZM319.732-277.16s-1.617,3.315-1.117,5.127c.248.9,1.824.971,2.86.724,2.139-.511,2.428-4.176,2.428-4.176Zm65.862,13.481a129.093,129.093,0,0,0-16.07,7.736c5.849-.928,10.632-3.463,15.709-5.093C386.524-261.451,386.356-262.512,385.594-263.679Zm-113.873-24.4c-.069-1.365-1.785-3.313-1.785-3.313a4.074,4.074,0,0,1-1.753,0,8.979,8.979,0,0,0-1.28-.207l-7.206,4.365,12.025-.845ZM263.5-268.552c-1.389-5.444-2.545-10.326-3.436-15.273-.252-1.4-2.125-.507-3.248-.547-.679-.024-.9.519-.664,1.269,1.487,4.841,4.319,9.068,6.224,13.714.08.2.385.3,1.124.836Zm130,101.417c.508-3.367,2.027-12.522,2.027-12.522a7.4,7.4,0,0,0-3.371-.013c-.667.255-.751,1.051-.847,1.76a55.543,55.543,0,0,1-1.337,7.2c-.931,3.393.715,3.943,3.528,3.572Zm-103.924-121c.029-.275-16.278-7.184-16.278-7.184s-.331.7-.624,1.288c-.543,1.095,2.88,5.861,2.88,5.861s9.666.035,14.022.035Zm33.31-27.518a1.8,1.8,0,0,0,2.044-.1c4.359-2.288,8.7-4.6,13.1-6.816,7.1-3.571,14.228-7.068,21.343-10.6.407-.2.779-.453.524-.975-.232-.476-.637-.491-1.084-.283-3.495,1.623-7.026,3.169-10.48,4.879-7.258,3.595-14.482,7.258-21.7,10.928a8.577,8.577,0,0,0-3.743,2.963Zm68.381,128.142c-.173-.079-.347-.156-.521-.233a4.659,4.659,0,0,0-.655.943c-2.827,7.61-5.457,15.276-6.505,23.381-.121.932-.633,1.936.936,2.156,1.331.184,2.283.031,2.453-1.6s.475-3.255.763-4.873q1.75-9.888,3.529-19.769Zm59.261-73.277c-7.456-1.471-19.84-1.863-19.84-1.863a39.252,39.252,0,0,0-6.333,4.543c.38.039.68.085.983.095,5.775.2,11.549.489,17.326.563A9.37,9.37,0,0,0,450.529-260.786ZM380.813-135.054c3.021-.889,5.237-2.675,7.709-3.976,2.935-1.543,2.395-4.1,2.435-6.551.012-.837-.577-1.017-1.317-.987-2.6.111-5.205.2-7.809.291-.507.019-1.009.064-1.012.729-.011,3.425-.005,6.85-.005,10.493Zm20.2-51.547a19.329,19.329,0,0,0-2.668.791l.34,4.319,8.829-1.067s-1.732-8.553-1.916-11.808c-.335-5.907-2.187-11.618-2.241-17.578-2.828,7.733-.645,15.566-.411,23.6.016.584-.019,1.412-1.933,1.741Zm9.672-8.512c.947.209,20.221.067,29.111-.111,2.479-.049,1.857-5.2,1.857-5.2s-1.1-.041-2.2,0c-6.307.248-12.61.561-18.916.82-3.552.145-6.686,2.484-9.857,4.488Zm3.779,31.651c-1.485-.193-2.151-.325-2.821-.361-4.355-.229-15.62-.224-15.62-.224l-1.248,13.674S407.745-158.881,414.468-163.461Zm-26.861-22.9a118.472,118.472,0,0,0-14.982,23.351,1.143,1.143,0,0,0,.793,1.656,31.885,31.885,0,0,1,7.526,2.7c1.448-9.6,3.255-18.837,6.663-27.7Zm-45.546-57.027a11.978,11.978,0,0,1-.831-1.653c-2.18-6.646-4.469-13.262-6.449-19.967-1.349-4.569-2.167-9.346-8.5-9.162,0-.051-.044.105-.008.24,2.593,9.54,6.493,18.617,10.005,27.825C337.964-241.694,339.034-241.442,342.062-243.387Zm110.58-15.872c-2.42,1.332-4.507,2.032-4.492,5.027a80.847,80.847,0,0,1-.589,13.018A345.231,345.231,0,0,0,443.98-203.2a53.221,53.221,0,0,0,.412,5.973s4.557-2.051,4.969-4.623a55.949,55.949,0,0,0,.5-9.158c-.057-11.916.767-23.782,1.733-35.643.328-4.037.668-8.073,1.045-12.612ZM301.391-286.741l1.079.776c9.414,4.179,19.3,7.1,28.857,10.944,7.3,2.937,7.785,2.448,10.456-2.044,1.9-3.187,5.4-10.242,5.4-10.242l-24.937-.207s8.466,3.709,9.525,4.1,1.1,2.021-.251,1.343-14.782-5.165-14.782-5.165ZM414.916-165.765c1.4.1,1.9-.413,1.98-1.777.4-7.208,1.056-23.945,1.056-23.945l-9.786-.643s.315,1.223.577,2.277c.167.669.233,1.363.357,2.043.515,2.825,1.311,5.9.473,7.3s-11.226,1.912-11.226,1.912l-1.8,12.062s16.734.649,18.37.772ZM113.294-247.911s3.42,3.564,5.439,2.988c2.9-.829,5.726-1.916,8.553-2.973,8.185-3.065,16.294-6.345,24.543-9.221,12.281-4.283,24.61-8.437,37.011-12.354,6.041-1.908,11.994-4.229,18.389-5.169-3.841-.963-5.289-3.636-10.769-1.977s-18.71,5.527-33.7,10.682c-15.14,5.208-31.959,11.666-40.163,14.774-2.992,1.133-9.3,3.251-9.3,3.251ZM339.311-239.8l14.7,36.81c.365-.8,2.632-5.5,2.632-5.5s-4.352-13.848-5.395-16.889c-1.739-5.073-2.735-8.746-4.464-13.824-.412-1.207-.2-2.613,1.859-3.021s9.134-2.331,14.337-3.171c9.474-1.528,18.885-3.444,28.318-5.221,1.183-.221,1.64.253,1.8,1.372.468,3.195.925,6.393,1.523,9.565,1.287,6.84,2.669,13.662,3.991,20.5.563,2.915,1.063,5.84,1.591,8.76.995-2.227,1.821-4.493,1.605-6.656-1.131-11.329-2.683-22.617-3.739-33.951-.308-3.311-2.012-3.477-4.312-3.085-9.757,1.661-19.534,3.236-29.229,5.215-6.065,1.237-12.294,2.167-17.966,4.717-2.444,1.1-3.865,4.149-7.256,4.383Zm61.518,99.93a27.888,27.888,0,0,0-3.813-1.211c-1.972-.452-2.437-.179-3.975,1.127a55.27,55.27,0,0,1-7.72,5.311c-1.848,1.1-3.543,2.848-5.827,2.773-7.758-.257-15.49.4-23.231.488-12.406.147-24.817-.176-37.226-.151a4.343,4.343,0,0,1-3.9-2.227s-11.905,5.421-16.822,8.829c1.847.2,31.05-.383,43.827-1.016,13.91-.689,27.8-1.736,41.71-2.464a12.615,12.615,0,0,0,7.41-2.422,58.882,58.882,0,0,0,9.562-9.037Zm-23.665-163.9c1.681,4.637,5.247,13.882,5.247,13.882s19.676-.592,28.831-1.04c1.809-.088,5.567-.035,8.657-1.573,3.611-1.8,6.509-5.267,7.366-6.023,2.221-1.961,4.445-3.92,6.936-6.116C414.926-304.343,396.142-304.6,377.165-303.778Zm1.395,157.8c-.495,0-1.025-.021-1.552,0-8.268.392-16.53.892-24.8,1.164-10.874.357-21.782.036-32.615,1.164-2.613.272-1.495,1.792-1.492,4.724s-.92,3.524,1.027,4.717c.115.069.313,0,.473.005,4.763.109,9.528.323,14.29.3,6.837-.029,13.67-.019,20.51.119,7.144.144,14.285-.836,21.457-.577.888.033,2.555.464,2.64-1.024C378.694-138.855,378.56-142.348,378.56-145.978ZM107.851-190.762s1.478-3.145,2.956-2.037c1.274.957.266,1.685-.76,4.133a65.312,65.312,0,0,1-3.016,5.885s-.4,8.169-.473,12.256c-.1,5.415-.475,10.816-.261,16.25.06,10.132-.041,23.311-.164,26.414s.282,3.66,2.993,3.595c2.689-.067,1.928-1.884,2.1-5.09s1.191-24.124,1.978-37.041c.8-13.053.714-26.138,1.413-39.179.59-11,1.062-30.7,1.076-33.383s-.487-2.548-1.612-3.968a13.324,13.324,0,0,0-3.366-2.729ZM438.9-202.895a17.425,17.425,0,0,0,2.824-.1s1.145-17,1.664-23.977c.613-8.249,2.789-16.334,2.631-24.675a7.978,7.978,0,0,0-.913-3.5l-15.536-.08a12.324,12.324,0,0,0-.931,3.372c-1.053,9.636-2.593,19.22-3.995,28.815-.957,6.553-.884,13.225-2.32,19.721-.256,1.165.4,1.356,1.373,1.3C428.672-202.322,433.642-202.595,438.9-202.895Zm-37.275,66.9c-3.9,2.913-7.594,5.727-11.356,8.445a2.042,2.042,0,0,0-.833,2.565c3.7,14.236,7.212,28.52,12.413,42.318,1.749,4.638,3.293,9.356,4.937,14.056,1.095-.2,1.568-1.007,2.148-1.678,2.94-3.41,5.958-6.116,9.07-9.362,2.509-2.617,4.015-4.46,2.5-8.031-4.795-11.269-8.72-24.69-13.9-35.823-1.845-3.962-3.251-8.129-4.972-12.49Zm-14.117-119.8c2.363-.413,4.547-.865,6.75-1.161,3.649-.489,6.256-.521,6.533,4.792.5,9.612,1.871,19.178,2.877,28.763,5.8-21.575,10.049-43.383,14.664-65.381-11.909.775-23.486-.045-35.279,1.243,1.921,5.944,3.681,11.5,5.531,17.024.409,1.224,1.3,2.645.216,3.563-1.412,1.192-.8,2.061-.315,3.268.463,1.143,1.757,2.844.187,3.537-2.449,1.08-1.543,2.537-1.164,4.353Zm-16.176,95.78c-.972,2.225-2.041,4.253-2.752,6.4-.993,3-2.279,3.537-4.891,1.825-6.327-4.147-12.556-8.466-19.066-12.305-1.924-1.133-9.47-3.647-9.47-3.647a20.932,20.932,0,0,0-4.74,2.281,84.372,84.372,0,0,1-11.91,6.24A18.586,18.586,0,0,1,312.461-158s-7.554,4.663-10.665,6.384c-3.371,1.865-6.676,3.851-10.625,6.14,1.217.093,1.72.181,2.219.164,11.782-.437,23.571-.743,35.343-1.371,11.676-.623,23.379-.232,35.051-1.256,8.833-.776,17.752-.193,26.578-1.335.783-.1,1.571-.108,1.66-1.28a100.283,100.283,0,0,1,1.056-10.922c.719-3.819-1.428-3.56-4.015-3.36a15.429,15.429,0,0,0-.213,2.223c.1,2.32-.313,3.88-3.292,3.249-1.2-.253-2.907-.365-3.1,1.7-.133,1.411-.973,1.541-2.017,1.028a45.867,45.867,0,0,0-9.106-3.375Zm8.638-129.725c-6.4-14.27-10.249-28.715-14.857-43.188-13.677,5.4-26.231,12.085-39.1,19.24,7.8,2.728,15,5.26,21.758,8.833,5.323,2.815,6.505,6.352,4.192,11.356-.54,1.172-.96,2.4-1.5,3.76ZM366.349-153.11c1.872-4.089,3.685-7.99,5.452-11.916,4.005-8.9,9.664-16.778,15.316-24.645,1.156-1.612.739-2.109-.717-2.751-3.389-1.493-11.15-4.692-11.15-4.692s-2.6,1.985-3.633,1.045.88-2.592.88-2.592-1.161-.913-1.884-1.38c-1.756-1.136-8.2-4.751-8.2-4.751a7.5,7.5,0,0,0-1.109,2.461c-.2.712-.785,1.292-1.573.9-.752-.377-.607-1.172-.343-1.835.175-.439,1.441-2.788,1.441-2.788a8.01,8.01,0,0,0-1.241-.76c-1.2-.688-1.633-.116-2.084.775-.695,1.375-1.357,2.767-2.071,4.132-5.277,10.092-12.032,19.244-18.369,28.655-1.223,1.817-.737,2.632.973,3.285,7.141,2.731,13.12,7.49,19.7,11.2,2.944,1.66,5.14,4.443,8.61,5.659Zm69.134-149.919c-5.032,4.475-9.641,8.121-13.617,12.478a5.407,5.407,0,0,0-1.477,2.6c-2.017,10.034-4.011,20.072-6.117,30.087-2.044,9.721-7.594,33.772-8.205,36.106a16.219,16.219,0,0,0-.352,8.393c1.383,5.4.824,11.186,2.877,16.722,2.756-1.517,5.512-2.973,8.2-4.547,1-.584,2.4-1.288,2.649-2.2,1.395-5.167,1.813-10.506,2.473-15.813,1.4-11.21,3.159-22.375,4.775-33.558a3.033,3.033,0,0,0-.329-2.481c-.4-.415-5.392.14-6.929.232-.663.039-1.547.112-1.665-.815a1.951,1.951,0,0,1,.959-2.047c2.083-1.147,4.265-2.139,6.253-3.428,1.452-.941,3.329-1.588,3.653-3.72,1.22-8.025,3.951-15.738,4.868-23.833.5-4.445,1.233-8.865,1.985-14.173Zm-100.062,31.5c.457,1.464.812,2.448,1.073,3.456,1.843,7.108,4.6,13.909,6.99,20.833.336.972.832,1.22,1.8.661,2.576-1.484,5.151-2.988,7.812-4.312,9.972-4.96,20.029-9.75,29.914-14.873,1.525-.791,3.669-2.144,2.681-4.971-1.785-5.107-3.363-10.288-4.932-15.468a1.423,1.423,0,0,0-1.712-1.2c-10.033-.113-29.778.321-29.778.321s-3.387,6.968-4.764,9.9c-1.745,3.717-3.765,6.957-9.086,5.653Zm-7.154-17.788c-6.813-3.1-20.166-5.957-20.545-6.624s1.027-1.377,1.747-1.159c4.8,1.459,9.588,2.956,14.376,4.456,3.435,1.075,10.353,2.992,10.353,2.992l13.609.229a13.128,13.128,0,0,0,1.257-2.44c.493-1.56.843-3.167,1.359-4.717a3.866,3.866,0,0,0-1.345-4.3,22.8,22.8,0,0,0-5.547-3.633c-5.635-2.465-11.414-4.6-17.074-7.008-14.95-6.364-29.658-13.341-44.99-18.749-8.98-3.167-9.39-4.459-14.133,5.1-2.62,5.284-5.375,10.486-8.44,15.53-1.951,3.209-1.336,4.92,2.071,6.56,1,.481,1.975,1.021,2.976,1.505,10.076,4.877,20.251,9.7,31.149,12.234,5.232,1.215,10.981.209,17.149.209-2.059-.667-3.537-1.133-5-1.628-.641-.215-1.549-.395-1.172-1.329.331-.817,1.173-.593,1.817-.315,6.368,2.765,13.074,3.373,20.387,3.081Zm64.521,100.969c1.629-.653,3.564.379,3.8-1.264,1.036-7.116,2.816-13.993.927-21.525-2.9-11.57-4.5-23.473-6.5-35.26-.3-1.775-.988-1.741-2.293-1.491-8.037,1.548-16.064,3.145-24.123,4.565A122.736,122.736,0,0,0,349-239.569c.685,2.212,1.221,4.311,1.979,6.327C353.628-226.186,358.6-210,358.6-210l3.485,1.5s6.144-4.727,8.406-1.108a10.039,10.039,0,0,1,1.252,5.531,10.866,10.866,0,0,1-.493,1.608,6.5,6.5,0,0,0,1.848,1.3c1.291.563,1.843-.479,2.592-1.017,4.193-3.008,7.825-2.1,7.885,2.544.065,4.888,3.545,5.4,6.48,6.384,2.524.847,4.48,1.279,2.735,4.913ZM276.437-285.621s4.757,12.758,7.249,18.832c4.795,11.682,9.574,23.375,15.27,34.663a1.172,1.172,0,0,0,1.637.713c4.559-1.353,9.161-2.553,13.716-3.919,6.357-1.9,12.688-3.9,19.022-5.876,1.209-.379,1.341-.985,1.024-2.376-1.529-6.728-5.411-12.581-6.928-19.306a73.807,73.807,0,0,0-2.552-7.573c-2.476,2.759-5.4,1.368-7.294.161-3.113-1.981.06-5.169-.431-7.452-7.688-3.649-21.062-7.868-21.062-7.868Zm12.8,138.583c2.368-1.331,4.356-2.476,6.371-3.576q7.4-4.046,14.828-8.044c1.035-.555,1.123-1.168.637-2.2-4.069-8.648-8.336-17.214-12.066-26.009-5.369-12.653-9.87-25.645-14.209-38.69-.653-1.964.073-2.469,1.644-3.1,2.791-1.129,5.5-2.471,8.22-3.76.855-.405,1.055-1.037.62-1.973-2.008-4.327-4.049-8.641-5.913-13.03-5.144-12.118-10.21-24.27-15.294-36.412-.444-1.06-.991-1.883-2.313-1.776-2.279.185-4.559.34-6.837.521-1.449.116-2.127.637-1.807,2.343.933,4.96,1.708,9.949,2.585,14.92,2.728,15.488,7.025,30.651,8.925,46.324,1.443,11.905,4.071,23.661,5.924,35.523,1.364,8.729,3.939,17.177,5.593,25.837.815,4.256,1.98,8.444,3.093,13.106Zm7.516-84.133c-2.637,1.287-5.164,2.608-7.765,3.757-1.752.773-1.784,1.881-1.209,3.445,3.029,8.27,5.932,16.588,9.017,24.837a369.108,369.108,0,0,0,15.409,34.612c.933,1.883.567,4.528,4.645,2.771s17-7.414,17-7.414a14.737,14.737,0,0,1,1.125-3.631c3.9-7.438,9.524-13.953,13.977-21.13,1.288-2.079,3.5-6.267,3.5-6.267s-2.653-7.761-4.175-11.01c-4.125-8.8-7.32-17.973-11.117-26.9-.471-1.105-.915-1.289-1.993-.964q-16.61,5-33.243,9.917c-2.04.605-4.005.791-5.176-2.024ZM280.473-61.288c41.482-3.337,82.575-4.582,123.877-6.21-.96-3.221-1.581-5.869-2.531-8.395-3.876-10.3-7.665-20.629-10.37-31.312-1.432-5.661-2.379-11.441-4.473-16.935-.573-1.5-1.456-2.144-2.983-1.956-4.6.565-9.281.144-13.838.692-13.91,1.669-27.91,1.673-41.855,2.62-10.32.7-20.7.473-31.058.628-1.036.015-1.889-.005-2.115,1.319C292.7-106.567,288.3-92.8,284.483-78.873c-1.495,5.461-2.535,11.048-4.011,17.584Zm-166.757-63.47c4.178-1.692,8.115-3,11.789-4.829,10.751-5.364,21.372-10.992,32.093-16.417,9.126-4.62,18.424-8.913,27.451-13.713,6.723-3.576,13.413-7.208,20.322-10.4,2.187-1.011,4.085-1.641,4.041-4.665q-.2-14.25-.02-28.5c.147-12.052.361-24.1.735-36.15.331-10.633.38-21.261.241-31.893-.012-.892-.027-1.829-1.4-1.447-6.243,1.741-12.6,3.14-18.7,5.287-13.97,4.916-28.278,8.812-42.06,14.3-9.606,3.829-19.432,7.11-29.177,10.59-1,.357-1.187.929-1.281,1.885-.015,11.109-.323,23.266-.789,32.581s-.438,16.234-.808,24.347c-.74,16.2-1.646,32.386-2.416,48.58-.159,3.362-.023,6.737-.023,10.438Zm279.217-18.7c2.807.395,5.511.5,8.1,1.376a3.011,3.011,0,0,1,2.321,2.143c2.192,9.324,6.817,17.7,10.229,26.547,3.171,8.22,5.241,16.907,8.906,24.878a7.282,7.282,0,0,1-1.024,8.176c-1.284,1.667-2.927,3.017-3.833,4.292-2.033,2.861-5.557,5.689-8.373,9.122a3.715,3.715,0,0,1-2.809,1.572c-11.368.583-22.725,1.34-34.1,1.783-10.82.423-21.661.339-32.477.828-9.324.424-45.246,3.28-57.524,4.212-2.12.161-5.587-.032-4.651-3.671.669-2.6,2.112-5.8,2.559-7.561,3.908-15.435,8.01-30.818,11.942-46.246.68-2.664.627-7.984,4.132-10.119s19.446-10.785,19.446-10.785.085-3.887-.063-5.817c-.087-1.124-18.188-.129-25.879.185a2.339,2.339,0,0,1-2.561-1.957c-2.729-12.176-5.637-24.317-8.092-36.547-2.016-10.041-3.22-20.245-5.28-30.275-1.852-9.014-2.468-18.206-4.353-27.193-1.624-7.74-2.688-15.761-5.607-23.01a96.563,96.563,0,0,0-7.632-15.02c-1.4-2.232-2.22-4.815-3.412-7.184-1.331-2.644.183-3.709,2.279-4.716,2.985-1.435,5.893-3.032,9.245-4.776-2.905-1.309-.92-4.509-.92-4.509s.336-.9.172-1.137c-.412-.6-1.064-.392-1.567-.055-4.3,2.885-8.312,6.09-11.168,10.51-5.537,8.569-9.28,18.016-13.59,27.206-5.155,10.989-8.845,23.066-17.916,31.861a42.913,42.913,0,0,1-5.157,4.664c-2.308,1.612-2.169,3.961-2.169,6.411,0,12.062-.143,24.123-.173,36.184-.009,3.335.2,6.669.292,10.005.032,1.136-.739,1.683-1.637,2.129-6.932,3.437-13.682,7.322-20.837,10.2-7.568,3.048-9.872,8.394-10.716,16.082-1.957,17.848-2.48,35.745-3.267,53.64a183.721,183.721,0,0,1-2.524,23.765c-.6,3.42,1.3,6.3,1.752,9.479.177,1.26.495,2.5.679,3.762.1.68.173,1.539-.78,1.644-.88.1-1.823-.169-1.911-1.252a46.454,46.454,0,0,0-2.567-10.45c-.637-1.975.623-4.536.939-6.845a375.475,375.475,0,0,0,3.019-41.974,275.821,275.821,0,0,1,3.219-35.676c.288-1.859.36-3.751.577-6.124-2.529,1.337-4.731,2.535-6.961,3.677q-12.688,6.5-25.4,12.958a3.994,3.994,0,0,0-2.485,3.333c-2.3,17.358-4.012,34.735-3.357,52.3.289,7.736-.124,15.513.856,23.21.541,4.25,1.673,8.429,2.587,12.63.243,1.112.317,2.109-1.057,2.357s-1.716-.672-1.816-1.824a63.647,63.647,0,0,0-2.888-13.466c-.944-3.021,0-6.609-.043-9.943-.157-11.693-.68-23.4.221-35.072.748-9.685,2.932-30.022,2.932-31-4.344,2.192-8.339,4.372-12.471,6.255a143.917,143.917,0,0,1-14.567,6.009c-2.644.869-5.669.68-8.528.753-1.391.036-1.376-1.24-1.295-2.273a189.948,189.948,0,0,0,.315-19.355c-.32-12.4.724-35.743.622-36.592C92.133-161.279,72.3-125.861,71.007-124.262s-3.524,1.772-2.282-1.23,7.173-11.629,8.455-13.564c3.38-5.1,24.308-41.66,25.952-44a23.034,23.034,0,0,0,1.709-4.032s.64-8.818,1.013-13.621c1.036-13.35,2.458-40.358,2.581-44.7s4.187-4.509,8.156-5.935c11.307-4.06,22.7-7.9,33.913-12.2,14.136-5.412,43.134-14.23,46.668-15.278s7.092.956,10.989,2.328c6.507,2.289,4.549,1.645,4.789,10.246.283,10.081-.144,20.183-.247,30.277-.031,3.008,0,6.017,0,9.174,2.933-1.711,5.284-4.42,7.485-6.833,6.778-7.43,9.717-16.973,13.928-25.882,3.879-8.206,7.52-16.526,11.453-24.706A42.192,42.192,0,0,1,258-299.051c.659-.515,1.285-1.073,2.053-1.719-.584-.377-1.011-.663-1.445-.935-3.805-2.368-4.2-3.551-2.011-7.368a171.835,171.835,0,0,0,10.172-20.51c2.068-5.085,6.26-5.359,9.892-4.455A81.443,81.443,0,0,1,285-331.153a1.335,1.335,0,0,0,1.672-.455c.716-.8.907-1.632,2.7-1.021,1.336.455,3.384.628,4.045,2.123a3.336,3.336,0,0,1,.112,2.04c-.144.711,2.979,2.451,3.915,1.036.82-1.24,1.965-1.815,3.261-1.087,1.563.88,3.727,1.367,3.6,3.852-.027.528-.02,1,.488,1.225,5.033,2.269,15.12,6.761,15.12,6.761s28.211-15.485,37.76-19.5a4.17,4.17,0,0,1,3.708.051A3.284,3.284,0,0,0,365.234-335c2.089-.543,2.1,2.029,2.528,3.292,2.7,7.944,8.6,25.713,8.6,25.713s25.363-.6,37.515-.789c6.911-.108,13.816-.4,20.723.136,1.969.155,3.091.615,2.865,3.024-.905,9.644-6.407,38.838-6.407,38.838a47.621,47.621,0,0,0,5.737.628c5.439.14,10.87.552,16.3.909,1.091.073,2.357.2,2.115,1.907-1.189,8.366-1.527,16.806-2.212,25.218-.931,11.409-.848,22.841-1.172,34.259-.119,4.2-3.4,4.6-5.539,6.5-4.359,3.868-9.652,2.38-14.634,2.645-3.333.177-6.673.209-10.008.367-1.24.059-1.507,1.027-1.543,2.052-.289,8.176-.748,16.353-.76,24.53-.005,3.285-2.748,3.448-4.351,4.565-6.485,4.523-13.2,8.734-19.928,12.893-1.948,1.2-2.053,2.836-2.137,4.853" fill="#231f20"/>
    <path id="Path_811" data-name="Path 811" d="M194.051-226.989c-8.8,2.733-17.721,5.1-26.583,7.642-.905.26-1.911.864-2.409-.275s-2.164-3.409-1.2-5.021c.831-1.389,1.829.168,2.013,1,.437,1.951,1.475,2.105,3.131,1.628q13.528-3.9,27.086-7.7c1.728-.484,2.647-1.345,2.419-3.269-.135-1.133-.659-2.941,1.044-2.98.663,0,.951.925,1.037,2.043s.308,2.965.308,4.205-5,2.157-6.846,2.731" fill="#231f20"/>
    <path id="Path_812" data-name="Path 812" d="M197.942-251.926c0,.873-.249,1.764-1.3,1.771a1.5,1.5,0,0,1-1.668-1.524,1.345,1.345,0,0,1,1.411-1.395c.843-.048,1.553.275,1.553,1.148" fill="#231f20"/>
    <path id="Path_813" data-name="Path 813" d="M166.915-242.927a1.455,1.455,0,0,1,1.409,1.408,1.1,1.1,0,0,1-1.155,1.351,1.309,1.309,0,0,1-1.433-1.343,1.236,1.236,0,0,1,1.179-1.416" fill="#231f20"/>
    <path id="Path_814" data-name="Path 814" d="M343.594-101.279c-3.9.656-6.19,3.046-7.786,6.373-2.661,5.55-.7,12.338,4.108,14.021,5.327,1.862,11.853-1.238,14.029-6.666,1.64-4.09-1.609-11.116-6.067-13.177-1.316-.609-1.659-.035-1.552,1.16.2,2.221.428,4.44.627,6.662.063.707.413,1.473-.405,2.035a1.044,1.044,0,0,1-1.321.051c-.707-.522-.539-1.286-.575-2.032-.133-2.784-.076-5.6-1.057-8.428ZM332.061-88.226c.405-8.82,5.891-15.749,12.305-15.55,7.212.224,13.01,6.971,12.6,14.659-.275,5.078-7.836,11.626-13.269,11.489-6.6-.168-11.892-4.989-11.632-10.6" fill="#231f20"/>
    <path id="Path_815" data-name="Path 815" d="M363.2-96.427c-.927.008-2.439.268-2.2-1.025.431-2.345,6.669-2.281,6.952-.605.191,1.137-1.037,1.538-4.752,1.631" fill="#231f20"/>
    <path id="Path_816" data-name="Path 816" d="M366.132-87.759c-2.112-.258-2.944-.383-2.915-2.217a1.461,1.461,0,0,1,1.753-.739c.885.129,4.864.024,4.821,1.543-.04,1.364-1.547,1.67-3.66,1.413" fill="#231f20"/>
    <path id="Path_817" data-name="Path 817" d="M359.363-110.99c1.609.524-2.28,4.752-3.469,5.948-.617.619-1.227.722-1.572-.217-.335-.913,3.432-6.255,5.041-5.731" fill="#231f20"/>
    <path id="Path_818" data-name="Path 818" d="M345.394-115.04c1.848,0,1.505,7.385.3,7.5-1.121.109-1.171-.9-1.271-1.651-.1-.724-.647-5.848.968-5.85" fill="#231f20"/>
    <path id="Path_819" data-name="Path 819" d="M307.683-214.5c-4.575.839-4.664,2.192-3.936,3.851s9.154,23.594,12.341,30.535c.573,1.248,2.032.459,2.84.219.992-.3.908-1.052.592-1.808-1.529-3.667-3.223-7.273-4.573-11C312.355-199.872,310.834-207.4,307.683-214.5Zm9.566,37.594c-1.173.385-2.187-.26-2.84-1.817s-12.141-30.738-13.182-33.165c-.631-1.468-.009-2.451,1.343-3.088.047-.023.1-.035.148-.056,6.132-2.656,6.3-2.716,8.58,3.521,2.26,6.175,4.076,12.509,6.212,18.732,1.253,3.655,2.691,7.248,4.161,10.822.743,1.808,1.235,2.879-.077,3.363s-3.171,1.3-4.344,1.688" fill="#231f20"/>
    <path id="Path_820" data-name="Path 820" d="M297.269-308.938a8.328,8.328,0,0,0-1.189-3.983c-5.084-7.74-13.186-9.914-21.447-5.7-4.327,2.205-7.1,12.513-1.772,15.9a33.268,33.268,0,0,0,9.956,4.241c7.342,1.836,14.966-1.575,14.453-10.45Zm2.083,2.421c.556,5-5.993,10.317-10.014,10.614a25.036,25.036,0,0,1-17.737-5.015c-4.817-3.737-5.075-9.781-2.323-15.189,4.689-9.21,22.558-7.689,27,.284,1.811,3.253,2.852,5.231,3.075,9.305" fill="#231f20"/>
    <path id="Path_821" data-name="Path 821" d="M337.2-297.729c0,.94-1.524.412-2.348.055-7.145-3.109-14.85-4.4-22.182-6.89-.86-.292-2.395-.431-1.988-1.773.476-1.569,1.8-.459,2.544-.157,7.3,2.939,15.029,4.5,22.419,7.134.481.171,1.555.692,1.555,1.632" fill="#231f20"/>
    <path id="Path_822" data-name="Path 822" d="M334-293.475c-7.413-2.157-25.249-6.816-24.915-8,.289-1.027,1.391-.529,1.949-.371,8.1,2.311,16.18,4.707,24.259,7.1,1.263.564-.371,1.541-1.293,1.272" fill="#231f20"/>
    <path id="Path_823" data-name="Path 823" d="M359.1-188.751c-1.613-1.373-2.745-2.267-3.788-3.253-.5-.475-.92-1.1-.083-1.74a1.4,1.4,0,0,1,2.005.085q2.4,2.2,4.781,4.411c.552.515.416,1.165.272,1.8-.223.968-1.1.929-1.783,1.029-1.247.181-2.513.211-4.175.333,1.557,1.984,3.288,3.488,2.872,6.129-.283,1.8-.741,3.365-2.435,3.943a11.1,11.1,0,0,1-6.169-.293c-2.261-.859-3.779-2.733-3.112-3.571,1.115-1.4,2.4.884,3.62,1.459a5.122,5.122,0,0,0,4.853.121c1.223-.631,1.135-1.831.98-2.805a4.571,4.571,0,0,0-3.344-3.607c-.8-.276-1.565-.536-1.577-1.491-.012-1.052.8-1.437,1.68-1.607,1.488-.289,2.985-.525,5.4-.941" fill="#231f20"/>
    <path id="Path_824" data-name="Path 824" d="M369.111-181.853s-2.44.22-3.443.361c-.752.105-2.152.537-2.284-.579-.1-.879.273-1.367,1.231-1.476,2.4-.275,6.653-1.945,7.435-1.115s-5.908,11.361-8.606,15.785c-.36.587-.849,1.455-1.712,1.035-1-.488-.375-1.2,0-1.857,2.232-3.873,7.379-12.154,7.379-12.154" fill="#231f20"/>
    <path id="Path_825" data-name="Path 825" d="M283.686-302.78c4.659.16,7.342-2.6,7.47-7.678.1-3.863-3.311-6.368-8.945-6.573-3.707-.135-6.708,2.973-6.85,7.093-.117,3.411,4.071,7.014,8.325,7.158Zm1.823,1.821c-7.23-.041-12.514-3.613-12.6-8.52-.091-5.088,3.852-9.388,8.581-9.36,5.919.036,12,4.2,11.924,8.168-.108,5.788-3.323,9.737-7.9,9.712" fill="#231f20"/>
  </g>
</svg>
