<svg id="decentralarc" xmlns="http://www.w3.org/2000/svg" width="413.161" height="344.065" viewBox="0 0 413.161 344.065">
  <path id="Path_752" data-name="Path 752" d="M375.7,121.9l-.5,18.9,56.7-.3v-20Z" transform="translate(-214.889 -88.917)" fill="#9dd3cc"/>
  <path id="Path_753" data-name="Path 753" d="M378.3,189a5.423,5.423,0,1,1,5.9,4.9A5.342,5.342,0,0,1,378.3,189Z" transform="translate(-214.889 -88.917)" fill="#a1dba3"/>
  <path id="Path_754" data-name="Path 754" d="M432,182.4a5.423,5.423,0,1,1,5.9,4.9A5.342,5.342,0,0,1,432,182.4Z" transform="translate(-214.889 -88.917)" fill="#a1dba3"/>
  <path id="Path_755" data-name="Path 755" d="M383.7,311.4a5.423,5.423,0,1,1,5.9,4.9A5.4,5.4,0,0,1,383.7,311.4Z" transform="translate(-214.889 -88.917)" fill="#a1dba3"/>
  <path id="Path_756" data-name="Path 756" d="M521.2,178.7a5.423,5.423,0,1,1,5.9,4.9A5.4,5.4,0,0,1,521.2,178.7Z" transform="translate(-214.889 -88.917)" fill="#a1dba3"/>
  <g id="Group_40" data-name="Group 40" transform="translate(-214.889 -88.917)">
    <path id="Path_757" data-name="Path 757" d="M623.3,284.5a28.109,28.109,0,0,1-.1,2.9c-.3,6.3-.7,12.6-1,18.8,0,.3-.2.5-.4.8-.2-.2-.5-.4-.7-.6-.7-1-1.3-2-1.9-2.9-.6-.8-1.3-1.6-2.4-.9-1.2.7-.8,1.8-.3,2.8.9,1.6,1.9,3.1,2.9,4.6,2.2,3.3,4.4,22.7,4.1,33-.2,6.2-1.3,15.7-2.2,23-.6,5.2-1.2,9.2-1.2,10.3a2.919,2.919,0,0,1-2.5,3c-2,.4-3.9,1.1-5.9,1.4-1.8.3-2.1,0-2-1.8.4-6.3.7-12.6,1.2-18.9.4-5.1,1.1-10.2,1.6-15.3.4-3.9.6-7.9.9-11.8.3-3.6.7-7.1.9-10.7.4-6,.8-12,1-18.1.2-6.8,0-13.6.2-20.4.2-7.3.5-14.7.8-22v-.4c.2-5,1.2-5.9,6.2-6,1.1,0,1.6.4,1.7,1.4Zm-2.5,109.9a3.233,3.233,0,0,1,1.7.3,5.844,5.844,0,0,1,1.3,1.4,8.8,8.8,0,0,1-1.5.5c-1.5.1-3.1.2-5.3.4a29.651,29.651,0,0,1-3.4-.9c-.4-.2-.6-1-.9-1.5a3.942,3.942,0,0,1,1.4-.5c2.2,0,4.5.1,6.7.3ZM607,370c-.2,1.6-.1,3.2-.2,4.9s-.3,3.5-.5,5.2c-.1.8-.6,1-1.4.5-5.5-3.7-11-7.2-16.4-11-4.2-2.9-8.3-6-12.4-9.1l-8.4-6.6c-3.5-2.8-7-5.8-10.5-8.6a72.343,72.343,0,0,0-6.4-4.4c-2.3-1.5-3.7-3.4-3.7-6.2-.3-9.7-.7-19.5-.9-29.2-.1-6.6,0-13.2,0-19.8,0-5.9,0-11.7.2-17.6.1-4.3.5-8.6.5-12.8,0-6-.4-12.1-.6-18.1v-3.1c0-1.8.4-2,2.2-1.5,1.7.5,3.3,1.1,5,1.7,4.6,1.7,9.2,3.2,13.7,5,4.3,1.7,8.5,3.8,12.9,5.4,6.6,2.4,13.3,4.3,19.9,6.8,4.2,1.6,8.3,3.7,12.4,5.6,1.7.8,1.4,2.3,1.5,3.7-.2,5.7-.3,11.4-.8,17.1a284.721,284.721,0,0,0-.8,29.2,77.259,77.259,0,0,1-.6,8.2c-.4,5.4-.7,10.9-1.1,16.3-.6,7.3-1.2,14.5-1.9,21.8-.5,5.5-1.1,11.1-1.7,16.6ZM388.7,237.4c1-2.8,2.1-5.6,3.3-8.3.8-1.7,1.5-1.8,3-.7a1.462,1.462,0,0,1,.6,2c-1.1,3-2,6-3.1,8.9a10.194,10.194,0,0,1-.8,1.5C389.1,240.9,387.9,239.5,388.7,237.4ZM270.9,215.9c.2-15,.5-30,.6-45.1,0-8.5-.4-17-.5-25.6-.2-10.2-.3-20.4-.4-30.6,0-3.5.1-3.4,3.4-3.9,5.4-.7,10.8-1.5,16.2-2.2,2.6-.3,5.2-.2,7.8-.4,5.5-.5,11-1.1,16.5-1.5,2.4-.2,4.9-.1,7.3-.3,1.8-.1,3.6-.3,5.4-.5,3.7-.4,7.3-.9,11-1.2,4.8-.4,9.7-.9,14.6-1.1,4-.2,8-.1,12-.3,3.8-.1,7.6-.5,11.4-.7,2.8-.1,5.6-.2,8.3-.3,5.8-.3,11.6-.7,17.4-1,6.1-.3,12.2-.7,18.2-1,3.1-.2,6.2,0,9.3-.5,2.9-.4,5.8.1,8.7,0,6.2-.3,12.4-.7,18.6-1.1,2.7-.1,5.4-.1,8.2-.1,1.7,0,3.4-.2,5-.2h13.6c3.7-.1,7.3-.3,11-.4,5.2-.2,10.5-.3,15.7-.5,4-.2,7.9-.4,11.8-.7,4.1-.3,8.2-.9,12.4-1.2,4.1-.3,8.2-.3,12.3-.5,9-.4,18-.9,27-1.3,4-.2,8-.1,12.1-.1,1.2,0,1.9.5,1.9,1.8,0,2.4.2,4.8.2,7.2-.1,5.6-.1,11.3-.4,16.9-.2,4.4-.8,8.8-1,13.2-.3,6.9-.3,13.8-.4,20.7-.1,6.5,0,13-.1,19.5-.1,11.6-.4,23.2-.5,34.9,0,5.1.4,10.1.5,15.2.1,3.2.2,6.5.2,9.7,0,1.6-1,1.2-1.9.9-2.8-1-5.6-2.1-8.4-3.2s-5.7-1.9-8.2-3.3c-3.7-2.1-7.3-1-11-.6s-13.2.8-14.2,2.7.7,4.9.8,6.8q.3,8.4.3,16.8c0,4.9-.1,9.7-.2,14.6,0,2.6-.1,5.2-.1,7.8a8.356,8.356,0,0,1-.9,4.3c-.8,1.5-.9,3.5-1.4,5.2-1.2,4.1-2.5,8.2-3.8,12.3-1.3,4.2-2.7,8.3-3.7,12.5-1.1,4.7-1.9,9.6-2.7,14.4-.2,1.5-.8,1.9-2.3,1.9-4.7-.1-9.5-.2-14.2-.1-3.7.1-7.3.6-11,.7s-7.4,0-11.1.1c-5.6.1-11.2.2-16.8.4-8.3.3-16.6.7-24.9,1.1-9.4.5-18.8,1.1-28.2,1.5-6.7.3-13.5.5-20.2.9-6.1.3-12.2.8-18.3,1-5.2.1-10.4-.3-15.6-.3-4.5,0-9.1.3-13.6.3-2.7,0-5.4-.2-8.2-.4-1-.1-1.3-.6-1.2-1.6.3-3.4.5-6.8.7-10.3a5.406,5.406,0,0,1,2.7-4.8,36.9,36.9,0,0,0,9.3-9.6c3.6-5.1,6.9-10.4,10.3-15.6.9-1.4,1.4-2.9,2.2-4.3,2.5-4.3,5-8.6,7.5-13a73.211,73.211,0,0,0,6.3-14c.9-3,2.1-6,3.1-9,.3-.9.7-1.7,1-2.6.8-2.6.8-2.6,3.6-2.4,1.5.1,2-.8,2.3-1.9s.4-2.2.7-3.2c1-3.2,2.1-6.4,3.2-9.6.6-1.9.6-2-1.3-2.9-1.4-.7-2.8-1.5-4.2-2.1-1-.5-1.7-.2-2.2.9-1.9,4.7-3.9,9.4-5.8,14-.5,1.1-.6,2.2.3,3,1.1,1,.9,2.3.6,3.4-1.6,4.9-3,9.9-4.9,14.6a77.118,77.118,0,0,1-7.5,14.2c-1.6,2.3-2.8,5-4.2,7.5-2.9,5.1-5.8,10.2-8.9,15.3a46.655,46.655,0,0,1-3.6,5.1c-2.2,2.7-4.6,5.3-6.9,7.9-.2.2-.3.4-.6.5-.5.3-1.1.5-1.7.8a6.279,6.279,0,0,1-.3-1.9c.6-5,1.3-10,2-15,.8-6,1.8-12,2.5-18.1.6-4.9,1-9.9,1.5-14.9.2-1.9-.5-2.4-2.4-2.4a53.992,53.992,0,0,1-9-1.1c-4.9-1.2-9.7-3-14.5-4.4-2.4-.7-4.9-1.1-7.4-1.9-4.5-1.4-8.9-3-13.3-4.4-5.4-1.7-10.9-3.5-16.4-5-5.1-1.4-10.3-2.6-15.5-3.7-2.9-.7-3.5-1.3-3.5-4.3V215.9ZM541.2,325.5a16.412,16.412,0,0,1-2.3-.2h-.8v.1c-1.4-.1-3.1.3-4.2-.4-1.3-.9,0-2.5.2-3.7a103.777,103.777,0,0,1,4.4-19.1c1.5-4.4,2.8-8.9,4.1-13.4a9.244,9.244,0,0,1,.5-1,3.554,3.554,0,0,1,.2,1c0,6.4-.1,12.7-.1,19.1,0,5.1.2,10.3.3,15.4.1,1.9-.4,2.4-2.3,2.2ZM344.3,311.6a6.392,6.392,0,0,1-2.7,5.1c-.4.3-.9.5-1,.9-.4.8.8,2.9,1.5,2.7.9-.2,1,.1,1.1.8,0,.8.1,1.7.1,2.5h.1c-.2,2.1-.3,4.3-.5,6.4-.5,4.6-1.1,9.3-1.7,13.9-.7,5.5-1.4,10.9-2,16.4-.3,2.4-.4,4.8-.6,7.2a3.8,3.8,0,0,1-3.9,3.7c-.8,0-1.8-1.5-1.7-2.9.1-2.4.3-4.8.4-7.2.1-3.2.1-6.4.3-9.5.2-3.4.7-6.7,1.1-10.1.6-4.8,1.1-9.7,1.7-14.5.7-6.3,1.3-12.5,2-18.8.5-4.4.8-8.9,1.6-13.3a100.353,100.353,0,0,0,1.4-15.5,45.512,45.512,0,0,1,.9-6.3,42.6,42.6,0,0,0,.6-5,3.049,3.049,0,0,1,1.9-2.9c1.4-.6,2.8-1.1,4.1-1.7.9-.4,1.3,0,1.3.9,0,1.2,0,2.5-.1,3.7-.5,7.1-1,14.2-2.8,21.2-.8,3.1-1,6.4-1.5,9.6-.5,4.2-1.2,8.4-1.6,12.7Zm-12.9,38.3c-.5,5.5-.8,11-1.1,16.5-.2,2.5-.2,2.5-2.7,1.7-4.6-1.5-9.2-3.1-13.9-4.3-6.1-1.6-12.3-2.8-18.4-4.3-4.1-1-8.1-2.3-12.2-3.4-5.4-1.4-10.8-2.6-16.3-4-2.7-.7-5.4-1.4-8-2.3-1-.3-2-1-3-1.3s-2-.4-3-.7c-4.1-1.3-8.1-2.7-12.2-3.9-4.5-1.4-9.1-2.6-13.6-4-2.6-.8-5.2-1.6-7.7-2.6a2.087,2.087,0,0,1-1.1-1.6,50.826,50.826,0,0,1-.2-7.8c.5-6.8,1.2-13.6,1.8-20.4.7-8.5,1.3-17,1.9-25.5.4-4.8.8-9.6,1.3-14.4.3-2.4,1-4.8,1.2-7.3.7-7,1.3-13.9,1.9-20.9.1-1.3.4-1.5,1.8-1.2,8.1,1.7,16.2,3.2,24.2,4.9a41.857,41.857,0,0,1,4.7,1.4c1.1.3,2.2.7,3.4,1,6.9,1.4,13.9,2.7,20.8,4.3,5.7,1.4,11.4,3.2,17,4.9,4.8,1.4,9.5,3.1,14.4,4.3,4.1,1.1,8.4,1.7,12.6,2.6,4.6,1,9.2,2.2,13.8,3.4a2.5,2.5,0,0,1,2.2,2.5c-.4,1.7-1,3.3-1.3,5a1.759,1.759,0,0,1-.1.6c-.5,4.2-2.6,25.3-2.9,28.1-.4,3-.5,5.9-.7,8.9-.2,1.9-.3,3.9-.6,5.8-.7,5.7-1.5,11.3-2.2,17-.8,5.9-1.4,11.5-1.8,17ZM232.6,234.4c2.1-1.2,1.9-1.5,3.9-1.7,1.8-.2,6.1,1.5,10.2,2a65.779,65.779,0,0,1,7.4,1.7c7.7,1.9,15.4,3.7,23.1,5.6,1.5.4,2.9.9,4.3,1.2,3.2.9,6.5,1.6,9.7,2.6,5.3,1.6,10.5,3.4,15.8,5,4.4,1.3,8.9,2.5,13.3,3.8,3.4,1,6.8,2.4,10.2,3.3,3.4,1,6.9,1.7,10.4,2.5a28.113,28.113,0,0,1,3.1,1c.2.1.3.4.4.6l-.6.3c-4.1.6-7.9-.6-11.8-1.7-5.7-1.5-11.4-3.3-17.2-4.3a121.074,121.074,0,0,1-14.6-4c-7.5-2.3-15.1-4.2-22.7-6.1-6-1.5-12.2-2.6-18.2-4-1.4-.3-2.7-.9-4.1-1.2-3.6-.8-7.2-1.5-10.8-2.4-3.9-.9-7.7-1.8-11.5-2.8-.5,0-2.4-.2-.3-1.4Zm356.3-84.5c.1-5.1.3-10.3.5-15.4v-.7c.3-6.3.6-12.6.9-18.8.2-4.7.5-9.3.6-14,0-2.3-.3-4.7-.4-7,0-.6.1-1.2.1-1.9a11.019,11.019,0,0,1,1.8.2c2.1.7,4.1,1.6,6.2,2.2a3.25,3.25,0,0,1,2.6,3.9c-.2,2.8-.6,5.6-.7,8.3-.2,5.8-.2,11.6-.3,17.3-.1,4.2-.4,8.4-.7,12.6-.2,4.3-.5,8.7-.8,13-.1,2-.6,4-.6,6-.2,13.7-1.3,54.8-1.5,61.6-.1,4.9.1,9.7.2,14.6,0,1.6,0,3.2-.1,4.9,0,.8-.5,1.2-1.3.9-1.7-.6-3.3-1.1-4.9-1.8a1.838,1.838,0,0,1-.8-1.4c-.2-2.6-.3-5.3-.4-7.9-.3-5.3-.6-25.3-.6-30,.1-1.3.1-38.3.2-46.6Zm15.9,94a38.264,38.264,0,0,1,10.9,5.4,39.764,39.764,0,0,0,4.1,2.1,3.565,3.565,0,0,1,1,1.1,9.017,9.017,0,0,1-2.4.4c-.6.1-5.2.7-6.7-.4-3.4-2.4-19.8-7.2-24.1-8.7-4.8-1.7-9.5-3.4-14.2-5.2-2.5-.9-4.9-2.1-7.4-3-4.3-1.5-8.6-3-12.8-4.5-.3-.1-.7-.1-.9-.3-.2-.1-.4-.4-.6-.6.2-.2.4-.4.6-.4,2.7-.5,5.3-1.3,8-1.2,2.1,0,4.3.9,6.4,1.6,5.4,2,10.6,4.1,16,6.1,3.6,1.3,7.2,2.4,10.8,3.7,3.7,1.2,7.4,2.7,11.3,3.9Zm21.5,7.4c-3.1-1.7-6.1-3.4-9.2-5-4.8-2.4-9.6-5-14.8-6.3a2.289,2.289,0,0,1-2.1-2.7c.1-3.3-.2-6.6-.2-9.9,0-4.9,0-9.9.1-14.8.1-5.5.7-11,.6-16.6-.1-13.6-.1-27.1.7-40.7.5-7.8,1.1-15.5,1.5-23.3.3-5.7,1.3-29.8,1.4-36.1,0-1.6-.4-2.4-1.8-2.9-3.9-1.4-7.8-2.8-11.8-4-1-.3-2.2.3-3.3.5-1,.2-2,.7-3,.8-2.6.2-5.2.1-7.8.3-6.3.5-12.7,1.2-19,1.6-6.2.4-12.3.3-18.5.6-6.8.4-13.6,1.3-20.4,1.7-8.9.6-17.9,1.2-26.9,1.5-8.5.3-17,.1-25.5.2-5.3.1-10.6.5-15.9.6-7,.2-13.9.3-20.9.6-9.2.4-18.3,1.1-27.4,1.7-4.5.3-9,.4-13.4.7-6.7.4-13.3,1-20,1.3-6.2.3-12.5.1-18.7.5-8,.5-16,1.4-24.1,2.1-4.7.4-9.3.8-14,1.2-6.2.6-12.4,1.2-18.6,1.7-5.6.5-11.1.8-16.7,1.2-2.6.2-5.1.3-7.7.4a1.663,1.663,0,0,0-1.7,2.2,10.407,10.407,0,0,1,.6,2.2c.1,4.7.2,9.5.3,14.2.1,6,.1,11.9.2,17.9.2,8.5.5,17,.6,25.5.1,3.4-.1,6.8-.1,10.1,0,5.9.1,11.8.1,17.8,0,5.2-.3,10.4-.3,15.6-.1,5.2,0,10.4,0,15.6l-.3,6c0,1.1-.6,1.4-1.5,1.2-2.9-.7-5.9-1.2-8.7-2.1-3.7-1.3-13.6-3.1-18.6-3.9-1.1-.2-4,.6-6.7,1.5-2.1.7-4.1,1.5-5.3,2-2.7,1.3-3.8,1.7-4.1,6.4s-.6,6.2-.8,8.7c-.4,4.7-.5,9.4-1.3,14a233.245,233.245,0,0,0-2.6,23.6c-.5,8.4-1.3,16.7-1.9,25.1s-1.2,16.7-1.9,25.1a2.82,2.82,0,0,0,1.8,3.1,58.946,58.946,0,0,0,5.9,2.1c9.3,2.7,18.6,5.4,27.9,8.2,2.8.8,2.9.9,2.4,4-1,6.6-2.2,13.2-3.1,19.8-.5,3.6-.7,7.2-.9,10.9-.4,5.6-.5,11.3-1,16.9-.4,4-1.3,7.9-1.8,11.9a2.564,2.564,0,0,0,.6,1.9,14.025,14.025,0,0,1,3.5,4.5,57.523,57.523,0,0,0,6,7.4c1.4,1.5,3.7,1.8,2.1-1.6a18.449,18.449,0,0,0-2.9-4.7c-1.4-2.1-3.1-4-4.5-6a5.645,5.645,0,0,1-1.2-2.9,45.327,45.327,0,0,1,.3-5.2c.3-3.6.9-7.2,1-10.9a261.038,261.038,0,0,1,2.4-29.3c.6-4.1,1.3-8.1,2-12.1.4-2.3.6-2.4,2.9-1.7,5.9,1.6,11.8,3.2,17.7,4.7,2.4.6,4.8,1.2,7.2,1.7a1.613,1.613,0,0,1,1.5,1.8c-.1,2,0,4-.2,6-.5,5.5-1.1,11-1.5,16.5-.6,7.3-1.2,14.5-1.7,21.8-.3,4.3-.5,8.5-2,12.6-.5,1.5-.7,3.4,1.3,4.4,0,0,2.4,2.7,2.6,3.1,1.7,2.1,3.3,4.3,5,6.4a2.589,2.589,0,0,0,1.1.7,1.767,1.767,0,0,0,2.3-1c.6-1.2-.1-2.1-.9-2.9-.9-.9-1.8-1.7-2.7-2.5a48.5,48.5,0,0,1-4.3-6.1,5.981,5.981,0,0,1-1-3.6c.4-4.3,1-8.6,1.3-13,.6-7.4,1.1-14.8,1.7-22.2.5-6.1,1-12.3,1.6-18.4.2-2,.5-2.1,2.4-1.6,6.1,1.5,12.2,3.2,18.4,4.2,6.9,1.2,13.3,4,19.8,6.2a57.872,57.872,0,0,1,5.7,2.5,2.208,2.208,0,0,0,1.6,0c1.4-.3,2.8-.8,4.3-1.2.9-.2,1.4-.5,1.5-1.5.3-3.7.7-7.4,1.1-11,.8-7.3,1.7-14.6,2.5-21.9.5-4.3.9-4.7,5.3-4.5.1,0,.3.1.4.1,4.1,0,8.2.1,12.3.1,4.9-.1,9.9-.4,14.8-.3,5.8.1,11.5.4,17.3-.3,6.5-.7,13.2-.9,19.7-1.3,5.8-.4,11.6-.8,17.5-1,6.8-.3,13.6-.5,20.4-.7,11.5-.4,23-.9,34.5-1.2,6.1-.2,12.3-.3,18.5-.4,7.9-.1,15.7-.1,23.6-.2,1.4,0,1.8.6,1.8,1.9,0,2.1.2,4.3.2,6.4,0,2.8-.1,5.7-.1,8.5,0,.4-.1,1,.2,1.3a2.523,2.523,0,0,0,1.5,1c.3,0,.9-.6,1.1-1a8.523,8.523,0,0,0,.3-2.3c-.2-4.4-.5-8.8-.7-13.2-.1-2.4,0-2.3,2.3-2.2,1.3.1,2.6-.2,3.9-.1a18.612,18.612,0,0,1,3.4.4c.5.1,1.1.7,1.1,1.1.2,2.6.4,5.3.4,7.9a3.754,3.754,0,0,0,1.9,3.5,90.868,90.868,0,0,1,7.8,4.8c3.6,2.7,6.9,5.9,10.6,8.6,1.9,1.4,2.2,3,2.2,5a7.716,7.716,0,0,1-.2,1.5,60.624,60.624,0,0,0-.9,7.3c-.1,5.7.1,11.3.2,17,0,2.7,0,5.3.1,8,.2,5.3.6,10.6.7,16a11.4,11.4,0,0,1-2.3,7.4c-2.7,3.9-6.5,6.3-9.6,9.6-.5.5.4,2.1,1.1,2,.4,0,.8-.4,1.2-.6,1-.9,1.8-1.8,2.8-2.7,1.4-1.3,8.3-7.3,8.8-8a2.982,2.982,0,0,0,.8-1.7c0-3.4,0-6.9-.1-10.3-.3-9-.7-17.9-1-26.9a90.812,90.812,0,0,1,.8-17.3,5.093,5.093,0,0,1,.7-1.7,10.932,10.932,0,0,1,1.5.8c.2.1.3.3.4.4,4,3.1,7.9,6.6,12.2,9.3,2.7,1.6,3.6,3.2,3.2,6.2-.5,3.8-.6,7.6-.9,11.5-.3,3.2-.8,6.3-.9,9.5-.3,6.4-.4,12.8-.6,19.3a8.328,8.328,0,0,1-.4,1.5c-.4,2.2-2.7,3-3.9,4.6-1.5,1.9-2.4,4.1-4,5.9a1.469,1.469,0,0,0,.3,2.4c1,.5,1.6-.2,2.2-1a27.856,27.856,0,0,1,3.5-4.2c1.3-1.2,3.1-1.9,4.4-3.1.7-.7.5-4.2.6-7l.3-11.1c0-2.1-.2-4.3-.1-6.4.3-4.3.8-8.7,1.4-13,.4-2.8,1-5.6,1.5-8.4.1-.7.3-1.4,1.2-.8,1.4.9,2.7,1.7,4,2.7,3.1,2.3,6.1,4.7,9.2,7a1.481,1.481,0,0,0,1.3.2c1.2-.5,2.4-1.2,3.6-1.8a7.742,7.742,0,0,1,1.6-.7c2.2-.6,4.4-1.1,6.6-1.7.5-.1,1.3-.2,1.4,0a2.851,2.851,0,0,1,.2,1.6c-.5,1.7-1.1,3.5-1.7,5.2-.9,2.9-1.3,3.1-4.2,2.3-.5-.1-1-.4-1.5-.5-.6-.1-1.4-.4-1.7-.1a2.5,2.5,0,0,0-.8,1.8c.2,1.7.7,3.3.9,5,.1,1.1.6,1.6,1.7,1.6,4.3,0,8.5.1,12.8.1,2,0,2.6-1,2.1-2.9-1.1-4.3-1.1-4.3-5.5-4.6h-.2c-.9,0-1.3-.3-1-1.3a31.909,31.909,0,0,1,1.1-3.3c2.1-4.8,2.9-9.8,3.5-14.9.7-6,1.1-12,1.8-18a102.661,102.661,0,0,0,.3-19.2c-.2-1.9-.4-3.7-.6-5.6-.3-3.3-.5-6.7-1-10a78.862,78.862,0,0,1-.5-17.5c.3-4.3.6-8.7.9-13,.2-3.9.3-7.8.4-11.6.2-5.2.2-10.4.4-15.5.1-2.2-.5-4.5,1-6.6a3.572,3.572,0,0,0-1.6-4.2Z" fill="#181715" fill-rule="evenodd"/>
    <path id="Path_758" data-name="Path 758" d="M389.1,120.7c-1.2.1-3.1.4-4.9.5-2.8.3-5.7.4-8.5.7-1.9.2-2.4.8-2.3,2.7.3,3.7.6,7.4,1,11,.2,1.7.5,3.5.8,5.2a1.652,1.652,0,0,0,1.9,1.5c2.7-.1,5.4,0,8.2-.1,5.5-.1,10.9-.3,16.4-.5s11-.7,16.5-.9c4.6-.2,9.2-.2,13.8-.3,1,0,1.7-.2,1.5-1.6-.2-2.1-.1-4.3-.2-6.4-.1-3-.2-6-.5-8.9-.3-3.4-.9-4-4.2-4.1a116.254,116.254,0,0,0-13.2,0c-8.5.7-17,1.9-26.3,1.2Zm47.1,15.9c.1,1.4.1,2.9.2,4.3.1,1.6-.7,2-2.1,2-2.1-.1-4.1-.1-6.2-.1l-10.3.3c-3.6.1-7.2.1-10.9.3-3.3.2-6.6.6-9.8.8l-21.3,1.5c-1.7.1-3.8-2.7-3.9-4.6-.2-4.5-.5-8.9-.8-13.4-.2-2.3-.3-4.5-.5-6.8-.1-.9.3-1.2,1.2-1.3,5.3-.3,10.6-.7,15.9-.9,7.3-.3,14.6-.3,21.9-.7,5.5-.3,11-.9,16.5-1.1a27.4,27.4,0,0,1,6.9,1,2.037,2.037,0,0,1,1.4,1.3c.5,2.6,1.6,14.9,1.8,17.4Z" fill="#181715" fill-rule="evenodd"/>
    <path id="Path_759" data-name="Path 759" d="M394.8,308.4c.1-1.4-.1-2.7-1.9-3.3a3.447,3.447,0,0,1-1.2-1.2c-1.6-2.1-4.8-2.7-6.7-1.3-3.1,2.3-4,5.3-2.2,7.8a10.139,10.139,0,0,0,4.9,3.4c4.3,1.8,7.4-1.8,7.1-5.4Zm-15.9-.6c.3-5.5,4.4-9.5,9.3-9a14.269,14.269,0,0,1,3.4.9c.9.3,1.5.3,2.1-.6,1.9-2.8,4-5.4,4.9-8.7.2-.9.7-2.1,1.9-1.6,1.1.4,1.2,1.6.6,2.6-1.5,2.8-2.9,5.6-4.7,8.3a3.214,3.214,0,0,0,0,4.3,8.781,8.781,0,0,1-2.8,12.5,6.527,6.527,0,0,1-5.8.6,37.985,37.985,0,0,1-4.7-1.8,8.058,8.058,0,0,1-4.2-7.5Z" fill="#181715" fill-rule="evenodd"/>
    <path id="Path_760" data-name="Path 760" d="M531.4,176.9c0-2-2.4-4.6-4.4-4.6-2.4,0-5.6,2.3-5.7,4.2a4.78,4.78,0,0,0,4.9,5.1C528.9,181.5,531.4,179.3,531.4,176.9Zm-10.9,6.2a4.053,4.053,0,0,0-4.3-.8c-4,1.4-8,2.7-11.9,4.2-1,.4-1.7.6-2.3-.4s0-1.8.8-2.3a14.456,14.456,0,0,1,2.9-1.1c2.7-.9,5.4-1.7,8.1-2.7a11.089,11.089,0,0,0,3.3-1.5c.6-.4.8-1.4,1-2.2.8-3.1,2.3-5.8,5.7-6.4s6.8-.3,9.7,2.1a4.608,4.608,0,0,1,.9,1.7c1.4,5.9-4.9,12-8.9,11.1-4.1-.8-5-1.7-5-1.7Z" fill="#181715" fill-rule="evenodd"/>
    <path id="Path_761" data-name="Path 761" d="M444.6,216.2c.7.4,1.1.8,1.5.7a55.091,55.091,0,0,0,5.7-.6,1.493,1.493,0,0,0,.3-1,31.753,31.753,0,0,0-2.7-3.7c-.1-.2-.7-.2-.8-.1-1.3,1.5-2.5,3-4,4.7Zm9.5,2.9c-1.7.2-3.5.5-5.2.6a34.894,34.894,0,0,1-5.6,0,2.426,2.426,0,0,1-1.6-4c1.7-2.3,3.4-4.7,5.1-7.1,1.4-2.2,3.3-2.2,4.6,0,.6,1,1.2,1.3,2.2.7,3.3-2,6.5-4,9.8-6a17.4,17.4,0,0,1,1.8-1.1,1.672,1.672,0,0,1,2.4,1,1.879,1.879,0,0,1-1.3,2.6c-3.8.5-6.4,3.2-9.5,5-.2.1-.3.3-.4.4-2.4,1.7-2.4,1.7-.8,4.1a23.068,23.068,0,0,0,1.4,1.9c.7,1.2.5,1.6-.8,1.8a12.1,12.1,0,0,1-1.9.1C454.1,219.2,454.1,219.2,454.1,219.1Z" fill="#181715" fill-rule="evenodd"/>
    <path id="Path_762" data-name="Path 762" d="M400.8,210.9c.4.5.8,1.5,1.1,1.5a7.663,7.663,0,0,0,2.3-1l-2.5-2.5C401.4,209.5,401.2,210.1,400.8,210.9Zm-2.8,3.6c.9-2.9.3-6.1-.1-9.4a2.723,2.723,0,0,1,.9-2.1c.4-.3,1.6.1,2,.5,2.9,2.8,5.7,5.7,8.5,8.6.6.6.6,1.1-.3,1.4a5.988,5.988,0,0,0-1.6.8,1.34,1.34,0,0,0-.5,2.1c1.5,2.5,2.9,5,4.4,7.5.5.8.9,1.4.2,2.3-1,1.2-1.7,1.2-2.6,0a6.11,6.11,0,0,1-.7-1.4c-1.5-2.7-3.1-5.4-4.6-8.1-.6-1-1.2-1.4-2.4-.9a8.8,8.8,0,0,1-1.5.5c-1.4.5-1.8.3-1.7-1.8Z" fill="#181715" fill-rule="evenodd"/>
    <path id="Path_763" data-name="Path 763" d="M437.7,184.9c1.9.1,4-2.1,4.1-4.4a4.493,4.493,0,0,0-4.5-4.8c-3-.1-5.8,1.9-5.7,4C431.8,182.6,433.5,184.6,437.7,184.9Zm6.8-4.2c0,3-2.6,6.8-5.2,7.3a9.136,9.136,0,0,1-7.6-1.9,9.888,9.888,0,0,1-3.6-6.1,3.925,3.925,0,0,1,1.3-3.9,19.1,19.1,0,0,1,4-2.8c5.2-2.8,11.5,1.5,11.1,7.4Z" fill="#181715" fill-rule="evenodd"/>
    <path id="Path_764" data-name="Path 764" d="M381.4,182.4c-3.3,0-4.9,1.5-5,4.8,0,2.4,2.1,4.1,5.1,4.2,2.7.1,4.5-2.1,4.5-5.2C386.2,184,384.2,182.5,381.4,182.4Zm7.7,3.9a7.47,7.47,0,0,1-8.7,7.8c-1.9-.3-4-.6-5.2-2.3-1.4-2.1-2.7-4.5-1.7-7.2,1.2-3.2,3.7-5.4,7-5.3a9.46,9.46,0,0,1,6.8,2.5,5.883,5.883,0,0,1,1.8,4.5Z" fill="#181715" fill-rule="evenodd"/>
    <path id="Path_765" data-name="Path 765" d="M494.4,189.9a14.711,14.711,0,0,1-2.3,2.6c-2.3,1.4-4.9,2.4-7.3,3.7s-4.7,2.7-7.1,4.1a1.626,1.626,0,1,1-1.6-2.8c1.5-.8,3-1.5,4.5-2.3,3.7-2.1,7.4-4.3,11.1-6.4a2.318,2.318,0,0,1,1.6-.3c.4.1.6.7,1.1,1.4Z" fill="#181715" fill-rule="evenodd"/>
    <path id="Path_766" data-name="Path 766" d="M415.1,253c-.4.5-.9,1.4-1.5,1.6-1.2.3-1.9-.6-2-1.8-.4-2.8-.8-5.5-1.3-8.3-.2-1.1-.8-2.2-1-3.3a3.106,3.106,0,0,1,.2-2c.8-.7,1.7-.2,2.4.6a1.489,1.489,0,0,1,.4.9C413.2,244.7,414.1,248.6,415.1,253Z" fill="#181715" fill-rule="evenodd"/>
    <path id="Path_767" data-name="Path 767" d="M411.7,270.9c-.4,1.4-.8,2.8-1.3,4.2a28.27,28.27,0,0,0-1.1,3.1c-.4,2.3-1.8,3.8-3.3,5.3a1.375,1.375,0,0,1-2.1.2,1.454,1.454,0,0,1-.1-2.1,22.821,22.821,0,0,0,4.5-11c.1-.9.2-2.1,1.6-2A2.077,2.077,0,0,1,411.7,270.9Z" fill="#181715" fill-rule="evenodd"/>
    <path id="Path_768" data-name="Path 768" d="M558.2,300v-.2c-.3-1.3-.2-2.7,1.4-2.9,1.5-.2,1.9,1.3,2.1,2.4.2,1.8,1.5,2.6,2.8,3.2,2.9,1.4,5.8,2.5,8.7,3.8,1.9.8,2.8.4,3.8-1.5.3-.5,1-.8,1.5-1.2a6.391,6.391,0,0,1,.8,1.9,21.308,21.308,0,0,1-.3,2.5c-.2,2.6-1.9,3.6-4.3,2.5-4.4-2-8.7-3.9-13.1-5.9-2.7-1.2-3.3-1.9-3.4-4.6Z" fill="#181715" fill-rule="evenodd"/>
    <path id="Path_769" data-name="Path 769" d="M560.4,261.3c-.3,1.6-1,2.3-2.1,2.4s-1.5-.7-1.5-1.6a1.924,1.924,0,0,1,2.2-1.9c.6.1,1.1.8,1.4,1.1Z" fill="#181715" fill-rule="evenodd"/>
    <path id="Path_770" data-name="Path 770" d="M583.8,273c-.1,1.5-1.3,1.4-1.9,1.6-.7.3-2.1-1.1-1.8-1.8s1-1.6,1.7-1.7C582.2,271.2,583.9,271.6,583.8,273Z" fill="#181715" fill-rule="evenodd"/>
    <path id="Path_771" data-name="Path 771" d="M339.4,273v.5" fill="#181715" fill-rule="evenodd"/>
    <path id="Path_772" data-name="Path 772" d="M389.7,135c-2.3,0-4.7.3-7,.4,1.6-3,4.1-5.5,6.4-8a1.253,1.253,0,0,0-.9-2.1,26.512,26.512,0,0,1-8.4-1c-1.5-.5-2.2,1.9-.7,2.4a22.413,22.413,0,0,0,6.3,1,28.506,28.506,0,0,0-5.9,8.7,1.282,1.282,0,0,0,1.2,1.6c3,0,6-.5,9-.5A1.251,1.251,0,0,0,389.7,135Z" fill="#181715"/>
    <path id="Path_773" data-name="Path 773" d="M395.1,125.7c-.2-1.6-2.6-.9-2.4.7q.75,4.95,1.2,9.9c.2,1.6,2.7,1.6,2.5,0-.3-3.6-.7-7.1-1.3-10.6Z" fill="#181715"/>
    <path id="Path_774" data-name="Path 774" d="M410,134.3a15.511,15.511,0,0,0-6.8-.6c-.1-.9-.3-1.8-.4-2.7a18.629,18.629,0,0,0,3.4-.7c1.5-.5.9-2.9-.7-2.4a16.54,16.54,0,0,1-3.2.7,11.63,11.63,0,0,0-.4-1.8c1.6,0,3.2-.3,4.9-.4a1.251,1.251,0,0,0,0-2.5c-2.1,0-4.3.7-6.4.3a1.287,1.287,0,0,0-1,2.3v.3a85.045,85.045,0,0,1,1.5,8.8,1.176,1.176,0,0,0,1.2.9c2.3-.2,4.9-.4,7.2.5a1.409,1.409,0,0,0,.7-2.7Z" fill="#181715"/>
    <path id="Path_775" data-name="Path 775" d="M420.9,132.8a21.624,21.624,0,0,0-4.4,1c-.4-2.9-.6-5.8-.8-8.7-.1-1.6-2.6-1.6-2.5,0,.3,3.5.6,7.1,1,10.6a1.258,1.258,0,0,0,1.5.9c1.7-.3,3.4-1.1,5.2-1.2,1.6-.3,1.7-2.8,0-2.6Z" fill="#181715"/>
    <path id="Path_776" data-name="Path 776" d="M361.1,171a43.049,43.049,0,0,0,.8,9.5c.4,2.4,4,1.4,3.6-1a34.484,34.484,0,0,1-.7-8.5c.2-2.4-3.6-2.4-3.7,0Z" fill="#181715"/>
    <path id="Path_777" data-name="Path 777" d="M547.6,158.9q2.7-1.65,4.2,1.8a6.22,6.22,0,0,1-.9,2.6,33.68,33.68,0,0,1-2.1,3.1c-1.1,1.6-2.2,3.8-2,5.8.6,4,5.7,4.1,8.8,4.3,2.4.1,2.4-3.6,0-3.8-2.1-.1-6,.3-4.7-2.7,1.3-2.8,3.6-4.8,4.4-7.8,1.6-5.9-5.4-8.7-9.7-6.5-2,1-.1,4.3,2,3.2Z" fill="#181715"/>
    <path id="Path_778" data-name="Path 778" d="M550.4,184.1l.2.2a1.909,1.909,0,1,0,2.7-2.7l-.2-.2a2,2,0,0,0-2.7,0A1.819,1.819,0,0,0,550.4,184.1Z" fill="#181715"/>
    <path id="Path_779" data-name="Path 779" d="M363.3,184.9c1.9,0,2.2,1,2.3,1.9s0,1.4-1.1,1.7a2.1,2.1,0,0,1-2.3-1.5c-.4-1-.1-2.2,1.1-2.1Z" fill="#181715" fill-rule="evenodd"/>
  </g>
</svg>
