<svg xmlns="http://www.w3.org/2000/svg" width="356.941" height="214.25" viewBox="0 0 356.941 214.25">
  <g id="decentralarc" transform="translate(1 0.577)">
    <path id="Path_265" data-name="Path 265" d="M473.82,135.242,493.632,123.8l19.812,11.438-19.812,11.439Z" transform="translate(-217.941 -123.804)" fill="red" stroke="#000" stroke-width="1"/>
    <path id="Path_266" data-name="Path 266" d="M504.5,175.836,524.312,164.4V141.52L504.5,152.959Z" transform="translate(-228.813 -130.082)" fill="#ff8080" stroke="#000" stroke-width="1"/>
    <path id="Path_267" data-name="Path 267" d="M473.82,141.52V164.4l19.812,11.439V152.959Z" transform="translate(-217.941 -130.082)" fill="#faa" stroke="#000" stroke-width="1"/>
    <path id="Path_268" data-name="Path 268" d="M504.5,152.962l19.812-11.438,19.812,11.438L524.312,164.4Z" transform="translate(-228.813 -130.083)" fill="red" stroke="#000" stroke-width="1"/>
    <path id="Path_269" data-name="Path 269" d="M535.19,193.556,555,182.117V159.24L535.19,170.679Z" transform="translate(-239.688 -136.361)" fill="#ff8080" stroke="#000" stroke-width="1"/>
    <path id="Path_270" data-name="Path 270" d="M504.5,159.24v22.877l19.812,11.439V170.679Z" transform="translate(-228.813 -136.361)" fill="#faa" stroke="#000" stroke-width="1"/>
    <path id="Path_271" data-name="Path 271" d="M535.19,170.682,555,159.244l19.812,11.438L555,182.121Z" transform="translate(-239.688 -136.363)" fill="red" stroke="#000" stroke-width="1"/>
    <path id="Path_272" data-name="Path 272" d="M565.88,211.276l19.812-11.439V176.96L565.88,188.4Z" transform="translate(-250.563 -142.64)" fill="#ff8080" stroke="#000" stroke-width="1"/>
    <path id="Path_273" data-name="Path 273" d="M535.19,176.96v22.877L555,211.276V188.4Z" transform="translate(-239.688 -142.64)" fill="#faa" stroke="#000" stroke-width="1"/>
    <path id="Path_274" data-name="Path 274" d="M565.88,188.392l19.812-11.438L605.5,188.392l-19.812,11.439Z" transform="translate(-250.563 -142.638)" fill="red" stroke="#000" stroke-width="1"/>
    <path id="Path_275" data-name="Path 275" d="M596.56,228.986l19.812-11.439V194.67L596.56,206.109Z" transform="translate(-261.435 -148.916)" fill="#ff8080" stroke="#000" stroke-width="1"/>
    <path id="Path_276" data-name="Path 276" d="M565.88,194.67v22.877l19.812,11.439V206.109Z" transform="translate(-250.563 -148.916)" fill="#faa" stroke="#000" stroke-width="1"/>
    <path id="Path_277" data-name="Path 277" d="M163.93,340.832l19.812-11.438,19.812,11.438-19.812,11.439Z" transform="translate(-108.127 -196.657)" fill="#fc0" stroke="#000" stroke-width="1"/>
    <path id="Path_278" data-name="Path 278" d="M194.62,381.426l19.812-11.439V347.11L194.62,358.549Z" transform="translate(-119.003 -202.935)" fill="#fd5" stroke="#000" stroke-width="1"/>
    <path id="Path_279" data-name="Path 279" d="M163.93,347.11v22.877l19.812,11.439V358.549L163.93,347.11Z" transform="translate(-108.127 -202.935)" fill="#fea" stroke="#000" stroke-width="1"/>
    <path id="Path_280" data-name="Path 280" d="M194.62,358.552l19.812-11.438,19.812,11.438-19.812,11.439Z" transform="translate(-119.003 -202.937)" fill="#fc0" stroke="#000" stroke-width="1"/>
    <path id="Path_281" data-name="Path 281" d="M225.3,399.146l19.812-11.439V364.83L225.3,376.269Z" transform="translate(-129.875 -209.214)" fill="#fd5" stroke="#000" stroke-width="1"/>
    <path id="Path_282" data-name="Path 282" d="M194.62,364.83v22.877l19.812,11.439V376.269Z" transform="translate(-119.003 -209.214)" fill="#fea" stroke="#000" stroke-width="1"/>
    <path id="Path_283" data-name="Path 283" d="M225.3,376.272l19.812-11.438,19.812,11.438-19.812,11.439Z" transform="translate(-129.875 -209.216)" fill="#fc0" stroke="#000" stroke-width="1"/>
    <path id="Path_284" data-name="Path 284" d="M255.99,416.866,275.8,405.427V382.55L255.99,393.989Z" transform="translate(-140.75 -215.494)" fill="#fd5" stroke="#000" stroke-width="1"/>
    <path id="Path_285" data-name="Path 285" d="M225.3,382.55v22.877l19.812,11.439V393.989L225.3,382.55Z" transform="translate(-129.875 -215.494)" fill="#fea" stroke="#000" stroke-width="1"/>
    <path id="Path_286" data-name="Path 286" d="M194.62,393.982l19.812-11.438,19.812,11.438-19.812,11.439Z" transform="translate(-119.003 -215.492)" fill="#fc0" stroke="#000" stroke-width="1"/>
    <path id="Path_287" data-name="Path 287" d="M225.3,434.576l19.812-11.439V400.26L225.3,411.7Z" transform="translate(-129.875 -221.769)" fill="#fd5" stroke="#000" stroke-width="1"/>
    <path id="Path_288" data-name="Path 288" d="M194.62,400.26v22.877l19.812,11.439V411.7L194.62,400.26Z" transform="translate(-119.003 -221.769)" fill="#fea" stroke="#000" stroke-width="1"/>
    <path id="Path_289" data-name="Path 289" d="M108.19,146.722,128,135.283l19.812,11.439L128,158.16Z" transform="translate(-88.375 -127.872)" fill="#71c837" stroke="#000" stroke-width="1"/>
    <path id="Path_290" data-name="Path 290" d="M138.87,187.316l19.812-11.439V153L138.87,164.439Z" transform="translate(-99.247 -134.15)" fill="#aade87" stroke="#000" stroke-width="1"/>
    <path id="Path_291" data-name="Path 291" d="M108.19,153v22.877L128,187.316V164.439L108.19,153Z" transform="translate(-88.375 -134.15)" fill="#e3f4d7" stroke="#000" stroke-width="1"/>
    <path id="Path_292" data-name="Path 292" d="M138.87,164.432l19.812-11.438,19.812,11.438-19.812,11.439Z" transform="translate(-99.247 -134.148)" fill="#71c837" stroke="#000" stroke-width="1"/>
    <path id="Path_293" data-name="Path 293" d="M169.56,205.026l19.812-11.439V170.71L169.56,182.149Z" transform="translate(-110.123 -140.426)" fill="#aade87" stroke="#000" stroke-width="1"/>
    <path id="Path_294" data-name="Path 294" d="M138.87,170.71v22.877l19.812,11.439V182.149Z" transform="translate(-99.247 -140.426)" fill="#e3f4d7" stroke="#000" stroke-width="1"/>
    <path id="Path_295" data-name="Path 295" d="M77.5,164.432l19.812-11.438,19.812,11.438L97.312,175.871Z" transform="translate(-77.5 -134.148)" fill="#71c837" stroke="#000" stroke-width="1"/>
    <path id="Path_296" data-name="Path 296" d="M108.19,205.026,128,193.587V170.71L108.19,182.149Z" transform="translate(-88.375 -140.426)" fill="#aade87" stroke="#000" stroke-width="1"/>
    <path id="Path_297" data-name="Path 297" d="M77.5,170.71v22.877l19.812,11.439V182.149Z" transform="translate(-77.5 -140.426)" fill="#e3f4d7" stroke="#000" stroke-width="1"/>
    <path id="Path_298" data-name="Path 298" d="M108.19,182.152,128,170.713l19.812,11.439L128,193.591Z" transform="translate(-88.375 -140.427)" fill="#71c837" stroke="#000" stroke-width="1"/>
    <path id="Path_299" data-name="Path 299" d="M138.87,222.746l19.812-11.439V188.43L138.87,199.869Z" transform="translate(-99.247 -146.705)" fill="#aade87" stroke="#000" stroke-width="1"/>
    <path id="Path_300" data-name="Path 300" d="M108.19,188.43v22.877L128,222.746V199.869Z" transform="translate(-88.375 -146.705)" fill="#e3f4d7" stroke="#000" stroke-width="1"/>
    <path id="Path_301" data-name="Path 301" d="M267.7,148.292l19.812-11.438,19.812,11.438-19.812,11.439Z" transform="translate(-144.9 -128.428)" fill="#2c89a0" stroke="#000" stroke-width="1"/>
    <path id="Path_302" data-name="Path 302" d="M298.39,188.886,318.2,177.447V154.57L298.39,166.009Z" transform="translate(-155.775 -134.706)" fill="#5fbcd3" stroke="#000" stroke-width="1"/>
    <path id="Path_303" data-name="Path 303" d="M267.7,154.57v22.877l19.812,11.439V166.009Z" transform="translate(-144.9 -134.706)" fill="#afdde9" stroke="#000" stroke-width="1"/>
    <path id="Path_304" data-name="Path 304" d="M328.82,148.362l19.812-11.438,19.812,11.438L348.632,159.8Z" transform="translate(-166.558 -128.453)" fill="#2c89a0" stroke="#000" stroke-width="1"/>
    <path id="Path_305" data-name="Path 305" d="M359.5,188.956l19.812-11.439V154.64L359.5,166.079Z" transform="translate(-177.43 -134.731)" fill="#5fbcd3" stroke="#000" stroke-width="1"/>
    <path id="Path_306" data-name="Path 306" d="M328.82,154.64v22.877l19.812,11.439V166.079Z" transform="translate(-166.558 -134.731)" fill="#afdde9" stroke="#000" stroke-width="1"/>
    <path id="Path_307" data-name="Path 307" d="M298.39,166.012,318.2,154.574l19.812,11.438L318.2,177.451Z" transform="translate(-155.775 -134.708)" fill="#2c89a0" stroke="#000" stroke-width="1"/>
    <path id="Path_308" data-name="Path 308" d="M329.07,206.606l19.812-11.439V172.29L329.07,183.729Z" transform="translate(-166.647 -140.986)" fill="#5fbcd3" stroke="#000" stroke-width="1"/>
    <path id="Path_309" data-name="Path 309" d="M298.39,172.29v22.877L318.2,206.606V183.729Z" transform="translate(-155.775 -140.986)" fill="#afdde9" stroke="#000" stroke-width="1"/>
    <path id="Path_310" data-name="Path 310" d="M359.57,165.982l19.812-11.438,19.812,11.438-19.812,11.439Z" transform="translate(-177.455 -134.697)" fill="#2c89a0" stroke="#000" stroke-width="1"/>
    <path id="Path_311" data-name="Path 311" d="M390.25,206.576l19.812-11.439V172.26L390.25,183.7Z" transform="translate(-188.327 -140.975)" fill="#5fbcd3" stroke="#000" stroke-width="1"/>
    <path id="Path_312" data-name="Path 312" d="M359.57,172.26v22.877l19.812,11.439V183.7Z" transform="translate(-177.455 -140.975)" fill="#afdde9" stroke="#000" stroke-width="1"/>
    <path id="Path_313" data-name="Path 313" d="M339.5,279.312l19.812-11.439,19.812,11.439-19.812,11.439Z" transform="translate(-170.343 -174.857)" fill="#c837ab" stroke="#000" stroke-width="1"/>
    <path id="Path_314" data-name="Path 314" d="M370.19,319.906,390,308.467V285.59L370.19,297.029Z" transform="translate(-181.218 -181.135)" fill="#de87cd" stroke="#000" stroke-width="1"/>
    <path id="Path_315" data-name="Path 315" d="M339.5,285.59v22.877l19.812,11.439V297.029Z" transform="translate(-170.343 -181.135)" fill="#e9afdd" stroke="#000" stroke-width="1"/>
    <path id="Path_316" data-name="Path 316" d="M400.87,279.312l19.812-11.439,19.812,11.439-19.812,11.439Z" transform="translate(-192.09 -174.857)" fill="#c837ab" stroke="#000" stroke-width="1"/>
    <path id="Path_317" data-name="Path 317" d="M431.56,319.906l19.812-11.439V285.59L431.56,297.029Z" transform="translate(-202.965 -181.135)" fill="#de87cd" stroke="#000" stroke-width="1"/>
    <path id="Path_318" data-name="Path 318" d="M400.87,285.59v22.877l19.812,11.439V297.029Z" transform="translate(-192.09 -181.135)" fill="#e9afdd" stroke="#000" stroke-width="1"/>
    <path id="Path_319" data-name="Path 319" d="M370.19,297.032,390,285.594l19.812,11.438L390,308.471Z" transform="translate(-181.218 -181.136)" fill="#c837ab" stroke="#000" stroke-width="1"/>
    <path id="Path_320" data-name="Path 320" d="M400.87,337.626l19.812-11.439V303.31L400.87,314.749Z" transform="translate(-192.09 -187.414)" fill="#de87cd" stroke="#000" stroke-width="1"/>
    <path id="Path_321" data-name="Path 321" d="M370.19,303.31v22.877L390,337.626V314.749L370.19,303.31Z" transform="translate(-181.218 -187.414)" fill="#e9afdd" stroke="#000" stroke-width="1"/>
    <path id="Path_322" data-name="Path 322" d="M400.87,314.752l19.812-11.439,19.812,11.439-19.812,11.439Z" transform="translate(-192.09 -187.415)" fill="#c837ab" stroke="#000" stroke-width="1"/>
    <path id="Path_323" data-name="Path 323" d="M431.56,355.346l19.812-11.438V321.031L431.56,332.47v22.877Z" transform="translate(-202.965 -193.694)" fill="#de87cd" stroke="#000" stroke-width="1"/>
    <path id="Path_324" data-name="Path 324" d="M400.87,321.03v22.877l19.812,11.438V332.468L400.87,321.029Z" transform="translate(-192.09 -193.693)" fill="#e9afdd" stroke="#000" stroke-width="1"/>
  </g>
</svg>
