<svg id="Events" xmlns="http://www.w3.org/2000/svg" width="689.705" height="254.78" viewBox="0 0 689.705 254.78">
  <path id="Path_587" data-name="Path 587" d="M82.7,261.4l30.7-18.8,5,17L94.5,274.1Z" transform="translate(-81.12 -205.855)" fill="#9dd3cc"/>
  <path id="Path_588" data-name="Path 588" d="M343.3,207.6l-1.4,12.6,23.6,2.5-.4-10.6-21.3-4" transform="translate(-81.12 -205.855)" fill="#9dd3cc"/>
  <path id="Path_589" data-name="Path 589" d="M408.1,373.1l.7-.3,39-15,2.5,3.5-19.6,36.4-41.2,15.7h-1.9" transform="translate(-81.12 -205.855)" fill="#9dd3cc"/>
  <path id="Path_590" data-name="Path 590" d="M488.4,360.2l16.1,2.9,4.9,24.6-14.6-3.4Z" transform="translate(-81.12 -205.855)" fill="#9dd3cc"/>
  <path id="Path_591" data-name="Path 591" d="M646.5,360.4l9.6-2.6-6.4,22-10.7-2Z" transform="translate(-81.12 -205.855)" fill="#9dd3cc"/>
  <path id="Path_592" data-name="Path 592" d="M746.5,334.7l7.2,3.9-7.2,13.2-11.2-1.3Z" transform="translate(-81.12 -205.855)" fill="#9dd3cc"/>
  <g id="Group_31" data-name="Group 31" transform="translate(-81.12 -205.855)">
    <path id="Path_593" data-name="Path 593" d="M660.6,359.5c-.3-.6-.4-1-.6-1.4a7.02,7.02,0,0,0-.9.6c-1.1,1.7-2.1,3.5-3.2,5.2a1.269,1.269,0,0,0-.1.6c.3,0,.6,0,.7-.1a15.525,15.525,0,0,0,2.3-2.1,19.229,19.229,0,0,0,1.8-2.8Zm-6.2-4.8a32.123,32.123,0,0,1,3.6-.7c1.2-.1,1-.5.7-1.3a20.926,20.926,0,0,0-5.3-7.5,1.38,1.38,0,0,0-.4-.3c0,.2-.1.4-.1.6.2,2.6.4,5.1.7,7.7a2.016,2.016,0,0,0,.3,1.1c.1.2.4.3.5.4ZM500.8,363c.1.7.2,1.2.3,1.7.4,1.6.9,3.1,1.3,4.7.6,2.3,1.3,4.7,1.8,7.1.6,2.8,1.1,5.5,1.7,8.3a6.633,6.633,0,0,0,.9,1.9,6.167,6.167,0,0,0,.2-2.3c-1.1-5.6-2.4-11.2-3.6-16.9-.3-1.5-.6-3-1-4.5-.1-.4-.7-.8-1.1-1.1a2.812,2.812,0,0,1-.5,1.1Zm94,47c-.1-.3-.2-.6-.3-1-.5-2.6-1-5.2-1.4-7.8-.6-3.9-1.1-7.8-1.8-11.6a14.16,14.16,0,0,0-.8-1.8c-.2.5-.5,1.1-.7,1.6a2.354,2.354,0,0,0-.2.8c-1.1,3.7-2.1,7.4-3.2,11.1-.6,1.9-1.1,3.8-1.7,5.7-.2.7-.2,1.2.5,1.5,2.6,1,5.2,2.1,7.9,3.1,1,.3,1.8-.5,1.7-1.6Zm44.9-30.6q3.75-.6,7.2-1.2a1.22,1.22,0,0,0,.9-.8,64.363,64.363,0,0,0,3-7.2,40.58,40.58,0,0,1,4.8-11.1c.2-.4.3-.9.5-1.3a3.787,3.787,0,0,0-1.5,0q-2.85.75-5.7,1.8a2.949,2.949,0,0,0-1.4,1.3c-1.7,3.2-3.2,6.5-4.8,9.8-1.2,2.4-2.4,4.7-3.6,7.1a11.734,11.734,0,0,1-.5,1.1,9.746,9.746,0,0,0,1.1.5Zm4.3-65.5c-1,.2-2.1.3-3.1.6-5.2,1.5-10.4,3-15.6,4.6-1.3.4-2.6.9-3.9,1.3-3.3,1-6.7,2-10,3.1-1.9.6-3.8,1.5-5.7,2.3-3.2,1.3-6.5,2.5-9.7,3.9-1.9.8-1.8,1-1.4,3,.2.9.7,1,1.4.7.6-.2,1.1-.6,1.6-.7,3.4-1.1,6.8-2.1,10.1-3.2,3.7-1.3,7.4-2.7,11-4,4.4-1.6,8.8-3.1,13.1-4.8a78.706,78.706,0,0,1,12.4-4.2,11.947,11.947,0,0,0,2.6-1.1c.3-.1.5-.4.7-.6a3.508,3.508,0,0,0-.8-.5,19.34,19.34,0,0,0-2.7-.4ZM503.5,384.8c-.3-1.8-.7-4.1-1.2-6.4-.6-2.9-1.4-5.8-2-8.7-.5-2.4-1-4.7-1.5-7.1a2.577,2.577,0,0,0-1.8-2.2c-2.1-.8-4.1-1.6-6.2-2.3-2.7-.9-3-.6-2.3,2.2l.3.9a11.8,11.8,0,0,0,.4,2c.2,1,.2,2.3.8,2.8,1.1.9.8,1.7.6,2.6a7.145,7.145,0,0,0-.2,2c.6,2.6,1.4,5.2,2.1,7.8.4,1.3.8,2.6,1.2,4a3.332,3.332,0,0,0,2.6,2.5c1.9.4,3.9.9,5.8,1.3,1.4.5,1.5.4,1.4-1.4Zm96.8-16.1c.2,1.4.5,3.5.9,5.5.5,2.7,1.2,5.4,1.8,8.1a54.748,54.748,0,0,0,1.3,5.5c.6,1.8.8,1.7,2.6,1.1a11.763,11.763,0,0,0,2-.7c3.1-1.5,6.2-3.2,9.3-4.6,5.4-2.4,10.9-4.6,16.2-7.1a8.586,8.586,0,0,0,4.5-3.7c.5-.9.3-1.1-.7-1.1-2.3,0-4.5,0-6.8-.1-1.8-.1-3.5-.2-5.3-.3-4.8-.4-9.7-.6-14.5-1.3-3.4-.5-6.7-1.8-10.1-2.8C600.3,366.7,600.2,366.7,600.3,368.7ZM515.8,282c-2.6,1.1-5.6,1.1-7.7,3.2-.2.2-.4.3-.6.5a3.508,3.508,0,0,0,.8.5c2,1,4.2,1.5,6.1,2.7a30.6,30.6,0,0,0,5.8,2.7c.6.3,1.4.3,2,.6,3.1,1.2,6.1,2.5,9.2,3.8,2.6,1.1,5.3,2.1,7.9,3.3,5.3,2.5,10.6,5.2,16.3,6.8,2.7.7,5.2,2.1,7.8,3.2,1.5.6,3.1,1,4.5,1.7a97.528,97.528,0,0,0,13.7,5.9,10.314,10.314,0,0,0,6.5-.2c.7-.2,1.2-.9,1.8-1.3-.6-.6-1-1.4-1.7-1.7-3-1.4-6.1-2.8-9.3-4-2.9-1.1-5.8-2.1-8.7-3.1-3.8-1.4-7.5-2.8-11.3-4.2-3.3-1.3-6.6-2.7-10-4.1-2.5-1.1-5.1-2.1-7.6-3.3-4-1.9-7.8-3.9-11.8-5.7a78.755,78.755,0,0,1-10.3-5.6,26.939,26.939,0,0,0-3.4-1.7Zm70.4,55.5c.6,4,1.3,8,1.9,12,.6,4.3,1.1,8.6,1.7,12.8.2,1.6.5,3.2.8,4.7,0,.2.2.3.3.5.1-.2.3-.3.3-.5.1-1.5.2-3,.2-4.5,0-1,.4-1.8,1.5-1.8,1.2,0,1.3.9,1.4,1.9a19.866,19.866,0,0,1-1,7.3,28.452,28.452,0,0,0-.6,12.3c.6,4.3,1.7,8.6,2.4,12.9.6,3.7,1,7.4,1.5,11,.3,1.8.6,3.5,1,5.2.1.7.5.8,1.2.5,2.1-1,4.3-1.8,6.4-2.7.7-.3,1.2-.6.9-1.5-.4-1.5-.7-3-1-4.5-1.4-5.6-2.8-11.2-4.1-16.8-1.6-7.6-3.7-15.1-4.4-22.9-.5-5.3-1.7-10.5-2.6-15.7-.6-3.7-1.2-7.4-1.7-11.2-.8-5.4-1.6-10.7-2.2-16.1-.1-1.2-.6-1.5-1.6-1.1-1.1.3-2.1.7-3.1,1a1.391,1.391,0,0,0-1.1,1.7c.2,1.5,1.3,11.7,1.9,15.5ZM633.8,369c3,.3,5.4-1.2,8-2.2.1-.1.3-.2.3-.3,1-2.1,2.5-4.2,2.9-6.5.4-1.8,1.2-2.2,2.7-2.5a3.545,3.545,0,0,0,1.1-.3c.6-.4,1.4-.9,1.5-1.5a19.3,19.3,0,0,0,0-3.4c-.1-4.5-.2-9.1-.2-13.6,0-2.9,0-5.9.1-8.8,0-1.2.2-2.3.2-3.5l.3-7.8c0-.9-.3-1.4-1.2-1.3a11.274,11.274,0,0,0-1.8.3c-3.4,1-6.8,1.9-10.1,3.1-4.5,1.6-8.9,3.4-13.3,5.1-6.1,2.3-12.2,4.5-18.3,6.8-3,1.1-6,2.3-9,3.4a1.559,1.559,0,0,0-1.2,1.9c.2,2.1.3,4.3.6,6.5.3,2.1.9,4.2,1.3,6.3.7,3.6,1.3,7.2,2.1,10.8a3.75,3.75,0,0,0,1.6,2.1,35.066,35.066,0,0,0,12.6,4c5.6.7,18.9,1.4,19.8,1.4ZM506.9,303.8c.5,2.5,1.2,5.1,1.7,7.6.4,2.3.4,4.7.9,6.9,1,4.1,1.3,8.4,2.6,12.5,1.5,4.7,2.1,9.7,3.3,14.5,1.3,5.3,2.8,10.6,4.2,15.9,1.1,4.2,2.2,8.3,3.3,12.5.3,1.2,2.2,5.5,3.3,6a10.092,10.092,0,0,1,1.5.7c2.8,1.2,5.6,2.4,8.3,3.8,2.1,1,4,2.3,6,3.5,1.9,1.1,3.7,2.1,5.6,3.1,2.2,1.2,4.4,2.5,6.7,3.6,1.4.7,3,1.1,4.5,1.8l10.8,5.1c3.7,1.7,7.5,3.1,11.2,4.8.8.3,1.1.3,1.4-.5.5-1.4,1-2.8,1.4-4.2,1.2-4.4,2.2-8.8,3.6-13.1a30.791,30.791,0,0,0,1.6-10.8,130.848,130.848,0,0,0-1.4-13.9c-.7-5.1-1.8-10-2.5-15.1-.6-4.4-1-8.9-1.6-13.4-.4-3-1-6-1.5-9-.2-1.7-.2-3.4-.5-5.1a2.475,2.475,0,0,0-1-1.6c-2.6-1.3-5.2-2.6-7.9-3.7-3.2-1.4-6.4-2.6-9.7-3.9-2.8-1.1-5.6-2.2-8.4-3.2-2.2-.8-4.5-1.5-6.7-2.4-3-1.3-5.9-2.9-8.9-4.2s-6.1-2.4-9.1-3.6c-2.4-1-4.7-2-7.1-3-2.7-1.1-5.4-2.2-8-3.4-3-1.4-6-2.9-9-4.4-.5-.3-.8-.2-.9.4a4.329,4.329,0,0,0-.1,1.6c.6,2,1.8,11.6,2.4,14.2ZM645.6,405.2c-1.5.3-2-.1-2.4-1.6-.5-1.9-1.1-3.7-1.6-5.6-1.3-4.6-2.6-9.2-4-13.7a11.251,11.251,0,0,0-1.2-2.1,4.075,4.075,0,0,1-.5-1.8c-.1-1.3-.4-1.6-1.5-1.1-2.8,1.2-5.6,2.4-8.3,3.8a3.639,3.639,0,0,0-1.4,1.6c-1.2,2.8-2.2,5.7-3.3,8.5-.9,2.2-.9,4.2,1,5.9a77.552,77.552,0,0,0,7.5,5.9c.5.3,1.1.7,1.1,1.2a3.718,3.718,0,0,1-.5,2.3c-.1.2-1.3.1-1.8-.2-1.6-1.1-3-2.4-4.5-3.6-2.1-1.8-4.2-3.7-6.2-5.6a1.606,1.606,0,0,1-.5-1.1,4.012,4.012,0,0,1,.3-1.5c1.3-3.5,2.6-6.9,4-10.4.1-.3.2-.7.3-1.1a5.019,5.019,0,0,0-1.2.2c-4.2,2-8.5,4.1-12.7,6.2-.8.4-1.8.7-2.1,1.3s.3,1.6.4,2.4c.6,2.7,1.2,5.3,1.8,8,.3,1.2.9,2.4,1.2,3.6.6,2.2.2,3.3-1.9,4.4-2.7,1.4-5.4,2.8-8.1,4-1.3.6-2.8,1.1-4.3.2a1.421,1.421,0,0,0-.6-.2c-3.6-.1-6.5-2-9.6-3.4-1.1-.5-1.8-.5-2.4.6a1.566,1.566,0,0,1-1.5.5c-.3-.1-.6-.8-.6-1.3,0-2.6,0-2.6-2.4-3.4-.5-.2-.9-.5-1.3-.7-.5-.2-1.1-.3-1.7-.5a9.36,9.36,0,0,0,.4,1.6c.8,1.9,1.8,3.7,2.6,5.6,1.1,2.3,2.1,4.6,3.3,6.8,1.9,3.6,4,7.1,6,10.7a20.38,20.38,0,0,1,2.1,4.5,6.714,6.714,0,0,1-.3,3.7c-1.2,3.1-2.5,6.1-3.8,9.1-.2.4-.2.9-.5,1.2a1.575,1.575,0,0,1-1.3.4,1.327,1.327,0,0,1-.8-1.1,6.357,6.357,0,0,1,.6-1.8c.9-3.2,2-6.5,2.7-9.8a7.109,7.109,0,0,0-1-3.9c-2.2-4.5-4.6-8.8-6.8-13.3-1.2-2.3-2.1-4.7-3.3-7-1.5-2.9-3.2-5.8-4.8-8.7a2.723,2.723,0,0,0-1-.8c-4.8-2.2-9.6-4.4-14.3-6.6-2.6-1.2-5.2-2.3-7.8-3.6-.8-.4-1.3-.4-1.7.5-2.2,5-4.5,10-6.6,15.1-1.6,4-2.9,8.1-4.3,12.2l-3,9a1.483,1.483,0,0,0-.1.7c-.2,2.6-.8,2.7-3.1,1.5a35.488,35.488,0,0,0-5.4-2.1c-1.1-.4-1.7-1.1-1.4-2.1.3-.9,1.1-1.1,2.2-.7,1.3.5,2.7,1,4,1.6.8.3,1.2.2,1.5-.6,1.6-4.3,3.1-8.6,4.7-12.9,1.2-3.2,2.3-6.4,3.5-9.5,1.7-4.3,3.5-8.5,5.3-12.7.7-1.6.5-2.3-1-3.2-3.3-1.9-6.5-3.9-9.9-5.6a80.873,80.873,0,0,0-8.1-3.3,3.268,3.268,0,0,1-2.5-3.4,23.624,23.624,0,0,0-.9-5.2c-.6-2.6-1.3-5.3-2.1-7.9-1.3-4.5-2.7-9-3.9-13.5a47.622,47.622,0,0,1-1-5.2c-.4-2.1-.8-2.2-2.4-.9-2,1.6-4,3.3-6.1,4.9-2,1.6-4,3.1-6,4.7a9.015,9.015,0,0,1-1,.9c-.6.6-.7,1.1.3,1.4a27.508,27.508,0,0,0,3,1.4c2.2.6,3.2,1.9,3.7,4.2.8,4.2,1.9,8.3,2.8,12.5.5,2.4.8,4.8,1.2,7.2.3,1.6.5,3.3.8,4.9.2,1.1-.2,1.5-1.2,1.8a8.336,8.336,0,0,1-4.7.1c-3-1-6.1-1.7-9.1-2.4-1.6-.4-2.7-1-2.7-3a14.941,14.941,0,0,0-1.1-4c-.8-2.9-1.5-5.9-2.2-8.8-.3-1.1-.7-1.9-1.9-2.2a4.351,4.351,0,0,1-1.9-1,2.489,2.489,0,0,1-.1-3.7,5.337,5.337,0,0,0,1.3-5.5,22.267,22.267,0,0,1-.5-3.6c-.1-1.5.5-1.9,1.9-1.5,1.8.6,3.5,1.3,5.3,1.9a1.65,1.65,0,0,0,1.2,0c2.6-2,5.2-4.1,7.8-6.1,2.4-1.8,4.8-3.5,7.2-5.3a14.211,14.211,0,0,0,2.5-2.4,1.978,1.978,0,0,0,.1-1.7c-1-4.6-2.1-9.2-3.1-13.8-1.1-5.1-2-10.1-3-15.2-.8-4.3-1.6-8.6-2.3-12.9-.5-3.4-.8-6.9-1.3-10.4a2.8,2.8,0,0,1,1.7-3.3c3.8-1.8,7.7-3.6,11.5-5.2a3.461,3.461,0,0,1,2.6.4c1.6,1,3,2.3,4.5,3.3,1.3.8,2.9,1.3,4.3,2.1,1.9,1,3.7,2,5.5,3a9.992,9.992,0,0,0,1.4.8c2.4,1,4.9,1.9,7.3,2.9,3,1.3,6,2.9,9,4.1,5.7,2.3,11.5,4.5,17.3,6.7,3.5,1.3,6.9,2.6,10.4,3.9,1.9.7,3.8,1.5,5.7,2.3a31.376,31.376,0,0,1,7.7,4.9,5.86,5.86,0,0,1,1.9,4.1c.3,2.9.7,5.8,1,8.7.1.7.3,1,1.1.7,3.8-1.4,7.6-2.7,11.4-4,3.4-1.2,6.8-2.5,10.3-3.6,4.9-1.5,9.9-2.7,14.8-4.2,3.6-1,7-2.3,10.6-3.4a7.946,7.946,0,0,1,6.4.6c1.2.7,2.5,1.3,3.7,1.9a2.035,2.035,0,0,1,1.3,2.2c-.2,2.1-.3,4.2-.4,6.3-.2,4-.4,15.5-.4,15.5s5,6.8,6.7,8.9a16.6,16.6,0,0,1,3.9,12,7.766,7.766,0,0,1-3.4,5.9c-2.1,1.4-4.2,2.7-6.2,4.2a4.072,4.072,0,0,0-1.2,1.7c-1,2.8-1.8,5.6-2.8,8.3a1.325,1.325,0,0,1-.9.7c-2.5.5-5,1-7.5,1.4-1.2.2-1.5.8-1.3,1.8,1,4,1.6,8.2,3.5,11.9a34.716,34.716,0,0,1,1.7,4.5,1.948,1.948,0,0,0,2,1.6c2.4,0,4.8.3,7.2-.6a1.471,1.471,0,0,1,2.1,1c.4,1.1-.1,1.8-1.1,1.9-1.1.3-7.7.8-9.5,1.2Z" fill="#181715" fill-rule="evenodd"/>
    <path id="Path_594" data-name="Path 594" d="M430.3,362.1c0,.8.5,1.1,1.7.7,1.1-.4,2.1-.9,3.2-1.2,1-.3,1.3-.9.7-1.8a26.763,26.763,0,0,1-2.9-8.2.52.52,0,0,0-.2-.4l-.4.4c-.5,1.9-1,3.8-1.5,5.8-.2,1.3-.3,2.7-.6,4.7Zm-17.9,12.6a.756.756,0,0,1,.4-.1c2.6-1,5.1-2,7.7-3,5.7-2.2,11.3-4.4,17-6.6,3.7-1.4,7.3-3,10.9-4.5.3-.1.5-.6.8-.9-.4-.1-.9-.3-1.2-.1-1.5.6-3,1.3-4.6,1.9-3.8,1.5-7.7,2.9-11.5,4.3-2.1.8-4.1,1.6-6.2,2.4-2.4.9-4.7,1.8-7.1,2.8-2.1.9-4.2,1.9-6.3,2.9a.713.713,0,0,0-.3.6c0,.1.3.2.4.3Zm-23.8,37.8c.3.4.5,1,.6.9a3.161,3.161,0,0,0,1.3-.7c1.2-2.2,2.3-4.5,3.5-6.8a51.349,51.349,0,0,1,3.4-6.6,148.808,148.808,0,0,0,11.8-21,4.192,4.192,0,0,0,.4-1.6c0-.3-.3-.6-.4-.9-.3.2-.6.2-.8.5a27.74,27.74,0,0,0-2.2,3.7c-.8,1.8-1.2,3.7-2.1,5.4-1.3,2.5-2.7,4.9-4.2,7.4a112.566,112.566,0,0,1-8.3,13.2c-1.4,1.9-2,4.3-3,6.5Zm-16.5-94.4a13.61,13.61,0,0,0,2.1-.2c3.4-1.1,6.9-2.2,10.2-3.6,5.9-2.5,11.7-5.3,17.6-8,4.3-1.9,8.5-4,12.9-5.7,6.7-2.7,13.4-5.2,20.1-7.8,2.1-.8,4.2-1.8,6.2-2.7.4-.2.7-.7,1-1a5.359,5.359,0,0,0-1.1-.5,32.376,32.376,0,0,0-4.1-1.3c-1.4-.3-3.1-1.1-4.3-.6-4,1.5-7.8,3.5-11.6,5.3-6,2.8-12.1,5.5-18.1,8.3-4.4,2-8.7,4.1-13.1,6.2-6.4,3-12.7,6-19.1,9.1-1.1.5-2.2,1.2-3.3,1.8,1.4.3,2.8.5,4.2.8.2,0,.3-.1.4-.1Zm-36.7,96.4a11.734,11.734,0,0,0,.5,1.1c1.2,2,3.3,2.9,5,4.2.1.1.9-.2,1-.5.9-2.5,1.6-5.1,2.4-7.6,2.1-6.5,4.2-13,6.2-19.5,1.3-3.9,2.5-7.9,3.7-11.9a35.172,35.172,0,0,1,1.3-4.3,2.869,2.869,0,0,0,0-2.7,45.217,45.217,0,0,1-2.3-5,2.135,2.135,0,0,1,.5-2.7,1.469,1.469,0,0,1,1.2-.4,2.258,2.258,0,0,1,.8,1.1,17.988,17.988,0,0,1,.6,2.2c.1.2.3.3.4.5.1-.2.2-.3.3-.5a33.741,33.741,0,0,0,.9-3.4c1.4-7.2,2.7-14.3,5-21.3,1.5-4.6,2.7-9.3,4-14,.3-1,.5-1.9.7-2.9a31.916,31.916,0,0,1,1.3-4.4c.6-1.5.5-1.8-1.2-1.9a7.719,7.719,0,0,1-1.5-.2c-2.3-.5-2.5-.5-3.3,1.7-1,2.7-1.9,5.4-2.7,8.2l-5.4,17.1c-2,6.3-4.1,12.6-6,19-1.3,4.2-2.3,8.4-3.5,12.6-1.1,3.9-2.3,7.7-3.4,11.6-1.7,5.6-3.3,11.1-4.9,16.7-.7,2.4-1.1,4.8-1.6,7.2Zm113.9-51.1c-.2-.1-.4-.4-.6-.3-1.3.4-2.5.8-3.7,1.3-1.6.7-3.2,1.6-4.8,2.2-4,1.5-8.1,3-12.2,4.4-4.2,1.5-8.5,2.9-12.7,4.4a6.912,6.912,0,0,0-3,2,49.394,49.394,0,0,0-3.6,5.7c-.7,1.1-1.2,2.4-1.8,3.5-2.4,4.4-4.8,8.7-7.2,13.1-1,1.8-1.9,3.6-2.8,5.4-1.2,2.1-2.4,4.2-3.6,6.4-.1.2-.1.5-.2.8a2.152,2.152,0,0,0,.8,0,27.6,27.6,0,0,0,2.7-.8c2.4-1,4.8-2.1,7.2-3,3.9-1.6,8-2.9,11.9-4.7a116.269,116.269,0,0,0,11-5.9,8.831,8.831,0,0,0,2.6-2.5c1.5-1.9,2.8-3.8,4.1-5.8,1.6-2.4,3-4.7,4.5-7.2.7-1.1,1.2-2.4,1.8-3.5l2.4-4.2c.7-1.4.6-1.3-.8-2a2.591,2.591,0,0,1-1.2-1.7c-.1-.9.6-1.2,1.4-1.2a2.462,2.462,0,0,0,1.2-.1c1.3-.6,2.8-.9,3.8-1.9,1.1-1.1,1.8-2.8,2.8-4.4ZM345.1,422.3c.5-.1,1-.2,1.4-.3,1.4-.5,2.7-1,4.1-1.5,3.2-1.3,6.4-2.6,9.6-3.8,3-1.2,6-2.3,8.9-3.6,2.3-1,4.7-2,7-3.1,2.4-1.1,4.7-2.4,7.1-3.5,2-.9,4.1-1.6,6.2-2.4a4.926,4.926,0,0,0,3-2.5c.6-1.2,1.4-2.4,2.1-3.6.6-1,1.1-2,1.7-3,1-1.8,2.1-3.5,3.1-5.3,1.2-2,2.3-4,3.5-6,.1-.2.1-.5.2-.8a2.719,2.719,0,0,0-.9,0c-2.3.3-4.6.8-6.9.9-3.6.2-7.3.3-11,.4a55.94,55.94,0,0,1-15.6-2.4,43.368,43.368,0,0,1-9.8-5.1c-.6-.3-.8-.4-1,.4-.4,1.5-.7,3-1.2,4.5-1.5,4.6-3,9.1-4.5,13.7-1.7,5.1-3.4,10.2-5,15.3-1.1,3.4-1.9,6.9-2.9,10.4-.4.9-.3,1.4.9,1.3Zm54.4-41.5c2.9-.6,5.5-1.8,6.5-4.7a6.449,6.449,0,0,1,4.3-4.2c5.4-2.2,10.7-4.6,16-6.9a1.863,1.863,0,0,0,.9-1.2c.2-1.1.2-2.3.5-3.4,1.3-5.7,2.6-11.3,3.9-17,.9-4.1,1.7-8.3,2.7-12.4,1.1-4.7,2.3-9.3,3.5-14,1.1-4.6,2.4-9.1,3.4-13.7.7-3.4,2-6.5,3-9.8a6.6,6.6,0,0,0,.1-1.4,8.6,8.6,0,0,0-1.6.1c-.2,0-.3.1-.5.2-5.2,2.1-10.3,4.3-15.5,6.4-3.3,1.3-6.8,2.5-10.1,3.9-4.6,1.9-9.2,3.9-13.7,5.9l-16.8,7.5c-3.5,1.5-7.1,2.8-10.6,4.4-1.7.8-3.8,1.1-4.2,3.6a48.075,48.075,0,0,1-1.8,6.5c-1.3,4.3-2.8,8.5-4,12.9-1.2,4.5-2.3,9.1-3.4,13.7-1,4-2,8.1-2.9,12.1-.3,1.2-.7,2.8-.2,3.7a8.916,8.916,0,0,0,3.7,3.2c2.1,1.1,4.4,1.7,6.6,2.6a61.763,61.763,0,0,0,15.7,2.9,67.168,67.168,0,0,0,14.5-.9Zm4.5,60.1c.6-4.7-.8-9.1-1.7-13.6-.7-3.7-1.2-7.4-2-11.1-.8-3.9.2-3.5-3.8-2.1-2.1.7-4.1,1.7-6.1,2.5-1.3.6-2.1-.4-2.9-1s-1.4-1.3-1-2.4c.5-1.5,1-2.9,1.6-4.4.3-.8-.1-.9-.7-.7s-1.2.5-1.9.7c-1.4.4-2.8.7-4.1,1.1a9.173,9.173,0,0,0-2.3.9c-1.8.9-3.5,1.9-5.2,2.9a2.553,2.553,0,0,0-1,.7c-1.7,2.5-3.4,4.9-5,7.4-2,3.1-3.9,6.2-5.8,9.3-.4.7-.9,1.4-1.4,2.1-1.1,1.7-2.2,3.4-3.4,5.1-1.4,2.1-2.7,4.3-4.2,6.4a4.222,4.222,0,0,0-.4,5.1c.7,1.4,1.3,2.8,2,4.2.4.9.9,1.7,1.4,2.6a11.085,11.085,0,0,1,.9,1.9c.2.8.4,1.9-.7,2.1-.9.2-1.6-.5-1.9-1.4a58.294,58.294,0,0,0-2.3-5.8c-.8-1.7-1.8-3.3-2.7-5-.9-1.5-.6-2.2.7-3.5a27.222,27.222,0,0,0,2.9-3.8l7.5-11.4c1-1.5,1.8-3.2,2.8-4.8,1.7-2.7,3.4-5.3,5.1-8a4.874,4.874,0,0,0,.4-1.1c-.4.1-.7.2-1.1.3-3.8,1.5-7.6,3.1-11.4,4.6-2.7,1.1-5.3,2.2-8,3.1a6.548,6.548,0,0,1-5.9-.5c-3.1-2-6.5-3.3-9.1-6.1a2.967,2.967,0,0,1-.7-3.5l2.7-9c.9-3.3,1.7-6.5,2.7-9.8.9-3,2.2-5.9,3.1-8.9,1.1-3.7,1.9-7.5,2.9-11.2.9-3.2,1.8-6.4,2.8-9.5,1.1-3.7,2.1-7.3,3.3-11,1-3.1,2.2-6,3.2-9.1.8-2.5,1.4-5,2.1-7.5.8-2.8,1.7-5.6,2.5-8.4.9-2.9,1.8-5.8,2.8-8.7.6-1.6,1.1-3.3,2.7-4.3,1-.6,2.1-1,3.1-1.5,4.7-2.2,9.4-4.5,14.1-6.6,2.3-1.1,4.7-1.9,7-3,2.7-1.2,5.3-2.6,7.9-3.8,3.7-1.8,7.5-3.5,11.2-5.3,3.8-1.8,7.5-3.7,11.3-5.5,1.8-.9,3.7-1.6,5.6-2.5s3.8-2,5.8-2.9a19.8,19.8,0,0,1,5.6-2c1.5-.2,3.2.6,4.8,1.1,2.4.9,4.7,1.9,7.1,2.8a1.631,1.631,0,0,1,1.2,2.2c-.4,1.5-.9,3.1-1.4,4.6-.8,2.6-1.5,5.2-2.2,7.8-.9,3.3-1.9,6.6-2.7,9.9-2.1,8.6-4.2,17.1-6.1,25.7-.5,2.1-.1,4.4-.5,6.6-.6,4.4,1.1,8.3,2.6,12.2,1.2,3.1,2.7,3.5,5.7,2,1.6-.8,3.3-1.5,5-2.3a1.5,1.5,0,0,1,2,.7c.9,1.4,1.8,2.8,2.6,4.3a1.632,1.632,0,0,1-.2,1.5,49.416,49.416,0,0,1-2.7,4.2c-.8,1.1-1.7,2.1-1.5,3.7a1.945,1.945,0,0,1-.9,1.4c-1.7.7-2.2,2.2-3.1,3.6-3.5,5.6-6.1,11.7-10.2,16.9-1.4,1.7-2.3,3.8-3.7,5.5a9.548,9.548,0,0,1-3.9,3c-3.6,1.2-6.8,3.2-10.2,4.8-4,1.9-8.1,3.5-12.2,5.2a8.65,8.65,0,0,0-1.7.7,1.173,1.173,0,0,0-.5,1.1c1.1,6.8,2.3,13.5,3.5,20.3.4,2.1.7,4.1,1.1,6.2a3.528,3.528,0,0,0,.8,1.3c2.8,2.5,6.3,4,9.6,5.6.4.2.9.6.9.9a3.623,3.623,0,0,1-.2,2.1c-.5.7-1.3.2-1.9-.3-3-2.6-6.7-4-10.4-5.4a1.98,1.98,0,0,1-1.7-2.2Z" fill="#181715" fill-rule="evenodd"/>
    <path id="Path_595" data-name="Path 595" d="M760.7,305.4c1.8-.2,4.9-.5,6.7-.7,1.6-.2-1.2-1-1.3-1a35.189,35.189,0,0,0-4-1.8c-.5,0-10.2,1.6-22.1,3.2-14.3,1.8-31.1,3.7-31.6,4a11.563,11.563,0,0,0,2.4,1.3c1.2.4,16.1-1.3,19.6-1.7,4-.5,24.3-2.6,30.3-3.3Zm-52,8.1a3.353,3.353,0,0,0,0-1c-.2-.5-1.7-.8-1.8-.4-.5,2.3-1,4.6-1.3,7-.8,8.1-1.4,16.2-2.3,24.3-.5,4.2-.1,8,2.9,11.2.2.2.5.3.7.5a2.354,2.354,0,0,0,.2-.8c-.1-1.4-.3-2.8-.4-4.1-.2-2.9.2-6-1.2-8.7a3.079,3.079,0,0,1-.3-1.3c0-1,0-2,1-2.6a1.889,1.889,0,0,0,1.1-1.8c0-.8.2-1.5.2-2.3.4-6.6,1.1-20,1.2-20Zm34.9,37.9c1.5-.2,2.9-2.4,2.5-4-.4-1.9-.3-2.1,1.6-2.7a1.8,1.8,0,0,0,.9-.6c1.7-2.2,3.3-4.4,4.9-6.6.9-1.2.7-1.7-.8-2.1a38.964,38.964,0,0,0-4.6-1.2,2.352,2.352,0,0,0-1.6.5c-1.7,1.7-3.4,3.5-5,5.3-.2.2-.3.6-.5.8.3-.1.6-.1.8-.3.8-.6,1.3-.2,1.6.4a1.436,1.436,0,0,1-.7,2.2c-1.3.7-2.6,1.2-3.9,2a5.2,5.2,0,0,0-1.9,2,2.007,2.007,0,0,0,.4,1.7c2.2,1,4.3,1.8,6.3,2.6Zm-34,6.1c0,1.1.5,1.8,1.7,1.7,4.5-.2,9-.4,13.6-.5,3.2-.1,6.4-.1,9.6-.2a10.868,10.868,0,0,0,1.8-.1c3.5-.4,6.9-.9,10.4-1.2,1.9-.2,18.8-.9,18.8-1.6.2-4.6.2-9.2.3-13.7,0-1-.4-.8-1-.4-2,1.3-4.1,2.6-6.2,3.9a11.816,11.816,0,0,1-2.9,1.6,46.922,46.922,0,0,1-5.4,1.1,2.055,2.055,0,0,0-1.8,1.4c-.4,1.1-1,2.1-1.5,3.2a1.838,1.838,0,0,1-2.2,1,31.771,31.771,0,0,1-9.6-3.1c-1-.5-1.7-1.1-1.2-2.3.2-.6,0-.8-.7-.7-1.4.2-2.8.5-4.3.6-5.9.7-11.6.5-17-2.2-2.3-1.1-2.6-1-2.7,1.6v.8c.2,1.8.3,7.9.3,9.1Zm3.6-44.8c-1,.1-1.8.5-1.9,1.7-.1,1.5-.3,3.1-.4,4.6-.1,1.3-.4,2.6-.5,4-.1,3.4-.1,6.7-.2,10.1-.1,2-.4,4.1-.5,6.1,0,.6.2,1.5.6,1.7a29.525,29.525,0,0,0,5.4,3.2,22.47,22.47,0,0,0,5.1,1.3,18.72,18.72,0,0,0,5.3.5,76.023,76.023,0,0,0,8.3-1.6c1.9-.4,3-2,3.9-3.6.1-.2-.3-.8-.5-.9-1.4-.6-2.9-1.1-4.4-1.6-2.7-.9-3.4-2.9-1.9-5.4.2-.2.5-.5.8-.5a1.014,1.014,0,0,1,.7.6,1.644,1.644,0,0,1,.2,1,2.05,2.05,0,0,0,2,2.2,19.522,19.522,0,0,1,4,1c1.9.7,1.8.7,3-.8a25.031,25.031,0,0,1,3.1-3.4,3.852,3.852,0,0,1,2.2-.9,26.315,26.315,0,0,1,9.1,1.8c1.9.7,1.9,1.2.7,2.8-1.9,2.4-3.6,4.9-5.3,7.4a1.854,1.854,0,0,0-.2.7c.2,0,.4.1.7.1a7.98,7.98,0,0,0,4.2-1.3,58.692,58.692,0,0,0,5.9-3.7,8.039,8.039,0,0,0,3.9-6.7c.1-3.8.7-7.6,1-11.4.4-4.4.8-8.8,1.3-13.2.1-1.2-.4-1.4-1.5-1.3l-6.6.6c-2.6.2-5.3.4-7.9.7-3,.3-6,.7-9.1,1-4.6.7-27.5,2.9-30.5,3.2Zm15.7-7.5c4.1-.5,8.3-1.1,12.3-2,6.8-1.6,13.7-1.9,20.7-2.4.2,0,.4-.1.5,0,2.6,1.1,5.3,2.2,7.9,3.4.4.2.6,1.1.5,1.6-.1,2.9-.3,5.7-.5,8.6-.3,3.4-.5,6.9-1,10.3a7.863,7.863,0,0,0,.4,4,8.538,8.538,0,0,1-.1,4.2,30.305,30.305,0,0,0-.7,10.4,55.436,55.436,0,0,1-.3,7.1c0,1.5.1,3.1.1,4.6a2.353,2.353,0,0,0,.2.8c.3,2-.2,2.7-2.2,2.8-3.7.2-7.4.3-11.1.4-1.3.1-2.6.2-4,.2-.7,0-.9.2-.7,1l3.3,13.5c.8,3.3,1.5,6.6,2.2,9.9a1.562,1.562,0,0,0,1.8,1.5,55.961,55.961,0,0,1,5.9.7c1.1.1,1.8.7,1.6,1.6a1.615,1.615,0,0,1-2,1.5,12.317,12.317,0,0,0-5.4-.5c-.6.1-1.3.1-1.9.2a2.028,2.028,0,0,1-2.5-1.7c-.2-1.6-.5-3.2-.7-4.7-.4-2.9-3.7-17.3-4.6-20.5a9.826,9.826,0,0,0-.5-1.6,1.524,1.524,0,0,0-1-.6c-3.1.4-6.3.9-9.4,1.3a36.772,36.772,0,0,1-8.1.5c-2.5-.3-3.4,1.2-4.1,2.7-2.1,4.3-4,8.6-6.1,12.9-.9,1.8.4,3,1.1,4.2a47.519,47.519,0,0,0,3.6,5c.5.7.9,1.5.1,2.1a1.435,1.435,0,0,1-2.2-.3c-1.5-2.1-3-4.1-4.5-6.2a8.99,8.99,0,0,1-1.7-2.6,3.794,3.794,0,0,1,.3-2.3c1-2,2.3-4,3.4-6,.7-1.3,1.1-2.6,1.8-3.9.8-1.6,1.6-3.1,2.3-4.7a.984.984,0,0,0-.3-.8H719c-3,.1-6,.3-8.9.3a3.732,3.732,0,0,1-2.3-1.5c-1.9-2.4-3.7-4.8-5.5-7.3a30.49,30.49,0,0,1-1.9-3c-.2-.3,0-.7,0-1.1.5-3.2,1.2-6.4,1.4-9.6.5-6,.5-12.1,1.1-18.1.4-4.2,1.4-8.3,2.1-12.5a1.689,1.689,0,0,1,1.8-1.6c2.9-.1,18.6-1.4,22.1-1.8Z" fill="#181715" fill-rule="evenodd"/>
    <path id="Path_596" data-name="Path 596" d="M116.8,259c-.1-.1-.2-.1-.2-.2a3.4,3.4,0,0,0-.1-1c-1.2-3.8-2.4-7.6-3.8-11.3-.5-1.3-1.7-2.3-3-1.6a44.756,44.756,0,0,0-6,3.5,15.068,15.068,0,0,1-4.2,2.5,15.053,15.053,0,0,0-2.2,1.1c-4,2.5-8.1,5.1-12.1,7.7a2.092,2.092,0,0,0-.6.4,1.687,1.687,0,0,0,0,2.9,6.73,6.73,0,0,1,1.4,1.5c2.2,2.9,4.2,5.8,6.4,8.7a2.876,2.876,0,0,0,2,.9,9.943,9.943,0,0,0,5.8-2.6c2.1-1.7,4.3-3.3,6.5-4.8,2.9-2,5.9-3.9,8.8-6a5.5,5.5,0,0,0,1.3-1.7Zm3,.4a2.557,2.557,0,0,1-1.6,2.7c-2,1.1-4,2.1-5.9,3.4-3.7,2.7-7.3,5.6-11.1,8.2-2.4,1.6-4.9,2.9-7.5,4.3a1.3,1.3,0,0,1-1-.2c-.3-.1-.5-.5-.6-.8-2.9-5.1-7.2-9.2-10.5-14a2.68,2.68,0,0,1,.6-3.7,5.547,5.547,0,0,0,.8-.6c3.8-3.3,8.2-5.7,12.4-8.3,3.5-2.1,6.9-4.4,10.5-6.5a53.594,53.594,0,0,1,5.4-2.6c1.2-.6,1.8.3,2.1,1.2,1.2,2.9,2.4,5.7,3.5,8.6q1.35,3.3,2.4,6.6c.3.8.4,1.4.5,1.7Z" fill="#181715" fill-rule="evenodd"/>
    <path id="Path_597" data-name="Path 597" d="M341.8,213.5a16.734,16.734,0,0,1,0,2.3,1.714,1.714,0,0,0,1.6,1.9c5.5.9,11,1.8,16.5,2.8,2.2.4,3.6-.3,4.2-2.4.5-2,.6-4,1-6,.3-1.3-.2-1.7-1.4-1.9-3.5-.4-7-.9-10.5-1.3-2.3-.3-4.6-.4-7-.6a13.1,13.1,0,0,0-2.8,0,1.224,1.224,0,0,0-1.4,1.4c0,1.3-.2,2.6-.2,3.8Zm-2.2-.7v-4.7a1.714,1.714,0,0,1,1.6-1.9c3.5-.8,6.9,0,10.4.3,2.1.2,4.3.3,6.4.6,2.8.4,5.6.8,8.3,1.4,1.8.4,1.9.8,1.5,2.6-.1.3-.2.6-.3,1-.4,1.9-.8,3.8-1.2,5.6-.2.9-.3,1.8-.5,2.6-.7,2.7-.7,2.6-3.4,2.3-4.5-.5-9-.9-13.5-1.4-2.4-.3-4.7-.6-7.1-1a2.9,2.9,0,0,1-2.1-2.5c0-1.6,0-4.9-.1-4.9Z" fill="#181715" fill-rule="evenodd"/>
    <path id="Path_598" data-name="Path 598" d="M218.7,258.5c1-.2,1.5.3,1.3,1.3a20.483,20.483,0,0,1-.5,2.4v.6c.1-.1.3-.2.4-.3,2.1-2.2,2.1-2.2,4.4-.2l.2.2c.2.1.5.3.7.4,0-.3.2-.7,0-.9-.4-.9-.9-1.7-1.3-2.5a1.429,1.429,0,0,1,.3-2,34.39,34.39,0,0,0,2.7-2.7c.2-.2.2-.6.3-.8a2.2,2.2,0,0,0-.8.1,11.764,11.764,0,0,0-2,.7c-.8.4-1.1.3-1.2-.7a8.264,8.264,0,0,0-.8-2.2c-.5.7-2.8,4.1-4,4.6a19.648,19.648,0,0,0-2.5,1.3c-.5.3-.5.7.1.7a24.242,24.242,0,0,0,2.7,0Zm12.4-5.1a36.485,36.485,0,0,1-2.9,3.7,2.08,2.08,0,0,0-.7,2.4,50.3,50.3,0,0,1,.9,5.6c.2,1.3-.6,2-1.8,1.5a11.654,11.654,0,0,1-2.8-1.7c-1.5-1.1-1.7-1.1-2.9.4-.7.9-1.5,1.8-2.2,2.7a1.382,1.382,0,0,1-2.1.2,1.6,1.6,0,0,1-.5-2.2,18.763,18.763,0,0,0,1.2-1.8c1-2,.2-3.3-2-3.4a9.034,9.034,0,0,1-2.8-.4,1.37,1.37,0,0,1-.4-2.6,15.391,15.391,0,0,1,3.1-1.7c3.1-1.2,4.7-3.7,5.6-6.7.5-1.7,1-2.2,2.2-1.7a3.447,3.447,0,0,1,1.2,1.2c.2.2.1.6.1,1,.3,2.6.3,2.6,2.7,1.9a15.718,15.718,0,0,1,2.3-.4c1,.1,1.6.8,1.8,2Z" fill="#181715" fill-rule="evenodd"/>
    <path id="Path_599" data-name="Path 599" d="M196.5,243.6c1.9-.2,2,0,1.8,1.8v1.3a2.92,2.92,0,0,0,.2.9c.2-.2.5-.4.7-.6,1.4-1.7,1.4-1.7,3.4-.8a1.1,1.1,0,0,0,.8,0,.94.94,0,0,0,.1-.9c-.2-.6-.6-1.1-.8-1.6-.9-2-.7-2.2,1.3-2.9a2.614,2.614,0,0,0,.8-.3c.2-.1.4-.3.6-.4-.2-.2-.4-.7-.6-.7a16.2,16.2,0,0,0-2.2.1c-.6.1-1.1.5-1.6-.3-.2-.5-.8-.8-1.2-1.1-.2.5-.5,1-.7,1.6-.1.4-.2,2.3-1,2.5a10.423,10.423,0,0,0-3,1.5,2.2,2.2,0,0,0,.8.1,3.932,3.932,0,0,1,.6-.2Zm-2.8,2a2.485,2.485,0,0,0-.8.1c-1.3.5-1.8-.4-2.2-1.4-.4-1.2.6-1.4,1.3-1.8,1.5-.9,3-1.8,4.4-2.8,1.7-1.2,2.6-6.3,3-6.9.6-.9,1.3-.8,1.8.1a14.272,14.272,0,0,1,.8,2.2,2.633,2.633,0,0,0,2.9,2c1.3-.1,2.5-.4,3.8-.5.9-.1,1.7,0,2.1,1a1.621,1.621,0,0,1-.8,2.1c-1.3.9-2.6,1.9-4,2.8-.8.5-.9,1.1-.6,2.1a29.112,29.112,0,0,1,1.2,5.1c.1.7-.4.9-1,.6a13.554,13.554,0,0,1-2.1-1c-2.4-1.5-3.1-1.4-5.2,1.2a5.383,5.383,0,0,1-.9,1.2,1.305,1.305,0,0,1-1.3.3c-.3-.1-.5-.8-.5-1.2,0-1,.2-2,.3-3,.1-1.7-.2-2.1-2.2-2.2Z" fill="#181715" fill-rule="evenodd"/>
    <path id="Path_600" data-name="Path 600" d="M172,268c0,1.3-.6,1.6-1.4,1.4a7.52,7.52,0,0,1-2.1-1.2c-1.2-.8-2.4-1.5-3.6-2.3-.5-.3-1.1-.5-1.3-.9a1.932,1.932,0,0,1-.1-1.8,2.026,2.026,0,0,1,1.6-.6,13.749,13.749,0,0,1,6.6,4.5A2.944,2.944,0,0,1,172,268Z" fill="#181715" fill-rule="evenodd"/>
    <path id="Path_601" data-name="Path 601" d="M147.7,253.9c1.2.5,2.4.9,3.6,1.5a27.548,27.548,0,0,1,2.9,1.7,1.64,1.64,0,0,1,.7,1.1,2.452,2.452,0,0,1-.6,1.6,1.41,1.41,0,0,1-1.4.1,58.588,58.588,0,0,1-5.5-3,3.232,3.232,0,0,1-1.2-1.4c-.1-.3.5-.9.9-1.3.2-.2.5-.2.6-.3Z" fill="#181715" fill-rule="evenodd"/>
    <path id="Path_602" data-name="Path 602" d="M270.1,253.9a9.878,9.878,0,0,1,.9-1.5c1-1.4,2-2.9,3.1-4.2a7.19,7.19,0,0,1,2.1-1.8c.4-.2,1.6,1.1,1.5,1.6a4.348,4.348,0,0,1-.4.7c-1.6,2-3.1,4-4.7,5.9a1.746,1.746,0,0,1-1.4.7C270.8,255.1,270.5,254.4,270.1,253.9Z" fill="#181715" fill-rule="evenodd"/>
    <path id="Path_603" data-name="Path 603" d="M311.6,221.2c-2,.1-3.5,1.3-5.1,2.3-.2.1-.5.4-.7.4-.5,0-1.2.2-1.4-.1-.3-.3-.4-1.2-.1-1.4a8.632,8.632,0,0,1,2.8-2.6,15.211,15.211,0,0,1,4.3-1.2c1.1-.4.8,2.5.2,2.6Z" fill="#181715" fill-rule="evenodd"/>
    <path id="Path_604" data-name="Path 604" d="M133.5,249.8c2,.6,4.1,1.1,6.1,1.7.4.1,1,.1.9,1.2s-.9.7-1.4.9c-.2.1-.5,0-.8,0-1.7-.2-3.4-.4-5.1-.7-1.7-.2-2.2-.6-2-1.7C131.2,250.2,131.6,250,133.5,249.8Z" fill="#181715" fill-rule="evenodd"/>
    <path id="Path_605" data-name="Path 605" d="M184.1,282.1a4.284,4.284,0,0,1-.5,1.3,1.066,1.066,0,0,1-2-.3,16.352,16.352,0,0,0-2.6-5.5,1.3,1.3,0,0,1,.3-1.9c.4-.2,1.4-.2,1.6.1a58.929,58.929,0,0,1,3.2,5.4Z" fill="#181715" fill-rule="evenodd"/>
    <path id="Path_606" data-name="Path 606" d="M293.6,233c-.2.2-.5.7-.9.9a8.188,8.188,0,0,0-4.1,3.9c-.4.6-.6,1.4-1.6.9-.9-.4-1-1.2-.5-2.2,1.2-2.1,2.6-4.1,5.1-4.9,1.1-.5,1.9,0,2,1.4Z" fill="#181715" fill-rule="evenodd"/>
    <path id="Path_607" data-name="Path 607" d="M327.7,214.6c-1.3.5-2.6.9-3.9,1.3a17.985,17.985,0,0,1-2.2.6c-.4.1-1.2,0-1.3-.2a1.962,1.962,0,0,1,.1-1.5,1.5,1.5,0,0,1,1-.9l6.6-1.5c.2,0,.2,2-.3,2.2Z" fill="#181715" fill-rule="evenodd"/>
    <path id="Path_608" data-name="Path 608" d="M545.6,360.4a24.317,24.317,0,0,1-2.7,0,3.63,3.63,0,0,1-1.7-.7c-.7-.6-.5-1.3.4-1.5a26.2,26.2,0,0,1,2.8-.1c1.1,0,2.1-.1,2.2-1.6,1-2.1,1.5-1.2,1.8.1.5,1.3,1,3.6-2.8,3.8Z" fill="#181715" fill-rule="evenodd"/>
    <path id="Path_609" data-name="Path 609" d="M545.4,340.7c1.2-.7,1.9.7,1.8,1.5a2.258,2.258,0,0,1-1.3,1.4,1.158,1.158,0,0,1-1.4-1.4C544.6,341.6,544.2,341.4,545.4,340.7Z" fill="#181715" fill-rule="evenodd"/>
    <path id="Path_610" data-name="Path 610" d="M530.7,334.6c0,1.4-1.4,1.3-1.9,1.4a1.123,1.123,0,0,1-1.3-1.4c.1-.6.7-1.4,1.2-1.4C529.7,333,530.7,333.2,530.7,334.6Z" fill="#181715" fill-rule="evenodd"/>
    <path id="Path_611" data-name="Path 611" d="M624.8,353.8c-.2,1.5.4,2,2.7,2.8,1.6.6,3.2.9,4.7,1.5a2.841,2.841,0,0,1,1.5,1,2.263,2.263,0,0,1-.1,1.8c-.4.7-1,.3-1.7.1-1.8-.7-3.7-1.2-5.5-1.8-1.3-.4-2.5-1-3.7-1.5-1.1-.4-1.2-1.2-.8-2.2a26.725,26.725,0,0,0,.9-2.6c.2-.8.6-1.3,1.4-1,.6.2.8.4.6,1.9Z" fill="#181715" fill-rule="evenodd"/>
    <path id="Path_612" data-name="Path 612" d="M631.3,344.7c-.2,1.4-1.1,1.3-1.7,1.3-1,.1-1.3-.9-1.3-1.7,0-.9.6-1.6,1.4-1.5.6.2,1.8.4,1.6,1.9Z" fill="#181715" fill-rule="evenodd"/>
    <path id="Path_613" data-name="Path 613" d="M644,343.7a1.694,1.694,0,0,1-1.6,1.5c-1.4,0-1.6-2.3,0-2.8A1.269,1.269,0,0,1,644,343.7Z" fill="#181715" fill-rule="evenodd"/>
    <path id="Path_614" data-name="Path 614" d="M191.7,339h-.4c-.2.4-.5.7-.4,1.1s.5.6.7,1c.2-.3.6-.6.5-.8a2.836,2.836,0,0,0-.4-1.3Zm3,1.2a4.331,4.331,0,0,1-2,3.6c-2.1,1.6-3.8-.6-4.2-2.7a4.281,4.281,0,0,1,3.1-4.8,1.324,1.324,0,0,1,1.8.7,17.88,17.88,0,0,1,1.3,3.2Z" fill="#181715" fill-rule="evenodd"/>
    <path id="Path_615" data-name="Path 615" d="M203.8,318.4c-.2-.2-1-.6-.9-.9.1-.7.5-1.7,1-1.9a29.111,29.111,0,0,1,5-1.6,1.965,1.965,0,0,1,1.7.9,1.769,1.769,0,0,1-.8,1.7c-1.7.7-3.4,1.1-5.2,1.7a1.719,1.719,0,0,1-.8.1Z" fill="#181715" fill-rule="evenodd"/>
    <path id="Path_616" data-name="Path 616" d="M178.8,323.1c0-1.2.7-1.6,1.7-1.7a1.62,1.62,0,0,1,1.8,1.5,1.791,1.791,0,0,1-2,1.8c-1.3.2-1.3-.8-1.5-1.6Z" fill="#181715" fill-rule="evenodd"/>
    <path id="Path_617" data-name="Path 617" d="M394.5,363.2a1.087,1.087,0,0,1,.1-.5c.6-1.5,1.3-3,1.9-4.5.3-.6.7-1.3,1.5-.8.6.4,1.4.8.9,1.8-1.8,3.5-.6,3.6,2.9,5.2,1.1.5,2.2.8,3.2,1.2a1.719,1.719,0,0,1,1,2.1c-.2.8-.7,1.3-1.6.9-.5-.2-1-.5-1.5-.7-2.2-.8-4.5-1.6-6.7-2.4a2.677,2.677,0,0,1-1.7-2.3Z" fill="#181715" fill-rule="evenodd"/>
    <path id="Path_618" data-name="Path 618" d="M402.7,343.7c.6.3,1.6.3,1.5,1.5-.1,1.3-1,2.3-2,2.2a2.033,2.033,0,0,1-1.7-1.9,1.961,1.961,0,0,1,2.2-1.8Z" fill="#181715" fill-rule="evenodd"/>
    <path id="Path_619" data-name="Path 619" d="M417.1,344.7c.1-.9.1-2,1.4-2.1a2.022,2.022,0,0,1,1.8,1.8,2.079,2.079,0,0,1-1.8,2.1C417.3,346.5,417,345.7,417.1,344.7Z" fill="#181715" fill-rule="evenodd"/>
    <path id="Path_620" data-name="Path 620" d="M753.7,321.6c.1,1.2-.9,1.4-1.3,1.6-.7.2-1.7-.9-1.5-1.8a1.209,1.209,0,0,1,1-1.2A1.41,1.41,0,0,1,753.7,321.6Z" fill="#181715" fill-rule="evenodd"/>
    <path id="Path_621" data-name="Path 621" d="M735.8,322.9c-.1,1-1.2,1.2-1.7,1.3-.4,0-.7-.2-1.1-1.1a1.43,1.43,0,1,1,2.8-.2Z" fill="#181715" fill-rule="evenodd"/>
    <path id="Path_622" data-name="Path 622" d="M111,257.6c-.6-1.4-1.2-2.6-1.7-3.9-.4-1.1-.9-1.2-1.8-.8-3.6,1.8-7.3,3.4-10.9,5.3a38.185,38.185,0,0,0-4.7,3.1c-.6.4-1.1.9-.6,1.7,1.2,1.7,2.4,3.4,3.7,5.1.5.7,1.2.8,2,.1,3.2-3.2,7.2-5.3,11-7.7a12.418,12.418,0,0,0,2.3-1.7A6.347,6.347,0,0,0,111,257.6Zm3.4,1c-.3.3-.6.8-1.1,1-2.9,1.9-5.9,3.7-8.8,5.6-2.4,1.6-4.8,3.4-7.1,5.2-1.8,1.4-2.7,1.4-4.1-.3-1.9-2.2-3.7-4.5-5.6-6.7-.6-.7-.7-1.3.1-1.9,2.5-1.9,4.9-3.9,7.6-5.7a62.727,62.727,0,0,1,5.8-2.9c2.4-1.2,4.8-2.5,7.2-3.8.8-.4,1.5-.4,1.9.5,1.3,2.7,2.6,5.4,3.8,8.1a9.441,9.441,0,0,1,.3.9Z" fill="#181715" fill-rule="evenodd"/>
    <path id="Path_623" data-name="Path 623" d="M345.6,211.3c-.3,0-.3,2.9,0,3,.9.3,11.5,1.8,13.4,1.8.5,0,1.6-2.7,1.2-2.8C357.1,212.8,346.6,211.3,345.6,211.3Zm-2.2,1.9v-.3c0-3.2-.5-3.6,3.7-3.2,2.7.3,5.5.2,8.2.5,2.5.3,4.9.9,7.3,1.4.8.1,1.1.5.9,1.3-.4,1.7-.7,3.5-1.2,5.1a1.441,1.441,0,0,1-1.3.8c-2.8-.4-5.6-.8-8.4-1.3-2.5-.4-4.9-.8-7.4-1.2-2-.3-2-.3-1.9-2.4a1.7,1.7,0,0,0,.1-.7Z" fill="#181715" fill-rule="evenodd"/>
    <path id="Path_624" data-name="Path 624" d="M257.7,351.2c-2.3,1.4-12.9,5.2-15.7,6.4-2.7,1.1-5.4,2.4-8,3.6-1.3.6-1.6.6-1.8-.9-.3-3.1-.6-6.2-.8-9.3-.2-2.4-.4-38.8-.7-43.3a31.089,31.089,0,0,0-.6-4.4,2.368,2.368,0,0,1,1.1-2.7,13.243,13.243,0,0,1,2-1.2c3.2-1.6,6.4-3.1,9.5-4.7,2.6-1.3,5-2.8,7.6-4.1,7-3.8,13.7-8.2,21.1-11.3,3-1.3,5.9-2.6,8.8-3.9,1.2-.5,1.4-.5,1.4,1,0,3.4-.1,10.3-.2,10.3v9.5a21.114,21.114,0,0,0,.2,2.6c.1,3.7.3,7.3.3,11q.15,9.3.3,18.6c0,3,0,6,.1,8.9a2.712,2.712,0,0,1-1.7,2.6c-3.8,1.8-7.6,3.7-11.4,5.6a94.584,94.584,0,0,0-11.5,5.7Zm-28.2,7.2c.1,1.5,0,3,0,4.5,0,.7-.3,1.3-1.2,1.1-1.5-.4-3.1-.6-4.6-1.1a1.482,1.482,0,0,1-.8-1.2c-.5-4-.9-8-1.3-12a13.564,13.564,0,0,1,2.1-9.7c.3-.5.5-.7,1.3-1.9.8-1.3,1.4-4.8-.4-4.9s-1.5,2.8-2.2,4.3c-.2.5-.7.8-1,1.2a8.33,8.33,0,0,1-.4-1.5c.1-3.3.3-6.5.3-9.8,0-5-.3-10-.4-14.9,0-2.2.2-4.4.3-6.6v-3.8c0-.7.2-1.3,1.1-1,1.6.4,3.4.1,4.5,1.6.3.4.8.8.8,1.3Zm-10.8-57.2c.2,4-.4,8.1-.5,12.1,0,5,.2,10,.2,15,0,2.3-.2,6.9-.3,9.2-.1,2-12.6-2.6-12.9-2.9-1-.8-2.1-1.6-3.1-2.5-.8-.7-1.5-.8-2.2,0a1.469,1.469,0,0,0,.3,2.3,19.5,19.5,0,0,0,3.9,2.7c3.5,1.6,14.1,4.4,14.1,4.4s-1.6,4.4-1.2,4.1c.5-.3-3.8,2.2-5.7,3.3-2.3,1.3-4.5,2.7-6.9,4-2.7,1.4-5.6,2.7-8.3,4.1-1.8.9-3.6,1.9-5.4,2.9-2.4,1.3-4.8,2.7-7.2,4.1-.7.4-1.6.5-2.3.9a83.6,83.6,0,0,0-7.9,4c-2.1,1.3-3.6.4-5.1-.8a80.43,80.43,0,0,1-7-6.1,21.77,21.77,0,0,1-5-6.7,3.079,3.079,0,0,1,0-1.9c2.7-8.3,5.5-16.5,8.1-24.8a92.054,92.054,0,0,0,2.2-9.4,5.174,5.174,0,0,1,3.3-4c2.7-1.1,5.3-2.6,8-3.8,2.6-1.1,5.3-2,7.9-3,4.5-1.7,9-3.5,13.5-5.2,2.6-1,5.3-1.7,7.9-2.5.8-.3,1.5-.7,2.3-1,1.3-.6,2.5-1.1,3.8-1.7l5.4-2.1c2.2-.8,4.3-1.7,6.5-2.5a4.818,4.818,0,0,1,1.2,0c-.2.3-.4.8-.8,1a23.7,23.7,0,0,1-3.5,1.9C220.2,297.4,218.6,298.4,218.7,301.2Zm-51.4,70.3c-2.6,1.1-5.1,2.3-7.7,3.3-4.3,1.7-8.7,3.2-13.1,4.8a2.768,2.768,0,0,1-.9.1,2.483,2.483,0,0,1,.1-.9c.9-1.8,1.8-3.6,2.7-5.5.8-1.7,1.6-3.4,2.3-5.1l3.6-8.7c.3-.8.7-.7,1.2-.1a71.437,71.437,0,0,0,10.9,10.4c.5.4.8.9,1.3,1.3-.2.1-.2.3-.4.4Zm-23.8,5.9c-.2.4-.9.5-1.1.6-3-.4-6.4-3.1-5.1-6.4,2.1-5,3.9-10.1,5.9-15.1l6.6-16.5c2.2-5.4,4.4-10.9,6.9-16.2,1.9-3.9,4.3-7.6,6.3-11.5.6-1.1,1.2-1,1.9-.2a2.767,2.767,0,0,1,.7,3.2,23.877,23.877,0,0,0-1.5,3.7c-1.7,6.4-2.9,12.8-5.3,19-1,2.5-1.9,5-2.8,7.5-.5,1.6-.8,3.2-1.2,4.8a3.881,3.881,0,0,1-.6,1.1,6.469,6.469,0,0,1-.8-.9,8.272,8.272,0,0,1-.9-1.6c-.3-.9-.9-1.4-1.8-1a1.424,1.424,0,0,0-.6,2.1,18.184,18.184,0,0,0,1.6,3.1c1.9,2.3,1.2,4.6.1,6.9-1.8,3.9-3.5,7.9-5.3,11.8-1,1.9-1.9,3.8-3,5.6Zm24-68.5c6.7-2.9,13.4-5.7,19.9-8.8,6.1-2.9,12.5-5.1,18.7-7.7,4.1-1.7,8.4-2.9,12.5-4.5a9.438,9.438,0,0,0,2.8-1.5,2.28,2.28,0,0,1,2.5-.1c1.4.5,2.8,1.1,4.1,1.6l1.2.6c.2.1.3.3.5.4-.2.1-.3.3-.5.4a45.929,45.929,0,0,1-4.9,2.6,53.142,53.142,0,0,1-5.6,2c-5.4,1.9-10.9,3.6-16.3,5.6s-10.7,4.1-16,6.2c-5.3,2-10.5,4-15.8,6a8.108,8.108,0,0,1-1.1.3,12.034,12.034,0,0,1-2.3-1.1c-1.3-.7-1.2-1.4.3-2ZM229,298.3h-4.6a2.118,2.118,0,0,1-.7-.3c.2-.1.3-.3.5-.4,2.1-1.3,4.2-2.5,6.2-3.8.5-.3,1-.5,1.4-.8a186.122,186.122,0,0,1,32.9-17.7c2.8-1.2,5.5-2.5,8.3-3.7a9.675,9.675,0,0,1,7.1.1l.6.3-.6.3c-3.8,1.8-7.5,3.5-11.3,5.3-3.5,1.7-7,3.6-10.4,5.5-3.4,1.8-6.8,3.7-10.1,5.7-2.4,1.4-4.7,2.9-7.1,4.2-2.7,1.4-5.5,2.5-8.3,3.8m59.4,66.5c-.7-1.3-1.3-2.6-2-3.8a5.026,5.026,0,0,0-.8-1.2c-.6-.7-1.2-.9-1.9-.1-.7.7-11.3,5.8-15.6,7.9-2.2,1.1-2.7.9-2.9-1.6v-.2c-.5-4.7-.9-9.4-1.5-14-.2-1.3.4-1.8,1.4-2.2,1.2-.5,2.5-1,3.7-1.5,3.3-1.5,6.5-3.1,9.8-4.5,2-.8,2.7-1.8,2.4-4a5.652,5.652,0,0,1,0-1.3c0-3.6-.1-7.2-.1-10.8-.1-5.6-.5-49.7-.4-53h.1c0-.6-.1-1.1-.1-1.7a1.244,1.244,0,0,0-1.1-1.4c-2.5-.7-5.1-1.6-7.6-2.3a2.966,2.966,0,0,0-1.6.2l-6.3,3.3c-3,1.5-6,3.1-9.1,4.5-4,1.9-8.2,3.6-12.1,5.7-3.9,2-7.7,4.4-11.5,6.6a2.042,2.042,0,0,1-.9.2c-.9-1.9-2.8-2-4.5-2.4a19.019,19.019,0,0,1-4.8-1.4,3.629,3.629,0,0,0-4,0,119.585,119.585,0,0,1-12.8,5.4c-5.5,1.9-10.9,4.2-16.3,6.4-4.2,1.7-8.4,3.6-12.6,5.3-4.7,2-9.5,3.7-14.1,5.8a8.235,8.235,0,0,0-4.7,5.4,16.672,16.672,0,0,1-.8,2c-2,3.7-4.2,7.2-5.9,11-2.9,6.5-5.5,13.1-8.2,19.6-1.1,2.5-2.2,5.1-3.2,7.6-1.9,4.6-3.7,9.3-5.5,13.9-1,2.4-1.9,4.8-2.7,7.3a2.245,2.245,0,0,0,1,2.7c2.1,1.6,4,3.5,6.2,5,1.1.7,2.7,1.5,3.8,1.2a60.554,60.554,0,0,0,9.1-3c2.6-1,5.1-2.2,7.6-3.3l.9-.3a5.582,5.582,0,0,1-.5.8c-2.4,3.1-5,6.2-7.3,9.4a14.222,14.222,0,0,1-4,4.1,1.74,1.74,0,0,0-.6,2.7c1.7,2.7,3.3,5.5,4.9,8.3a58.587,58.587,0,0,1,2.6,5.7,1.508,1.508,0,0,0,2,.9c.2,0,.3-1.2.1-1.7-.8-2.2-1.7-4.3-2.7-6.4s-2.1-4.1-3.3-6.2a2.466,2.466,0,0,1,.4-3.2c2.1-2.5,4-5.2,6-7.7,2.2-2.8,4.3-5.6,6.6-8.4a4.475,4.475,0,0,1,5.2-1.2c1.8.8,3.5,1.6,5.3,2.4a9.173,9.173,0,0,1,2.1,1.3,1.549,1.549,0,0,0,2.1.1,1.932,1.932,0,0,0,.7-1.5,2.731,2.731,0,0,0-1.4-1.4c-1.9-.9-3.8-1.7-5.7-2.5-1-.4-.6-.9,0-1.2,2.9-1.4,5.9-2.9,8.8-4.2.3-.1.9,0,1,.2a56.3,56.3,0,0,1,3.6,7.9,86.346,86.346,0,0,0,6.2,14.7,30.5,30.5,0,0,1,1.9,4.1c.5,1.7,1,2.2,2.8,2.4,3.2.2,6.4.4,9.6.7,1.2.1,1.9-.4,1.9-1.4.1-1.3-.9-1.3-1.7-1.3-1.4-.1-2.8,0-4.1-.1-3.1-.3-6.5-.5-7.5-4.4,0-.1-.1-.2-.2-.3-1.4-3-3.4-5.5-4.4-8.7-1.6-4.7-3.6-9.3-5.4-13.9-.4-1-.3-1.6.6-2.1,2.5-1.3,4.9-2.5,7.4-3.8,4.1-2.1,8.3-4.2,12.4-6.4,2.5-1.3,4.9-2.6,7.3-3.9a1.949,1.949,0,0,1,.8-.1,1.7,1.7,0,0,1-.1.7c-.7,2-1.4,4.1-2.3,6.1-1.4,3-2.8,5.9-4.4,8.8-.8,1.5-1.9,2.7-2.7,4.2a3.3,3.3,0,0,0-.1,2.2c.1.3.9.5,1.4.5,1,.1,1.1-.7,1.4-1.4l1.8-3.9c1.7-3.5,3.4-7,5-10.5.9-2,1.6-4,2.4-6,.1-.3.4-.5.6-.7.1.3.3.5.3.8.5,4.3,1,8.6,1.4,12.9.2,1.7.3,1.9,1.9,2.1,2.7.4,5.3.9,8,1.3.5.1,4.5-3.4,6.3-4.5.1-.1.2-.1.3-.2a79,79,0,0,1,9.7-4.7c1.1-.5,1.8-.1,1.8,1.2-.1,1.7-.2,3.4-.4,5.1-.6,4.9-1.3,9.9-1.9,14.8-.5,4.3-.5,4.3-4.7,3.4a5.018,5.018,0,0,0-2.4-.2,2.732,2.732,0,0,0-1.1,1.6c-.1.2.8.8,1.2.9,2.5.4,5,.5,7.4.9,1.3.2,1.7-.2,1.8-1.6.3-4.6.8-9.3,1.3-13.9.4-3.5.8-7,1.2-10.6.1-.9,0-2.1.5-2.7.4-.6,1.6-.5,2.4-.8.2,0,.3-.1.5-.2a36.982,36.982,0,0,0,10.3-5.2c.6-.5.8-.1.8.4.1.8,0,1.5.1,2.3l1.2,9.9c.3,2.3.4,4.5.7,6.8.1.7,1.3.9,3,.8s13.7-8,15.8-8.9c1.7-.7,2.2-.6,3,1.1.3.5.5,1.1.8,1.7a1.817,1.817,0,0,0,2.3,1.3,3.635,3.635,0,0,0-.4-2.5Z" fill="#181715" fill-rule="evenodd"/>
  </g>
</svg>
