<svg id="faq" xmlns="http://www.w3.org/2000/svg" width="514.262" height="359.263" viewBox="0 0 514.262 359.263">
  <path id="Path_625" data-name="Path 625" d="M251.7,187.1l11.7,1.4,1.5,15.8,24.3-16,31.7,2.5,1.4-63-72.5,3.4Z" transform="translate(-154.238 -81.58)" fill="#7bc290" fill-rule="evenodd"/>
  <path id="Path_626" data-name="Path 626" d="M418.1,180.7l2.2,48.6,12.5,2.4,1.8,8.8,16.5-12.2,35.2-3.4L483,182Z" transform="translate(-154.238 -81.58)" fill="#75c5bf" fill-rule="evenodd"/>
  <path id="Path_627" data-name="Path 627" d="M376.9,130.8l26.3-1.4.9,24.1,25.9.4-.7,21.4-10.6,2.4.1,10.3-11.4,1.2-14.7,10.9-.6-10.7-17.4,2.1,2.3-62.3" transform="translate(-154.238 -81.58)" fill="#75c5bf" fill-rule="evenodd"/>
  <path id="Path_628" data-name="Path 628" d="M405.5,84.6l-1,63.2,35.7,2.9,10,8.9,2.8-11.3,15.2-3.5,4.3-60.2Z" transform="translate(-154.238 -81.58)" fill="#75c5bf" fill-rule="evenodd"/>
  <path id="Path_629" data-name="Path 629" d="M524.5,207.1l55.7-2.5,3.3,50.5-5.6-.5-4.2,18-15-15-32.8,3.5Z" transform="translate(-154.238 -81.58)" fill="#f0e400" fill-rule="evenodd"/>
  <path id="Path_630" data-name="Path 630" d="M580.5,134.1l1,64,5,1,1,10,9,1,1.5,16.5,12-14,58.5-4.5-.5-75.5Z" transform="translate(-154.238 -81.58)" fill="#f0e400" fill-rule="evenodd"/>
  <path id="Path_631" data-name="Path 631" d="M346.8,334.6c0-.1-.2-.3-.3-.4a1.438,1.438,0,0,0-.3.2c-.1.1-.1.2-.2.3-3.6,6.9-5.8,14.1-5.4,21.9.1,1.4.3,2.9.3,4.3,0,1-.4,1.6-1.1,1.8a1.175,1.175,0,0,1-1.7-.8,12.7,12.7,0,0,1-.5-3.4c0-7.8.9-15.8,4.3-22.8,1-2.2,4.8-8.1,4.7-9.3-.1-3.7-2.9-48.4-2.2-49.1.4-.4.7-.8,1.1-1.2.5-.4,6-1.6,8.2-1.9,4.3-.6,22-1.9,26.5-2.3,5-.4,39.5-2.5,40.7-2.5,2.2-.1,15.8-.4,20.5-.6,2.6-.1,5.3-.3,7.9-.4a3.518,3.518,0,0,1,3.3,1.5,12.673,12.673,0,0,0,4.4,3.9,2.826,2.826,0,0,1,1.5,3.2c-.2,1-.1,44.8-.3,46.5a3.943,3.943,0,0,0,1.3,3.7c2.5,2.6,10.6,9.1,11.8,10,1.9,1.4,3.4,3.4,5.7,3.5.7,0,12.1-6.9,13.7-8a2.994,2.994,0,0,1,1-.4,2.15,2.15,0,0,1,2.8,1.3.883.883,0,0,1-.5,1.2,52.35,52.35,0,0,1-5.1,3,45.189,45.189,0,0,0-9.9,5.4l-.1.1c-1.9,1.1-2.8,2-5.2-.5-.5-.5-10-7.7-14.1-11.1-.4-.3-.8-.5-1.2-.8a8.33,8.33,0,0,0-.4,1.5c-.2,3.2,1,28.6,1.3,34.7.1,1.3.6,6.9.7,8.4.1,1.2,0,2.4,0,3.6,0,1.5-.2,1.8-1.7,1.9-.8.1-31.2,1.2-35.9,1.9-1.5.2-1.7.4-1.7,2-.1,4.8-.5,19.9-.6,21-.2,2.1,1.1,3.6,2.8,4.9a14.882,14.882,0,0,1,2.2,2.1c.4.5,1,1.1.5,1.7a2.15,2.15,0,0,1-2.3.3c-.1-.1-.3-.2-.4-.3-1.7-1.4-3.4-2.9-5.1-4.3a2.517,2.517,0,0,1-.9-2.8c.9-3.9,1.3-21.9,1.3-22.4,0-1.3-.1-1.4-1.3-1.4-.7,0-22.5,2.3-24.3,2.5-1.2.2-1.5.4-1.6,1.5-.4,3.6-1,13-1.2,14.1a4.878,4.878,0,0,0,1.1,4.2c1.2,1.4,7.2,6.7,7.4,7.2a1.374,1.374,0,0,1-1.3,2.1,2.647,2.647,0,0,1-1.9-.9c-1.4-1.4-6.3-6.3-7.6-7a4.314,4.314,0,0,1-1.7-1.6c-.5-.8-.1-1.4.5-3.3s1.5-10.1,1.8-14.1a2.719,2.719,0,0,0,0-.9.736.736,0,0,0-.8-.8c-.7,0-24.4,2.1-25.6,2.2a6.211,6.211,0,0,1-6.1-3.4c-1-1.7-6.9-8.3-7-10.1l-.3-6.6c-.2-5.2-1.4-33.7-1.5-34.2Zm108.5-54.8c0-1.3-.1-1.5-1.4-1.5-2.8,0-5.5.1-8.3.2-3.1.1-6.1.4-9.2.4-10.1.1-20.2.2-30.2.8-3.5.2-29,2.4-33.2,2.7-2.6.2-13.7,1.1-16.6,1.4-1.3.1-1.4.4-1.4,1.8,0,4.7.3,19.3.4,21.8.3,5.7,2.8,68,3.2,74.4a7.613,7.613,0,0,0,.3,2.1c.2,1.1.8,2.3,1.9,2.1,2.5.8,26.6-2,29.5-2.4,1.3-.2,20-2.2,23.1-2.5h.1c3.5-.4,25-1.9,30.5-2.2,2-.1,9.7-1.2,11.3-1,1.2.1,1.4-.1,1.4-1.4-.1-1.1-.3-2.1-.3-3.2-.1-4.3-1.3-33.9-1.4-37.2,0-3.7.1-7.3.2-11,.1-1.4.1-42.6.1-45.3ZM353.6,281c.7,0,1.3-.1,2-.1,3.9-.3,27.7-2.1,32.3-2.4,2.4-.2,14.8-1.1,18.7-1.4,4.1-.2,25.4-.8,31.8-1.1,4.1-.1,8.3-.3,12.4-.5a11.273,11.273,0,0,0,1.8-.3c.1,0,.2-.5.1-.5a40.314,40.314,0,0,0-3.2-2.6,1.637,1.637,0,0,0-1.2-.2c-1.3.4-7.3,0-9,0-1.5,0-20.6.4-28.6.6-2.7.1-13.8,1.1-16.7,1.3-4.9.3-9.8.6-14.7.8-2.6.1-15.8,1.1-19.9,1.4a52.583,52.583,0,0,0-7.8,1.2l-2.1.6c-.6.2-.6.5-.2.9,1.2,1.4,2.3,2.7,4.3,2.3Zm-1,6.5c0-1.2-3-4.4-3.8-5.2-.3-.3-1.5-1-1.5-.6,0,.3.3,7.8.6,11.3.6,9.6,1,29.9,1.1,30.4a3.811,3.811,0,0,0,.3,1c.3-.2.9-1.7,2.2-1.3,1.4.5,1.2,2.4.6,3.1-.5.5-1,1-1.6,1.5a4.306,4.306,0,0,0-1.4,4c.3,2.6.7,16.7.9,21.2.1,2.5,1.5,16.3,1.5,20.8a6.966,6.966,0,0,0,2,4.9c.5.5,1.5,1.7,2.4,1.7.1-.7-1.9-50.3-2.1-58.1-.4-7.3-1.2-30.5-1.2-34.7Z" transform="translate(-154.238 -81.58)" fill-rule="evenodd"/>
  <path id="Path_632" data-name="Path 632" d="M473.4,143.8c-.1,1.3,0,2.6-1,3.5-.3.3-13.8,2-14.2,2.1-1.2.3-1.5.6-1.6,1.8-.1,2-1,9.1-2.3,10a1.352,1.352,0,0,1-1.7.1c-2.5-1.9-9.7-7.8-10.9-8.7-.6-.5-6.5-1-8.6-1.1-1.2-.1-1.4.1-1.4,1.2-.1,4.1-.5,18.2-.6,21.2,0,1.2,0,1.2,1.2,1.2,7.9-.1,29.2-1,32-1.1,3.4-.2,6.8-.2,10.1-.4h.3c3.5-.1,11.7-.5,12.2-.4,1.7.1,1.9.4,1.9,2.1,0,1.3,0,2.6-.1,4-.1,5.5.4,47,.3,48.7-.1,1.5-.2,1.6-1.7,1.7-1.6.1-15.6.7-21,1.3-3.5.3-6.9.8-10.4.9a13.366,13.366,0,0,0-9.4,4.3c-1.4,1.4-2.9,2.9-4.3,4.4-2.1,2.3-7,8-7.6,8.3a1.3,1.3,0,0,1-2-.8c-.3-.7-1.6-9.8-1.9-11.3a6.606,6.606,0,0,0-.5-1.5,2.6,2.6,0,0,0-2.4-1.6c-1,0-6.7.6-8.6.2-1.4-.3-1.7-.5-1.7-2-.1-2.7-.2-5.4-.2-8.1V211.4s-.2-13.3-.4-20c0-1.7.1-2.4-2.1-2-.9.2-5.5.9-8.2,1.1-1.2.1-2.7,2.9-7.6,5.9a72.592,72.592,0,0,1-9.4,4.9c-.7-.1-.8-.7-.9-1.2-.2-1.2-.5-4.3-.5-4.6-.4-3.5-.5-3.4-3.9-3.9-3-.4-12.1.7-13.6.8-.9.1-1-.1-1.1-1-.1-2.7,1.5-56.1,1.8-58.2.1-.7.2-3.4.7-4,.4-.6,29.4-1.4,30.1-1.5,1.4-.1,1.5-.2,1.6-1.6,0-.7.1-1.3.1-2,.1-3.5-.6-36.5-.1-40a2.456,2.456,0,0,1,1.9-2.1,6.15,6.15,0,0,1,1.4-.1c3,0,6.1-.1,9.1-.1,4.7,0,36.5-.3,39.1-.2,2.3,0,18.6.6,20.6.7,1.1,0,1.4.2,1.5,1.4a51.855,51.855,0,0,1,.1,5.6ZM407.5,84.5c-1,.1-1.2.4-1.4,1.4a19.7,19.7,0,0,0-.4,3.4c0,3.1.1,55.8.2,57.7.1,1.4.1,1.5,1.6,1.6,1.8.2,33.1,1,34.7,1.1a2.1,2.1,0,0,1,1.1.4c1.2,1.1,6.8,6.2,8.4,7.6,1.4,1.2,1.5,1.1,2-.6.1-.3.1-8,.1-8.4,0-1.2.4-2.1,2.4-2.3s10.2-.3,13.1-1.3a2.019,2.019,0,0,0,1.5-1.8c.1-1.1,3.7-45.5,4.1-49.9a38.725,38.725,0,0,0,0-5.9c0-.5.6-2.6.2-2.7-1.4-.6-66.3-.5-67.6-.3Zm78.2,115.7c0-.7.3-14.8.4-21.2,0-1.5-.5-2.1-2-2.2H483c-3.8,0-29.7,1-33.4,1.1-4.3.1-17.2.5-19.4.4-3.2-.1-6.3-.4-9.5-.7-1.4-.1-1.7,0-1.6,1.4.1,3,.8,33.9.8,36.3.1,4.9.2,9.7.3,14.6v.5c.1.7,8.1.1,9.9-.3,1.5-.3,3.8,9.7,4.5,13,.2,1,.5,1.1,1.3.4,2.7-2.7,12.1-12.5,13.3-13.6a2.133,2.133,0,0,1,2-.6c.9.1,28.2-1.7,32.3-1.8h1.1c1.3-.2,1.8-.6,1.8-2-.2-1.5-.8-25.3-.7-25.3Zm-107-68.9c-1.1.1-2.1.3-3.2.4-.6.1-1,.3-1.1,1-.3,2-.9,10.9-1.1,13.4-.3,5.3-1.4,38.6-1.5,41.4-.1,2.3-.3,3.1,2.7,2.6,4.5-.7,9.1-.4,13.6-.8,1.8-.2,2.2.6,2.2,2.4a45.537,45.537,0,0,0,.4,5.3c.1.8.3.9,1.1.5,2.7-1.3,11.2-6.8,12.5-8.4.8-.9,10.5-1.5,11.3-1.6a.9.9,0,0,0,1-1c-.1-3-.1-6-.3-9-.1-1.7,0-2.1,1.6-2.3a20.518,20.518,0,0,1,7-.2,12.213,12.213,0,0,0,2.7.1c1.1,0,1.3-.2,1.2-1.3,0-1,0-9.9.1-13.3.1-2.5.2-4.9.3-7.4,0-1.5-.1-1.6-1.7-1.7h-4.1c-2.3,0-8.4.2-9.3.1-2.1-.2-7.8-.4-8.6-.3-1.7.1-2-.1-2.3-1.7-.2-1,0-8.9,0-11.8.1-2.3,0-4.6,0-6.8.2-.9-19.6-.1-24.5.4Z" transform="translate(-154.238 -81.58)" fill-rule="evenodd"/>
  <path id="Path_633" data-name="Path 633" d="M630.1,348.6c0,2.8-.1,15.2-.1,18.7,0,6-.5,43-.4,43.8a2.224,2.224,0,0,1-1.9,2.6c-3.1,1.4-6.7,3.2-7.9,3.5-1.2.4-1.8.9-3.7.4-6.1-1.9-30.9-9.5-32.7-10-1.2-.3-1.3-.3-1.3.8,0,3.5.6,12.8.7,14,.3,3.5,1.1,13.4,1.3,14.8.3,1.9-.5,2.9-2.5,3.1-1.4.1-2.8.3-4.3.5-1.3.2-2-.3-1.8-1.5a1.2,1.2,0,0,1,1.1-1.2c1-.2,2-.4,3-.5,1.6-.2,2.1-.7,2-2.4-.2-2.4-2.8-25.4-2.8-27.5a2.177,2.177,0,0,0-1.8-2.3c-5.9-1.9-11.9-3.8-17.8-5.8-.2-.1-.5-.1-.7-.2-.6-.1-1,.1-1,.7,0,1.6-.2,3.1-.1,4.7.2,4.1,1.7,20.6,1.9,21.4a12.507,12.507,0,0,1,.3,1.9,2.139,2.139,0,0,1-1.6,2.2c-1.6.6-5.9,3.4-6.7,3.8a1.419,1.419,0,1,1-1.3-2.5c1.5-.9,3-1.7,4.6-2.5a3.049,3.049,0,0,0,1.9-2.9c0-4.3-.1-8.5-.5-12.7-.4-4-.5-8-.8-12a2.553,2.553,0,0,1,0-.9c.2-1.7-.7-2.5-2.2-3.2-5.7-2.3-11.5-4.3-17.3-6a15.536,15.536,0,0,0-2.3-.5c-1.7-.4-1.7-.3-1.7-2.1V385c-.3-13.1-.5-26.3-.3-39.4.1-3.8.3-7.7.5-11.5,0-.2-.6-.4-.7-.2a90.027,90.027,0,0,0-6.2,9.8c-1.9,3.4-3.4,5.8-5.5,9.2-1,1.6-3.6,6-5.3,8.4-.3.5-1.2.1-1.8-.2a1.218,1.218,0,0,1-.6-1.2,3.8,3.8,0,0,1,.5-1.5c1.5-2.4,3-4.7,4.6-7.1l5.7-8.7c1.7-2.6,3.3-5.2,4.9-7.8,1.3-2,1.9-3.9,3.2-5.9a12.158,12.158,0,0,0,.9-4.2c-.2-6.7-.6-20.4-.7-21.4-.1-.6-.8-3.9.5-4.7.2-.1,1.2-.7,1.4-.8,3.1-1.1,5.7-3.1,8.6-4.5a2.5,2.5,0,0,1,2.5-.3c5.3,2.8,34.3,11,43.1,13.6,4.4,1.3,30.7,9.6,36.7,11.3,1,.3,4.4,1.3,4.8,2.2a13.606,13.606,0,0,1,1.2,5.2c.1,4.7.3,20.3.4,23.3Zm-11.5-17.8c.3-2.3.1-2.7-2.1-3.4-.8-.3-35.7-11.6-39.1-12.7-5-1.6-19.7-6.1-22.2-6.7-2.1-.5-12-3.5-15.1-4l-4.8-.9c-1.1-.2-1.7-.5-1.8.6a29.436,29.436,0,0,0,0,4.2c.1,3.2.3,6.3.5,9.5.4,5.2-.2,68.1-.1,68.3.2,1.3.4,2.8,1.8,3.2C539,390,601.6,410,607,411.4c2.4.6,4.8,1.4,7.3,2,1.3.3,1.7,0,1.7-1.3,0-1.8,1.6-38.5,1.5-38.7l-.6.3a17.883,17.883,0,0,0-1.4,1.3c-.7.7-6.5,7.5-7,8.1-1.3,1.9-1.4,2-3.7,1.6h-.2c-3.1-.5-11-1.6-11.7-1.8a1.382,1.382,0,0,1-1.1-1.8,1.4,1.4,0,0,1,1.8-1.1c3.2.6,7.4,1.5,9.8,1.8s3.1-.3,4.3-1.8c3.3-4.1,6.3-7.8,9.6-11.9.7-.8,1.3-31.4,1.3-37.3Zm9.4,34.5c.1-4.1,0-22,.2-26.8.1-1.6-.8-12.4-1-13.4s-.6-1.2-1.5-.8a9.41,9.41,0,0,0-2.2,1.2,4.429,4.429,0,0,0-2.4,3.4c-.1,1.1-.1,2.2-.1,3.3-.2,3.9-.4,7.9-.5,11.9-.1,3.2,0,10.5-.1,12.3-.1,1.7-.2,5.9-.3,7.6,0,.2.1.3.1.5.1-.1.3-.1.4-.2.6-.8,1.2-1.5,1.7-2.3a11.314,11.314,0,0,1,1-1.3c.7-.7,1.4-.7,1.9-.2a1.385,1.385,0,0,1,0,1.9c-.3.4-5.6,6.5-5.6,7.4,0,1.3,0,2.5-.1,3.8-.2,5.6-1.9,36.9-1.5,39.6.1.9.3,1,1.2.7,2-.7,5.8-2.1,7.7-2.9,1.1-.3,1-40.8,1.1-45.7Zm-9-40.2a3.811,3.811,0,0,0,1-.3c1.2-.6,2.5-1.2,3.7-1.9.7-.4,1.4-.9,2.1-1.3a21.848,21.848,0,0,0-2.3-.9c-16.4-4.8-32.6-10.3-48.9-15.6-2.6-.8-5.2-1.7-7.9-2.4-3.5-.9-7.1-1.6-10.6-2.6-3.7-1.1-7.2-2.5-10.9-3.7a3.948,3.948,0,0,0-2.1-.4,20.785,20.785,0,0,0-7.5,3.2q-.75.6,0,.9a34.463,34.463,0,0,0,4.2,1.4c2.5.5,5,.8,7.4,1.4,14.2,3.2,68.1,21.3,70.5,22a6.881,6.881,0,0,1,1.3.2Z" transform="translate(-154.238 -81.58)" fill-rule="evenodd"/>
  <path id="Path_634" data-name="Path 634" d="M273.2,260.8c0,.4,14.8-13.3,15.4-15.9.6-2.7,2-15.3,2.2-18.7a22.38,22.38,0,0,1,1.5-6.8,4.671,4.671,0,0,1,.5-1,1.258,1.258,0,0,1,1.6-.5,1.412,1.412,0,0,1,1,1.4,5.019,5.019,0,0,1-.2,1.2c-1.3,4.6-3.5,27.2-4.1,27.9-1.6,1.8-3.1,3.6-4.9,5.3-3.4,3.2-6.8,6.4-10.3,9.5a6.682,6.682,0,0,0-2.4,5.9c.5,7.8,1,28.8,1.1,31.5,0,1-.1,2-.1,3.1a.945.945,0,0,1-1,1h-1.4c-9.5.4-31.5.5-32.9.5h-1.1c-.7.1-.9.4-.7,1.1a51.645,51.645,0,0,0,1.6,5.2,107.627,107.627,0,0,0,10,20.1,20.128,20.128,0,0,1,1.4,2.5,7.168,7.168,0,0,0,3,3.2c1,.5,2,1,3.1,1.5a6.111,6.111,0,0,1,2.4,2.1.621.621,0,0,1-.3,1,1.961,1.961,0,0,1-2.2,0c-1.3-.7-2.6-1.4-4-2.1a6.789,6.789,0,0,0-2-.7,2.565,2.565,0,0,1-2.2-1.9c-1-4.7-3.9-8.5-5.8-12.7-1.3-2.9-2.8-5.8-3.9-8.9-.9-2.5-2.2-4.9-3.3-7.4,0-.1-.1-.1-.1-.2-1.4-2.7-1.6-2.8-4.6-2.6-6.5.2-13.1.4-19.6.6-1.9.1-1.9.1-2.5,1.9-1.5,5-3,10.1-4.6,15.1a3.056,3.056,0,0,0,.9,3.6c1.1,1.1,2.3,2.1,3.4,3.3a5.6,5.6,0,0,1,1,1.5,1.379,1.379,0,0,1-1.8,1.8,6.015,6.015,0,0,1-1.3-.9c-.7-.6-1.3-1.3-1.9-1.9a5.994,5.994,0,0,0-2.3-1.6,2.4,2.4,0,0,1-1.5-3.5,130.784,130.784,0,0,0,5.1-16.1c.1-.5.3-1,.4-1.6.1-.8-.2-1.1-1-1.1-.2,0-15.7.4-16.7.6a3.7,3.7,0,0,1-4.1-1.4,26.465,26.465,0,0,0-2.9-2.9,3.694,3.694,0,0,1-.7-1.4c-.1-.8-1.7-23.4-2.3-28.8-.3-2.5-.5-5-.7-7.5,0-.2-.3-.5-.4-.7-.2.1-5.9,7.8-8.5,11.6-2.1,3-3.9,6.2-5.8,9.3-1.4,2.2-2.8,4.3-4.3,6.4a8.753,8.753,0,0,1-1.9,2,1.5,1.5,0,0,1-1.8,0c-.4-.4-.7-.9-.2-1.4.1-.1.2-.3.3-.4a61.028,61.028,0,0,0,5.9-8.2c4-6.1,8-12.1,12-18.2.9-1.3,1.8-2.5,2.8-3.7a6.716,6.716,0,0,0,1.6-4.5c0-4.1-.1-8.3-.2-12.4-.1-3.1-.3-6.1-.5-9.2-.2-2.9-.5-5.7-.7-8.6v-.4c-.1-1.9.5-2.7,2.3-2.9,1.5-.2,3-.3,4.5-.4,7.8-.9,73.3-2.9,75.8-3.1a13.4,13.4,0,0,1,2-.1,42.331,42.331,0,0,0,5-.5,3.358,3.358,0,0,1,2.4.4c1.4.9,2.9,1.7,4.2,2.7a4.323,4.323,0,0,1,1.7,3.6c-.6,5.3-.6,28.5-.4,34.4Zm-2.2-15c-.1-5.7-.2-9.4-.2-15.1,0-2.7-.1-2.8-2.8-2.9-9.1-.3-31.3,1-33.4,1.1-5.2.3-46.8,2.7-49.3,3-1.1.2-1.2.3-1.2,1.4,0,2.8,3,61.7,3.2,68.8.1,2.3.1,2.3,2.3,2.3,5.8.1,37.8-.8,41.4-.9,3.8-.1,23-.6,28.8-.6a71.726,71.726,0,0,0,10.4-.7c1.1-.2,1.2-.2,1.3-1.3a15.262,15.262,0,0,0,.3-3c-.1-7.6-.8-52.1-.8-52.1Zm-92.8-5.3c.2,3.7.3,7.4.5,11.1a13.554,13.554,0,0,0,.2,2c0,.7.2.9,1,.8a1.455,1.455,0,0,1,1.8,1.6,2.843,2.843,0,0,1-.4,1.2,9.062,9.062,0,0,1-1.1,1.6,5.857,5.857,0,0,0-1.2,3.9c.1,3.7.6,7.3,1,10.9.6,5.4,1.9,21.7,2.1,24.4a5.6,5.6,0,0,0,2.4,4.6c.2.2.5.2.8.3.1-.3.3-.5.2-.8-.1-2.6-.1-5.3-.2-7.9-.1-2.7-2.5-50.1-3.3-58.5a11.788,11.788,0,0,0-2.4-6.6c-.3-.4-.5-1.3-1.3-1-.3.1-.3.9-.3,1.4,0,3.6.1,7.3.2,11Zm12.3-15.8c-2,0-8.3.8-9.5,1-.6.1-.4.5-.2.8.8.9,2,3.3,3.1,3.3,3.3-.2,6.4-.3,9.7-.5,6.8-.5,31.7-1.9,37.2-2.1,2-.1,30.4-1.8,34.8-1.8,3.5.1,5.5-.4,3.7-1.6-1.2-.8-4.4-2.2-6.1-1.7-.7.2-38.7,1.4-42.9,1.5-3.8-.1-26.1,1-29.8,1.1Z" transform="translate(-154.238 -81.58)" fill-rule="evenodd"/>
  <path id="Path_635" data-name="Path 635" d="M585.1,233.3c0,4.2.6,21.5.5,21.9-.1,1.1-.3,1.3-1.4,1.4-.8.1-4.4.4-4.7,1.9-.3,1.6-1.9,12-2.4,15.6a2.919,2.919,0,0,1-.2.9c-.3,1.3-.8,1.6-2,1.3a5.855,5.855,0,0,1-1.7-1,76.968,76.968,0,0,0-11.3-9.2c-.9-.6-4.9-3.9-6.4-4-.2,0-30.1,3.3-32.6,3.3a6.315,6.315,0,0,1-2.5-.9,1.678,1.678,0,0,1-.6-1.4c-.1-1.5-1.1-52.1-1.2-55.7,0-2.3.2-2.5,2.5-2.6a10.554,10.554,0,0,1,2.5.2c3.3.8,42.8-2.9,48.2-2.8h3.4a.945.945,0,0,0,1.1-.9c.1-2,.8-52.7.7-56.3v-5c.3-1.5.8-1.9,2.3-1.9,1.6,0,54.1-1.7,57.4-1.8,1.1,0,23.2-.5,24.4-.5a17.632,17.632,0,0,1,2.3,0c2.4.1,2.4.1,2.6,2.5.5,4.9-.4,49.8-.6,54.9-.1,3.3.6,14.5.7,16.9a1.357,1.357,0,0,1-1.2,1.5c-.4.1-31.4,3.5-34.6,3.6-1.8.1-14.4,1.9-17.1,2.2a5.884,5.884,0,0,0-2.8,1.5c-1.9,1.5-6.7,5.6-7.3,6.1-1.8,1.5-3.5,3-5.4,4.4a10.438,10.438,0,0,1-2.4,1.1c-.6.2-1-.1-1.2-.8-.1-.5-1.7-13.6-2.8-13.9a2.768,2.768,0,0,0-.9-.1h-4.7a1.055,1.055,0,0,0-1.2,1c0,.5-.1,1-.1,1.4.4,3.8.6,15.2.7,15.2Zm79-91.8a7.789,7.789,0,0,0-.4-2.1,1.176,1.176,0,0,0-1.2-.9c-1.2,0-73.3,1.4-75,1.7-2.2.3-4.4.5-6.6.7-1,.1-1.1.3-1.1,1.3-.1,2.3-.3,9.2-.3,10.4,0,1.1-.7,27.7-1,32.6-.1,1.7.1,13.9,0,15.9,0,.8.1.9,1,.9,1.7,0,3.4,0,5,.1.9,0,1.1.2,1.1,1.1a4.1,4.1,0,0,1-.1,1.1c-.1,2.5-.3,5-.4,7.5-.1,1.5.1,1.7,1.6,1.6,2-.2,3.9-.4,5.9-.8,2.1-.4,2.6,0,2.8,2v.4c-.2,3.6.7,7.1.9,10.7,0,.8.2.9.9.6,1.2-.6,11.6-8.2,11.7-10.3,0-.7.5-1,1.2-1,1,0,6.9-.6,8.9-.9,2.7-.4,39.8-3.9,41.2-4,.8-.1,3.6-1.3,3.6-2.2,0-1.2.1-2.4,0-3.6a92,92,0,0,1-.3-17.4c.1-.9-.4-26.3-.1-29.2.3-3.8.7-14.6.7-16.2ZM521.3,233c.1,3.3.2,8.6.4,14,.1,2.9.2,5.7.4,8.6.1,1.7.3,3.3.5,5a1.617,1.617,0,0,0,1.4,1.6,25.724,25.724,0,0,0,4.8.2c6.3-.7,12.6-1.7,18.9-2.5a74.535,74.535,0,0,1,9.5-.9,3.225,3.225,0,0,1,2.7,1.3,62.523,62.523,0,0,0,4.5,4.4c2.8,2.3,5.8,4.5,8.7,6.7.5.4,1.1.6,1.6,1,.1-.6.1-1.2.2-1.8,0-.2.1-.5.1-.7.3-1.8.7-3.6,1-5.5.4-2.7.7-5.5,1-8.2.2-1.6.3-1.8,2-1.9h1.6c1.8-.1,2.1-.4,2.1-2.2-.1-5.3.1-10.6-.1-16-.4-7.7-.1-15.3-.1-23,0-1.9.2-3.8.2-5.7,0-1.6-.5-2.1-2.1-2.2-1-.1-2,0-3.1,0-4.9.1-39.4,2-42,2.5a35.21,35.21,0,0,1-12.1.5c-1.9-.3-2.1-.1-2.1,2Z" transform="translate(-154.238 -81.58)" fill-rule="evenodd"/>
  <path id="Path_636" data-name="Path 636" d="M317.1,155.3c.2,4.3,1.6,30.9,1.7,32.6,0,.7-.2,1.2-.9,1.3a12.1,12.1,0,0,1-1.9.1c-1.4.2-27.1,1.1-29.7.8a5.245,5.245,0,0,0-4,1.1,4.617,4.617,0,0,1-1.5.9c-1.4.7-2.7,1.5-4.1,2.2a41.7,41.7,0,0,0-8.1,5.6c-1.3,1.2-1.2,1.3-2.5,2.4-.8.6-1.5,2.3-2.7.8a2.815,2.815,0,0,1-.6-1.5c-.3-2.1-.4-5.6-.8-7.7-.6-4.4-1.9-3.1-5-3.3a32.769,32.769,0,0,0-7,.1h-.2c-1.8,0-2.2.9-2.5-1.7-.1-1.2-2.5-48.6-2.5-51a21.638,21.638,0,0,1,0-3.6c.2-1.1.4-2.2,1.5-2.4.7-.1,54.5-1.1,59.1-1.2,1.8,0,3.7-.4,5.5-.5s3.6-.2,5.4-.2c.9,0,1,.7,1,1.6a6.151,6.151,0,0,1-.1,1.3c-.2,5.1-.2,19.8-.1,22.3Zm-67.2,30.6c.1,1.2.5,1.4,1.6,1.4h1.1c2.8-.1,5.6-.2,8.4-.2,2,0,2.3.3,2.5,2.2.3,2.1.5,4.2.8,6.2.1.8.2,1.5.3,2.3s.3.9.9.5c.4-.2.8-.6,1.2-.8,2.5-1.6,5-3.3,7.6-4.9,2.8-1.6,5.8-2.9,8.3-5a3.6,3.6,0,0,1,3-.7c3.2.6,21,0,23.6.1a13.606,13.606,0,0,0,5.3-.7,1.843,1.843,0,0,0,1.4-1.9v-1.1c-.8-6-1.3-31.3-1.4-36.5l-.3-11.7c0-1.5-.6-2.4-2-2.4a36.955,36.955,0,0,0-4.7.2c-3.7.3-18.7.7-21.5.9-2.8.1-10.7,0-11.8.1-2.5.1-19.5.9-25.8,1H248a1.009,1.009,0,0,0-1.1.9v1.1c.1,3.7,2.5,45,3,49Z" transform="translate(-154.238 -81.58)" fill-rule="evenodd"/>
  <path id="Path_637" data-name="Path 637" d="M427.8,296.5a2.021,2.021,0,0,0-1.7,1.8,1.946,1.946,0,0,0,1.6,1.9,2.569,2.569,0,0,0,2-2,2.025,2.025,0,0,0-1.9-1.7Zm-45,3.3a1.74,1.74,0,0,0-1.9,1.7,1.844,1.844,0,0,0,1.7,1.8,1.9,1.9,0,0,0,1.6-2.2c-.1-.9-.5-1.3-1.4-1.3Z" transform="translate(-154.238 -81.58)" fill="none"/>
  <path id="Path_638" data-name="Path 638" d="M420,132.2c0,.8-.1,1.6.8,1.8a4.084,4.084,0,0,0,1.9.1c.2,0,.5-.3.7-.5a2.772,2.772,0,0,0-.5-2.7,3.1,3.1,0,0,0-2.3-.4,1,1,0,0,0-.4.5c-.1.5-.1.9-.2,1.2Zm12.2.9v.5c.1,1.3.4,1.7,1.6,1.7,1.1,0,1.5-.5,1.5-1.7,0-.4-.1-.7-.1-1.1-.2-.9-.8-1.3-1.9-1.2-.7.1-.9.3-1,1.4a.756.756,0,0,0-.1.4Z" transform="translate(-154.238 -81.58)" fill="none"/>
  <path id="Path_639" data-name="Path 639" d="M453.9,217.5c0-1.8-.2-2-1.7-2h-.9c-1,.1-1.3.3-1.3,1.3v1.3c.1.6.3,1.1.9,1.1.9.1,1.9.4,2.7-.3a.764.764,0,0,0,.2-.5,3.444,3.444,0,0,0,.1-.9Z" transform="translate(-154.238 -81.58)" fill="none"/>
  <path id="Path_640" data-name="Path 640" d="M400,174.2v-.5c0-2.1,0-2.1-2.1-2.1-2.6,0-2.6,0-2.6,2.5,0,2.4,0,2.4,2.3,2.5,2.4,0,2.4,0,2.4-2.4Zm-13.2,2.9c2.8-.2,2.8-.2,2.7-2.7,0-2.1-.4-2.4-2.5-2-1.2.2-2.1.3-2,2a2.92,2.92,0,0,1-.2.9c-.3,1.8-.1,2,1.7,1.9a.774.774,0,0,1,.3-.1Zm24.7-4.3v-1.1c-.1-.9-.3-1.1-1.2-1.2-3-.3-3.7.5-2.9,3.4.1.2.1.5.2.7.2.3.5.6.8.6a19.971,19.971,0,0,0,2.6-.5,1.275,1.275,0,0,0,.5-.7Z" transform="translate(-154.238 -81.58)" fill="none"/>
  <path id="Path_641" data-name="Path 641" d="M587.9,331.3v-.6c-.2-1.2-.9-1.7-2-1.4-1.2.2-1.7,1.3-1.4,2.6a2.191,2.191,0,0,0,2.1,1.8c.8-.1,1.3-.9,1.3-2.1v-.3Zm-27.5-4.9a9.145,9.145,0,0,0-.9-1.7,1.163,1.163,0,0,0-1-.2,2.64,2.64,0,0,0-1.6,3,1.528,1.528,0,0,0,2.6.5c.3-.4.5-1,.9-1.6Z" transform="translate(-154.238 -81.58)" fill="none"/>
  <path id="Path_642" data-name="Path 642" d="M619,325.1c-.5-.1-.9-.1-1.3-.2-2.4-.6-4.7-1.3-7.1-1.9a23.847,23.847,0,0,1-6.6-2.8,3.37,3.37,0,0,0-3.2-.6c-.4.2-.9-.1-1.4-.2a95.585,95.585,0,0,1-10.7-3.5c-13.6-5-27.3-9.7-41.5-12.9-2.5-.5-5-.8-7.4-1.4a34.463,34.463,0,0,1-4.2-1.4q-.9-.3,0-.9a19.182,19.182,0,0,1,7.5-3.2,5.555,5.555,0,0,1,2.1.4c3.6,1.2,7.2,2.6,10.9,3.7,3.5,1,7.1,1.7,10.6,2.6,2.7.7,5.3,1.6,7.9,2.4,16.3,5.3,32.5,10.8,48.9,15.6a21.854,21.854,0,0,1,2.3.9c-.7.4-1.4.9-2.1,1.3-1.2.7-2.4,1.3-3.7,1.9A2.958,2.958,0,0,0,619,325.1Z" transform="translate(-154.238 -81.58)" fill="none"/>
  <path id="Path_643" data-name="Path 643" d="M244.1,241.5a1.394,1.394,0,0,0-1.4-1.5,1.634,1.634,0,0,0-1.6,1.8,1.53,1.53,0,0,0,1.7,1.5C243.7,243.3,244.1,242.8,244.1,241.5Zm-24.7,2a1.381,1.381,0,0,0-1.2-1.7,1.579,1.579,0,0,0-1.7,1.5,1.457,1.457,0,0,0,1.6,1.7c.9.1,1.2-.3,1.3-1.5Z" transform="translate(-154.238 -81.58)" fill="none"/>
  <path id="Path_644" data-name="Path 644" d="M601.1,188.8h-.6c-1.5,0-1.6.2-1.7,1.6v.4c0,1.4.4,1.7,1.8,1.8h.7c.6,0,1.1-.1,1.2-.8.1-.9.4-1.9-.2-2.7a.764.764,0,0,0-.5-.2A1.7,1.7,0,0,0,601.1,188.8Z" transform="translate(-154.238 -81.58)" fill="none"/>
  <path id="Path_645" data-name="Path 645" d="M552.2,240v-1.4a1,1,0,0,0-1.1-1.1h-2.3c-1,0-1.2.2-1.2,1.1v2.3c.1,1.3.2,1.4,1.5,1.5h.7c2.5.1,2.5.1,2.4-2.4Z" transform="translate(-154.238 -81.58)" fill="none"/>
  <path id="Path_646" data-name="Path 646" d="M280.1,175.5v-1.1c0-.6-.4-.8-.9-.8a14.92,14.92,0,0,0-2.1.2c-.4.1-.9.4-.9.6a4.1,4.1,0,0,0,.4,2.9,1.691,1.691,0,0,0,1,.7,3.534,3.534,0,0,0,1.7-.4c.4-.1.6-.7.8-1.1v-1Z" transform="translate(-154.238 -81.58)" fill="none"/>
  <g id="Group_32" data-name="Group 32" transform="translate(-154.238 -81.58)">
    <path id="Path_647" data-name="Path 647" d="M408.2,328.9a1.988,1.988,0,0,1,2.3,2.2,3.711,3.711,0,0,1-.2.9c-.7,1.5-1.4,3.1-2,4.6a1.453,1.453,0,0,1-1.7,1c-2.4-.5-5-.4-7.4-1.2a39.436,39.436,0,0,1-4.8-1.8c-2.2-1.1-4.4-2.5-6.5-3.8-1.5-.9-1.8-1.9-1-3.5a21.366,21.366,0,0,1,2-3.2c.7-.9.7-.9,1.8-.5,6.4,3.1,5.9,3.5,8.4,4.6,3.4,1.4,9.1.7,9.1.7Zm-8.4,5.9a17.487,17.487,0,0,0,6.2.4c.5-.1,1.8-3.5,2.2-3.9.4-.3-3.5-.4-4.5-.5-3.9-.3-7.2-1.1-10.3-3.6a31.829,31.829,0,0,0-3.2-1.6c-.3-.1-2.1,3-1.6,3.2,2.8,1.6,9,5.4,11.2,6Z" fill-rule="evenodd"/>
    <path id="Path_648" data-name="Path 648" d="M427.8,296.5c.9,0,1.9.8,1.8,1.6a2.443,2.443,0,0,1-2,2,1.866,1.866,0,0,1-1.6-1.9,2.019,2.019,0,0,1,1.8-1.7Z" fill-rule="evenodd"/>
    <path id="Path_649" data-name="Path 649" d="M382.8,299.8c.9,0,1.3.4,1.4,1.3,0,1.2-.7,2.2-1.6,2.2a1.844,1.844,0,0,1-1.7-1.8,1.74,1.74,0,0,1,1.9-1.7Z" fill-rule="evenodd"/>
    <path id="Path_650" data-name="Path 650" d="M421.8,100.3a9.08,9.08,0,0,1,.3-2.3c.1-.6,2.2-.4,2.3.1.1.7-.7,27.6-.7,27.7-.1,1-2.7.9-2.8,0,0-.2,1-22.7.9-25.5Z" fill-rule="evenodd"/>
    <path id="Path_651" data-name="Path 651" d="M436.2,125.9c-.1.3-2.6.7-2.5-.7.3-4.5,1.2-25.5,1.1-26.1.2-2,3.1-.9,3.1.1.1,2.6-1.5,25.9-1.7,26.7Z" fill-rule="evenodd"/>
    <path id="Path_652" data-name="Path 652" d="M450.3,105.1v2.5c-.1,2.1-.7,11.7-.9,14.3a41.7,41.7,0,0,0,0,5c0,.7-3,.6-3-.1,0-.5.5-6.7.7-9.3.2-1.8.6-11.5.6-14.5V98.9c0-.3,2.8,0,2.7,1.1a48.817,48.817,0,0,0-.1,5.1Z" fill-rule="evenodd"/>
    <path id="Path_653" data-name="Path 653" d="M420,132.2a3.553,3.553,0,0,1,.2-1,1,1,0,0,1,.4-.5,2.362,2.362,0,0,1,2.3.4,2.735,2.735,0,0,1,.5,2.7.935.935,0,0,1-.7.5,12.1,12.1,0,0,1-1.9-.1,2.044,2.044,0,0,1-.8-2Z" fill-rule="evenodd"/>
    <path id="Path_654" data-name="Path 654" d="M432.2,133.1v-.4c.1-1,.2-1.3,1-1.4a1.559,1.559,0,0,1,1.9,1.2,3.749,3.749,0,0,1,.1,1.1c0,1.3-.3,1.7-1.5,1.7-1.1,0-1.5-.4-1.6-1.7a.749.749,0,0,0,.1-.5Z" fill-rule="evenodd"/>
    <path id="Path_655" data-name="Path 655" d="M449,132.5c-.4-.9-1.5-.6-2.4-.3-.7.2-.8.6-.7,1.6s.3,1.5.9,1.5a3.387,3.387,0,0,0,1.9-.2c1-.2.6-1.7.3-2.6Z" fill-rule="evenodd"/>
    <path id="Path_656" data-name="Path 656" d="M457.3,186.6c-.3,0-3.3-.1-4.9-.1-1.8-.1-3.6-.1-5.4-.1a.9.9,0,0,0-1,.8c0,.5-.1,1.2.4,1.3a12.033,12.033,0,0,0,1.9,0c2,.1,4.1.1,6.1.2,1.9.1,1.7.5,1.8,2.4a26.781,26.781,0,0,1-.2,5c-.3,2.4,0,2.4-2.4,2.5-2,0-4.6.1-6.7.2-1.3.1-1.4.3-1.4,1.6,0,2,.1,4,.1,5.9,0,1.3.1,2.5.2,3.8.2,1.2.4,1.3,1.5,1.3,1.4,0,7.4-.1,9-.1,1.1,0,1.3-.3,1.5-1.4.2-1.5-.1-1.4-1.7-1.4h-6.3c-1.8,0-1.8-.1-2-1.6-.1-1.1-.1-2.3-.1-3.4,0-1.6.2-1.8,1.8-1.9,2.3-.1,4.5-.2,6.8-.4,1.4-.1,1.8-1.3,1.8-2.7,0,0,.2-6,.2-8.8.2-2.8.2-2.9-1-3.1Z" fill-rule="evenodd"/>
    <path id="Path_657" data-name="Path 657" d="M453.9,217.5a3.869,3.869,0,0,1-.1.9.764.764,0,0,1-.2.5c-.8.7-1.8.4-2.7.3-.6,0-.9-.5-.9-1.1v-1.3c.1-1,.3-1.2,1.3-1.3h.9c1.6.1,1.7.2,1.7,2Z" fill-rule="evenodd"/>
    <path id="Path_658" data-name="Path 658" d="M400,174.2c0,2.4,0,2.4-2.4,2.4-2.3-.1-2.3-.1-2.3-2.5,0-2.5,0-2.5,2.6-2.5,2.1,0,2.1,0,2.1,2.1Z" fill-rule="evenodd"/>
    <path id="Path_659" data-name="Path 659" d="M386.8,177.1h-.2c-1.8.1-2-.1-1.7-1.9a2.92,2.92,0,0,0,.2-.9c-.1-1.7.7-1.8,2-2,2.1-.4,2.5-.1,2.5,2,0,2.6,0,2.6-2.8,2.8Z" fill-rule="evenodd"/>
    <path id="Path_660" data-name="Path 660" d="M411.5,172.8a4.868,4.868,0,0,1-.1,1.2,1.275,1.275,0,0,1-.5.7,23.815,23.815,0,0,1-2.6.5,1.41,1.41,0,0,1-.8-.6,6.372,6.372,0,0,1-.2-.7c-.8-2.9-.1-3.7,2.9-3.4.9.1,1.1.3,1.2,1.2A4.484,4.484,0,0,1,411.5,172.8Z" fill-rule="evenodd"/>
    <path id="Path_661" data-name="Path 661" d="M573.5,358.8c-.2-.4.1-1.8.6-1.9a2.079,2.079,0,0,1,1.1.1c2.1.2,10.9.3,10.9.3a10.786,10.786,0,0,1,.8-1c.6-.7.9-.5,1.7-.3.6.1,1,.4.8,1.1-.5,1.7-1.2,2.3-3.1,2.3-3.3,0-6.7-.1-10-.2C575.7,359.1,573.7,359.1,573.5,358.8Z" fill-rule="evenodd"/>
    <path id="Path_662" data-name="Path 662" d="M587.9,331.3v.3c0,1.2-.5,1.9-1.3,2.1a2.116,2.116,0,0,1-2.1-1.8c-.3-1.3.2-2.4,1.4-2.6a1.553,1.553,0,0,1,2,1.4Z" fill-rule="evenodd"/>
    <path id="Path_663" data-name="Path 663" d="M559.5,328a1.528,1.528,0,0,1-2.6-.5,2.585,2.585,0,0,1,1.6-3,1.163,1.163,0,0,1,1,.2C559.8,325.2,560.6,326.8,559.5,328Z" fill-rule="evenodd"/>
    <path id="Path_664" data-name="Path 664" d="M250.7,264.5a4.7,4.7,0,0,1-.9.6c-2.9,1.3-5.7,2.6-8.6,4-.1,0-.2.1-.3.1a1.369,1.369,0,0,1-1.5-.2c-.4-.4,0-5.4,0-5.7,0-1.3.4-1.7,1.6-1.9a4.868,4.868,0,0,1,1.2-.1,11.422,11.422,0,0,0,6.2-2c.8-.6,1.3-.5,1.6.3a26,26,0,0,1,1,4c.1.2-.2.6-.3.9Zm-1.7-1c.6-.3,1-2.2-.1-1.8a35.188,35.188,0,0,1-4.8,1.4c-1.6.2-3-.1-3.2,1-.1.5-.1,1.6-.2,2.1s.9.8,1.3.6c1.4-.1,6.4-3,7-3.3Z" fill-rule="evenodd"/>
    <path id="Path_665" data-name="Path 665" d="M244.1,241.5c0,1.2-.4,1.8-1.3,1.7a1.651,1.651,0,1,1-.1-3.3A1.546,1.546,0,0,1,244.1,241.5Z" fill-rule="evenodd"/>
    <path id="Path_666" data-name="Path 666" d="M219.4,243.5c-.1,1.2-.4,1.6-1.2,1.6a1.457,1.457,0,0,1-1.6-1.7,1.579,1.579,0,0,1,1.7-1.5c.7,0,1.2.6,1.1,1.6Z" fill-rule="evenodd"/>
    <path id="Path_667" data-name="Path 667" d="M621.4,174h-2.7c-.8,0-1.7,0-1.8.8-.1,1,.2,2.2.2,3.2,0,1.3.4,1.7,1.7,1.8.7.1,5.3-.1,6.7-.2,1.1.3.4,2.8.1,2.8-2.5.2-9.5.1-9.8.1-.9,0-1.1-.1-1.2-.9a19.273,19.273,0,0,1-.1-2.4c.1-2.1-.2-3.2-.2-5.3,0-2,.3-1.7,1.7-1.8,1.7-.1,3.4-.1,5-.1,1.8-.1,2.4-.6,2.7-2.4a20.39,20.39,0,0,0,.3-4.7c.1-2.5-.3-2.5-2.2-2.6-1-.1-5.1,0-6.2.1a1.7,1.7,0,0,1-.7-.1c-1.2-.2-1-2.7.1-2.6.5.1,7.5.1,10.2.1,1.1,0,.9.3,1.2,1.4a2.438,2.438,0,0,1,0,1.2,75.479,75.479,0,0,0-.4,9.5c0,1.2.1,1.8-1.2,1.9-.8.1-2.5.2-3.4.2Z" fill-rule="evenodd"/>
    <path id="Path_668" data-name="Path 668" d="M605.2,159.9c1.2.1,1.8-.3,1.8,2.5s-.3,8.9-.2,10.6c.1,1.1-.1,1.3-1.1,1.4-1.4.2-6.5.4-7.7.5-1,.1-1.3.4-1.3,1.4,0,1.4.1,2.8.2,4.1.1,1.2.4,1.4,1.6,1.4,1.8-.1,7.5-.2,8-.1.9,0,.9,2.2.1,2.3-.5.1-6,.1-8.8.2-2.9.1-3.1.1-3.1-2.6-.1-2.1-.3-7-.3-7.4,0-1.4.2-1.6,1.5-1.6s6.1-.2,7.2-.2a1.181,1.181,0,0,0,1.3-1.2c.2-1.7.1-5.7.1-7.4s-.3-1.3-1.9-1.6c-.9-.1-7.4-.1-7.8-.2-.5-.1-.3-2.1.2-2.1.9,0,7.4-.2,10.2,0Z" fill-rule="evenodd"/>
    <path id="Path_669" data-name="Path 669" d="M643.9,158.9c1.8-.2,2.1.8,2.1,2.8v7.4c0,1-.1,2.2-2.1,2.3a18.905,18.905,0,0,0-3.5.1c-2.5.3-2.9-.2-2.7,3.5v.5c.2,2,.7,2.5,2.7,2.5.8,0,1.7-.1,2.5-.1h4.5c.2,0,.4,1.9-.2,2.1l-2.1.3c-1.2.1-2.4,0-3.6.1s-2.5.3-3.7.4c-1.7.2-2.3-.4-2.3-2,0-2-.2-7.2-.1-7.7a1.824,1.824,0,0,1,2-1.7c1.8-.1,3-.2,4.2-.3,1.1-.1,1.9-.2,1.9-.5.3-1.8-.3-4.1-.2-5.9.1-1.1-.2-1.3-1.2-1.3-1.1,0-2.2.2-3.4.2h-3.2c-.7,0-.8-2.2,0-2.3,1.3-.1,2.5,0,3.8,0-.2-.2,3-.2,4.6-.4Z" fill-rule="evenodd"/>
    <path id="Path_670" data-name="Path 670" d="M638.8,190.3c-.4-.3-.2-1.2-.3-1.9a6.754,6.754,0,0,1-.2-1.4c-.1-1,.2-1.3,1.1-1.4h2.9c1,.1,1.4.4,1.4,1.4a24.51,24.51,0,0,1-.2,2.7,1.146,1.146,0,0,1-1.3,1c-.5,0-3,0-3.4-.4Z" fill-rule="evenodd"/>
    <path id="Path_671" data-name="Path 671" d="M617.1,189.4a1,1,0,0,1,1.1-1.1,6.542,6.542,0,0,1,2.8.2c1,.5.7.6.8,2.6s-.2,2.3-2.2,2.3h-.4c-1.5-.1-2,.1-2-2Z" fill-rule="evenodd"/>
    <path id="Path_672" data-name="Path 672" d="M601.1,188.8a2.814,2.814,0,0,1,.8.1.764.764,0,0,1,.5.2c.6.9.3,1.8.2,2.7-.1.7-.7.7-1.2.8h-.7c-1.5,0-1.8-.3-1.8-1.8v-.4c0-1.5.2-1.6,1.7-1.6Z" fill-rule="evenodd"/>
    <path id="Path_673" data-name="Path 673" d="M552.2,240c0,2.5,0,2.5-2.5,2.4H549c-1.3-.1-1.4-.2-1.5-1.5v-2.3c.1-1,.2-1.1,1.2-1.1H551a1,1,0,0,1,1.1,1.1,6.6,6.6,0,0,1,.1,1.4Z" fill-rule="evenodd"/>
    <path id="Path_674" data-name="Path 674" d="M539.1,243h-.5c-1.4,0-1.9-.3-1.7-1.6.1-.4,0-1.4.1-1.8.3-1.8.9-1.2,2.8-1.4h.9a.867.867,0,0,1,1.1.9,24.375,24.375,0,0,1,.1,2.7,1,1,0,0,1-1.1,1.1,8.622,8.622,0,0,0-1.7.1Z" fill-rule="evenodd"/>
    <path id="Path_675" data-name="Path 675" d="M562.5,239.7v.9a1.009,1.009,0,0,1-.9,1.1c-.9.1-1.8.7-2.7.2-.1-.1-.2-.3-.3-.4a10.053,10.053,0,0,1-.4-2.5c-.1-1.2.2-1.4,1.4-1.6h.5C562.3,237.3,562.5,237.5,562.5,239.7Z" fill-rule="evenodd"/>
    <path id="Path_676" data-name="Path 676" d="M279.6,168.3c0,.7-2.7,1.8-3.2.6a3.194,3.194,0,0,1-.3-1.4c.3-2,0-23.8.1-24.5.1-.5.4-.9.9-.9h.2c2.2-.3,1.9.8,2.1,3,.1,1.7.3,22,.2,23.2Z" fill-rule="evenodd"/>
    <path id="Path_677" data-name="Path 677" d="M280.1,175.5a4.142,4.142,0,0,1-.1,1c-.2.4-.4,1-.8,1.1a3.533,3.533,0,0,1-1.7.4,1.691,1.691,0,0,1-1-.7,3.7,3.7,0,0,1-.4-2.9c0-.3.6-.6.9-.6a13.611,13.611,0,0,1,2.1-.2c.6,0,.9.2.9.8a3.42,3.42,0,0,1,.1,1.1Z" fill-rule="evenodd"/>
  </g>
</svg>
