<svg id="faq" xmlns="http://www.w3.org/2000/svg" width="231" height="231" viewBox="0 0 231 231">
  <circle id="Ellipse_1" data-name="Ellipse 1" cx="115.5" cy="115.5" r="115.5" fill="#1c8adb"/>
  <path id="Path_441" data-name="Path 441" d="M122.916,177.644q-15.737,0-25.6,8.647L9.547,274.02c6.85,31.715,23.36,53.187,48.384,65.628l69.829-69.829q0-12.6,5.8-19.552l9.938-9.934q14.008-14.7,14.008-29.833,0-15.305-9.165-24.039-9.079-8.82-25.423-8.82Zm-2.421,110.421q-4.669,0-7.091,2.681L62.2,341.955,79.9,351.4l47.682-47.682a9.9,9.9,0,0,0,0-12.971q-2.421-2.681-7.09-2.681Z" transform="translate(-7.096 -126.588)" fill="#fff" opacity="0.42"/>
  <path id="Path_442" data-name="Path 442" d="M303.118,522.185q.173-10.29,2.335-16.256t8.82-13.23L325.6,481.025q7.263-8.215,7.263-17.64,0-9.079-4.756-14.181-4.756-5.188-13.835-5.188-8.82,0-14.181,4.669t-5.361,12.538h-16q.173-14.008,9.944-22.569,9.858-8.647,25.6-8.647,16.343,0,25.422,8.82,9.166,8.733,9.166,24.039,0,15.132-14.008,29.833l-9.425,9.339q-6.312,7-6.312,20.148h-16Zm-.692,27.411a9.333,9.333,0,0,1,2.335-6.485q2.421-2.681,7.09-2.681t7.091,2.681a9.9,9.9,0,0,1,0,12.971q-2.421,2.508-7.091,2.508t-7.09-2.508A9.333,9.333,0,0,1,302.427,549.6Z" transform="translate(-198.451 -378.952)" fill="#fff"/>
</svg>
