<svg id="faq2" xmlns="http://www.w3.org/2000/svg" width="413.701" height="504.198" viewBox="0 0 413.701 504.198">
  <path id="Path_745" data-name="Path 745" d="M385.3,232.8l24.2-3.8,36.6,103.4-29.8,11.8Z" transform="translate(-187.2 -62.84)" fill="#a1dba3"/>
  <path id="Path_746" data-name="Path 746" d="M462,229l-27.4,4.7,27,61,28.3-13.6,14.8,30.1,21.4,8.9,63.5-137.7-61.7-55,11.6,48.8,17.7,13.4L513.3,277l-33-61.1-29-9.5Z" transform="translate(-187.2 -62.84)" fill="#a1dba3"/>
  <g id="Group_39" data-name="Group 39" transform="translate(-187.2 -62.84)">
    <path id="Path_747" data-name="Path 747" d="M417,160.6l-.4-1.6c-1.4-4.4-2.8-8.8-4.2-13.1a.781.781,0,0,0-.4-.4,5.938,5.938,0,0,1-.4.8c-1.3,3.8-2.5,7.5-3.8,11.3-.7,1.9-1.5,3.7-2.3,5.6-.3.7-.4,1.4.7,1.1,3.1-.7,6.2-1.4,9.2-2.2.6-.3,1.1-1.1,1.6-1.5Zm134.9,28.5c-1.2-1.4-2.3-3-3.6-4.3-2.2-2.2-4.6-4.3-7-6.5-.3-.3-.6-.4-.9-.7-.1.4-.4.9-.3,1.3.6,2.8,1.3,5.5,2.1,8.2,1.3,4.4,2.7,8.8,4.1,13.2.1.4.5.7.8,1,.2-.3.6-.6.7-.9.7-2.1,1.4-4.3,2.2-6.4.5-1.5,1.1-3,1.9-4.9ZM335,471.1h-.3c-.1,1.1-.3,2.1-.3,3.2,0,1.3.5,2.4,2.1,2.4s2.2-.8,2.1-2.3c-.2-3.6-.3-7.3-.4-10.9-.2-4.7-.4-9.4-.4-14.1-.1-4.6.1-9.2.1-13.9a2.579,2.579,0,0,0-2.6-2.6c-1.6.1-2.6.8-2.5,2.6.1,1.5.3,2.9.3,4.4.3,4.9.5,9.9.8,14.8.3,5.4.7,10.9,1.1,16.4ZM462.4,263.8c2.1,2.6,6,6.3,9.5,7.2a1.893,1.893,0,0,0,1.6-.9c.9-4.8,4-9.6.6-14.5a.349.349,0,0,0-.1-.2c-1.4-3.4-4.8-10.9-5.2-11.2a32.475,32.475,0,0,0-1.9,5.6c-1.1,4-5,13.4-4.5,14Zm71.1-32.4c-1-2.1-6.2-15-7.2-18.4a7.835,7.835,0,0,0-.5-1.4c-.3.4-6.2,15.2-9.2,22-.6,1.4-.4,2,1,2.5,2.6.9,5.1,2,7.7,2.9,3.5,1.2,3.5,1.2,5.4-2.2a11.779,11.779,0,0,0,1.1-1.9,28.976,28.976,0,0,0,1.7-3.5Zm-50.3-7.9c.4.7.7,1.2,1,1.7,2.5,4.1,5.1,8.1,7.6,12.2,2.5,3.9,4.9,7.8,7.4,11.7a17.8,17.8,0,0,0,2.3,3.1,1.483,1.483,0,0,0,1.3,0,52.8,52.8,0,0,0,7.8-13.4c.4-1,.3-1.6-.9-2a39.351,39.351,0,0,1-5.5-2.6c-1.8-1-3.6-2.2-5.4-3.2-4-2.2-8-4.3-12-6.5-.8-.4-1.5-.9-2.3-1.3C484.2,223.1,483.8,223.4,483.2,223.5ZM363.7,450.4a14.044,14.044,0,0,1,2.9,0c1.5.4,2-.2,2.5-1.4,1.9-5.5,3.9-10.9,6-16.4.4-1.1.2-1.2-.9-1.2-5.6.3-11.3.5-16.9.8-3.9.2-2.8-.4-3.5,3.3a4.819,4.819,0,0,0,0,1.2c.8,3.6,1.5,7.3,2.3,10.9a2.808,2.808,0,0,0,2.8,2.3c1.6.1,3.2.3,4.8.5ZM514.5,268.7c2.8-5.1,5.6-10.2,8.3-15.3,1.1-2.1,2.1-4.4,3.1-6.6.9-2.1.9-2-1.3-2.6-1.6-.4-7.5-3.7-8.9-4.6-1.3-.8-2-.3-2.6,1a61.6,61.6,0,0,1-8.8,14.8,1.724,1.724,0,0,0-.1,2.4c2.5,3.7,4.9,7.4,7.4,11.1,1,1.4,2.2,1.9,2.9-.2ZM304.3,368.9c-.2-1.6-.4-3.2-.5-4.8s-1-1.9-2.3-1.7a13.321,13.321,0,0,0-1.9.5c-4,1.5-8,3.1-12,4.7-5.4,2.1-10.7,4.1-16.1,6.2a5.669,5.669,0,0,0-1.3,1,9.143,9.143,0,0,0,1.4.7c3.2.7,6.4,1.3,9.5,2.1,7,1.7,13.9,3.5,20.9,5.2,1.1.3,2.2.4,3.3.6,0-1.2-.7-10.8-1-14.5ZM590,179.1c.5-.1,1-1.8.5-2.2a39.181,39.181,0,0,0-3.2-2.5c-5.6-4.3-11.1-8.7-16.7-13-3.2-2.5-6.6-4.8-9.6-7.4-3.9-3.4-7.5-7.1-11.4-10.5-5.6-4.9-11.2-9.6-16.9-14.3-1.2-1-2.5-1.8-3.8-2.7-1-.7-1.4-.2-1.1.8,1.6,5,1.7,10.6,5.9,14.7,3.2,3.1,5.9,6.6,9,9.8,3.4,3.6,6.9,7,10.3,10.5,1.7,1.7,3.3,3.6,5.1,5.2,3.9,3.6,7.9,7.2,12,10.5a16.716,16.716,0,0,0,4.9,2.2C576.1,180.6,586.1,179.7,590,179.1ZM376.8,327.5c-.4-2.6-.8-5.3-1.3-8-.2-1.2-.9-1-1.8-.6-3.4,1.7-6.8,3.4-10.3,4.9-7.9,3.6-15.9,7-23.8,10.5-5.3,2.4-10.6,4.9-16,7.1-10.6,4.2-21.2,8.2-31.8,12.3-2.7,1-5.3,2-7.9,3.2-6.1,2.9-12.1,5.8-18.2,8.8-3.2,1.6-6.4,3.1-9.5,4.9-1.9,1.1-1.7,3.1.2,4.1a4,4,0,0,0,2.6.4c2.7-.8,5.4-1.8,8-2.8,2.9-1.1,5.8-2.4,8.7-3.6,5.1-2.1,10.3-4,15.3-6.3a39.118,39.118,0,0,1,11.2-3.3,9.876,9.876,0,0,0,3.7-1.1c2.4-1.1,4.6-2.5,7-3.4,1.7-.7,2.8-1.3,1.3-3.3-.7-1,.1-3.1,1.2-3.6,1.4-.6,2.3.3,3,1.4a3.552,3.552,0,0,1,.4.9c.4,1.7,1.4,1.9,2.9,1.3,3.5-1.4,7.1-2.7,10.7-4.1,6.5-2.5,13-5,19.6-7.5,4-1.5,8.1-2.8,12.2-4.3,3.4-1.2,6.7-2.6,10-3.9a3.692,3.692,0,0,0,2.6-4ZM503.2,109.7a27.318,27.318,0,0,0,3.1-1.4c1.8-1,3.6-2.1,5.4-3.2l2.4-1.5c-.9-.5-1.9-1-2.8-1.5-.1-.1-40.2-12.8-45.6-15-7.3-3-14.5-6-21.8-9a68.64,68.64,0,0,0-7.6-2.7c-5-1.6-10.1-2.9-15.1-4.5-3.3-1-6.6-2.3-9.9-3.2a10.65,10.65,0,0,0-4.7,0,52.087,52.087,0,0,0-5,2c-1.5.6-1.1,1.2-.1,1.8a67.3,67.3,0,0,0,7.3,4.4c6.9,3.3,13.9,6.7,20.9,9.7,5.3,2.2,10.8,4,16.2,5.8,3.8,1.3,7.7,2.2,11.6,3.4,3.5,1,7,2.1,10.5,3.2,7.9,2.5,15.8,4.8,23.6,7.5,3.3,1.1,10.8,4,11.6,4.2ZM466,236.7c-.6-1.5-1.1-3.1-1.8-4.6-1.3-2.9-1.7-3.2-4.9-2.4-4,1-18.2,5.8-21.4,6.8-2.8.9-2.9,1-1.8,3.7,4.7,11.5,9.3,23,14.1,34.5,2.6,6.3,5.5,12.6,8.3,18.9.7,1.5,1.7,1.8,3.1,1.1,3.1-1.6,6.2-3.3,9.4-4.7,4.3-1.8,8.7-3.2,13-4.9,2.6-1,2.9-1.7,1.8-4.3-1-2.3-2.1-4.6-3.2-6.8-1.2-2.5-2.3-5-3.5-7.5a6.035,6.035,0,0,0-.8-.8c-.2.3-.6.6-.6.9-.4,1.9-.8,3.8-1.1,5.7-.5,3.2-3,4.4-5.6,2.9-4.4-2.4-8-5.7-11.6-9-1.6-1.5-1.6-2.9-.2-4.7.9-1.3,3.1-7.8,3.6-9.6a107.617,107.617,0,0,0,3.2-15.2Zm61.4-35c.9,3.7,1.7,7.8,3,11.7,1.2,3.9,2.8,7.7,4.2,11.6.2.6,2.2.7,2.4.1,2.3-5.2,4.7-10.3,6.9-15.5,1.2-2.9-3.6-14.2-3.8-14.8-.9-3.2-1.9-6.3-2.6-9.6-2.1-9.6-4-19.2-6-28.8-.5-2.2-1.3-4.3-1.9-6.6-1.5-6.2-2.8-12.5-4.4-18.7-.9-3.7-2.4-7.3-3.2-11-1-4.2-1.6-8.4-2.3-12.7-.2-1.3-.9-1.4-1.9-1-2.7,1.1-5.4,2.1-8.1,3.2-1.9.8-2.3,2.3-1.8,4.2.6,2.4,1.4,4.7,1.9,7.1,1.7,8.4,3.3,16.9,5,25.3,1.5,7.1,3.1,14.3,4.7,21.4.4,1.7.9,3.3,1.2,4.9.6,3.2,1.1,6.4,1.7,9.6s1.4,6.3,2.2,9.5a7.492,7.492,0,0,0,.5,1.6c.1.2.3.2.5.3.1-.1.2-.3.3-.4a7.57,7.57,0,0,0,.1-1.5c.1-6.3.1-12.7-1.1-19-.7-3.6-1.1-7.2-1.8-10.8-.3-1.4-.2-2.5,1.3-2.9s2,.7,2.2,1.9c.1.6.1,1.1.2,1.7.4,3.5.8,7.1,1.3,10.6,1.1,8.2,1.7,16.3.1,24.5-.3,1.5-.5,2.6-.8,4.1ZM283.2,405.2c5.6-.9,10.3-1.6,15-2.4,2.8-.5,5.5-1,8.3-1.5.3-.1.8-.6.8-.8-.4-3.6-.7-7.3-1.4-10.8a3.532,3.532,0,0,0-2.2-2.1c-3.9-1.1-7.8-1.9-11.7-2.9-3.2-.8-6.4-1.6-9.7-2.4-5.8-1.4-11.7-2.7-17.5-4.3-3.1-.8-5.7.4-8.4,1.4a2.128,2.128,0,0,1-3-.9c-2.1-3-4.2-5.9-6.3-8.8-.3-.3-.8-.5-1.1-.8a2.947,2.947,0,0,0-.5,1.3c-.6,5.8-1.4,11.6-1.8,17.4-.4,5.4-.5,10.9-.6,16.3a9.6,9.6,0,0,0,.6,3.3,1.758,1.758,0,0,0,1.2,1,17.1,17.1,0,0,0,3.9.3c6.5-.6,13.1-1.4,19.6-1.9,5.3-.8,10.5-1,14.8-1.4ZM566.9,562.7c.5-.1,1-.1,1.4-.2,4.4-1,4.6-1.2,3.3-5.5-.5-1.6-1.4-3.1-2-4.7-1.1-3.2-1.6-6.7-3-9.7a167,167,0,0,1-8.5-25.6c-2.7-10.4-5.3-20.9-8.1-31.3-1.7-6.3-3.4-12.6-5.4-18.7-2.8-8.5-6-17-9-25.5-1.1-3-2.2-5.9-3.3-8.9a4.289,4.289,0,0,0-4.1-3.2c-3.2-.2-6.5-.6-9.7-.9-2-.2-2.9.7-2.4,2.6a59.817,59.817,0,0,0,2.2,7.2c2.5,6,5.3,11.9,7.6,17.9,2.2,5.9,4,12,5.9,18,2.2,6.9,4.4,13.8,6.6,20.6,3,9.3,5.8,18.6,8.9,27.8q2.55,7.65,5.7,15c2,4.9,4.2,9.6,6.4,14.4,1.2,2.7,2.4,5.5,3.6,8.2a3.6,3.6,0,0,0,3.9,2.5Zm-182.7-131v-.2c-.8,0-1.6-.1-2.4-.1-2.6-.2-2.9.1-3.3,2.7a3.583,3.583,0,0,1-.4,1.1c-2.4,6.2-4.9,12.5-7.4,18.7-3.4,8.6-6.9,17.1-10.3,25.7-2.3,5.8-4.9,11.6-6.6,17.5a127.533,127.533,0,0,1-6.7,18.8,82.9,82.9,0,0,0-3.5,9.9c-2.2,7.1-4.4,14.1-6.4,21.2-.2.6.3,2,.8,2.1,2.4.8,4.8,1.4,7.3,2a1.816,1.816,0,0,0,1.4-.6c1.1-2,2.2-4.1,3.1-6.2.7-1.5,1-3.1,1.7-4.5,1.5-3.1,3.2-6,4.7-9q2.25-4.35,4.2-8.7c2.1-4.6,4.3-9.3,6.3-14,3.3-7.7,6.3-15.5,9.8-23.1,3.6-7.9,7.5-15.6,11.3-23.4,1-2,2-4.1,2.9-6.1,1.1-2.6,2-5.3,3.1-7.9,1.9-4.5,4-9.1,6-13.6.7-1.6.2-2.2-1.5-2.2C393.8,431.7,389,431.7,384.2,431.7ZM584.6,183.1c-3.1.4-6.2,1.2-9.3,1.4a3.635,3.635,0,0,0-3.2,2.2c-1,2.1-1.9,4.3-2.9,6.4-4.6,8.9-9.2,17.8-13.8,26.8-1.9,3.7-3.9,7.4-5.8,11.2-3.4,6.8-6.6,13.6-10.1,20.3-2.1,4.1-4.7,8-6.8,12.1-3.3,6.8-6.5,13.6-9.5,20.5-3.8,8.5-7.4,17-11.1,25.5-.9,2-.5,2.8,1.7,3.3,3.5.8,7,1.3,10.5,2.2,1.5.4,2.4.2,3-1.1.9-1.8,1.5-3.8,2.4-5.5,2.5-4.6,5.4-9.1,7.8-13.8,3.8-7.4,7.5-14.9,11-22.5,3-6.5,5.5-13.3,8.5-19.9,3.6-7.8,6.8-15.8,11.5-23,4.2-6.5,7.9-13.2,11.9-19.8,1.3-2.2,3-4.2,4.2-6.5,2.8-5.2,5.6-10.4,8.2-15.7a5.906,5.906,0,0,0,.6-3.9c-.1-.6-7-.5-8.8-.2ZM315.8,424a1.721,1.721,0,0,0-1.1,1.1,4.263,4.263,0,0,0,4.2,5c1.9,0,3.9.1,5.8.2,2.9,0,14.8-.7,17.9-.7,5.1-.1,10.2.2,15.3,0,8.4-.2,16.8-.9,25.2-.9,10-.1,20,.3,29.9.3,8.3,0,16.6-.2,24.9-.4,5.8-.1,11.5-.3,17.3-.5,6.5-.3,12.9-.6,19.4-.9,6-.3,12-.5,18-.7,8.3-.3,16.6-.7,24.8-.7,8.3.1,16.7.8,25,1,7.1.2,14.3.2,21.4.2,6.3,0,23.5-.3,27.8-.1s6.6-2.1,6.3-5.5a56.726,56.726,0,0,1-.5-5.8c0-1.6-.6-1.7-1.9-1.5a58.728,58.728,0,0,1-7.2.8c-8.5,0-17-.2-25.6-.2-3.6,0-7.3.2-10.9.2-5,0-10-.1-15,0-3.7.1-7.5.5-11.2.5-9.8,0-19.7-.3-29.5-.2-10.1.1-20.1.6-30.2,1-8.6.3-17.2.9-25.8,1.2-6.2.2-12.5,0-18.7.2-6.1.2-12.3.5-18.4.9-5.6.4-11.1,1.2-16.7,1.6s-11.1.5-16.7.8-11.2.6-16.7.8c-7.1.3-14.1.5-21.2.8-2.1-.3-12.9.9-15.9,1.5ZM556.4,189.1c-1.3,3-2.6,6-3.9,8.9-1.7,3.8-3.9,7.5-5.1,11.5-2.2,7.5-5.7,14.3-9.4,21.1-3.1,5.7-6.2,11.4-9,17.3-2.8,5.8-5.2,11.7-8.4,17.2-1.8,3.2-3,6.8-4.5,10.2-.5,1.3-2,2.2-3.1,1.4a14.278,14.278,0,0,1-4.2-3.9c-2.6-4.1-4.9-8.3-7.4-12.5l-9.3-15.9c-2.2-3.8-4.5-7.5-6.9-11.2-2.3-3.6-4.5-7.1-7-10.5-1.5-2.2-2.9-4.8-5.1-6.1-4.6-2.8-9.7-4.9-14.6-7.3-.5-.2-1.6.9-1.4,1.4,1.4,3.4,2.9,6.7,4.3,10a9.438,9.438,0,0,0,1.5,2.8c3.6,3.9,5.4,8.7,7.4,13.5,2.5,6.1,5.2,12.2,7.9,18.3,1.7,3.9,3.4,7.7,5.2,11.6.6,1.4,1.5,2.7,2.1,4.1,2,4.5,3.7,9.2,5.8,13.6,2.8,5.8,5.9,11.6,8.9,17.3a59.467,59.467,0,0,0,4.4,6.7c1.3,1.8,3.3,1.7,4.3-.3,1.9-3.7,4-7.3,5.3-11.2a140.176,140.176,0,0,1,6.1-15.1c3.5-7,6.6-14.2,10-21.3,1.7-3.5,3.6-6.9,5.4-10.4,2.7-5.3,5.4-10.5,8-15.8,1.6-3.3,2.8-7,4.7-10.2,5.2-8.9,9.9-18.1,14.4-27.3,1.4-2.9,3.2-5.7,4.5-8.6,1-2.3,1.4-6.2-.4-7.8-3.8-3.5-13.9-11.8-17.5-15.4-4-4-7.7-8.4-11.6-12.5a28.54,28.54,0,0,0-3.8-3.1l-.6-.3c0,.2-.1.5,0,.7.5,2.9.9,5.8,1.6,8.6a55.255,55.255,0,0,0,2.4,7.9,16.344,16.344,0,0,0,3,5.1,71.755,71.755,0,0,0,8.5,8c7.5,5.7,7.7,9,7.5,9.5ZM313,187.6c-3,.8-3.5,1.6-3.3,4.8.2,2.6.6,5.3,1,7.9.8,4.5,1.6,8.9,2.5,13.4.7,3.5,1.7,6.9,2.5,10.4.3,1.3,1,1.5,2.1.9a42.3,42.3,0,0,1,4.7-2.5c3.3-1.5,6.8-2.8,10.1-4.3,3-1.4,3.3-1.4,4.7,1.7a15.46,15.46,0,0,1,.7,2.3c1.2,4.2,2.4,8.4,3.7,12.6.5,1.8,1.1,2.1,2.5.9,7.4-6.3,14.8-12.7,22.1-19.2,2.4-2.1,4.3-4.6,6.6-6.9a130.937,130.937,0,0,0,26.2-39.1,3.6,3.6,0,0,0,.2-1.1,4.819,4.819,0,0,0-1.2,0c-4.6.8-9.1,1.5-13.7,2.4-5.4,1.1-10.8,2.3-16.2,3.5-5.3,1.2-49.5,10.9-55.2,12.3ZM195.8,356.9c.1-2.7,0-5.3.1-8a7.535,7.535,0,0,1,.7-3.3c.8-1.5,1.4-1.5,2.4,0,1.9,2.9,3.9,5.8,5.6,8.8,2.8,4.8,5.6,9.5,8,14.5,4.5,9.5,8.8,19.2,15.2,27.6,1.9,2.6,2.1,5.5,2.1,8.3,0,4.8-.6,9.5-.7,14.3-.2,8-.1,16.1-.2,24.1,0,3.4.1,6.8.2,10.2.1,4.6.1,9.2.2,13.8.2,4.5.5,9,.8,13.6a2.362,2.362,0,0,0,2.6,2.4,14.322,14.322,0,0,0,4.6-1.3,2.772,2.772,0,0,0,1.3-2.1c.3-3.6.5-7.3.5-10.9.1-4.9,0-9.8,0-14.6,0-3.2.2-6.3.2-9.5-.1-6.2-.4-12.5-.6-18.7a1.817,1.817,0,0,1,1.8-2.1,56.578,56.578,0,0,1,5.6-1.3c7.5-1.1,14.9-2.2,22.4-3.2,4.1-.6,8.2-1,12.3-1.5,3.8-.5,7.5-1,11.3-1.5,4.1-.5,8.2-.6,12.3-1.3,5.1-1,4.6-1.2,4.1-5.3-.1-.8-.1-1.6-.2-2.4-.1-1-.5-1.4-1.6-1.2-1.6.2-3.2.1-4.9.2-2.5.1-16.2,2-20.5,2.4-5.1.5-10.2.6-15.3,1.1-6.2.6-12.4,1.3-18.7,1.9a44.17,44.17,0,0,1-6.3.1c-2.3-.1-3.2-1.1-3-3.4.3-4,.8-8.1,1.1-12.1.6-7.5,1.2-15.1,1.8-22.6.3-3.7.5-7.4,1-11.1,1.1-8.2,2.4-16.4,3.3-24.6.6-6,.4-12.2,1.1-18.2.6-5.1-.7-9.2-3.6-13.4-4.7-6.7-8.7-13.9-12.9-21-4.5-7.7-8.6-15.7-13.4-23.3-6.2-9.7-12.9-19-19.4-28.4-.2-.4-.6-.6-1-.9a6.752,6.752,0,0,0-.2,1.4c0,4.9.2,9.9,0,14.8-.2,9-.6,18-1,27-.4,8.3-1,16.5-1.5,24.8-.2,3.6-.6,7.1-.8,10.7-.2,3.4-.1,6.8-.4,10.2-.6,7.6-2.3,15.1-1.7,22.8a54.767,54.767,0,0,1,.4,7c-.1,7-.5,13.9-.6,20.9-.2,6.9-.4,13.9-.3,20.8.1,6.4.6,12.8,1.1,19.1a4.262,4.262,0,0,0,1.6,2.6c1.4,1.1,3.3.3,3.6-1.7,1.2-4.5-1.1-45-.5-56.5ZM524,203.7c-.2-.9-.5-1.9-.7-2.9-1.6-6.6-3.4-13.2-4.8-19.8-1.6-7.3-2.8-14.7-4.3-22-.5-2.5-1.2-5-1.8-7.6-.8-3.3-1.7-6.6-2.3-10-.7-3.7-1.1-7.5-1.9-11.2-1.1-4.9-2.4-9.8-3.5-14.7-.3-1.2-.7-2-1.9-2.2s-10.5-3.2-13.9-4.5c-5.6-2-11.2-4.1-16.9-6-4.8-1.6-9.8-3-14.7-4.5-1.9-.6-3.6-1.4-5.5-1.9-6-1.8-12.2-3-17.9-5.3-8.4-3.4-16.5-7.5-24.7-11.4-3.6-1.7-7.2-3.5-10.8-5.1a4.329,4.329,0,0,0-1.6-.1,8.552,8.552,0,0,0,0,1.6c.8,2.6,1.7,5.2,2.5,7.9,1.2,3.7,2.4,7.4,3.5,11.1,1,3.3,1.7,6.6,2.8,9.8,3.6,9.8,5.9,19.9,8.2,30,1.1,4.8,1.7,9.8,3,14.5,1.6,5.8,3.7,11.4,5.6,17,1.9,5.8,3.9,11.6,5.8,17.5,1.4,4.3,3.7,7.8,7.9,9.9,3.6,1.8,7.1,3.9,10.7,5.6,7.5,3.7,15.1,7.3,22.7,11,3.6,1.7,7.2,3.4,10.7,5.4,3.7,2.1,7.1,4.8,10.9,6.9,6.5,3.6,13.3,6.8,19.9,10.3,1.6.9,2.3.4,3-1a64.324,64.324,0,0,1,3.2-7.1c3.1-5.8,4.7-12.1,6.3-18.4.2-.8.3-1.7.5-2.8ZM246.6,361.3a11.961,11.961,0,0,0,.9,1.2c.7.8,1.4,1.6,2,2.4.7.9,1,2.5,1.8,2.8s2.1-.5,3.2-1l15.3-6.9c6.1-2.8,12.2-5.6,18.4-8.3,3.9-1.7,7.9-3.3,11.9-4.9,4.3-1.8,8.7-3.7,13.1-5.3,4-1.5,23-9.3,28.4-11.8,4.8-2.2,9.6-4.3,14.4-6.4,4.3-1.9,8.6-3.9,12.8-6a7,7,0,0,0,2.7-2.7,2.864,2.864,0,0,0,.1-2.4c-1.8-4.1-3.8-8.2-5.7-12.4-1.8-4.1-3.3-8.3-5.1-12.4-2.7-6.2-5.5-12.3-8.2-18.4-3.6-8.3-7.1-16.7-10.7-25-.8-1.8-1.1-1.9-2.9-.8-2.3,1.4-4.5,3-6.8,4.3-2.4,1.7-4.3-.6-1.8-2.6.4-.3,5.7-3.6,7.8-4.9,1.2-.7,1.5-1.4.9-2.8-1.8-4.5-3.5-9.1-5.2-13.7-.9-2.3-.9-2.3-3-1.4S302.8,235,296.2,238c-5.7,2.6-11.4,5-17,7.6-7.6,3.6-15.1,7.4-22.4,11.7-4.4,2.7-9,5.2-13.6,7.6-5,2.7-10.2,5-14.5,8.7-.3.3-.6,1.2-.4,1.5,2.9,5.3,5.6,10.7,8.8,15.7,4,6.4,8.5,12.4,12.8,18.6a4.819,4.819,0,0,1,.7,3.9q-.75,6.75-1.2,13.5c-.3,4.8-.3,9.6-.7,14.4-.5,6.9-1.3,13.2-2.1,20.1Zm64.1,37.4c.8,6.4,1.6,12.7,2.4,19.1a2.464,2.464,0,0,0,2.7,2.5c2.2,0,4.4-.1,6.6-.2,5.7-.3,11.5-.7,17.2-1,7.4-.3,14.7-.3,22.1-.7,7.4-.3,14.7-.9,22.1-1.4,8.7-.6,17.3-1.3,26-1.9,4.8-.3,9.6-.5,14.3-.6,3.1-.1,6.3.1,9.4,0,4.4-.1,8.7-.4,13.1-.5,6.3-.2,12.7-.2,19-.5,9-.4,17.9-1,26.9-1.3,6.4-.2,12.8.1,19.1,0,8.5-.1,17-.3,25.5-.4,2.9-.1,5.8-.2,8.8-.3,5.4,0,10.9.3,16.3,0,10.6-.5,21.1-1.6,31.7-.8,2.1.2,2.6-.6,1.9-2.7-.6-1.7-1.2-3.4-1.9-5-2.7-5.8-5.2-11.7-8.1-17.4-3.4-6.6-7.4-12.8-10.5-19.5-3.9-8.4-8.9-16-14-23.7a46.408,46.408,0,0,1-4.1-8c-1.2-2.8-1.8-5.9-3-8.8-1.9-4.6-4.2-9-6.1-13.6-1.8-4.3-3.2-8.6-4.8-13-.4-1.1-.9-2.1-1.3-3.1-.5-1-1.1-1.3-1.7-.2a88.377,88.377,0,0,0-5.3,9.5c-1.8,4.1-3.1,8.3-4.6,12.5-.9,2.4-1.9,2.8-4.2,2-3-1-6-1.8-9.1-2.6a62.189,62.189,0,0,1-7.1-1.9c-.2-.1-6.3-1.1-7-1.7a13.558,13.558,0,0,1-2.3-3.4c-3.8-7.2-7.5-14.4-11.3-21.5a2.475,2.475,0,0,0-1.9-.9,6.027,6.027,0,0,0-2.3.6c-7.4,3-14.7,6-22,9.1-4.7,2-4.6,2.1-7-2.3a10.1,10.1,0,0,1-.7-1.5c-2.1-4.5-4.1-9-6.1-13.5-1.4-3.2-2.7-6.4-4.1-9.6-1.6-3.9-3.5-7.7-4.9-11.7,0-.1-.1-.2-.1-.4a89.9,89.9,0,0,0-6.7-15.2,5.74,5.74,0,0,0-.4-.7,50.537,50.537,0,0,1-2.4-5.3,1.946,1.946,0,0,1,1.3-2.9c1.8-.7,3.7-1.3,5.5-1.9,5.7-1.9,11.5-3.9,17.2-5.8,1.2-.4,2.3-1.1,3.6-1.6,1.2-.4,1.4-1,.8-2.2-2-3.8-7-15-7.6-16.7a2.827,2.827,0,0,0-1.1-1.5c-2.4-1.4-4.9-2.8-7.4-4.1-4.6-2.3-9.2-4.5-13.7-6.8a4.3,4.3,0,0,1-1.9-2.1c-1.9-5.8-3.8-11.6-5.6-17.4-.8-2.4-1.5-4.8-2.2-7.2-.5-1.6-1.4-2.3-3.3-1.8-3.6,1-7.3,1.6-10.9,2.5a3.788,3.788,0,0,0-2.3,1.8c-1.5,2.6-2.6,5.4-4.1,8-2.7,5-5.3,10.1-8.4,14.8-6.8,10.3-15.1,19.4-23.9,27.9-6.4,6.3-13.6,11.8-20.6,17.5-1.4,1.1-1.8,1.8-.9,3.6,1.8,3.7,3.3,7.6,4.9,11.4,1.4,3.4,2.8,6.9,4.3,10.3,2.6,5.7,5.8,11.1,7.8,17,3.4,9.5,8.1,18.4,12.3,27.5.3.6,3.4,5.3,3.9,7.5.6,2.9,1.7,8.9,2.2,12.8.2,2,.4,4.5-7.6,7.3-4.7,1.8-9.5,3.4-14.2,5.1-6.8,2.5-13.5,5-20.3,7.6-4.7,1.8-9.4,3.7-14,5.6-2,.8-2.1,1.9-.5,3.1,2.4,1.9,4.9,3.8,7.4,5.6a96.6,96.6,0,0,0,22.7,11.4c5.1,1.7,10.4,3,15.6,4.4a81.974,81.974,0,0,0,8.6,1.8c3.4.4,6.9.4,10.4.8a47.416,47.416,0,0,0,17.6-1.3c4.3-.6,5.1,4.1-2.2,4.5-5.7.4-11.4.6-17.1.5A69.893,69.893,0,0,1,375,383c-2.2-.5-11.3-1.8-19.3-4.6-9-3.1-17-7.5-20.6-9.3-5.1-2.5-10.1-5.6-13.9-10a12.265,12.265,0,0,0-2.8-2.3,2.984,2.984,0,0,0-2.4-.4c-2.4.9-4.6,2-6.9,3a2.865,2.865,0,0,0-1.9,3.5c.1.7.1,1.5.2,2.2.5,7.7,2.8,29.8,3.3,33.6Zm-2.7-197c-.9-4.4-1.8-8.7-2.7-13.1-.3-1.7.2-2.8,2-3.2,4.1-.9,8.1-2.1,12.3-3,5.6-1.1,11.2-2,16.7-3,1.4-.3,2.9-.6,4.3-.9,4.4-1,8.8-1.9,13.3-2.9,6-1.3,12-2.7,18-4.1,3.1-.7,6.1-1.5,9.2-2.1,5.6-1.2,11.1-2.3,16.7-3.3a5.512,5.512,0,0,0,4.7-3.6,114.647,114.647,0,0,0,7.7-24.1c.6-3.3-.4-6.4-1.2-9.5-3.1-10.9-6.2-21.9-9.6-32.7-2.5-7.9-5.4-15.6-8.2-23.4-.9-2.6-.8-3.2,1.8-4.3,3-1.3,6.1-2.3,9.1-3.4a14.164,14.164,0,0,0,1.8-.8c2.8-1.6,5.3-2.1,8.6-.4,4.4,2.2,9.3,3.2,14,4.7,5.1,1.6,10.3,2.9,15.3,4.9,9.3,3.7,68.2,24.6,72.5,25.4,3.2.6,5.7,2.5,8.1,4.5.5.4.6,1.5.7,2.2.4,2.7.7,5.5,1.1,8.2a5.461,5.461,0,0,0,.6,1.8,43.552,43.552,0,0,0,4.8,6.3,47.411,47.411,0,0,0,6.2,4.6,27.824,27.824,0,0,1,3.3,2.7c2.9,2.5,5.6,5.1,8.5,7.6,5.4,4.8,10.8,9.6,16.3,14.2,3,2.6,6.3,4.8,9.4,7.2,1.7,1.3,3.3,2.6,5,3.8,2.9,2.2,5.8,4.3,8.7,6.6,2.2,1.8,4.3,3.7,6.5,5.5,1.3,1.1,2.6,2.2,3.9,3.2,2.1,1.7,2.4,2.4,1.5,5a67.4,67.4,0,0,1-6.6,13.8c-4.5,7.1-8.9,14.3-13.4,21.4a209.186,209.186,0,0,0-12.8,23.8c-3.5,7.5-7.2,14.9-10.6,22.4-2.3,5.2-4.1,10.6-6.3,15.8-1.3,3-2.7,5.9-4.2,8.8a4.366,4.366,0,0,0-.3,3.7c1.9,5.4,3.6,10.9,5.6,16.3,1.2,3.2,2.6,6.3,4,9.4.8,1.9,1.7,3.7,2.4,5.5,1.5,3.8,2.7,7.6,4.3,11.3a67.637,67.637,0,0,0,4.3,7.9c3.2,5.1,6.7,10,9.6,15.2,2.7,4.7,4.7,9.8,7.1,14.7,1.6,3.1,3.4,6.1,5,9.2,3.2,6.2,6.4,12.4,9.5,18.6,1.1,2.2,1.7,4.5,2.6,6.8.1.2.1.5.2.7a20.13,20.13,0,0,1,1.5,8.2c-.1,3.2,0,6.4.1,9.6,0,1.3.1,2.5-1.7,2.6-3.8.4-7.7,1-11.5,1.3-3.9.3-7.8.4-11.7.4-9.1,0-18.2-.2-27.3-.3-3.5,0-7-.1-10.5-.1-2.7,0-3.3.9-2.4,3.4.8,2,1.4,4,2.1,6,2,5.5,4.1,10.9,5.9,16.5,2.6,7.8,5.2,15.7,7.4,23.6,3.3,11.9,6.2,23.9,9.5,35.8a227.446,227.446,0,0,0,10.5,31.1,150.733,150.733,0,0,1,5.2,14.7c1,2.9.5,3.5-2.5,4.2-2.7.6-5.3,1.4-8,2.1a9.82,9.82,0,0,1-3.4.3,2.087,2.087,0,0,1-1.6-1.1c-1.3-3-2.4-6-3.6-9-2.9-7.1-6-14.2-8.8-21.4-2-5.1-3.8-10.4-5.5-15.6-2.4-7.2-4.8-14.5-7.1-21.8-3.2-9.9-6.3-19.8-9.4-29.7-1.1-3.4-1.9-6.9-3.2-10.2-2.1-5.3-4.6-10.4-6.8-15.6-1.8-4.2-3.4-8.6-5.2-12.8a2.3,2.3,0,0,0-1.8-1.2c-6,.1-12,.3-18,.5-2.8.1-5.5-.2-8.3,0-3.5.2-6.9.7-10.4.9-7,.4-14,.7-20.9.9-10.4.3-20.8.6-31.1.8-4.8.1-9.6.1-14.3,0-1.3,0-1.8.3-2.1,1.6a26.526,26.526,0,0,1-2.1,4.1c-2.1,4.3-4.2,8.6-6.2,13-2.3,5.1-4.4,10.3-6.8,15.3-3.8,8-7.8,15.8-11.5,23.9-2.6,5.6-4.6,11.4-7,17.1-1.4,3.3-2.9,6.5-4.3,9.8-3.7,8.5-7.9,16.7-12.3,24.9a11.917,11.917,0,0,0-.8,2c-.6,2.4-1,4.9-2.6,7a7.414,7.414,0,0,0-.8,3c-.4,2.3-1.1,3-3.3,2.4-4.1-1.1-8.1-2.3-12.1-3.6a2.517,2.517,0,0,1-1-2.1,36.922,36.922,0,0,1,1.5-7.2c3-9.4,6-18.8,9.1-28.1,2.1-6.4,4.3-12.7,6.6-19.1,2.4-6.5,4.8-13,7.5-19.4,2.7-6.6,5.7-13.1,7.6-19.9.3-1.1-.2-1.6-1.1-1.7-2.8-.4-5.6-1.1-8.4-.8-4.2.5-4.2-1.4-4.5-4.2-.3-3-.7-6.1-1-9.1-.2-2.3-.6-4.5-.6-6.8,0-1.3-.5-1.5-1.6-1.5-1.3,0-2.6.1-3.9.1-3.2,0-3.8.6-3.9,3.8-.1,4.1-.1,8.3-.2,12.4v1.2h-.3c.3,6.5.5,13,.8,19.5.1,2.8.4,5.5.7,8.2.2,1.7-.6,2.4-2.3,2.6-1.9.2-3.8.9-5.7,1.3-2.7.5-3.6-.4-3.6-3,.2-7.5.5-14.9.6-22.4a72.239,72.239,0,0,0-.8-8c-.4-3.8-.6-7.6-1-11.4-.3-2.7-1.1-3.4-3.8-3.3-2.9,0-5.8.3-8.8.4-3.5.1-5.2-1.5-5.5-5-.3-2.9-.8-5.8-1.2-8.7a1.72,1.72,0,0,0-2.2-1.6c-2.5.3-5,.5-7.5.8-7.2.8-14.4,1.4-21.6,2.3-8.7,1.1-17.3,2.5-26,3.9-2.8.4-5.6,1.1-8.4,1.5a2.2,2.2,0,0,0-2.1,2.5c0,2,.1,4,.1,6.1.1,4.3.1,8.6.1,12.9,0,4.5.2,9.1.1,13.6-.2,7.5-.6,15.1-.8,22.6,0,1.6-.5,1.8-2,1.8-3.2-.1-6.4-.1-9.4,1.5-2.5,1.3-3.6.6-3.7-2.2-.2-3.8-.7-7.6-.8-11.4-.1-5.3.1-10.5.1-15.8,0-5.2-.2-10.4-.2-15.6,0-6.3.3-12.7.4-19,0-6.3-.1-12.5-.1-18.8a9.638,9.638,0,0,0,0-2.4c-.3-1.5-.4-3.1-1.2-4.3a120.108,120.108,0,0,1-10.9-18.7c-3.3-7.1-6.9-14-10.4-20.9a31.1,31.1,0,0,0-2.5-3.8,9.336,9.336,0,0,0-1.5-1.3,6.071,6.071,0,0,0-.5,1.8c-.1,6.3-.4,12.6.1,19,.8,11.1,1.2,22.2,1.5,33.3a56.158,56.158,0,0,1-.7,9.2c-.1.7-1.2,1.5-2,1.7a55.374,55.374,0,0,1-6.9,1.2c-2,.3-2.9-.6-2.9-2.5-.1-4.8-.4-9.6-.6-14.3-.1-2.3-.1-4.5-.1-6.8.1-8.1.2-16.2.3-24.4.1-8.7.3-17.4.5-26.1.1-6.2-.1-12.4.7-18.5.8-5.9,0-11.8.8-17.7q.6-4.65.9-9.3c.4-7.8.7-15.7,1.1-23.5.4-6.6,1-13.2,1.2-19.9.2-6.8,0-13.6-.1-20.4-.1-2.3-.8-4.6-.9-6.9a3.62,3.62,0,0,1,1-2.7,3.253,3.253,0,0,1,2.7.2,16.683,16.683,0,0,1,3.3,3.2c9,13.3,18.9,26.1,26.7,40.3.7,1.2,1.3,1.2,2.3.6,2.9-1.9,5.8-3.8,8.8-5.6,4.1-2.4,8.2-4.5,12.4-6.8,5.9-3.2,11.8-6.6,17.8-9.6,8.2-4.1,16.6-7.9,24.9-11.7,6.4-2.9,12.9-5.7,19.3-8.7,2.7-1.2,2.7-1.3,1.5-4" fill="#181715" fill-rule="evenodd"/>
    <path id="Path_748" data-name="Path 748" d="M422.2,342.1a29.163,29.163,0,0,0,2.9-.7c4.4-1.7,8.8-3.5,13.1-5.3,2.7-1.1,5.3-2.4,7.9-3.7,1.1-.5,2.1-1.3,1.5-2.9-1.4-3.9-2.7-7.8-4.3-11.6-2.4-5.9-5.1-11.7-7.5-17.7-3-7.4-5.7-14.8-8.6-22.2-2-5-4-10-6.1-15-1-2.5-2.3-4.8-3.2-7.3-2.9-8.9-5.7-17.8-8.6-26.6-.7-2.1-1.4-2.7-3.6-2.3-3.3.5-6.7,1.2-10,1.9a50.978,50.978,0,0,0-6.3,2c-5.6,2.1-5.6,2.2-4,8,.2.5.3,1.1.5,1.6,3.2,8.7,6.6,17.3,9.6,26,2.5,7.4,4.3,15,6.5,22.4,1.9,6.5,4,12.9,6,19.3,3.2,9.9,6.6,19.7,8.4,29.9,1,3.1,2.3,4.2,5.8,4.2Zm-5.7,3.6c-1.6-5.1-3.1-10.3-4.6-15.4-.7-2.4-1.2-4.9-2-7.3l-8.1-25.2c-2.2-7-4.6-14-6.4-21.2a207.1,207.1,0,0,0-8.8-26.6c-2-4.9-4.1-9.7-6.1-14.6-.3-.7-.4-1.4-.7-2.1a2.2,2.2,0,0,1,1.6-3.2c3.8-1.3,7.7-2.6,11.5-3.8,2.3-.7,4.6-1.4,7-2,3.1-.8,6.1-1.4,9.2-2.1,1.6-.3,2.5.1,3,1.9,1.8,6.7,3.7,13.3,5.6,19.9.5,1.6,1.3,3,1.8,4.5,1.1,3.2,17.1,43.8,19.2,49.2,1,2.6,2.1,5.1,3.2,7.6,3.1,7.4,6.4,14.7,9.4,22.2,2.4,5.9,2.6,5.2-2.9,7.8-8.6,4.1-17.4,7.5-26.2,11.1-2.3,1.5-5.1.6-5.7-.7Z" fill="#181715" fill-rule="evenodd"/>
    <path id="Path_749" data-name="Path 749" d="M479.7,187.2v1c-.1,3.3-.7,3.9-3.7,2.9-7.2-2.3-14.3-4.7-21.5-7-1.8-.6-3.6-.9-5.4-1.4-2.1-.5-4.5-5.7-4.7-7.3s2.2-3.3,2.7-1.1a9.857,9.857,0,0,0,1,3.2c.4.8,1.1,1.9,1.9,2.1,8,2.7,16.1,5.2,24.1,7.7,2.2.7,2.2.7,2.6-1.7a3.773,3.773,0,0,1,.5-1.6c.3-.4.9-.8,1.3-.7a1.973,1.973,0,0,1,1.1,1.1,3.329,3.329,0,0,1,.1,1.4,3.267,3.267,0,0,1,0,1.4Z" fill="#181715" fill-rule="evenodd"/>
    <path id="Path_750" data-name="Path 750" d="M482.7,137.3c-.1,1-.2,2.3-1.9,2.5-1.3.1-2.2-1.1-2.2-2.9,0-1.4.5-2.4,2.1-2.4,1.5.1,2.1,1,2,2.8Z" fill="#181715" fill-rule="evenodd"/>
    <path id="Path_751" data-name="Path 751" d="M438.4,128.3c-.5-1.6-1.4-2.9-2.3-2.9s-1.8.9-1.5,2.6.6,1.9,1.8,2.4c0,0,2.5-.5,2-2.1Z" fill="#181715" fill-rule="evenodd"/>
  </g>
</svg>
