<svg id="follow" xmlns="http://www.w3.org/2000/svg" width="335.126" height="373.518" viewBox="0 0 335.126 373.518">
  <path id="Path_701" data-name="Path 701" d="M458.7,134.3l-1.6-25.7a68.841,68.841,0,0,1,9.3-4.3c3.3-1,6.6-2.9,13.6-1.9s15.4.8,20.4,2.3a87.937,87.937,0,0,1,10.9,4.5l1.2,18.1L497,132.4l-8.4-8.9-.6,9.3Z" transform="translate(-265.688 -97.871)" fill="#7bc290"/>
  <path id="Path_702" data-name="Path 702" d="M453.9,456.7v-6.6c0-1.8.4-2.1,2.2-2.5,2.4-.4,4.7-.9,7.1-1.3,1.8-.3,3.7-.7,5.5-.9,1.4-.2,1.7.2,1.6,1.6,0,.2-.1.5-.1.7-.7,5.2-1.3,10.5-2,15.7-.1.5-.2,1.1-.3,1.6s-.4.5-.8.3c-.5-.3-1-.7-1.5-1a1.92,1.92,0,0,0-2.5,1,2.23,2.23,0,0,0,.9,2.5c.3.2.7.1,1,.3a7.814,7.814,0,0,1,2,1.1,4.811,4.811,0,0,1,.9,1.1,2.519,2.519,0,0,0,2.6.6c.8-.3,1.1-.9,1.1-2.1a2.768,2.768,0,0,0-.1-.9,14.565,14.565,0,0,1-.2-5.5c.6-5.4,1.2-10.7,1.7-16.1.2-1.6.4-1.8,1.9-2.1.2,0,.5-.1.7-.1,5.3-.7,10.7-1.5,16-2.3a24.724,24.724,0,0,0,4.7-1.1,2.6,2.6,0,0,0,2-2.7,17.632,17.632,0,0,0,0-2.3c-.5-6.2.2-12.5.3-18.7,0-1.2.2-2.4.2-3.6a3.511,3.511,0,0,1,1.2-2.5,46.9,46.9,0,0,0,7.9-9.3c2.6-3.6,4.5-7.6,6.8-11.5,2.4-4.2,4.4-8.6,4.9-13.6.2-2.2.8-4.4,1.1-6.6.2-1-.3-1.5-1.4-1.7-.7-.1-1,.1-1.2,1.2-.3,1.7-.5,3.4-.8,5.2-.8,4.8-2,9.4-4.6,13.6-1.4,2.4-2.7,4.8-4.1,7.2a55.937,55.937,0,0,1-6.3,9c-.7.8-1.5,1.5-2.3,2.3a1.421,1.421,0,0,1-.6.2.713.713,0,0,1-.3-.6,16.948,16.948,0,0,1,.1-2.3c.3-2.8.5-5.6.9-8.4l2.4-18.9c.5-4.1,1.3-8.2,1.3-12.3a4.918,4.918,0,0,1,.4-2.1c.6-1.6,0-2.8-1-4-.9-1.1-2-2.1-2.8-3.3a3.225,3.225,0,0,0-3-1.5c-1.6.1-3.2.3-4.8.5-1.8.3-3.5.8-5.3,1.1-3.9.7-7.8,1.3-11.7,1.9l-17.1,2.4c-5.3.8-10.6,1.5-15.8,2.4-5.5.9-11.1,2.1-16.6,3.1-2.2.4-4.5.7-6.7,1.1-2.5.4-3.5,1.5-3.7,4.1-.1,1.7-.3,3.5-.4,5.2-.2,3-.4,6-.5,9-.2,3.4-.3,6.8-.5,10.2-.1,1.6-.4,3.1-.6,4.6-.1.5-.4.7-.7.3a24.042,24.042,0,0,1-4.4-6.5c-1.5-4-3-8-4.4-12-.4-1.2-.7-2.4-1-3.6-.7-2.2-1.3-4.5-2-6.7-.2-.6-.5-.7-1.1-.6a5.64,5.64,0,0,0-1.2.4,2.177,2.177,0,0,0-.5.8c-.1.3.1.6.2.9,1.6,5.5,3.2,10.9,4.9,16.4a37.176,37.176,0,0,0,8.6,14.4,3.928,3.928,0,0,1,1.2,3.1c0,2.4,0,4.8.1,7.2.3,8.1.7,16.2,1.1,24.3.1,2.5.2,5,.2,7.5a3.192,3.192,0,0,0,1.4,2.9,26.3,26.3,0,0,1,5,4.4,3.733,3.733,0,0,0,3.1,1.2,21.662,21.662,0,0,0,2.5-.4c1.5-.3,2.9-.7,4.4-.9,4-.6,7.9-1.2,11.9-1.8,2-.3,3.9-.8,5.8-1.1,1.4-.2,1.6-.1,1.7,1.3.1,3.5.1,7,.1,10.4a31.257,31.257,0,0,1-.4,4.3c-.1.8-.3.9-1.1.6a5.918,5.918,0,0,0-1.9-.5,1.927,1.927,0,0,0-1.7,1.4c-.2.7.4,1.1.8,1.5a2.092,2.092,0,0,0,.6.4c1.2.8,2.4,1.5,3.6,2.3a2.307,2.307,0,0,0,2.4.1c1.2-.6,1.6-1.7,1.5-3.4-.3-2.3-.5-4.5-.6-6.8,0-1.6.1-2.9.1-4.2Z" transform="translate(-265.688 -97.871)" fill="none"/>
  <path id="Path_703" data-name="Path 703" d="M352,291.9V273.2c0-2.6.3-10.1.2-11.3,0-.2-.2-.4-.3-.6a1.425,1.425,0,0,0-.4.2,4.349,4.349,0,0,0-.6.7c-3.6,4.8-11.8,29.5-13.6,36.4a33.781,33.781,0,0,0-1,10.5v1.4a1.09,1.09,0,0,1-1,1.1,1.053,1.053,0,0,1-1.3-.7,5.547,5.547,0,0,1-.3-1.7,43.282,43.282,0,0,1,1.1-11.4c1.4-6,4.3-15.1,6.4-21.6,2.5-7.8,11.1-23.6,11.1-23.6s-.3-10.3-.2-15.5c.1-4.5.6-9,.8-13.5.2-4.3.4-8.6.5-12.9,0-1.1-.1-1.3-1.2-1.3-3.2-.2-6.5-.3-9.7-.4-1.4,0-1.5.1-1.5,1.5,0,6.3.1,12.6.2,18.9,0,1.1-.1,2.2-.1,3.2,0,1.7,0,3.5.1,5.2a3.675,3.675,0,0,1-.7,2.5c-1,1.3-1.8,2.7-2.8,4-3,3.7-6,7.4-9,11a3.98,3.98,0,0,0-1.1,3.1l.3,6.6a12.4,12.4,0,0,0,3.2,7.8,14.7,14.7,0,0,1,1,1.3,1.377,1.377,0,0,1-.2,1.8,1.622,1.622,0,0,1-2,.2,1.381,1.381,0,0,1-.4-.3c-1.4-1.7-2.8-3.3-4.1-5a4.128,4.128,0,0,1-.4-2.2v-8a5.39,5.39,0,0,0-.3-1,7.255,7.255,0,0,0-.9.5c-1.9,2.1-3.8,4.1-5.7,6.2a2.744,2.744,0,0,0-.8,2.3c.2,2,.3,4.1.6,6.1a4.75,4.75,0,0,0,3.2,4c.3.1.7.3,1,.4a1.555,1.555,0,0,1,.7,2.1,1.508,1.508,0,0,1-2.2.8c-1.4-.7-2.7-1.5-4.1-2.2a1.984,1.984,0,0,1-1-1.6c-.2-1.8-.4-3.7-.7-5.5a15.984,15.984,0,0,0-.5-2.1c-.9,0-1.3.8-1.8,1.3-2.1,2.3-4.2,4.6-6.3,7-1.1,1.2-1.1,1.4-.1,2.8,3.3,4.8,6.7,9.5,10,14.3a43.763,43.763,0,0,1,4,7,5.105,5.105,0,0,1,.3,3c-.5,2.9-.8,5.8-1.3,8.7a2.109,2.109,0,0,0,1.2,2.5c1,.5,2,1.1,3,1.6.7.3,1.3,1.1,1.5.4.1-.5,2.1-5.4,2.4-6.1.6-1.3,1.7-1.4,2.5-.2a4.793,4.793,0,0,1,.7,2c.4,3.4,1.2,12.9,1.3,14.3a2.058,2.058,0,0,1-1.5,2.2c-.8.3-7.5,2.6-10,3.5-1.6.6-1.9,1-1.9,2.6v5c0,2,.8,3.7,1.4,5.5a3.839,3.839,0,0,0,1.1,1.1c.8.5,34.5,22.6,42,26.4,3.2,1.7,6.6,3,10,4.5,2.6,1.2,10.9,5.2,12.4,6.1a2.422,2.422,0,0,1,1.1,2.2,16.251,16.251,0,0,1-.3,3.8c-1.6,8.8-4.9,32.6-5.1,35.6-.4,5.2-.9,17.7-.8,18.7a3.571,3.571,0,0,1-2.1,4c-1.9,1-3.7,1.9-5.6,2.9a3.5,3.5,0,0,1-3,0c-2.7-1-5.5-2-8.3-3-2-.7-4-1.4-5.9-2.1-1.1-.4-1.3-.2-1.4.8-.1,4.3-.1,8.5-.1,12.8,0,1.3.3,1.5,1.7,1.2l3-.6a4.868,4.868,0,0,1,1.2-.1,1.048,1.048,0,0,1,.8,1.8,3.6,3.6,0,0,1-1.4,1.1c-1.6.7-3.3,1.4-5,2.1a2.965,2.965,0,0,1-2.6-.2c-1.1-.6-1.4-1.1-1.1-2.3a44.651,44.651,0,0,0,.8-8.9v-6.8a4.385,4.385,0,0,0-2.6-4.3c-4.2-2.1-8.5-4.3-12.7-6.4-1.3-.6-1.5-.6-1.8.9a26.987,26.987,0,0,0-.6,4.1c-.1,1.3.2,2.6.2,3.9.1,2.1.1,4.2.1,6.3,0,1.5.4,1.8,1.9,1.4,1-.3,2-.7,3.1-1a7.005,7.005,0,0,1,1.4-.3,1.3,1.3,0,0,1,1.2,2,3,3,0,0,1-1.3,1.2c-2,1.1-4.1,2-6.1,3a2.739,2.739,0,0,1-3-.4,1.88,1.88,0,0,1-.8-1.7v-.4c.5-6.1-.1-12.2.1-18.3a3.973,3.973,0,0,0-2.9-4.1c-4.8-2-9.5-3.9-14.3-5.9-2.6-1.1-5.1-2.3-7.7-3.4a3.332,3.332,0,0,1-2.3-3.4c.1-2.3,0-4.7.1-7,.1-3.2.2-6.5.2-9.7.1-7.4.3-14.8,1-22.1a17.632,17.632,0,0,0,0-2.3c0-.9,0-1.6-1.1-1.9-.5-.2-4.3-6.9-5.9-9.6-.1-.2-.2-.3-.3-.5-.3-.3-.6-.5-.9-.8a5.359,5.359,0,0,0-.5,1.1c-.4,2.2-1.6,9.3-1.8,10.6-.3,1.8,0,2.3,1.8,3,.6.2,1.2.5,1.8.7.7.3,1.4.5,1.3,1.5a2.248,2.248,0,0,1-2.1,1.7,1.7,1.7,0,0,1-.7-.1c-1.1-.4-2.3-.7-3.4-1.1a3.011,3.011,0,0,1-2-3.7c.4-2.5.9-5,1.4-7.5a.367.367,0,0,1,.1-.3c.3-1.9.6-3.8,1-5.7a9.659,9.659,0,0,0-1.6-7.4c-1.8-2.6-3.7-5-5.6-7.5-.1-.2-.4-.3-.6-.4-.1.3-.3.5-.4.8-.3,2.1-1.1,8.4-1.2,9.5a5.069,5.069,0,0,0,3.2,5.6c.4.2.8.2,1.2.4a2.285,2.285,0,0,1,1.2,2.7,1.853,1.853,0,0,1-2.6.8,45.9,45.9,0,0,1-5-2.4c-1.3-.7-1.7-1.8-1.5-3.4.6-4.3,1.3-8.7,1.9-13a11.549,11.549,0,0,0-2-8.4c-.5-.7-7.8-11.9-8.7-13.2a5.028,5.028,0,0,1-1.2-3.7c.1-2.9.1-25.1-.1-33.3-.1-4.6,1-21.9,1.4-26,.2-2.2,1.9-11.7,2.1-14.3.3-3,.7-3.4,3.6-4.1a40.048,40.048,0,0,1,4.8-.8,2.818,2.818,0,0,1,3.1,1.4c.1.2.3.4.4.6l.6.3a1.421,1.421,0,0,0,.2-.6c-.2-3.2-.4-6.3-.5-9.5-.1-3.8-.1-7.6-.2-11.3v-1.6a4.265,4.265,0,0,0-2.3-3.8c-3.2-1.6-11.5-9.4-13.3-10.6a5.561,5.561,0,0,1-2.4-4.2c-.2-2.1-1.7-16.6-1.8-18.4-.1-1.3.4-1.7,1.5-1.7.7,0,1.2.2,1.3,1,.2,1.4,1.6,14,1.7,15,.2,1.4.4,2.8.6,4.3a2.653,2.653,0,0,0,1.1,1.8c.5.4,10.6,9.2,12.2,10,.8.4,1.1.2,1.2-.7v-1.3c-.2-4.1-.3-8.3-.5-12.4-.1-2.2-.4-4.4-.5-6.6-.1-1,0-2-.1-3.1,0-2.1,0-4.2-.1-6.3a3.124,3.124,0,0,1,1.6-3,13.9,13.9,0,0,1,2.1-1.1c2.5-.9,5-1.8,7.4-2.7l15.6-6c6.1-2.4,12.3-4.8,18.4-7.3a5.015,5.015,0,0,1,3.6-.2c.2.1.3.1.5.2,1,.2,1.2.1,1.3-.8.1-1.3.2-2.5.2-3.8,0-4-.1-8-.2-12.1l-.3-6.6a20.851,20.851,0,0,1,0-2.5,4.906,4.906,0,0,1,2.2-4.1l4.5-3a9.884,9.884,0,0,1,5.3-1.5,173.609,173.609,0,0,0,17.6-1.3c6.1-.8,12.2-1.5,18.4-2.2,3.7-.4,7.4-.6,11.1-.8,2.3-.2,4.7-.3,7-.4,2.2-.1,2.8.6,3.2,2.7.6,3.5.1,6.9-.2,10.4-.5,6.3-1.2,12.5-1,18.8.1,2.4,0,4.8,0,7.2v1.4c.1.9.4,1.2,1.3,1,.4-.1.7-.2,1-.3,7.3-1.8,14.5-3.7,21.8-5.4,4.5-1.1,9-1.9,13.5-2.9a4.22,4.22,0,0,1,3.6.7c2.1,1.4,4.3,2.8,6.5,4.2a6.526,6.526,0,0,1,3.3,6.7c-.4,5.3-.8,10.5-1,15.8-.4,7-.6,14-.9,21,0,.2-.1.5,0,.7,0,.6.3.7.8.4,1.4-.9,9.7-7.4,12.5-9.8l.1-.1a20.447,20.447,0,0,0,4-4.8c3.2-5,9.5-18.9,13-31.9a104.531,104.531,0,0,0,3.5-23.9c-.1-1.2-.4-1.4-1.6-1.4-1.6,0-3.1,0-4.7.1a71.263,71.263,0,0,1-12.2-.6c-2.2-.2-13.3-1.4-21.2-6.9-2.4-2.1-4.2-4.6-3.5-8a9.867,9.867,0,0,1,4.6-6.8,17.723,17.723,0,0,1,3.1-1.5,1.521,1.521,0,0,0,1-1.3,37.347,37.347,0,0,0-.7-8.2c-.2-1-.3-2-.4-3a4.1,4.1,0,0,1,1.8-3.7,16.634,16.634,0,0,1,4.5-2.5,53.927,53.927,0,0,1,18.6-3.6h.4c4.6-.6,9.2.1,13.8.7,2.6.3,5.1.5,7.7.8a34.045,34.045,0,0,1,7,1.7,9.147,9.147,0,0,1,1.7.9,3.793,3.793,0,0,1,2.1,3.6c-.1,2.4.2,4.8.1,7.2a3.208,3.208,0,0,0,2.1,3.3c1.5.7,2.9,1.5,4.3,2.3,4.4,2.7,6,6.8,5.6,11.8a3.85,3.85,0,0,1-1.1,2.4,17.041,17.041,0,0,1-3,2.3,55.158,55.158,0,0,1-15.2,5.9c-.3.1-.6.1-.9.2-1.2.3-1.3.3-1.2,1.6.1.9-.4,1.2-1.1,1.4l-4.8,1.5c-2.2.7-2.5.1-2.7,3.2-.3,4.7-5.6,28-11.1,41.2a110.67,110.67,0,0,1-6.2,11.8c-2.8,5-6.8,8.9-11.2,12.5-2.1,1.7-7.2,5.5-7.6,5.8a4.813,4.813,0,0,0-2.1,4.1c0,5.3-.2,10.6-.2,15.8,0,7.5.6,41.8.6,41.9.1,3.1-.4,3.8-3.3,4.6-6.3,1.8-19.9,5.5-20.4,5.6-1.4.3-1.7.7-1.8,2.2-.2,3-.6,15.2-.7,18.3-.1,2.8-.4,16.1-.6,19.9a13.632,13.632,0,0,0,3.1,9.5c.9,1.1,1.7,2.2,2.5,3.3a19.1,19.1,0,0,1,1.5,2.8,1.062,1.062,0,0,1-.2,1.3,1.212,1.212,0,0,1-1.5.2,4,4,0,0,1-1.2-1l-3.6-4.5a6.964,6.964,0,0,0-2.6-2.2c-1.5-.8-2-1.6-1.6-3.2,1-4,.7-8.1.8-12.2.2-6.4.7-27.4.7-31.5,0-1.2-.1-1.4-1.2-.9-5.6,2.5-11.6,4.2-17.4,6.2-1.7.6-1.9.8-1.9,2.6,0,5.1-.1,10.2.4,15.3v.5c.1,1.8.1,3.7.1,5.5.1,3.7.1,7.3.4,11,.3,4.4,1.2,8.7,3.7,12.4a62.147,62.147,0,0,1,3.2,5.6,1.905,1.905,0,0,1,.5,1,1.943,1.943,0,0,1-.3,1.3,1.5,1.5,0,0,1-1.3.1,4.28,4.28,0,0,1-1.6-1.4c-1.6-2.1-3.2-4.3-4.8-6.5a37.62,37.62,0,0,0-2.5-3.1,2.738,2.738,0,0,1-.5-3.3,5.958,5.958,0,0,0,.3-3.5c-.1-.9-.8-31.2-1-33.4a5.019,5.019,0,0,0-.2-1.2c-.2-.8-.4-.9-1.1-.5-6.3,3-13.1,4.6-19.5,7.3-2.9,1.3-11.6,5.7-12.8,7.1-1.9,2.2-3.6,2.5-6.2,1.4-1.3-.6-5.2-2.4-5.8-2.8a3.254,3.254,0,0,1-1.3-3.1c-.1-4.6-.1-18.4,0-20.8h0Zm11.6-32.2h-.1c.1,10.7.3,21.3.4,32,0,5.6-.2,11.1-.3,16.7,0,1.1,0,2.2.1,3.2a1,1,0,0,0,1.5.9c.9-.4,1.7-.8,2.6-1.2,2.4-1.1,4.7-2.5,7.1-3.4,6.2-2.3,12.4-4.5,18.6-6.7,1.1-.4,2.1-.8,3.2-1.3a14.77,14.77,0,0,1,5.1-1.8,13.893,13.893,0,0,0,1.9-.6c2.8-1,5.6-2.1,8.4-3.1,3.8-1.4,7.7-2.7,11.5-4.1.9-.3,1.8-.7,2.7-.9,6.6-1.4,12.9-3.8,19.3-5.6a2.628,2.628,0,0,0,2.1-2.8c0-3.2-.1-6.5-.1-9.7v-3.1c.1-2.9.4-5.8.3-8.6-.1-5-.3-10.1,0-15.1.1-1.1,0-2.2,0-3.2,0-2.5-.2-4.9-.1-7.4.2-6.9.4-13.8.7-20.7.2-5,.5-10.1.8-15.1.3-5.7.6-11.5.9-17.2.1-1.2,0-2.4,0-3.6,0-1.5-.1-1.6-1.5-1.3-2,.5-4.1,1.1-6.1,1.7-10.6,3.3-21.1,6.6-31.8,9.8-14.3,4.3-28.7,8.4-43.1,12.7a19.451,19.451,0,0,0-2.2.8,1.5,1.5,0,0,0-1,1.5c0,2.6-.2,5.2-.2,7.7-.2,7.4-.3,14.7-.5,22.1,0,.6-.1,1.2-.1,1.8-.1,5.6-.3,11.3-.4,16.9,0,3,.2,5.9.3,8.7Zm13.9,135.4a2.73,2.73,0,0,0-1.6-2.8c-3.5-1.8-7-3.6-10.6-5.4-2.1-1.1-4.2-2-6.3-3.2-7.1-4.1-39.8-21.6-48.2-27.9l-.9-.6c-.5-.2-.8-.1-1,.4a1.7,1.7,0,0,0-.1.7c-.4,3.2-3.1,61.1-3.2,63.9a2.214,2.214,0,0,0,1.3,2.3c1.4.7,36.1,16.6,43.4,19.9a164.338,164.338,0,0,0,17.2,6.2c1.7.4,1.9.3,2.2-1.5.3-2.1,5.5-41.4,7.3-49.6.2-.8.4-1.7.5-2.4Zm-83-131.6a6.89,6.89,0,0,0,1.5,4.6c1.9,2.5,3.7,5,5.6,7.5a5.5,5.5,0,0,0,.7.9c.7.8.8.9,1.6.2.9-.7,13.8-14.3,15.4-16.1,1.3-1.4,14.9-16.9,15.7-17.7a11.293,11.293,0,0,0,3.3-8.5c-.3-10.1.4-20.3-.4-30.4-.1-1.7-.2-3.4-.2-5-.1-3.4-.2-6.8-.2-10.2,0-2.5.3-4.9.3-7.4.1-2-.4-2.4-2.3-2.1a10.548,10.548,0,0,0-2.4.6,28.694,28.694,0,0,0-3.7,1.5,114.983,114.983,0,0,1-13.2,4.8,32.932,32.932,0,0,0-4.4,1.6c-5.2,2.1-10.3,4.3-15.4,6.4a10.908,10.908,0,0,0-1.1.6,2.121,2.121,0,0,0-1.2,1.9c0,.4-.1.8-.1,1.3-.2,6.2.7,63.2.5,65.5Zm53.8-73.7c0,1.5-.1,8.7-.2,10.8a2.166,2.166,0,0,1-1.4,2.1c-1,.5-2,1-3.1,1.5-.5.3-1.1.5-1.6.8-.1.1-.3.3-.2.4a.446.446,0,0,0,.4.3c.3.1,7.6.7,9.5.8h.3c.9.1,1.1-.1,1.2-1,.1-2.8.3-10.1.3-10.9a3.6,3.6,0,0,1,2.2-3.4c1.9-.7,35.5-12.6,38.3-13.6a1.174,1.174,0,0,0,1-1.4c-.1-1.1.4-13.7.7-18.9.2-3.8.6-7.5.9-11.3a28.413,28.413,0,0,0,.1-4.1c0-1.4-.6-2-2-2-.8,0-1.7.1-2.5.1-2.3.2-13.1.7-16.1,1-6.7.6-23.6,2.3-25.2,2.6-3.7.7-8.9,1.2-12.6,2-1.9.4-1.8,1.2-1.9,3.1-.1,2.5.4,19.5.4,23.5,0,1.4,0,1.4,1.3,1.7.5.1,1.1.2,1.6.3a1.708,1.708,0,0,1,1.6,1.5,5.437,5.437,0,0,1,0,1.8,75.184,75.184,0,0,0-.9,21.7,2.663,2.663,0,0,0,.3,1.2.73.73,0,0,0,1.1.5c.5-.2,1-.6,1.6-.9a2.759,2.759,0,0,0,1.5-2.8c0-.7.2-9.3.4-12.9a82.879,82.879,0,0,1,.9-9.6c.2-.4.8-.9,1.2-.8.4,0,.9.6,1.1,1a1.729,1.729,0,0,1,.1,1c0,.6-.6,6.6-.5,9a32.754,32.754,0,0,1,.2,4.9ZM308,318.1v-9.3a3.131,3.131,0,0,0-1.4-2.8,12.493,12.493,0,0,1-2.6-3c-3.2-5-6.3-10.1-9.7-14.9-5.9-8.5-12-16.9-17.6-25.7a14.627,14.627,0,0,0-.9-1.3.758.758,0,0,0-.4-.2c-.1,0-.2.2-.3.4-.5,2.5-1.3,8.5-1.3,9-.5,3.1-1,12.8-1.1,14.5-.1,2.3-.3,14.7-.3,18.5.1,7.3.2,14.5.2,21.8a13.024,13.024,0,0,0,1,5.2,32.916,32.916,0,0,0,2.1,4.2c1.8,2.8,3.6,5.7,5.6,8.4,7.7,10.1,15.3,20.2,22,30.9a3.916,3.916,0,0,0,.8,1c.3.3.6.2.7-.2a2.768,2.768,0,0,0,.1-.9c.5-6.2.9-12.3,1.4-18.5.4-4.1.9-20.4,1.1-23.3.1-4.3.3-8.7.6-13.8ZM440,169.9c-.8.1-1.3.1-1.8.2-3.8.6-7.7,1.2-11.5,1.9a266.109,266.109,0,0,0-30.4,7.9q-6.3,1.95-12.6,4.2c-8.7,3.1-17.4,6-25.8,9.9-.5.3-1.1.5-1.6.8-.7.5-.8,1-.2,1.6.9.9,1.9,1.7,2.8,2.5a1.985,1.985,0,0,0,2.2.3c7.7-2.3,15.4-4.5,23.1-6.7,5.6-1.6,11.1-3.3,16.7-4.8,3.8-1,7.6-2,11.4-3.3,2.5-.8,5-1.6,7.6-2.3a87.424,87.424,0,0,0,12.2-4.1c.7-.3,1.5-.5,2.2-.8l9.6-3a5.024,5.024,0,0,0,1.3-.5c.5-.2.6-.7.1-1-1.2-.8-2.5-1.7-3.8-2.4a3.359,3.359,0,0,0-1.5-.4Zm-79,89.8c-.1-3.4-.1-6.8-.1-10.3,0-4.1,0-8.2.1-12.2.2-7.9.6-15.8.9-23.7.1-2.5,0-5,0-7.6a3.376,3.376,0,0,0-2.3-3.5c-.7-.3-1.4-.7-2.1-1-1.1-.4-1.4-.3-1.5.9v1.3c0,2.9,0,5.8-.1,8.6-.2,5.9-.5,11.9-.7,17.8-.2,6.7-.3,13.4-.4,20.1v1.3c0,.8.1,1.3,1.1,1.2a1.524,1.524,0,0,1,1,.6c.7.9.7,1.4-.3,2.3a5.8,5.8,0,0,0-1.7,4.5c0,6.5-.1,12.9-.2,19.4-.1,7.2-.3,14.4-.5,21.6,0,1.8.1,3.6.1,5.4,0,1.6-.1,3.2-.2,4.8a2.155,2.155,0,0,0,1.6,2.5c.9.4,1.9.8,2.8,1.2,1.8.8,2.1.6,2.3-1.4v-5.2c.1-6.2.3-12.3.3-18.5,0-6.6-.1-13.2-.1-19.8V259.7ZM484.6,140.5c14.5-1.3,20.6-4.5,28.7-8.2a4.1,4.1,0,0,0,2.5-4.4,9.051,9.051,0,0,0-2-4.6,19.67,19.67,0,0,0-5.3-4.2q-1.05-.6-.9.6a16.412,16.412,0,0,0,.2,2.3c.1.7.1,1.4.2,2.1a2.09,2.09,0,0,1-1.1,2.1,10.092,10.092,0,0,1-1.5.7c-3,.9-6,1.7-9,2.6-2,.6-3.7.5-5.3-1.1a15.074,15.074,0,0,0-3.6-2.4c-1.2-.6-1.3-.5-1.3.8.1,1.2.3,2.4.4,3.6.1,1.5-.1,1.8-1.6,2q-4.2.6-8.4.9c-2.3.2-4.6,0-6.8.1a104.132,104.132,0,0,1-16.7-1.1c-1.3-.2-1.5-.3-1.7-1.6a6.752,6.752,0,0,1-.2-1.4c-.1-1.3-.2-2.6-.4-3.9-.2-1.2-.8-1.6-1.9-.9a8.486,8.486,0,0,0-3.5,4,3.708,3.708,0,0,0,.4,3.8c1.9,2.2,3.8,4.3,6.8,5.1A90.617,90.617,0,0,0,484.6,140.5Zm-10.3-10.3c2.1-.1,4.3-.4,6.4-.7,1.4-.2,1.8-.8,1.9-2.2v-1.4a49.913,49.913,0,0,0-1.6-11.6c-.5-1.7-1-2-2.8-1.9-3.4.1-19.7.1-24.2-1.4-.9-.3-1.1,0-1,1.1.4,3.5,1.4,12.7,1.5,13.7a3.19,3.19,0,0,0,2.5,3,26.779,26.779,0,0,0,4.9,1.1c2.4.3,10.8.4,12.4.3ZM310,302.8c1.4-.1,2.7-.3,4.1-.4,1-.1,1.3-.8.8-1.7-.2-.4-.5-.8-.7-1.2-5.1-7.5-10.1-15-15.3-22.4-4.9-7-9.8-13.9-14.8-20.8a7.008,7.008,0,0,0-.8-1,2.191,2.191,0,0,0-2.4-.7c-1,.3-2.1.5-3.1.9-1.4.5-1.6.9-.9,2.2a83.018,83.018,0,0,0,6.4,10.2c6.4,7.9,11.6,16.6,17.8,24.6,2.2,2.9,4.2,6,6.2,9a2.887,2.887,0,0,0,2.7,1.3Zm-.1,41.6c.1,1.6.1,3.2.1,4.9,0,.5.2,1,.8,1a6.166,6.166,0,0,0,4.5-1.5,2.246,2.246,0,0,0,.6-1.4,8.552,8.552,0,0,0,0-1.6,66.233,66.233,0,0,1-.1-7.7c.3-5.8.1-11.6.6-17.4l.6-9c.1-1.6.3-3.1.4-4.7s-.5-2.2-2.2-1.9c-3.1.5-3.9,1.3-4,4.5v1.3c-.1,1.9-.1,3.8-.2,5.8l-.6,14.7c-.1,3.5-.3,7.1-.4,10.6a18.482,18.482,0,0,0-.1,2.4Zm7.8,7.3a4.958,4.958,0,0,0-3.4,1.1c-.8.5-.8.7-.1,1.3a55.8,55.8,0,0,0,5.6,3.9c3.3,2.1,6.7,4,10.1,5.9.7.4,32.1,17.5,35.9,19.2,4.2,1.9,8.3,4.1,12.7,5.6a3.862,3.862,0,0,0,2.8,0,1,1,0,0,0,.5-.4,2.181,2.181,0,0,0-.4-.5c-2.4-1-4.7-2.1-7.1-3.1a148.091,148.091,0,0,1-23.4-12.1c-5.5-3.6-10.9-7.4-16.3-11.3a92.286,92.286,0,0,0-15-9.1c-.9-.2-1.6-.4-1.9-.5ZM475.6,110.2a1.17,1.17,0,0,0,1.1-.8c0-.3-3.2-2.9-3.8-3.8-.9-1.2-.2-2.3,1.2-2.3a19.75,19.75,0,0,1,5.9.6c4.3,1,8.5,2,12.8,3a11.123,11.123,0,0,0,6-.4c.8-.2,1.6-1.2,1.5-1.8a1.712,1.712,0,0,0-1.6-1.2c-2-.4-4.6-2-12.6-2.7a71.988,71.988,0,0,0-13.1-.2c-2.3.1-10,1.2-13.4,2.8a18.491,18.491,0,0,0-4.8,2.9.753.753,0,0,0,.2,1.4,20.557,20.557,0,0,0,4.8,1.5A78.348,78.348,0,0,0,475.6,110.2ZM373.5,446.6V448c.1,1.1.7,1.3,1.6.6a3.317,3.317,0,0,0,1.3-2.6c0-1.3.9-9.8,1.1-12.7.4-4.6,3.4-31,5.2-39.5a4.868,4.868,0,0,0,.1-1.2.451.451,0,0,0-.3-.3,1.863,1.863,0,0,0-1.9,1.7c-.1,1-.1,2-.3,3-.6,3.4-1.4,6.7-1.9,10.1-1.7,9.8-4.9,39.5-4.9,39.5ZM503.7,109.2c-.1-.8-.5-1-1.3-.8-.4.1-4.2,1.6-5.7,2.1-1.7.5-1.9.7-1.8,2.5a108.846,108.846,0,0,0,1.3,11.8c.4,1.6.8,1.7,2.3,1.2a20.363,20.363,0,0,0,2.2-.9,5.1,5.1,0,0,0,3.4-5.5c-.1-1.5-.3-9.8-.4-10.4ZM291.3,198.5a2.959,2.959,0,0,0-1.8-3c-.3-.1-.5-.3-.8-.4-1.9-1-2.3-.8-2.2,1.4.3,6.6,1.4,28,1.5,28.3a1.745,1.745,0,0,0,1.8.9,1.175,1.175,0,0,0,1-1.1c0-.7.5-25.7.5-26.1Zm53-55.4c4.3-.7,8.5-1.4,12.8-2,3.1-.4,6.2-.7,9.3-1,2.9-.3,5.8-.6,8.8-.8,4.4-.3,8.7-.5,13.1-.8,1.3-.1,7.5-.1,9.1-.5.8-.2,2.1-1.9,2.2-2.1,0-.1-.3-.2-.4-.2-1.3.1-2.6.1-3.9.2-4.1.3-19.6,1.4-23.3,1.8-3.4.3-6.8.9-10.2,1.3h-.3c-5,.5-11.7.6-16.7.9-2.2.1-5.6,2.9-6.5,3.5-1.7,1,4.9-.2,6-.3Zm147.6-22.6s-.4-5.7-.7-8.6a1.927,1.927,0,0,0-1.4-1.7c-2.5-.9-8.8-3.3-9.4-3.5-.4-.1-1-.1-1.1.1-.4.4,2.2,2.1,3.1,2.6,1.9,1,2.4,2.6,2.3,4.7a32.607,32.607,0,0,0,.3,5.4,1.743,1.743,0,0,0,.6,1.2c1.7,1.1,3.4,2.2,5.2,3.2.7.4,1.1,0,1.2-.8,0-.8-.1-1.7-.1-2.6ZM293.2,192.3c.8-.1,41.2-14.9,42-15.9s-4-2.1-5.1-1.5c-1.8.9-4.9,2.6-6.8,3.3-10.5,4.1-21,8.1-31.5,12.1-.6.2-1.8.4-1.7,1,.2,1,2.5.8,3.1,1ZM291.4,246c-.1-5-.2-9.9-.4-14.9-.1-2-.4-2.2-2.4-2.2-.4,0-.7,1.5-.7,1.9.1,2,.9,19.7,1.2,26.5a8.139,8.139,0,0,0,1.5,4,3.986,3.986,0,0,0,.4.3,1,1,0,0,0,.4-.5c.1-.5.1-15.1,0-15.1Zm26.8,82.3h0v2.5c.1,1,.5,1.2,1.4.9.6-.2,5.3-1.9,7.1-2.7,1.3-.6,1.5-1,1.3-2.4-.1-1.1-.3-2.1-.5-3.2a1.854,1.854,0,0,0-.2-.7c-.1.2-.3.3-.4.5-.8,1.2-1.3,1.3-2.5.8a10,10,0,0,1-1.4-.8,29.1,29.1,0,0,0-3-1.7c-1.1-.6-1.4-.4-1.5.8l-.3,6Zm80-155.4a9.08,9.08,0,0,0,.3,2.3c0,.2.3.4.5.4a.713.713,0,0,0,.6-.3l.3-.9V159.6c.2-3.4,1.4-18.4,1.4-19.9,0-.7-.4-.8-1-.5-.8.3-.8.9-.8,1.6a74.54,74.54,0,0,1-.5,11.6,54.584,54.584,0,0,0-.4,5.7c-.2,2.2-.4,12.1-.4,14.8Z" transform="translate(-265.688 -97.871)" fill-rule="evenodd"/>
  <path id="Path_704" data-name="Path 704" d="M482.4,234.9a34.576,34.576,0,0,1,.3,3.9c.1,3,.1,6,.1,9a2.768,2.768,0,0,1-.1.9,1.09,1.09,0,0,1-1.1,1,1.213,1.213,0,0,1-1.3-.8,3.553,3.553,0,0,1-.2-1c-.3-3.5-.9-7.1-.9-10.6a55.478,55.478,0,0,1,3.6-19.3,200.413,200.413,0,0,1,9-19.4c.8-1.6,1.8-3.1,2.7-4.7a6.7,6.7,0,0,0,.7-1.8c1.3-7.4,2.9-14.7,3.5-22.2a2.725,2.725,0,0,1,1.7-2.5,9.386,9.386,0,0,1,1.5-.6c2.2-.7,4.5-1.2,6.7-2a2.442,2.442,0,0,1,2.5.3,13.335,13.335,0,0,0,4.3,1.7c3,.7,5.9,1.5,8.8,2.4,4.3,1.3,8.7,1.9,13,2.9,8.5,2,17.2,3.1,25.7,5,3.7.8,7.3,1.8,11,2.7a16.621,16.621,0,0,1,2.9,1,1.368,1.368,0,0,1,.9,1.6,31.243,31.243,0,0,1-.4,4.3c-.6,3.2-1.4,6.3-2,9.5-.8,4.7-2.1,9.4-3.2,14-.8,3.4-1.5,6.8-2.3,10.2a5.854,5.854,0,0,0,.3,3.7c.6,1.4,1.1,2.8,1.6,4.2.6,1.8,1.1,3.7,1.7,5.5.5,1.5.9,3,1.5,4.4,2.1,5.4,2.8,10.3,4.2,16.7.4,1.8.6,3.7,1,5.5.2,1.2,0,1.8-.5,2.1-.6.3-1.6-.2-2-1.2-.4-1.1-2.3-9.7-3-13.7a123.307,123.307,0,0,0-3.9-13.3c-.3-.9-.4-1.9-1.3-2.4a10.434,10.434,0,0,0-.8,2.5c-.7,4.6-1.3,9.1-1.9,13.7-.3,2.4-.7,4.7-1.2,7.1a6.456,6.456,0,0,0,.8,4.7c5.4,8.6,9.1,18.1,14.1,26.9,4,7,8,14,11.9,21,1.7,3.1,3.3,6.2,5,9.3.8,1.5,1.7,2.9,2.6,4.3a4.856,4.856,0,0,1,.8,3.9A156.948,156.948,0,0,0,598,342c-.8,7.1-1.4,14.2-3.2,21.1a103.367,103.367,0,0,0-2.6,11c-1.1,6.1-1.9,12.3-2.8,18.5-.6,4.2-1.1,8.4-1.6,12.7-.3,2.3-.6,4.5-.9,6.8a2.372,2.372,0,0,1-2.5,2.3c-.9,0-6.6-.6-8.6-.7a3.854,3.854,0,0,1-3.2-1.7c-2.3-3.3-4.8-6.5-7.2-9.7a10.634,10.634,0,0,0-1.5-1.5c-.8.5-.7,1.3-.9,2-1.4,6.8-4.6,29-5.4,29.7a1.63,1.63,0,0,1-2.3.3c-1.3-1.2-7-3.8-8-5.2-.3-.4-.1-1.2-.1-1.7a.974.974,0,0,1,1-.8c.4,0,5.4,1.4,5.8,1.5,1,.2,1.3.1,1.5-.9.3-1.4,4.6-27.2,4.9-27.8a3.472,3.472,0,0,0-.4-3.4c-.2-.4-7.7-11.5-8-11.8-.3-.4-.7-.3-.8.1a5.733,5.733,0,0,0-.4,1.4c-1.1,5.8-5,30.9-5.2,31.2a1.439,1.439,0,0,1-1.7.9c-.7-.2-7.4-4.1-8.5-5.5a3.945,3.945,0,0,1-.6-1.5c-.1-1.1.7-1.6,1.6-1.1.7.4,6.7,2.9,7,2,.4-1.4,4.7-28.2,5-30.4a4.06,4.06,0,0,0-1.1-3.3c-2.6-3.3-11.2-12.5-12.4-14.3s-1.5-2.2-1.3-3.3c1.2-4.6,1.1-9.4,1.4-14.1.2-3.3.6-6.7.9-10l.6-5.7a2.149,2.149,0,0,0-1-2.3c-2.3-1.8-4.6-3.7-6.8-5.6a16.683,16.683,0,0,1-2.5-2.8A31.684,31.684,0,0,1,523,310c-.6-1.9.3-2.2,1.9-2.1,1,.1,1.4.8,1.6,1.7.3,1.4.7,2.8,1.1,4.2a3.805,3.805,0,0,0,.9,1.3.4.4,0,0,0,.7-.3c0-1-.1-2-.2-3a21.057,21.057,0,0,1-.2-2.5c0-1,.4-1.4,1.4-1.5,1.1-.1,1.9.4,2,1.3a20.907,20.907,0,0,1,.1,2.5v2.3c0,.6.4.8.8.5,1.7-1,3.3-2,4.9-3a2.61,2.61,0,0,0,1-2c.3-2.6.7-5.2,1-7.8.7-5.6,1.4-11.2,2-16.8.1-1.1.3-2.1.4-3.2a3.308,3.308,0,0,0-1.5-3.4c-2.9-2-5.9-4-8.8-5.9-.9-.6-1.2-.4-1.3.7-.3,3.3-.5,6.7-.7,10a23.3,23.3,0,0,0,0,5.9,2.6,2.6,0,0,1-2.4,3.2,8.373,8.373,0,0,0-3.7,1.4,2.419,2.419,0,0,1-2.7-.2,1.078,1.078,0,0,1-.2-1.8,6.072,6.072,0,0,1,1-.7c.9-.5,1.8-.9,2.7-1.4a3.061,3.061,0,0,0,1.9-2.6c.2-2,.4-3.9.6-5.9.2-2.7.5-5.4.7-8.1a4.867,4.867,0,0,0-2-4.7c-2.5-1.8-4.9-3.7-7.3-5.5-.6-.4-1.3-.7-2-1.1-.7.6-.6,1.5-.7,2.3-.3,3.5-.7,7-.9,10.6a10.2,10.2,0,0,0,.4,3.5c.5,2.1.3,2.7-1.6,3.7-2.4,1.2-4.8,2.4-7.3,3.5-1.5.7-2.3.4-3.2-1-.4-.7-.4-1.2.3-1.7a6.375,6.375,0,0,1,1.4-.8c.9-.4,1.9-.7,2.9-1.1a5.106,5.106,0,0,0,3.3-3.8,33.539,33.539,0,0,0,.7-4.4c.3-2.6.4-5.3.7-7.9.1-1.3.1-2.6.3-3.9a2.689,2.689,0,0,0-1.5-3c-.9-.5-1.9-1.1-2.8-1.7-3-1.9-6.1-3.9-9-5.9a50.93,50.93,0,0,0-7.1-4.2c-.4-.2-.7-.4-1.1-.6a2.814,2.814,0,0,1-1.6-3l.6-7.2c.3-3.8.6-7.7.9-11.5.4-5,.9-10,1.4-15,.2-1.7.3-3.3.4-5,0-.2-.1-.3-.2-.5-.2.1-.5.1-.6.3-.5.9-1,1.9-1.5,2.9a161.541,161.541,0,0,0-7.2,17.8,45.473,45.473,0,0,0-1.3,11Zm84.1-48.3c0-2.2-.4-2.7-2.2-3.3a1.445,1.445,0,0,0-.7-.2c-8.2-2.4-16.6-3.7-25-5.1-3.9-.7-7.8-1.3-11.7-2.1-4.4-.9-8.7-2.1-13.1-3.1-1.8-.4-3.7-.6-5.5-.9a42.931,42.931,0,0,0-5-.7c-1.8-.2-2.1.1-2.5,1.8-.3,1.3-.4,2.6-.6,3.9-1,6.9-2.1,13.9-3.1,20.8-.6,4.2-1.2,8.3-1.6,12.5-.4,3.3-.5,6.7-.8,10-.5,6.2-1.1,12.4-1.6,18.6a4.563,4.563,0,0,0,2.5,4.8,15.291,15.291,0,0,1,2.7,1.7,97.346,97.346,0,0,0,10.1,6.6c2,1.2,4.1,2.3,6,3.6,2,1.4,3.9,3,5.9,4.4,1.3,1,2.6,2,3.8,3a22.2,22.2,0,0,0,4.9,3,15.646,15.646,0,0,1,3.4,2.3c2.8,2.6,6.3,4.4,9.5,6.5.7.5.9.3,1.1-.5.1-.3.1-.6.2-.9.4-3.3.8-6.7,1.2-10l1.5-12.3c.3-2.4.4-2.5,2.8-3,2.3-.5,4.6-.9,6.8-1.6a2.214,2.214,0,0,0,1.8-2.1c.2-1.4.3-2.7.5-4.1,1-7.2,2.1-14.5,3.1-21.7,1.4-10.2,3.2-20.2,5.3-30.3a6.932,6.932,0,0,0,.3-1.6Zm20.9,140.2a7.523,7.523,0,0,0-1.7-5.8c-1.5-1.9-2.9-3.8-4.3-5.7A131.749,131.749,0,0,1,563.6,285a81.72,81.72,0,0,0-6.1-12.2c-.9-1.4-1.7-2.9-2.5-4.4-1.8-3.4-3.5-6.8-5.3-10.2a15.751,15.751,0,0,0-1.2-1.5,12.661,12.661,0,0,0-.6,1.8c-.7,4.9-1.6,9.8-1.9,14.8-.2,2.6-.5,5.3-.5,7.9a66.755,66.755,0,0,1-.7,7.7c-.5,4.8-1.1,9.5-1.6,14.3-.5,4.3-1.1,8.6-1.6,12.8-.3,2.5-.8,5-1.2,7.5a4.231,4.231,0,0,0,1.6,4.3c1.1,1,2.2,2.1,3.2,3.1,8,8.4,16,16.9,24.5,24.8,2.7,2.6,5.7,3.4,9.2,2.2a19.738,19.738,0,0,1,2.6-.7c1.7-.4,1.7-.4,2-2.2.7-4,1.4-8,2-12.1a136.4,136.4,0,0,0,1.9-16.1Zm-50,29.3c0,1.5-.1,2.9.9,4.3,5.4,6.8,10.8,13.6,16.1,20.5,2,2.6,3.9,5.2,5.6,7.9a167.313,167.313,0,0,0,14.1,19.3,5.8,5.8,0,0,0,1.2,1,8.424,8.424,0,0,0,.6-1.4c.1-.4.1-.8.2-1.2.2-1.5.4-3,.5-4.5.5-4.8,1.1-9.5,1.6-14.3.4-3.8.8-7.6,1.4-11.4.6-4.1,1.5-8.1,2.3-12.2.6-3.1.4-3.3-2.9-2.7-.9.2-1.8.5-2.8.7a27.412,27.412,0,0,1-2.8.5,4.011,4.011,0,0,1-1.9-.3,17.275,17.275,0,0,1-3.2-2c-2.6-2.4-5.1-4.9-7.6-7.4-2.4-2.4-4.6-5.1-7-7.5-4.2-4.3-8.4-8.5-12.7-12.8a6.015,6.015,0,0,0-1.3-.9c-.2.5-.4.9-.6,1.4a5.284,5.284,0,0,0-.1,1.3c-.2,1.9-.3,3.7-.5,5.6C538.3,345.3,537.9,350.7,537.4,356.1Zm56.5-34.2c1.1.3,1.6-.7,1-2l-.9-1.8c-4.6-8.3-9.2-16.6-13.7-24.9-2.3-4.1-4.6-8.3-6.7-12.5-4.1-8-8.1-16-12.3-24-1-2-2.3-3.8-3.5-5.7a2.309,2.309,0,0,0-2.8-1.1c-1.1.3-2.2.5-3.3.8-1.9.5-2.1.8-1.2,2.6.1.1.1.2.2.3,3.8,7.1,7.6,14.3,11.4,21.4a81.561,81.561,0,0,1,4.1,8.4c3.3,8,7.1,15.7,12.4,22.6,2.5,3.3,4.9,6.7,7.3,10,1,1.4,2,2.8,3.1,4.2a3.316,3.316,0,0,0,1.4,1,12.067,12.067,0,0,0,3.5.7Zm0,3.3c-.7.1-1.3,0-2,.1-1.3.1-1.7.4-1.9,1.7-.1.8-.1,1.6-.2,2.3-1.1,8.3-2.3,16.6-3.4,24.9-.2,1.6-.2,1.6,1.3,1.2a4.868,4.868,0,0,1,1.2-.1,2.283,2.283,0,0,1,2.1,2.3,2.2,2.2,0,0,1-2.3,2.3,4.1,4.1,0,0,1-1.1-.1c-1.7-.1-2.3.3-2.5,2-.7,4.7-1.5,9.5-2.3,14.2-.8,5.1-1.9,10.1-2.1,15.3-.1,2.8-.3,5.5-.6,8.2-.3,2.6-.7,5.1-1,7.7s-.2,2.8,2.2,3.7a6.9,6.9,0,0,1,.8.3c.9.3,1.2.1,1.4-.8a15.943,15.943,0,0,0,.6-3c.9-7,1.7-13.9,2.5-20.9a129.121,129.121,0,0,1,3.9-20.6,113.642,113.642,0,0,0,3.4-16.4c.9-7.2,1.9-14.4,2.8-21.6a12.753,12.753,0,0,0,.1-2,.839.839,0,0,0-.9-.9,6.165,6.165,0,0,1-2,.2ZM574,187c0-1.2,0-1.4-.5-1.5a3.834,3.834,0,0,0-4,2.4,81.215,81.215,0,0,0-2.5,11.9c-.6,4.6-1.2,9.1-2,13.7a197.836,197.836,0,0,0-2.7,20.3,57.107,57.107,0,0,1-1.4,10.1,9.192,9.192,0,0,0,.9,6.9c.2.4.4.9.6,1.3a.758.758,0,0,0,.4.2s.2-.2.2-.3a3.6,3.6,0,0,0,.2-1.1c.3-2.2.5-4.4.8-6.6.8-6.2,1.5-12.5,2.3-18.7a3.942,3.942,0,0,0-.6-3,2.217,2.217,0,0,1,.4-3.2,3.6,3.6,0,0,0,1.6-2.4c1.9-7.9,3.7-15.7,5.2-23.7.3-2.2.7-4.4,1.1-6.3Zm-2.8-4.5c.8,0,1.6-.1,2.3-.1a.85.85,0,0,0,.5-.3c-.1-.1-.3-.3-.4-.3-.9-.2-1.7-.5-2.6-.7-2.5-.7-5.1-1.4-7.6-2-2.5-.5-5-.8-7.4-1.3-5.3-.9-10.6-1.9-15.9-2.9a56.706,56.706,0,0,1-5.7-1c-3.8-.9-7.5-2-11.3-3-2.8-.8-5.7-1.5-8.5-2.3-1.4-.4-2.9-.6-4.4-1a5.841,5.841,0,0,0-3.7.2,1.381,1.381,0,0,1-.4.3c.1.1.3.2.4.3,1.9.4,3.9.8,5.8,1.3,6.2,1.5,12.4,3.1,18.7,4.6,2.1.5,4.2,1.1,6.3,1.5,3.9.7,7.8,1.3,11.7,1.9,1.3.2,2.6.5,3.9.7,4.5.8,9.2,1.3,13.4,3.3a8.253,8.253,0,0,0,4.9.8ZM538.1,317.1a1.7,1.7,0,0,1,.1-.7c.1-.8-.2-1.1-.9-.7a32.39,32.39,0,0,0-3.2,1.7c-.8.5-.9,1-.3,1.8.8,1,1.6,2,2.4,2.9.7.8,1.1.7,1.3-.3.3-1.7.4-3.2.6-4.7Z" transform="translate(-265.688 -97.871)" fill-rule="evenodd"/>
  <path id="Path_705" data-name="Path 705" d="M453.9,456.7c0,1.3-.1,2.6,0,4,.1,2.3.4,4.5.6,6.8.2,1.6-.2,2.7-1.5,3.4a2.307,2.307,0,0,1-2.4-.1c-1.2-.8-2.4-1.5-3.6-2.3a2.092,2.092,0,0,1-.6-.4c-.5-.4-1-.8-.8-1.5a1.824,1.824,0,0,1,1.7-1.4,6.686,6.686,0,0,1,1.9.5c.8.3,1,.2,1.1-.6a31.252,31.252,0,0,0,.4-4.3c0-3.5,0-7-.1-10.4,0-1.4-.2-1.5-1.7-1.3-1.9.3-3.9.8-5.8,1.1-4,.6-7.9,1.2-11.9,1.8-1.5.2-2.9.6-4.4.9a21.655,21.655,0,0,1-2.5.4,3.458,3.458,0,0,1-3.1-1.2,23.562,23.562,0,0,0-5-4.4,3.088,3.088,0,0,1-1.4-2.9c0-2.5-.1-5-.2-7.5-.3-8.1-.7-16.2-1.1-24.3-.1-2.4-.1-4.8-.1-7.2a4.471,4.471,0,0,0-1.2-3.1,35.333,35.333,0,0,1-8.6-14.4c-1.7-5.4-3.3-10.9-4.9-16.4a2.92,2.92,0,0,1-.2-.9c.1-.3.2-.7.5-.8a4.234,4.234,0,0,1,1.2-.4c.5-.2.9,0,1.1.6.6,2.2,1.3,4.5,2,6.7.4,1.2.6,2.4,1,3.6,1.4,4,2.9,8,4.4,12,.9,2.5,2.7,4.5,4.4,6.5.3.4.7.2.7-.3.2-1.5.5-3.1.6-4.6.2-3.4.3-6.8.5-10.2.2-3,.3-6,.5-9,.1-1.7.3-3.5.4-5.2.2-2.5,1.2-3.7,3.7-4.1,2.2-.4,4.5-.7,6.7-1.1,5.5-1,11.1-2.1,16.6-3.1,5.3-.9,10.5-1.6,15.8-2.4l17.1-2.4c3.9-.6,7.8-1.2,11.7-1.9,1.8-.3,3.5-.8,5.3-1.1a39.068,39.068,0,0,1,4.8-.5,3.047,3.047,0,0,1,3,1.5c.8,1.2,1.9,2.2,2.8,3.3,1,1.2,1.6,2.4,1,4a7.79,7.79,0,0,0-.4,2.1c0,4.2-.8,8.2-1.3,12.3l-2.4,18.9-.9,8.4a18.483,18.483,0,0,0-.1,2.3.713.713,0,0,0,.3.6c.1.1.5,0,.6-.2a16.661,16.661,0,0,0,2.3-2.3,55.937,55.937,0,0,0,6.3-9c1.4-2.4,2.7-4.8,4.1-7.2,2.5-4.2,3.7-8.8,4.6-13.6.3-1.7.5-3.4.8-5.2.2-1.1.5-1.3,1.2-1.2,1,.2,1.5.7,1.4,1.7-.3,2.2-.9,4.4-1.1,6.6-.5,5-2.5,9.3-4.9,13.6-2.2,3.8-4.2,7.8-6.8,11.5a54.007,54.007,0,0,1-7.9,9.3,3.511,3.511,0,0,0-1.2,2.5c-.1,1.2-.2,2.4-.2,3.6-.1,6.2-.8,12.5-.3,18.7a17.632,17.632,0,0,1,0,2.3,2.6,2.6,0,0,1-2,2.7,24.724,24.724,0,0,1-4.7,1.1c-5.3.8-10.7,1.5-16,2.3-.2,0-.5.1-.7.1-1.5.3-1.7.5-1.9,2.1-.6,5.4-1.2,10.7-1.7,16.1a14.564,14.564,0,0,0,.2,5.5,2.768,2.768,0,0,1,.1.9c0,1.1-.3,1.8-1.1,2.1a2.3,2.3,0,0,1-2.6-.6,4.811,4.811,0,0,0-.9-1.1c-.6-.4-1.3-.7-2-1.1a3.811,3.811,0,0,1-1-.3,1.986,1.986,0,0,1-.9-2.5,1.8,1.8,0,0,1,2.5-1,6.528,6.528,0,0,1,1.5,1c.4.2.7.2.8-.3s.2-1.1.3-1.6c.7-5.2,1.3-10.5,2-15.7,0-.2.1-.5.1-.7.1-1.4-.2-1.8-1.6-1.6-1.8.2-3.7.6-5.5.9-2.4.4-4.7.9-7.1,1.3-1.8.3-2.1.7-2.2,2.5v3.4c-.1,1.2-.1,2.3-.1,3.4Zm-29.1-48.1h-.1v2.9c0,6.9.1,13.8.1,20.7,0,5.3.3,10.6.7,15.8.1,1.5.4,1.7,1.9,1.5,1.1-.2,2.3-.3,3.4-.5,4.2-.6,8.4-1.2,12.6-2,4.9-.9,10-1.2,14.8-2.6,1.5-.4,3.1-.5,4.6-.8,2.5-.5,5-1.1,7.6-1.5,4.3-.7,8.7-1.2,13-1.9,3.5-.6,6.9-1.4,10.4-2.2,1.4-.3,1.5-.5,1.5-2v-5.9c.1-4.6.1-9.1.3-13.7.2-3.8.5-7.7.8-11.5.1-1.6.3-3.2.5-4.8.5-4.3,1.1-8.7,1.7-13,.6-4.8,1.1-9.5,1.6-14.3.3-3.3.6-6.7.8-10,.1-1.3-.3-1.6-1.6-1.5a4.331,4.331,0,0,0-.5.1c-4.9,1-9.7,2-14.6,3-11.7,2.3-23.5,4.7-35.4,6.2-4.8.6-9.6,1.1-14.5,1.7-2.4.3-4.9.6-7.3,1-1.4.2-1.8.7-2,2.1a34.01,34.01,0,0,0-.3,4.5Zm-2.6,2.4h0c-.1-1-.1-2-.1-3.1q.15-9.9.3-19.8c0-4.3,0-8.5.1-12.8a2.951,2.951,0,0,0-1.1-2.5,13.447,13.447,0,0,0-1.4-1.1,2.739,2.739,0,0,0-.7-.4,2.622,2.622,0,0,0-.5.9l-.3,5.7c-.5,7.6-.6,15.2-1.7,22.8a2.092,2.092,0,0,0,1.1,2.4,6.19,6.19,0,0,1,1.7,1.1,1.875,1.875,0,0,1,.4,2.3c-.4.6-.9.7-1.9.3-1.2-.4-1.3-.3-1.4.9a8.844,8.844,0,0,0,0,2.3l.3,6.6c.3,7.7.5,15.3.8,23a16.553,16.553,0,0,0,.3,3.2,4.981,4.981,0,0,0,1,1.9,9.762,9.762,0,0,0,1.7,1.8c.4.4,1.1,1.1,1.4,1,.8-.2.4-1.1.4-1.7-.1-3-.3-6-.3-9-.2-8.5-.1-17.2-.1-25.8Zm3.5-40.2c1.4-.1,2.7-.2,4.1-.4,1.9-.2,3.8-.3,5.7-.6,5.2-.7,10.3-1.5,15.5-2.3,5.1-.8,10.2-1.5,15.3-2.4,4.4-.8,8.8-1.9,13.2-2.7,3.1-.6,6.1-1,9.2-1.7a63.622,63.622,0,0,1,7.6-1.4,8.446,8.446,0,0,0,1.7-.5,1.012,1.012,0,0,0,.4-.7,2.653,2.653,0,0,0-2.9-1.9c-1.3.2-2.6.5-3.9.8-1.9.4-3.8,1-5.8,1.3-7.9,1.1-15.8,2.1-23.7,3.3-5.8.8-11.6,1.8-17.4,2.8-6,1.1-12,2.3-18,3.4-1.1.2-2.2.4-3.3.7-.8.2-.9.7-.5,1.4a1.781,1.781,0,0,0,1.6,1c.3-.2.8-.1,1.2-.1Z" transform="translate(-265.688 -97.871)" fill-rule="evenodd"/>
  <g id="Group_36" data-name="Group 36" transform="translate(-265.688 -97.871)">
    <path id="Path_706" data-name="Path 706" d="M363.6,259.7c-.1-2.9-.3-5.8-.2-8.6.1-5.6.3-11.3.4-16.9,0-.6.1-1.2.1-1.8.2-7.4.3-14.7.5-22.1.1-2.6.2-5.2.2-7.7a1.353,1.353,0,0,1,1-1.5c.7-.3,1.5-.5,2.2-.8,14.4-4.2,28.7-8.4,43.1-12.7,10.6-3.2,21.2-6.6,31.8-9.8,2-.6,4-1.1,6.1-1.7,1.4-.4,1.5-.3,1.5,1.3V181c-.3,5.7-.6,11.5-.9,17.2-.3,5-.6,10.1-.8,15.1-.3,6.9-.5,13.8-.7,20.7-.1,2.5.1,4.9.1,7.4,0,1.1.1,2.2,0,3.2-.3,5-.2,10.1,0,15.1.1,2.9-.2,5.7-.3,8.6v3.1c0,3.2.1,6.5.1,9.7a2.628,2.628,0,0,1-2.1,2.8c-6.4,1.9-12.7,4.2-19.3,5.6a14.264,14.264,0,0,0-2.7.9c-3.8,1.4-7.7,2.7-11.5,4.1-2.8,1-5.6,2.1-8.4,3.1a10.564,10.564,0,0,1-1.9.6,16.385,16.385,0,0,0-5.1,1.8,30.541,30.541,0,0,1-3.2,1.3c-6.2,2.2-12.4,4.4-18.6,6.7a57.938,57.938,0,0,0-7.1,3.4c-.9.4-1.7.9-2.6,1.2q-1.35.6-1.5-.9c-.1-1.1-.1-2.2-.1-3.2.1-5.6.4-11.2.3-16.7-.1-10.7-.3-21.3-.4-32C363.5,259.7,363.5,259.7,363.6,259.7Zm34.3-31.3a6.149,6.149,0,0,0,.1,1.4c.1.8.3,1,1.2,1a1.7,1.7,0,0,0,.7-.1c3.1-.5,6.3-1,9.4-1.6a189.309,189.309,0,0,0,19.2-5.4,5.024,5.024,0,0,0,1.3-.5c.5-.3.9-.7.8-1.3-.2-1.1-.4-2.2-.7-3.3a.747.747,0,0,0-1-.5c-.5.1-.9.3-.9.9a6.151,6.151,0,0,0,.1,1.3,1.1,1.1,0,0,1-.8,1.2l-2.7.9a8.446,8.446,0,0,0-1.7.5,114.852,114.852,0,0,1-16.2,4.6l-4.8.9c-.7.1-1-.1-1.2-.7-.1-.3-.2-.7-.3-1a.781.781,0,0,0-1-.5c-1,.2-1.3.5-1.3,1.6-.2.1-.2.4-.2.6Zm1.9-16.8c0-1.1-.5-1.7-1.4-1.8a2.381,2.381,0,0,0-1.9,2.3,1.342,1.342,0,0,0,1.5,1.4A1.76,1.76,0,0,0,399.8,211.6Zm28.8-5.5a1.628,1.628,0,0,0,1.7-1.7,1.8,1.8,0,0,0-1.9-1.7,1.522,1.522,0,0,0-1.6,1.6,1.859,1.859,0,0,0,1.8,1.8Z" fill="none"/>
    <path id="Path_707" data-name="Path 707" d="M306.3,222.8h0a10.856,10.856,0,0,0,.4,2.5c.3,1.4.9,1.8,2.3,1.5,1.3-.3,2.7-.7,4-1.1a110.109,110.109,0,0,1,11.3-2.9c1.3-.3,2.6-.8,3.9-1.2a1.456,1.456,0,0,0,1.2-1.6c-.1-1.4-.4-2.7-.6-4.1a.875.875,0,0,0-1.1-.7c-.6.1-1,.3-1.1,1a5.019,5.019,0,0,1-.2,1.2,1.649,1.649,0,0,1-1.5,1.7l-3.3.9c-3.7,1-7.4,2-11.1,2.9a3.079,3.079,0,0,1-1.9,0c-.3-.1-.4-.9-.7-1.3-.2-.3-.6-.6-.8-.5a2.016,2.016,0,0,0-.9.7c0,.3.1.7.1,1ZM322.9,203a2.021,2.021,0,0,0,1.7-1.6,2.349,2.349,0,0,0-1.9-1.8,1.309,1.309,0,0,0-1.2,1.3A1.969,1.969,0,0,0,322.9,203Zm-15.6,1.6a1.394,1.394,0,0,0-1.5-1.4,1.728,1.728,0,0,0-1.7,1.5,1.607,1.607,0,1,0,3.2-.1Z" fill="none"/>
    <path id="Path_708" data-name="Path 708" d="M362.7,171.8c1.7-.2,4-.6,6.3-.9,3-.4,5.9-.8,8.9-1.3,1.6-.3,3.2-.6,4.7-1,.7-.2.9-.7.8-1.5-.1-.7-.4-1-1.2-1.1a3.166,3.166,0,0,0-2.3.7,3.506,3.506,0,0,1-1.4.6c-3.8.6-7.6,1.2-11.3,1.8-1.3.2-2.6.4-3.9.5-1.2.1-1.3,0-1.6-1.2a4.331,4.331,0,0,0-.1-.5.824.824,0,0,0-1-.7,1.5,1.5,0,0,0-1.4,1.2C358.7,170.4,359.9,171.9,362.7,171.8Zm-4.2-16.1a2.054,2.054,0,0,0-1.9,2,2.467,2.467,0,0,0,1.9,1.9,2.231,2.231,0,0,0,1.8-1.9C360.2,156.6,359.4,155.6,358.5,155.7Zm15.5.7a1.634,1.634,0,0,0,1.6,1.8,1.975,1.975,0,0,0,2-1.6,2.566,2.566,0,0,0-2-2C374.7,154.5,374,155.4,374,156.4Z" fill="none"/>
    <path id="Path_709" data-name="Path 709" d="M440,169.9a7.323,7.323,0,0,1,1.6.4c1.3.7,2.5,1.6,3.8,2.4.5.3.4.7-.1,1a6.944,6.944,0,0,1-1.3.5l-9.6,3a9.749,9.749,0,0,0-2.2.8,87.425,87.425,0,0,1-12.2,4.1c-2.5.7-5.1,1.5-7.6,2.3-3.7,1.3-7.6,2.3-11.4,3.3-5.6,1.5-11.2,3.2-16.7,4.8-7.7,2.2-15.4,4.5-23.1,6.7a2.457,2.457,0,0,1-2.2-.3,33.29,33.29,0,0,1-2.8-2.5c-.6-.6-.5-1.1.2-1.6.5-.3,1.1-.5,1.6-.8a268.767,268.767,0,0,1,25.8-9.9q6.3-2.25,12.6-4.2a266.109,266.109,0,0,1,30.4-7.9c3.8-.7,7.7-1.3,11.5-1.9a3.922,3.922,0,0,1,1.7-.2Z" fill="none"/>
    <path id="Path_710" data-name="Path 710" d="M361,259.7v10.4c0,6.6.1,13.2.1,19.8,0,6.2-.2,12.3-.3,18.5v5.2c-.1,2-.4,2.2-2.3,1.4-.9-.4-1.9-.8-2.8-1.2a2.21,2.21,0,0,1-1.6-2.5c.1-1.6.2-3.2.2-4.8,0-1.8-.1-3.6-.1-5.4.1-7.2.3-14.4.5-21.6.1-6.5.2-12.9.2-19.4a5.667,5.667,0,0,1,1.7-4.5c1-.9,1-1.5.3-2.3a1.524,1.524,0,0,0-1-.6c-.9,0-1.1-.5-1.1-1.2v-1.3c.1-6.7.2-13.4.4-20.1.2-5.9.5-11.9.7-17.8.1-2.9,0-5.8.1-8.6v-1.3c.1-1.2.3-1.4,1.5-.9.7.3,1.4.7,2.1,1a3.376,3.376,0,0,1,2.3,3.5c0,2.5.1,5,0,7.6l-.9,23.7c-.1,4.1-.1,8.2-.1,12.2,0,3.3,0,6.8.1,10.2Z" fill="none"/>
    <path id="Path_711" data-name="Path 711" d="M566.5,186.6a12.535,12.535,0,0,1-.2,1.5c-2,10-3.9,20.1-5.3,30.3-1,7.2-2,14.5-3.1,21.7-.2,1.4-.3,2.7-.5,4.1a2.214,2.214,0,0,1-1.8,2.1c-2.2.7-4.5,1-6.8,1.6-2.4.6-2.5.6-2.8,3l-1.5,12.3c-.4,3.3-.8,6.7-1.2,10a2.919,2.919,0,0,1-.2.9c-.2.8-.4.9-1.1.5-3.2-2.1-6.6-3.8-9.5-6.5a15.645,15.645,0,0,0-3.4-2.3,30.606,30.606,0,0,1-4.9-3c-1.3-1-2.5-2-3.8-3a64.561,64.561,0,0,0-5.9-4.4c-1.9-1.3-4-2.4-6-3.6a72.94,72.94,0,0,1-10.1-6.6,15.289,15.289,0,0,0-2.7-1.7,4.492,4.492,0,0,1-2.5-4.8c.6-6.2,1.1-12.4,1.6-18.6.3-3.3.4-6.7.8-10,.5-4.2,1-8.3,1.6-12.5,1-6.9,2-13.9,3.1-20.8l.6-3.9c.3-1.7.7-2,2.5-1.8,1.7.2,3.3.5,5,.7,1.8.3,3.7.5,5.5.9,4.4,1,8.7,2.1,13.1,3.1q5.85,1.2,11.7,2.1a235.579,235.579,0,0,1,25,5.1,1.854,1.854,0,0,0,.7.2C566.1,183.9,566.5,184.5,566.5,186.6Zm-21,31.9a14.154,14.154,0,0,0-.4-2,1.174,1.174,0,0,0-1-.6c-.5-.1-.7.3-.8.8a1.7,1.7,0,0,1-.1.7c-.2,1.5-.5,1.7-2,1.6-1-.1-2-.4-3-.6-5-1.3-9.9-2.6-14.9-3.9l-6.9-1.8a1.487,1.487,0,0,1-1.2-1.5,16.955,16.955,0,0,0-.1-2.2.709.709,0,0,0-.8-.7c-.8,0-1.4.3-1.5,1a23.4,23.4,0,0,0-.3,3.8,2.368,2.368,0,0,0,1.3,2,6.982,6.982,0,0,0,2,.8,48.578,48.578,0,0,1,6.6,1.5c6.3,1.8,12.7,3.5,19,5.2a9,9,0,0,0,1.6.3c.9,0,1.5-.3,1.7-1.2a16.543,16.543,0,0,0,.8-3.2Zm-26.8-28.8a2.033,2.033,0,0,0-1.9-1.7,1.936,1.936,0,0,0-1.8,1.8,1.577,1.577,0,0,0,1.6,1.6,2.14,2.14,0,0,0,2.1-1.7Zm28.3,7.6a1.663,1.663,0,0,0-3.3.4,1.71,1.71,0,0,0,1.6,1.4A1.765,1.765,0,0,0,547,197.3Z" fill="none"/>
    <path id="Path_712" data-name="Path 712" d="M587.4,326.8a118.044,118.044,0,0,1-2,16.1c-.7,4-1.4,8-2,12.1-.3,1.8-.3,1.8-2,2.2a25.038,25.038,0,0,0-2.6.7c-3.5,1.2-6.5.4-9.2-2.2-8.5-8-16.5-16.4-24.5-24.8a31.062,31.062,0,0,0-3.2-3.1,4.5,4.5,0,0,1-1.6-4.3c.4-2.5.9-5,1.2-7.5.6-4.3,1.1-8.5,1.6-12.8.6-4.8,1.1-9.5,1.6-14.3a66.755,66.755,0,0,0,.7-7.7c0-2.6.4-5.3.5-7.9.3-5,1.2-9.9,1.9-14.8a12.666,12.666,0,0,1,.6-1.8,8.775,8.775,0,0,1,1.2,1.5c1.8,3.4,3.5,6.8,5.3,10.2.8,1.5,1.6,3,2.5,4.4a66.205,66.205,0,0,1,6.1,12.2c4.4,11,10.6,20.9,17.8,30.3,1.5,1.9,2.8,3.9,4.3,5.7a7.235,7.235,0,0,1,1.8,5.8ZM553.7,330a3.837,3.837,0,0,0,1.1,2.5,10.63,10.63,0,0,0,1.1.9,74.814,74.814,0,0,1,7.9,5.6,11.083,11.083,0,0,0,1.9.9,1.541,1.541,0,0,0,2-.8c.6-1.3,1.2-2.6,1.7-3.9a1.436,1.436,0,0,0-.5-1.8c-.6-.5-1-.6-1.5.1-.4.5-.7,1.1-1.1,1.6-.7.9-1.1,1-2.1.5a1.794,1.794,0,0,1-.7-.5c-1.6-1.1-3.2-2.1-4.8-3.2-.3-.2-.7-.5-1-.7a1.63,1.63,0,0,1-.7-2c.3-1,.7-1.9,1-2.9.3-.9.1-1.2-.7-1.6-.9-.4-1.5-.4-1.9.6a26.4,26.4,0,0,0-1.7,4.7Zm4.3-28.4c0-1.5-1.2-2.2-2.4-1.4a2.41,2.41,0,0,0-1,1,1.417,1.417,0,0,0-.1,1.1,3.581,3.581,0,0,0,2.2,1.9C557.4,304.1,558,302.8,558,301.6Zm13,16.5a1.6,1.6,0,0,0-1.7-1.6,1.851,1.851,0,0,0-1.8,1.4,2.158,2.158,0,0,0,1.8,2.1A1.869,1.869,0,0,0,571,318.1Z" fill="none"/>
    <path id="Path_713" data-name="Path 713" d="M537.4,356.1c.5-5.4.9-10.8,1.4-16.1.2-1.9.3-3.7.5-5.6a5.7,5.7,0,0,1,.1-1.3,5.911,5.911,0,0,1,.6-1.4,10.139,10.139,0,0,1,1.3.9c4.2,4.2,8.5,8.5,12.7,12.8,2.4,2.4,4.6,5.1,7,7.5,2.5,2.5,5,5,7.6,7.4a17.273,17.273,0,0,0,3.2,2,3.194,3.194,0,0,0,1.9.3,27.406,27.406,0,0,0,2.8-.5,22.909,22.909,0,0,1,2.8-.7c3.3-.6,3.4-.4,2.9,2.7-.7,4.1-1.6,8.1-2.3,12.2-.6,3.8-1,7.6-1.4,11.4-.5,4.8-1.1,9.5-1.6,14.3-.2,1.5-.4,3-.5,4.5-.1.4-.1.8-.2,1.2-.2.5-.4,1-.6,1.4a5.8,5.8,0,0,1-1.2-1,146.6,146.6,0,0,1-14.1-19.3,74.813,74.813,0,0,0-5.6-7.9c-5.3-6.9-10.7-13.7-16.1-20.5-1.3-1.4-1.2-2.8-1.2-4.3Z" fill="none"/>
    <path id="Path_714" data-name="Path 714" d="M593.9,321.9c-1.4-.2-2.4-.3-3.4-.5a3.316,3.316,0,0,1-1.4-1c-1.1-1.4-2.1-2.8-3.1-4.2-2.4-3.3-4.8-6.7-7.3-10-5.3-6.9-9.1-14.6-12.4-22.6a92.968,92.968,0,0,0-4.1-8.4c-3.9-7.1-7.6-14.3-11.4-21.4-.1-.1-.1-.2-.2-.3-.9-1.8-.7-2.1,1.2-2.6,1.1-.3,2.2-.6,3.3-.8a2.309,2.309,0,0,1,2.8,1.1c1.1,1.9,2.4,3.7,3.5,5.7,4.1,8,8.1,16,12.3,24,2.2,4.2,4.5,8.4,6.7,12.5,4.6,8.3,9.2,16.6,13.7,24.9l.9,1.8c.5,1.1,0,2.1-1.1,1.8Z" fill="none"/>
    <path id="Path_715" data-name="Path 715" d="M593.9,325.2h2.2a.8.8,0,0,1,.9.9,13.405,13.405,0,0,1-.1,2c-.9,7.2-1.9,14.4-2.8,21.6a116.5,116.5,0,0,1-3.4,16.4,162.457,162.457,0,0,0-3.9,20.6c-.8,7-1.7,13.9-2.5,20.9-.1,1-.4,2-.6,3-.3.9-.5,1-1.4.8a6.9,6.9,0,0,1-.8-.3c-2.4-.9-2.6-1.1-2.2-3.7.3-2.6.8-5.1,1-7.7.3-2.7.5-5.5.6-8.2.2-5.2,1.3-10.2,2.1-15.3.8-4.7,1.5-9.5,2.3-14.2.3-1.7.8-2.1,2.5-2,.4,0,.7.1,1.1.1a2.3,2.3,0,0,0,.2-4.6,2.462,2.462,0,0,0-1.2.1c-1.5.3-1.5.4-1.3-1.2,1.1-8.3,2.3-16.6,3.4-24.9.1-.8.1-1.6.2-2.3.2-1.3.5-1.6,1.9-1.7A5.23,5.23,0,0,1,593.9,325.2Z" fill="none"/>
    <path id="Path_716" data-name="Path 716" d="M574,187c-.4,1.9-.8,4.1-1.2,6.4-1.5,8-3.3,15.8-5.2,23.7a2.894,2.894,0,0,1-1.6,2.4,2.217,2.217,0,0,0-.4,3.2,4.03,4.03,0,0,1,.6,3c-.8,6.2-1.6,12.5-2.3,18.7-.3,2.2-.5,4.4-.8,6.6a4.251,4.251,0,0,1-.2,1.1c0,.1-.1.3-.2.3-.2,0-.4-.1-.4-.2-.2-.4-.4-.9-.6-1.3a9.682,9.682,0,0,1-.9-6.9,84.624,84.624,0,0,0,1.4-10.1c.5-6.8,1.6-13.6,2.7-20.3.8-4.5,1.4-9.1,2-13.7a96.759,96.759,0,0,1,2.5-11.9,3.761,3.761,0,0,1,4-2.4c.6,0,.6.2.6,1.4Z" fill="none"/>
    <path id="Path_717" data-name="Path 717" d="M571.2,182.5a9.193,9.193,0,0,1-4.9-.7c-4.2-2-8.9-2.5-13.4-3.3-1.3-.2-2.6-.5-3.9-.7-3.9-.7-7.8-1.2-11.7-1.9-2.1-.4-4.2-1-6.3-1.5-6.2-1.5-12.4-3.1-18.7-4.6-1.9-.5-3.9-.8-5.8-1.3-.1,0-.3-.2-.4-.3.1-.1.2-.3.4-.3a5.841,5.841,0,0,1,3.7-.2c1.4.4,2.9.7,4.4,1,2.8.7,5.7,1.5,8.5,2.3,3.8,1,7.5,2.1,11.3,3,1.9.5,3.8.6,5.7,1,5.3.9,10.6,1.9,15.9,2.9,2.5.4,5,.7,7.4,1.3,2.6.6,5.1,1.3,7.6,2a25.038,25.038,0,0,1,2.6.7c.2,0,.3.2.4.3-.2.1-.3.3-.5.3A17.651,17.651,0,0,0,571.2,182.5Z" fill="none"/>
    <path id="Path_718" data-name="Path 718" d="M538.1,317.1c-.2,1.5-.4,3.1-.7,4.6-.2,1-.6,1.1-1.3.3-.8-.9-1.6-1.9-2.4-2.9-.6-.8-.5-1.3.3-1.8,1-.6,2.1-1.1,3.2-1.7.7-.3.9-.1.9.7A2.153,2.153,0,0,1,538.1,317.1Z" fill="none"/>
    <path id="Path_719" data-name="Path 719" d="M424.8,408.6V380a34.016,34.016,0,0,1,.3-4.5c.2-1.4.5-1.9,2-2.1,2.4-.4,4.9-.7,7.3-1,4.8-.6,9.6-1.1,14.5-1.7,11.9-1.5,23.6-3.9,35.4-6.2,4.9-1,9.7-2,14.6-3a4.331,4.331,0,0,0,.5-.1c1.3-.2,1.7.1,1.6,1.5-.2,3.4-.4,6.7-.8,10-.5,4.8-1.1,9.5-1.6,14.3-.5,4.3-1.1,8.7-1.7,13-.2,1.6-.3,3.2-.5,4.8-.3,3.8-.7,7.6-.8,11.5-.2,4.6-.2,9.1-.3,13.7v5.9c0,1.5-.2,1.7-1.5,2-3.4.8-6.9,1.6-10.4,2.2-4.3.7-8.7,1.2-13,1.9-2.5.4-5,1-7.6,1.5-1.5.3-3.1.4-4.6.8-4.9,1.4-9.9,1.7-14.8,2.6-4.2.7-8.4,1.3-12.6,2-1.1.2-2.2.3-3.4.5-1.5.2-1.8,0-1.9-1.5-.4-5.3-.7-10.5-.7-15.8,0-6.9-.1-13.8-.1-20.7v-2.9c0-.1,0-.1.1-.1Z" fill="none"/>
    <path id="Path_720" data-name="Path 720" d="M422.2,411v25.9c0,3,.2,6,.3,9,0,.6.3,1.5-.4,1.7-.3.1-1-.6-1.4-1-.6-.6-1.2-1.2-1.7-1.8a6.916,6.916,0,0,1-1-1.9,16.55,16.55,0,0,1-.3-3.2c-.3-7.7-.5-15.3-.8-23l-.3-6.6v-2.3c.1-1.2.2-1.3,1.4-.9,1,.3,1.5.3,1.9-.3a1.875,1.875,0,0,0-.4-2.3c-.5-.4-1.1-.7-1.7-1.1a2.209,2.209,0,0,1-1.1-2.4c1.1-7.6,1.3-15.2,1.7-22.8l.3-5.7a1.382,1.382,0,0,1,.5-.9c.1-.1.5.2.7.4.5.4.9.7,1.4,1.1a2.951,2.951,0,0,1,1.1,2.5c-.1,4.3,0,8.5-.1,12.8q-.15,9.9-.3,19.8c.1,1,.1,2,.2,3h0Z" fill="none"/>
    <path id="Path_721" data-name="Path 721" d="M425.7,370.8h-1.3c-.8.1-1.2-.4-1.6-1-.4-.7-.2-1.2.5-1.4,1.1-.3,2.2-.5,3.3-.7,6-1.2,12-2.4,18-3.4,5.8-1,11.6-1.9,17.4-2.8,7.9-1.1,15.8-2.1,23.7-3.3,1.9-.3,3.9-.8,5.8-1.3,1.3-.3,2.6-.6,3.9-.8a2.719,2.719,0,0,1,2.9,1.9,1.012,1.012,0,0,1-.4.7,8.446,8.446,0,0,1-1.7.5,63.622,63.622,0,0,0-7.6,1.4c-3,.7-6.1,1.1-9.2,1.7-4.4.9-8.8,1.9-13.2,2.7q-7.65,1.35-15.3,2.4c-5.2.8-10.3,1.5-15.5,2.3-1.9.3-3.8.4-5.7.6-1.3.2-2.6.4-4,.5Z" fill="none"/>
  </g>
  <path id="Path_722" data-name="Path 722" d="M397.9,228.4c0-.2-.1-.5-.1-.7,0-1.1.2-1.4,1.3-1.6a.747.747,0,0,1,1,.5c.1.3.2.7.3,1,.2.6.6.9,1.2.7l4.8-.9a114.851,114.851,0,0,0,16.2-4.6c.6-.2,1.2-.3,1.7-.5l2.7-.9a1.1,1.1,0,0,0,.8-1.2c0-.4-.1-.8-.1-1.3,0-.6.4-.8.9-.9a.779.779,0,0,1,1,.5c.3,1.1.5,2.2.7,3.3.1.6-.3,1-.8,1.3a6.944,6.944,0,0,1-1.3.5A175.746,175.746,0,0,1,409,229c-3.1.6-6.2,1.1-9.4,1.6-.2,0-.5.1-.7.1-.8,0-1.1-.2-1.2-1a2.549,2.549,0,0,0,.2-1.3Z" transform="translate(-265.688 -97.871)" fill-rule="evenodd"/>
  <path id="Path_723" data-name="Path 723" d="M399.8,211.6a1.8,1.8,0,0,1-1.7,1.9,1.342,1.342,0,0,1-1.5-1.4,2.381,2.381,0,0,1,1.9-2.3,1.611,1.611,0,0,1,1.3,1.8Z" transform="translate(-265.688 -97.871)" fill-rule="evenodd"/>
  <path id="Path_724" data-name="Path 724" d="M428.6,206.1a2.027,2.027,0,0,1-1.9-1.8,1.577,1.577,0,0,1,1.6-1.6,1.74,1.74,0,0,1,1.9,1.7,1.457,1.457,0,0,1-1.6,1.7Z" transform="translate(-265.688 -97.871)" fill-rule="evenodd"/>
  <path id="Path_725" data-name="Path 725" d="M306.3,222.8c0-.3-.1-.7,0-.9a1.6,1.6,0,0,1,.9-.7c.2-.1.6.3.8.5.3.4.4,1.2.7,1.3a4.067,4.067,0,0,0,1.9,0c3.7-.9,7.4-1.9,11.1-2.9l3.3-.9a1.649,1.649,0,0,0,1.5-1.7,5.019,5.019,0,0,1,.2-1.2c0-.7.5-.9,1.1-1a.875.875,0,0,1,1.1.7c.2,1.3.5,2.7.6,4.1.1.8-.5,1.3-1.2,1.6a29.067,29.067,0,0,1-3.9,1.2,89.2,89.2,0,0,0-11.3,2.9c-1.3.4-2.6.8-4,1.1s-2-.1-2.3-1.5a6.61,6.61,0,0,1-.5-2.6h0Z" transform="translate(-265.688 -97.871)" fill-rule="evenodd"/>
  <path id="Path_726" data-name="Path 726" d="M322.9,203c-.7,0-1.6-1.2-1.5-2.1a1.309,1.309,0,0,1,1.2-1.3,2.231,2.231,0,0,1,1.9,1.8A1.91,1.91,0,0,1,322.9,203Z" transform="translate(-265.688 -97.871)" fill-rule="evenodd"/>
  <path id="Path_727" data-name="Path 727" d="M307.3,204.6a1.655,1.655,0,0,1-1.5,1.7,1.6,1.6,0,1,1,0-3.2A1.536,1.536,0,0,1,307.3,204.6Z" transform="translate(-265.688 -97.871)" fill-rule="evenodd"/>
  <path id="Path_728" data-name="Path 728" d="M362.7,171.8c-2.8.1-4-1.4-3.5-3.4a1.5,1.5,0,0,1,1.4-1.2.783.783,0,0,1,1,.7,4.331,4.331,0,0,0,.1.5c.3,1.1.4,1.3,1.6,1.2,1.3-.1,2.6-.3,3.9-.5,3.8-.6,7.6-1.2,11.3-1.8a3.506,3.506,0,0,0,1.4-.6,3.306,3.306,0,0,1,2.3-.7c.8.1,1.1.4,1.2,1.1.1.8-.1,1.4-.8,1.5-1.6.4-3.1.7-4.7,1-3,.5-5.9.9-8.9,1.3C366.7,171.2,364.4,171.5,362.7,171.8Z" transform="translate(-265.688 -97.871)" fill-rule="evenodd"/>
  <path id="Path_729" data-name="Path 729" d="M358.5,155.7a1.869,1.869,0,0,1,1.7,1.9,2.127,2.127,0,0,1-1.8,1.9,2.467,2.467,0,0,1-1.9-1.9,2.142,2.142,0,0,1,2-1.9Z" transform="translate(-265.688 -97.871)" fill-rule="evenodd"/>
  <path id="Path_730" data-name="Path 730" d="M374,156.4a1.79,1.79,0,0,1,1.5-1.9,2.334,2.334,0,0,1,2,2c.1.8-.9,1.7-2,1.6a1.53,1.53,0,0,1-1.5-1.7Z" transform="translate(-265.688 -97.871)" fill-rule="evenodd"/>
  <path id="Path_731" data-name="Path 731" d="M545.5,218.5a24.752,24.752,0,0,1-.6,2.9,1.411,1.411,0,0,1-1.7,1.2,4.529,4.529,0,0,1-1.6-.3c-6.3-1.7-12.7-3.4-19-5.2a52.252,52.252,0,0,0-6.6-1.5,4.958,4.958,0,0,1-2-.8,2.3,2.3,0,0,1-1.3-2,24.328,24.328,0,0,1,.3-3.8c.1-.7.7-1,1.5-1,.5,0,.8.2.8.7a16.955,16.955,0,0,0,.1,2.2,1.342,1.342,0,0,0,1.2,1.5l6.9,1.8c5,1.3,9.9,2.6,14.9,3.9a15.945,15.945,0,0,0,3,.6c1.5.2,1.8-.1,2-1.6a1.7,1.7,0,0,1,.1-.7c.1-.5.3-.9.8-.8a1.7,1.7,0,0,1,1,.6,8.215,8.215,0,0,0,.2,2.3Z" transform="translate(-265.688 -97.871)" fill-rule="evenodd"/>
  <path id="Path_732" data-name="Path 732" d="M518.7,189.7a2.028,2.028,0,0,1-2.2,1.7,1.577,1.577,0,0,1-1.6-1.6,1.936,1.936,0,0,1,1.8-1.8,2.056,2.056,0,0,1,2,1.7Z" transform="translate(-265.688 -97.871)" fill-rule="evenodd"/>
  <path id="Path_733" data-name="Path 733" d="M547,197.3a1.626,1.626,0,0,1-1.7,1.7,1.71,1.71,0,0,1-1.6-1.4,1.572,1.572,0,0,1,1.6-1.8A1.655,1.655,0,0,1,547,197.3Z" transform="translate(-265.688 -97.871)" fill-rule="evenodd"/>
  <path id="Path_734" data-name="Path 734" d="M553.7,330c.5-1.6,1-3.2,1.6-4.7.4-1,1-1.1,1.9-.6.8.4,1,.7.7,1.6-.3,1-.6,1.9-1,2.9a1.592,1.592,0,0,0,.7,2c.3.2.7.5,1,.7,1.6,1.1,3.2,2.1,4.8,3.2a3.039,3.039,0,0,0,.7.5c1,.6,1.4.5,2.1-.5.4-.5.7-1.1,1.1-1.6.5-.6.9-.6,1.5-.1a1.734,1.734,0,0,1,.5,1.8c-.5,1.3-1.1,2.7-1.7,3.9a1.507,1.507,0,0,1-2,.8,4.2,4.2,0,0,1-1.9-.9,74.807,74.807,0,0,0-7.9-5.6,4.811,4.811,0,0,1-1.1-.9,4.3,4.3,0,0,1-1-2.5Z" transform="translate(-265.688 -97.871)" fill-rule="evenodd"/>
  <path id="Path_735" data-name="Path 735" d="M558,301.6c0,1.2-.6,2.5-1.3,2.6-.5.1-1.9-1-2.2-1.9a1.417,1.417,0,0,1,.1-1.1,3.178,3.178,0,0,1,1-1C556.8,299.4,558,300.1,558,301.6Z" transform="translate(-265.688 -97.871)" fill-rule="evenodd"/>
  <path id="Path_736" data-name="Path 736" d="M571,318.1a1.869,1.869,0,0,1-1.7,1.9,2.158,2.158,0,0,1-1.8-2.1,1.774,1.774,0,0,1,3.5.2Z" transform="translate(-265.688 -97.871)" fill-rule="evenodd"/>
</svg>
