<svg id="government" xmlns="http://www.w3.org/2000/svg" width="577.611" height="355.225" viewBox="0 0 577.611 355.225">
  <path id="Path_568" data-name="Path 568" d="M310.6,333.1l.8-49,43.1-7.1L347,326.6l-38.8,10.2" transform="translate(-173.3 -174.675)" fill="#a1dba3"/>
  <path id="Path_569" data-name="Path 569" d="M398.7,272.1l-9.5-22.9s-7.8-2.8-8.1-6-.3-6.2,2.7-8.2,6.8.4,7.4,2.9a87.665,87.665,0,0,1,1.1,8.8l13.4,21.7Z" transform="translate(-173.3 -174.675)" fill="#e5e723"/>
  <path id="Path_570" data-name="Path 570" d="M462,299.7c.5-4.8,1.2-9.8,2.9-9.2s6.2,2.3,6.2,2.3L481,295l4-5.3,43.3,10.9v8h4v7.2l-2.2,2.1-3.3,3.7-43.6-3.7-1.5-11.4-14.1,4.3c-.1.1-6.1-6.6-5.6-11.1Z" transform="translate(-173.3 -174.675)" fill="#9dd3cc"/>
  <g id="Group_30" data-name="Group 30" transform="translate(-173.3 -174.675)">
    <path id="Path_571" data-name="Path 571" d="M578.1,294c.1,0,2.1,1.4,2.2.8,0-.2-1.6-8.8-1.8-9.5C578.2,286.1,577,294.1,578.1,294Zm-47.7,18.5a5.749,5.749,0,0,0,.1,1.9c.1.4.8.7,1.2,1.1.3-.4.8-.8.9-1.3a6.088,6.088,0,0,0-.2-2.7c-.2-.6-.8-1-1.3-1.5a8.8,8.8,0,0,0-.5,1.5A1.978,1.978,0,0,0,530.4,312.5ZM395.3,259.1c0,.5-.2.9-.1,1.1,1.6,2.8,3.2,5.6,5,8.2.9,1.3,2,0,3-.3s.4-1.1.2-1.6c-1-2.9-3.3-4.6-5.8-6.1a20.236,20.236,0,0,1-2.3-1.3Zm-3.1-11.5c-1.2.1-2.9,2.4-2.5,3.1.8,1.5,1.6,3,2.5,4.4.7,1.3,3.7.4,4,.2.2-.2.5-.7.4-.9-1.2-2.2-2.4-4.3-3.7-6.4-.3-.2-.6-.3-.7-.4Zm87.1,54c.1-5.7-.6-5.3-5.1-6.6-.2-.1-.4-.1-.6-.2-.9-.3-1.3-.3-1.2.9.4,3.6,1,7.3-1.2,10.7a1.69,1.69,0,0,0-.2.5c.3.6.7,1.5,1,1.5a30.369,30.369,0,0,0,5.2-.4c.5-.1,1.1-.9,1.3-1.5a27.8,27.8,0,0,0,.8-4.9Zm-16.4,3.8a2.822,2.822,0,0,0,2.8,2.1,3.539,3.539,0,0,0,3.2-2.6c.9-3.5,2-7,.2-10.5a6.147,6.147,0,0,0-4.2-3.8C462.6,290.2,460.8,299,462.9,305.4Zm-75.7-58.1c1.9,0,4.9-3.5,4.7-5.8-.3-4.3-2-7.4-5.4-7.2a9.953,9.953,0,0,0-5.1,2.1,5.087,5.087,0,0,0-2.3,4.3c.1,2.4.9,4.8,2.7,6.1,1.3,1,5.4.6,5.4.5Zm110.7,81.5c5,.7,10.1,1.3,15.2,1.9.5.1,1.4-.5,1.4-.9a30.921,30.921,0,0,0,.7-5.2,1.523,1.523,0,0,0-1.6-1.8c-1.6-.1-3.1-.4-4.7-.6-3.6-.5-7.1-1-10.7-1.5-1.8-.2-1.9,0-1.8,1.7.1,1-.4,6.1,1.5,6.4Zm-5.7-1.3c.4-.1,1.1-.5,1.1-.8,0-2.1-.2-4.2-.4-6.2,0-.2-.6-.5-.9-.5a65.059,65.059,0,0,0-8.8-.6c-2.6.1-3.3-1.2-3.8-3.5a20.937,20.937,0,0,0-.8-3.6,1.509,1.509,0,0,0-1.3-.8c-1.1,0-2.2.2-3.3.2-1.1.1-1.7.6-1.6,1.8a65.054,65.054,0,0,0,.7,7.6,5.129,5.129,0,0,0,2.1,2.9,17.326,17.326,0,0,0,5.1,1.9c3.2.6,11.2,1.7,11.9,1.6Zm5.9,4.7a1.234,1.234,0,0,0-.8.5c.1,3.8.9,7.5,3.6,10.3,2.8,2.9,7.1,2.5,10.8,3,1,.1,1.3-3.4,1.4-4.3.1-1.9.3-3.8.5-5.7.2-1.3-.2-2.2-1.6-2.4-3.4-.5-12.7-1.5-13.9-1.4Zm32.1-52.5a8.333,8.333,0,0,0-1.5.4,6.376,6.376,0,0,0-1.4.8c.5.3.9.7,1.4,1,2.1,1,4.3,1.9,6.5,2.8,4.6,1.8,9.2,3.6,13.7,5.4,4.8,1.9,9.7,3.7,14.5,5.6,4.6,1.8,9.2,3.5,13.8,5.3,3.6,1.3,7.2,2.5,10.7,4,1.8.8,3.3.4,4.9,0,.3-.1.5-.4.7-.6-.2-.2-.4-.5-.7-.6-1-.4-2.1-.8-3.1-1.2-2.6-1-5.3-1.9-7.9-3-3.6-1.5-7-3.3-10.6-4.7-4.6-1.7-9.3-3-13.9-4.7-3.9-1.5-7.7-3.3-11.6-4.9-4.7-1.8-9.5-3.5-14.2-5.3-.5-.1-.9-.2-1.3-.3Zm49.7-54.5c-.1-.9,0-1.9-.1-2.8a2.189,2.189,0,0,0-.8-1.4c-2.2-.8-5.6,1.6-5.8,3.9-.2,3.3-.4,6.6-.6,9.8-.4,5.8-.8,11.7-1,17.5-.3,6.3-.3,12.6-.6,18.9-.2,5.9-.6,11.8-.8,17.7-.1,2.3.4,3,2.6,3.8,2,.8,2.3.7,2.5-1.4.3-3.7.1-7.5.6-11.2a21.9,21.9,0,0,0-2.9-15,3.055,3.055,0,0,1-.2-1.9,1.818,1.818,0,0,1,1-1.1,2.018,2.018,0,0,1,1.4.5c.3.3.5.8.8,1.1.1.2.4.3.5.5.1-.3.3-.5.4-.8.4-2.3.9-4.5,1.1-6.8.4-5.2.6-10.5.8-15.7.1-1.1.1-2.1.2-3.1.1-4.2.5-8.3.9-12.5Zm4.6,186.6c0,1.7-.1,3.4-.2,5.1-.1,1.2,0,1.8,1.6,1.6,3.2-.4,3.4-.5,4-3.7a12.287,12.287,0,0,0,.2-2.7c.1-2,.1-3.9.2-5.9.2-4.1.5-8.1.7-12.2.3-5.1.4-10.2.7-15.3.2-3.7.5-7.5.6-11.2.2-4.6.3-9.3.4-13.9.1-1.9.5-3.7-1-5.4-.9-1.1-.4-2.2,1-3a1.943,1.943,0,0,0,.9-1.1c.2-1.6.4-3.3.5-4.9.2-2.9.2-5.8.5-8.6.1-1.7.5-3.4.6-5,.4-4.1.8-8.2,1.3-12.3.2-1.5.5-3,.7-4.5a1.858,1.858,0,0,0-.7-1.3c-1.2-.3-3.6,1.3-3.9,2.5a37.745,37.745,0,0,0-.8,5.6c-.1,4.7,0,9.3-.1,14,0,1.6-.6,12.8-1.1,16.8-1,9.3-1.8,18.7-2.8,28-.5,5.2-1.5,10.3-1.9,15.4C585.2,397,584.9,404.4,584.5,411.8Zm-10-194h1.3a2.921,2.921,0,0,0,.9-.2c-.2-.2-.4-.5-.7-.6-1.1-.5-2.2-.8-3.3-1.3-7.5-3.2-15-6.4-22.4-9.8-3.7-1.7-7.3-3.6-10.9-5.3-1.9-.9-3.9-1.9-5.9-2.7-3-1.2-6-2.2-9-3.4-7.2-3-14.4-6.1-21.6-9.1a85.743,85.743,0,0,0-12.9-4.5c-3.2-.7-6.3-1.8-9.5-2.4-1.5-.3-3.2.2-4.8.5-.3.1-.6.6-.9.9a8.8,8.8,0,0,0,1,.6c1.8.7,3.6,1.3,5.4,2,4.1,1.7,8.1,3.5,12.3,5.1,3.6,1.5,7.3,2.8,11,4.2,2.8,1.1,5.5,2.3,8.2,3.3,5.8,2.1,11.7,4,17.4,6.1,3.1,1.1,6,2.6,9.1,3.8,4.3,1.7,8.7,3.2,13.1,4.8,1.1.4,2.2,1.2,3.3,1.6,3.8,1.5,7.5,3.1,11.4,4.4,2.3,1,4.6,2.5,7.5,2ZM521,319.8h2.6c3.4.2,3.7-.1,3.8-3.5v-.4c.4-4.3.6-8.6,1.1-12.9.3-2.7-.4-3.8-3.1-4.1-6.2-.8-12.4-1.5-18.3-3.6-3.5-1.2-7-2.1-10.6-3-3.7-.9-7.5-1.8-11.3-2.5-2-.4-2.5,0-2.7,2.1-.2,1.8-.2,3.7-.3,5.5-.2,5-.5,10-.5,15,0,2.5.6,3,2.9,3.5,1.3.3,2.6.5,3.9.7,4.4.6,8.7,1.2,13.1,1.6,6.3.6,19.4,1.6,19.4,1.6Zm-7.4,50.5c.4,2,.2,3.9,1.1,4.8a48,48,0,0,0,7.4,6.1c4.7,3.3,9.5,6.3,14.2,9.5,2.3,1.6,4.3,3.4,6.6,5,3.2,2.2,6.5,4.3,9.7,6.4,5,3.3,10,6.8,15.1,10,3.8,2.4,7.6,5,12.1,6.2,1,.3,1.4.1,1.6-.7a36.2,36.2,0,0,0,.6-4.6c.5-4.8.9-9.7,1.3-14.5.7-8.3,1.4-16.6,2.2-24.9.5-5.7,1.2-11.4,1.7-17,.6-6.8,1.1-13.6,1.6-20.4.2-3,.4-6,.5-9,.1-3.4.1-6.8.1-10.2,0-2.1-.1-4.2-.2-6.3,0-1.6-.9-2.3-2.3-2.8-2.8-.9-5.7-1.7-8.4-2.8-5.9-2.2-11.7-4.6-17.5-6.9-2.2-.9-4.5-1.8-6.7-2.7-1.2-.5-2.3-.9-3.5-1.4-3.4-1.3-6.8-2.4-10.1-3.9-4.4-1.9-8.7-4-13-6-2.6-1.2-3.3-.9-4,2-.6,2.5-1.1,5-1.7,7.5-.3,1.1-.2,1.7,1.1,1.9,2.2.4,4.3.9,6.5,1.5,1.7.5,2.1,1.2,1.9,2.9-.2,1.4-.3,2.7-.5,4.1-.4,2.5-.4,2.5,2.2,3.1.2,0,.4.1.6.1,1.4,0,1.7.9,1.7,2.1a54.41,54.41,0,0,0,.3,5.7c.3,2.7-.4,3.6-3.1,3.8s-2.7.2-3.4,2.8c-.4,1.6-1,2.1-2.6,1.9-2-.2-4-.5-6.1-.8-1-.1-1.8,0-2,1.3-.8,6.8-1.6,13.5-2.4,20.3-.3,2.4-.1,4.9-.4,7.3-.7,6.4-1.5,12.7-2.2,18.6Zm-41.2-83.9c.1,4.1.5,4.6,4.4,5.7.3.1.5.1.8.2a1.661,1.661,0,0,0,2.3-1.4l.6-2.7c.6-2.1,1.2-2.5,3.4-2.1,1,.2,1.9.5,2.9.7,5.2,1.2,10.5,2.4,15.7,3.7,4.8,1.2,9.5,2.5,14.3,3.7,2,.5,2.4.2,2.9-1.8.7-2.5,1.2-5,1.9-7.4a42.431,42.431,0,0,1,1.8-5c.6-1.1,7.5-3,8.8-2.5,2.4.8,4.9,1.5,7.2,2.5,3.7,1.5,7.2,3.1,10.9,4.6,2.8,1.1,5.7,2.1,8.5,3.1,2.2.8,4.3,1.5,6.5,2.2,1.2.4,1.6-.3,1.6-1.3.1-2,.3-3.9.4-5.9.2-3.7.3-7.5.5-11.2.3-5.6.7-11.3.8-16.9.2-10.2.2-20.4,1.7-30.5.3-2.3-.3-3-2.4-3.9-4.1-1.7-8.2-3.4-12.3-5.2-3.5-1.5-6.9-3.3-10.4-4.7-6.9-2.7-13.9-5.1-20.8-7.7-1.9-.7-3.6-1.7-5.5-2.4-5.4-1.9-10.9-3.7-16.3-5.6-5.6-2.1-11.1-4.4-16.6-6.6-4.1-1.6-8.3-3.2-12.4-4.8-2.8-1.1-3.1-.9-3.2,2.1v1.4c.3,9.2.6,18.5.8,27.7.2,6.9.1,13.8.3,20.7.1,4.9.5,9.7.7,14.6.2,3.5.3,15,.3,17.3,0,1.3-.2,18.3-.1,19.4Zm63.8,136.5a31.17,31.17,0,0,0,.5,6.8c.3,1.8-.2,2.8-2.1,3-3.2.4-6.4.9-9.6,1.2a2.461,2.461,0,0,1-2-1c-.4-1,.5-1.5,1.4-1.7,2.3-.4,4.5-.9,6.8-1.2,1.3-.1,2-.6,2.1-1.9a9.347,9.347,0,0,0,.2-2.3c-.1-2.8,1.3-25.3,1.6-30,.2-2.4-1.1-3.4-2.6-4.4-2.4-1.7-5-3.1-7.4-4.7-4.4-3-8.6-6.2-13-9.2a3.371,3.371,0,0,1-1.7-3.4c.3-2.8.3-5.6.6-8.4.4-4.6.9-9.1,1.4-13.7.2-1.5-.2-2.2-1.7-2.1a16.133,16.133,0,0,1-12.2-3.7c-3.1-2.8-3.7-7.2-4.1-8.9s-.6-3.3-1.1-5c-.1-.5-2-.6-2.1-.2a30.026,30.026,0,0,0-.8,5.1c-.2,2.8-.4,5.6-.4,8.4.1,4.1.5,8.1.7,12.2a4.764,4.764,0,0,1-.9,2.9c-2.4,2.8-5,5.4-7.5,8.1a23.48,23.48,0,0,0-1.9,2.5c-.5.8-1.1,1.6-2.2,1a2.032,2.032,0,0,1-.4-2.8,16.6,16.6,0,0,1,1.4-1.3c2.3-2.6,4.7-5.1,6.9-7.8,1.8-2.2,1.6-4.9,1.6-7.6.2-6.3.4-12.6.4-18.9.1-4.2.5-3.7-3.5-4.3a65.914,65.914,0,0,1-12.5-3.4,1.686,1.686,0,0,1-1.3-1.7c-.4-3.1-.8-6.2-1.2-9.4-.3-3.1-.6-3.5-3.7-3.5a4.693,4.693,0,0,1-4.1-2.1,18.011,18.011,0,0,1-3.4-11.5c.1-4.5,3.8-11.8,6.6-10.8a25.535,25.535,0,0,1,3.5,1.4c.9.4,1.2.1,1.2-.9-.1-3.4-.2-6.8-.2-10.2,0-3,.1-5.9.2-8.9,0-2.1-.3-10.2-.3-10.2s-5.4,2.6-6.1,3c-2.7,1.2-17,5.9-24,7.2a126.808,126.808,0,0,1-22.1,1.8,42.47,42.47,0,0,1-7.1-1.4,3.391,3.391,0,0,0-3.3.6c-2.1,1.5-4.7,2.3-7.1,3.3-.3.1-1-.3-1.2-.7-1.5-2.6-2.8-5.3-4.3-8-1.6-2.9-3.2-5.7-4.9-8.5a22.114,22.114,0,0,0-2.8-4,3.7,3.7,0,0,0-2.2-1.2c-3.4-.5-5.2-2.2-6.4-5.5a14.874,14.874,0,0,1-1-5.5,5.806,5.806,0,0,1,3.2-5.3,39.706,39.706,0,0,1,3.6-1.7c4.2-1.6,7-.4,9.1,3.6,1.3,2.5,2.1,5.1,1,8a3.1,3.1,0,0,0,.5,2.2c2.1,3.7,4.1,7.5,6.4,11,1.2,1.8,3.2,3.2,4.9,4.7,3,2.9,6.7,4.1,10.7,4.9,1.7.4,12,.5,22-1.2,9.6-1.6,27.5-9.2,30.4-12a3.6,3.6,0,0,0,.9-2.2c-.2-6.2-.5-12.5-.7-18.7-.2-5-.3-10.1-.4-15.1,0-3.2.2-6.4.1-9.6-.1-6.5-.3-13.1-.5-19.6a56.67,56.67,0,0,0-.6-7.1,2.042,2.042,0,0,1,.9-2.4,30.712,30.712,0,0,1,3.1-1.7,49.341,49.341,0,0,1,6.4-2.4,8.135,8.135,0,0,1,3.8,0c2.2.6,4.4,1.4,6.5,2.2,8.7,3.2,17.4,6.3,26,9.5,4.2,1.6,8.4,2.9,12.3,5.2,2.4,1.4,5.3,2,7.8,3.2,4,1.9,7.9,4,12,5.9,2.6,1.3,5.4,2.3,8,3.5,2.2,1,4.3,2.2,6.6,3.2,2.9,1.2,5.9,2.2,8.8,3.3,3.7,1.4,7.3,2.9,11,4.4a2.922,2.922,0,0,1,2,3.1c-.3,6-.7,11.9-1.1,17.9-.1,1.5,0,3-.2,4.5-.6,7.9-1.2,15.9-1.8,23.8a81.863,81.863,0,0,0,.1,13.1c.5,6.1,2.5,11.8,3.3,17.8a2.129,2.129,0,0,0,1.7,1.9c2.3.8,4.6,1.5,6.8,2.5a51.149,51.149,0,0,1,6,3.4,2.957,2.957,0,0,1,1.5,3.3c-.4,3.1-.8,6.3-1.1,9.4-.6,7-1,13.9-1.5,20.9-.3,3.4-.7,6.8-1.1,10.2a4.869,4.869,0,0,0,.2,2.1c.8,2.5,4.3,10,6.2,17.8,1.6,6.7,3.1,16.1,4.2,22.3.4,2.4,1.1,9.6,1.3,13.3.2,3.2-3.3,3.3-3.5,1.7-.5-4.1-.5-12.1-1.8-21.3-1.3-8.9-4.3-17.8-4.7-19.8a31.1,31.1,0,0,0-1.6-4.9,2.65,2.65,0,0,0-.5-.6c-.1.2-.3.4-.3.6-.2,2.5-.5,5-.6,7.5-.3,5.3-.4,10.6-.7,15.9-.1,1.9-.1,3.8-.2,5.7-.3,5.8-.6,11.6-.9,17.3-.2,3.9-.4,7.9-.6,11.8-.1,2.3-1,3.5-3.2,4.1a18.168,18.168,0,0,1-16-2.2c-3-2-6.2-3.7-9.4-5.4a7.366,7.366,0,0,0-1.4-.4,9.007,9.007,0,0,0-.3,1.6c-.1,1.6-.1,3.3-.2,4.9v.4c-.2,2.2.3,12.2-.5,17.6-.3,2.3-1.3,3.1-1.9,3.3-3.2.6-6.4,1.4-9.6,2.1-.6.1-1.7-2.2-1.2-2.7a4.4,4.4,0,0,1,2.3-1,43.457,43.457,0,0,1,5.2-1c1.4-.2,2-.9,2.1-2.4.3-4.7.7-9.4,1-14.1.2-3.5.1-7,.1-10.5a1.889,1.889,0,0,0-.7-1.3c-3.4-2.3-6.8-4.4-10.2-6.7-2.7-1.8-5.3-3.9-8-5.8a5.36,5.36,0,0,0-1.9-.7,5.84,5.84,0,0,0-.4,1.8c.1,2.7-1,19.1-1.4,24.8Z" fill="#181715" fill-rule="evenodd"/>
    <path id="Path_572" data-name="Path 572" d="M356.7,292.5c-.1-.6-.6-2-.8-2.7a9.751,9.751,0,0,0-.8-2.2c-.2.3-1.4,5-1.8,6.3a41.764,41.764,0,0,0-.9,5,15.367,15.367,0,0,0,1.9-.9,5.628,5.628,0,0,0,2.4-5.5Zm-20.3-19.7c.2,1.4,1,1.7,2.2,1.5,2.3-.4,4.5-.8,6.8-1.2,1.9-.4,2.1-.5,1.2-2.2-2.3-4.5-4.8-8.8-7.4-13.1a5.974,5.974,0,0,0-2.3-1.8c-1.2-.7-1.4-.5-1.4.9,0,3.6.8,14.4.9,15.9Zm-52.6-62.9c-6.5,1.8-13.1,3.2-19.7,4.8-5.4,1.3-10.7,2.7-16.1,4-3.8.9-16,3.2-17.5,3.8-.6.2-1.3.4-2,.6.6.4,1.3.9,2,1.3,1.5.8,3.1,1.3,4.7.6,3.6-1.6,7.4-2.2,11.2-3,3.4-.8,27.3-5.6,33.1-6.8,7.2-1.5,14.3-3.2,21.5-4.8,2.6-.6,16.6-4.3,21.3-4.7a42.986,42.986,0,0,0,6.9-1.6,5.939,5.939,0,0,0,.8-.4c-.2-.2-.3-.6-.6-.7a15.986,15.986,0,0,0-13.5-1.2,34.475,34.475,0,0,1-4.6,1.2c-3.9.7-27.5,6.9-27.5,6.9Zm-53.4,17.7c-3.9-1.4-4-1.3-3.7,3.1.3,3,.5,6,.8,9,.3,2.8.5,5.6.8,8.4.6,5.3,4,52.8,4.1,56.4.2,4.9.2,9.7.4,14.6.2,3.4.7,9,.6,9a11.019,11.019,0,0,1,.2,1.8,4.127,4.127,0,0,0,2.8,4.3l3.9,1.5c1.2.4,2,.2,1.9-1.3-.1-2.2-.2-4.3-.4-6.5-.6-5.9-1.2-11.7-1.8-17.6-.7-6.9-1.3-13.7-2.1-20.6-.3-2.4-1-3.5-2.7-6.7s-2.1-3.4-2.6-5.8a1.494,1.494,0,0,1,1.3-2,2.223,2.223,0,0,1,1.3.9,9.821,9.821,0,0,1,.8,1.8c.1.2.4.3.6.5.1-.3.3-.6.2-.8-.6-4-1.3-7.9-1.8-11.9a75.839,75.839,0,0,1-.8-8.2c-.1-2.6.2-5.3-.1-7.9-.7-6.2-.4-15.5-.3-18.6-.1-3.1-3.4-3.4-3.4-3.4Zm76.2,86.5a8.552,8.552,0,0,0,0-1.6,1.765,1.765,0,0,0-.8-.9c-3.8-.4-7.6-.7-11.4-1-7.2-.6-14.4-.8-21.6-1.7-4.2-.5-15-2.3-20.7-7.8-2.9-2.4-5.6-5.3-8.3-7.9a9.022,9.022,0,0,0-2-1.4,21.051,21.051,0,0,0-.2,2.5c.5,5.9.9,11.8,1.5,17.7.8,8,1.8,16,2.7,24.1.2,1.5.9,1.7,2.2,1.4l6-1.8c3.2-1,6.4-1.9,9.6-3,3.5-1.2,7-2.5,10.6-3.8a45.965,45.965,0,0,1,7.2-2.2c7.7-1.4,14.8-4.6,21.9-7.5,2.3-1,3.7-2.4,3.3-5.1Zm6.5-32c-1.3.2-1.6.8-1.6,1.9-.2,4.1-.5,8.3-.8,12.4-.3,3.1-.7,6.1-1,9.2-.2,1.8.2,2.3,2,1.9,2.1-.5,4-1.3,6.1-1.9a2.484,2.484,0,0,1,1.9.1c.4.3.8,1.2.6,1.6a3.117,3.117,0,0,1-1.6,1.6,67.433,67.433,0,0,1-7.5,1.7c-1.5.3-1.9,1-1.9,2.4,0,1.7-.1,3.4-.2,5.1-.3,3.9-.8,12.4-.8,12.8-.1,2.4.1,2.6,2.6,2.1,3.3-.6,6.6-1.2,9.8-2,5.7-1.4,11.3-3,16.9-4.6,1.8-.5,3.7-1,5.5-1.5a4.039,4.039,0,0,0,3.3-3.5c.6-4.9,1.6-9.7,2.4-14.6a4.441,4.441,0,0,0,0-2.8c-.3-.5-1.6-.4-2.5-.5a1.838,1.838,0,0,1-1.7-2.1c0-1.2,1.1-1.1,1.9-1.1a4.4,4.4,0,0,1,1,.2c1.8.3,2.2,0,2.6-1.8.9-4,1.8-7.9,2.6-11.9.7-3.3,1.3-6.6,1.9-9.8.3-1.4-.2-2-1.6-1.9-3.8.4-7.6.6-11.3,1.2s-7.4,1.6-11.1,2.4Zm-75.6-20.5c.2,1.7.4,4.2.8,6.7.7,5.2,1.4,10.4,2.2,15.5a4,4,0,0,0,.7,1.8,52.037,52.037,0,0,0,3.7,4.3c1.8,1.8,3.7,3.3,5.5,5.1a34.812,34.812,0,0,0,11.2,7.1,79.288,79.288,0,0,0,18.6,4.6c4.7.3,9.4.7,14.1,1,3.5.2,7.1.5,10.6.6,2,.1,2.2-.4,2.3-2.3.1-2.2.2-4.5.3-6.7.1-1.8.4-3.5.5-5.3.2-4.1.4-8.3.6-12.4a1.966,1.966,0,0,1,1.8-2c3.4-.5,6.7-1.2,10.1-1.8l10.8-2.1a1.641,1.641,0,0,0,1.5-1.9c-.1-2.4.2-4.9,0-7.3a182.747,182.747,0,0,1-.3-23.4c.3-6.5.5-13.1.6-19.6.1-4.9-.5-9.8.4-14.7.3-1.5-.2-1.9-1.7-1.6l-9.9,1.5c-1.8.3-3.6.8-5.4,1.2-2.8.7-5.6,1.7-8.4,2.2-7.1,1.5-14.2,2.7-21.3,4.1-9.7,1.9-19.3,3.8-29,5.9-6,1.2-11.9,2.6-17.9,4-2.6.6-3.3,1.6-3.4,4.3,0,.9.1,1.8.1,2.8.1,5,.1,10.1.3,15.1.1,4.2.4,8.4.6,13.3Zm54.6,87.3c0-2,.3-4.1.4-6.1.2-4.9.3-9.7.5-14.6,0-1.4-.7-1.7-1.9-1.4-2.2.6-4.3,1.1-6.5,1.8-2.9.9-5.9,1.8-8.8,2.8a1.993,1.993,0,0,0-1.5,2.2c-.1,5.1-.5,10.3-.4,15.4.2,7.5.3,15,1.9,22.3a25.79,25.79,0,0,1,.4,3.9,4.639,4.639,0,0,0,2.4,3.9c1.7,1.1,3.3,2.1,4.9,3.2,1.3.9,1.7,2.1.9,2.9-.7.8-2.3.6-3.4-.2a67.012,67.012,0,0,0-6-4.5,3.877,3.877,0,0,1-2-3.7c0-2.2-.2-4.3-.3-6.4-.4-5.9-1-11.8-1.2-17.7-.2-6-.1-12.1,0-18.1,0-1.6-.5-1.7-1.8-1.3-7.2,2.4-14.5,4.8-21.7,7.2a3.507,3.507,0,0,1-3-.1c-3.1-1.3-6.3-2.3-9.3-3.7a18.749,18.749,0,0,1-3.8-2.4,2.168,2.168,0,0,1-.5-1.4c-.7-7.4-1.4-14.8-1.9-22.2-.2-2.9-1.1-25.1-1.5-31.6-.5-7.7-.9-15.5-1.5-23.2-.4-5.6-1-11.3-1.6-16.9-.2-1.8-.6-3.6-.8-5.5-.2-2.8-.4-5.6-.5-8.4a5.018,5.018,0,0,1,3.3-4.5c4.9-1.2,9.8-2.6,14.7-3.7,10.3-2.3,20.6-4.6,31-6.9,1.5-.3,2.9-.8,4.3-1.2,5.4-1.6,38.2-10.1,43.6-11.3a7.724,7.724,0,0,1,4,.2,77.059,77.059,0,0,1,8,3c3.1,1.4,3.8,2.1,3.7,6.3-.1,9.4-.5,28.3-.9,33.7a72.969,72.969,0,0,0-.1,8.1,2.354,2.354,0,0,0,1,1.8c3.6,1.9,5.6,5.3,7.8,8.4a120.464,120.464,0,0,1,6.5,10.9c.8,1.5,1.8,1.7,3.2,1.7.3,0,.5-.1.8-.1,3.5-.4,3.9.2,3.1,3.7-.6,2.3-1.2,4.6-1.6,6.9a4.109,4.109,0,0,0,.7,2.3,21.664,21.664,0,0,1,2.3,8.9,9.587,9.587,0,0,1-2.8,6.9c-1.1,1.1-2.5,1.7-3.7,2.7a3.192,3.192,0,0,0-.9,1.6c-.6,3.3-1,6.6-1.5,9.9s-1,6.6-1.4,10a2.077,2.077,0,0,1-1.9,2.1c-4.6,1.1-9.2,2.2-13.7,3.4-4.1,1.1-8.2,2.4-12.3,3.5-1.6.4-3.2.7-4.7,1.1-2.7.7-5.3,1.4-8,2-2.2.6-2.8.1-2.8-2.1,0-3.5.1-7,.1-10.4,0-2.1-.2-2.3-2.1-1.6-2.1.7-4.1,1.5-6.1,2.2a2.08,2.08,0,0,0-1.4,2.1c-.4,7.1-1.1,14.1-1.3,21.2-.1,5.6.3,11.3.6,17a50.324,50.324,0,0,0,.8,5.6,3.36,3.36,0,0,0,1,1.6c2.7,1.8,5.5,3.6,8.2,5.4,1.4.9,1.6,2.8.3,3.6a2.126,2.126,0,0,1-1.9-.1c-3-2-5.9-4.2-8.9-6.1-1.3-.8-2.2-1.6-2.1-3.2.3-1.8-.5-17.2-.4-22.8Z" fill="#181715" fill-rule="evenodd"/>
    <path id="Path_573" data-name="Path 573" d="M430.6,371.1c-3.7.2-7.5.2-11.2.4-6,.3-11.9.7-17.9,1-4.6.2-9.2.3-13.8.4-3.7.1-7.4.2-11,.1-7.6-.2-15.2-.4-22.8-.7-6.7-.2-13.5-.7-20.2-.7-5.2,0-10.5.5-15.7.7-1.2,0-2.4-.1-3.5-.1a1.324,1.324,0,0,1-1.3-1.8c.2-.6,1.2-1.6,1.6-1.5,6.5,1.5,13.1.4,19.6.8,4.6.3,9.3.1,14,.3,4.2.2,8.4.6,12.6.7,4.9.2,9.8.2,14.7.2,6.4,0,27.1-.8,31.1-.9,4.9-.2,27.8-1.5,34.4-1.9,4.5-.3,20.7-1.5,22.8-1.5s1.1,2.8.7,2.9a29.84,29.84,0,0,1-4.2.4c-1.4,0-21.3.7-29.9,1.2Z" fill="#181715" fill-rule="evenodd"/>
    <path id="Path_574" data-name="Path 574" d="M637.1,362.8c5.7.2,11.4.4,17.1.4,8.8.1,17.6,0,26.4.1,8.7.2,17.3.6,26,1,7.4.3,14.7.7,22.1,1.2,5.9.4,11.8,1.2,17.6,1.8,1.2.1,2.4.2,3.5.2,1,.1,1.3.8,1,1.5a1.486,1.486,0,0,1-1.3.6c-6-.5-12-1.2-18-1.7-5.7-.5-11.4-1.1-17.1-1.5-3.3-.2-6.6-.2-9.8-.3-4.7-.2-9.4-.5-14.1-.7-4.5-.1-9-.1-13.6-.2-6.8-.1-13.6-.1-20.5-.2-6.4-.1-12.8-.1-19.3-.2-1.6,0-23-.3-24.9-.2-1.5.1-2.3-.7-1.6-2a2.379,2.379,0,0,1,1.3-.9c1.9-.1,3.8,0,5.7,0,0,.3,13,.9,19.5,1.1Z" fill="#181715" fill-rule="evenodd"/>
    <path id="Path_575" data-name="Path 575" d="M267.8,375.3c-8.1-1-15.7-.9-23.3-1-6.8-.1-13.5-.8-20.2-1-6-.2-11.9-.1-17.9-.2-4,0-7.9-.1-11.9-.1-2.8,0-5.6.2-8.5.3-1.2,0-2.6.4-3.4-.9a2.772,2.772,0,0,1-.3-2,1.99,1.99,0,0,1,1.6-.7c3,1.1,6,.5,9,.5,5.1,0,10.1.1,15.2.2,7.3.1,14.6.2,21.9.5,4,.1,8,.7,12,.9,4.1.2,8.1,0,12.2.1s8.3.3,12.4.5a5.019,5.019,0,0,1,1.2.2c.9.2,1.6.7,1.2,1.6-.2.6-1,.9-1.2,1.1Z" fill="#181715" fill-rule="evenodd"/>
    <path id="Path_576" data-name="Path 576" d="M173.3,528.4c.1-.4.3-.8.4-1.1a8.8,8.8,0,0,1,.5,1.5,2.1,2.1,0,0,1-.4,1.1C173.6,529.4,173.5,528.9,173.3,528.4Z" fill="#181715" fill-rule="evenodd"/>
    <path id="Path_577" data-name="Path 577" d="M511.9,243.5c2.4-.2,5-.4,7.7-.7.3,0,.6-.5.9-.8-.3-.1-.7-.4-1-.3-3.9.2-7.8.5-11.8.8-.3,0-.6.4-.8.6a4.672,4.672,0,0,0,1,.5c1.1-.1,2.4-.1,4-.1Zm9.1-4.9c1.1-.1,1.6.1,1.9,1.2a26.13,26.13,0,0,1,.6,2.7c.3,2-.2,2.8-2.3,3-2,.2-4,.3-6.1.5-2.8.2-5.6.5-8.4.8-1.5.2-2.4-.2-2.6-1.9-.1-1-.4-2.1-.5-3.1-.2-1.6.2-2.1,1.7-2.1" fill="#181715" fill-rule="evenodd"/>
    <path id="Path_578" data-name="Path 578" d="M494.9,214.1c1.1-.1,1.7.6,1.7,1.8a2.151,2.151,0,0,1-2,2,2.115,2.115,0,0,1-2-2.2C492.7,214.7,493.5,214.1,494.9,214.1Z" fill="#181715" fill-rule="evenodd"/>
    <path id="Path_579" data-name="Path 579" d="M523.6,225.2a2.1,2.1,0,0,1-1.9-2.4,2.8,2.8,0,0,1,1.4-2c.7-.4,1.6.2,2,1.6.3,1.5.3,2.9-1.5,2.8Z" fill="#181715" fill-rule="evenodd"/>
    <path id="Path_580" data-name="Path 580" d="M554.7,344.1c.1,1.8-1.3,2.3-2.7,2.5-2.6.3-6.5.7-8.6.8-1.3.1-1.4-.9-1.5-1.4-.2-1.1.7-1,1.6-1.1a59.685,59.685,0,0,0,7.2-1.1c.4-.1.8-.8.9-1.2a15.034,15.034,0,0,0-.2-2c0-1,.4-1.7,1.5-1.6,1,0,1.5.7,1.5,1.7-.1.2.2,1.6.3,3.4Z" fill="#181715" fill-rule="evenodd"/>
    <path id="Path_581" data-name="Path 581" d="M551.6,316c1.2.4,1,1.4,1.2,2.1.2,1-1,2.1-1.9,2.1a1.892,1.892,0,0,1-1.7-2C549.2,317.1,550.4,315.5,551.6,316Z" fill="#181715" fill-rule="evenodd"/>
    <path id="Path_582" data-name="Path 582" d="M499.8,304.8c-1.2-.1-1.4.7-1.5,1.6-.1,1,1.3,1.8,2.8,1.8,1.1,0,1.3-.7,1.3-1.5,0-1.3-1-2-2.6-1.9Zm-3.8,0c.3-2.5.6-2.8,3.1-2.4a28.446,28.446,0,0,1,4.2.9c.6.2,1.3.9,1.3,1.4a28.421,28.421,0,0,1-.5,5.8c-.1.4-5.4,1.2-7.6-1.2-.6-.9-.7-3.2-.5-4.5Z" fill="#181715" fill-rule="evenodd"/>
    <path id="Path_583" data-name="Path 583" d="M512.5,308.2c0,.9.3,1.6,1.6,1.7,1.2,0,1.4-.6,1.5-1.6.1-1.2-.7-1.4-1.6-1.5S512.5,307.1,512.5,308.2Zm2,4.5c-.8-.1-1.7-.2-2.5-.3a2.117,2.117,0,0,1-1.9-2.3,22.824,22.824,0,0,1,.4-4.5c.1-.6.9-1.4,1.4-1.4a22.824,22.824,0,0,1,4.5.4,1.346,1.346,0,0,1,1.3,1.6c-.1,1.2-.1,2.4-.1,3.5-.1,2.5-.3,2.7-3.1,3Z" fill="#181715" fill-rule="evenodd"/>
    <path id="Path_584" data-name="Path 584" d="M290.7,268.4c-1.6-.2-6.7-.7-7.6-.6-1.2.2-1.8-.2-1.9-1.3a31.077,31.077,0,0,1-.3-4.3c0-.5,1.9-.7,2.3-.3.1.1.1.2.1.4.2.8.3,2,.8,2.3a13.058,13.058,0,0,0,4,1c1.2.1,2.3-.1,3.5-.1,1.5,0,2.5.8,2.3,1.8-.2,1.3-1.4,1.2-2.3,1.2-.4-.1-.7-.2-.9-.1Z" fill="#181715" fill-rule="evenodd"/>
    <path id="Path_585" data-name="Path 585" d="M288.1,241.4c0,1-.3,1.8-1.5,1.8a1.864,1.864,0,0,1-1.9-2c.1-1,.3-2,1.6-2.1C287.4,239,288.1,240,288.1,241.4Z" fill="#181715" fill-rule="evenodd"/>
    <path id="Path_586" data-name="Path 586" d="M312.2,236a2.012,2.012,0,0,1,1.7,1.8,1.66,1.66,0,0,1-1.7,2c-1.4-.1-1.7-1.3-1.6-2.3A1.5,1.5,0,0,1,312.2,236Z" fill="#181715" fill-rule="evenodd"/>
  </g>
</svg>
