<svg id="incentives" xmlns="http://www.w3.org/2000/svg" width="452.416" height="278.04" viewBox="0 0 452.416 278.04">
  <path id="Path_425" data-name="Path 425" d="M560.7,226.8l-14.1-16.1-9,18.4-19.5,2.1,13.2,15.2-6.1,22.5,20.9-9.2,20.5,7.7-7.7-23.2,13.5-12.5Z" transform="translate(-493.384 -169.248)" fill="#e5e723"/>
  <g id="Group_3" data-name="Group 3">
    <path id="Path_426" data-name="Path 426" d="M457.123,284.2c-1.5-.4-3.1-.8-4.7-1.3-4.1-1.3-8.2-2.7-12.4-3.9-4.1-1.2-8.3-2.3-12.4-3.4-5.2-1.4-10.4-2.7-15.6-4.1-1.4-.4-2.8-1-4.3-1.4-2.9-.8-5.9-1.5-8.8-2.2-2.5-.6-5-1.2-7.5-1.9-3.1-.8-6.2-1.8-9.4-2.5-3.2-.8-6.5-1.3-9.8-2.1-3.5-.8-7-1.7-10.6-2.6l-10.2-2.4c-3.1-.7-6.1-1.6-9.2-2.2-3.3-.7-6.7-1.2-10-1.8-.2,0-.4-.2-.6-.3.2-.2.3-.4.5-.5,1.9-1.2,3.7-2.6,5.6-3.6a4.758,4.758,0,0,1,3.3-.5c7.4,1.6,14.8,3.2,22.2,5,3.8.9,7.5,2.2,11.2,3.2,4.3,1.2,8.7,2,13.1,3.2,7.8,2.2,15.5,4.6,23.2,6.9,4.7,1.4,9.5,2.9,14.2,4.3,4.1,1.3,8.3,2.2,12.3,3.8,4.9,2,10,2.5,15,4.2,3.3,1.1,6.6,1.8,10,2.7a2.757,2.757,0,0,1,.9.7,6.033,6.033,0,0,1-.8.8c-1.3.6-2.5,1.2-3.8,1.7a6.752,6.752,0,0,0-1.4.2Zm93.3,10.4c-.1,1.2-.2,1.4-1.3.7-1.6-1.1-3.2-2.2-4.7-3.4-1.6-1.3-3.1-2.6-4.7-3.9-.6-.5-.9-1-.5-1.7.4-.8,1-1.6,1.4-2.5a3.128,3.128,0,0,0,.1-1.9,1.561,1.561,0,0,0-1.3-.8,4.28,4.28,0,0,0-1.6,1.4c-.4.5-.4,1.2-.7,1.8-.1.3-.5.6-.7.8a4.62,4.62,0,0,1-.7-.7c-.9-1.3-1.3-1.5-2.6-.5a35.108,35.108,0,0,1-11.4,5c-.9.2-1.3.1-1.2-.9.3-2.3.6-4.6,1-6.9.5-3,1.1-6,1.5-9a2.352,2.352,0,0,0-.5-1.6c-2.8-3.4-5.7-6.8-8.5-10.2a3.9,3.9,0,0,1-.7-1.6h2.5a56.3,56.3,0,0,1,13.6,1.7,2.012,2.012,0,0,0,2.5-1c1.5-2.7,3-5.5,4.5-8.2.5-.9.9-1.8,1.3-2.7.6-1,.9-1,1.4,0,1.7,2.9,3.4,5.8,4.9,8.9.9,1.7,2.1,3.4,2.1,5.5a1.753,1.753,0,0,0,1.2,1.3,58.614,58.614,0,0,0,5.8,1c1.4.2,2.9.2,4.3.5,3.2.7,6.4,1.4,9.6,2.2.3.1.5.2.8.3a2.169,2.169,0,0,1-.6.7c-1.4.7-2.8,1.3-4.2,1.9-4.1,1.6-8.3,3.1-12.5,4.7-1.5.6-1.9,1.5-1.3,3.1.3.9.8,5.9,1,7.3A86.146,86.146,0,0,1,550.423,294.6Zm-94,47.1c-.2-4.8-.5-9.7-.6-14.5-.2-8.1-.5-16.3.5-24.4.3-2.7.5-5.4.8-8,.2-2.2.4-4.5.7-6.7a1.82,1.82,0,0,1,.4-1.1q3-1.5,6-2.7c.6-.3,1,.1,1,.9V290c0,2.7-.1,5.4-.1,8,.1,4.4.4,8.9.4,13.3,0,6.4-.1,12.8-.2,19.2v1.9c0,.9-.5,1.2-1.3.8a36.16,36.16,0,0,0-3.5-1.3,1.517,1.517,0,0,0-1.3.3,1.409,1.409,0,0,0,.5,2.4c1.2.5,2.4.9,3.7,1.3,2,.6,2.2.7,2.2,2.7q-.15,8.7-.3,17.4l-.3,11.7c-.1,2.7-.2,5.5-.2,8.2,0,2.5,0,5.1-.1,7.6-.1,2.6-.5,5.2-.6,7.8-.1,3.3-.1,6.7-.2,10a5.537,5.537,0,0,1-.2,1.8c-.1.3-.3.8-.6.9-2.3,1.4-4.6,2.7-6.9,4-1.2.7-1.5.5-1.4-.9.1-2.8.1-5.6.2-8.4v-1.8c.1-1.7.2-3.5.2-5.2.1-3.5,0-7.1.1-10.6s.4-7,.5-10.5c.1-6.6,0-13.3.1-19.9.1-2.9.3-6,.5-9ZM236.623,260c0,2.7-.1,2.8-2,1.8-1.1-.6-2.2-1.4-3.3-2-.9-.5-1.5-.2-1.9.7s.1,1.4.8,1.8c1.9.9,3.8,1.9,5.7,2.7,1.2.5,1.4,1.5,1.7,2.5a1.024,1.024,0,0,1-.5.6,18.322,18.322,0,0,1-3.9-.9c-2.3-.9-4.6-1.9-6.8-3-2.7-1.3-5.4-2.8-8.1-4.2a1.8,1.8,0,0,0-1.2-.2,11.878,11.878,0,0,0-2.5,1.3,50.54,50.54,0,0,1-5.1,2.8c-3.1,1.3-6.2,2.5-9.3,3.7a3.749,3.749,0,0,1-1.1.1c0-.3-.1-.7-.1-1,1.1-4.2,2.1-8.3,3.2-12.4.7-2.4,1.7-4.8,2.5-7.2.6-1.8.4-2.5-1-3.8-.8-.7-1.6-1.5-2.4-2.3-2.7-2.8-5.3-5.5-7.9-8.3a1.47,1.47,0,0,1-.4-1.2c.1-.3.7-.4,1.1-.5,2.6-.4,5.1-.8,7.7-1.2a52.034,52.034,0,0,1,6.8-.6c.9,0,1.4-.2,1.7-1,.6-1.7,1.2-3.4,1.9-5.1.7-1.9,1.5-3.8,2.3-5.7a23.945,23.945,0,0,1,1.3-2.8c.8-1.2.8-1.1,1.8-.1l7.2,6.9c1.3,1.2,3,2,4.2,3.4a6.837,6.837,0,0,0,5.7,2.7c3.3,0,6.7,1,10,1.6.3,0,.5.3.7.4-.2.2-.3.5-.5.7-2.6,2.8-5.3,5.6-7.9,8.5-1.6,1.8-3.2,3.7-4.7,5.6a1.907,1.907,0,0,0-.2,1.3c.5,1.5,4.1,11.5,4.5,14.4Zm91.5-1.7s0-1.6.1-2.4c.2-1.6.7-2,2.3-1.6,1,.2,1.9.5,2.9.7,2.7.4,5.5.7,8.1,1.3,4,.9,8,2.1,12,3,6.7,1.5,13.4,2.8,20.1,4.3,5,1.1,9.9,2.3,14.8,3.6,4,1,7.9,2.1,11.8,3.2,3.1.8,6.2,1.6,9.2,2.5,4.3,1.2,8.6,2.6,12.9,3.8,3.5,1,7.1,1.7,10.6,2.7,4.6,1.3,9.1,2.7,13.6,4.1,2,.6,3.9,1.3,5.8,2,2,.7,2.5,2.3,2.4,4.1-.1,3.5-.4,7.1-.7,10.6-.2,2.4-.7,4.7-.8,7.1-.1,2.8-.1,5.7-.1,8.5,0,1.3.1,2.7.1,4,0,2-.2,4-.1,6,.2,4,.7,7.9.8,11.9.1,3.3,0,6.7-.1,10,0,2.6-.1,5.2-.1,7.8v3.6c-.1,2.6-.3,5.2-.3,7.8-.1,3.1,0,6.2,0,9.4,0,2.6-.2,5.3-.3,7.9q-.15,5.1,0,10.2c0,1.8.3,3.7.2,5.5-.2,2.8-.6,5.6-.9,8.4-.1,1.1-1.1,1.5-2.3,1.3-1.2-.3-2.4-.4-3.6-.6-.5-.1-1-.1-1.5-.2-2.2-.5-4.3-1.1-6.5-1.6-2.5-.5-5-.8-7.5-1.4-2.3-.5-4.6-1.2-7-1.7-3.7-.9-7.5-1.6-11.2-2.6-5.1-1.3-10.1-2.6-15.1-4-4.6-1.2-9.1-2.4-13.7-3.7-5.1-1.4-10.1-3-15.2-4.4-6.9-1.9-13.8-3.7-20.7-5.7q-4.95-1.5-9.9-3.3c-3.9-1.4-7.8-3-11.7-4.4-1.2-.4-1.4-1-1.2-2.1a129.4,129.4,0,0,0,1.6-20.7c0-4,.1-8,.1-12,0-4.7-.1-9.5-.2-14.2,0-2.5-.1-5-.1-7.5,0-.8.2-1.7.2-2.5-.1-4-.1-8.1-.2-12.1,0-1.2,0-2.4-.1-3.6,0-3.4-.1-6.9,0-10.3.2-5.2.7-10.3.9-15.5.2-5.9.4-11.5.6-17.2Zm139.5,46.9c0-3-.2-6.1-.2-9.1,0-4.1-.1-8.2.2-12.3.2-3.4,0-4-3.7-5.2-5.2-1.6-10.6-2.4-15.8-3.8-3.5-.9-7-2.1-10.5-3.1l-5.7-1.8c-3.1-1-6.3-1.9-9.4-2.9-3.5-1.1-7.1-2.1-10.6-3.2-3.2-1-6.3-2-9.5-3-4.8-1.4-9.6-2.7-14.4-4-2.9-.8-5.8-1.5-8.7-2.2l-11.7-3.3c-4.1-1.1-8.3-2.3-12.4-3.3-4-1-8.1-1.8-12.1-2.6a20.867,20.867,0,0,0-4.3-.4,4.45,4.45,0,0,0-2.3.7c-2.8,1.8-5.5,3.8-8.3,5.6a5,5,0,0,0-2.5,4.6c0,4-.1,8.1-.1,12.1-.1,4.5-.1,9-.3,13.5-.1,2.3-.6,4.6-.7,7-.2,3.9-.2,7.9-.2,11.8a5.019,5.019,0,0,1-.2,1.2,6.108,6.108,0,0,1-1.3-.3l-6.3-3c-3.9-1.8-7.9-3.6-11.8-5.4-3.2-1.4-6.5-2.7-9.8-4-4.3-1.8-8.6-3.5-12.8-5.3-3-1.3-6.1-2.5-9.1-3.8-2.9-1.3-5.7-2.6-8.5-4-4.9-2.4-9.8-4.8-14.8-7.2-1.5-.7-3.1-1.2-4.5-1.9a38.952,38.952,0,0,1-4.9-2.8,4.48,4.48,0,0,1-.9-2.1c-.8-3.4-1.6-6.9-2.4-10.3a6.788,6.788,0,0,0-.7-2c-1.5-2.7-.8-5.3.8-7.6,1.3-1.8,9.2-10.1,11.1-11.9a11.511,11.511,0,0,0,1.4-1.7c.6-.9.2-1.6-.8-1.7-3.2-.4-6.3-.9-9.5-1.3-.7-.1-6.8-1.3-8.9-2.8a77.189,77.189,0,0,1-7.2-5.6,68.953,68.953,0,0,1-5.4-6.5,1.765,1.765,0,0,0-3.1.4c-1.2,2.8-2.3,5.6-3.4,8.4-.7,1.7-1.2,3.4-1.8,5.1a2.285,2.285,0,0,1-1.8,1.6c-4.1.7-8.1,1.5-12.2,2.1-1.7.3-3.4.1-5,.3-.6.1-1.2.8-1.6,1.3-.1.2.2.9.5,1.2,2.6,2.8,5.3,5.6,8,8.3,1.5,1.5,3,3,4.5,4.4a2.29,2.29,0,0,1,.7,2.6l-2.1,7.5c-.2.7-.3,1.4-.5,2-.9,3.4-1.9,6.8-2.8,10.2a23.026,23.026,0,0,0-.6,2.8c-.2,1.1.5,1.7,1.6,1.6a11.687,11.687,0,0,0,2-.6c3.9-1.6,7.9-3.2,11.8-4.8a31.672,31.672,0,0,0,4.1-2.1,2.936,2.936,0,0,1,3-.2c4.6,2.1,9.3,4.1,14,6.1a6.467,6.467,0,0,1,1.6.9,8.864,8.864,0,0,0,4.2,1.5c1.6.3,2.5-.8,2.1-2.4a8.582,8.582,0,0,1-.3-1.7c.6.2,1.1.3,1.7.5,6.4,3,12.8,6.1,19.2,9.2,4.3,2,8.7,4,13,6,4.5,2,9,3.9,13.4,5.8,4,1.7,8.1,3.4,12.1,5.1,1.9.8,3.9,1.5,5.8,2.3,3.3,1.5,6.5,3,9.8,4.5,1.1.5,2.3,1,3.4,1.6,1.6.8,3.2,1.8,4.9,2.6,1.2.6,1.3,1.5,1.3,2.6-.1,3.7-.2,7.4-.2,11,0,6.3.1,12.7.1,19,0,1.7.2,3.4.2,5.1,0,4.6,0,9.2-.2,13.7-.2,4.4-.6,8.8-.9,13.1-.2,1.9-.4,3.8-.7,5.8-.2,1.8-.1,2.1,1.6,2.8,1.2.5,2.4.9,3.6,1.3,5.4,1.8,10.7,3.8,16.2,5.5,5.2,1.6,16.7,5.1,17,5.3a5.546,5.546,0,0,1-.6.8c-1.5,1-3,1.9-4.5,2.9-4.3,2.9-8.7,5.6-12.9,8.6-3.6,2.5-6.9,5.4-10.4,8-1.6,1.2-3.4,2-5.1,3.1s-3.2,2.3-4.9,3.4c-3.4,2.4-6.8,4.7-10.2,7.1-3.9,2.6-7.8,5.2-11.7,7.7-1.5,1-3.2,1.9-4.8,2.8a2.628,2.628,0,0,1-2.7-.1c-2.1-1.2-4.3-2.2-6.4-3.5a69.14,69.14,0,0,1-6.2-4.4c-.5-.4-1-1.1-1.6-.5a2.016,2.016,0,0,0-.2,1.7,3.182,3.182,0,0,0,1.3,1.5c2.7,1.7,5.5,3.2,8.2,4.8a32.722,32.722,0,0,1,4.8,3.5c1.2.9,1.7,1,2.8.2,1.2-1,2.5-1.9,3.8-2.8,2.9-1.9,5.9-3.6,8.7-5.5,4-2.7,8-5.6,12-8.4,1.7-1.2,3.5-2.2,5.3-3.4l3.9-2.7c1-.7,2.1-1.4,3.1-2,3.6-2,6.5-4.8,9.8-7.3,1.8-1.4,3.7-2.9,5.6-4.2,2.1-1.5,4.3-3,6.6-4.4,1.8-1.1,3.8-2,5.7-3a37.8,37.8,0,0,0,4.3-2.6,2.145,2.145,0,0,1,2-.5c6.3,1.8,12.6,3.6,18.9,5.3,3,.8,6.1,1.6,9.1,2.4,1.6.4,3.2.8,4.8,1.3a3.328,3.328,0,0,1,1,.6c4.1,4.5,8,9,12.2,13.3,2.7,2.8,5.9,5.2,8.8,7.9,2.7,2.5,5.3,5.1,7.9,7.8,3.7,3.8,7.2,7.7,10.8,11.6,1.8,1.9,3.6,3.7,5.5,5.6,1.4,1.5,1.6,1.4,3.1,0,1.3-1.2,2.7-2.2,4-3.4l9-8.7c.9-.8,1.8-1.6,2.6-2.4,2-1.9,3.9-3.8,5.8-5.8,1.6-1.6,3.2-3.3,4.7-5,1.6-1.8,3.2-3.5,4.7-5.3.6-.7,1.1-.9,1.9-.5,2.5,1.3,5,2.6,7.6,3.9l1.2.6c.9.6,1.4.1,1.7-.7.4-.9,0-1.4-.8-1.8-3.1-1.5-6.3-3-9.4-4.6-1.9-1-2.3-.9-3.7.8-2.2,2.6-4.5,5.1-6.7,7.6-1.6,1.8-3.1,3.6-4.8,5.4-1.3,1.4-2.7,2.8-4.1,4.1-2.8,2.8-5.6,5.5-8.4,8.3-.9.9-1.8,1.7-2.7,2.5-1.1.9-2.3,1.8-3.4,2.7-.7.6-1.3.7-1.9,0-1-1.1-2-2.1-3-3.2-2.1-2.1-4.2-4.1-6.2-6.2-3.8-3.8-7.5-7.7-11.3-11.6-2.4-2.5-4.8-4.9-7.3-7.3-2-1.9-4.2-3.5-6.2-5.4-1-.9-1.7-2.1-2.6-3-1.5-1.7-3.2-3.3-4.7-5-.2-.3-.3-.7-.5-1a3.4,3.4,0,0,1,1,.1c5.7,1.4,11.4,2.9,17.1,4.3,4.6,1.1,9.3,2,13.9,3,3.9.8,7.7,1.7,11.6,2.5a32.087,32.087,0,0,0,5.3.7,7.91,7.91,0,0,0,2.3-.8c.3-.2.6-.6.9-.7,2.6-1.2,5.2-2.3,7.7-3.6a2.3,2.3,0,0,0,1.1-1.5c.2-3.1.3-6.3.5-9.4.1-1.3.1-2.7.2-4,.2-2.8.4-5.6.5-8.3.1-6.9.1-13.9.3-20.8.1-4.7.4-9.4.5-14.1.1-3.1,0-6.3.1-9.4a2.879,2.879,0,0,1,.1-1.3,1.95,1.95,0,0,1,.9-.9,26.928,26.928,0,0,1,4-.3,76.071,76.071,0,0,0,13.5-1.1,49.7,49.7,0,0,0,14.6-5.1c2-1,3.7-2.4,5.6-3.4,4.2-2.1,7.6-5.1,11.1-8.1a52.814,52.814,0,0,0,10.1-11.5c1.9-2.8,3.7-5.6,5.5-8.4a18.291,18.291,0,0,0,1.4-2.8c.9-2,1.9-4.1,2.7-6.1.4-1,.9-1.1,1.7-.4,1.2,1,2.2,2.1,3.5,3.1,2,1.5,4,2.9,6.1,4.3a8.014,8.014,0,0,0,1.9,1.3,3.281,3.281,0,0,0,1.9.4c.2,0,.4-1,.4-1.6.1-3.6.2-7.2,0-10.7-.1-2.3-.6-4.6-.9-7a2.719,2.719,0,0,1,1.8-3.3c2.8-1.1,5.7-2.1,8.5-3.2a26.048,26.048,0,0,0,2.5-1c1.7-.7,3.3-1.4,4.9-2.2a5.674,5.674,0,0,0,1.8-1.2c1-1,.4-2.4-1-2.7-2.5-.5-5.1-1.1-7.6-1.5-2.6-.5-5.3-.8-7.9-1.3a21.657,21.657,0,0,1-5-1.3,4.25,4.25,0,0,1-1.7-2c-2.4-4.2-4.8-8.4-7.1-12.6-.6-1-1-2.2-1.6-3.2-.2-.4-.9-1.1-1.1-1a2.115,2.115,0,0,0-1.4,1.2c-.9,1.9-1.7,3.8-2.6,5.7-1.1,2.2-2.4,4.3-3.6,6.4a2.237,2.237,0,0,1-2.3,1c-3.8-.5-7.5-.8-11.3-1.2-2-.2-4-.3-5.9-.5a1.811,1.811,0,0,0-2.1.8c-.4.9.3,1.3.8,1.9,2,2.3,3.9,4.7,5.8,7l4.2,5.1a3.992,3.992,0,0,1,1,3.3c-.7,3.9-1.2,7.8-2,11.7-.3,1.7-1,3.2-1.4,4.9-.3,1.4.1,1.8,1.5,1.4,3.1-1,6.3-1.9,9.4-3a28.5,28.5,0,0,0,3-1.6,6.7,6.7,0,0,1,1.8-.7c2-.2,2.5.6,1.7,2.4-1.6,3.5-3,7.1-4.7,10.5a22.35,22.35,0,0,1-2.7,4.1c-1.7,2.4-3.4,4.8-5.2,7.1a59.011,59.011,0,0,1-5.5,5.7,59.748,59.748,0,0,1-7.8,6.5c-5.7,3.7-11.4,7.4-18.1,9.2a47.047,47.047,0,0,1-12.4,1.8c-2.7,0-5.5.3-8.2.3-3-.1-2.9-.2-2.9-3.1.1-4.4,0-8.9,0-13.3-.6.2-.5-8.2-.5-12.5Z" transform="translate(-164.408 -169.248)" fill="#181715" fill-rule="evenodd"/>
    <path id="Path_427" data-name="Path 427" d="M583.777,338.9q0,1.2-1.2.6l-3.9-2.1c-1.8-1-3.5-2-5.3-3.1-.9-.6-1.7-.6-2.2.5-1.6,2.9-4.4,4.6-7.1,6.3-.8.5-.9.3-.8-.5.2-2.5.4-5,.5-7.4a6.561,6.561,0,0,0-.1-2.8c-.2-.5-1.3-.6-2-.9-.1-.1-.3-.1-.4-.2-2.6-1.6-5.2-3.2-7.7-4.8a6.475,6.475,0,0,1-.9-.8c-.4-.6-.3-.8.4-.9,1.6-.3,3.2-.8,4.8-1.2a18.32,18.32,0,0,1,3.9-.9,2.207,2.207,0,0,0,2.3-1.7c1.5-3.2,2.9-6.4,4.3-9.7.3-.7.5-1.1,1.3-.3,2.1,2,4.2,3.9,6.4,5.9.5.5,1.2.9,1.8,1.4a15.747,15.747,0,0,1,1.9,1.5c.6.6.9,1.3,1.5,1.9.3.3.8.6,1.1.5,2.9-.2,5.7-.6,8.6-.9a10.283,10.283,0,0,1,1.7-.1,14.935,14.935,0,0,1-1.4,1.2c-2,1.4-4.2,2.7-6.1,4.3a3.937,3.937,0,0,0-1.5,2.4c.1,2.9.2,10.8.1,11.8Zm10.9-22.2-2.7.3c-2.2.2-4.4.5-6.7.7a4.72,4.72,0,0,1-3.7-1.3c-2.5-2.4-5-4.7-7.6-7-.9-.8-1.8-1.5-2.7-2.4-.5-.5-.9-1.2-1.4-1.7-.4-.5-1.1-1.3-1.4-1.2a2.976,2.976,0,0,0-1.7,1.4c-.7,1.7-1.1,3.6-1.8,5.4a62.08,62.08,0,0,1-2.6,5.9,3.252,3.252,0,0,1-1.6,1.2c-3,1-6.1,2-9.1,2.9-.7.2-1.4.2-2,.4a2.183,2.183,0,0,0-1.2,1.1,1.8,1.8,0,0,0,.7,1.5c2.8,1.9,5.7,3.8,8.6,5.7a19.991,19.991,0,0,0,2.1,1c1.5.6,1.9,1.2,1.8,2.8-.2,3.3-.4,6.7-.6,10,0,.2-.1.5,0,.7.1,1.2.8,1.5,1.8.8,1.3-1,2.5-2.1,3.8-3.2,1.6-1.4,3.3-2.7,4.9-4.1a1.846,1.846,0,0,1,2.4-.3c2.6,1.3,9.1,4.8,9.8,5.3q1.35,1.05,1.5-.6c.2-1.4.2-2.9.3-4.3.2-2.7.2-5.5.5-8.2.2-2,.7-3.9,2.6-5.1,2.5-1.6,4.8-3.3,7.3-5,.7-.5,1.3-.9,1.1-1.9-.3-1-1.1-.8-1.8-.8h-.6Z" transform="translate(-548.461 -169.248)" fill="#181715" fill-rule="evenodd"/>
    <path id="Path_428" data-name="Path 428" d="M470.833,204.9c-.1,1-.5,1.2-1.5.6-3-1.7-6-3.5-9-5.3a6.872,6.872,0,0,1-2.1-1.6c-.7-1-1.4-.7-2.2-.3a6.469,6.469,0,0,0-.9.8,19.564,19.564,0,0,1-3,2.8,35.681,35.681,0,0,1-4.5,1.9c-2.4.9-2.6.7-2.2-2s.6-5.5.8-8.3a2.035,2.035,0,0,0-.6-1.5c-1.4-1.2-3-2.2-4.5-3.4-1.7-1.4-3.3-3-5-4.5a2.471,2.471,0,0,1-.4-.9,2.934,2.934,0,0,1,1-.3c2.6-.1,5.3-.3,7.9-.4a14.718,14.718,0,0,1,2.1,0c1.6.2,2.4-.1,3.1-1.6a7.5,7.5,0,0,1,1-2c1.5-1.9,3-3.8,4.6-5.7,1-1.2,1.1-1.2,2.1.1,2.1,2.6,4.3,5.1,6.4,7.7a9.063,9.063,0,0,1,1.1,1.6,2.425,2.425,0,0,0,2.4,1.4c1.9-.1,3.9-.1,5.8-.2h1.6a12.668,12.668,0,0,1-1.1,1.3c-1.7,1.7-3.4,3.4-5,5.1a3.777,3.777,0,0,0-.8,3.7c.3,1.3.9,2.5,1.2,3.8.6,2.3,1.1,4.8,1.7,7.2Zm1.9,2.1c-.6-3.6-1.1-7.4-1.8-11.2-.6-3.1-.1-5.8,2.4-7.9,1.8-1.5,3.5-3,5.2-4.5a1.717,1.717,0,0,0,.6-1.5c-.1-.8-.8-1.1-1.6-1-1.2.1-2.5.5-3.7.6-2,.2-4.1.2-6.1.3a1.193,1.193,0,0,1-.9-.5c-2-2.4-4-4.8-6.1-7.2a60.874,60.874,0,0,0-4.4-4.4c-.9-.8-1.7-.5-2.3.6-1.4,3-3.7,5.3-5.7,7.9a4.828,4.828,0,0,1-3.5,1.8c-3.7.2-7.4.3-11.1.6a3.41,3.41,0,0,0-1.9.7c-.8.7-.7,1.2.1,1.9,3.6,3.1,7.2,6.3,10.8,9.4a3.093,3.093,0,0,1,1.1,2.8c-.3,3.4-.7,6.7-1,10.1,0,.5.2,1.3.6,1.5a2.138,2.138,0,0,0,1.9.1,28.02,28.02,0,0,1,6.1-2.8,9.439,9.439,0,0,0,3.3-2c1.3-1.1,2.4-1.5,3.9-.6,2.6,1.5,5.2,3,7.8,4.3a45.219,45.219,0,0,0,5,2.3c1,.4,1.3,0,1.3-1.3Z" transform="translate(-313.317 -169.248)" fill="#181715" fill-rule="evenodd"/>
    <path id="Path_429" data-name="Path 429" d="M170.1,351.3c-.5,3-1,5.4-1.4,7.8a.1.1,0,0,1-.1.1c-.3.8-.7.9-1.3.3s-1.3-1.1-1.9-1.7a19.856,19.856,0,0,1-3-3.5c-.9-1.3-1.1-1.5-2.5-.8-3.1,1.6-6.4,2.2-9.7,3.1-.4.1-.8,0-1.3.1.1-.4.1-.9.2-1.3,1.3-2.5,2.2-5.1,4.1-7.3,1-1.1.8-1.5-.3-2.5a2.73,2.73,0,0,1-.9-1.2c-1.4-2.9-2.8-5.9-4.1-8.8a.6.6,0,0,1-.1-.4c-.2-.7.1-.9.7-.8,2.9.6,5.9,1,8.4,2.8a1.386,1.386,0,0,0,2.2-.4,6.9,6.9,0,0,1,1.8-1.6,19.327,19.327,0,0,0,5.2-3.8,4.5,4.5,0,0,1,1.2-.6,5.273,5.273,0,0,1,.3,1.2c.2,2.8.4,5.6.7,8.3.3,2.4,1.5,3.5,3.7,4.2a49.878,49.878,0,0,1,5.3,2.3c.2.1.3.4.4.6-.2.1-.3.2-.5.3-1.4.3-2.8.6-4.3.8-2.5.5-2.9.8-2.8,2.8Zm-25.4-18.2c.4,1,.9,2.4,1.5,3.8,1.3,2.7,2.6,5.3,3.9,7.9a3.824,3.824,0,0,1,0,3.6c-.9,1.9-1.6,3.9-2.4,5.8-.5,1.2-1.1,2.4-1.5,3.6a2.247,2.247,0,0,0-.1,1.6c.1.3,1,.3,1.4.2,3.4-1,6.9-2,10.2-3.2,1.5-.5,2.6-.5,3.8.7,1.7,1.7,6.9,6.7,7.7,6.4s.6-.9.8-1.4a12.505,12.505,0,0,0,.3-1.9l1.2-6.3c.4-2.2,2-3.2,4.1-3.6,1.9-.3,3.8-.5,5.6-.7a4.707,4.707,0,0,0,1.6-.4c.4-.2.9-.7.9-1.1a1.785,1.785,0,0,0-.9-1.2c-1.7-.8-3.5-1.5-5.2-2.2l-3.9-1.8c-2.5-1.1-3.2-3.2-3.5-5.6-.2-2.1-.4-4.2-.6-6.2a8.6,8.6,0,0,1,.1-1.6,10.87,10.87,0,0,0,.1-1.8,1.863,1.863,0,0,0-.9-1.2,1.469,1.469,0,0,0-1.2.4c-2,1.7-3.9,3.5-5.9,5.1a13.066,13.066,0,0,1-2.8,1.7,4.7,4.7,0,0,1-3.5.2c-3-.8-6-1.7-9.1-2.5-1.2-.3-1.7,0-1.7,1.7Z" transform="translate(268.716 -169.248)" fill="#181715" fill-rule="evenodd"/>
    <path id="Path_430" data-name="Path 430" d="M402.373,319.1c-.5,1.3-.6,1.3-1.1,1.6-.5.2-1.2-.1-1.9-.2-3.3-.5-6.7-1-10-1.6-3.9-.6-7.7-1.4-11.6-2-2.8-.4-5.5-.6-8.3-1a9.612,9.612,0,0,1-2.9-.8c-.9-.4-1.7-.9-1.6-2.2.1-.6-.1-1.4-1-1.3a1.215,1.215,0,0,0-1.2,1.4,4.329,4.329,0,0,1-.1,1.6c.2,3,.2,2.9,3.2,3,2.2.1,4.4.5,6.7.8,2.1.3,4.3.5,6.4.9,6.5,1.1,13,2.2,19.5,3.4a33.747,33.747,0,0,1,3.4.9,1.967,1.967,0,0,0,2.5-1.6,9.738,9.738,0,0,0,.2-2.4c-.2-1.7-1.6-1.8-2.2-.5Z" transform="translate(-170.157 -169.248)" fill="#181715" fill-rule="evenodd"/>
    <path id="Path_431" data-name="Path 431" d="M403.2,290.5a1.634,1.634,0,0,0,1.6,1.8,2.082,2.082,0,0,0,1.8-2.1,1.763,1.763,0,0,0-1.8-1.6,1.722,1.722,0,0,0-1.6,1.9Z" transform="translate(-212.685 -169.248)" fill="#181715" fill-rule="evenodd"/>
    <path id="Path_432" data-name="Path 432" d="M357.2,297.5c0,1.1.5,1.7,1.4,1.8a1.828,1.828,0,0,0,1.7-1.7,1.645,1.645,0,0,0-1.6-1.6c-.9-.1-1.4.5-1.5,1.5Z" transform="translate(-120.384 -169.248)" fill="#181715" fill-rule="evenodd"/>
  </g>
</svg>
