<svg id="joinus" xmlns="http://www.w3.org/2000/svg" width="569.727" height="462" viewBox="0 0 569.727 462">
  <path id="Path_869" data-name="Path 869" d="M184,321.5l29-37,8.7,63.4L206,386.5Z" transform="translate(-122.9 -57.2)" fill="#ece200" fill-rule="evenodd"/>
  <path id="Path_870" data-name="Path 870" d="M226,205.5l60-21,16,57-52,22Z" transform="translate(-122.9 -57.2)" fill="#74c5bf" fill-rule="evenodd"/>
  <path id="Path_871" data-name="Path 871" d="M271.8,447,270,423.6l30.3-10.2,3.6,6,14.3-2.6-39.3-11.9L227,421.5l3,46,71,51.7,51.7-35.5,1.3-58.3-21-6.8,3.4,19-40.9,24.1Z" transform="translate(-122.9 -57.2)" fill="#7ac191" fill-rule="evenodd"/>
  <path id="Path_872" data-name="Path 872" d="M625,301.5s23,12,29,20-15,64-15,64-4-6-13-17-20-18-15-30S625,301.5,625,301.5Z" transform="translate(-122.9 -57.2)" fill="#74c5bf" fill-rule="evenodd"/>
  <path id="Path_873" data-name="Path 873" d="M443.2,156.5l-.6-13.8,8.1-1.3,15.7-11.2,3.1,36.3-11.9-9.4Z" transform="translate(-122.9 -57.2)" fill="#ece200" fill-rule="evenodd"/>
  <path id="Path_874" data-name="Path 874" d="M598,199.4c-4.7-3-12.4-5.2-20-.9-7.8,4.4-11.4,11.4-12.3,19.7s-.3,15.9,12,23.1,25.5-1.2,30.8-16.1S603.7,203,598,199.4Zm-23.4,24.2,8.6-20.9,13.4,17.5Z" transform="translate(-122.9 -57.2)" fill="#7ac191" fill-rule="evenodd"/>
  <path id="Path_875" data-name="Path 875" d="M522.6,163.9c-2,.1-3.9.3-5.9.4-1,0-1.6.5-1.4,1.6a2.88,2.88,0,0,1-.1,1.3c-.5-.2-.9-.3-1.3-.5-4.4-2.6-8.7-5.2-13.1-7.9-1.8-1.1-3.6-2.3-5.4-3.4a2.563,2.563,0,0,1-1.2-2.9,103.828,103.828,0,0,0,.9-18.5,39.061,39.061,0,0,1,.5-4.8c.2-1.8.6-3.5.8-5.3.2-1.5-.4-2.1-2-2s-3.2.5-4.8.6c-4.2.4-8.5.9-12.7,1.2-5.8.4-11.5.6-17.3,1-1.2.1-1.9-.2-1.9-1.6,0-2.3,0-4.6-.1-6.9-.1-3.3-.7-6.7-.4-10a75.334,75.334,0,0,0-.2-9.5c0-1-.1-2,0-3,.2-1.8-.2-2.3-2.1-2a17.1,17.1,0,0,1-3.2,0c-2.3-.2-4.5-.6-6.8-.7-4.3-.2-8.7-.4-13-.6l-8.4-.3c-3.2-.2-6.3-.4-9.5-.6-2.1-.2-4.1-.5-6.1-.6-2.2-.1-4.4,0-6.6.1-3.6.1-7.2.3-10.7.5-1.9.1-1.7.3-1.6,2.1.2,3.1.3,6.2.5,9.3.3,4,.6,8,.9,12.1s.7,8.2.9,12.4c.1,1.3-.1,2.6-.1,3.8,0,2.4,0,4.8.1,7.2,0,1,.1,2.1.1,3.1a3.708,3.708,0,0,1-.4,1.4c-.2.7-.6,1.5-.4,1.9.2.5,1.1.8,1.8.8,2.1.2,4.3.2,6.4.5,4.8.8,9.6,1.7,14.4,2.6,4.5.8,8.9,1.7,13.4,2.3,1.1.2,1.3.5,1.4,1.5a56.158,56.158,0,0,0,.7,9.2,143.327,143.327,0,0,1,2.1,17.3c.1,1.6.2,1.7,1.8,1.6.7-.1,1.4-.2,2.2-.3,2.5-.3,5-.7,7.5-.8,3.6-.1,7.1.1,10.7-.7,2.7-.5,5.5-.4,8.2-.7,2.2-.2,4.4-.6,6.6-.9,1.8-.2,3.6-.3,5.3-.5,3.8-.5,7.6-1.1,11.5-1.5,2.3-.3,4.6-.2,6.9-.3,1.8-.1,2.6-.6,2.6-2.1a25.411,25.411,0,0,0-.1-3.9c0-2.7-.2-5.4-.1-8,0-1.7.2-1.7,1.6-.8l12.3,7.5a71.445,71.445,0,0,1,6.4,4.3,4.9,4.9,0,0,1,1.9,2.8,15.594,15.594,0,0,1,.3,4.3c-.1,3.2-.4,6.4-.6,9.5-.1,2,.2,2.2,2.2,2.5a24.5,24.5,0,0,1,3.9.8c3.2.9,6.4,1.9,9.7,2.7,3.6.9,4.1.5,4.1-3.3a75.415,75.415,0,0,1,2-17.1,33.748,33.748,0,0,0,.9-3.4c.3-1.5-.1-2-1.6-2.2a11.628,11.628,0,0,1-1.8-.4c-4-1.3-8.2-2.6-12.6-2.2ZM230.8,209.2c.4.8.6,1.3.9,1.8a8.273,8.273,0,0,1,.9,1.6c1.3,3.2,2.5,6.4,3.8,9.5.6,1.4,1.2,2.9,1.9,4.3,1.1,2.2,2.4,4.3,3.5,6.5q2.25,4.65,4.2,9.3c.4,1,.6,2,1,3,2,4.4,4.1,8.7,6.2,13a24.867,24.867,0,0,0,1.5,2.8,1.392,1.392,0,0,0,1.1.5c1.4-.6,2.7-1.2,4.1-1.9,2.9-1.5,5.7-3.1,8.6-4.5,1.8-.9,3.7-1.6,5.5-2.4.7-.3,1.3-.8,2-1.1,1.6-.6,3.2-1,4.8-1.6,3.9-1.6,7.8-3.2,11.6-5a52.945,52.945,0,0,0,5.2-2.9,1.377,1.377,0,0,0,.5-2,50.431,50.431,0,0,1-2.6-5.2c-1.6-4-3.2-8-4.6-12-1.4-4.2-2.6-8.5-3.8-12.8a50.415,50.415,0,0,1-1.1-5.6V204a35.422,35.422,0,0,1,1.9-3.3c1.7-2.6,4.4-4.1,6.6-6.1a14.8,14.8,0,0,1,2.1-1.3c2.1-1.2,4.3-2.4,6.4-3.6.9-.5,1.1-1.2.7-2.3-1.2-3.4-2.4-6.8-3.5-10.3-1.4-4.5-2.1-9.3-4.1-13.6-.6-1.2-1.1-1.2-2.1-.8-3.9,1.6-7.9,2.7-11.6,4.8-3.8,2.1-8,3.4-12,5.2-2,.9-4,1.7-5.9,2.7-.9.4-1.1,1.2-.8,2.3,1.2,3.6,2.4,7.2,3.4,10.8,1.1,3.9,1.3,3.3-2.6,4.5q-4.35,1.35-8.7,3c-1.2.4-2.2,1.1-3.4,1.5-2.8,1.1-5.5,2.1-8.3,3.1a51.6,51.6,0,0,0-12,7c-.3.3-.7,1-1.3,1.6ZM313.9,145c-.3-.7-.4-1.2-.6-1.6-1.6-4.5-3.4-8.9-4.3-13.6-.5-2.6-2.6-3.9-4.1-5.6a1.367,1.367,0,0,0-1.4-.2c-2.3,1.1-4.9,1-7.3,2.2-4.1,2.1-8.4,3.6-12.6,5.4-5.3,2.2-10.5,4.3-15.8,6.5-5.4,2.2-10.7,4.7-16.3,6.6-3.5,1.2-6.7,3-10.2,4.3-1.5.6-3,1.1-4.5,1.7-4,1.7-8,3.5-12,5.2-1.6.7-2.1,1.8-.9,3.1a21.8,21.8,0,0,1,4.2,6.6,34.6,34.6,0,0,1,3.3,12.6c.1,1.7.9,2.4,2.5,2a17.88,17.88,0,0,0,3.2-1.3c1-.5,2-1.2,3-1.7,4.3-2.2,8.5-4.6,12.8-6.6a77.037,77.037,0,0,1,11.5-4.7,162.953,162.953,0,0,0,16.4-6.3c3.7-1.5,7.3-3.2,10.9-4.8l4.8-2.1c1.9-.8,3.7-1.8,5.6-2.5,3.5-1.4,7-2.7,10.5-4.1.5-.2.9-.8,1.3-1.1Zm310-27.4-.3.9c-1.6,6.1-3.3,12.2-4.9,18.3-.5,2-.5,2,1.3,2.7,2.5,1,5.3,1.7,7.6,3,6.7,3.8,14,6.1,21.1,9,4,1.6,8.1,3.1,11.8,5.6a22.486,22.486,0,0,0,6,3,34.992,34.992,0,0,1,10.9,5.5,2.67,2.67,0,0,0,1.8.3c1.1-.1,1.5-1.2,2.1-2l4.8-6.9c1.8-2.6,3.5-5.2,5.2-7.8a11.256,11.256,0,0,0,1.3-2.7,1.432,1.432,0,0,0-.3-1.1,13.931,13.931,0,0,0-3.8-2.7,25.892,25.892,0,0,1-6.4-3.3c-.8-.5-1.6-1.1-2.4-1.5-3.7-1.7-7.3-3.3-11-4.9-1.3-.6-2.6-1.1-3.8-1.7-3.9-1.9-7.8-3.9-11.7-5.9-2.2-1.1-4.4-2-6.5-3-1.1-.5-2.2-1.1-3.3-1.6-1.5-.7-3-1.4-4.6-2.1-1.7-.8-3.3-1.6-5-2.3-2.3-.9-4.7-1.7-7-2.7a2.094,2.094,0,0,0-3.1,2,4.989,4.989,0,0,0,.2,1.9Zm-223-60.4c-1.5.1-3.6.3-5.6.4-1.1.1-1.6.5-1.6,1.6,0,1.7.2,3.4.1,5-.2,3.8-.6,7.6-.9,11.4-.3,3.2-.1,3.4,3,3.3l20.1-.3a17.633,17.633,0,0,1,2.3,0,48.863,48.863,0,0,0,5.4.3c4.8-.1,9.5-.4,14.3-.4,4.5,0,9,.2,13.4.3,3.4.1,6.7.3,10.1.4.8,0,1.5,0,1.5-1.1.1-4.5.3-8.9.4-13.4a14.315,14.315,0,0,1-.1-2.9c.4-1.8.1-2.5-1.6-2.5-1.7-.1-3.4,0-5,0-3.4,0-6.8-.1-10.2-.2-3.2-.1-6.5-.4-9.7-.6-3.9-.2-7.8-.3-11.7-.5-2.2-.1-4.3-.2-6.5-.3-2.6,0-5.2.2-7.8.1-3.2-.1-6.3-.4-9.9-.6Z" transform="translate(-122.9 -57.2)" fill="none"/>
  <path id="Path_876" data-name="Path 876" d="M643.8,268.6c-.1.9-.2,1.9-.3,2.8-.6,4.8-2.1,22-2.3,25.9-.2,4.1-.3,8.3-.9,12.4-.4,2.7.8,4.3,2.7,5.8a16.545,16.545,0,0,1,3.4,3.6,66.22,66.22,0,0,1,7.7,13.1,16.959,16.959,0,0,1,1,3.7,3.845,3.845,0,0,1-.4,2.4,30.979,30.979,0,0,0-3.6,10.6,64.033,64.033,0,0,1-3.4,12.1c-2.5,6.2-4.7,12.6-7,18.9-.1.2-.4,2.4-1.3,2.5s-1.2-1.2-1.5-1.9c-1.1-3-2.9-5.7-4.2-8.6-2.7-5.8-6.8-10.5-11.1-15a49.2,49.2,0,0,0-6.1-5c-1.8-1.3-1.9-1.6-1.3-3.7.7-2.5,1.3-5,2-7.5,1.7-6.1,3.5-12.2,5.1-18.3.9-3.4,1.4-6.8,2.1-10.2.4-2,.6-4,.8-6,.2-1.4.5-1.8,1.8-1.3a18.311,18.311,0,0,1,6.2,3.2c1.1,1,2.5,1.8,3.8,2.8.8.6,1.1.2,1.1-.6.2-3.5.5-7,.7-10.6.3-5.2.5-10.5.8-15.7,0-.7,2.6-19.2,2.8-21.7a45.127,45.127,0,0,0,.1-5.2c.2-5.2.5-10.4.6-15.6.1-2.7-.1-5.5,0-8.2a2.828,2.828,0,0,0-1.9-2.7c-1.8-.7-13.3-7.2-16.3-8.4-2-.8-2.6-.4-3.6,1.6-1,2.2-13.4,29.5-15.9,35.5,0,.1-.1.2-.1.3-.3.8-.5,1.7-.8,2.6-.7,2-2,3.2-3.9,1.3-.7-.7-8.6-5.4-11.7-7.2-2.1-1.2-23.9-10.7-27.4-12.3-1.1-.5-5.9-2.6-7.6-3.6-2.1-1.3-2.5-1.8-4.4-.3-2.4,1.9-5.6,3.7-8.1,5.6-4,3.1-19.7,15.1-22.7,17.2-2.9,2.1-28.3,21.8-29.6,22.9-2.8,2.3-5.5,4.7-8.2,7.1-.7.6-1.5,1.1-2.3,1.7-1.8,1.3-3.6,2.7-5.3,4.1a3.365,3.365,0,0,0-.8,1.7c-.4,4.3-.7,8.7-1,13.1-.2,2.1.3,2.7,2.4,3,2,.3,4,.4,6,.6,5.2.5,10.5.7,15.7,1.4,4,.5,8,1.5,12,2.3,3.9.8,7.8,1.5,11.7,2.5,3.3.8,6.5,1.8,9.7,2.8,5.3,1.7,10.6,3.6,15.9,5.4,2.9,1,5.8,2.1,8.7,3,5.9,1.8,11.2,4.8,16.6,7.7,3.1,1.7,6.3,3.1,9.5,4.6a56.824,56.824,0,0,1,7.7,4.1,75.71,75.71,0,0,1,7.7,6.3c2.1,1.9,4.2,3.9,6.1,5.9,2,2.1,3.8,4.4,5.7,6.6a35.022,35.022,0,0,0,2.4,3,31.5,31.5,0,0,1,7,10.7,6.97,6.97,0,0,1,.6,1.9,78.943,78.943,0,0,1,1.1,8.5,48.134,48.134,0,0,1-3.7,20.5,33.458,33.458,0,0,1-7.1,10.6c-2.8,2.9-5.7,5.8-8.7,8.4a141.08,141.08,0,0,1-11.5,8.9,108.892,108.892,0,0,1-18.3,10.1c-3.6,1.5-6.9,3.7-10.4,5.4-4.1,2-8.2,3.9-12.4,5.7-5.6,2.3-11.3,4.6-17.1,6.6-3.9,1.4-8,2.2-12,3.3-2.4.7-4.9,1.3-7.3,2-6.2,1.6-12.4,3.4-18.7,4.6a135.191,135.191,0,0,1-20.1,2.9c-7.9.3-15.9,1.1-23.8,1.7-5.7.4-11.5.6-17.2,1.2-8.6.9-17.2.4-25.8.4-9.1,0-18.2-.6-27.3-.9-5.8-.2-11.5-.6-17.3-.9-1.2-.1-2.4-.3-3.7-.4a2.376,2.376,0,0,0-1.2.3c-1.5,1.2-2.8,2.6-4.3,3.6-4.6,3-9.1,6-13.8,8.6-5.3,2.9-10.7,5.3-17,8.7-3.2,1.7-6.2,3.8-9.3,5.6-2.6,1.5-5.2,2.8-7.8,4.2-1.7.9-3.1.1-4.2-.9-3.1-2.8-6.7-4.9-10.1-7.2-4.1-2.9-8.3-5.7-12.5-8.5-2.3-1.5-4.5-3.2-6.8-4.6-3.5-2.3-7.2-4.3-10.7-6.6-2.7-1.8-5.2-3.9-7.7-5.9l-5.1-3.9c-1.9-1.4-3.7-2.9-5.5-4.3-2.1-1.6-2.5-1.8-4.6-3.3a6.026,6.026,0,0,1-2.4-5.5c.1-3.4-.2-14.7-.2-18.1a3.591,3.591,0,0,0-2-3.5,17.807,17.807,0,0,1-7.8-11.1,31.005,31.005,0,0,1-1-5.3c-.3-5.3-.5-6.8,1.6-15.6s8.8-21.1,17.6-27.7c6.8-5.1,16.9-11.9,19.1-13.5.9-.7,31.2-17.5,36.3-20.1,4.2-2.2,8.6-4,12.9-6a3.123,3.123,0,0,0,1.6-1.6c1.4-2.4,2.6-4.9,4-7.4,1.3-2.3,2.7-4.6,4-7,1.2-2.3,2.2-4.6,3.4-6.9a14.168,14.168,0,0,0,.8-1.8,17.013,17.013,0,0,0,1.1-4.3c.1-7.3,0-14.7.1-22,0-2,.4-4,.4-6,0-5.1-.2-10.3-.1-15.4,0-4.1.3-8.2.5-12.2.2-3.7.5-7.4.4-11.2-.2-4,.1-8.1.3-12.1.1-1.7,1.9-3.2,3.5-3.8,3.5-1.2,7.1-.9,10.6-1.4,5-.7,10.1-1.5,15.1-2.3,3.6-.6,7.1-1.4,10.7-2,5.3-.8,10.5-1.5,15.8-2.1,5.8-.7,11.7-1.1,17.5-1.8,4.4-.5,8.7-1.5,13.1-2.1,5.2-.6,10.4-1,15.5-1.6,5.6-.6,11.1-1.4,16.7-2,2.9-.3,5.9-.4,8.9-.7,3.1-.3,6.2-.6,9.3-1a3.818,3.818,0,0,1,3.2,1.2c2.5,1.9,4.9,3.8,7.4,5.7a3.633,3.633,0,0,1,1.3,3.6c-1,5.6-.8,11.2-1,16.8-.1,3.2-.3,6.4-.3,9.6.1,3.8.3,7.6.5,11.4.2,3.9-.4,7.8-.5,11.8-.1,2.8-.3,5.6-.4,8.4-.1,3.6-.2,7.2-.1,10.7,0,2.4.6,1.6,2.4.2,2.9-2.2,7.3-5.9,10.1-8.1,2.3-1.8,28.1-22.2,31-24.3,4-2.9,19-14.4,23.1-17.6.9-.7,6.4-4.3,7.8-5.3.6-.5.8-.8,0-1.2-1.1-.5-2.2-1.2-3.3-1.6-1.4-.6-1.6-1.7-.8-3,1-1.6,5.2-11.4,6.5-14.5,2-4.6,4.1-9.2,6.2-13.8,0-.1.1-.2.1-.3,1.4-3,10.2-20.3,13.1-26a20.285,20.285,0,0,0,1.1-2.6A2.955,2.955,0,0,1,574,174c3,1.9,14.8,5.6,17.2,6.4,3.1,1,14.3,4.3,16.9,5,1,.3,1.5.4,1.8-1,.5-2.2,4.8-21.6,5.6-25.8.4-2.1.9-4.3,1.3-6.4a1.987,1.987,0,0,0-.1-1.1c0-.5-.3-1.4-.1-1.5a2.917,2.917,0,0,1,2-.4,31.929,31.929,0,0,1,6.1,2.3c4.7,2.2,9.4,4.6,14.1,7,3,1.6,18.1,11.4,19.7,12.9,2.4,2.3,7.9,7.9,8.2,8.5,1,1.7,2,3.5,3.1,5.1a2.419,2.419,0,0,1,.4,2.9c-.9,1.8-7.2,21.9-7.6,23.5-2,7.4-4.1,14.8-6.2,22.2-.5,1.9-1.2,3.8-1.9,5.7-.4,1.1-1.1,1.4-2.1.7-1.6-1.3-3.1-2.7-4.7-4l-.1-.1c-.8-.5-1.5-1-2.3-1.5a20.474,20.474,0,0,0-.5,2.4c.5,1.4-.6,28-1,31.8ZM438,371.4c-.6,0-1.6.5-1.7,1a64.758,64.758,0,0,0-.8,7.7c-.1,2.7.2,5.3.2,8-.1,6.3-.4,12.5-.4,18.8,0,6.5.1,13.1.3,19.6.1,2.6.6,5,3.1,6.7,3.3,2.3,6.5,5,9.6,7.6.3.3.6,1.1.4,1.4a1.709,1.709,0,0,1-1.3.7,2.252,2.252,0,0,1-1.4-.8c-1.7-1.6-3.3-3.3-5.1-4.8-1.4-1.1-3.2-1.9-4.7-3-1.1-.8-2.7-1.5-2.8-3.1-.3-5-.7-10-.6-14.9,0-6.7.5-13.4.7-20.1.1-5.4,0-10.7.1-16.1,0-2.1.3-4.2.4-6.4.1-1.8.1-1.9-1.6-1.8-3,.2-5.9.4-8.9.6-4.5.4-8.9.7-13.4,1.1-4.2.4-8.5.8-12.7,1.2-1.9.2-1.9,0-1.8,2,.4,6.3.8,12.6,1,18.9.1,4-.1,7.9-.2,11.9-.1,2.6-.2,5.1-.5,7.7a99.193,99.193,0,0,0-.6,15.4,2.226,2.226,0,0,0,1.2,2.2c4.5,2.6,8.4,6.4,13.3,8.4.7.3,1.2.9.7,1.6a2.588,2.588,0,0,1-1.7.9c-.3.1-.7-.4-1.1-.7-4-2.7-7.9-5.6-12.1-7.9-2.1-1.1-3.2-1.9-2.8-4.4.7-5.5.7-11.2,1-16.7.5-8.1,1.3-16.2.7-24.3-.3-4.6-.7-9.1-1.1-13.7-.1-1-.2-1.2-1.1-1.1-1.3.1-2.7.2-4,.2-2.2.1-13.7,1.1-17.2,1.1-5.7,0-27-1-31.8.4a45.579,45.579,0,0,1-9.8-4.5c-2.1-1.5-4.3-2.7-4.3-5.8-.1-5.8-.5-11.6-.4-17.4.1-2.3-.2-4.6-.3-6.8,0-1.1-.4-1.2-1.4-.9-3.5,1.1-7,2-10.5,3.1a3.007,3.007,0,0,0-1.4,1.1c-1.4,2.8-2.7,5.8-4.1,8.6-2.7,5.5-5.4,10.9-8.2,16.3-2.3,4.4-4.7,8.8-7,13.2-.1.3-.5,1.1-.6,1.4.3,0,3.5-1.3,4.5-1.6,4.3-1.4,8.5-2.9,12.8-4.2,2.4-.7,2.6-.4,2.7,2v.8c0,4.8,0,9.6.2,14.4.2,5.1.8,10.3,1.1,15.4.1,1,.4,1.1,1.3,1.3,1.1.2,2.6.4,3.2,1.2,1,1.3,1.7,1,2.8.5a3.582,3.582,0,0,1,1.1-.4,19.087,19.087,0,0,0,8.1-3.9,1.552,1.552,0,0,1,2.5.8c.3,1.8.3,3.7.5,5.6a1.126,1.126,0,0,0,.5.8c2.7.6,5.4,1.1,8.1,1.8,3.6.9,7.1,2,10.6,3a2.485,2.485,0,0,0,.8.1c2.7.2,4.2,2.4,4,5.1a61.9,61.9,0,0,0-.6,9.6,112.594,112.594,0,0,1-.1,13c-.2,3.8-.4,7.6-.9,11.4-.8,6-.7,12.1-.8,18.1,0,.8.2,1.3,1.1,1.4,1.3.2,2.5.5,3.8.6,7.9.5,15.9,1,23.8,1.5,4.2.3,8.5.6,12.7.7,4.7.1,9.4-.2,14.1,0a264.293,264.293,0,0,0,26.7-.4c1.8-.1,3.7-.1,5.5-.3,2.7-.3,5.3-.7,8-1,4.5-.4,9-.7,13.5-1.1,4.1-.3,8.2-.4,12.2-.9,5.3-.6,10.7-1.3,15.9-2.4,4.5-.9,9-2.3,13.5-3.5,6.1-1.6,12.3-3.1,18.3-4.8,4.5-1.3,9-2.8,13.4-4.4,4.5-1.7,8.8-3.5,13.2-5.4,4.1-1.8,8.1-3.7,12.1-5.7,3.4-1.7,6.8-3.6,10.2-5.3,1.7-.9,3.5-1.5,5.1-2.5,3.8-2.3,7.5-4.7,11.1-7.3,2.7-1.9,5.2-4.3,7.9-6.3a85.541,85.541,0,0,0,11.6-10.9,13.733,13.733,0,0,0,2.6-3.7c1.5-3.3,2.9-6.6,4.1-10,1.4-3.8,1.3-7.8,1.6-11.8a36.752,36.752,0,0,0-.9-8.7,19.8,19.8,0,0,0-3.6-8.6c-2.7-3.6-5.5-7.2-8.3-10.8a23.674,23.674,0,0,0-3.3-3.8c-3.1-2.9-6.2-5.6-9.4-8.4a45.718,45.718,0,0,0-4.9-3.8c-3.2-1.9-6.4-3.6-9.7-5.3-2.8-1.5-5.7-2.8-8.6-4.2-3.9-1.8-7.8-3.7-11.8-5.3-4.2-1.7-8.4-3-12.7-4.4-4.5-1.6-8.9-3.3-13.5-4.7-3.5-1.1-7-2-10.5-2.8-5.2-1.3-10.4-2.6-15.7-3.7-4-.8-8.1-1.3-12.1-1.7-5.7-.6-11.4-1-17.1-1.4-.3,0-.6.1-.8,0-.9,0-1.3.2-1.4,1.2-.2,5.6-.5,11.2-.6,16.8a57.4,57.4,0,0,0,.4,7.1c.6,8.2,1.3,16.3,1.9,24.4a10.868,10.868,0,0,1-.1,1.8c0,1-.5,1.4-1.5,1.3-2.2-.1-4.5-.1-6.7-.2-2.8.2-24.8.2-26.8.3Zm30.3-2c2.4.2,2.7-.1,2.6-2.6-.1-2.2-.2-4.4-.4-6.5-.5-6.9-1.7-30.7-1.5-35.8.2-5.3,1.3-23.2,1.4-26.8.1-3.8.1-7.6.2-11.4.1-3.4.1-6.8.2-10.2.2-5.8.2-21.6.2-23.7,0-3.5.2-7,.4-10.6.2-4.8.4-9.5.6-14.3.1-1.1-.3-1.5-1.4-1.4-1.8.2-17.2.7-23.1,1.2-8.4.8-32.4,2.7-36,3.1-4.1.4-18.8,1.7-22.1,1.9-3.1.2-6.2.6-9.4,1-5.3.6-10.7,1-16,1.9-6.8,1.1-13.6,2.4-20.3,3.7-1.8.3-3.6.7-5.4,1-.3.1-1.6-.3-1.6.6.1,2.8.3,8.2.4,11,0,12.4.8,28.2.5,32.8-.2,4.8-.6,24.5-.5,30.1.1,3.1.3,6.1.5,9.2.2,3.6,1.1,19.8,1.6,24.3.3,3.1,2.3,18.5,2.9,23.2a3.546,3.546,0,0,0,.3,1.1,2.272,2.272,0,0,0,2.5,1.7c3.2-.2,30.8.7,36.3.2,1.9-.2,7.6-.8,8.6-.9,1.9-.1,42.1-2.9,48.8-3.6,1.4-.3,29.3-.2,29.7-.2ZM297.8,464.8a3.957,3.957,0,0,0-2.3-3.1c-2.6-1.4-5.2-2.6-7.8-3.9-2.9-1.4-5.7-2.8-8.6-4.2-3.7-1.9-7.4-3.9-11.2-5.8-3.9-2-7.8-3.9-11.7-5.8-2-1-3.9-2.4-5.9-3.1-5.3-2-10.1-5-14.9-7.9-1.1-.7-1.9-.4-2,.9a26.2,26.2,0,0,0,.1,2.8,27.828,27.828,0,0,0,0,5c1.1,5.5.9,11,1.3,16.6.1,1.3,0,2.7,0,4,0,1.8-.1,3.7-.1,5.5a2.479,2.479,0,0,0,.8,1.5c.9.7,2,1.3,2.9,2,4,3.2,7.9,6.5,12,9.6,3.3,2.5,6.8,4.8,10.2,7.1,3.1,2.2,6.2,4.4,9.4,6.4,3,2,6.3,3.6,9.3,5.7,5.4,3.7,10.7,7.5,16.1,11.2.9.6,1.8,1.3,2.7,2,.6.5,1.1.6,1.2-.5,0-.3.1-.7.1-1-.2-2.4-.1-5.6-.2-8-.2-3.9-.8-5.4-.8-9.3.1-2.7-.3-24.8-.6-27.7ZM667.6,187.6c-.5-1.1-1-2.3-1.6-3.6a28.673,28.673,0,0,0-6.8-9.3c-3.7-3.2-21.3-14.2-26.1-16.9-1.5-.8-3.1-1.5-4.6-2.2-1.7-.8-3.5-1.5-5.3-2.2a14.261,14.261,0,0,0-2.7-.9c-.4-.1-1.2.5-1.3.9-.6,2.3-1.1,4.6-1.6,6.9-.6,3.3-3,14.4-3.5,18a70.147,70.147,0,0,1-1.7,7.9c.5.3,1,.7,1.5,1a6.118,6.118,0,0,0,1.2.5c4.3,1.4,17,5.2,16.3,7.4-.5,1.5-.9,3-1.4,4.5-.5,1.7-.8,3.5-1.4,5.2-1.4,4.3-2.8,8.5-4.2,12.7-.1.3.1,1.1.4,1.2,2.7,1.4,5.4,2.7,8.1,4,.8.4,8.5,5.1,11.4,7.3,2.6,1.9,5.1,4.1,7.7,6.2l1.2.9a10,10,0,0,0,.8-1.4c.8-2.5,2.4-7.8,2.4-7.9,1-3.3,2-6.6,2.9-10,.8-3.1,3.4-12.9,4-14.7,1.1-3.6,2.2-7.2,3.2-10.8.4-1.4.7-2.9,1.1-4.7Zm-104.4,6.2c-1.2,2.4-6.8,14.1-8.4,17.5-1.3,3-7.1,16.8-8.5,20.8-.3,1-.2,1.5.7,1.9.8.4,1.7.9,2.5,1.4a2.193,2.193,0,0,0,1.4.4,20,20,0,0,1,3-2.3c1.8-.8,4.7-2.2,7.6-.5.7.5,0,2.1-.9,2.4-4.5-.7-3.9.2-6.3,1.4-.5.3-.6.7,0,1,2.3,1.2,4.5,2.5,6.8,3.6,2.4,1.1,4.9,2.1,7.4,3.1.1.1.2.1.4.2,5.1,2.2,10.2,4.3,15.2,6.7,2.9,1.3,14.8,8,17.3,9.4.6.4,1,.1,1.3-.5,2.1-4.6,4.2-9.3,6.2-13.9,1.1-2.5,4.9-11.8,6-14,1.7-3.5,3.4-7.1,5-10.6a42.85,42.85,0,0,0,2.6-5.8c2-6.1,3.8-12.2,5.6-18.3.4-1.4.1-2.3-1.2-2.9-2.1-1-4.2-2.1-6.4-2.9-3.1-1.1-33.9-11.3-38.7-12.8-2.8-.9-5.6-1.4-8.4-2.2-.8-.2-1.3-.1-1.6.7-.2.5-.5.9-.7,1.3ZM353.5,441.6c.2-4.1.4-8.2.5-12.4a4.509,4.509,0,0,0-.3-1.1,4.18,4.18,0,0,0-1,.4c-5,3.1-49.3,29.8-52.3,32a1.889,1.889,0,0,0-.7,1.3c.1,1.4,0,3,.1,4.5.3,4,.3,7.9.4,11.9.1,3.6.6,16.4.6,19.1,0,1.2.9,10.7,1.2,14.3.1.8.2.9.8.6,2.3-1.2,34.4-18.7,37-20.2,2.9-1.6,5.6-3.5,8.4-5.3,1.5-1,3.7-3.2,3.7-4.3,0-1.7-.7-7.3-.6-9,.4-4.9.9-9.8,1.3-14.7.5-5.6,1-17,.9-17.1Zm-127.8-7.2c1,2.2,3.1,3.9,4.7,5.8.2.2.7.4.9.3a1.159,1.159,0,0,0,.4-1c-.2-2.7-.2-5.5-.6-8.2-.4-2.2-.2-4.9-.9-7a1.907,1.907,0,0,1,.7-2.6,24.082,24.082,0,0,1,3.3-1.5c3.4-1.3,5.9-1.9,9.3-3.2,4.7-1.9,9.3-3.9,13.9-5.8a1.774,1.774,0,0,0,1.2-2c-.3-3.8-.6-7.6-.7-11.4-.1-2.5.5-3.1,3-3.8,8.5-2.5,17-5.1,25.4-7.7.6-.2,1.3-.4,1.3-.4s1.6-3,2.3-4.1c2.8-4.9,5.7-9.8,8.4-14.7,1.4-2.4,2.4-5,3.7-7.5,2-4,4-8,5.9-12a.58.58,0,1,0-.8-.8c-2.3.9-4.6,1.8-6.8,2.8-5.3,2.2-36.4,19.9-39.6,21.9-2.6,1.6-14.9,10-18.3,12.8C232,393.7,228.8,400.1,224,415c-.8,7.2-.6,13.8,1.7,19.4ZM652.1,336c-.1-.5-.2-1-.3-1.4-1-4.4-3.3-8-6-11.5-1-1.3-1.8-2.9-2.9-4.1a41.453,41.453,0,0,0-5.9-5.2c-2.4-1.8-5-3.2-7.5-4.8-1.6-1-1.7-.9-2.2,1-.3,1-.5,2.1-.8,3.1-.4,2.2-.7,4.4-1.2,6.6-2.1,7.6-4.3,15.1-6.3,22.7a51.688,51.688,0,0,0-1.1,5.4,2.437,2.437,0,0,0,1.1,2.4,77.9,77.9,0,0,1,6.6,6.2c2.5,2.7,4.7,5.7,7,8.6a19.194,19.194,0,0,1,2.5,3.8c1.3,2.4,2.3,5,3.5,7.5.2.3,1.2.2,1.3-.2.5-1.4.9-2.8,1.4-4.1,1.7-4.7,3.5-9.4,5.2-14.2a51.831,51.831,0,0,0,1.7-5.6c.8-3.2,1.5-6.4,2.3-9.6.5-2.4,1.1-4.5,1.6-6.6ZM332.8,436.2c-.3-1.9-.5-3.8-.8-5.6-.9-5-1.8-9.9-2.7-14.9-.4-2-.5-1.9-2.4-1.2a78.414,78.414,0,0,1-9.6,3.5c-4.1,1.1-8.3,1.8-12.2,3.7a8.864,8.864,0,0,1-1.7.8c-5.6,1.3-10.7,3.9-15.8,6.5a2.218,2.218,0,0,0-1.3,2.9c.7,2.5,1.2,5.1,2.1,7.6a94.85,94.85,0,0,1,3.9,14.8c.4,2.3,1.4,4.2,3.9,4.8a2.463,2.463,0,0,0,2.2-.2c3.9-2.6,8.4-5.1,12.4-7.6,2.6-1.6,5.5-2.9,8.2-4.3,4.2-2.3,7.5-5,11.7-7.2,1.3-.8,2.5-1.7,2.1-3.6Zm-5.5-70.4a3.877,3.877,0,0,0,.9,2.3c2.6,3,6.3,4.4,9.7,6.1,1.3.6,2.2-.1,2.1-1.5-.1-1-.3-2-.4-3-.4-4-.7-7.9-1.1-11.9-1-8.7-2.1-17.4-2.9-26.2-.5-5.7-.7-11.5-1-17.3-.2-2.8.3-7.5.1-19.6-.2-12,.7-21,.6-27.2,0-3.1.3-6.2.2-9.4-.1-4.9-.4-9.8-.8-14.7-.2-2.7-1-5.1-4.1-5.9-.3-.1-.7-.2-1-.3-.9-.4-1.4-.4-1.4.7-.1,2.4-1,38.6-1,44.5-.1,6.3-.3,12.6-.5,18.9-.1,2.6-.1,5.2-.2,7.7,0,.2.2.4.3.6.1-.2.3-.3.4-.5s1.9-5.4,2.8-7.7c.3-.7.9-1.2,1.7-.8.9.4.4,1.2.2,1.8a23.582,23.582,0,0,0-1.2,2.8c-1,2.6-1.8,5.2-2.9,7.7a15.354,15.354,0,0,0-1.2,6.3c.2,7.4.2,14.9.3,22.3-.1,7,.3,23.2.4,24.3Zm-18.1,26.7h.2l-.6-8.4c-.1-1.7-.3-1.9-1.9-1.3-4.5,1.6-16.1,5.5-16.1,5.5a11.6,11.6,0,0,1-1.2,3,2.5,2.5,0,0,1-1.6,1.1c-.3,0-.6-.4-.8-.6a18.134,18.134,0,0,1-.3-1.9s-3,1.2-3.9,1.5c-6.8,1.8-13.6,3.6-20.4,5.5-2,.5-2.3.9-2.2,2.9.2,2.8.6,5.6.9,8.3.1.8.5,1,1.3.8,3.4-1,6.9-1.9,10.3-3,2-.6,4-1.6,6.2-1,1.7.4,3.3,1,5,1.4,7.4,2,14.7,4,22.1,6a7.823,7.823,0,0,0,2.6.2c.4,0,.9-.6,1-1a24.232,24.232,0,0,0,.3-4.7C309.7,402,309.4,397.2,309.2,392.5Zm56.4-164.3c-4.7,1.1-9.5,1.5-14.3,2.2-6.9,1.1-13.8,2.3-20.7,3.5-.3,0-.6.3-.9.4a6.034,6.034,0,0,0,.8.8c2.9,1.1,5.5,2.7,8.9,1.9,2.5-.6,5.1-.6,7.6-1.1,3.3-.6,15.9-2.7,18.9-3.1,3-.5,19.2-2.4,24.3-3,2.7-.3,22.9-1.2,31.4-2.8,4.3-.4,17.6-1,19.9-1.2,4.9-.4,24-1.9,28.6-2.3a3.178,3.178,0,0,0,.9-.3c-.2-.2-.4-.5-.6-.7-1.7-1.3-3.7-2.2-5.1-3.8-1.3-1.6-2.8-1.6-4.4-1.5-3,.2-5.9.4-8.9.7-4.5.4-41.6,4.5-45.7,5-3.4.4-6.7,1.2-10.1,1.6-4,.4-27.2,2.9-30.6,3.7ZM279,418.5c-.3-1.3-.6-2.6-.8-3.9-.3-2.1-.5-4.2-.7-6.3-.2-1.9-.2-1.9-2.1-1.3-1.2.4-2.3.8-3.5,1.2-2.9.9-5.9,1.8-8.8,2.8-1.9.7-1.9.7-1.7,2.8.2,4.2.5,8.5.7,12.7.2,4.6.5,9.3.6,13.9a3.163,3.163,0,0,0,2.1,3.2c2.3,1.1,4.6,2.2,7,3.3.8.4,1.7.6,2.6,1a16.053,16.053,0,0,0,0-3.1c-1.5-6.4-1.7-13.1-2.7-19.6-.2-1.1.4-1.5,1.3-1.8,1.1-.3,2.1-.6,3.2-1,2.5-.8,2.8-1.2,2.8-3.9ZM260.4,429c-.4-5.3-.8-9.7-1.1-14.2-.1-1.9-.2-1.9-1.9-1.2-6.3,2.6-12.6,5-18.9,7.6-1.7.7-3.4,1.4-5.1,2.2a1.182,1.182,0,0,0-.6,1.7,6.084,6.084,0,0,0,4,4.1c1.4.4,2.5,1.5,3.8,2.1,2.8,1.3,5,3.5,8.1,4.3a28.064,28.064,0,0,1,5.2,2.6c1.7.9,3.4,1.9,5.1,2.8.9.5,1.2.1,1.3-.8,0-.4.1-.8.1-1.2Zm16.7,17.9c-.3,1.3-.5,2.6.9,3.3,3.5,1.8,7,3.5,10.5,5.2,1.3.6,1.6.2,1.3-1.2q-.9-4.05-2.1-8.1l-4.8-16.2c-.4-1.2.2-2.7,1.2-2.6,2.1.2,3.7-1,5.5-1.7,3.3-1.5,6.6-3,10-4.3,2.4-1,2.5-.9,2.1-3.6-.2-1.5-.5-1.6-1.9-1a27.17,27.17,0,0,1-3.5,1.6c-4.2,1.3-8.5,2.3-12.7,3.7a71.222,71.222,0,0,0-7.6,3.1,3.224,3.224,0,0,0-1.8,3.3c.1,1.3.1,2.7.3,4,.5,3.3,1.1,6.5,1.7,9.7l.9,4.8Zm55.5-25.8c.2,1.7.3,3.4.6,5.1.6,3.1,1.3,6.2,1.9,9.3.2.8.6,1,1.3.5,4.9-3,9.8-6,14.7-9.1,1.1-.7,1.1-1.1-.1-1.7a20.286,20.286,0,0,0-4.8-2c-4.2-1.1-8.5-1.9-12.7-2.9-.6-.1-1.1-.1-.9.8Zm-53-10.8c.4,2.8.8,5.6,1.3,8.4.3,1.6.6,1.6,2.2,1.1,2-.6,4-1.1,5.9-1.8,3.3-1.1,6.5-2.2,9.8-3.4a3.483,3.483,0,0,0,1.4-1.3,11.085,11.085,0,0,0-1.9-.9c-2.4-.7-4.8-1.2-7.1-1.8-3.4-.9-6.8-1.7-10.2-2.6-1-.3-1.5.2-1.5,1.2a4.484,4.484,0,0,1,.1,1.1Zm44.8-85.6V323a2.118,2.118,0,0,0-.3-.7c-.2.2-.5.3-.6.5a17.612,17.612,0,0,0-1.4,2.3c-2.6,4.8-5.1,9.5-7.7,14.3-.4.7-.8,1.5-1.2,2.2-.1.1.3.7.4.7,3.5-1.2,6.9-2.5,10.4-3.8a1.578,1.578,0,0,0,.5-.8c0-1.6,0-13-.1-13Zm-20.8,91.6a8.018,8.018,0,0,1,.5,2.1c0,1.2.5,1.1,1.4.8,2.7-.9,5.4-1.7,8-2.6a.758.758,0,0,0,.4-.2,1.38,1.38,0,0,0-.4-.3c-2.7-.5-5.4-1-8.2-1.5-1.3,0-1.6.3-1.7,1.7Z" transform="translate(-122.9 -57.2)" fill-rule="evenodd"/>
  <path id="Path_877" data-name="Path 877" d="M522.6,163.9c4.5-.4,8.7.9,12.9,2.1a11.626,11.626,0,0,0,1.8.4c1.5.2,1.9.7,1.6,2.2-.2,1.1-.7,2.3-.9,3.4a82.322,82.322,0,0,0-2,17.1c0,3.8-.5,4.2-4.1,3.3-3.3-.8-6.4-1.8-9.7-2.7-1.3-.3-2.6-.6-3.9-.8-2-.3-2.3-.5-2.2-2.5.2-3.2.5-6.4.6-9.5a12.341,12.341,0,0,0-.3-4.3,6.664,6.664,0,0,0-1.9-2.8,71.452,71.452,0,0,0-6.4-4.3L495.8,158c-1.4-.9-1.5-.9-1.6.8-.1,2.7,0,5.4.1,8,0,1.3.1,2.6.1,3.9-.1,1.5-.8,2-2.6,2.1-2.3.1-4.6.1-6.9.3-3.8.4-7.7,1-11.5,1.5-1.8.2-3.6.3-5.3.5-2.2.3-4.4.7-6.6.9-2.7.3-5.5.2-8.2.7-3.6.7-7.1.5-10.7.7-2.5.1-5,.5-7.5.8a14.6,14.6,0,0,1-2.2.3c-1.6.1-1.7-.1-1.8-1.6a166.7,166.7,0,0,0-2.1-17.3,69.894,69.894,0,0,1-.7-9.2c0-1-.2-1.3-1.4-1.5-4.5-.7-8.9-1.5-13.4-2.3-4.8-.9-9.6-1.8-14.4-2.6-2.1-.3-4.3-.3-6.4-.5-.6-.1-1.1-3.7-1.1-4.1,0-1-.1-2.1-.1-3.1,0-2.4-.1-4.8-.1-7.2,0-1.3-.5-12.1-.8-16.2-.3-4-1.1-18.3-1.4-21.3-.1-1.8-.3-2,1.6-2.1,3.6-.3,7.2-.4,10.7-.5,2.2-.1,10.6.3,12.7.5,3.2.3,15.1.8,17.9,1,4.3.2,17.6,1.1,19.9,1.3,1,.1,5.4-.3,5.1,1.5-.1,1,.5,9.8.3,13-.3,3.3.3,6.7.4,10,.1,2.3.1,4.6.1,6.9,0,1.4.7,1.7,1.9,1.6,5.8-.4,11.5-.6,17.3-1,4.2-.3,8.5-.7,12.7-1.2,1.6-.2,3.2-.5,4.8-.6,1.5-.1,2.1.5,2,2-.2,1.8-.5,3.5-.8,5.3-.2,1.6-.5,17.3-1.4,23.3a2.7,2.7,0,0,0,1.2,2.9c1.8,1.1,3.6,2.3,5.4,3.4,4.3,2.6,8.7,5.3,13.1,7.9a6.946,6.946,0,0,0,1.3.5c0-.4.1-.9.1-1.3-.1-1.1.4-1.5,1.4-1.6,1.8-.2,3.7-.4,5.7-.5ZM455,95.8a1.89,1.89,0,0,0-1.9-2.1c-5.3-.5-10.6-1.1-15.9-1.4-5.7-.3-11.3-.2-17-.4-3.5-.1-7-.7-10.5-.9-2.6-.1-14,.2-17.1.3-1,0-1.4.7-1.4,1.7v2.5c-.1,1.2.3,8.3.6,10.8.5,4.4,1.1,8.8,1.4,13.3.4,5.3,1,18.4.8,19.7-.1,1.6-.2,1.9,1.4,1.9,4.3.2,8.4,1.3,12.5,2.1,5.5,1.1,11.1,2,16.6,3,2.6.4,2.9.1,2.8-2.6s-.2-5.3-.3-8c-.1-2.2,0-4.5-.2-6.7-.3-2.8.5-3.8,3.2-3.7,2.7,0,12.5-.1,14.8-.2,3.1-.1,6.2.7,9.4-.1.8-.2.9-5,.9-5.7,0-4.2-.1-19.9-.1-23.5Zm35,74.9c1.4-.2,1.6-.6,1.4-2a26.2,26.2,0,0,1,.1-2.8c0-.6.2-1.2.2-1.8.1-3.1.1-6.2.3-9.4.2-2.6,1.8-23.4,2.1-28.1a4.126,4.126,0,0,1,.1-.9c0-.2,0-1.7-.2-1.7-.8-.3-13.9,1.3-19.6,1.7-6,.5-12,.9-18.1,1.3-1.9.1-3.8.6-5.7.6-3.8-.1-17.5.4-20.6.6-.9.1-1.3.5-1.2,1.4,0,1.7.2,13.8.9,18.1.8,4.8.8,9.8,1.4,14.7.4,4,1,8,1.6,12,.3,2.1.3,2,2.5,1.9,5.8-.5,11.7-.9,17.5-1.4,2.9-.3,31.2-3.4,37.3-4.2Zm28.5,12.2h.1a16.156,16.156,0,0,0,0,2.2,1.975,1.975,0,0,0,.6,1.1,26.188,26.188,0,0,0,3.9,1.5c2.4.8,4.9,1.5,7.3,2.4,3,1.1,3.5.8,3.5-2.3a107.344,107.344,0,0,1,1.8-16,2.865,2.865,0,0,0-1.9-3.5c-1-.4-2-.7-3-1.2a14.886,14.886,0,0,0-9.3-1,8.306,8.306,0,0,1-2.7.3c-1,0-1.3.3-1.1,1.3a38.436,38.436,0,0,1,.9,10.7A33.821,33.821,0,0,1,518.5,182.9Z" transform="translate(-122.9 -57.2)" fill-rule="evenodd"/>
  <path id="Path_878" data-name="Path 878" d="M211.4,295.7c.5,4,.6,8.1,1.4,12,1.6,7.5,3.7,15,5.5,22.5.7,2.9,1.1,5.9,1.7,8.9.4,2.1,2.6,8,1.7,8.8-2.8,2.6-4.5,6-6.2,9.3-2.4,4.6-3.1,9.6-4.1,14.6-.5,2.4-1.2,4.8-1.7,7.2a22.112,22.112,0,0,1-.5,2.5,3.47,3.47,0,0,1-1.2,1.9c-1.1.8-1.7.3-2.1-1-.9-3.5-1.5-7.2-3-10.4a92.183,92.183,0,0,1-3.4-10.1c-1-3-1.5-6.2-2.3-9.2a38.44,38.44,0,0,0-1.4-4c-.4-1.3-.9-2.5-1.3-3.8s-.9-2.6-1.4-3.9c-.3-.9-.8-.8-1.3-.2a24.418,24.418,0,0,0-2.3,3.3,75.2,75.2,0,0,0-4,9.2c-1,3.1-3.3,9.5-4.7,8.6s-1.5-2.1-2.2-3.7c-1.2-2.9-4.6-10-5-10.7-.9-1.7-6-14.5-7.5-17.5-1.3-2.5-16.5-34.3-13.4-38.6,1.3-1.8,4-5.7,5.2-7.5,1.7-2.8,3.5-5.5,5.3-8.2.9-1.3,2.1-2.5,3.1-3.8,2-2.7,4-5.4,5.9-8.1,1.5-2.1,3.2-4,4.5-6.2a60.589,60.589,0,0,1,5.8-7.8c.9-1,3.5-4.8,4.5-4.4a1.9,1.9,0,0,1,.7,1.1c-.8,2.7-.3,5.5-.1,8.2.4,5.7,1,11.5,1.6,17.2a79.1,79.1,0,0,0,6,23.4c.7,1.8,1.2,3.6,1.8,5.4a5.91,5.91,0,0,0,.6,1.4c.1.2.7.2.8.1,1.4-1.9,2.7-3.8,4.1-5.7.1-.1.1-.3.2-.5,2.2-2,4.4-4,6.7-6,.7-.6,1.5-.7,1.7.7a25.69,25.69,0,0,1,.3,5Zm-55.9-2.5c.5,2.4.4,6.3,1.1,8.2,1.6,4.3,6.1,14.2,7,16.7,1.1,3,8,19,9.8,23,2.5,5.5,5.2,11,7.8,16.5.1.2.3.3.4.4.1-.2.3-.3.4-.5.1-.3,4.9-14,8.9-19.9a2.016,2.016,0,0,0,.2-1.7c-.6-1.8-1.2-3.5-1.9-5.2-.8-1.8-1.7-3.6-2.4-5.5-.2-.5,2.1-5.4,3-7.2q3.15-5.7,6-11.4a2.516,2.516,0,0,0,.3-1.9,49.14,49.14,0,0,0-1.7-6.6c-1-3.1-2.7-6-3.5-9.1-1.2-4.7-2.8-9.3-3.1-14.2-.4-5.5-2-21.4-2.2-23.9a3.08,3.08,0,0,0-.5-1.2,3.114,3.114,0,0,0-.9.7c-1.5,2.1-2.9,4.3-4.3,6.4-1.9,3.3-23.9,35.4-24.4,36.4Zm54.1.1c-.1-.6-.4-.9-1.1-.4a43.91,43.91,0,0,0-7.1,7.8c-1.5,2.2-2.2,4.9-3.8,7.1a133.733,133.733,0,0,0-6.5,11.7,9.892,9.892,0,0,0-1.2,6.7,41.078,41.078,0,0,0,1.9,5.6c2.1,5.8,4.2,11.7,6.2,17.5.9,2.8,1.5,5.8,2.3,8.6,1.1,3.7,2.3,7.3,3.5,11,1,2.9,2.1,5.6,3.2,8.5a1.756,1.756,0,0,0,.4.5c.1-.2.4-.4.4-.6.4-1.8.6-3.6,1-5.4.6-2.6,1.4-5.1,1.9-7.6,1-5.5,3.7-10.1,6.6-14.7,1.2-1.9,2.3-3.7,1.6-6.2-1-3.5-1.5-7.2-2.2-10.8-.3-1.7-.6-3.4-1-5.1-1.5-6.1-3.2-12.1-4.5-18.3-.8-4.7-1.5-15.3-1.6-15.9Z" transform="translate(-122.9 -57.2)" fill-rule="evenodd"/>
  <path id="Path_879" data-name="Path 879" d="M230.8,209.2a12.94,12.94,0,0,1,1.5-1.7,55.388,55.388,0,0,1,12-7c2.8-1.1,5.6-2.1,8.3-3.1,1.1-.4,2.2-1.1,3.4-1.5,2.9-1,5.8-2.1,8.7-3,4-1.2,3.7-.7,2.6-4.5-1.1-3.6-2.2-7.3-3.4-10.8a1.653,1.653,0,0,1,.8-2.3,62.838,62.838,0,0,1,5.9-2.7c4-1.7,8.2-3,12-5.2,3.7-2.1,7.7-3.2,11.6-4.8,1-.4,1.5-.3,2.1.8,2.1,4.3,2.7,9.1,4.1,13.6,1.1,3.5,2.3,6.9,3.5,10.3a1.646,1.646,0,0,1-.7,2.3c-2.1,1.2-4.3,2.4-6.4,3.6a14.794,14.794,0,0,0-2.1,1.3c-2.3,2-5,3.5-6.6,6.1-.7,1.1-1.3,2.2-1.9,3.3a.446.446,0,0,0,0,.5c.4,1.9.6,3.8,1.1,5.6,1.2,4.3,2.4,8.6,3.8,12.8,1.4,4.1,3,8.1,4.6,12a50.431,50.431,0,0,0,2.6,5.2,1.434,1.434,0,0,1-.5,2,52.938,52.938,0,0,1-5.2,2.9c-3.8,1.7-7.7,3.4-11.6,5-1.5.6-3.2,1-4.8,1.6-.7.3-1.3.8-2,1.1-1.8.8-3.7,1.5-5.5,2.4-2.9,1.4-5.7,3-8.6,4.5a30.494,30.494,0,0,1-4.1,1.9,1.274,1.274,0,0,1-1.1-.5c-.6-.9-1-1.9-1.5-2.8-2.1-4.3-4.1-8.7-6.2-13-.4-1-.6-2-1-3l-4.2-9.3c-1.1-2.2-2.4-4.3-3.5-6.5-.7-1.4-1.3-2.8-1.9-4.3-1.3-3.2-2.5-6.4-3.8-9.5a12.9,12.9,0,0,0-.9-1.6,6.234,6.234,0,0,1-1.1-1.7Zm51.4-18c-.1-.9-.5-.9-1.2-.8-1.8.5-3.7,1-5.5,1.4a112.115,112.115,0,0,0-17.1,5.1c-3.5,1.5-6.9,3.3-10.5,4.4A47.985,47.985,0,0,0,235,208a1.913,1.913,0,0,0-.8,2.7c2.4,5.6,4.8,11.2,7.3,16.8,1.2,2.8,2.7,5.4,3.9,8.1,1.4,3,2.6,6.2,4,9.2,2,4.4,4,8.9,6,13.3.3.7.8,1.1,1.6.8a21.159,21.159,0,0,0,2.1-1.1c1.4-.8,2.7-1.7,4.2-2.5,1.7-.9,3.6-1.6,5.3-2.4,4.9-2.2,9.8-4.3,14.7-6.5,3.4-1.5,6.9-3,10.3-4.5,1.7-.7,1.7-.9,1.2-2.7a3.553,3.553,0,0,0-.4-.9c-1.7-4.4-3.4-8.7-5-13.2-1.2-3.6-2.2-7.3-3.3-10.9a56.34,56.34,0,0,1-1.4-5.9c-.5-2.2-.9-4.5-1.3-6.7-.4-2.3-1.1-9.3-1.2-10.4Zm2.9,7.7c.1,1.2.6,1.2,1.4.5,1.4-1.3,2.8-2.5,4.2-3.8,0,0,5.6-4.3,8.9-5.8a1.752,1.752,0,0,0,1.3-2.2c-.4-2.1-.9-4.1-1.4-6.2-.5-2.2-3.5-12.2-4.4-15.1-.3-.9-1-1.5-1.9-1.2-2.2.7-4.4,1.6-6.6,2.5-3.3,1.4-12.7,5.5-14.1,6.2-1.7.8-3.3,1.8-5,2.7a1.768,1.768,0,0,0-1.2,2.2c.6,3.1,3.6,9.6,3.7,10.1a2.27,2.27,0,0,0,3,1.8c3.1-.8,6.3-1.7,9.4-2.5.7-.2,1.6-.3,1.8.7.3,2.1.8,9,.9,10.1Z" transform="translate(-122.9 -57.2)" fill-rule="evenodd"/>
  <path id="Path_880" data-name="Path 880" d="M313.9,145a4.488,4.488,0,0,1-1.3,1.1c-3.5,1.4-7,2.7-10.5,4.1-1.9.8-3.8,1.7-5.6,2.5l-4.8,2.1c-3.6,1.6-7.3,3.2-10.9,4.8-5.4,2.3-10.8,4.5-16.4,6.3a86.826,86.826,0,0,0-11.5,4.7c-4.3,2.1-8.5,4.4-12.8,6.6-1,.5-2,1.2-3,1.7a12.66,12.66,0,0,1-3.2,1.3c-1.6.4-2.3-.4-2.5-2a39.121,39.121,0,0,0-3.3-12.6,21.8,21.8,0,0,0-4.2-6.6c-1.2-1.3-.7-2.4.9-3.1,4-1.7,8-3.5,12-5.2,1.5-.6,3-1.2,4.5-1.7,3.5-1.3,6.7-3.1,10.2-4.3,5.5-1.9,10.9-4.4,16.3-6.6,5.3-2.2,10.5-4.3,15.8-6.5,4.2-1.7,8.6-3.3,12.6-5.4,2.4-1.2,5-1.1,7.3-2.2a1.367,1.367,0,0,1,1.4.2c1.5,1.7,3.6,3,4.1,5.6.9,4.7,2.7,9.1,4.3,13.6.2.4.3.8.6,1.6Zm-10.1-17.8-1.6.4c-4.3,1.3-20.7,6.8-24.4,8.8-1.6.8-6.7,3.2-7.6,3.5-5.2,2-10.3,4-15.5,5.9-3.7,1.4-14.8,6.1-16.8,6.8a42.607,42.607,0,0,0-9.8,4.2c-1.6,1-1.6,1.1-.7,2.7a80.82,80.82,0,0,1,3.7,7.9,74.438,74.438,0,0,1,2.2,8.1c.1.4.5,1.1.7,1a14.356,14.356,0,0,0,3.6-.7,55.237,55.237,0,0,0,6.9-3.4,96,96,0,0,1,13.7-6.6c3.9-1.4,7.8-2.9,11.6-4.3,1.6-.6,3.2-1,4.7-1.7,3.5-1.5,16.8-7.4,19.8-8.7,2.8-1.2,5.6-2.5,8.5-3.6,2.1-.9,4.3-1.7,6.4-2.5,1.8-.7,2-1,1.5-2.9-.4-1.4-.8-2.7-1.3-4-1.3-3.4-1.7-7.1-4.3-9.9a6.42,6.42,0,0,0-1.3-1Z" transform="translate(-122.9 -57.2)" fill-rule="evenodd"/>
  <path id="Path_881" data-name="Path 881" d="M623.9,117.6a9.928,9.928,0,0,1-.3-1.5,2.094,2.094,0,0,1,3.1-2c2.3,1,4.7,1.7,7,2.7,1.7.7,3.4,1.5,5,2.3,1.5.7,3,1.4,4.6,2.1,1.1.5,2.2,1.1,3.3,1.6,2.2,1,4.4,1.9,6.5,3,3.9,1.9,7.8,3.9,11.7,5.9,1.2.6,2.6,1.1,3.8,1.7,3.7,1.6,7.4,3.3,11,4.9a12.036,12.036,0,0,1,2.4,1.5,35.146,35.146,0,0,0,6.4,3.3,13.93,13.93,0,0,1,3.8,2.7,1.128,1.128,0,0,1,.3,1.1c-.4.9-.8,1.8-1.3,2.7-1.7,2.6-3.4,5.2-5.2,7.8-1.6,2.3-3.2,4.5-4.8,6.9-.6.8-1,1.8-2.1,2a2.67,2.67,0,0,1-1.8-.3,37.286,37.286,0,0,0-10.9-5.5,22.486,22.486,0,0,1-6-3c-3.7-2.5-7.7-4-11.8-5.6-7.1-2.9-14.4-5.2-21.1-9a70.535,70.535,0,0,0-7.6-3c-1.8-.7-1.8-.8-1.3-2.7,1.6-6.1,3.3-12.2,4.9-18.3.2-.7.3-1,.4-1.3Zm3.8-.3c-.6.3-1.3.5-1.4.9-.8,1.8-1.6,3.6-2.2,5.4-1.2,3.9-2.2,7.9-3.3,11.8-.4,1.5-.4,1.7,1.2,2.4,3.7,1.6,7.3,3.1,11,4.7,4.1,1.8,8.2,3.7,12.4,5.5,5.2,2.2,10.5,4.3,15.6,6.6,5.3,2.5,10.5,5.2,15.8,7.8a2.514,2.514,0,0,0,3.3-.6c3.7-4,6.2-8.9,9.4-13.3a1.227,1.227,0,0,0-.6-2c-1.7-.8-3.3-1.7-5-2.6-1.9-1-3.8-1.9-5.6-2.9-2.8-1.6-5.6-3.3-8.4-4.8-2.4-1.3-4.8-2.3-7.2-3.5-2.1-1-4.1-2.2-6.3-3.2-3.2-1.5-6.4-2.9-9.6-4.3-2.7-1.2-5.3-2.6-8-3.8-1.8-.8-3.7-1.5-5.6-2.2s-3.7-1.3-5.5-1.9Z" transform="translate(-122.9 -57.2)" fill-rule="evenodd"/>
  <path id="Path_882" data-name="Path 882" d="M410.6,57.8c2.6.1,22.2.5,26.1.6,3.2.2,6.5.4,9.7.6,3.4.1,6.8.1,10.2.2h5c1.7.1,2,.8,1.6,2.5a14.078,14.078,0,0,0,.1,2.9c-.1,4.5-.3,8.9-.4,13.4,0,1-.7,1.1-1.5,1.1-3.4-.1-6.7-.3-10.1-.4-4.5-.1-9-.3-13.4-.3-4.8,0-17.9.2-19.6.1H416l-20.1.3c-3.1.1-3.3-.2-3-3.3q.6-5.7.9-11.4c.1-1.7-.1-3.3-.1-5a1.389,1.389,0,0,1,1.6-1.6c2,0,12.3.2,15.3.3Zm-13.4,1.8c-1.2.1-1.7.7-1.7,2,0,3.9-.2,7.7-.4,11.6-.2,3.1-.3,3.2,2.7,3.3,4,.2,8,.1,12.1.1,2.1,0,4.1-.4,6.2-.4,3.1,0,6.1.3,9.2.3,6.8,0,13.6-.3,20.3-.2a109.175,109.175,0,0,1,11.4.8c2.3.2,2.6.3,3.6-1.7a6.687,6.687,0,0,0,.5-1.9c.2-1.6.3-3.2.4-4.9,0-.8-.1-1.5-.1-2.3-.1-1.4-.5-2.8-.2-4.1.1-.8.1-.8-.5-.8-2.9,0-5.8-.1-8.7-.1l-20.1-.6c-5.7-.2-11.4-.5-17.1-.7-5.1-.3-16.7-.5-17.6-.4Z" transform="translate(-122.9 -57.2)" fill-rule="evenodd"/>
  <path id="Path_883" data-name="Path 883" d="M177.8,238.5c-1.5,1.3-20.2,21.7-23.2,25-2.9,3.3-6,6.5-9,9.7-1.8,1.9-3.7,3.7-5.5,5.6-.8.8-1.3.4-1.8-.2-1.2-1.8-2.3-3.7-3.5-5.4-1.5-2.1-3.1-4.1-4.6-6.1-2.5-3.3-5.3-6.3-7.1-10.1a1.283,1.283,0,0,1,.6-1.9c3.2-1.5,5.4-4.2,7.9-6.4,1.8-1.6,26.9-23.6,29.1-25.9a44.433,44.433,0,0,0,4.2-5.5,1.466,1.466,0,0,1,2.6,0,34.8,34.8,0,0,1,3,4.8c1.1,2.1,8.7,15.2,7.3,16.4Zm-38,37.5a9.234,9.234,0,0,0,1.3-.9c2-1.9,4-3.7,5.9-5.7,2.5-2.6,14.4-16.5,18-20.7,3-3.5,6.1-6.8,9.3-10.1,1.4-1.5,1.6-2.3.4-4.1a12.541,12.541,0,0,1-1.6-2.4c-1.3-2.7-5.2-10.6-6-11.7-.4-.6-.8-.5-1.2,0-.7.8-1.3,1.5-2,2.2-1.6,1.6-3.2,3.1-4.9,4.6-2.2,2.1-4.4,4.1-6.6,6.2s-21.7,20-25.9,23.1a1.367,1.367,0,0,0-.2,2.1c1.8,2.3,12.9,16.7,13.5,17.4Z" transform="translate(-122.9 -57.2)" fill-rule="evenodd"/>
  <path id="Path_884" data-name="Path 884" d="M382.1,294.5c-.1,2.5.1,2.7,2.5,2.9h1.5c1.8.1,3.7.1,5.5.3,1.2.1,2.4.4,3.7.4,3.6.1,7.1.1,10.7.2s7.3.3,10.9.6c3.6.2,7.2.6,10.8.8a3.591,3.591,0,0,0,1.8-.2,2.03,2.03,0,0,0,1.1-1.3,23.577,23.577,0,0,0,.2-3.8c0-.7-.2-1.3-1-1.2a1.651,1.651,0,0,0-1,1c-.4,2.3-1.3,3-3.6,2.7-1-.1-2-.1-3-.1-3.2-.1-6.3-.1-9.5-.3-3.9-.1-7.8-.3-11.7-.4-1.2,0-2.5,0-3.7-.1-3.8-.4-7.5-.9-11.3-1.4a1.735,1.735,0,0,1-1.7-1.6c-.1-.4.1-1-.1-1.3a2.151,2.151,0,0,0-1.5-1c-.8-.1-1.2.5-1.1,1.3a12.29,12.29,0,0,1,.5,2.5Zm.9-31.4a2.164,2.164,0,0,0,2.3-2.1c-.1-1.1-.6-2.1-1.9-2.1a2.309,2.309,0,0,0-2.3,2.2A2.06,2.06,0,0,0,383,263.1Z" transform="translate(-122.9 -57.2)" fill="none"/>
  <path id="Path_885" data-name="Path 885" d="M608.3,215.1c-.3-6.5-1.5-11.3-4.8-15.2a18.958,18.958,0,0,0-13.8-7.1c-2.8-.1-5.6-.9-8.5.1a28.431,28.431,0,0,0-6.5,3.3c-3,2.2-5.7,4.4-7.7,7.7a37.758,37.758,0,0,0-4.8,12c-.3,1.6-.9,3.2-.7,4.7a73.126,73.126,0,0,0,1.8,7.8,3.379,3.379,0,0,0,.6,1.2c1.3,1.8,2.3,3.8,4.1,5.2,2.3,1.8,4.4,3.8,6.6,5.7a1.136,1.136,0,0,0,.8.3c2.8.4,5.5.9,8.3,1.1,3.4.3,6.9.2,10-1.6a46.312,46.312,0,0,0,7.6-4.8c1.9-1.6,3.7-3.2,4.4-5.7a42.071,42.071,0,0,0,1.6-6.1c.5-3.1.8-6.5,1-8.6Z" transform="translate(-122.9 -57.2)" fill="none"/>
  <path id="Path_886" data-name="Path 886" d="M329.9,478.3c1.1,0,3.5-2,3.5-3.1a11.925,11.925,0,0,1,2-6,60.157,60.157,0,0,0,2.8-5.7c.7-1.6.1-2.4-1.7-2.4-1.3.1-2.6.1-3.8.3a1.75,1.75,0,0,1-2.2-1.5c-.4-1.6-.9-3.2-1.4-4.8s-1.7-2-3.2-1.2a10.985,10.985,0,0,1-1.4.9,48.165,48.165,0,0,1-5.2,1.1c-2.2.2-2.9,1.2-2.1,3.2a54.4,54.4,0,0,1,1.9,5.7,2.615,2.615,0,0,1-1.1,3,12.666,12.666,0,0,0-1.3,1.1c-1.8,1.6-1.4,3.5.8,4.4,2.1.8,4.2,1.5,6.2,2.4,1.7.7,3.2,1.7,4.9,2.5a5.7,5.7,0,0,1,1.3.1Zm12.7,4.9c-.7-1.6-1.2-3.1-1.9-4.5a1.766,1.766,0,0,0-2.5-.6c-.8.4-1.6.9-2.4,1.2-3.3,1.2-6.7,2.5-10.1,3.6-2.1.7-4.3,1.3-6.4,1.9-1.3.4-2.2,1.4-1.8,2.5.8,2.1,1.8,4.1,2.8,6.1a1.245,1.245,0,0,0,1.8.6c2.9-1.5,6-2.7,8.8-4.5a70.86,70.86,0,0,1,10.4-5c.4-.1.8-.7,1.3-1.3Z" transform="translate(-122.9 -57.2)" fill="none"/>
  <path id="Path_887" data-name="Path 887" d="M332.8,436.2c.4,1.9-.7,2.7-2.2,3.5-4.2,2.2-8.4,4.4-12.6,6.7-2.7,1.5-5.4,3-8,4.7-4,2.5-7.9,5.1-11.8,7.8a2.463,2.463,0,0,1-2.2.2c-2.5-.6-3.6-2.6-3.9-4.8a94.85,94.85,0,0,0-3.9-14.8c-.8-2.5-1.3-5.1-2.1-7.6a2.218,2.218,0,0,1,1.3-2.9c5.1-2.5,10.2-5.2,15.8-6.5a6.529,6.529,0,0,0,1.7-.8c3.8-2,8.1-2.6,12.2-3.7a84.954,84.954,0,0,0,9.6-3.5c1.9-.8,2-.8,2.4,1.2.9,5,1.9,9.9,2.7,14.9.5,1.9.7,3.8,1,5.6Z" transform="translate(-122.9 -57.2)" fill="none"/>
  <path id="Path_888" data-name="Path 888" d="M279,418.5c0,2.7-.3,3.1-2.8,4a29.923,29.923,0,0,1-3.2,1c-.9.3-1.5.7-1.3,1.8.9,6.5,1.1,13.1,2.7,19.6a16.053,16.053,0,0,1,0,3.1,20.036,20.036,0,0,1-2.6-1c-2.3-1.1-4.6-2.3-7-3.3a3.246,3.246,0,0,1-2.1-3.2c-.1-4.6-.4-9.3-.6-13.9-.2-4.2-.4-8.5-.7-12.7-.1-2.1-.2-2.1,1.7-2.8,2.9-1,5.8-1.9,8.8-2.8,1.2-.4,2.3-.8,3.5-1.2,1.8-.6,1.8-.5,2.1,1.3.2,2.1.4,4.2.7,6.3.2,1.2.5,2.5.8,3.8Z" transform="translate(-122.9 -57.2)" fill="none"/>
  <path id="Path_889" data-name="Path 889" d="M260.4,429v9.9a4.869,4.869,0,0,1-.1,1.2c0,.9-.4,1.3-1.3.8-1.7-.9-3.4-1.9-5.1-2.8a28.065,28.065,0,0,0-5.2-2.6c-3.1-.8-5.4-3-8.1-4.3-1.3-.6-2.5-1.6-3.8-2.1a6.084,6.084,0,0,1-4-4.1,1.208,1.208,0,0,1,.6-1.7c1.7-.7,3.4-1.5,5.1-2.2,6.3-2.5,12.6-5,18.9-7.6,1.8-.7,1.8-.7,1.9,1.2.3,4.6.7,9.1,1.1,14.3Z" transform="translate(-122.9 -57.2)" fill="none"/>
  <path id="Path_890" data-name="Path 890" d="M277.1,446.9c-.3-1.6-.7-3.1-1-4.7-.6-3.2-1.2-6.5-1.7-9.7-.2-1.3-.2-2.7-.3-4a3.089,3.089,0,0,1,1.8-3.3,71.228,71.228,0,0,1,7.6-3.1c4.2-1.4,8.5-2.4,12.7-3.7,1.2-.4,2.3-1.1,3.5-1.6,1.4-.6,1.6-.5,1.9,1,.4,2.6.4,2.6-2.1,3.6-3.4,1.4-6.7,2.9-10,4.3-1.8.8-3.4,2-5.5,1.7-1-.1-1.6,1.4-1.2,2.6,1.6,5.4,3.3,10.8,4.8,16.2.8,2.7,1.4,5.4,2.1,8.1.3,1.4,0,1.8-1.3,1.2-3.5-1.6-7-3.4-10.5-5.2C276.7,449.5,276.8,448.2,277.1,446.9Z" transform="translate(-122.9 -57.2)" fill="none"/>
  <path id="Path_891" data-name="Path 891" d="M332.6,421.1c-.2-.9.2-.9.9-.7,4.2,1,8.5,1.8,12.7,2.9a22.182,22.182,0,0,1,4.8,2c1.2.6,1.2,1,.1,1.7-4.9,3.1-9.8,6.1-14.7,9.1-.7.5-1.1.3-1.3-.5-.6-3.1-1.3-6.2-1.9-9.3C332.9,424.5,332.8,422.8,332.6,421.1Z" transform="translate(-122.9 -57.2)" fill="none"/>
  <path id="Path_892" data-name="Path 892" d="M279.6,410.3v-1c0-1,.4-1.5,1.5-1.2,3.4.8,6.8,1.7,10.2,2.6,2.4.6,4.8,1.2,7.1,1.8a11.086,11.086,0,0,1,1.9.9c-.5.4-.9,1.1-1.4,1.3-3.2,1.2-6.5,2.3-9.8,3.4-2,.7-4,1.2-5.9,1.8-1.6.5-1.9.4-2.2-1.1-.6-2.9-1-5.7-1.4-8.5h0Z" transform="translate(-122.9 -57.2)" fill="none"/>
  <path id="Path_893" data-name="Path 893" d="M303.6,416.3c.1-1.4.4-1.8,1.7-1.6,2.7.4,5.4,1,8.2,1.5.1,0,.2.2.4.3a.758.758,0,0,1-.4.2c-2.7.9-5.4,1.7-8,2.6-.9.3-1.4.3-1.4-.8-.1-.8-.4-1.5-.5-2.2Z" transform="translate(-122.9 -57.2)" fill="none"/>
  <path id="Path_894" data-name="Path 894" d="M445.1,158a16.242,16.242,0,0,0-.2,1.8c-.1,2,.3,2.3,2.2,2a9.255,9.255,0,0,1,2.3-.4c1.7,0,3.6-.2,5.1.4a50.3,50.3,0,0,1,6,3.3c1.5.8,3.1,1.6,4.6,2.3a1.11,1.11,0,0,0,1.6-.8,6.447,6.447,0,0,0,.3-2c-.2-3.7-.4-7.4-.6-11-.1-1.5,0-3,0-4.5,0-1.2.1-2.3,0-3.5-.2-3.4-.9-6.8-.5-10.3.1-.5-.2-1.3-.5-1.4a2.763,2.763,0,0,0-2.2.1c-2.1,1.5-4.1,3.2-6.1,4.9a19.283,19.283,0,0,1-11.2,4.6c-1.6.1-2,.5-2,2a20.9,20.9,0,0,0,.1,2.5c.4,3.5.8,6.9,1.1,10Zm30.1-6.2a8.509,8.509,0,0,0-1.4.9c.3.4.4.9.8,1.2,1.4,1,2.7,1.9,4.2,2.8,1.1.7,2.3,1.2,3.4,1.8.8.4,1.3-.1,1.6-.7.3-.7,0-1.1-.7-1.4-1.4-.7-2.8-1.6-4.1-2.4-1.4-.8-2.6-1.4-3.8-2.2Zm-.4-4.6c.4,0,.5,0,.6-.1a63.174,63.174,0,0,0,6-2.5,1.583,1.583,0,0,0,.6-2.2c-.6-1-1.4-.4-2-.1l-5.4,3.3a2.7,2.7,0,0,0-.7.8A3.006,3.006,0,0,0,474.8,147.2Z" transform="translate(-122.9 -57.2)" fill="none"/>
  <path id="Path_895" data-name="Path 895" d="M196.9,332.3a2.658,2.658,0,0,0,2.2-2,5.918,5.918,0,0,1,.5-1.9c1.5-2.6,3-5.1,4.6-7.6.7-1.2,1.8-2.1,2.6-3.3.3-.4.2-1,.3-1.5a6.752,6.752,0,0,0-1.4-.2c-.2,0-.3.3-.5.5-3.1,4.8-6.3,9.6-9.4,14.4-.4.6.3,1.6,1.1,1.6Zm3.3,5.7c.7-.9,1.3-1.5,1.8-2.3a13.552,13.552,0,0,1,1-2.1c1.7-2.6,3.4-5.2,5.2-7.8a1.8,1.8,0,0,0,.4-.9c0-.4-.1-1-.4-1.1a2.234,2.234,0,0,0-1.4,0,2.259,2.259,0,0,0-.8,1.1l-3.9,6.6c-.7,1.2-1.7,2.2-2.4,3.4a4.477,4.477,0,0,0-.4,2c0,.2.4.5.9,1.1Zm11-3.7c-.6-.3-1.1-.8-1.5-.8a2.9,2.9,0,0,0-1.5.9c-2.1,3.2-3.9,6.6-6.6,9.4a2.229,2.229,0,0,0,0,2.1c.6.8,1.4.3,2-.3a4.494,4.494,0,0,0,.6-1.2,15.956,15.956,0,0,1,1-2.3c1.6-2.2,3.3-4.4,4.9-6.6A3.261,3.261,0,0,0,211.2,334.3Z" transform="translate(-122.9 -57.2)" fill="none"/>
  <path id="Path_896" data-name="Path 896" d="M283.7,138.2c-1.2.3-1,.9-.7,1.6.9,2.4,1.7,4.9,2.6,7.4a4.053,4.053,0,0,0,.5.9c.4.5.9,1.1,1.7.6.7-.5.7-1.1.3-1.9-.6-1.3-1.1-2.7-1.7-4.1a35.921,35.921,0,0,0-1.7-3.4c-.3-.6-.8-.8-1-1.1Z" transform="translate(-122.9 -57.2)" fill="none"/>
  <path id="Path_897" data-name="Path 897" d="M666.4,140.8c.3-.2.9-.5,1-.9a1.371,1.371,0,0,0-.6-1.3,20.169,20.169,0,0,0-3.6-1.8c-1.6-.6-2.2-.3-2.9,1.2-1.2,2.4-2.3,4.8-3.5,7.2a1.951,1.951,0,0,0,.7,2.8,56.974,56.974,0,0,0,5.4,3,1.634,1.634,0,0,0,2.3-1c.2-1.1-.7-1.1-1.4-1.5a20.743,20.743,0,0,1-3.2-1.9,2.919,2.919,0,0,1-.5-1.4,8.33,8.33,0,0,1,1.5-.4,11.27,11.27,0,0,1,1.8.3c.9,0,1.4-.6,1-1.4a2.342,2.342,0,0,0-1.2-1.2c-.7-.3-1-.6-.7-1.4s.6-1.3,1.6-.9c.7.2,1.4.3,2.3.6ZM655.9,138c-.1-3.8-3.6-6.7-7-6a2.072,2.072,0,0,0-1.3.9c-1,2.2-1.9,4.5-2.7,6.8a1.788,1.788,0,0,0,.4,1.7,5.392,5.392,0,0,0,6.8,1.3A7.348,7.348,0,0,0,655.9,138Zm22.7,10.7h0a7.57,7.57,0,0,0-.1-1.5c-.3-1.8-2.9-3.2-4.5-2.1a10.853,10.853,0,0,0-4.4,4.6,4.044,4.044,0,0,0,.5,4.5,3.563,3.563,0,0,0,4.5,1c3.1-1.2,4.6-2.9,3.9-6.1A.6.6,0,0,0,678.6,148.7Zm-45.6-25h.3a8.523,8.523,0,0,0-.3-2.3c-.2-.4-.8-1-1.2-.9-.5.1-.9.7-1.3,1.1a1.146,1.146,0,0,0-.1,1c.9,3.4.1,6.7-.2,10.1,0,.5.2,1.4.5,1.5a2.273,2.273,0,0,0,1.8-.3c2.1-2,3.8-4.4,6.4-5.9l.2-.2c.6-.7.5-1.2-.3-1.6-1.1-.7-1.8-.4-2.8.8-.7.8-1.5,1.6-2.3,2.4-.6.5-.9.4-.9-.4a46.951,46.951,0,0,0,.2-5.3Zm6,13.1c.4.3.8.9,1.3,1,.8.1,1.5-.1,1.6-1.2a30.291,30.291,0,0,1,.6-3.2c.3-1.4.7-2.7.9-4.1.1-.4-.4-1.2-.7-1.2a5.227,5.227,0,0,0-1.6.6c-.1.1-.1.4-.1.6-.4,1.7-.9,3.4-1.4,5.2a7.843,7.843,0,0,1-.6,2.3Z" transform="translate(-122.9 -57.2)" fill="none"/>
  <path id="Path_898" data-name="Path 898" d="M414.6,59.9c5.7.2,11.4.5,17.1.7l20.1.6c2.9.1,5.8.1,8.7.1.6,0,.6,0,.5.8a18.8,18.8,0,0,0,.2,4.1,17.7,17.7,0,0,1,.1,2.3c-.1,1.6-.2,3.2-.4,4.9a5.919,5.919,0,0,1-.5,1.9c-1,2-1.3,2-3.6,1.7-3.8-.4-7.6-.7-11.4-.8-6.8-.1-13.6.2-20.3.2-3.1,0-6.1-.3-9.2-.3-2.1,0-4.1.3-6.2.4-4,0-8,0-12.1-.1-3-.1-2.9-.2-2.7-3.3.2-3.8.4-7.7.4-11.6m18.4,11.6c-.3-.5-.4-.9-.6-1.2a15.1,15.1,0,0,1-.9-1.8c-.7-2-1.4-4.1-2-6.2-.2-.8-.5-1.2-1.4-1a1.3,1.3,0,0,0-1.2,1.5,6.313,6.313,0,0,1-2.1,4.2,16.6,16.6,0,0,0-1.6,2.1c-.4.5-.6,1.2-1,1.6-.6.6-.8,1.1-.1,1.7.7.7,1.3.4,1.8-.3.4-.5.7-1,1.1-1.5.9-1.3,2.4-1.4,3.8-1.4,1.2,0,.8,1.4,1.2,2.1.1.2.1.5.2.6.5.4,1.1,1,1.5.9.4,0,.9-.8,1.3-1.3Zm11.7-2.6h-.1c0,.5-.1,1-.1,1.5,0,1.1.6,1.9,1.6,1.9,4.2.2,6.4-1.8,6.5-6,0-.2.1-.3,0-.5-.1-2.4-1.4-3.8-3.3-3.4a19.979,19.979,0,0,1-3.5.2c-1.8,0-2,.2-1.8,2,.2,1.4.4,2.8.7,4.3Zm17.4-1.4a19.978,19.978,0,0,0,.3,2.9,2.379,2.379,0,0,0,.9,1.3,3.656,3.656,0,0,0,5.4-1.2c.2-.3.6-.6.7-.9a23,23,0,0,0,1.4-4.2,2.9,2.9,0,0,0-1.1-2.4c-2.9-1.4-5.2-1.4-6.8,2a7.18,7.18,0,0,0-.8,2.5Zm-22.7-1.3a13.333,13.333,0,0,1,0,2,9.384,9.384,0,0,1-.6,1.5c-.3-.5-.8-1-.8-1.5a26.7,26.7,0,0,1,0-4c.1-.9-.1-1.5-1.1-1.5-.9,0-1.3.5-1.3,1.4a24.517,24.517,0,0,0,.2,2.7,24.928,24.928,0,0,0,.9,4.6c.2.6,1,1.5,1.5,1.5a5.244,5.244,0,0,0,2.1-1.3,1.489,1.489,0,0,0,.4-.9c.3-2.3.7-4.5.9-6.8,0-.3-.6-1-1-1s-1.1.5-1.1.8a10.478,10.478,0,0,0-.1,2.5Zm17,2.9h-.2v1c0,1,.4,1.7,1.4,1.7s1.1-1,1-1.8c-.3-2.1-.6-4.2-1-6.3a1.761,1.761,0,0,0-1.3-.9c-.4.1-.8.8-1,1.3-.1.2.2.6.3.9.3,1.4.5,2.8.8,4.1Z" transform="translate(-122.9 -57.2)" fill="none"/>
  <path id="Path_899" data-name="Path 899" d="M160.4,233.6a13.069,13.069,0,0,1,1.2,1.1c1.1,1.7,2.1,3.4,3.1,5.1a2.486,2.486,0,0,0,1.2,1.1c.3.1,1.1-.4,1.1-.7a2.793,2.793,0,0,0-.5-1.7c-.8-1.1-1.7-2.2-2.6-3.3-.6-.8-1.7-1.8-1.6-2.6.1-.9,1.2-1.7,1.9-2.6.1-.1.2-.2.2-.3a1.185,1.185,0,0,0,.1-.8,1.234,1.234,0,0,0-.8-.4,2.1,2.1,0,0,0-1.1.4c-2.2,1.4-4.4,2.9-6.6,4.3-.7.5-.5,1.1.1,1.3a3.128,3.128,0,0,0,1.9-.1c.9.1,1.5-.4,2.4-.8Z" transform="translate(-122.9 -57.2)" fill="none"/>
  <g id="Group_54" data-name="Group 54" transform="translate(-122.9 -57.2)">
    <path id="Path_900" data-name="Path 900" d="M382.1,294.5c-.1-.8-.3-1.5-.4-2.3s.3-1.4,1.1-1.3a3.6,3.6,0,0,1,1.5,1c.2.3.1.9.1,1.3a1.666,1.666,0,0,0,1.7,1.6c3.8.4,7.5.9,11.3,1.4,1.2.1,2.5,0,3.7.1,3.9.1,7.8.3,11.7.4,3.2.1,6.3.2,9.5.3,1,0,2,0,3,.1,2.3.3,3.2-.4,3.6-2.7.1-.4.6-1,1-1,.8-.1,1,.5,1,1.2-.1,1.3,0,2.6-.2,3.8a2.3,2.3,0,0,1-1.1,1.3,5.245,5.245,0,0,1-1.8.2c-3.6-.3-7.2-.6-10.8-.8s-7.3-.5-10.9-.6-7.1-.1-10.7-.2c-1.2,0-2.4-.4-3.7-.4-1.8-.1-3.7-.2-5.5-.3h-1.5c-2.5-.4-2.7-.7-2.6-3.1Z" fill-rule="evenodd"/>
    <path id="Path_901" data-name="Path 901" d="M383,263.1a2.142,2.142,0,0,1-1.9-2,2.242,2.242,0,0,1,2.3-2.2,2.005,2.005,0,0,1,1.9,2.1A2.164,2.164,0,0,1,383,263.1Z" fill-rule="evenodd"/>
    <path id="Path_902" data-name="Path 902" d="M435,256.8c1.4.1,1.5,1.6,1.6,2.3.2,1-1.1,2.1-2.1,2a2.139,2.139,0,0,1-1.8-2A2.06,2.06,0,0,1,435,256.8Z" fill-rule="evenodd"/>
    <path id="Path_903" data-name="Path 903" d="M608.3,215.1c-.2,2.1-.5,5.4-1,8.8-.3,2.1-1.7,8.4-6,11.8a28.087,28.087,0,0,1-17.7,5.6c-6-.3-12.3-2.5-15.5-6.4-3.1-3.9-6.8-7.8-6.1-15.2a33.236,33.236,0,0,1,5.1-15.7c2-3.3,4.7-5.5,7.7-7.7a22.148,22.148,0,0,1,6.5-3.3c2.9-1,5.7-.2,8.5-.1,5.7.2,10.2,2.8,13.8,7.1,3.2,3.9,4.4,8.7,4.7,15.1Zm-41.6,14.2c3.4,6.5,9.5,9.6,18.7,10a17.942,17.942,0,0,0,5.6-.7c3.8-.8,8.8-4.5,10.1-6.3a26.893,26.893,0,0,0,2.7-5.7,29.075,29.075,0,0,0,1.8-6.4,47,47,0,0,0,.2-7.5c-.5-6.4-3-11.7-8.5-15.2a21.582,21.582,0,0,0-10.1-2.9c-5.4-.4-9.8,1.7-13.6,5.1-2,1.8-7.3,8.5-8.4,15.1-1.3,7.1-1.9,8.1,1.5,14.5Z" fill-rule="evenodd"/>
    <path id="Path_904" data-name="Path 904" d="M329.9,478.3a5.019,5.019,0,0,1-1.2-.2c-1.6-.8-3.2-1.8-4.9-2.5a66.221,66.221,0,0,0-6.2-2.4c-2.2-.8-2.6-2.7-.8-4.4.4-.4.9-.7,1.3-1.1a2.76,2.76,0,0,0,1.1-3c-.6-1.9-1.2-3.8-1.9-5.7-.8-2-.2-3,2.1-3.2a30.03,30.03,0,0,0,5.2-1.1c.5-.1.9-.6,1.4-.9a2.04,2.04,0,0,1,3.2,1.2c.5,1.6.9,3.2,1.4,4.8a1.75,1.75,0,0,0,2.2,1.5,25.312,25.312,0,0,1,3.8-.3c1.8-.1,2.4.7,1.7,2.4a60.164,60.164,0,0,1-2.8,5.7,11.615,11.615,0,0,0-2,6c-.1,1.2-2.5,3.2-3.6,3.2Zm-.3-3.3a7.3,7.3,0,0,0,1-.9c.7-1.4,1.2-2.9,1.8-4.3.7-1.5,1.4-3,2-4.6a4.819,4.819,0,0,0,0-1.2,6.533,6.533,0,0,0-1.4,0,11.084,11.084,0,0,0-2.5.5c-1.1.3-1.6-.3-1.9-1.2l-.6-2.1c-.3-1.1-.5-2.2-.7-3.3-.2-.8-.6-1.2-1.5-1-1.8.4-3.6.9-5.4,1.4-.8.2-1,.7-.5,1.5a7.164,7.164,0,0,1,.8,2.2,23.674,23.674,0,0,0,1.3,3.4c.7,1.3.7,2-.5,2.9-.6.5-1.4,1-2,1.5-1,.8-1,.9.2,1.5,1,.5,2,.8,2.9,1.2,2.3.7,4.4,1.5,7,2.5Z" fill-rule="evenodd"/>
    <path id="Path_905" data-name="Path 905" d="M342.6,483.2c-.5.6-.9,1.2-1.4,1.4a66.3,66.3,0,0,0-10.4,5c-2.7,1.8-5.8,3-8.8,4.5a1.222,1.222,0,0,1-1.8-.6c-1-2-2-4-2.8-6.1-.4-1.1.5-2.1,1.8-2.5,2.1-.6,4.3-1.2,6.4-1.9,3.4-1.1,6.7-2.4,10.1-3.6.8-.3,1.6-.8,2.4-1.2a1.766,1.766,0,0,1,2.5.6,26.087,26.087,0,0,1,2,4.4Zm-3.1-.6c-.1-1.1-.5-1.6-1.3-1.5-1,.2-2.1.5-3.1.8-3.7,1.3-7.4,2.6-11.1,3.8-1.1.4-2.2.5-3.2.9a1.589,1.589,0,0,0-.8,1,30.9,30.9,0,0,0,1.4,3.2c.3.7.8.6,1.4.3,1.6-.8,3.3-1.6,4.9-2.4,3.5-1.6,7-3.2,10.4-4.9a8.7,8.7,0,0,0,1.4-1.2Z" fill-rule="evenodd"/>
    <path id="Path_906" data-name="Path 906" d="M445.1,158c-.3-3.1-.7-6.6-1.1-10a20.9,20.9,0,0,1-.1-2.5c0-1.5.4-1.9,2-2a20.251,20.251,0,0,0,11.2-4.6c2-1.7,4-3.4,6.1-4.9.5-.4,1.5-.2,2.2-.1.3.1.5.9.5,1.4-.4,3.5.3,6.9.5,10.3.1,1.2,0,2.3,0,3.5,0,1.5-.1,3,0,4.5.2,3.7.4,7.4.6,11a6.93,6.93,0,0,1-.3,2,1.086,1.086,0,0,1-1.6.8,39.469,39.469,0,0,1-4.6-2.3,50.3,50.3,0,0,0-6-3.3c-1.5-.6-3.4-.4-5.1-.4a18.459,18.459,0,0,0-2.3.4c-1.9.3-2.1-2.9-2-3.8Zm18.7-20.8c-.1-.8-.5-.8-1-.4-2.5,2-5.1,4-7.6,6.1-1.4,1.2-1.8,1.5-4.6,2a12.306,12.306,0,0,0-3.3.3c-1,.1-1.3.7-1.2,1.8.3,2.9.5,5.8.7,8.7s.9,3.4,3.8,3.2a15.037,15.037,0,0,1,3,0,2.815,2.815,0,0,1,1.5.6c2.5,1.5,5,3.1,7.6,4.5,1.1.6,1.7.2,1.6-1.1,0-.6-.1-1.1-.1-1.7V149a114.12,114.12,0,0,0-.4-11.8Z" fill-rule="evenodd"/>
    <path id="Path_907" data-name="Path 907" d="M475.2,151.8c.5.3,2.5,1.4,3.7,2.1,1.4.8,2.7,1.7,4.1,2.4.7.3,1,.7.7,1.4s-.7,1.2-1.6.7c-1.1-.6-2.3-1.1-3.4-1.8-1.4-.9-2.8-1.8-4.2-2.8-.3-.3-.8-.3-.8-1.2a1.045,1.045,0,0,1,1.5-.8Z" fill-rule="evenodd"/>
    <path id="Path_908" data-name="Path 908" d="M474.8,147.2c-.2-.1-1.1-.1-1-.7s.4-.6.7-.8l5.4-3.3c.7-.4,1.4-.9,2,.1a1.509,1.509,0,0,1-.6,2.2,63.174,63.174,0,0,1-6,2.5Z" fill-rule="evenodd"/>
    <path id="Path_909" data-name="Path 909" d="M196.9,332.3a1.245,1.245,0,0,1-1.1-1.7c3.1-4.8,6.3-9.6,9.4-14.4.1-.2.3-.5.5-.5a6.752,6.752,0,0,1,1.4.2c-.1.5,0,1.1-.3,1.5-.8,1.1-1.8,2.1-2.6,3.3-1.6,2.5-3.1,5-4.6,7.6a6.686,6.686,0,0,0-.5,1.9,2.643,2.643,0,0,1-2.2,2.1Z" fill-rule="evenodd"/>
    <path id="Path_910" data-name="Path 910" d="M200.2,338c-.5-.5-.9-.8-.9-1.1a3.444,3.444,0,0,1,.4-2c.7-1.2,1.7-2.2,2.4-3.4,1.4-2.2,2.6-4.4,3.9-6.6a2.258,2.258,0,0,1,.8-1.1,1.708,1.708,0,0,1,1.4,0c.2.1.3.7.4,1.1a1.8,1.8,0,0,1-.4.9c-1.7,2.6-3.5,5.2-5.2,7.8-.4.6-.5,1.5-1,2.1-.5.7-1.1,1.4-1.8,2.3Z" fill-rule="evenodd"/>
    <path id="Path_911" data-name="Path 911" d="M211.2,334.3c-.5.6-.7,1-1,1.3-1.6,2.2-3.3,4.3-4.9,6.6a9.432,9.432,0,0,0-1,2.3,4.5,4.5,0,0,1-.6,1.2c-.6.5-1.4,1.1-2,.3a2.229,2.229,0,0,1,0-2.1c2.7-2.8,4.5-6.2,6.6-9.4a2.016,2.016,0,0,1,1.5-.9C210.2,333.5,210.6,334,211.2,334.3Z" fill-rule="evenodd"/>
    <path id="Path_912" data-name="Path 912" d="M262.8,223.2a67.88,67.88,0,0,0,.7,8.2c.4-.3,4.8-8.4,6.6-11.2,1.5-2.4,3.1-4.8,4.7-7.2a1.644,1.644,0,0,1,1.2-.8,26.986,26.986,0,0,1,4.1.6c1.5.4,1.9,1.6,1.3,3.1-1.8,3.9-9.8,19.6-11.9,23.6a30.39,30.39,0,0,0-1.9,4.5,3.88,3.88,0,0,0,.2,2.1c.3.9.1,1.5-.9,1.8-1.9.5-3.9,1.1-5.8,1.7a1.194,1.194,0,0,1-1.6-.8c-.4-1.1-.9-2.3-1.2-3.4-1.2-4.3-2.3-8.6-3.5-12.9-.4-1.6-1-3.1-1.5-4.6-.1-.4-.4-1-.2-1.3.4-3,1.5-10,1.7-10.4.4-1.1,1.2-1.3,2-.4,1.1,1.2,2.1,2.5,3.2,3.7.8.9,1.6,1.8,2.4,2.8a1.489,1.489,0,0,0,.4.9Zm1.2,11.4c.6,2,1.2,4.1,1.8,6.1.1.3.4.5.5.8.3-.3.7-.5.8-.8.4-.9.6-1.8,1.1-2.7,2.1-4.2,5-7.9,6.7-12.3,1.2-3.2,2.8-6.3,4.2-9.5.1-.3.3-.8.2-1-.7-1.3-3-1.1-3.8.1-1.6,2.5-3.2,4.9-4.8,7.4-.5.8-.9,1.5-1.4,2.3-1.6,2.8-3.2,5.6-4.8,8.5a11.731,11.731,0,0,0-.5,1.1Zm1,11.6s-1.1-3.5-1.3-4.2a76.513,76.513,0,0,1-2.8-14.1c-.1-1.1.1-2.5-.8-2.6s-3.3,1-3.7,1.2c-1.6.5-1.2,1.2-.7,2.9a27.588,27.588,0,0,1,.8,2.7c.9,3.2,1.7,6.4,2.6,9.5.4,1.4.6,4.1,1.1,5.4.4,1,1.7-.1,2.6-.2a21.953,21.953,0,0,0,2.2-.6Zm-9.6-24a23.554,23.554,0,0,0-.1,2.5c.7-.4,3.8-1.1,4.4-1.6a9.435,9.435,0,0,0-1.2-2c-.5-.6-2.1-3.2-2.6-3.1s-.5,4.2-.5,4.2Z" fill-rule="evenodd"/>
    <path id="Path_913" data-name="Path 913" d="M254,154.4c-.4.7-1.2,1.6-1.6,2.3a26.722,26.722,0,0,1,2.6.9,16.671,16.671,0,0,0,2,.8,1.3,1.3,0,0,1,.8,1.9c-.3.9-1,.5-1.7.3-1.4-.5-2.7-1-4.1-1.5-1-.3-1.3.2-.9,1,.3.8.8,1.6,1.2,2.4.3.6,1.1,1.2.1,1.8a1.824,1.824,0,0,1-2.4-.8c-.5-1.2-1-2.4-1.4-3.6-.8-2-1.5-4.1-2.3-6.1a1.689,1.689,0,0,1,.8-2.4,40.735,40.735,0,0,1,4.5-2.1c.9-.3,3.4,3.1,2.4,5.1Zm-1.8-.8c0-.2-.7-1.6-1.2-1.7a6.006,6.006,0,0,0-2.6,1s.8,2.4,1.7,2.2C250.9,155.1,251.5,154.2,252.2,153.6Z" fill-rule="evenodd"/>
    <path id="Path_914" data-name="Path 914" d="M231.8,162.2c.1-2.1,2.9-5.7,4.9-6.1.4-.1,1.1.4,1.4.8.1.2-.3.9-.6,1.3-.2.2-.6.2-.9.4a4.465,4.465,0,0,0-2.6,4.5,5.208,5.208,0,0,0,4.2,4.3c.8.1,3.5-1.7,3.4-2.5a4.248,4.248,0,0,0-1-1.7c-.4-.6-1.4-1.1-1.3-1.6.1-.9,3.1-2.1,3.7-2.1a2.3,2.3,0,0,1,1.4.9c.2.4-1,.9-1.4,1-1.6.2.6,1.5.7,2.2a5.023,5.023,0,0,1-.2,2.1,5.9,5.9,0,0,1-7.2,3.8,4.329,4.329,0,0,1-1.2-.5c-1.4-1.2-3.4-4.6-3.3-6.8Z" fill-rule="evenodd"/>
    <path id="Path_915" data-name="Path 915" d="M296.8,145.9c-.2.3-1.8,1.4-2.1,1-1.1-1.8-2.8-5.5-3.8-7.4a16.528,16.528,0,0,1-1.4-2.6c-.2-.4,1.4-1.4,1.6-1.1a10.049,10.049,0,0,1,1.6,2.4c.5,1,1,.9,1.6.2.8-.9,1.6-1.9,2.4-2.8a10.632,10.632,0,0,1,1.5-1.5c.3-.3,1.6.8,1.4,1.3s-.7.8-1.1,1.2c-.7.8-1.3,1.5-2,2.3-1.2,1.5-1.2,1.5.7,1.9,1.4.3,2.8.4,4.1.7,1.2.2.5,2.5-.3,2.4-1.2-.2-4.3-.5-5.5-.8-.8-.3.8,1.3,1.3,2.8Z" fill-rule="evenodd"/>
    <path id="Path_916" data-name="Path 916" d="M260.2,156.6c.2-1.8.5-3.5.7-5.3.1-1.2,0-2.3.1-3.5.1-.6-.2-1.8.8-1.9,2.2,0,4.4,4.3,5.6,5.9A11.223,11.223,0,0,0,269,154c.6.5.8,1,.3,1.6a1.052,1.052,0,0,1-1.7.3c-.6-.5-1.1-1.2-1.8-1.8-.4-.4-1.1-1-1.4-.8a4.423,4.423,0,0,0-2,1.5c-.4.8.6,4.1-1.1,4.2C259.7,159.2,260.3,157,260.2,156.6Zm2.7-4.9c.3-.3,1.5-.3,1.6-.5a11.516,11.516,0,0,0-1.8-2.7,11.964,11.964,0,0,0,.2,3.2Z" fill-rule="evenodd"/>
    <path id="Path_917" data-name="Path 917" d="M277.7,140a3.806,3.806,0,0,1,.5,1.5c0,.3-3.5,1.8-4.8,2.4-.1.1.7,1.7.9,1.6a23.405,23.405,0,0,1,2.4-.9c.6-.1,1,1.1.8,1.5a2.407,2.407,0,0,1-.8.6c-1.7,1.2-1.7,1.2-.8,3.2.1.2.7,1.5.7,1.6-.2.7-1.5,1.8-2,.9-1.2-2.2-2.7-5.7-3.9-7.9-.3-.6-.5-1.3.3-1.7,1.8-.9,3.6-1.7,5.5-2.5a6.805,6.805,0,0,1,1.2-.3Z" fill-rule="evenodd"/>
    <path id="Path_918" data-name="Path 918" d="M283.7,138.2c.9-.2,2.1,3.2,2.6,4.4.6,1.4,1.1,2.8,1.7,4.1.3.8.4,1.4-.3,1.9-.8.6-1.2-.1-1.7-.6a1.934,1.934,0,0,1-.5-.9c-.9-2.5-1.7-4.9-2.6-7.4A1.046,1.046,0,0,1,283.7,138.2Z" fill-rule="evenodd"/>
    <path id="Path_919" data-name="Path 919" d="M666.4,140.8c-1-.2-1.7-.4-2.4-.6-1-.4-1.3.2-1.6.9-.3.8-.1,1.1.7,1.4a2.342,2.342,0,0,1,1.2,1.2c.4.8-.1,1.4-1,1.4-.6,0-1.2-.3-1.8-.3a4.191,4.191,0,0,0-1.5.4c.2.5.2,1.2.5,1.4a20.74,20.74,0,0,0,3.2,1.9c.7.3,1.6.4,1.4,1.5a1.554,1.554,0,0,1-2.3,1,46.816,46.816,0,0,1-5.4-3,2.031,2.031,0,0,1-.7-2.8c1.2-2.4,2.3-4.8,3.5-7.2.7-1.5,1.4-1.8,2.9-1.2a30.208,30.208,0,0,1,3.6,1.8,1.371,1.371,0,0,1,.6,1.3c.1.4-.6.7-.9.9Z" fill-rule="evenodd"/>
    <path id="Path_920" data-name="Path 920" d="M655.9,138a7.773,7.773,0,0,1-3.8,4.8,5.518,5.518,0,0,1-6.8-1.3,2.544,2.544,0,0,1-.4-1.7c.8-2.3,1.7-4.6,2.7-6.8a2.072,2.072,0,0,1,1.3-.9C652.3,131.3,655.8,134.2,655.9,138Zm-7.1.6c-.3,1.2-.1,2.1,1.3,2.3a3.912,3.912,0,0,0,3.3-2.5,2.931,2.931,0,0,0-1.9-3.3,1.736,1.736,0,0,0-1.4.3,3.117,3.117,0,0,0-1.3,3.2Z" fill-rule="evenodd"/>
    <path id="Path_921" data-name="Path 921" d="M678.6,148.7c0,.2-.1.3,0,.5.7,3.2-.8,4.8-3.9,6.1a3.686,3.686,0,0,1-4.5-1,4.091,4.091,0,0,1-.5-4.5,10.853,10.853,0,0,1,4.4-4.6c1.5-1,4.1.3,4.5,2.1a3.3,3.3,0,0,1,0,1.4Zm-1.9,1.2c-.3-.7-.5-1.8-.9-1.9a4.022,4.022,0,0,0-2.6.6,4.169,4.169,0,0,0-1.5,2.2,1.979,1.979,0,0,0,2.2,2.4A3.122,3.122,0,0,0,676.7,149.9Z" fill-rule="evenodd"/>
    <path id="Path_922" data-name="Path 922" d="M633,123.7v5.2c0,.8.3.9.9.4.8-.8,1.6-1.6,2.3-2.4,1-1.2,1.8-1.5,2.8-.8.7.5.9,1,.3,1.6-.1.1-.1.2-.2.2-2.6,1.5-4.3,3.9-6.4,5.9a1.939,1.939,0,0,1-1.8.3c-.3-.1-.6-1-.5-1.5.3-3.4,1.1-6.7.2-10.1a1.147,1.147,0,0,1,.1-1,2.3,2.3,0,0,1,1.3-1.1c.3-.1,1,.5,1.2.9a8.523,8.523,0,0,1,.3,2.3,1.338,1.338,0,0,1-.5.1Z" fill-rule="evenodd"/>
    <path id="Path_923" data-name="Path 923" d="M639,136.8a18.342,18.342,0,0,0,.7-2.3c.5-1.7.9-3.4,1.4-5.2.1-.2,0-.6.1-.6a3.139,3.139,0,0,1,1.6-.6c.2,0,.7.8.7,1.2-.2,1.4-.6,2.7-.9,4.1-.2,1.1-.5,2.2-.6,3.2a1.253,1.253,0,0,1-1.6,1.2c-.6,0-1-.6-1.4-1Z" fill-rule="evenodd"/>
    <path id="Path_924" data-name="Path 924" d="M413.7,73.1c.3.8-.9,1.2-1.5,1.4-.4.1-.2,0-1-1.4s-.7-2.3-1.9-2.3c-1.3,0-2.8,0-3.8,1.4-.4.5-.7,1-1.1,1.5-.5.7-1.1,1-1.8.3-.6-.6-.4-1.1.1-1.7.4-.4.6-1.1,1-1.6.5-.7,4.2-7.6,5-7.7.9-.2,1.1.3,1.4,1,.6,2.1,1.3,4.1,2,6.2A15.11,15.11,0,0,0,413,72a2.583,2.583,0,0,1,.7,1.1Zm-4.9-6.8a24.153,24.153,0,0,0-1.1,2.5c0,.2,1.8.2,1.9-.1A10.8,10.8,0,0,0,408.8,66.3Z" fill-rule="evenodd"/>
    <path id="Path_925" data-name="Path 925" d="M424.7,66.2c-.2-1.8,0-2,1.8-2A20.554,20.554,0,0,1,430,64c1.9.2,3.2,1.1,3.3,3.4v.5c-.2,4.2-2.3,6.2-6.5,6a1.616,1.616,0,0,1-1.6-1.9c-.1-.5-.3-4.4-.5-5.8Zm2.3,5a11.864,11.864,0,0,0,3.2-.5c1-.6,1.3-3.9.5-4.4-1.5-1-2.9,0-3.9.2-.3,0,.2,4.7.2,4.7Z" fill-rule="evenodd"/>
    <path id="Path_926" data-name="Path 926" d="M443.5,66.6c1.7-3.4,3.9-3.4,6.8-2a2.9,2.9,0,0,1,1.1,2.4c-.2,1.4-.1,4.4-1.4,5.8a4.922,4.922,0,0,1-6,.6,2.379,2.379,0,0,1-.9-1.3C442.9,71.2,442.6,68.3,443.5,66.6Zm2.4,4.9c.7.5,2-.3,2.9-1.6.9-1.4,1-2.6.3-3.2a2.356,2.356,0,0,0-3.8,1c-.1.6-.6,2.9.6,3.8Z" fill-rule="evenodd"/>
    <path id="Path_927" data-name="Path 927" d="M420.5,65.1c.1-.4.4-.9.8-.9s1,.7,1,1c-.2,2.3-.7,8.2-.9,8.4a5.325,5.325,0,0,1-2.4.6c-.5,0-1.3-.8-1.5-1.5a23.408,23.408,0,0,1-.9-4.6,24.517,24.517,0,0,1-.2-2.7c0-.9.4-1.4,1.3-1.4,1,0,.7.7.6,1.6a26.013,26.013,0,0,0,.5,3.9c0,.5.3,2.2,1,2.2.6,0,.3-1.6.4-2.1a12.678,12.678,0,0,0,0-2c0-.1.2-1.7.3-2.5Z" fill-rule="evenodd"/>
    <path id="Path_928" data-name="Path 928" d="M436.3,66.7a3.812,3.812,0,0,1-.1-1.5,1.271,1.271,0,0,1,.8-.8c.3-.1,1.2.5,1.3.9.4,2.1.7,4.2,1,6.3.1.8,0,1.7-1,1.8-1,0-1.4-.7-1.4-1.7a46.221,46.221,0,0,0-.6-5Z" fill-rule="evenodd"/>
    <path id="Path_929" data-name="Path 929" d="M149,251.2c-.4.5-1.2.9-1.7,1.4-.6.6,1.9,3.8,3.1,2.8.3-.2,2.1-1.8,2.4-1.7.2.1.3.5.4.7v.4c-1.5,1.4-1.9,2.1-3.1,2.6a2.2,2.2,0,0,1-2.5-1c-.6-.8-1.3-1.5-1.9-2.3a16.342,16.342,0,0,0-4.2-4.5c-.8-.6-.6-1.1.1-1.6,1.2-.7,2.9-1.7,3.6-2.2.6-.4,1.5,1,1.3,1.2-.4.4-1.5.6-1.9,1-.9.6-1.1,1.2-.4,2,.6.7,1.1,1.6,1.6,1.7.6.1,1.3-.7,1.8-1.2.9-.8,1.8.2,1.4.7Z" fill-rule="evenodd"/>
    <path id="Path_930" data-name="Path 930" d="M141.9,266c-.6-.1-3.7-4.1-4.8-6-.5-.9-.9-2.5-2.4-1.4-.5.4-1.2,1.6-1.9,1.7a.807.807,0,0,1-.9-.4,1.479,1.479,0,0,1,0-1.3c1.1-1,2.2-2,3.4-2.9a15.5,15.5,0,0,1,3.2-2,2.129,2.129,0,0,1,1.7-.2c.7.4.3,1.1-.1,1.7-.7.9-2.4,1-2.4,1.9s1.7,2.7,2.4,3.5,2.9,2.7,3.5,3.5c.6.7-1.5,1.9-1.7,1.9Z" fill-rule="evenodd"/>
    <path id="Path_931" data-name="Path 931" d="M157.2,248.5a16.952,16.952,0,0,1,.1,2.2c-.2.5-1.6.6-1.8.2a19.014,19.014,0,0,1-.3-2.5c-.2-2.7-.8-3.3-3.5-3.8a5.626,5.626,0,0,1-1.8-.7c-.3-.2.1-1.5.5-1.5a10.9,10.9,0,0,1,2.6.3c1.4.4,1.7.1,1.5-1.3a25.577,25.577,0,0,1-.5-2.7c0-.5,1.6-1,1.8-.5a8,8,0,0,1,.2,3.1c-.2,2.7,1.2,3.3,3.3,3.6a16.249,16.249,0,0,1,1.9.4c1,.1.6,1.7,0,1.9-.7.2-1.3-.2-2.5-.5C156.9,245.9,157,246.4,157.2,248.5Z" fill-rule="evenodd"/>
    <path id="Path_932" data-name="Path 932" d="M160.4,233.6a13.823,13.823,0,0,1-2.2,1,3.1,3.1,0,0,1-1.9.1c-.6-.2-.8-.8-.1-1.3,2.2-1.4,4.4-2.9,6.6-4.3a2.1,2.1,0,0,1,1.1-.4,1.234,1.234,0,0,1,.8.4c.1.1,0,.5-.1.8,0,.1-.1.2-.2.3-.7.9-1.9,1.7-1.9,2.6-.1.8,1,1.8,1.6,2.6.8,1.1,1.8,2.1,2.6,3.3a2.618,2.618,0,0,1,.5,1.7c0,.3-.8.8-1.1.7a3.179,3.179,0,0,1-1.2-1.1c-1.1-1.7-2.1-3.4-3.1-5.1a15.408,15.408,0,0,0-1.4-1.3Z" fill-rule="evenodd"/>
  </g>
  <path id="Path_933" data-name="Path 933" d="M573.3,223.2c0,1.5.7,2.1,2,1.8a44.657,44.657,0,0,1,9.5-2c3.7-.4,7.4-1,11.1-1.6.6-.1,1.4-.4,1.6-.9a2.193,2.193,0,0,0-.5-1.8c-3.7-5.9-8.4-11.1-12.8-16.5-.9-1.1-1.8-1.2-2.6,0a20.092,20.092,0,0,0-1.6,3.3,106.944,106.944,0,0,0-6.4,16.2A9.928,9.928,0,0,0,573.3,223.2Z" transform="translate(-122.9 -57.2)" fill="none"/>
  <path id="Path_934" data-name="Path 934" d="M329.6,475c-2.5-.9-4.7-1.7-6.8-2.5-1-.4-2-.8-2.9-1.2-1.2-.6-1.2-.7-.2-1.5a14.906,14.906,0,0,0,2-1.5c1.1-1,1.1-1.6.5-2.9a23.671,23.671,0,0,1-1.3-3.4,19.451,19.451,0,0,0-.8-2.2c-.5-.8-.3-1.3.5-1.5,1.8-.5,3.6-1,5.4-1.4a1.2,1.2,0,0,1,1.5,1c.3,1.1.5,2.2.7,3.3a16.552,16.552,0,0,0,.6,2.1,1.494,1.494,0,0,0,1.9,1.2c.8-.2,1.6-.3,2.5-.5a6.533,6.533,0,0,1,1.4,0,4.8,4.8,0,0,1,0,1.2c-.6,1.5-1.4,3-2,4.6-.6,1.4-1.2,2.9-1.8,4.3-.5.4-1,.7-1.2.9Z" transform="translate(-122.9 -57.2)" fill="none"/>
  <path id="Path_935" data-name="Path 935" d="M339.5,482.6c-.4.3-.8,1-1.4,1.2-3.5,1.7-6.9,3.3-10.4,4.9-1.7.8-3.3,1.6-4.9,2.4-.6.3-1.1.4-1.4-.3-.5-1.1-1-2.1-1.4-3.2-.1-.2.4-.9.8-1,1.1-.4,2.2-.5,3.2-.9,3.7-1.2,7.4-2.6,11.1-3.8a28.061,28.061,0,0,1,3.1-.8c.9-.2,1.2.3,1.3,1.5Z" transform="translate(-122.9 -57.2)" fill="none"/>
  <path id="Path_936" data-name="Path 936" d="M648.8,138.6a3.426,3.426,0,0,1,1.1-3.3,1.436,1.436,0,0,1,1.4-.3,2.931,2.931,0,0,1,1.9,3.3,3.912,3.912,0,0,1-3.3,2.5c-1.2-.1-1.4-1-1.1-2.2Z" transform="translate(-122.9 -57.2)" fill="none"/>
  <path id="Path_937" data-name="Path 937" d="M676.7,149.9a3.2,3.2,0,0,1-2.9,3.3,1.979,1.979,0,0,1-2.2-2.4,3.821,3.821,0,0,1,1.5-2.2,4.023,4.023,0,0,1,2.6-.6c.5.1.7,1.2,1,1.9Z" transform="translate(-122.9 -57.2)" fill="none"/>
  <path id="Path_938" data-name="Path 938" d="M573.3,223.2c.1-.4.2-1,.4-1.6a118.547,118.547,0,0,1,6.4-16.2,20.1,20.1,0,0,1,1.6-3.3c.8-1.2,1.7-1.1,2.6,0,4.4,5.4,9.1,10.6,12.8,16.5.3.5.7,1.3.5,1.8s-1,.8-1.6.9c-3.7.6-7.4,1.2-11.1,1.6a51.808,51.808,0,0,0-9.5,2c-1.4.4-2.1-.2-2.1-1.7Zm8.2-2.2c3.5-.6,7-1.2,10.6-1.7.2,0,.3-.1.5-.1.7-.2,1-.3.4-1.1-1.2-1.6-2.3-3.4-3.6-5.1-1.8-2.4-3.7-4.7-5.6-6.9-.9-1-1.6-.9-2,.3-1.7,4.2-3.4,8.4-5,12.6-.2.6-.8,2.1-.5,2.7.2.5,2.2-.2,5.2-.7Z" transform="translate(-122.9 -57.2)" fill-rule="evenodd"/>
</svg>
