<svg id="learner" xmlns="http://www.w3.org/2000/svg" width="557.711" height="245.573" viewBox="0 0 557.711 245.573">
  <path id="Path_1038" data-name="Path 1038" d="M290.1,305.5l34,7.9,42.1-9.7-27.1,37.6-28.8.7-42.1-3.3Z" transform="translate(-125.237 -162.465)" fill="#9dd3cc"/>
  <path id="Path_1039" data-name="Path 1039" d="M466.8,291.4l25.4-6.3,46.5,5.2-40.2,6.8Z" transform="translate(-125.237 -162.465)" fill="#9dd3cc"/>
  <path id="Path_1040" data-name="Path 1040" d="M469.5,316l.1,1,.9,9.1,50.8,2.3,2-13-23,7.5" transform="translate(-125.237 -162.465)" fill="#a1dba3"/>
  <path id="Path_1041" data-name="Path 1041" d="M449.4,337.3c-4.8,5.4,1,20.6,1,20.6l56.2-.2,1.2-20,25.1-8.3-66-3.7c.1.1-12.8,6.3-17.5,11.6Z" transform="translate(-125.237 -162.465)" fill="#9dd3cc"/>
  <path id="Path_1042" data-name="Path 1042" d="M565.9,305.5l4.6,1.5,28.7-7.3-1.9,35.8L572.9,351l-11-4Z" transform="translate(-125.237 -162.465)" fill="#a1dba3"/>
  <g id="Group_64" data-name="Group 64" transform="translate(-125.237 -162.465)">
    <path id="Path_1043" data-name="Path 1043" d="M364.7,299.3c-3.3.7-8.8,2.1-12.1,2.9q-8.55,1.95-17.1,4.2a20.536,20.536,0,0,0-3.8,1.6,8.345,8.345,0,0,0-1.2.8,5.7,5.7,0,0,0,1.3-.1c7.8-1.8,15.5-3.6,23.3-5.4,2.3-.5,6.6-1.5,8.9-2.1.6-.2,1.1-2,.7-1.9Zm-72-1.7c-.8.3-1.4,2-1,2.3a67.256,67.256,0,0,0,9.8,4.8c6.8,2.8,15.4,5.7,18.7,7.5.5.3,1,.8,1.5-.1.4-.8.4-1.4-.6-1.7a25.491,25.491,0,0,1-3.9-1.3c-3.1-1.5-6-3.2-9.1-4.6-3.4-1.6-12-5.5-13.2-6.1-1.3-.6-1.9-.9-2.2-.8Zm33.2,14.2c-1.1-.2-1.3.6-1.8,1.6-.7,1.2-5.4,18.8-7.5,26.5-.3,1.3,0,1.6,1.3,1.4,1-.1,1.1-.8,1.3-1.6l4.5-16.2c.6-2.4,2.3-7.3,2.6-9.9C326.5,312.7,327,312.1,325.9,311.8Zm13.2,29.5a4.268,4.268,0,0,0,2.4-1.4c1.5-1.7,2.8-3.6,4.1-5.4a7,7,0,0,0,.9-1.7,12.033,12.033,0,0,0-1.9,0,49.415,49.415,0,0,0-6.5,1.2,2.837,2.837,0,0,1-2.8-.8c-.7-.7-.6-1.7.4-1.9,2.8-.6,5.6-1.1,8.4-1.6,1.9-.3,4.1-.1,5.4-1.9,1.5-2,2.9-4.2,4.4-6.2,3.6-4.7,7.3-9.4,11-14.1.6-.8,1.5-1.4,2.1-2.2.3-.4,1.8-2.1-1-1.6-5.3,1-10.6,1.8-15.9,3-6.2,1.4-12.3,3.2-18.5,4.7a3.725,3.725,0,0,0-3,3c-.9,3.6-2,7.1-3,10.7-1.3,4.6-2.6,9.2-3.8,13.9-.6,2.2-.3,2.5,2,2.7,1.4.1,11.5,0,15.3-.4Zm29.8-141.1c-4.5-.2-28.1.2-35.5.5-8.3.4-16.5.5-24.8.7-4,.1-20.7,1-25,1.3-7.2.5-37.6,1.8-45.6,2.1-4.6.1-9.2.3-13.8.4-.4,0-1.2.4-1.2.6-.2,1.1,2.6,4.3,3.8,4.3,3.1.1,6.1.1,9.2,0,6.4,0,12.7-.2,19.1-.2,3.5,0,16.2-.1,19.1-.2,3.8-.2,17.5-1,20.5-1,4.7,0,26-.1,32-.3,4.7-.2,9.3-.5,13.9-.8,5-.3,38.1-.7,38.1-.8h4.9a2.92,2.92,0,0,0,.9-.2,2.01,2.01,0,0,0-.4-.8c-1.7-1.7-3.3-3.4-5.1-5ZM226.7,214.9c0-.1-1.8-1.8-2.5-2.6-.6-.7-1.1-1.6-1.6-2.3-.6-.9-1.2-1.8-1.9-2.7a1.4,1.4,0,0,0-.9-.3c-.1,0-.3.4-.3.7-.1,5.6-.2,11.2-.2,16.8,0,3.5-.4,26.2-.6,34.1-.2,7.3-.1,14.7-.2,22,0,3.6-.3,7.3-.3,10.9,0,5.7.2,11.4.4,17.1.1,5.6.3,11.1.5,16.7.1,3.3.6,6.6.6,9.9,0,3.1.3,12.5,1.1,13.3,1.5,1.6,3.1,3.1,4.7,4.6.7.7,1.1.8,1.2-.4.1-3.1.5-6.1.5-9.2,0-4.1-.4-8.2-.5-12.3,0-6.1.1-12.2.2-18.3,0-4-.1-8.1-.1-12.1,0-2-.2-6.9-.2-6.9a18.428,18.428,0,0,1-1.6-2.5c-1.5-2.7-3-5.4-4.3-8.2-.4-.8-.6-2.3.1-2.9s1.1-.7,1.5-.2a4.583,4.583,0,0,1,1.1,1.8c.8,1.8,3.1,6.2,3.3,6.5.1-.4.4-11.1.5-15.9.1-4,.1-7.9,0-11.9-.2-7.7-.7-15.5-.8-23.2V237C226.3,231.3,226.7,215,226.7,214.9Zm44.2,117.9s-2.4,2.8-.7,3.2c1.7.3,12.1,3.1,13.1,3.2,2.5.3,14,2.4,17.4,2.4a77.076,77.076,0,0,1,9.6.4c1.7.2,2.6.1,3-1.7.1-.6.4-1.2.5-1.8,1.7-5.8,3.4-11.7,5.3-17.5,1.5-4.6,1.2-5.9-3.2-8a77.793,77.793,0,0,0-11.6-4.6,64.662,64.662,0,0,1-13.3-5.6c-1.1-.6-1.6-.6-2.2.5-2.6,4.3-5.3,8.6-8,12.9-2.6,4.2-5.3,8.3-7.9,12.5-.7,1.1-.5,1.4.8,1.8,1.8.6,5.6,1.5,6.5,2.3.7.7.1,1.3-.2,1.8-.2.3-1.1.4-1.6.3-2.4-.5-7.5-2.1-7.5-2.1Zm-13.8,24.1c7.5-.3,14.9-.5,22.4-.9,6.9-.3,13.8-.6,20.7-1,5.6-.3,11.2-.9,16.8-1.4,5.1-.4,10.1-.8,15.2-1.4,5.4-.6,10.9-1.4,16.3-2,3.6-.4,7.3-.5,10.9-1,5.9-.8,19.1-1.8,24.7-3,1.6-.3,2.5-3,2.5-4-.1-2.5-.2-5-.4-7.6-.4-6.8-1-13.5-1.4-20.3-.3-4.3-.3-8.6-.5-12.9a4.509,4.509,0,0,0-.3-1.1,4.62,4.62,0,0,0-.7.7,92.964,92.964,0,0,1-11.2,15.9c-4,4.8-8.9,8.3-14.1,11.5a19.22,19.22,0,0,1-5.2,2.5,4.682,4.682,0,0,0-2.9,2c-1.9,3.2-5,8.5-5.9,9.7a3.517,3.517,0,0,1-3,1.7c-2.5-.1-4.9,0-7.4.1-6.2.1-12.3,0-18.5.4-2.9.2-5.8.8-8.7.3-1.1-.2-6.5-.5-12.3-1.5-6.6-1-13.8-2.7-17-3.3-1.5-.3-3-.6-4.5-.8-2-.3-3.9-.6-5.9-1-2.1-.5-2.5-1.6-1.1-3.3,1.9-2.5,1.9-2.5-.8-4a2.187,2.187,0,0,1-.5-.3c-4-3.2-8.1-6.4-11.9-9.7-3.2-2.7-6.1-5.7-9.1-8.6-3.8-3.8-14.2-15.1-14.2-15.1s-.2,6.2-.1,8.1c.1,4.6.5,9.2.5,13.8.1,6.5,0,13,0,19.6,0,5.1-.2,12.5-.1,15.2s4.6,3.8,6.9,3.5c1.9-.5,15.8-.6,20.8-.8ZM385.7,212.2c-.2-2.4-.3-2.4-2.8-2.4-4.8,0-9.6.2-14.4-.1-8.4-.6-29.9.9-32.2,1-5.3.3-10.6.3-15.8.5-3.8.1-7.6.3-11.3.2-7.2-.2-34.8,1-41.4,1.1-5.6.2-29.3.4-35.6.8-2.3.1-2.8.8-2.9,2.7-.2,5.4-.4,10.7-.4,16.1a142.367,142.367,0,0,0,.2,16,253.961,253.961,0,0,1,.6,26.2c-.1,5.8-.2,18.8-.2,18.8s12.6,14.1,18.8,20.1c3.3,3.3,6.8,6.4,10.3,9.5,2.8,2.5,5.7,5,9.3,6.3.8.3,1.5.6,2.1-.3,1.9-3,3.9-6,5.8-9,2.3-3.7,4.6-7.3,6.8-11.1,2.5-4.4,5-8.9,7.4-13.4a2.06,2.06,0,0,1,3-1.1c.6.3,1.2.7,1.8,1,2.8,1.5,5.5,3,8.3,4.3,2.1.9,14.9,6.5,19.2,8.3,2.2.9,4.8,1.4,6.8-1a6.135,6.135,0,0,1,2.7-1.8c5.4-1.6,10.8-3.2,16.2-4.5,5.7-1.4,11.5-2.6,17.2-3.9a2.745,2.745,0,0,1,1.2-.2c.6.2,1.4.4,1.7.9a3.03,3.03,0,0,1,0,2.1,18.949,18.949,0,0,1-.9,2.1c.8.1,4.4-.4,4.6.3a3.69,3.69,0,0,1-.7,2.3c-1.3,2-9.3,11.9-11.1,14.2a82.47,82.47,0,0,0-5.4,8.5,24.148,24.148,0,0,0,2.8-1.4c4.3-2.8,8.7-5.5,11.9-9.7,3-3.8,6.1-7.4,8.8-11.4,3.5-5.3,6.3-11.1,5.9-17.8,0-.7.1-1.4.1-2,.1-3.4.2-6.8.3-10.3.1-2,1.5-22.2,1.8-30.3C386.5,236.6,386,215.6,385.7,212.2ZM215.7,308V285.9c0-7.4-.1-14.8.1-22.2.1-6,.6-12.1.9-18.1.2-3.8,0-18.1,0-21.6,0-5,.2-10.1.4-15.1,0-.5-.5-6.1,2.3-6.3s4.2-.3,5.7-.3c7.1,0,14.1-.1,21.2-.2,5.5-.1,22.4-.9,25.4-1.1,3.7-.2,7.4-.3,11.1-.5s7.3-.8,11-.9c5.4-.2,29-.9,35.4-1.2,4-.1,33.5-1.1,37.6-1,4.2.1,8.5.1,12.7.1,1.2,0,2,.1,2.6,1.1a33.92,33.92,0,0,0,2.7,3.9c.7,1,1.7,1.7,2.4,2.7a7.335,7.335,0,0,1,1.5,2.9,70.879,70.879,0,0,1,.1,8c-.1,4.5-.2,26.4,0,32.9.2,6-1.4,22.6-1.4,25,0,.4-.7,5,1.6,6.1.3.2.3,1.4.2,2.1-.5,2.4-1.2,4.7-1.6,7a45.343,45.343,0,0,0-.5,5.3,14.718,14.718,0,0,0,0,2.1c-.5,7,.3,13.8.9,20.7.4,4.6.4,9.3.7,14,.2,3.7.4,7.4.7,11.1.1,1.5.3,3,.3,4.5.1,2.1-2.6,2.3-5.3,2.7-2.7.3-30.2,2.8-34.3,3.3-5.8.7-11.6,1.3-17.4,2.1-1.7.2-1.7.3-.7,1.6,4.7,6,9.3,12.2,14.2,18.1,2.5,3,5.3,5.7,7.9,8.7,2,2.3,3.8,4.8,5.7,7.2.2.3.2.7.5.9.4.3.9.8,1.3.8s.8-.7.9-1.2c.4-2,.7-4.1,1-6.1a8.427,8.427,0,0,1,.6-1.4c.5.3,1.3.6,1.4,1a7.959,7.959,0,0,1,.4,3.4c-.5,2.5-1.2,4.9-1.9,7.3-.6,2.1-2.1,2.5-3.6,1a3.915,3.915,0,0,1-.8-1c-1.9-2.9-3.7-5.9-5.8-8.7-1.6-2.1-3.7-3.7-5.4-5.7-3-3.5-6-7-8.8-10.6a121.229,121.229,0,0,0-11.9-13.9,3.39,3.39,0,0,0-3-1c-8.8.8-17.6,1.6-26.4,2.2-4.7.4-9.3.5-14,.7a4.191,4.191,0,0,0-1.5.4c.3.3.6.7.9,1,2,2.4,4,4.7,6,7.1,2.4,2.8,4.8,5.4,7.2,8.2,2.5,2.9,4.8,5.8,7.3,8.7,1.9,2.3,3.8,4.6,5.9,6.8a106.931,106.931,0,0,1,9.4,10.8c.2.2.3.4.5.6a1.612,1.612,0,0,0,.7.4,1.854,1.854,0,0,0,.2-.7,6.559,6.559,0,0,1,.1-2,1.669,1.669,0,0,1,1.1-1.2c.3-.1,1,.5,1.2.9a11.349,11.349,0,0,1,.3,7.5,1.489,1.489,0,0,1-2.7.6,37.922,37.922,0,0,1-4.8-5.8c-2.7-4.3-6.5-7.6-9.8-11.4-2.5-2.9-4.8-6-7.3-8.9-2.6-3.1-5.3-6.1-8-9.1-2.2-2.5-4.3-5-6.6-7.3-2-2.1-4.2-4.1-6.4-6.1a2.41,2.41,0,0,0-1.5-.4c-5.4.3-10.8.8-16.2,1-4.8.3-9.6.3-14.4.5-4.6.2-9.2.4-13.8.5a6.862,6.862,0,0,1-5.8-2.7,57.619,57.619,0,0,0-8.1-7.5c-1.5-1.3-2.4-2.4-2-4.5,1.1-6.2.4-12.4.1-18.6.1-5.7-.2-11.4-.6-19.1Z" fill="#181715" fill-rule="evenodd"/>
    <path id="Path_1044" data-name="Path 1044" d="M571.6,303.5a10.04,10.04,0,0,0,2.4-.4c2.3-.8,4.4-1.8,6.7-2.6,4.8-1.5,9.7-2.9,14.5-4.4a8.107,8.107,0,0,0,1.8-1,12.748,12.748,0,0,0-2.5-1.5c-.5-.2-1.1.3-1.7.5a12.092,12.092,0,0,1-1.8.5,129.192,129.192,0,0,0-21,6.1,11.27,11.27,0,0,0-1.8,1.2,8.576,8.576,0,0,0,2,1.3c.3.3.9.2,1.4.3Zm-45.3,19.2c0,2.7,1,3.4,3.4,2.6,2.3-.7,4.6-1.3,6.9-2.1,3.7-1.2,3.7-1.2,3-5.1-.4-1.9-.4-1.9-2.2-1.3-2.3.8-4.7,1.6-7,2.3a1.442,1.442,0,0,1-1.3-.3,1.258,1.258,0,0,1,.2-1.3,3.957,3.957,0,0,1,1.5-1c.8-.3,1.7-.4,2.6-.7a29.22,29.22,0,0,0,5.2-1.9,2.64,2.64,0,0,0,1-2.5c-.2-1.2-1.2-.4-1.8-.2-2.3.8-4.7,1.6-7,2.5a5.075,5.075,0,0,0-2.6,1.9,17.305,17.305,0,0,0-1.9,7.1Zm106.4,19.7a10.47,10.47,0,0,0-1.1.8c-1.9,1.5-3.6,3.2-5.6,4.5-3.4,2.2-7,4.1-10.4,6.3-1.2.8-3,2-3,3,0,2.2,1,4.4,1.7,6.5a1.062,1.062,0,0,0,1.8.5c2.3-1.7,4.6-3.4,7-5,4.2-2.9,8.4-5.7,12.6-8.6a7.945,7.945,0,0,0,1.8-1.4,1.479,1.479,0,0,0,0-1.3c-1.1-1.4-2.4-2.7-3.6-4.1a13.576,13.576,0,0,0-1.2-1.2Zm-67.8,2.3a3.942,3.942,0,0,0,3.2,4c1.2.3,1.9-.2,2-1.6.4-5.5.9-10.9,1.2-16.4.2-3.8.1-7.5.1-11.3,0-3.1,0-6.3-.1-9.4,0-1.9-.4-3.5-2.7-4.3-2.7-.9-2.8-1-2.7,1.9v.8c-.4,5.4-.8,10.8-1,16.2-.1,3.8.1,7.7.1,11.5-.1,2.9-.1,5.7-.1,8.6Zm-32.7-6.5c-2.8.9-5.6,1.8-8.5,2.6-4.1,1.1-8.2,2.2-12.3,3.2a7.084,7.084,0,0,1-1.4.1,7.378,7.378,0,0,1,0-2.1c.1-.4.9-.6,1.4-.7,6.3-1.5,12.7-3,19-4.6a7.414,7.414,0,0,0,3-1.3c.5-.5-.6-2.6-1.1-2.5-1.1.3-2.2.8-3.3,1.1l-18.3,5.4c-1.9.6-2.5,1.8-2.9,3.7-.5,2.7.1,5.2.5,7.7.4,2.6,2.1,3.8,4.5,3.2,2.6-.7,5.2-1.8,7.8-2.4a89.651,89.651,0,0,1,10.4-1.4,3.956,3.956,0,0,0,3.4-2.1,4.613,4.613,0,0,0,.3-2.8c-.4-1.9.1-2.2-2.3-1.6-3.6,1-7.2,1.8-10.8,2.7-2.9.7-5.8,1.5-8.7,2.3-1.1.3-2.2,1.1-2.7-.5-.5-1.7,1.1-1.4,1.9-1.6,6.7-1.7,13.3-3.2,20-4.8,1.3-.3,1.9-4.2.1-3.6ZM566.3,362a2.348,2.348,0,0,0-1.6.5c-.8,1.2.6,3.8,2.1,3.9,2,.2,4.1.2,6.1.4a97.392,97.392,0,0,0,16.2.2c5.8-.5,11.6-.2,17.5-.3a23.374,23.374,0,0,0,4.5-.7c1.1-.2,1.1-.6.6-1.5a14.591,14.591,0,0,1-1.6-3.9c-.7-3.2-1.1-3.6-4.4-3.6l-16.1.3c-3.2.1-6.4.2-9.7.1-2.9,0-5.7-.1-8.6-.3-1.4-.1-2.8-.4-4.3-.5a2.143,2.143,0,0,0-1.5.9c-.4.9.3,1.4,1.2,1.5,2.4.3,4.7.7,7.1.8,5.2.2,10.4.2,15.6.2,5,0,10-.2,15-.3.4,0,.7,1.4.4,1.7a1.493,1.493,0,0,1-1,.3c-2.3.2-4.5.4-6.8.4C590.1,362.4,569.5,362,566.3,362Zm-6.8-46.2h0a16.886,16.886,0,0,0-3.9.8c-1.8.7-.9,2.3-.9,3.6-.1,5.4-.1,10.8-.2,16.3-.1,4.7-.2,9.4-.6,14.2-.3,4,.2,5,4.1,5.9a18.662,18.662,0,0,0,2.5.4c1.4.2,1.9-1.3,2.6-3.8.7-2.4.8-3.3.2-3.4-1.7-.4-1.3-1.6-1.3-2.8.2-4,.4-8.1.5-12.1.2-5.2.2-10.4.5-15.6.1-3.1,0-3.4-3.5-3.5Zm-36.3,10c.4,0,.9-.9,1-1.4.2-1.5.2-3,.4-4.5.8-4.7,1-4.6-4.3-4.4-.2,0-.4.1-.6.1-5.9,1.8-11.7,3.6-17.6,5.4a3.809,3.809,0,0,1-1,.3c-2.6-.4-5.1-.7-7.7-1.1-7.5-1.4-15-2.8-22.4-4.2-1.1-.2-2.1,0-1.9,1.4a58.815,58.815,0,0,0,1.6,7,3.194,3.194,0,0,0,3.2,2.2c1.6.1,3.3.3,4.9.3,6.2-.1,12.5-.5,18.7-.5,4.7-.2,21.8-.2,25.7-.6Zm-24.7-28.7c2.9-.4,6.1-.6,9.3-1.1,6-1,12-2.3,18-3.3,3.4-.6,6.8-1,10.2-1.5,1-.2,1.9-.5,2.8-.7-.8-.2-1.7-.5-2.5-.7-.1,0-.1,0-.2-.1-6.8-2.1-13.9-2.2-20.9-2.6-5.5-.3-11.1-.5-16.6-.8-3.6-.2-7-1.9-10.7-.7-1.6.5-3.3.7-5,1.2l-15,4.2a4.7,4.7,0,0,0-.9.6,3.508,3.508,0,0,0,.8.5c6.9,1.3,13.7,2.6,20.6,3.8,3.1.4,6.5.7,10.1,1.2Zm9.3,40.7v-.1a12.2,12.2,0,0,0,3.4-.4c4.9-1.4,9.7-3,14.5-4.6,2.1-.7,4.2-1.6,6.3-2.4.3-.1.5-.5.8-.8-.3-.1-.6-.4-.9-.4-3.6-.3-7.3-1-10.8-.7a83.55,83.55,0,0,1-15,.3,102.764,102.764,0,0,0-11.1-.1c-4.2.1-8.5.4-12.7.6-1.4.1-2.9-.1-4.3-.1-3.1-.1-6.3-.2-9.4-.3a12.636,12.636,0,0,0-3.9.2c-4.4,1.3-8.7,2.9-13,4.4-.3.1-.5.5-.8.8a3.08,3.08,0,0,0,1.2.5c3.5.3,7,.6,10.5.8a118.03,118.03,0,0,0,13.3.1c5.5-.4,11-.9,16.6.1,5.1.9,10.2,1.4,15.3,2.1Zm-4.4-22.3c.1.9.4,1.8,1.9,1.4,5.2-1.5,10.5-2.9,15.8-4.3,4.2-1.1,8.5-1.9,12.8-2.8,2.4-.5,2.9-1,2.6-3.4a11.622,11.622,0,0,0-.4-1.8,23,23,0,0,1-.8-9.4c.2-1.1-.1-1.3-1.1-1.2-2.2.3-4.5.5-6.7.9-7.3,1.3-14.7,2.6-22,4-3.3.6-3.3.7-3.2,4.1.1.6.5,9,1.1,12.5Zm97.1,38.9c5.1-.1,10.1-.6,14.9-3a53.862,53.862,0,0,0,13.3-9.8q1.65-1.5-.6-1.8c-2.2-.3-4.4-.4-6.6-.6-3.6-.3-7.2-.4-10.8-.9-4.8-.6-9.1-.7-13.8,1.8-6.6,3.6-13.8,6-20.7,8.9a12.443,12.443,0,0,0-2,1,6.161,6.161,0,0,1-4.4,1.2,4.041,4.041,0,0,0-2.5.9c-.7.5-.8,1.3.5,1.5,2.7.3,5.4.8,8.2.9,3.8.1,7.5-.1,11.3-.1ZM499.8,301.6c0-1-.2-1.9-1.5-2.1-2-.3-4-.8-6.1-1.1-3.7-.6-7.4-1.2-11.1-1.9-5.9-1.1-11.6-3.1-17.7-3.4a5.163,5.163,0,0,0-5,2.5c-1.9,2.7-1.7,5.7-1.5,8.7a5.293,5.293,0,0,0,3.5,4.7c4.9,1.7,9.8,3.5,14.8,4.9,4.6,1.2,9.4,1.8,14.2,2.7,3,.6,5.9,1.2,8.9,1.7,1.9.3,2.7-.7,2.4-2.6-.3-1.8-.9-11.2-.9-14.1Zm3.1,54.2c1.9,0,2.4-.6,2.3-2.5-.2-3.8-.4-7.5-.5-11.3-.1-1.9-.6-2.6-2.5-2.8-2.5-.3-5-.6-7.6-.9-4.8-.4-26.3-.5-32.2-.7-4.4-.2-8.7-.7-13.1-.3-1.1.1-1.6.4-1.8,1.4a19.211,19.211,0,0,0,.1,8.6,12.458,12.458,0,0,0,3,5.8c1,1,1.6,2,3.2,2,3.8-.1,7.7,0,11.5,0,2.4-.1,34.7.7,37.6.7Zm70.4-9.5c0,1.1.1,1.6,1.3,1,2-.9,4-1.7,6.1-2.5l14.4-6a3.291,3.291,0,0,0,2.2-3.4c0-2.6.1-5.2.2-7.8.1-4.3.3-8.6.5-12.9.1-2.8.2-5.6.4-8.4.2-2,.7-3.9.8-5.9.2-2.4-.1-2.7-2.5-2.3-7.3,1.3-14.2,4.2-20.9,7.3a3.839,3.839,0,0,0-1.8,2.5c-.2,4-.2,7.9-.2,11.9,0,4.1.1,8.2,0,12.3-.1,3-.4,12.5-.5,14.2ZM480,357.9H454.6c-.5,0-1,.1-1.4.1-.9,0-2,.4-2.8,0-.6-.3-.6-1.5-1-2.3-.6-1.1-1.5-2.1-2.1-3.2a16.078,16.078,0,0,1-1.5-3.3,1.7,1.7,0,0,0-2.1-1.4c-7.1.3-14.1-.4-21.1-1-5.3-.5-10.6-1.2-16-.2a27.969,27.969,0,0,0-2.8.6,1.63,1.63,0,0,1-2.3-1.3c-.3-1.2.7-1.6,1.5-1.7a46.021,46.021,0,0,1,7.4-.5c4.6.2,9.2.6,13.7,1,3.9.3,16.6.7,18.4.6,1.6-.1,2.2-.8,2.1-2.3,0-1.4.2-2.7.2-4.1-.1-2.7,1.7-4.3,3.4-5.8,1-.8,2.5-1,3.7-1.5,3.8-1.4,7.5-2.9,11.3-4.3,1.2-.5,2.5-.9,3.7-1.3.8-.3,1.1-.6.9-1.6a83.154,83.154,0,0,1-1.5-8.7c-.2-1.6-.7-2.3-2.3-2.5a27.679,27.679,0,0,1-5-1,4.471,4.471,0,0,1-3.2-3.3c-.6-2.1-1.5-4-1.7-6.3-.5-5.2,2.1-11.2,8.1-12.6,3.7-.9,7.4-2.1,11.1-3.1,4.7-1.1,9.4-2.1,14.1-3.1a15.456,15.456,0,0,0,2.3-.7,9.664,9.664,0,0,1,6.5.2,46.945,46.945,0,0,0,13.4,1.7c10.2.1,20.3.6,30.1,3.5a35.937,35.937,0,0,1,3.5,1.2,1.723,1.723,0,0,1,.8,1.4c-.1.5-.8.8-1.2,1.2a.6.6,0,0,1-.4.1c-4.1,1-4.1,1-4.5,5-.4,3.3.5,6.5,1.4,9.7.1.3.9.6,1.4.5.9-.1,1.6-.5,2.8-.6s2.4.7,1,2.3c-1.5,1.6-2.6,6.7-1.5,10.4a2.836,2.836,0,0,0,.8,1.1c1.2,1.2.4,2.9-.2,3-2.8.7-5.6,1.2-8.4,1.9a25.038,25.038,0,0,0-2.6.7c-.2,0-.3.3-.4.4.2.1.3.3.5.3.9.2,1.9.3,2.8.5,2.3.4,2.6,1.1,2.1,3.3a40.7,40.7,0,0,0-.8,6.1,1.522,1.522,0,0,0,1.7,1.8h3.3c2.8,0,5.6,0,8.4.1,1.3,0,1.6-.5,1.7-1.7.1-5.2.3-10.4.4-15.7v-6.1c0-1.3.6-1.8,1.9-1.8,2.4,0,4.8-.3,7.2-.4,1.2,0,1.8-.4,1.7-1.7a57.914,57.914,0,0,0-.4-7.2c-.5-2.9.4-4.6,3.3-5.4,5.2-1.5,10.4-3.1,15.6-4.5,4-1.1,8-1.8,12-2.9,3.5-.9,6.1.5,8,3.2a6.484,6.484,0,0,1,.8,4.1c-.8,5.9-2,11.7-1.7,17.8.2,3.7-.4,7.4-.7,11.1,0,.6-.1,1.2-.1,1.9,0,4.1.3,4.8,4.9,5.4,5.9.8,11.8,1.2,17.8,1.8,2.6.3,4.3.3,7.7.7,3.5.4,8.8,7.2,10.6,8.6,2.2,1.7,2.3,2.7-.1,4.3l-21,13.8c-.7.5-1.3,1.2-2,1.8-3.1,2.7-6.9,3-10.8,3.1-6.8.2-13.5.5-20.3.7-4.7.1-9.3,0-14-.1-2.4,0-4.8-.1-7.2-.2-2.2-.1-3-.7-3.4-2.8a55.429,55.429,0,0,1-.7-5.7c-.1-1.1-.5-1.3-1.5-1.5-2.4-.3-4.9-.7-7.3-1.1a2.286,2.286,0,0,1-2.2-2.5c.2-3.8.5-7.5.8-11.3.1-.7.2-1.5.3-2.2-.7-.1-9-.6-12.4-.6-1.9,0-2.1.2-1.7,2.1a28.75,28.75,0,0,0,.9,4c.6,2.1.3,3.2-1.8,3.9a49.126,49.126,0,0,1-7.6,1.7c-5.8.7-11.6,1.4-17.1,3.3-4.3,1.5-8.7,1.1-13.1,1.2-6.2,0-12.5-.1-18.7-.1Z" fill="#181715" fill-rule="evenodd"/>
    <path id="Path_1045" data-name="Path 1045" d="M457.8,227.8a12.125,12.125,0,0,0-3.2,2.2c-.3.3.6,1.7,1,2.6a4.991,4.991,0,0,0,1.1,1.7c3.8,3.3,7.6,6.4,11.4,9.7.8.7,1.4.8,2.3-.1.8-.8,1.1-1.5.4-2.5-.5-.7-.8-1.6-1.4-2.3-3.4-3.6-6.8-7.1-10.3-10.6a7.62,7.62,0,0,0-1.3-.7Zm98.4-44.1a1.381,1.381,0,0,0,.3-.4,3.4,3.4,0,0,0,1-.1c1.9-.6,2.3-.7,1-2.3-3-3.9-5.9-7.9-8.9-11.8-2.7-3.4-3.6-3.4-6.8-.8-1.1.9-1.1,1.5-.2,2.4,3.1,3.3,6.1,6.6,9.3,9.8a28.259,28.259,0,0,0,4.3,3.2Zm-70.9-7.8v-.3c-7.6.4-15.2.7-22.8,1.1-3,.1-2.8.1-3.1,3.2-.4,4.2.3,8.4.4,12.5.3,8.8,0,17.5.2,26.3.1,3.2.1,6.7,2.6,9.3,3.1,3.3,6.4,6.4,9.6,9.5a3.379,3.379,0,0,0,2,.6c3.5.2,7,.3,10.5.4,4.6.1,9.2.2,13.7.2,4.4,0,8.7-1.4,13.3-1.2a166.9,166.9,0,0,0,18.7-.6c5.4-.4,10.8-1,16.1-1.6a1.375,1.375,0,0,0,1-.8,18.651,18.651,0,0,0,.4-3.2c-.1-3.4-.2-6.7-.4-10,0-.5-.1-1-.1-1.4-.2-3.5-.6-7.1-.7-10.6a78.532,78.532,0,0,1,.3-11.9,70.238,70.238,0,0,0,.2-15.2c-.2-1.9-3-5.4-4.5-5.7-2.6-.5-5.2-1.1-7.9-.5a5.928,5.928,0,0,1-2.3,0c-3.7-.1-7.4-.3-11.1-.4a226.409,226.409,0,0,0-23.3.3c-4.1.3-8.4,0-12.8,0Zm-11.7-3c11,0,19,.1,27,0,8.2-.1,16.3-.3,24.5-.4,4-.1,7.9-.1,11.9-.2,2-.1,2.2-.4,1-2-.7-1-.8-1.9.1-2.5,2.7-1.9,5.4-3.7,8.2-5.3.4-.2,1.8.5,2.4,1.2,1.8,2.1,3.4,4.3,5.1,6.4,2.1,2.7,4.4,5.3,6.4,8.1a28.233,28.233,0,0,1,2.5,4.9c.4.9,0,1.4-.8,1.8-1.6.7-3,1.6-4.6,2.2a3.059,3.059,0,0,1-2.3-.1,36.179,36.179,0,0,1-3.2-2.2c-.8-.5-1.4-.4-1.4.7-.2,5.3-.4,10.7-.6,16-.1,2.5-.3,4.9-.3,7.4,0,2.7.2,5.3.3,8,.1,2.5.3,4.9.5,7.3.3,3.6.8,7.2,1.2,10.8a7.086,7.086,0,0,1,.1,1.4c.2,1.5-.6,2.2-2,2.2-1.3,0-2.6-.3-3.9-.2-2.3.1-4.6.5-7,.6-4.2.2-8.3.2-12.5.4-4.3.2-8.6.5-12.9.8-5,.4-10,1-15,1.2-4.9.2-9.9-.1-14.8-.1-2.3,0-4.5.1-6.8.3a2.252,2.252,0,0,0-1.4.8c-1.5,1.7-3,3.4-4.4,5.1-.8.9-1.5,1.1-2.5.4-1.4-1-2.7-2-4-3.1-2.9-2.4-5.8-4.8-8.5-7.3a43.262,43.262,0,0,1-4.6-5c-1.9-2.2-1.6-3.1,1-4.3,1.1-.5,2.2-1.1,3.4-1.6,1.5-.5,1.7-1.5,1.6-2.9-.4-5.9-.8-11.9-1-17.8-.1-2,.4-3.9.4-5.9-.1-5.6-.4-11.2-.5-16.9,0-2.3.3-4.5.5-6.8a1.793,1.793,0,0,1,1.8-1.8c6-.6,12-1.3,15.1-1.6Z" fill="#181715" fill-rule="evenodd"/>
    <path id="Path_1046" data-name="Path 1046" d="M127.7,358.9c-.6.1-1.6.2-1.8-.1a2.6,2.6,0,0,1-.6-2.2c.1-.4,1.2-.9,1.8-.9,3.6.1,33.5-2.5,38.3-3.1,3.2-.4,32.2-2.5,36.3-3.1,3.2-.4,6.4-.6,9.6-.7.6,0,1.6-.1,1.7,1.6s.6,1.3-2.3,1.7-27.9,2-33.3,2.3c-3.8.2-22.5,2.3-28.2,3-4.3.5-20.6,1.4-21.5,1.5Z" fill="#181715" fill-rule="evenodd"/>
    <path id="Path_1047" data-name="Path 1047" d="M666.9,344.8c-4.8,0-9.6.1-14.4.1-2.5,0-4.9.1-7.3.1-.6,0-.8-2.3-.1-2.5a15.012,15.012,0,0,1,3.7-.3c4.6,0,9.3-.1,13.9.1,5.5.2,11.1.6,16.6.9,1.2.1,2.3.1,3.5.3.3,0,.1,1.3-.2,1.3C681.4,344.9,671,344.8,666.9,344.8Z" fill="#181715" fill-rule="evenodd"/>
    <path id="Path_1048" data-name="Path 1048" d="M277.1,305.3c-.9-.2-3.3-.7-4.8-1.2-1.7-.6-3.4-1.3-5.1-2-1.4-.5-2-1.4-1.4-2.9a25.166,25.166,0,0,1,1.7-4.1,1.7,1.7,0,0,1,2.2-1c1.1.5.7,1.5.6,2.1-.6,2.4,0,3.9,2.5,4.9,1.5.6,3.5,1.3,4.6,1.6,1.1.4,1.7,0,1.7,1.5-.1,1.6-1,1.3-2,1.1Z" fill="#181715" fill-rule="evenodd"/>
    <path id="Path_1049" data-name="Path 1049" d="M340.4,261c-1.6-.2-1.3-1.7-1.4-2.6a2.025,2.025,0,0,1,1.8-2.3c1-.1,2.4,1.3,2.1,2.3C342.6,259.3,342,261.2,340.4,261Z" fill="#181715" fill-rule="evenodd"/>
    <path id="Path_1050" data-name="Path 1050" d="M290.1,257.4a1.579,1.579,0,0,1-1.8,1.8c-1.4,0-2.1-.7-2.1-1.9,0-1.7.7-2.6,1.9-2.6C289.4,254.7,290,255.5,290.1,257.4Z" fill="#181715" fill-rule="evenodd"/>
    <path id="Path_1051" data-name="Path 1051" d="M588.1,364c1.4.1,2.7-.1,4.1,0,.7,0,1,1.3.4,1.5-1,.3-11.6.1-15.9-.1-2.2-.1-4.4-.3-6.5-.4a8.6,8.6,0,0,1-1.6-.1c-.5-.2-.5-1.3,0-1.3C571,363.5,584.1,363.8,588.1,364Z" fill="#181715" fill-rule="evenodd"/>
    <path id="Path_1052" data-name="Path 1052" d="M477.3,197.8c-2.3,0-3.4.9-3.3,2.6,0,2.7.8,3.9,2.6,3.9a4.157,4.157,0,0,0,3.6-3.8,2.578,2.578,0,0,0-2.9-2.7Zm.2-3.1c2.4.2,4.5.4,5.3,3.1,1,3.1.4,5.3-2.2,7.3-.3.3-.7.4-1,.7a9.017,9.017,0,0,0-1,.9,7.632,7.632,0,0,0,1.1.8,36.522,36.522,0,0,0,3.4,1.8c1.1.5,1.5,1.5.7,2.3a2.641,2.641,0,0,1-2.3,0,56.359,56.359,0,0,1-5.3-3.1c-.9-.5-1.4-.6-1.3.7a5.583,5.583,0,0,1-.3,2.2,12.136,12.136,0,0,1-1,1.4c-.3-.5-.8-.9-.9-1.4a40.045,40.045,0,0,1-.8-4.8c-.4-2.6-.7-5.1-1.2-7.7-.4-2.4-.3-2.7,2.1-3.2,1.5-.4,3.1-.7,4.7-1Z" fill="#181715" fill-rule="evenodd"/>
    <path id="Path_1053" data-name="Path 1053" d="M490.3,200.4c.5,3,1,5.9,1.5,8.9.1.5.8.8,1.2,1.3.2-.4.4-.9.6-1.3,1.6-3.6.1-7.3.2-11,.1-1.4.7-1.6,1.6-1.3a1.6,1.6,0,0,1,.9,1.3c.2,1.5.1,3,.4,4.5.6,3.5-.3,6.8-1.6,10-.7,1.9-2.3,2.2-3.9.9a8.094,8.094,0,0,1-2.7-5.6c-.4-2.6-.8-5.3-1.2-7.9a7.084,7.084,0,0,1-.1-1.4,1.636,1.636,0,0,1,1.9-1.7c1.2.1,1.4.9,1.4,1.9,0,.5-.1,1.1-.1,1.6.1-.2,0-.2-.1-.2Z" fill="#181715" fill-rule="evenodd"/>
    <path id="Path_1054" data-name="Path 1054" d="M514.2,206.8c-.4-2.4-.8-4.7-1.2-7.1-.5-2.6.9-4,3.6-3.7a30.618,30.618,0,0,1,3.2.5,4.367,4.367,0,0,1,1.5,1,10.478,10.478,0,0,1-1.7,1.4c-.6.2-1.4-.1-2,.1s-1.5.7-1.4,1c.1.7.4,1.7,1,2a10.667,10.667,0,0,0,2.7.8,13.028,13.028,0,0,1,1.5,1c-.5.6-1.1,1.3-1.6,1.9h-.2c-.9,0-2.2-.8-2.5.8a3.419,3.419,0,0,0,3.2,3.5,14.086,14.086,0,0,1,2-.1,1.187,1.187,0,0,1,1,.8,1.346,1.346,0,0,1-.5,1.2c-1.6,1.2-7.4.6-8.1-1.3a16.689,16.689,0,0,1-.8-4c.1.2.2.2.3.2Z" fill="#181715" fill-rule="evenodd"/>
    <path id="Path_1055" data-name="Path 1055" d="M501.3,208.8a25.7,25.7,0,0,1-.7-4c-.1-1.3,0-2.7-.1-4a10.868,10.868,0,0,1-.1-1.8c0-.6.1-1.5.5-1.7a2.367,2.367,0,0,1,2-.2c.5.3.7,1.2.8,1.9a16.356,16.356,0,0,1-.2,2.2,2.421,2.421,0,0,0,1.8,2.7,11.273,11.273,0,0,0,1.8.3,10.283,10.283,0,0,0,.1-1.7c-.3-1.2-.8-2.4-1-3.7a2.23,2.23,0,0,1,.4-1.8c.2-.3,1.2-.2,1.6.1a3.838,3.838,0,0,1,1.3,1.9c.3,3.3.3,6.6.5,10,0,.4-.1.8-.1,1.2-.1,1.1-.6,2-1.8,1.8-1.4-.2-.8-1.3-.6-2.2,0-.3.3-.7.2-1-.1-.9,0-2.2-.4-2.5a5.057,5.057,0,0,0-3-.1c-.3,0-.5.8-.6,1.3-.2,1.5-.3,3-.5,4.5,0,.3-.4.6-.6.9-.3-.2-.8-.4-.9-.7-.2-1.1-.3-2.3-.4-3.4h0Z" fill="#181715" fill-rule="evenodd"/>
  </g>
</svg>
