<svg id="mission" xmlns="http://www.w3.org/2000/svg" xmlns:xlink="http://www.w3.org/1999/xlink" width="348.753" height="368.967" viewBox="0 0 348.753 368.967">
  <defs>
    <clipPath id="clip-path">
      <path id="Path_862" data-name="Path 862" d="M255.82,137.67H571.28V468H255.82Z"/>
    </clipPath>
    <clipPath id="clip-path-3">
      <path id="Path_854" data-name="Path 854" d="M240.82,333.14H446.35V469.66H240.82Z"/>
    </clipPath>
    <clipPath id="clip-path-4">
      <path id="Path_856" data-name="Path 856" d="M317.45,126h115.4V240.86H317.45Z"/>
    </clipPath>
    <clipPath id="clip-path-5">
      <path id="Path_858" data-name="Path 858" d="M459.37,365.39h126.9v71.03H459.37Z"/>
    </clipPath>
    <clipPath id="clip-path-6">
      <path id="Path_860" data-name="Path 860" d="M264.13,151.74H517.84V354.12H264.13Z"/>
    </clipPath>
  </defs>
  <g id="Group_53" data-name="Group 53" transform="translate(-252.67 -105.039)" clip-path="url(#clip-path)">
    <g id="Group_52" data-name="Group 52" clip-path="url(#clip-path)">
      <g id="Group_48" data-name="Group 48" clip-path="url(#clip-path-3)">
        <path id="Path_853" data-name="Path 853" d="M256.14,347.25a4.8,4.8,0,0,0,.74,4.71c2.2,7.94,3.84,15.45,5.26,23.53a211.564,211.564,0,0,0,5.76,24.16c3,9.9,6.26,19.6,11.12,28.77,5.78,10.92,16.46,18.92,24.51,28.14a4.73,4.73,0,0,1-1.61-1v-.85c1.32-1,2.77-.85,4.35.49A97.775,97.775,0,0,0,321,459.46c5.81,1.46,11.33,3.76,17.12,5.19,12.49,3.08,25,3.73,37.9,3.16,8.38-.37,16.69-4.19,24.67-6.43,6.71-1.89,13.38-3.92,19.4-7.54,7.65-4.59,14.52-11.37,9.69-20.91-2.56-5.05-7.4-5.8-12.48-5.88-18.94-.3-38.69,4.55-56.81-2.88-14.92-6.11-27.39-15.61-40.59-24.49-10.29-6.93-22.63-10.4-30.53-20.4-3-3.76-5.13-8.17-8.56-11.56-3.81-3.78-7.9-7.17-11.87-10.77-3.13-2.84-7-5.11-8.79-9-.59-1.28-.33-2.34-2-2.93-1.3-.47-2.58-.13-2,1.78" fill="#e7df00"/>
      </g>
      <g id="Group_49" data-name="Group 49" clip-path="url(#clip-path-4)">
        <path id="Path_855" data-name="Path 855" d="M370.45,238.6c0-6,.69-12.39-.16-18.37-1.21-.19-2.37.2-3.61.05-4.22-.52-7.79-3.44-11.17-6-10.1-7.65-19.35-14.8-21.63-28.05a119.692,119.692,0,0,1-1.26-17c-.07-2.76-.81-7.2,1.37-9.52,1.68-1.79,4.55-3.13,6.42-4.88,3.74-3.49,7.6-6.88,11.39-10.32a25.239,25.239,0,0,1,4.4-3.66c2.46-1.37,4.7-1,7.43-1.49A69,69,0,0,1,377,138c6.73,0,16.93-1.71,22.62,2.73,4.84,3.77,8.08,11.95,11.41,17.06a41.56,41.56,0,0,1,3.75,38.33c-1.89,4.76-6.94,9.72-10.17,13.77-1.82,2.26-4.45,4.8-5.68,7.41-1.07,2.29-.18,7.37-.18,9.59,0,1.56.86,6.65-.68,8.36-1.35,1.49-1.08.67-3.16,1-2.84.42-5,1.43-7.78,2.09-5.56,1.33-11.93.77-17.67.77" fill="#e7df00"/>
      </g>
      <g id="Group_50" data-name="Group 50" clip-path="url(#clip-path-5)">
        <path id="Path_857" data-name="Path 857" d="M476.73,408.66c-1.24,1.74,3.31,9.67,4.18,11.71a62.114,62.114,0,0,0,4.69,9.54c.77,1.19,1.85,3.89,3.13,4.57,1,.52,2.83.16,3.8.15,4.77-.05,9.53.45,14.27-.36,7-1.2,12.88-3.8,19.24-6.72,6.56-3,13.36-5.33,20-8.23a135.322,135.322,0,0,0,14.34-7.21c1.95-1.15,3.73-1.32,5.53-2.74,6.59-5.23,6.59-16,3-23.25-1.23-2.47-2.66-5.33-4.68-7.26-3.65-3.48-8.88-1.07-13.19.21q-4.44,1.62-8.91,3.18c-5.67,1.58-11.69,1.76-17.33,3.56-4.51,1.44-8.47,3.59-13.15,4.6a41.112,41.112,0,0,0-10.92,4c-4,2.05-8.11,4.38-12.26,6.13-2.12.89-4,1.21-6,2.38-2.36,1.37-5.15,4-8,4.31" fill="#f39d74"/>
      </g>
      <g id="Group_51" data-name="Group 51" clip-path="url(#clip-path-6)">
        <path id="Path_859" data-name="Path 859" d="M338.33,202.23c-4.25,3-25.54,7.82-30.61,9.38-4.79,1.48-23.7,8.58-24.39,8.72-6.32,2.78-4.05,5.43-2.47,11.4,2.43,9.15,4.47,18.62,7.72,27.53,3.33,9.16,9.34,17.23,11.34,26.79,2.38,11.35,10,21,13.19,32.15,2.49,8.67,4.35,17.38,8.21,25.55,1.34,2.84,4.83,5.47,4.88,8.68,3.5.17,6-.72,9.41-1.72,7.49-2.21,14.75-3.93,22.08-6.66,8.45-3.15,17.06-4.28,25.19-8.32,10.34-5.14,20.1-11.33,30.5-16.4,12.9-6.28,26.95-9.13,40.08-14.87,4.6-2,9-4.43,13.47-6.66,3.35-1.67,7.16-2.74,10.32-4.77,6-3.88,11.33-9.9,18-12.77,2.21-.95,3.82-1,5.66-2.48a6.53,6.53,0,0,1,1.91-1.15c.35-5.39-3.28-11.47-4.86-16.54-2.37-7.62-4.06-15.13-7.2-22.53-4.66-11-10.1-21.27-14.12-32.57-2.62-7.38-5.54-14.63-8.05-22-1.45-4.27-2.9-8.69-4.61-12.85-.43-1-1.23-5.74-2-6.47s-4.21.64-4.72.76c-3.86.89-7.55,1-11.24,2.59-7.49,3.28-15.8,5.29-23.79,7.12,0,1.33.58,2,1.09,3.17a21.52,21.52,0,0,1,2,7.93,3.15,3.15,0,0,0,2.62-.19,106.694,106.694,0,0,1,11.57-.77c2.61.08,2.48,0,3.54,2.54,4.95,11.89,9.16,24,14.52,35.77,6.29,13.74,14.44,26.73,17.09,41.81.46,2.56,1.41,3.6,2.14,5.85,1.35,4.13-.37,5.57-3.8,7.56-4.86,2.83-10,3.74-15,6.19-5.22,2.58-11.25,3.56-16.68,5.6-16,6-32.19,10.82-48.53,15.95-7.48,2.36-14.09,6.4-21.83,8.09a87.183,87.183,0,0,0-12.71,3.91c-4.77,1.82-9.26,4.56-14,6.51-2.22.91-3.58,2.48-6.16,1.82-4.34-1.12-5.34-7.54-7.28-10.92-3.78-6.6-7-13.07-10.26-19.95-2.36-5-5.35-10.34-6.62-15.76-2.23-9.54-5.14-18.85-7.55-28.34-1-3.93-2.61-7.68-3.07-11.7-.17-1.53-.76-2.57-1-3.88-.52-3.27,1.09-4.85,4-5.84a84.871,84.871,0,0,1,9.71-2.47c1.13-.21,4-.12,4.17-.16,2-.55,26.87-6.72,30.28-8.79-1-1.76-1.19-3-2.65-4.49a41.565,41.565,0,0,1-3.64-4.71c-1-1.24-2.47-2.17-3.35-3.47-1.2-1.77-1.67-3.47-3.56-4.56" fill="#68cec6"/>
      </g>
    </g>
  </g>
  <path id="Path_863" data-name="Path 863" d="M485.16,206.62A90.431,90.431,0,0,1,499.09,201c6.57-2.06,6.7-1.82,9.88,5.35.26.57.46,1.19,1.09.74,29.09-15.49,68.17,2.76,83.35,30.06,17.83,28.62,4.09,68.07-23.35,85.22-9.25,7.3-25.74,8-36.95,12.55-10.78,4.38-16.61,12.43-11.1,29.72,1.29,1.05.24,2.46,0,3.55-1.44,7.28-.42,16.13.6,23.4,14.37-5,25.45-11.14,40-15.92,1.69-.32,4.42-.49,5,1.36,3.47,10.25,7.56,20.71,10.1,30.86.58,2.33-.39,2.52-3,4-14.84,8.28-75.37,29.49-86.05,32.66-2.23.66-5.1-2.21-5.63-3.66-3.56-9.55-7.82-19.67-9.5-23.88-1.94-4.85-1.61-7.22,2.13-8.34s9-4,12.81-4c-2-4.84-10-10.92-6.07-12.6s7.78-3.88,7.78-3.88a23.83,23.83,0,0,0-7.39-14.93c-7.13-6.94-17.24-7.35-26.24-6.74-21.06,3.19-32.06,25-43.31,40.51,0,1.34-.3,2.54-2.11,2.4-6,5.91-9.93,15.53-14.73,22.87,10.64,4.46,22.32,1.55,33.09,4.86,1.23,2.24,5.42,9.57,3.32,11.38-13.2,10.1-29.6,15.83-44.7,22.26-20.26,6.09-40.6,2.93-60-4.65a134.875,134.875,0,0,1-27.31-18.32,126.6,126.6,0,0,1-21.54-25.42c-6.09-9.8-10.23-20.68-11.39-25.3-2.29-9-11.35-26.32-7.55-34.59a1.68,1.68,0,0,0-.2-1.4c-2-1.95-2.21-4.7-3.39-7-.94-2.46-6.17-5.74-3.11-7.91,11.81-10.33,10.76-1.57,17.88,7.1,6.15,8.92,14.28,16.39,21,25.05a125.27,125.27,0,0,0,47.53,36.58c15.57,6.1,34,17.36,51.38,16.21,4.15,6.67-7.14,5.48-11.62,4.29s-16.71-5.13-33.6-13.22c-16.59-8-33.41-18.84-39.82-24.26-11.62-9.91-20.74-24.3-33-33.26,3.67,23.87,25.84,42.11,41.78,59.21,24.74,21,76.62,39.52,105.73,19.84-.92-1-2.14-2.07-1.59-4-27.82,0-20.61-14.34-31.3,8-6.8-3,0-8.14,1-12.15,3.77-3.28,3.77-40.33,10.63-35,2.84,1.24,7,4.26,9.91,2.62,12.53-14.63,22.59-33.71,41.83-40.23,10.24-2.81,20.77-1.56,29.07,3.38a33.63,33.63,0,0,1,14.36,18.77c1.95,7.22,1.54,10.37,3.76,15.36,2.6-.52,5.66-2.17,9.05-3.48,4.91-1.89,9.9-3.49,9.9-3.49s-20.12-26.16-8.08-28a48.309,48.309,0,0,0,7.31-.91s-1.49-3.66.22-17a19.34,19.34,0,0,1,11.81-15.44c12.58-5.47,33-7.36,42.4-16.57,35.16-27.73,35.67-75.48-4.54-98.37C552,206.42,530.6,202,513.66,210c-.93.6-3.45,1.84-3.45,1.84a25.3,25.3,0,0,1,1.36,5.63c.19,2.52-.47,2.91-4.05,5.48a56,56,0,0,1-13.08,6.39c-.77.28-1.74.71-1.26,1.7A99.308,99.308,0,0,1,497.84,244c4.5,10.6,6.63,22,11.16,32.51.53,1.56-.78,2.88-3.26,4.44a83.744,83.744,0,0,1-11.74,5.5c-25.57,10.65-50,24.19-75.87,34.47C388,331.78,335.06,361.13,329.72,359s-31.27-74.36-46-111.82a110.928,110.928,0,0,1-8.08-19.12c-.36-1.32,1.64-2.63,4.37-3.82s58.81-22.51,58.81-22.51A56.909,56.909,0,0,1,332,187.2a42.2,42.2,0,0,1-1.16-15.53c1-9.71,3.88-16.68,14.17-25.62,7.95-8.59,18.54-14.85,30.59-15.4,15.34-.25,30,5.34,40,15.35,7,7,8.71,19.62,8.78,21.79.16,4.12.59,4.66.59,4.66s25.17-8.06,35.34-10.36c6.58-1.48,7.08-.49,8.32,3.17,5.04,14.74,12.47,32.61,16.53,41.36ZM338.67,328c12.11-2.44,25-10.14,36.65-14.15,11.38-5.07,77.53-29.45,94.28-40.21,2.4-1.53,3.78-2.79,3.86-3.67-7.7-22.3-17-44.21-22.84-67.25-1.91-6.13-5.08-16.42-7.18-15.8s-16.9,4.07-19.81,8.68c-4.18,14.93-20.6,18.37-19.2,26.53.53,3.45,0,7.18,2,10.23a5.32,5.32,0,0,1,.69,4.46c-1.65,3,1.66,17.74-.32,21.43s-30.54,9.7-33.18,6.69-4.71-14.83-4.81-21.25c.44-4.2-2.29-20.24-3.67-20.63-5.3-1.49-12.1-6.73-12.1-6.73s-35.32,11.93-49,16.88c-2.39.87-3.71,2.78-3.2,4.66,2,7.57,9.16,20.39,14.55,35.22s13.37,36.35,23.28,54.91ZM446.06,182c3.5-1.17,5.1,9,8.22,17.19,2.75,11,6.37,21.95,9.85,32.83,1,7,11.27,28,13.08,38.77.61,3.6-1.45,4.85-3.78,5.82-15.37,6.36-75.65,32.74-91.78,38.51-12.32,4.94-24.16,10.87-36.23,16.4-3.78,2.54-8.31,3.92-10.48-1.34-11.85-19.76-34.77-85.24-38.51-93.46-1.45-3.2-.62-4.2,2.33-5.53s38-13.16,51.33-16.4c.62-.07-9.31-10.28-9.31-10.28a17.509,17.509,0,0,0-4.41,1.49c-12.62,5.55-47.07,19.56-52.07,21.21-1,.25-4.13,1.94-3.11,4.49,5.38,12.54,10.32,25.27,15.26,38,8,19.07,14.48,39.4,22.69,58.45,3.78,8.79,7,17.44,12.54,25.34,13.35-4.91,26.15-11.57,39.14-17.16,4.57-2.28,75.6-31.69,103.3-45.91,8.9-3.59,22.12-10.38,26-12.33s4-3.78,3.29-6.61c-3.91-15.36-22.49-61.48-27-73.16-5.08-13.21-9.24-26.93-9.9-29.11-1.36-4.47-5.68-2.71-8.88-1.73-10.58,2.26-32.26,9.1-32.26,9.1s.78,9.07.23,12.51c4.95-1.72,16.97-5.97,20.46-7.09Zm-62.9,58.31c-1.56-17.43-3.43-35.72-8.19-52.71-3.14-3.94-7.07,2.65-13.18-7-2.6-3.28-4.06-6.77-2.06-11.11s7.73-9.2,10.18-3.66a79,79,0,0,1,5.81,13.71c.53,2.68,4.91.9,3.48-1.17a27.66,27.66,0,0,1-.08-18.57c2.39-6.45,11-6,10.8,1.23.67,14.65-7.89,20.52-3.92,22.16s5.77,2.21,6.21-1.19c4.22-28.06,20.65-11.73,4.31,4.52-3.23,3.08,2.19,50.33,2.19,50.33l3.78-1.84s-.81-8.28-1-9.59c-.34-3.21-2.48-8.18.27-10.17,2.2-1.59,4.13-2.91,9.67-7.61,3.2-2.71,8.12-6.73,9.9-14.55,2.2-9.64.81-19.63-.87-30.42-3.23-20-28.42-28.77-46.12-28.13-18,2.22-34.49,17.44-40,34.44-4.49,20.93,15.56,43.6,34.77,51.63,2.4,1,3.59,21.22,3.27,19.35s6.82,2.81,10.78.31Zm-44.72,202.9c-22.31-7.7-55.26-48.26-60-56.46s-7.3-12.27-9.26-20.66c-1.11-4.74-6-1.79-4.44,2.05,1.8,11.84,7.61,35.35,18.83,52.72,11.92,18.47,29.37,30.54,33.82,33.44,23.06,17.14,54.85,21,80.88,8.35,3-2.46,27.7-11.64,24.4-14.24-26.55,12.07-59.07,8.82-84.23-5.2Zm168.11-21.69c-2.31,1.57-4.4,4.22-7.84,3.24-5.53.44-8.32-2.66-8.37-6.42,0-2.54,3.65-7.64,3.65-7.64s-2.39-3-4-2.65c-4,1.36-9.15,1.83-12,4.5.59,7,4.39,13.42,7.5,19.69,20.34-6.89,77.87-28.95,86-34.05-1.57-2.74-5.52-20.25-8.71-19.05-8.83,2.37-38.64,15.34-39.85,16.49a33,33,0,0,1,10.93,1.75c4.53,1.71,3.54,11.57-4.66,14.74-13.17,7.78-24.24-4.25-11.06-14.9-2.82,1.42-18.82,7.34-18.82,7.34a11.4,11.4,0,0,0,1,4.71c.83-1,4.3-1.56,7.19.92s4.16,8.28-.96,11.33ZM381.22,184c-1.17,1.25-3.49,1.41-2.55,4.21,4.57,14.89,5.39,31.74,6.36,44,.18,2.35,1,8,1,8s8.7-.19,8.68-1.91c-.07-5.7-2.19-39.14-3.32-50.29-4.49.99-7.49-.93-10.17-4.01ZM572.51,402.81s-41.58,16.8-55.42,22.79c-9.05,3.89-20.55,7.24-30,10-1.14.2.61,3.18,1.94,4.85,7.69-1.49,66-21.13,83.46-30.66,3.65-1.98.02-6.98.02-6.98Zm-80.57-177c4.88-2.12,8.95-4.42,13.62-6.37,1.06-.6,3.13-.88,2.23-3.63-1.71-4-.9-13.76-7.87-11.53a47.371,47.371,0,0,0-13.58,6,131.233,131.233,0,0,1,5.6,15.52ZM372.42,244c.26,3,.5,9.21,4.82,7.94,6-1.11,30.08-2.39,26-12.32-.55-.61-3.8,1.82-9.85,3.43-6.54,1.77-16.04,2.67-20.97.95Zm32,5.64c-9.56,7.2-30.89,2.83-30.06,7.19.66,2.23.88,4.87,3,5.43,6.77,1.78,21.11-3.9,26.2-6.11,1.25-.5,1-4.69.85-6.47ZM383,176.39c2.74-3.69,7.18-15.84,2.1-17.84C378.05,159.7,379.92,171.89,383,176.39ZM372.37,180c-2.08-3.84-4.42-15.59-7.43-12.84s-4.95,3.14-1.26,10.32,8.78,5.62,8.69,2.52ZM519.86,402c-6.28,6.19-3.21,9,4.46,8,2.58-1.5,11.39-5.52,8.4-8.48s-6.19-.07-8.47-.49c.94,2.36,2.8,4.51.51,6.87-2.36-.38-3.5-.51-4.9-5.9ZM394.93,426.69c1.44-.05,4.45-6.95,6.59-10.29s4.65-7.32,3.8-8.13c-1.45-.32-5.76-2.56-6.38-.61-1.25,4.93-3.54,13.9-4.01,19.03ZM261.68,347c-3.57,2.52-3.71,3,1.63,10.83,1.51,2.23,4.18-.1,6.69,0C267,354,265.51,349.64,261.68,347ZM517,368.8c-3.77.15-7.42.28-7.71,2.19-.67,4.29,7.23,12.75,9.12,16.3-.28-4.2-1.23-14.23-1.41-18.49ZM395.3,182.64c2.4-2.47,6.49-9.06,4.95-11.63C396.42,171.06,395.18,179.44,395.3,182.64Zm90.06,212c1.36,1.56,4.65,7.27,8.27,7.74.37-3.72-2.25-10.07-2.25-10.07s-7.38.8-6.02,2.35Zm16.31,24.68c1.56-2.16,4.45-2.15,4.91-4.61C505,413,503.06,412.88,501,413c.21,2,.41,3.84.67,6.34ZM427.6,447.57c.45-2.34.56-6.33-2.2-5.37-.54.35-1.13.66-.69,1.35C425.48,444.75,426.37,445.87,427.6,447.57Zm68.63-33.89c-4.62.95-1.18,6.74,1.17,6.6C498.78,419.42,495.51,415.15,496.23,413.68Z" transform="translate(-252.67 -105.039)"/>
  <path id="Path_864" data-name="Path 864" d="M330.41,140.36c-2.05,3.36-17.19-6.71-15.28-9.87C318.92,126.5,332.45,137,330.41,140.36Z" transform="translate(-252.67 -105.039)"/>
  <path id="Path_865" data-name="Path 865" d="M417.06,118.57c-2.34-3.57,4.64-6.33,7.95-8.41,1.72-1.09,4.53-3.32,5.47-.89s-11.08,12.86-13.42,9.3Z" transform="translate(-252.67 -105.039)"/>
  <path id="Path_866" data-name="Path 866" d="M371,117.51c-.05,2.6-3.14,2.89-4,.56-.61-2.78-2.77-11.63.09-13,.65-.24,1.92,1,1.95,1.38A31.431,31.431,0,0,0,371,117.51Z" transform="translate(-252.67 -105.039)"/>
  <path id="Path_867" data-name="Path 867" d="M474.88,213.62c2.69-1.14,4.29,3.63,5.24,6.76s1.28,4.63,1.95,6.41c1.32,3.54-6.37,7.69-9.13,5.62-1.55-1.16-5.06-9.2-6.12-12.07s-.21-3,2.24-4S473.32,214.3,474.88,213.62Zm-.58,15.11s4.13-1.29,4.27-2.14c.19-1.09-2.37-9.22-3.3-9.12a15.06,15.06,0,0,0-5,2.33c-1.16,1.46,4.03,8.93,4.03,8.93Z" transform="translate(-252.67 -105.039)"/>
  <path id="Path_868" data-name="Path 868" d="M561.15,394.05c.35,9.74-12.42,13.26-16,3.59-1.38-5.13,3.33-9.82,7.82-11.24C556.5,386.1,561.44,390.09,561.15,394.05Zm-3-.36c-.35-2.71-6.48-4.19-8.16-1-.79,1.24-1.76,2.55-.76,4.27,2.98,4.04,9.24-.56,8.88-3.27Z" transform="translate(-252.67 -105.039)"/>
</svg>
