<svg id="overview" xmlns="http://www.w3.org/2000/svg" width="413.665" height="313.254" viewBox="0 0 413.665 313.254">
  <path id="Path_997" data-name="Path 997" d="M318.3,220.3c-5.4,10.9-7.6,22.8,5.4,32s19.9,11.4,26.2,5.2,11.7-18.7,11.7-29.2-11.7-22.6-27.7-22.6C334,205.8,323.8,209.5,318.3,220.3Z" transform="translate(-204.162 -149.381)" fill="#ebe200"/>
  <g id="Group_56" data-name="Group 56" transform="translate(-204.162 -149.381)">
    <path id="Path_998" data-name="Path 998" d="M326.1,151.4c7.4-.2,14.9-.2,22.3-.5,4.5-.2,9-.6,13.5-.9l8.1-.6a2.7,2.7,0,0,1,2.1.7c1.9,1.6,3.2,3.7,4.8,5.6a2.174,2.174,0,0,1,.3,2.3c-.3.6-.5,1.2-.8,1.8-3,5.2-17.6,34.6-19.8,39.3-.3.5-.5,1.1-.8,1.6a5.027,5.027,0,0,0,.1,5.4c3.5,6.4,3.7,21.6-2.7,31.9-.9,1.4-1.6,2.9-2.5,4.4a2.742,2.742,0,0,0,.2,3.6c1.8,2.4,6.4,8.6,6.4,9.5a2.472,2.472,0,0,1-1.8,2.6c-1.8.6-28.1,8.2-29.6,8.6a1.627,1.627,0,0,0-1.2,1.2c-.9,2.4-2,4.8-1.9,7.4,0,1.1-.2,1.3-1.4,1.3-2,.1-3.9.3-5.9.3a1.881,1.881,0,0,0-2,1.2c-.6,1.3-3.6,7.9-4.7,9.9-.7,1.4-1.5,1.7-2.9,1-1.8-.9-3.5-2-5.3-3-.1-.1-.2-.1-.3-.2-1.8-1.5-1.9-2.5-.7-4.5.9-1.4,1.7-2.9,2.5-4.4.5-1,.4-1.2-.7-1.1-.6,0-14.2,1.4-15.4,1.5-1.3.1-1.4.1-1.7,1.3-.6,2.7-3.8,25.5-4,26.8a12.618,12.618,0,0,0,3,10.2,13.447,13.447,0,0,1,1.1,1.4,1.55,1.55,0,0,1-.2,2.1c-.6.6-1.1.8-1.7.2a10.957,10.957,0,0,1-2.1-2.2,12.294,12.294,0,0,1-1.4-2.5,11.547,11.547,0,0,0-2.1-3.3,4.018,4.018,0,0,1-.7-4.2c.5-1.4,2.7-17.4,3.1-20.2s.8-5.7,1.2-8.5v-.7c.1-.6-19.9-1-20.8-1-1-.1-1.1-.1-1.3,1-.5,1.9-5.4,30.7-5,31.4.5,1,3.8,6.7,5,8.5a2.19,2.19,0,0,1,.3,2.2,1.42,1.42,0,0,1-2.3.7,4.863,4.863,0,0,1-1.1-1.4c-1.3-2-5-7.5-5.6-8.1a2.914,2.914,0,0,1-.8-3.3c1.5-5.3,4.5-21.1,4.7-23.4.3-2.3.7-4.6,1-6.9.2-1,.1-1.1-.9-1.2-2.1-.3-37.8-2-40.2-2.2a4.863,4.863,0,0,1-2.8-1.3c-2.2-1.9-5.6-8.1-5.9-8.7a3.3,3.3,0,0,1,0-3.9c2.6-3.4,8.7-16.3,10-18.9a4.509,4.509,0,0,0,.3-1.1,3.352,3.352,0,0,0-1,0,1.638,1.638,0,0,1-2-.8,1.805,1.805,0,0,1,.1-2.2,2.258,2.258,0,0,1,1.1-.8,24.573,24.573,0,0,1,2.9-.9,2.939,2.939,0,0,0,2.1-1.8c.6-1.6,1.3-3.1,2-4.6a3.822,3.822,0,0,0-.1-3.3c-1.9-4-9-17.2-10.6-19.8a18.759,18.759,0,0,1-1.2-1.8,1.884,1.884,0,0,1,1.4-3.1c1.1-.2,24-2.8,26.8-2.9a2.373,2.373,0,0,0,2.3-1.6c1.1-2.6,3.2-8.3,3.3-8.6.1-.5,9.8-20.7,15.3-29.9l.9-1.8a2.713,2.713,0,0,1,2.5-1.8c1.5-.2,3.1-.2,4.7-.3,3.2-.2,25.2-1.6,30.2-1.9,3.3-.2,6.6-.5,9.9-.7,1.2,0,20.4-.2,20.4-.1ZM290.9,273.3a70.958,70.958,0,0,0,13-1.5,2.622,2.622,0,0,0,2.1-1.7,27.18,27.18,0,0,1,1.1-2.5,1.358,1.358,0,0,0-.2-1.6c-.7-1-1.4-2-2-3a1.747,1.747,0,0,1-.3-1.7,2.6,2.6,0,0,1,4.1-.4c.2.2.4.5.6.7.3.3.6.3.7-.1.5-1.4,1-2.8,1.4-4.3.1-.3-.2-.8-.4-1.1a6.07,6.07,0,0,0-1-.7c-6.1-4.1-8.3-7.4-7.5-25.1a86.542,86.542,0,0,1,3.7-16.7c2.1-6.4,7.8-12.3,14.6-15.4,6.9-3.1,19.7-4.6,28.6,1.2l1.8,1.2c.9.5,1,.6,1.5-.4a56.01,56.01,0,0,0,2.7-5.5c5.4-11.4,10.5-22.9,16.8-33.8.2-.4.3-.9.5-1.3a7.518,7.518,0,0,0-1.5,0c-1,0-23.8,1.7-25.8,1.8-4.3.3-8.6,1-12.9,1-3,0-6,.5-9,.6-7,.2-29.1.4-33.1.4-7.2.1-21.9.2-22.1.2a2.372,2.372,0,0,0-2.6,1.5c-.8,1.5-22.2,46.7-22.4,47-1,2.2-18.3,39.5-19.7,42-1.7,3-6.8,13-7.6,15.1-.5,1.3-.4,1.4,1,1.4.9,0,4.8.7,4.9.7,2.8.6,30.4,1.8,36.4,2.1,6.4.2,28.1-.1,32.6-.1Zm-48.8-75.5h.3a2.044,2.044,0,0,1,1.9,1.4,1.681,1.681,0,0,1-.9,1.9,5.732,5.732,0,0,1-1.4.4l-2.1.3a2.3,2.3,0,0,0-2.2,1.4c-3.4,6-6.9,12-10.3,17.9-1,1.7-1.9,3.4-2.9,5.2a1.988,1.988,0,0,0,0,2.1,6.015,6.015,0,0,0,.9,1.3c.7,1.1,1.5,2.2,2.1,3.3a2.107,2.107,0,0,1-.8,3.1,8.178,8.178,0,0,1-1.9.9c-1.7.6-3.4,1.1-5.2,1.6a2.419,2.419,0,0,0-1.8,1.6c-3.1,6.6-6.2,13.2-9.4,19.8a3.511,3.511,0,0,0,.2,3.7c1,1.4,2.1,2.6,3.2,3.9,1.1,1.2,1.2,1.2,1.9-.2,3.6-7.2,7.4-14.4,10.9-21.7,4.4-9.1,8.5-18.4,13.1-27.4,4.5-9,8.5-18.3,12.4-27.6,1-2.4,2.1-4.8,3.2-7.3.7-1.5,1.3-3,2-4.4.9-2,1.8-3.9,2.8-5.8,1.1-2.2,2.3-4.3,3.5-6.5a13.967,13.967,0,0,0,.9-1.7,2.173,2.173,0,0,0-.5-2.8c-.8-.8-1.6-1.7-2.3-2.5-.6-.7-.7-.7-1.2.2l-2.4,4.2a342.33,342.33,0,0,0-14.7,32,5.637,5.637,0,0,0-.4,1.2c-.1.4.1.5.5.5,0,.1.2,0,.6,0Zm59.3-38.2a24.329,24.329,0,0,1,3.8-.3c8-.2,16.1-.6,24.1-.7,5.5,0,10.9-.7,16.3-1,5.7-.3,11.4-.6,17.1-1l9.3-.6c1.3-.1,1.4-.5.6-1.6A5.476,5.476,0,0,0,368,152c-4.4.1-24.6,1.2-30.4,1.3-6.2.2-26.3.1-30,.3-5.9.3-31.4,1.7-36.3,2.1a74.221,74.221,0,0,0-7.6,1c-.9.2-1,.7-.4,1.4a4.813,4.813,0,0,0,4.1,2.1c3.4-.1,6.8-.2,10.2-.2,8-.1,15.9-.2,23.8-.4ZM353.6,211c-.8-4.7-3.8-10.4-15.6-12.4a25,25,0,0,0-14.3,2.1c-1.4.6-2.9,1.2-4.3,1.9a12.765,12.765,0,0,0-4.5,3.5,43.016,43.016,0,0,0-2.9,4.5c-4.8,9-7.3,18.5-6.5,28.7a34.03,34.03,0,0,0,1.7,8.3,8.643,8.643,0,0,0,4.6,5.3c1.4.7,8.1,1.9,10,2,12.5-.3,19.6-6.4,21.4-7.4a6.039,6.039,0,0,0,2.6-2.4,19.6,19.6,0,0,1,1.9-2.8,40.153,40.153,0,0,0,4.6-8.9c1.7-4.3,4.4-11.3,1.3-22.4Zm-118.4-8.3c-.3-.1-.5-.2-.7-.1-1,.1-1.9.2-2.9.3-5.9.5-11.7,1-17.6,1.5-2,.2-2.1.2-1.1,2.1,2,3.7,4,7.4,5.9,11.1.9,1.6,1.6,3.4,2.4,5,.5.9.8.9,1.4.1l.6-.9c1.1-1.7,2.1-3.5,3.2-5.2,1.8-2.8,7.3-11.6,8.2-13.1a1.7,1.7,0,0,0,.6-.8Zm91.7,59.5a10.623,10.623,0,0,0,1.9-.4c3.7-.8,7.5-1.5,11.2-2.5,3.5-1,6.9-2.4,10.3-3.6a4.18,4.18,0,0,0,1-.4c.8-.4,1-.9.6-1.8a9.8,9.8,0,0,0-1.3-2.2c-.8-1.1-1.7-2.1-2.6-3.2-.4-.5-.7-.4-1.2,0a47.867,47.867,0,0,1-16.5,8.8,5.226,5.226,0,0,0-3.9,4.8C326.5,261.8,326.8,262,326.9,262.2Zm-21.3,23.2a5.926,5.926,0,0,0,.6-.4,10.907,10.907,0,0,0,.6-1.1c2-4.1,4.1-8.3,6.1-12.4.1-.3.3-.5.4-.8.2-.5,0-.8-.6-.8-1,0-2,.3-3-.2-.1-.1-.5.1-.7.3-.2.3-.3.6-.5.9l-5.1,11.4c-.1.3-.3.5-.3.8,0,.2,0,.6.1.7A24.975,24.975,0,0,0,305.6,285.4Zm9.5-28.2a2.361,2.361,0,0,0-.9.6c-.8,1.9-1.6,3.8-2.3,5.7-.2.5,0,.8.4,1.1a2.226,2.226,0,0,0,3.4-.8,23.133,23.133,0,0,0,1.8-3.5c1.2-2.4,1.2-2.4-1.7-3a2.639,2.639,0,0,1-.7-.1Zm3,15.8c.7,0,1.4.1,1.7-.6.6-1.3,1.2-2.6,1.7-3.9,0-.1-.2-.4-.3-.4-1.5.3-2.9.6-4.3.9-.1,0-.3.2-.4.4a4.628,4.628,0,0,0-.9,3c.8.2,1.6.5,2.3.7.1-.1.1-.1.2-.1Zm.7-9.2a31.736,31.736,0,0,0,3.5-.6,2.189,2.189,0,0,0,1-.9,30.058,30.058,0,0,0,1.1-3.2c.3-.9-.1-1.3-1-1.1a2.22,2.22,0,0,0-1.1.5,15.664,15.664,0,0,0-3.5,4.9c-.1.1,0,.3,0,.4Zm-98.5-28.5c1.2-.4,2.3-.7,3.4-1.1.2-.1.5-.6.4-.8A25.568,25.568,0,0,0,223,231c-.3-.4-.7-.4-1,.1-.6,1.2-1.2,2.3-1.8,3.5-.2.1,0,.4.1.7Z" fill-rule="evenodd"/>
    <path id="Path_999" data-name="Path 999" d="M352.6,317.9a5.507,5.507,0,0,1,1.4.9c2.8,3.1,5.6,6.3,8.3,9.4,1.2,1.4,2.4,3,3.6,4.5.6.8.7.8,1.7.4a27.475,27.475,0,0,0,5.2-3.1c1.1-1,2.6-.7,3.9-1a1.969,1.969,0,0,1,.8.4c.9.7,1.8,1.5,2.6,2.2,1.4,1.3,2.7,2.7,4.1,4,.7.7,1.4,1.3,2.1,2,1.4,1.6,2.9,3.1,4.1,4.7a53.293,53.293,0,0,0,6.3,7.1c1.8,1.8,3.6,3.7,5.4,5.5,1.3,1.3,2.6,2.5,3.8,3.8,1.1,1.2,2.2,2.4,3.2,3.7,1.5,1.9,1.5,2.8,0,4.6a29.766,29.766,0,0,1-2.7,2.3c-1,.8-2.1,1.5-3.1,2.4l-5.7,5.7a27.466,27.466,0,0,1-2.6,2.2c-.9.8-1.9,1.6-2.8,2.5a56.056,56.056,0,0,1-7,5.9c-.9.6-1.7,1.3-2.6,1.9-1,.7-1.4.8-2.2,0-1.6-1.7-3.2-3.5-4.8-5.3-.9-1-1.8-1.9-2.6-2.9-2.1-2.6-4.6-4.9-6.9-7.3a6.072,6.072,0,0,0-1-.7c-2.3-1.8-2.4-1.8-4.7-.2a15.934,15.934,0,0,1-4.2,1.9,1.756,1.756,0,0,1-2-.7c-.7-.9-34.3-34.8-37.7-37.3-2.3-1.7-3.7-3-2-4.4,1.4-1.2,33.5-13.5,35.6-14.7a12.4,12.4,0,0,1,2.5-.4Zm-1.5,3a8.33,8.33,0,0,1-1.5.4c-3.2,1.1-29.9,12.6-31.8,13.6a.49.49,0,0,0-.1.9c.8.7,36.2,35.6,37.3,36.5a1.84,1.84,0,0,0,2.4.2c2.3-1.3,24.1-13.5,25.3-14.1,1.8-.9,1.9-1.4.7-2.9-.2-.2-.4-.5-.6-.7-1-.9-24.8-27.4-27.9-31a23.12,23.12,0,0,0-2.9-2.4A1.624,1.624,0,0,0,351.1,320.9ZM387.3,357a2.3,2.3,0,0,1-1.2,2.2c-.6.3-18.2,10.3-19.7,11.1-.9.5-.9.5-.1,1.2,1.4,1.3,12.8,13.3,13.8,14.3a7.837,7.837,0,0,0,1.5,1,.948.948,0,0,0,1.3-.2c1.7-1.3,11.8-9.4,13.9-11.8a95.115,95.115,0,0,1,8.3-7.6c2.1-1.3,2.2-2.1.6-3.9-2.2-2.4-10.9-11.6-13-13.8-1.1-1.1-14.8-16.8-17.1-17.4-.6-.2-5.9,2.7-6.3,3.1-.9.7-1,1.1-.2,1.9,1,1.1,16.1,16,17,17a5.8,5.8,0,0,1,1.2,2.9Z" fill-rule="evenodd"/>
    <path id="Path_1000" data-name="Path 1000" d="M465.1,378.2c4.2.4,8.4,1.3,12.6,1.8h.2l9.6,1.2c2.2.3,4.4.5,6.6.8a1.2,1.2,0,0,1,1.2,1.6c-.1.7-.5,1.3-.6,2-.5,2.3-3.6,14.4-4.6,18.2-.1.5-.3,1-.4,1.6-.4,2.3-.8,4.7-1.3,7a1.949,1.949,0,0,1-2.1,1.5,4.711,4.711,0,0,1-1.7-.4c-3-.6-26-5.3-29.6-6.1-1.7-.4-18-3.9-18.7-3.9-1.4,0-1.9-.4-1.7-1.9a30.084,30.084,0,0,1,1.1-4.3c.8-2.8,3.1-10.3,3.5-11.3.6-1.4,3.7-7.8,4.6-9.5a1.476,1.476,0,0,1,1.5-.8c.4.2,15.9,2.2,19.8,2.5Zm19.8,33.2c.5,0,1,0,1.2-.6.4-1.2.8-2.5,1.1-3.8.3-1.4.5-2.8.9-4.2.6-2.9,1.2-5.8,2-8.6s1.4-5.6,2-8.4c.3-1.3.2-1.4-1.1-1.7a99.7,99.7,0,0,0-13.3-2.2c-1-.1-1.9-.2-2.9-.3-1.9-.3-12.4-2-15.8-2.4-3.9-.4-7.9-.7-11.8-1.1a2.092,2.092,0,0,0-2.3,1.3c-2.5,4.6-5.9,14.8-5.9,15-.4,1.7-.8,3.5-1.3,5.2-.5,1.9-.5,2,1.6,2.4,3.4.7,6.9,1.1,10.2,2.1,3.7,1.1,7.4,2,11.1,2.9a5.019,5.019,0,0,0,1.2.2c1.5.3,3,.6,4.6.9,1.4.4,15.4,2.8,18.5,3.3Z" fill-rule="evenodd"/>
    <path id="Path_1001" data-name="Path 1001" d="M581.4,415.7c.3.2.7.3,1,.5,1.3.9,2.7,1.8,4,2.7,3.7,2.3,12.3,7.9,13,8.4,1.6,1.1,14.4,10.7,14.9,11.2,1.1,1,2.1,2.1,3.2,3.1a.829.829,0,0,1,.3.8,6.472,6.472,0,0,1-1.1,3.2,71.053,71.053,0,0,0-4.6,6.2c-1.9,2.9-7.1,9.5-7.5,10.1-.5.7-.9.9-1.7.6-1.5-.7-2.9-1.4-4.4-2.1-2.8-1.2-17.2-9.8-18.1-10.2-1.9-1-15.8-9.5-18-11-1.3-.9-1.4-1.5-.3-2.7.4-.4,5.1-5.9,6.1-7a.349.349,0,0,0,.1-.2c1.8-2,8.6-9.3,10.6-11.3a12.876,12.876,0,0,1,1.7-1.6C580.8,416,581.1,415.9,581.4,415.7Zm34.2,26.8c-.2-.3-24.4-18.2-26.1-19.3-2.2-1.4-4.4-2.8-6.7-4.2-1.1-.7-1.3-.6-2.2.3s-10.9,11.8-11.9,12.9c-.6.7-4.6,3.6-4.5,4.4,0,.5,2.3,2.2,2.4,2.2.6.4,2.2,1.6,2.3,1.6,4.2,2.7,26,15.5,28.6,17,1.5.9,3,1.7,4.5,2.6a.83.83,0,0,0,1.2-.2,20,20,0,0,1,1.9-2.2c3.4-3.8,6-8.2,9.1-12.3a10.54,10.54,0,0,0,.7-1.1,6.121,6.121,0,0,1,.7-1.7Z" fill-rule="evenodd"/>
    <path id="Path_1002" data-name="Path 1002" d="M511.8,383.3c.9-4.2,1.8-8.3,2.8-12.4.3-1.3.7-2.5,1.1-3.8.2-.7.8-1,1.8-.8,1.2.2,13.4,3.1,18.4,4.2,4.1.9,19.2,4.2,19.7,4.4a1.453,1.453,0,0,1,1,1.7l-1.5,9c-.2,1.4-.5,2.8-.7,4.3-.2,2.8-2.1,11-2.1,11s-.4,1.8-2.7,1.4-4.3-1.1-5.5-1.3c-2.2-.5-4.4-1-6.7-1.4-2.5-.4-5-1.2-7.5-1.8-3.5-.9-16.8-1.8-17.4-1.8-1.2,0-1.8-.4-2-1.6a88.359,88.359,0,0,1,1.3-11.1Zm42-2.9c.1-2.7-.2-3.1-2-3.7-3.4-1.2-15-3.6-17.2-4.3a126.747,126.747,0,0,0-15.1-3.3c-2.2-.4-2.2-.4-2.7,1.9-.4,1.7-3.6,16.4-3.8,17.7a25.568,25.568,0,0,0-.5,2.7c-.3,2.3.6,2.6,2.3,2.9,1.6.3,16.3,2.1,17.6,2.4,4,.9,8.1,1.8,12.1,2.6a18.434,18.434,0,0,0,4.1.3c1.2,0,1.4-.2,1.7-1.4.3-1,1.4-4.9,1.6-5.9.4-2.3.7-4.6,1.1-6.9.1-.1.6-3.9.8-5Z" fill-rule="evenodd"/>
  </g>
  <path id="Path_1003" data-name="Path 1003" d="M264.7,240a2.781,2.781,0,0,0,1.3,2.4c2.2,2,4.5,4,6.8,5.9a32.528,32.528,0,0,0,4.2,3.1,1.376,1.376,0,0,0,2.1-.3,1.808,1.808,0,0,0-.1-2.3,4.508,4.508,0,0,0-1.4-1c-3.4-1.4-5.6-4.2-8.3-6.5a1.7,1.7,0,0,1-.4-2.3c.5-.9,1.1-1.8,1.7-2.8.2-.4.6-.8.6-1.3a2.168,2.168,0,0,0-.5-1.4c-.4-.4-1-.2-1.5.1a6.034,6.034,0,0,0-.8.8c-1,1.5-2.1,2.9-3.1,4.4a4.274,4.274,0,0,0-.6,1.2Zm25.1-17.8c0-.9-.9-2.1-1.6-2.1a2.246,2.246,0,0,0-1.8,2.1,1.828,1.828,0,0,0,1.7,1.7,1.752,1.752,0,0,0,1.7-1.7Z" transform="translate(-204.162 -149.381)" fill="none"/>
  <path id="Path_1004" data-name="Path 1004" d="M322.4,252.2v.2c2.3-.2,4.6-.2,6.8-.6a17.654,17.654,0,0,0,9.7-4.4c6.1-5.8,10.7-12.4,12.4-20.8a20.741,20.741,0,0,0,.6-5c-.2-3.3-.6-6.7-1.1-10A11.6,11.6,0,0,0,346,204a17.077,17.077,0,0,0-10-3.5h-2.7a19.966,19.966,0,0,0-11.7,3.3,19.56,19.56,0,0,0-5.8,5.3c-3.2,4.7-5.9,9.7-6.9,15.5a37.4,37.4,0,0,0-.8,8.2c.1,2.8.1,5.5.1,8.3a8.034,8.034,0,0,0,1,4.3,16.235,16.235,0,0,0,4.8,5.3,7.67,7.67,0,0,0,4.4,1.4A26.392,26.392,0,0,0,322.4,252.2Z" transform="translate(-204.162 -149.381)" fill="none"/>
  <path id="Path_1005" data-name="Path 1005" d="M326.9,262.2c-.1-.2-.4-.4-.3-.6a5,5,0,0,1,3.9-4.8A44.628,44.628,0,0,0,347,248c.4-.4.7-.5,1.2,0,.8,1.1,1.7,2.1,2.6,3.2a15.915,15.915,0,0,1,1.3,2.2c.4.9.2,1.3-.6,1.8a4.179,4.179,0,0,1-1,.4c-3.4,1.2-6.8,2.6-10.3,3.6-3.7,1-7.5,1.7-11.2,2.5C328.2,261.9,327.6,262,326.9,262.2Z" transform="translate(-204.162 -149.381)" fill="none"/>
  <path id="Path_1006" data-name="Path 1006" d="M305.6,285.4c-.8-.5-1.7-1-2.4-1.5a.758.758,0,0,1-.1-.7,6.893,6.893,0,0,1,.3-.8l5.1-11.4a2.622,2.622,0,0,1,.5-.9c.2-.2.6-.4.7-.3,1,.5,2,.2,3,.2.6,0,.8.2.6.8a3,3,0,0,1-.4.8c-2,4.1-4.1,8.3-6.1,12.4a10.911,10.911,0,0,1-.6,1.1A1.1,1.1,0,0,0,305.6,285.4Z" transform="translate(-204.162 -149.381)" fill="none"/>
  <path id="Path_1007" data-name="Path 1007" d="M220.3,235.3a4.076,4.076,0,0,1-.2-.7c.6-1.2,1.2-2.3,1.8-3.5.3-.5.7-.5,1-.1a12.806,12.806,0,0,1,1.1,2.4c.1.2-.2.8-.4.8-1,.4-2.1.7-3.3,1.1Z" transform="translate(-204.162 -149.381)" fill="none"/>
  <path id="Path_1008" data-name="Path 1008" d="M264.7,240a7.814,7.814,0,0,1,.5-1.2c1-1.5,2-3,3.1-4.4a6.035,6.035,0,0,1,.8-.8,1.1,1.1,0,0,1,1.5-.1,2.168,2.168,0,0,1,.5,1.4,2.549,2.549,0,0,1-.6,1.3c-.5.9-1.1,1.8-1.7,2.8a1.628,1.628,0,0,0,.4,2.3c2.7,2.3,4.9,5.1,8.3,6.5a4.508,4.508,0,0,1,1.4,1,1.813,1.813,0,0,1,.1,2.3,1.364,1.364,0,0,1-2.1.3c-1.4-1-2.8-2-4.2-3.1-2.3-1.9-4.5-3.9-6.8-5.9a2.814,2.814,0,0,1-1.2-2.4Z" transform="translate(-204.162 -149.381)" fill-rule="evenodd"/>
  <path id="Path_1009" data-name="Path 1009" d="M289.8,222.2a1.752,1.752,0,0,1-1.7,1.7,1.915,1.915,0,0,1-1.7-1.7c0-.9,1-2.2,1.8-2.1.6,0,1.5,1.2,1.6,2.1Z" transform="translate(-204.162 -149.381)" fill-rule="evenodd"/>
  <path id="Path_1010" data-name="Path 1010" d="M313.9,250.8c-6.2-2.9-5.8-15.2-5.9-17.9a37.4,37.4,0,0,1,.8-8.2c1.1-5.7,3.7-10.7,6.9-15.5,1.5-2.2,8.4-9.1,17.5-8.7,7-.5,9.7,1.4,12.7,3.5,7.2,4.3,6.1,15.2,5.3,22.5s-6.4,15-12.4,20.8c-7.8,5.3-18,6.8-24.9,3.5Zm12.5-1.4c14.6-4.8,18.6-14,19.8-16.8,4.6-11.5,2.3-17.3,1.7-20.3-3.4-8.6-16.6-10-20.4-8.2-7.2,2.7-14.6,11.4-16.2,23.1S310.5,249.9,326.4,249.4Z" transform="translate(-204.162 -149.381)" fill-rule="evenodd"/>
  <path id="Path_1011" data-name="Path 1011" d="M329,228.9a2.488,2.488,0,0,0,2.4-.9,8.981,8.981,0,0,0,1.8-4.4,1.61,1.61,0,0,0-1.6-1.9c-2.6-.2-5.5,3.2-5,5.7a1.7,1.7,0,0,0,1.4,1.4,3.083,3.083,0,0,0,1,.1Z" transform="translate(-204.162 -149.381)" fill="none"/>
  <path id="Path_1012" data-name="Path 1012" d="M329,228.9a4.1,4.1,0,0,1-1.1-.1,1.593,1.593,0,0,1-1.4-1.4c-.5-2.5,2.5-5.9,5-5.7a1.562,1.562,0,0,1,1.6,1.9,8.981,8.981,0,0,1-1.8,4.4c-.5.9-1.4.9-2.3.9Z" transform="translate(-204.162 -149.381)" fill-rule="evenodd"/>
</svg>
