<svg id="rewards" xmlns="http://www.w3.org/2000/svg" width="369.621" height="384.666" viewBox="0 0 369.621 384.666">
  <path id="Path_1056" data-name="Path 1056" d="M488,183.5V177l-56.8-2-1,7.2-17,1.3v20l18.3,1.6,13.6,13.5,10.6.8-1.1,37-6.4,8.8-.8,12.1h31.3l.4-11.4-8.3-6.9-1.4-34.4,13.5-11.5,1.4-6.6,18-1.6V183.6H488Zm-57.8,15.2H419V187.5h11.2Zm66.7,1.6H486V189.4h10.9Z" transform="translate(-286.959 -120.234)" fill="#e5e723"/>
  <path id="Path_1057" data-name="Path 1057" d="M486.7,195.1c-.1,3.3.3,2.5,2.6,3.1a7.584,7.584,0,0,0,2.6.1c2.2-.1,2.6-.5,2.9-2.7a18.1,18.1,0,0,0,.3-2.3,1.9,1.9,0,0,0-1.9-2.3c-1.6-.2-3.1-.3-4.7-.4-.9-.1-1.5.2-1.5,1.3s-.2,2.1-.3,3.2Zm-58.2-5.2c.1-.8-.3-1.1-1-1.2-2.1-.2-4.1-.3-6.2-.5-1.1-.1-1.7.4-1.7,1.4.1,1.8.4,3.6.5,5.5.1.9.6,1.1,1.3,1.2,1.9.2,3.8.4,5.7.5.3,0,.9-.4.9-.7.3-1.5.4-5.7.5-6.2Zm64,10.7c-.3,0-4,.2-5.5.3-1.2.1-1.3,1.2-1.2,2.1,0,1,.9,1,1.6,1.1h1c2.9-.1,10.2-.4,10.9-.5a1.9,1.9,0,0,0,1.7-2.1c0-3.2.2-11.6.1-12.6-.1-1.1,0-2.6-.6-3.2-.7-.7-2.2-.7-3.3-.8-2.8-.1-5.5-.1-8.3-.1-1.1,0-1.3.7-1.5,1.7-.2,1.1.5,1.3,1.3,1.4,8.4-.1,9.3,1.5,9.2,3.2-.2,2.1-.3,9.6-2.3,9.6-1-.1-3.1-.1-3.1-.1Zm-78.4.2c-.2,1.1.2,1.4,1.1,1.6a9.7,9.7,0,0,0,1.7.1c3.1.2,6.1.4,9.2.6,1.4.1,1.9-.3,2-1.6.1-2.1-9.2-1.9-9.4-1.9-1.3-.2-1.8-1-1.7-2.5.1-3.2.5-6.4-.6-9.5-.5-1.5.5-2.5,2.4-2.2a74.032,74.032,0,0,0,8,.3c1-.1,2.2,0,2.2-1.5-.1-1.3-1.3-1.1-2.1-1.1-3.9-.2-7.9-.3-11.8-.4-1.4,0-1.9.5-1.9,1.9a19.268,19.268,0,0,1,.1,2.4M303.1,371.1l.2-.2a1.38,1.38,0,0,0,.3-.4c1.1-1.7,2.2-3.5,3.4-5.2a2.13,2.13,0,0,1,1.6-.7c.9.2.6,1,.3,1.7-1.2,2.1-2.4,4.1-3.7,6.2-1.3,2-2.4,4-2,6.7.7,4.8.2,37.4-.1,40.2a3,3,0,0,0,1.1,3.2c1.1.8,2.3,1.7,3.4,2.4,1.9,1.6,2-.4,2-.9.2-4.9.5-9.9.6-14.8.1-4.1.1-8.2.1-12.3V365.6c0-3.2,0-6.4.2-9.6.2-3.8.7-7.5.9-11.3.2-5,.3-10,.4-15,.1-2.9.1-5.7.2-8.6,0-1.1-.4-1.1-1.1-.7-1.1.6-5.3,3.7-5.5,5.1-.4,2.9-.6,5.7-.9,8.6-.4,2.1-1.4,37-1.4,37Zm144.1-96.5a1.65,1.65,0,0,0,.8,1c2.4.2,23.8-.1,26.5-.2a2.1,2.1,0,0,0,1.1-.4c1.5-1.1,1.6-7.9.1-9-2.6-1.9-5-4-7.8-5.7-1.8-1.1-2.4-2-2-4.3a113.412,113.412,0,0,0,1.3-14.3c.3-5.6.2-11.2.3-16.8v-1.7a1.685,1.685,0,0,0-1.7-1.7c-3.6-.2-7.2-.3-10.8-.6-.9-.1-1.1.3-1.2,1-.2,2.1-.3,25.4-.2,29.8a4.953,4.953,0,0,0,.7,2.7c1.3,1.7,1.5,2.2.2,3.7-2.1,2.4-8.2,8.4-7.8,9.8C447,268.9,447,273.3,447.2,274.6Zm-12.1-64.8c2.4,2.4,8.9,8.7,10,8.8,1.3.1,14.1-.1,17,0,1.5.1,3-.1,4.5.1a13.076,13.076,0,0,0,7.3-1.3c1.1-.6,2.3-1.2,3.4-1.9a21.132,21.132,0,0,0,3.7-2.8c1.7-1.8,4.4-33.9,1.9-34.5-4.1-1-44.5-1-49.5-.3a2.628,2.628,0,0,0-1.5.7c-.4.6-1,6.7-1,8.3-.1,1.5.5,12.5.5,15.5C431.4,205.3,434.3,208.9,435.1,209.8ZM312.4,424.1c0,1.1.4,1.4,1.4,1.1,2-.5,3.9-1,5.9-1.5,3.3-1,6.7-2,10-3,1.2-.4,2.3-.9,3.5-1.3,2.3-.9,4.5-1.8,6.8-2.6,2.7-1,5.4-2.1,8.2-3,3.7-1.2,7.5-2.3,11.3-3.5,3.6-1.1,7.1-2.4,10.7-3.6,4.5-1.5,9.1-2.9,13.6-4.4,3.6-1.2,7.2-2.6,10.8-3.9l11.1-3.9c.9-.3,1.1-.8,1.1-1.7-.1-1.9,0-8.9,0-10.5V368.8c.1-5.1.1-10.1.2-15.2.1-4.4,0-8.9.3-13.3.3-3.7.2-15.6.1-17.9-.1-2.1.6-30.2.8-33.6.1-1.1-.3-1.1-1.2-.8-2,.7-4.1,1.2-6.1,2-4.1,1.5-8.1,3.3-12.3,4.7-3,1-6,1.7-9,2.7-4.6,1.5-9.2,3-13.7,4.7-6.9,2.6-43.7,15.1-47.3,16.1-3.7,1-3.8,1.2-4,5v.2c-.1,4.9-.3,9.8-.4,14.7-.1,2-1.5,47.3-1.5,55.3-.1.1-.3,28.8-.3,30.7Zm128-204.2c-1.9-2.9-9.3-10.5-10.2-12.1a4.954,4.954,0,0,0-4-2.5,134.141,134.141,0,0,0-13.9-.2c-.7.1-1.2-.1-1.2-1,0-2.1-.4-9.1-.5-10.6-.1-3.3-1.2-12.6-.3-13.3.8-.6,7.2,0,8.7,0,3,0,6.1,0,9.1-.2.3,0,.9-.6,1-1.1a12.412,12.412,0,0,0,.3-2.7c.1-1.1.8-1.4,1.8-1.4,1.7,0,3.4,0,5.2.1,3.1.1,42.8,0,45.9,0,.3,0,3.6-.3,4.9.2a1.265,1.265,0,0,1,.7,1,15.139,15.139,0,0,1,.2,3c-.2,2.1-.3,2.1,1.7,2.4a29.538,29.538,0,0,0,4.2.2c2.9.1,5.8.1,8.8.2,1.3.1,1.7.1,1.4,2.5s.1,19.1.1,19.6c-.1,1.8-.9,2.6-2.6,2.2-3.5-.8-7-.3-10.4-.1-1.4.1-2.8.2-4.2.4-1.1.2-1.9.7-1.9,2,0,1.2-.1,2.5-.2,3.7,0,1.7-.5,2.1-2.1,2.8-1.7.7-11.2,7.1-11.8,7.3a1.856,1.856,0,0,0-1.4,2c.1,5.2-.3,22.6-.5,26a43.41,43.41,0,0,0-.1,5.1,4.716,4.716,0,0,0,2,3.4c2.2,1.7,9.5,6.9,9.2,8.6-.4,2.2-.8,4.3-1.2,6.5-.2,1.1-.1,2.1-.2,3.2-.1,1.2-16.8,1.4-16.8,1.4s-2.7,6.5-3.2,7.8a48.135,48.135,0,0,1-7.6,11.9c-2.3,2.7-4.4,5.5-6.5,8.4a84.986,84.986,0,0,1-11.1,12.9c-2.5,2.3-20.4,17-22.7,18.9a2.825,2.825,0,0,0-.9,2.4c.1,4.3-.4,18.1-.5,20.7-.2,4.4-.3,8.8-.4,13.2-.1,3.7-.2,7.3-.1,11a40.872,40.872,0,0,0,.7,6c.6,6.8-4.7,6.4-7.2,7.2-4.4,1.5-8.9,2.8-13.3,4.2-2.7.9-5.3,1.9-7.9,2.9-1.8.7-2.2,1.3-1.7,3.1.9,3,2,5.9,3,8.9.7,2.2,1.5,4.4,2.2,6.5.4,1.1.9,2.2,1.3,3.3,1.1,3,5,11.5,4.9,13.1a3.437,3.437,0,0,1-.9,2.7,11.817,11.817,0,0,0-2.4,3.7c-1.7,4-3.5,8.1-5,12.2-2,5.6-2,4,1.8,8.5a70.023,70.023,0,0,0,6,6.2c.5.5,1.3.7,1.7,1.2a5.276,5.276,0,0,1,.8,2.2c0,.3-.8.8-1.3,1-.3.1-.8-.3-1.1-.6-1.2-1.2-2.2-2.5-3.4-3.8-1.5-1.5-2.9-3.1-4.5-4.5-1.3-1.2-2.9-2.1-4.2-3.3a1.845,1.845,0,0,1-.5-1.7c.8-2.5,1.6-5,2.6-7.5,1.2-3.2,7.6-15.1,6.9-18.8-.9-4.5-4.1-11.1-4.8-13.3-1.1-3.3-2.4-6.4-3.5-9.7-.7-2.1-1.5-4.1-2.1-6.2-.3-1-.5-1.5-1.8-1.1-5.5,1.7-11.1,3.2-16.6,5-4.7,1.5-9.4,3.2-14.1,4.8-.9.3-.9.8-.9,1.5,0,3.8.4,44,.9,44.6a1.91,1.91,0,0,1-.3,2.7c-2.9,2.8-5.8,5.6-8.6,8.5a26.978,26.978,0,0,0-2.5,3.4c-1,1.3-1.8,1.5-3.1.5-.2-.1-.1-.9.1-1.2,1.7-2.2,3.5-4.3,5.3-6.4.6-.7,1.2-1.5,1.9-2.2.8-.9,5-3.5,5-5,0-4.2-.5-32.1-.6-37.1,0-2.1,0-4.1-.1-6.2-.1-1.6-.6-1.8-2.1-1.2q-5.1,2.1-10.2,3.9c-3.8,1.3-7.6,2.3-11.4,3.4-2.4.7-4.9,1.4-7.3,1.9a3.5,3.5,0,0,1-2.2-.6c-1.9-1.2-3.6-2.6-5.5-3.9a6.782,6.782,0,0,0-2.2-1.2c-1.6-.6.8-33.4.5-37.8-.1-1-.1-1.9-.2-2.9a1.421,1.421,0,0,0-.2-.6c-.2.2-.4.3-.5.6-.7,2.3-1.2,4.6-1.9,6.8-1.2,4.1-2.6,8.1-3.8,12.2-2.2,7.7-3.2,15.6-4.3,23.5-.5,3.6-.9,7.1-1.3,10.7-.1.8-.1,1.5-1.2,1.4s-1.1-.8-1-1.6c.4-3.9.9-7.7,1.4-11.6.8-6,1.6-11.9,2.7-17.8a105.717,105.717,0,0,1,3.1-11l3.6-12.3a13.585,13.585,0,0,1,1.1-2.8,10.881,10.881,0,0,0,1.4-7.3,81.931,81.931,0,0,1-.1-8.6c0-1,.1-2,.2-3,.2-6.2.4-12.5.8-18.7.3-5.1,1.4-18.6,1.3-20.3-.1-1.2.1-2,1.3-2.4a37.319,37.319,0,0,0,10.6-4.7c.4-.2,95.1-31.1,96.1-31.2a2.112,2.112,0,0,1,1.7.8c.2.3-2.2,43.1-2.1,48.8v.8c0,.3.2.5.2.8.2-.1.5-.1.7-.3,3.6-3.1,13.5-11.4,14.9-12.6,2.3-1.9,4.6-3.9,7-5.8a47.256,47.256,0,0,0,8.2-9.1c1.7-2.3,3.5-4.5,5.3-6.6a72.061,72.061,0,0,0,4.7-6.2c2-3,3.7-6.1,5.5-9.3a33.358,33.358,0,0,0,1.7-4.4,1.428,1.428,0,0,0-1.4-2.1c-2.6-.1-8.8.1-9.2,0-2.9-.5-2.8-6-2.9-10.7-.1-4.8.9-5,3.4-6.5.1-.1.3-.2.4-.3a16.483,16.483,0,0,0,2.9-4c.1-4.2.2-8.3.2-12.5,0-.2-.1-21.2.1-22,.1-1-2.4-1.2-5.7-1.6-2.1-.2-4.8.9-5.7-1.2Z" transform="translate(-286.959 -120.234)" fill="#181715" fill-rule="evenodd"/>
  <path id="Path_1058" data-name="Path 1058" d="M531.9,468.4c-2.6-3.5-4.8-7.3-7.9-10.4-3.2-3.2-5.8-7-8.7-10.4-2.4-2.9-4.9-5.8-7.4-8.7-1.7-1.9-3.4-3.9-5.1-5.8-.6-.7-1.2-1.4-1.8-2-1.8-1.7-3.7-3.5-5.5-5.2-.2-.2-.5-.4-.7-.6-.1.3-1.2,8.4-1.8,12.1a2.852,2.852,0,0,0,.9,2.7l6,5.4c2.1,1.8,4.4,3.5,6.5,5.3,4.2,3.5,8.4,7.1,12.6,10.6,1.9,1.6,3.7,3.2,5.7,4.8,2.3,1.9,4.8,3.7,7.1,5.6.2.2.5.2.7.4,0-.2.1-.5.1-.7a8.812,8.812,0,0,0-.7-3.1Zm3-.6a26.074,26.074,0,0,0,.5,4.8c.1.4.7,1,1,1a48.6,48.6,0,0,0,6.6.3c4-.3,8-.7,12.1-1.2,3.3-.4,6.5-.9,9.7-1.5,1.5-.2,2.9-.6,4.4-.8,1.1-.1,2.3,0,3.5-.1,3-.3,6-.7,9-1,5.3-.6,10.6-1.1,15.9-1.8,4.6-.6,9.1-1.5,13.6-2.2,3-.5,6-.8,9-1.2.7-.1,1.5.1,1.6-1,.1-1.7-.2-2.5-1.4-2.6-2.1-.2-4.2-.4-6.4-.4-4.2.1-8.3.5-12.5.7-3.7.2-7.5.5-11.2.8-4.6.4-9.3.9-13.9,1.2-3,.2-6,.3-8.9.5-2.8.3-32.6,2.6-32.6,4.5Zm82.9-10.3c.2,0,.6-.5.4-.6-.5-.5-.9-1-1.4-1.5-1.3-1.5-2.6-2.9-3.9-4.4-1.7-1.9-3.5-3.8-5.1-5.9-1.9-2.5-3.7-5.2-5.6-7.8-.4-.6-.9-1.1-1.3-1.7-1.8-2-3.7-3.9-5.5-5.9-1-1.1-10.9-13.4-15.5-16.4a4.627,4.627,0,0,0-2.5-.8q-3.75.3-7.5.9c-3.7.6-7.4,1.4-11.1,1.9-3.6.6-7.2.9-10.8,1.5-2.1.3-4.1.8-6.1,1.1-4.4.6-8.8,1-13.2,1.6l-14.4,1.8c-3.7.5-11.5,1.2-15.1,1.7-1,.1-1.4.9-.8,1.6,2.6,3,9,10.2,12,13.5,3.2,3.5,6.4,7.1,9.5,10.7,1.8,2.1,3.5,4.4,5.3,6.5,1.4,1.6,2.9,3.1,4.3,4.8,1.2,1.5,1.3,2.4,3.2,3.4s20.2-1.4,24.8-1.8c.9-.1,1.8-.1,2.7-.2,4.9-.4,9.9-.8,14.8-1.2,1.1-.1,2.3,0,3.4-.1,4.8-.4,9.6-.8,14.5-1.2,3.8-.3,7.6-.7,11.4-1.1,2.5-.2,8.7-.5,11.8-.6a7.557,7.557,0,0,0,1.7.2Zm22.5,20c3.3-.3,11.7-1.5,12.6-1.7a4.924,4.924,0,0,1,2.4-.2c1,.2,1.6.8,1.1,2-1,2.4-.7,4.9-.1,7.4.3,1.2-.4,1.8-1.7,2-1.3.1-1.4-.7-1.5-1.7,0-1.7-.2-3.5-.3-5.2,0-.9-.5-1.1-1.3-1.1-2.4.2-4.7.4-7.1.5-1.9.1-20.4,1.6-23.5,1.8-1.5.1-3,.3-4.5.5a1.787,1.787,0,0,1-2.2-2.1c.1-.9-1.4-8.5-2.2-11.4a1.126,1.126,0,0,0-.8-.5c-5.3.8-10.6,1.8-16,2.4-4.5.5-9,.7-13.4,1.1-1.9.2-3.8.5-5.7.7-1.3.2-2.7.3-4,.4-1,.1-1.8.3-2.2,1.3a78.731,78.731,0,0,0-3.2,7.4,57.708,57.708,0,0,0-1.6,7.2,12.132,12.132,0,0,1-7.2,8.9,70.063,70.063,0,0,1-10,3.6,61.578,61.578,0,0,1-9.4,1.6c-5.9.5-11.9,1-17.9,1-6.9,0-13.8.8-20.7,1.4-.3,0-.6.1-.8.1-.9-.1-2.1-1.3-1.8-2.1a2.484,2.484,0,0,1,1.6-1.2c1.2-.2,2.5,0,3.8-.1,3.8-.2,7.6-.5,11.4-.7,1.6-.1,3.1-.1,4.7-.1,3.7-.1,7.4,0,11.1-.2a148.082,148.082,0,0,0,14.8-1.4,36.308,36.308,0,0,0,13.5-5.1,8.906,8.906,0,0,0,4.1-7,18.243,18.243,0,0,1,2.8-8.5,26.6,26.6,0,0,0,1.6-3.9c.3-.8,0-1.3-1-1.2a20.784,20.784,0,0,1-2.3.3c-6,.7-12.1,1.4-18.1,2.1-2.8.3-5.5.8-8.3,1.2-2,.2-3.9.4-5.7-1.4-3.6-3.4-7.5-6.4-11.3-9.6-2.7-2.3-5.4-4.8-8.1-7.2-1-.9-2-1.6-3-2.5-2.1-1.8-4.2-3.6-6.2-5.5-.9-.9-1.5-.3-1.8.5a35.818,35.818,0,0,0-2.4,4.8A14.429,14.429,0,0,1,493,463a67.9,67.9,0,0,1-10,6,58.7,58.7,0,0,1-10.3,3.2,37.748,37.748,0,0,0-11.1,4.8,1.231,1.231,0,0,1-1.9-.3c-.5-.7-.3-1.2.4-1.8a22.832,22.832,0,0,1,6.8-3.4c4.4-1.4,8.9-2.6,13.2-4a26.9,26.9,0,0,0,4.8-2.4c3.6-2.1,7.5-4,9.8-7.6a63.963,63.963,0,0,0,4.1-8.3c.5-1.1-.4-1.8-1.2-2.4-2.1-1.6-4.3-3.2-6.5-4.7a2.621,2.621,0,0,1-1.2-3c.8-5.2,2-13.9,2.4-15.5a4.086,4.086,0,0,1,2.4-2.7c.7-.1,1.4-.1,2.1-.2,2.3-.2,4.6-.3,6.9-.6,3.9-.4,7.8-1,11.7-1.5,5.2-.7,10.5-1.3,15.7-2,2.6-.3,5.2-.4,7.7-.8,4-.5,7.9-1.2,11.8-1.8,3.5-.5,7-1,10.5-1.6,2.9-.5,5.8-1,8.6-1.5,2-.4,4.1-.8,6.1-1.2a21.721,21.721,0,0,0,2.4-.7,2.145,2.145,0,0,1,2.5.4A81.93,81.93,0,0,1,591,420.3c2.3,3,11.4,11.8,11.4,11.8s11.6-.9,16.1-1a19.054,19.054,0,0,0,5.4-.8c1.1-.4,2,.3,2.5,1.4,1.2,2.5,2.6,4.8,3.8,7.3a2.921,2.921,0,0,1,.3,2c-.2.5-1,.7-1.7.9-1.1.2-1.2-.6-1.4-1.4a10.306,10.306,0,0,0-4.4-6.7,6.072,6.072,0,0,0-3.3-.5c-1.9.1-3.7.5-5.6.6-2,.1-4,.1-6,.3a30.284,30.284,0,0,0-3.2.6c-.1,0-.2.6-.1.7,1.5,2.1,3,4.3,4.7,6.4,2.5,3.1,10.3,10.6,12.9,13.6a8.554,8.554,0,0,1,2.2,6.7c-.1,1.9-.2,3.9-1.2,3.9-2.5.2-4.9.3-7.4.5-.8.1-1,.3-.9,1.2.5,2.3,2.5,10.1,3.4,10.7,1,.7,15.2-.4,21.8-1Z" transform="translate(-286.959 -120.234)" fill="#181715" fill-rule="evenodd"/>
  <path id="Path_1059" data-name="Path 1059" d="M477.9,413c.2-2.1-6-4.2-3.9-3.3s-7.6-3.3-11.4-5c-3.7-1.7-7.2-3.7-10.9-5.5-2.1-1-4.2-1.9-6.2-2.9-4.8-2.3-9.5-4.6-14.2-6.8a43.192,43.192,0,0,0-4.5-1.9c-.7-.2-1.7-.4-1.8,2.3s-.4,6.1.4,6.7a23.376,23.376,0,0,0,5,2.5c4.1,1.9,8.2,3.6,12.4,5.3,4.1,1.6,8.2,3.1,12.3,4.6,5.6,2.1,11.1,4.3,16.7,6.4,1.2.4,2.3.8,3.5,1.1,1.6.4,2.2,0,2.4-1.6a15.405,15.405,0,0,1,.2-1.9Zm81.5-24.9a7.521,7.521,0,0,0,0-1.5c-.1-.9-.4-1.4-1.6-.9a40.308,40.308,0,0,1-4.6,1.4c-4.5,1.3-8.9,2.7-13.4,4-7.5,2.3-14.9,4.8-22.4,6.9-5.5,1.6-11,3.3-16.3,5.4-5.6,2.2-11.3,4.2-17,6-2.7.9-3.7,1.7-3.8,4.5-.1,2,.2,2.3,2.2,2a3.553,3.553,0,0,1,1-.2c2-.5,4-1.1,6-1.6a6.925,6.925,0,0,0,4.4-2.6c1.1-1.4,2.3-2.8,3.4-4.2a2.18,2.18,0,0,1,2.7-.5c1.1.4.7,1.3.5,2a11.27,11.27,0,0,1-1.2,1.8c-.1.2-.1.5-.2.8.2,0,.4.1.6.1,3-.6,6-1,8.9-1.8,3.8-1.1,7.4-2.6,11.1-3.9,2.1-.8,4.2-1.5,6.3-2.3,4.2-1.6,8.5-3.4,12.7-5,5.9-2.2,11.9-4.3,17.9-6.4,2.5-.8,3-1.5,2.8-4Zm-59.5-26.3c-2-.2-12.2,3.3-15.2,4-3.5.8-44.8,13.3-50.1,15.3-2.2.8-4.4,1.8-6.5,2.7a1.576,1.576,0,0,0-.7.7c0,.1.3.5.5.5,3.4,1.5,6.9,2.9,10.3,4.4,2.2.9,4.3,1.8,6.4,2.9,2.4,1.2,4.7,2.6,7.1,3.8,5.7,2.8,11.5,5.6,17.3,8.4a62.144,62.144,0,0,0,8.3,3,14.673,14.673,0,0,0,5.2-.1c2.8-.9,5.7-1.9,8.3-2.7,2.5-.8,4.9-1.6,7.4-2.5,4.7-1.7,9.3-3.7,14-5.2,8.1-2.5,16.3-4.7,24.4-7.1,4.4-1.3,8.8-2.8,13.1-4.2,1.9-.6,3.9-1.2,5.8-1.8a2.589,2.589,0,0,0,1.1-.7,7.635,7.635,0,0,0-1.1-.8c-4-1.7-8.1-3.4-12.2-5.1-3-1.2-6.1-2.2-9.2-3.4-3.6-1.3-7.2-2.7-10.7-4.1-4-1.5-7.9-3.2-12-4.5-3.4-1.2-9.5-3.3-11.5-3.5Zm48,39.8c2.5-.6,5-1.3,7.5-1.9,3.2-.8,28.6-8.2,29.4-8.4s1.9-.9,2.4-.2,1.5,4,2,5.2c.4.8,1.2,1.5,0,2.3a1.764,1.764,0,0,1-2.6-.6,13.428,13.428,0,0,1-1.3-2.7c-.3-.8-.6-1-1.4-.8-5.1,1.4-10.3,2.7-15.4,4.1-4.5,1.2-9,2.5-13.5,3.8-2,.6-4,1-6,1.5a9.433,9.433,0,0,0-2.3,1c-1.8,1-3.3.2-3.5-1.9-.1-2.3-1.4-3-3.5-2.2-6,2.3-11.9,4.7-17.9,6.9-4.5,1.7-9,3.3-13.6,4.6-3.8,1.1-7.8,1.8-11.7,2.7a4.168,4.168,0,0,0-1.8.8c-3.2,3.1-6.1,6.5-9.5,9.5a73.711,73.711,0,0,1-14.3,10.4c-3.5,1.9-6.9,4-10.4,5.9a29.036,29.036,0,0,1-4.1,1.6c-2.6,1-5.2,2.1-7.8,3.1-.7.3-1.4.9-2.1,0a1.582,1.582,0,0,1,.5-2.4,18.893,18.893,0,0,1,4.4-1.9c5.2-1.3,9.9-3.9,14.4-6.5,5.1-3,10.4-5.8,14.8-9.9,2.6-2.4,5.1-4.9,7.6-7.4.2-.2.3-.6.5-.8-.3,0-.7-.1-.9,0-2.9,1.1-5.8,2.2-8.7,3.2a2.053,2.053,0,0,1-1.5.2c-1.7-.6-3.3-1.5-4.9-2.1-3.2-1.2-6.4-2.3-9.5-3.5-5.7-2.1-11.4-4.3-17-6.5-1.5-.6-3-1.2-4.5-1.9a1.552,1.552,0,0,0-2.1.4c-1.2,1.5-3.6,6.9-11,10.6a90.359,90.359,0,0,1-14.7,6.3,45.3,45.3,0,0,0-6,2.6c-1.5.6-2.2.5-2.5-.6a1.974,1.974,0,0,1,1.3-2.6c1.4-.5,2.9-.9,4.3-1.4,4-1.5,8-3.1,11.9-4.7,2.3-1,4.4-2.1,6.6-3.3a5.524,5.524,0,0,0,1.7-1.4c1.8-2.2,3.5-4.3,5.2-6.5,1-1.3.9-1.4-.7-2-3.1-1.2-6.3-2.5-9.4-3.8-1.1-.5-2.2-1.1-3.3-1.6-1.4-.6-.6-9.3-.6-12.5v-1.5c-.1-.8.4-1.2,1-1.7,3.4-2.5,59.8-19.9,73.3-23.6a10.523,10.523,0,0,1,5.1.1c2.2.7,4.5,1.5,6.7,2.1,3.8,1.2,28.3,10.1,31,11,2.2.7,4.3,1.6,6.4,2.4,4.1,1.7,8.2,3.6,12.4,4.9.9.3,3.9,2.1,4.3,3.6.9,3.5,1,9-1.4,9.6-3.5.9-14.8,4.9-15.2,5.2.7,1,0,3.5,1.9,3.2Z" transform="translate(-286.959 -120.234)" fill="#181715" fill-rule="evenodd"/>
  <path id="Path_1061" data-name="Path 1061" d="M459,121.9c0-3.2,3.1-1,3.3.1a7.633,7.633,0,0,1-.2,2.6c-.1,2.6-.3,5.1-.3,7.7a24.331,24.331,0,0,0,.3,3.8c.1,1.1-.5,2.2-1.4,2.3-.8.1-1.4-.6-1.5-2v-5.2c-.1.1-.2-6.1-.2-9.3Z" transform="translate(-286.959 -120.234)" fill="#181715" fill-rule="evenodd"/>
  <path id="Path_1062" data-name="Path 1062" d="M434,154.6a1.979,1.979,0,0,1-1.7-.3,36.077,36.077,0,0,1-6.5-9.1,5.094,5.094,0,0,1-.7-1.7c-.1-.6,0-1.5.3-1.7a1.549,1.549,0,0,1,2.3.7c.3.7.7,1.3,1,2a19.874,19.874,0,0,0,5.5,7.3c2.6,1.5.3,2.6-.2,2.8Z" transform="translate(-286.959 -120.234)" fill="#181715" fill-rule="evenodd"/>
  <path id="Path_1063" data-name="Path 1063" d="M485.3,147.3c1.9-1.6,4.4-3.7,6.5-5.5a39.843,39.843,0,0,0,3.6-3.5c.6-.7,1.2-1.3,2.1-.5.8.8.6,1.6-.2,2.3-2.8,2.5-5.6,4.9-8.3,7.4-.6.6-1,1.5-1.7,2a2.342,2.342,0,0,1-1.7.7C485.2,150.2,483.4,149,485.3,147.3Z" transform="translate(-286.959 -120.234)" fill="#181715" fill-rule="evenodd"/>
  <path id="Path_1064" data-name="Path 1064" d="M353.2,349.4c1.9-.5,1.9,1.2,2.1,2.8s2.7,1,4,.9c4.6-.5,16.2-1.9,21-3.4,1.8-.5,1.4-.1.9-1.8-.5-1.8-.5-1.8,1.2-2.2,1.8-.4,2.3,3.4,2.4,4.2.3,1.8-5.9,2.2-13,3.6-7,1.4-10.9,1.3-16.2,2.9-1.7.5-2.5,0-2.7-1.7-.2-1.2-1.6-4.8.3-5.3Z" transform="translate(-286.959 -120.234)" fill="#181715" fill-rule="evenodd"/>
  <path id="Path_1065" data-name="Path 1065" d="M384.8,323.6c-1.2-2,1-2.5,1.8-2.3a2.024,2.024,0,0,1,1.3,1.4c.2.9-1.9,2.9-3.1.9Z" transform="translate(-286.959 -120.234)" fill="#181715" fill-rule="evenodd"/>
  <path id="Path_1066" data-name="Path 1066" d="M359.3,329.9c.1,1.6-1.2,1.5-1.7,1.6-1.1.2-1.4-.9-1.5-1.7a1.694,1.694,0,0,1,1.6-1.8C358.5,328.1,359.2,328.4,359.3,329.9Z" transform="translate(-286.959 -120.234)" fill="#181715" fill-rule="evenodd"/>
</svg>
