<svg id="signup" xmlns="http://www.w3.org/2000/svg" xmlns:xlink="http://www.w3.org/1999/xlink" width="548.915" height="423.701" viewBox="0 0 548.915 423.701">
  <defs>
    <clipPath id="clip-path">
      <path id="Path_1016" data-name="Path 1016" d="M366.5,397.12H480.37v60.69H366.5Z"/>
    </clipPath>
    <clipPath id="clip-path-3">
      <path id="Path_1014" data-name="Path 1014" d="M349.48,383.88H497.39V459.7H349.48Z"/>
    </clipPath>
    <clipPath id="clip-path-4">
      <path id="Path_1022" data-name="Path 1022" d="M268.74,88H545V269.5H268.74Z"/>
    </clipPath>
    <clipPath id="clip-path-6">
      <path id="Path_1018" data-name="Path 1018" d="M355.14,72.32H564.15V229.65H355.14Z"/>
    </clipPath>
    <clipPath id="clip-path-7">
      <path id="Path_1020" data-name="Path 1020" d="M249.59,141.52H415.7V271.75H249.59Z"/>
    </clipPath>
  </defs>
  <g id="Group_59" data-name="Group 59" transform="translate(-145.803 -87.58)" clip-path="url(#clip-path)">
    <g id="Group_58" data-name="Group 58" clip-path="url(#clip-path)">
      <g id="Group_57" data-name="Group 57" clip-path="url(#clip-path-3)">
        <path id="Path_1013" data-name="Path 1013" d="M378.92,454.78a27.329,27.329,0,0,0-2.64-6.7c-.9-2.07-1.79-4.13-2.68-6.2a71.649,71.649,0,0,1-3-11.18c-.36-1.62-.71-3.23-1.06-4.85a45,45,0,0,1-.49-5.05c-.27-1.94-.86-4-1.29-5.87-.26-1-.54-1.94-.84-2.9a12.232,12.232,0,0,1-.15-2.68c-.1-.91-.19-1.64-.22-2.49,0-.31-.18-1.43,0-1.7a.89.89,0,0,1,.82-.35l1.82-.34q5-.54,10-.67c9.44-.46,18.88-.74,28.3-1.5,5.71-.46,11.33-.89,17.05-1.06a131.715,131.715,0,0,0,13.77-.91c4.49-.61,8.94-1,13.46-1.37,7.53-.55,15.2-2.21,22.78-1.77,1.11.06,3,.06,4,.91.73.65,1.15,2.59,1.3,3.3,1,4.49.25,9.51-.06,14q-.35,5.79-1,11.56a145.251,145.251,0,0,1-3.33,15.71,44.422,44.422,0,0,1-2.67,8.1,6.29,6.29,0,0,1-2.28,3.13,7.29,7.29,0,0,1-3.14.52c-6.69.44-13.42.74-20.12,1.08-9.78.49-19.56.77-29.35,1.13-6.53.25-13,.86-19.58,1.05-4.32.13-8.7.15-13,.05a25.769,25.769,0,0,1-4.71-.55c-1.3-.28-1-.21-1.66-.89-.25-.26-.07-.5-.54-.51a1.745,1.745,0,0,0-.05-.22" fill="#f39d74"/>
      </g>
    </g>
  </g>
  <g id="Group_63" data-name="Group 63" transform="translate(-145.803 -87.58)" clip-path="url(#clip-path-4)">
    <g id="Group_62" data-name="Group 62" clip-path="url(#clip-path-4)">
      <g id="Group_60" data-name="Group 60" clip-path="url(#clip-path-6)">
        <path id="Path_1017" data-name="Path 1017" d="M375.6,161.34c.74,1.28,3.49.59,4.52.74a61.9,61.9,0,0,0,8.37,1.13c3.37,0,6.85,1,10.17,1.62s6.52.94,9.74,1.58c.52,9.31-2.66,18.06-4.25,27.05q-.82,4.11-1.25,8.3a18.468,18.468,0,0,0-.25,3.4c.68,1.17,3.13,1.37,4.17,1.61,10.26,2.41,21.1,2.43,31.52,2.89q11.76.69,23.52.46a72.547,72.547,0,0,0,7.49-.65c3.23-.05,4.65,1.63,7.68,3.83q7.29,5.72,14.91,10.85c2,.43,4.51-4.06,5.13-5.84,2-5.77,6.74-12.16,12.37-13.58,1.46-.37,2.83-1.3,4.26-1.54a45.055,45.055,0,0,1,4.65,0c3.1-.17,6.16-.47,9.27-.46,2.65,0,5.63.73,8.26.41,1.67-.2,1.52-.31,1.72-2.13a69,69,0,0,1,1.9-9.34,85.3,85.3,0,0,0,2-15.05c.35-6-.07-12,.14-18,.23-6.41,1-12.78,1.68-19.14.77-7.2,1.54-14.39,1.72-21.64v-9.57l-.42-4.66c-.78-1.67-3.58-2.86-5-4a11.76,11.76,0,0,0-7.49-3c-7.3,0-14.51-.85-21.8-1.3-14.52-.9-28.85-3.65-43.35-4.62-18.25-1.22-36.62-1.8-54.9-2.19-7.69-.16-15.38-.1-23.07-.31a38.7,38.7,0,0,0-7.91.13c.46,1.13-.55,2.2-.77,3.29-.92,4.6.18,9.74.66,14.31.72,6.92-2.16,13.62-4.25,19.93-2.54,7.63-2.81,14-2.09,22.09-.35-4,2,13.66,1,14.08" fill="#68cec6"/>
      </g>
      <g id="Group_61" data-name="Group 61" clip-path="url(#clip-path-7)">
        <path id="Path_1019" data-name="Path 1019" d="M276,165.58c-.14,7.89-1.08,15.72-1.22,23.63-.25,14.06-2.75,28.11-4.48,42-.54,4.36-1.7,10.71-1.55,15.39a3.32,3.32,0,0,1,1.41.28,63.858,63.858,0,0,0,9.85,2.25,84.083,84.083,0,0,0,12.68.76,5.89,5.89,0,0,1,2.64,0c.15,2.23-.85,4.5-1,6.73.06,2.93,0,5.85-.11,8.77-.11,1.25-.19,2.5-.21,3.75,1,.9,1.41-.08,2.93-.8,3.47-1.64,7.42-2.13,11-3.62a144,144,0,0,0,23.63-13,13.22,13.22,0,0,1,3.21-1.76,7.52,7.52,0,0,1,3.56,0,83.776,83.776,0,0,0,9.63.56c7.89.15,15.79-.12,23.66-.51,3.74-.18,7.47-.41,11.2-.67a7.219,7.219,0,0,0,3-.28c.53-.56.43-1.05.57-1.76.38-1.92.5-4.29.85-6.24.59-3.28,1.59-6.44,2.18-9.71,2.26-12.59,3.11-25.48,5.1-38.12,1.27-8,2.92-15.47,1.51-23.6-.25-1.44-.49-2.75-.68-4.17a36,36,0,0,0-7.57-.78c-18.64-.79-37.22-2.67-55.88-3.1-16.5-.39-46.06-3.29-54.69-4.17-1.59-.13-1.22,5.98-1.22,8.17Z" fill="#6ed598"/>
      </g>
    </g>
  </g>
  <path id="Path_1023" data-name="Path 1023" d="M650.8,428s-1,0-1.43-2c1.11-8.18-36,4.81-42.8,3.55-.26-2.46-1.05-4.79-.65-7.34,7-1.06,27.83-6,28.56-6.37,2.37-2.16,5.85-4.36,5-7.54-1.71-7-3.41-25.47-3.85-27.59-.13-.41-.41-1.13.51-1.38a51.34,51.34,0,0,1,12,30.71c.12,1.37.88,2.66,2.4,2.39,2.67-.37,1.55-3.1,1.26-5-1.17-14.64-8.66-25.8-18.1-36.34-1.65-10.28-2.28-28-2.5-30.76s-1.65-2.76-2.31-2.93c-18-4.59-36.25-1.54-54.87-.28,2.68-21.32,11.48-61.86,10.43-63.51s-9.7-4.27-15-6a59.111,59.111,0,0,0-16.1-2.61c-8.79-.2-34.7-2.12-52-2.26-33.45-.11-66.82-1.09-100.19-4.16-.78.18-8.28-.43-10,1.64s-9,63.94-9.11,64-6.69.24-9.67.59c-1.54.17-16.95,1.56-34.05,3.88-15.95,2.16-33.23,5.22-46,6.87a5.78,5.78,0,0,0-3.2,3.41c-1.3,5,1.43,18.58.25,23.4-26.36,8-53.79,11.11-80.76,16.39-6.21-.46-6.76,47.61-6.8,54.48.5,8,1.82,26.33,1.82,26.33s-37.63,15.78-55.81,23.55c-3.59,1.42-2,6.19,1.56,4.11,17-10.2,36.65-15.42,54.58-23.32.12,7.67.37,10,7.1,9.66,5.27.19,10.58.79,15.76-1.11-13.42,8.18-25.28,17-38.54,25.34-2,1.35-5.71,3.74-5.64,5.36s.06,2,2.29,1.76c1.19-.15,25.91-17.4,46.33-30.14a178.065,178.065,0,0,1,26.09-13.26s2.66,1.43,2.43,3.1c-1.43,14.28-1,28.69-3.54,42.81-.32,4.55,9.17,4.81,9.89,2.13s-3.86-1.53-5.62-3.15c-1.63-15.93,4.68-32,2.67-47.87,3.51-.21,25.29-10.13,25.29-10.13a8.881,8.881,0,0,1,.57,3.95c-2.23,12.23-3.09,24.65-5,36.92-.37,2.34.64,3.58,2.88,3.65,2.87-.28,8.15,1.77,8.36-.17s-1-2.17-3.24-2.35c-9.8-.64,1.16-31.4.68-38.65.25-2.41.72-5.45.72-5.45s18.78-4.94,24.2-6.9a1.77,1.77,0,0,1,2.19.4c1.83,2.8,4.26,1.14,3-1.77,3.48-1.62,10.85-2.33,10.85-2.33s-3,27-7.16,39.42a2.16,2.16,0,0,0,1.5,3.22c2.9.85,12.34,2,10.53-2.68l-.11-.13a3.62,3.62,0,0,0-.35-.33l-.1-.09c-.06-.05-4.74.29-7-.22,1.57-12.11,6.35-39.32,6.35-39.32l31.11-1.12s2.1,5.45,2.36,8.07c-1.15,7.75-1.37,15.64-3.28,23.3-1.19,5.62,7.11,3.28,10.2,3,1.65,0,4.28-3.14,1.34-3.22s-8.25,1.19-7.7-3.14c.4-3.16,1.63-7.7,1.7-11.34,1.23.31,1,1.21,1.2,2,.75,2.66,1.66,5.75,4.93,5.85,6.51.18,16.37-.38,16.37-.38s-1,22.82-1.28,33c.12,3.55-.66,5.38-3.91,6.25-4.35,2.11-4.87,6.43-2.53,6.15,2.52-.3,10.72-5.47,10.46-6.7-1-12.28-1.42-26.68,1.3-38.75l58-1.67c-1.11,12.08-3.43,23.52-2.52,35.61.62,5.58-4.24,7.45-8.24,9.55-2.32.79-2,5.4.62,4.52s11.93-3.81,11.69-10.24c-1.21-13,.19-26.2,1.82-39.12,14.41-1.91,15.3-2.09,16.76-16.81,7.15.55,28.51.77,28.51.77,27.07.23,55.45,3.82,82.7,5.11,34.25-1.47,100.42-2.33,102.37-2.55s2-2.94.55-3.07c-6.41-.56-22.7.27-26.88.26-20.41,2.13-41,2.08-61.45,1.65-19.53.28-96.19-4.61-101.61-4.8-9.5-.34-22.56-.87-22.56-.87h-.15a.46.46,0,0,1-.45-.47c0-1.47,4.78-18.73,4.78-18.73a4,4,0,0,1,1.8-1c20.86-3.67,33.37-20.34,46.68-35,.72,3.47,3.29,8,.18,10.51-7.77,10.69-10.21,23.69-12.47,36.4-6.24.22-37.79-.41-40.13-.41,0,0-.73,3.46-.69,3.46.9.08,41,.92,41,.92-.08,1.83.41,3.79,2,3.48s1-2,1.85-3.36c6.09-.32,12.35.93,18.18-2.07.4,4.56,2.16,4.45,5,4s10.63-2.92,10.63-2.92l19.82,1.3s2.36,3.16,4.46,3.46,8.76-1.83,8.76-1.83L602,433.42a5,5,0,0,0,3.84,1.34,35.734,35.734,0,0,0,4-1.62s22.39-3.43,31.22-3.84c8.48-1.79,2.84,5.86,7.25,7,3.6-.26,1.78-2.83,2.43-5.16,13.42-.71,27.42-1.34,40.74.37a2.13,2.13,0,0,0,2.83-1.13c5.34-5.83-43.51-2.38-43.51-2.38Zm-22.87-86.35c.39,9.45,2.92,28.87,2.92,28.87s-3.09-1.35-3.77.42,4.19,5.16,4.19,5.16l5.16,32.79s-3.91,5-5.72,4.18c-1-.44-5.64-25.22-7-35.3S620,339,620,339s7.05-.4,7.93,2.62Zm-57.66-67.9a2.2,2.2,0,0,1,2.42-1.27c3.26,1.39,7.66,2.1,8.07,5.28-3.29,20.12-7.93,39.88-10.61,60.16l-5.73.6c1.51-1.82,6-12.12,4.44-13-2.07-1.18-2.76,2.22-4.29,2.83,2.24-17.99,2.66-36.65,5.7-54.63Zm-264,63.56c.84-.7,55.92-10.11,81.68-9.33,1.22,0,2.27.45,1.93,2-2.06,23.09-.08,46.14-2.4,69.26-9.93,1.85-28.74-1.87-26.19,13.43-14.66-2.78-28.45-7.92-42.17-13.69a20,20,0,0,1-7.59-4.63s0-4.55.11-6.66c1.18-8.39,1.47-27.11,1.19-24.88a1.914,1.914,0,0,0,0,.28c.07-.84.35-5.25-1.66-5s-4.28.89-5.69.77c-1.37-3.93-.03-20.86.81-21.58Zm6,87.9-2.09.56s0-10.44-.13-12.36c.22,2.19,2.24,11.77,2.24,11.77Zm-19.81-85.67c.38-1,2.27-1.17,4.37-1.53,2.49-.44,5.23-.89,5.53-.28.56,1.11.14,21.9.14,21.9l-3.29.74a30.479,30.479,0,0,1-6.61.8s-.09-3.83-.15-6.12c.12-4.92-.81-13.45.03-15.54Zm-77,86.46s-2.4-4.1-4.27-2.86,4.27,8.63,4.27,8.63,1.69,28.94,1.82,38.6a41.622,41.622,0,0,1-9.08-.59c-3.09-28.15-4.82-56.52.55-84.52.8-4.39,5-3.73,8.78-4.66.6-.14,1.65.62,1.6,1.22-1.25,14.83-3.68,44.18-3.68,44.18Zm91.79-2.74c-.7,3.35,1.17,16.43-2.49,16.46-17,4.3-33.56,11.85-49.78,18.06-5.51,3.2-27.86,10.34-33.62,11.4-.54-10.69-2.62-21.72-1.85-32.38,2.67,2.43,5.84,5.18,8.51,7.53,4.1,3.6,23.54,12.27,25.48,9.25.4-2-2.37-2-3.66-2.65-5.62-.64-14.43-5.73-21-11.34a62.232,62.232,0,0,1-9.35-10.19,35.331,35.331,0,0,1,.17-5.27c1.13-13.6,1.5-43.85,3.32-44s16.37-3,34.6-6.83c19.68-4.17,42.2-9.81,51.5-10.54,1.66,20.13-2.15,40.31-1.84,60.47Zm3.47,14.82a.62.62,0,0,1-.77-.59c0-2.26-.19-4.51-.2-6.77a.56.56,0,0,1,.45-.56,13.76,13.76,0,0,1,2.57-1.19,3.82,3.82,0,0,1,1.07-.29,54.749,54.749,0,0,0,3.9,7.56s-6.22,1.67-7.03,1.81Zm23-7a.609.609,0,0,1-.08.28,3,3,0,0,1,0,.43c-2,0-4,1-5.7,1.48-3.64,1-6.14,1.81-6.14,1.81a15.46,15.46,0,0,1-4.72-6.66c2.37-1,14.9-1.85,14.9-1.85a4.448,4.448,0,0,1,1,1c.77.94.73,2.37.68,3.52Zm-17.84-6.72c-3.4-8.23-3-16.75-4.23-25,15.57,8.09,32.08,12.88,48.73,17.23,1.66.43,2.84,1,2.51,3.15Zm51.5,7.23c-9.62.57-19.32-.14-29.21,1,.09-2.49.43-4.38-.07-6.59,6-.33,19.63-2.3,19.71-2.3.77,0,4-.57,4.71-.38,0,0,.88-.1,1.3-.2a.63.63,0,0,1,.75.43c.43,1.25,3.05,6.67,2.75,8.05Zm114-18.42s-6.37,2-9.36,1.83c-1.49-.07-3.12-.24-3.1,1.82.46,5,10.78,1,10.78,1s-6.33,20.52-7.24,31.29a2.8,2.8,0,0,1-1.92,2.24c-16.1,4.55-74.55,2.85-86.67,3.82-3.66,0-5.08-.87-6.18-4.3-2.11-4.69-8.88-27.38-10.68-33.64,2.21.33,8.33-.88,3.87-3.29-1.84-.56-4.66-1.05-4.66-1.05a4.91,4.91,0,0,1-1.33-3.07,5.36,5.36,0,0,1,5-5.54C390.24,402.09,448,401,473.87,401c2.53,0,5.28-.14,7.12-.13,4.11-.07.28,12.31.28,12.31Zm3.81-.52c-.48-5.39,6.62-16.59-3.22-15.26-30-.52-60.21,2.92-90,1.78-.11-7.75.16-15.41.58-23.74,3.53,2.28,8.78,4.86,12.16,7,5.52,3.5,9.1,6.5,14.84,10,2.35,2,4.52-1.69,1.64-2.77-7.61-6.12-28.67-19.89-28.67-19.89s1.56-43.46.78-44.31-.84-.62-1.54-.73-5.14-.05-5.82-.22c.6-20.78,5.11-41.1,8.41-61.72,19.31-1.93,38.27,3,57.56,2.25,21.34.77,42.52-.57,63.82,1.07,9.11.47,36.28,1.24,48.14,3.05,3.91.6,3.14.86,2.92,6.36-.15,3.82-3.57,42.16-5.06,51.46-1.24,7.77-2.41,12.24-5,12.25-4.82.28-26.72,2-28.83,3.79s-.55,5.75-.27,7.95c.85,6.43,2.5,12.72,3.43,19.13-1.84,16.64-29.36,40.21-45.98,42.56ZM533.59,428a42.31,42.31,0,0,1-9.53.42c1.21-11.71,4-22.89,10.84-32.72l.72.18c-1.01,7.95-2.03,32.12-2.03,32.12Zm4-.67V403.59s2.69,16.78,3.61,22.6c-.96.81-2.15.81-3.6,1.11ZM564,429.09a101.1,101.1,0,0,1,12.26-1.95,13.407,13.407,0,0,1,1,2.88,94.266,94.266,0,0,1-13.26-.93Zm19,1.54c-2,0-2.71-1.83-2.72-3.85,6.6-.73,21.28-4,21.28-4a36.434,36.434,0,0,0,.69,7.12,88.711,88.711,0,0,1-19.25.73Zm22.74-11.72s-.12-1.05-.29-2c-.06-1.15-.45-2.27-1.71-2.13-2.19.19-1.57,2.75-1.8,4.42-2.7.84-21.73,4.3-21.73,4.3s-1.38-2.21-3.21-2.09-1.82,2.51-1.82,2.51-19.31,4.68-28.59,6.68c-5.69-27.61-11.05-55.42-15.93-83.26.23-3.83,22.62-4,27.07-5,18.79-2.18,37.58-4.71,56.55-3.77,1.66.06,1.93.65,2.1,2.08,2.47,24.68,10,73.71,10,73.71Z" transform="translate(-145.803 -87.58)"/>
  <path id="Path_1024" data-name="Path 1024" d="M551,102.59c-3.62-.17-32.92-4.17-38.12-4.48-4.14-.24-36-4.29-41.24-5.15-2.76-.45-45.43-2.72-51.11-2.86-3-.07-33.09-2-36.22-2.47-2-.27-3.08.54-3.13,2.55-.11,4.26-3.52,26.31-4,33.23s-1.22,13.82-1.56,20.74a66.9,66.9,0,0,1-2.05,13.6c-.17.65-.19,1.58-1.15,1.6-2.37.06-4.82.39-7.1-.06-4.07-.81-25.18-2.15-31.62-2.62-5.85-.42-45.55-1.76-47.73-2.37a4.75,4.75,0,0,0-2.58.46,3.24,3.24,0,0,0-1.1,1.89c-.11,1-.42,4.52-.49,5.26-.5,5.68-1.66,26.38-2.23,31-.77,6.14-4.55,44.44-5.08,49.4a5.689,5.689,0,0,0,.21,2.39c2,.59,4.14.26,6.18.55.52.07,2.64.34,3.2.34A73.911,73.911,0,0,1,299,247.21a60,60,0,0,1-1.6,16.7c-.31,1.31.6,2.11,1.25,2.93.45.56,1.2.14,1.77-.15a176.049,176.049,0,0,1,16.53-7.4c7.07-2.77,13.84-6.28,20.85-9.2,3.38-1.41,4.61-3.07,8.2-3.68s9.93-.16,13.73-.13c5.57,0,27.43,1.08,33.14,1.62.78.07,2.7-.12,2.92-.89a40.429,40.429,0,0,0,.88-6c.78-5.82,1.77-11.61,2.74-17.4,1.13-6.75,2.42-13.47,3.45-20.24.32-2.11,1.36-3,3.25-2.95,5.26,0,10.52-.06,15.77.25,7.19.41,42.32,2.73,52.34,3.68,3.46.32,6.74,1.09,9.62,3.83s14.34,13.13,16,16.53a1.57,1.57,0,0,0,2,.83c1-.28,1.28-.93,1.51-1.86a111,111,0,0,1,6.74-19.82,3.14,3.14,0,0,1,3.07-2c3-.15,19.55-.69,25,.86,2.74.78,3.31-8.12,3.86-10.56a109.541,109.541,0,0,0,2.23-17.48c.91-14.19,3.36-25.5,5.06-40.33,1-9.07,2.32-20.09,4.35-29,.47-2.09-.66-2.66-2.66-2.76ZM392.72,244c-3.27,0-6.12.16-9,0-9.6-.65-19.22-.69-28.83-1.09h-.6a88.07,88.07,0,0,1-10.06-.34c-1.82-.2-3.12,1.6-4.7,2.43-12,6.35-24.66,12.66-37.81,17.17-.39-4.76-.5-10.37,1.1-14.75,1.07-2.94-.24-4.66-3.35-4.33a43.112,43.112,0,0,1-8.8-.11c-3.53-.36-7.05-.93-10.59-1.19-1.24-.1-2.53-.4-2.46-1.53.6-9.36,4-43,5.18-52.57.56-4.64,1.67-21.54,2.55-27.68.22-1.5,1.2-1.77,2.39-1.75,8.79.17,35.82,1.53,40.55,1.84,6.28.4,34.59,2.39,42.48,2.84,8.58.5,32.8,1.06,37.7,2C402.26,190.41,397.46,218,392.72,244ZM547,128.18c-.34,1.86-4.92,44.91-6.07,52.42-.7,4.6-1.23,9.23-2.06,13.81s-1.57,4.8-6.16,4.66c-7.56-.23-15.12-.16-22.66-.77-1.73-.14-2.3,1.12-2.53,2.3-1.17,5.72-6.21,17.87-6.74,18.92-3.07-2.84-6.27-5.27-8.81-8.26-3.17-3.74-7-6.69-10.44-10.12-.75-.76-2-.79-4.35-.84s-48.2-2.79-54.92-3.58a102.9,102.9,0,0,0-13.14-.26,10.47,10.47,0,0,1-4.14-.6c-.14-3.71,1.17-7.19,2-10.71,1.51-6.73,2.87-13.51,5-20.1.91-2.84-.49-4-4.24-3.81a83.892,83.892,0,0,1-10.45-.35c-4.24-.37-8.5-.38-12.73-.8-1.08-.11-4.54-.33-5.21-.32a2.09,2.09,0,0,1-2.15-1.41c2.1-8.84,2.1-18.27,2.91-27.61.64-7.36,3.11-31.86,3.82-36.74.26-1.79,1.17-2.39,3.05-2.47,3.82-.15,30.6,1.53,32.43,1.57,15.55.31,31,2.23,46.53,3,6.37.32,26.79,2.73,30.74,3.09,3.44.32,6.87,1,10.28,1.55,8.49,1.5,17.14,1.69,25.65,3,4.8.73,16.53,2,17.26,2.4.34,2.79-2.07,17.44-2.87,22.03Z" transform="translate(-145.803 -87.58)"/>
  <path id="Path_1025" data-name="Path 1025" d="M501.45,309.3c.28-.79.3-1.92,1.62-1.9a2.26,2.26,0,0,1,2.4,2.41c0,.87-.38,2.17-1.55,2.06a2.54,2.54,0,0,1-2.47-2.57Z" transform="translate(-145.803 -87.58)"/>
  <path id="Path_1026" data-name="Path 1026" d="M452.77,306.56c-.22,1.34-.79,2.29-2.11,2.32s-1.79-1.1-2-2.24.5-1.7,1.64-1.73a2.29,2.29,0,0,1,2.47,1.65Z" transform="translate(-145.803 -87.58)"/>
  <path id="Path_1027" data-name="Path 1027" d="M282.59,410.26v-.99c-.08-.55.34-.84-1.69-1.25s-7.65.81-11.3,1.54a15.16,15.16,0,0,1-6.14.28c-.5-1.32.34-5-1.36-4.72s-2.36,5.12-1.61,7c.95,2.34,2.86,1.43,4.52,1.31.63-.05,1.26-.18,1.89-.27,3.93-.56,7.88-1.59,11.79-1.5,1.91.02,3.11-.25,3.9-1.4Z" transform="translate(-145.803 -87.58)"/>
  <path id="Path_1028" data-name="Path 1028" d="M267.28,389.74a2.16,2.16,0,0,1-1.07-3.18c.51-.94,1.48-.89,2.28-.9,1.06,0,1.1.95,1.19,1.72a2,2,0,0,1-2.4,2.36Z" transform="translate(-145.803 -87.58)"/>
  <path id="Path_1029" data-name="Path 1029" d="M284,383.56c-1-.54-2.51.55-2.55,2.49.33.74.77,1.7,1.81,1.6a2.52,2.52,0,0,0,2-2C285.5,384.82,284.56,383.85,284,383.56Z" transform="translate(-145.803 -87.58)"/>
  <path id="Path_1030" data-name="Path 1030" d="M577.09,381.34a2.76,2.76,0,0,1-2.35,3.71,129.436,129.436,0,0,0-20.63,4c-1.33.35-2.52.14-2.91-1.19s.62-1.68,1.76-2.07c3.56-1.2,7.37-.86,10.95-2,2.69-.87,5.49-1.43,8.25-2.12,2.1-.52,1.6-2.21,1.71-3.66s-1-3.89,1.26-3.86c2.01.05,1.66,6.27,1.96,7.19Z" transform="translate(-145.803 -87.58)"/>
  <path id="Path_1031" data-name="Path 1031" d="M556.74,364.93c-.45,3-3.43,1.77-3.66-.3,0-1,1-1.25,1.68-1.43,1.24-.31,2.03.15,1.98,1.73Z" transform="translate(-145.803 -87.58)"/>
  <path id="Path_1032" data-name="Path 1032" d="M575.28,360.12c0,1-.39,1.76-1.49,1.66a1.56,1.56,0,0,1-1.33-1.68,1.62,1.62,0,0,1,1.67-1.64C575.16,358.4,575.33,359.26,575.28,360.12Z" transform="translate(-145.803 -87.58)"/>
  <path id="Path_1033" data-name="Path 1033" d="M369.25,373.25a3.45,3.45,0,0,0-.12-.46l-.09-.25-.06-.13a4.411,4.411,0,0,0-.25-.43.36.36,0,0,0-.07-.1l-.15-.17c-.06-.07-.13-.12-.19-.18a31,31,0,0,0-8.67-1.5c-2.91,0-6.84-2.09-8.5,2.94-1.06,3.22-.83,4.65,2.55,5.55s6.8,1.75,10.2,2.65c1.09.29,2.18.32,2.76-.75a22.59,22.59,0,0,0,2.69-6.88,1.85,1.85,0,0,0-.1-.29Zm-2.77,1a10.7,10.7,0,0,1-1.05,3.33,2.77,2.77,0,0,1-1.69.68c-2.86-.42-9.82-2.09-10-2.13-.8-.19-.73-1.77-.37-2.6.53-1.26,1-1.68,2.42-1.49s8.65,1.18,10.23,1.46a.62.62,0,0,1,.46.73Z" transform="translate(-145.803 -87.58)"/>
  <path id="Path_1034" data-name="Path 1034" d="M370.92,354.26c.09-1.16.6-2.33,2-2.27a2.09,2.09,0,0,1,2.06,2.14c-.12,1.07-.53,2.49-2.1,2.44-1.25-.04-1.98-.81-1.96-2.31Z" transform="translate(-145.803 -87.58)"/>
  <path id="Path_1035" data-name="Path 1035" d="M356.35,351.2a2.5,2.5,0,0,1-1.64,3.52,2.18,2.18,0,0,1-2.11-1.17,1.78,1.78,0,0,1,.37-2.35c1.09-1.27,2.8-1.14,3.38,0Z" transform="translate(-145.803 -87.58)"/>
  <path id="Path_1036" data-name="Path 1036" d="M468.35,346.53c.35-2,1.39-2.18,3.36-2.65,6.92-1.65,13.94-4.05,20.54-5.76,1.49-.75,2.62-.5,2.73,1.53s.4,4,.5,6A2.84,2.84,0,0,1,493,349c-5.86,1.44-19.84,7.12-21.47,6.32s-1-1-1.92-3.94-1.61-2.79-1.26-4.85Zm3.16.81c1.12,4.2,1.57,4.46,5.37,3.27,1.51-.48,11.2-3.3,14.39-4.68,1.85-.8,1.27-2.31.78-3.45-.6-1.43-15.12,2.74-20.54,4.86Z" transform="translate(-145.803 -87.58)"/>
  <path id="Path_1037" data-name="Path 1037" d="M478.11,404.17c-3.37.07-5.63-.37-7.13-.28s-2.08.59-2.43,2.28a22.831,22.831,0,0,0-.28,5.59c.24.51,1.51.69,2.66.82a21,21,0,0,0,6.51-.37c.89-.92,2.78-8.03.67-8.04Zm-1.56,3.77c-.14.75-.27,1.5-.41,2.26l-5.6-.36a24.488,24.488,0,0,1,.38-3.82c2,.18,3.94.23,5.93.26Z" transform="translate(-145.803 -87.58)"/>
</svg>
