<svg id="socialmedia" xmlns="http://www.w3.org/2000/svg" width="703.391" height="336.249" viewBox="0 0 703.391 336.249">
  <path id="Path_939" data-name="Path 939" d="M396.78,321.49c-1.37,4.18.11,26.12,1.66,32.67,1.08,4.62-2.22,6.57-3.35,9.75a2.12,2.12,0,0,1-3.12.67c-1-.72-1.87-1.87-.55-2.93,5.07-4,3-9.54,3.08-14.58s-1.53-22.31-1-25.55c-7.26,0-38,.33-46.12-.29-4.34-.33-8.73,0-13.1,0-.88,0-1.82-.24-2-1.39a30.807,30.807,0,0,1-.25-4c-.09-9.91-.84-19.8-.16-29.74.47-6.84-.1-13.74-.16-20.62q-.15-15.65-.23-31.28v-16c-4,2-11,19.23-12.68,31.43-1.58,11.32,2.38,32.2.75,34.1s-4.05-1.38-4.09-3.44c-.18-8.85-1-17.65-.38-26.56s3.3-17.45,6.42-25.75c2-5.25,5.32-9.79,8.57-14.4,2.18-3.1,2.24-7.36,2.19-11.39-.09-7.13.5-14.26.47-21.38,0-6-.5-12.1-.77-18.15q-.33-7.29-.62-14.57a1.24,1.24,0,0,1,1.25-1.44c10.08-.45,91.68-6.24,99-6.38,4.71-.09,9.42-.35,14.13-.62q10.49-.6,21-1.33c10-.67,19.94-1.51,29.93-2,3.25-.15,6.55.58,9.82,1a1.6,1.6,0,0,1,1.43,1.78c-.08.87.65,37.44.88,44.66.33,10.34,1.08,36.94,1.08,36.94a77.937,77.937,0,0,0,2.68,8.8c3.18,7.48,6,15.09,7.34,23.07.53,3.12,2.24,14.65,2.24,14.65s35.57-1.84,53.12-3c.83-8.41.65-30.85.47-33.58-.08-1.1.41-1.54,1.46-1.8,7.1-1.79,82.18-3.69,87.85-3.46,1.44.05,2.07.9,2.12,2.44.3,11.05.71,22.1,1,33.16.11,3.76-.23,12.46-.23,12.46s9.91-.79,14.78-1.13c7.29-.49,14.55-1.41,21.87-1.42,5.59,0,11.27-.5,16.74.32,2.23.33,5.37.3,7.08,2.32s1.28,5,1.25,7.57c-.1,7.8.41,15.7-.64,23.38-1.63,11.95,3.62,22.71,4.65,34.14.2,2.17.57,4.34.88,6.7,3.05-.22,6.21.21,9.56.21s5.46,1.52,5.1,4.62c.22,10.17.27,20.54.17,30.79v4.91s2.79,5.33,4.48,8.52a77.255,77.255,0,0,1,6.68,17.3c.24.95.77,2-.16,2.8a1.41,1.41,0,0,1-1.76.34,3.18,3.18,0,0,1-1.65-2.69c-1-5.93-7.59-19.43-7.59-19.43s0,12.73-.65,17.67c-.24,1.85-6.24,7.12-8.29,7.39-8.88,1.21-17.76,2.49-26.74,2.68-3.27.06-2.26,2.65-2.12,3.91.53,4.7,2,12.62,1.83,14.07s-4.35,1.44-6.26,3c-2.22,1.84-3.4.1-3.71-2.29,1.78-1.18,3.52-2.36,5.28-3.49,1.38-.88.64-2.1.57-3.2-.24-3.93-.52-7.87-.79-12-5.83,1.28-11.54,1.22-17.32,1.85.28,4.62.53,9.25.85,13.87.05.79.47,1.54.59,2.33.24,1.54.61,3.18-1.81,3.39-1.15.09-4.82,2.46-5.7,1.5s-1-2.51.36-2.92c4.39-1.34,4-4.47,3.55-7.93-.44-3.24-.59-6.52-.89-10-8.43.59-16.88,1-25.29,1.82-3.75.35-4.74-1.63-5.14-4.63-1.36-10.07.79-20.1.28-30.15a4.593,4.593,0,0,0-.29-.89,37.869,37.869,0,0,0-6.37,12.62,46.57,46.57,0,0,0-2.17,14.05,11.3,11.3,0,0,0,.16,3.09c.43,1.28.51,2.42-1,2.63s-2-1-2.08-2.31a57,57,0,0,1,3.11-21.09c1.65-5,4.61-9.18,7.51-13.43,2.1-3.07,1.45-6.57,1.59-9.91.2-4.66,0-9.34,0-14.14a50.237,50.237,0,0,0-12.72.43c-1.93.33-2.38-.79-2.33-2.23.34-9.72-1.19-19.34-1.59-29-.08-1.86-.39-3.72-.69-6.41a29.119,29.119,0,0,0-2.32,10c-.31,3.48-.42,7-.74,10.47-.11,1.25-.27,3-1.87,3-1.91,0-1-1.84-1-2.83a74.88,74.88,0,0,1,2.14-20c-5,.78-9.27.2-14.77.89-5.87-.18-6.8,1.86-6,6.9.68,4.42,1.21,14.63,1.21,14.63s12.13,1.86,15.47,3c3.49,1.2,3.82,3.38,3.51,6.35-.78,7.52-.71,15.08-.87,22.63-.21,10.28-.56,20.55-.86,30.83a1,1,0,0,1-.27.74c-4.76,3.76-9.49,7.1-12.38,6.58s-12.73-1.69-17.74-2.52c-1.07-.34-1.17.46-1.2,1.46-.19,5.67.66,16.21-.53,17.28s-4.27,1.57-7.61.84-.59-3.2.45-3.31S600,429,600,429s.87-12.32.56-14.81c-.09-.74-.2-1.22-1.09-1.27-5.61-.3-11.07-2.08-17-1.46-1.27,2,1.39,14.15.94,16.05s-5.22,3.64-7.72,4.15a1.88,1.88,0,0,1-2.14-1.15c-.43-.82-.14-2.11.77-2.24,7.23-1.1,5.53-6.36,5.24-11a35,35,0,0,0-.54-6c-.79-3.24-15.37-3.14-20.24-4.33-5.14-1.27-4-4.52-3.93-7.43.09-7.57-.16-15.12-.54-22.67,0-.57-.19-.9-.94-1.06-4.64,6.12-7.57,12.87-6.87,20.78.15,1.63-.67,2.76-1.71,2.81-1.47.08-1.32-1.56-1.42-2.71-.83-9.66,3.12-17.65,8.65-25.13a32.917,32.917,0,0,0,2.4-4.7l-22,2.17c1.37,8.3,2.48,16.36,4.13,24.3.56,2.67.18,4-2.26,4.94a24.467,24.467,0,0,0-3.2,1.81c-1.17-.86-1.59-2.16-.3-2.94,2.46-1.46,2.42-3.59,2.14-5.86-.73-5.92-1.31-11.87-2.42-17.72-.37-2,.69-4.43-3.8-3.82s-23,2.16-25.15,2.45c-2.85.37-4.19-.56-4.26-3.69-.09-3.49-2.66-34.54-2.74-36-2.74,1.95-4.15,4.73-5.54,7.34-4,7.42-4.57,15.57-4.42,23.8,0,1-.2,2.07-1.09,2.09-1.27,0-1.63-1.33-1.6-2.35A80.26,80.26,0,0,1,484,345.93a39.871,39.871,0,0,1,4-10.05,85.615,85.615,0,0,1,5.51-7.73c1.68-2.34.92-8.08.92-8.08s-42.89,1-47.88,1.1c-1.22,0-1,13.37-.86,19.16a115.251,115.251,0,0,0,1.88,18.27c.36,1.89,2.57,2.47,4.05,3.51.73.51,1.79,1,1.08,2a1.85,1.85,0,0,1-2.66.55c-1.46-.95-3-1.8-4.51-2.67-2.49-1.43-1.91-4.11-2.29-6.22-1.12-6.27-.49-12.64-.54-19V320.93c-15.82.3-30.79-.83-45.92.56Zm98.83-95.07c0-.22-.05-.44-.07-.66-1-9.23-.86-18.6-1.08-27.91-.2-8.08-.31-43.39,0-52.95.15-4.42,0-5.37-7-5.49s-146,10.14-153.2,10c.46,6.87,1.09,13.5,1.32,20.15q.47,13.43.41,26.89c-.06,8.43-.52,16.85-.7,25.29s-.31,17-.32,25.53c0,9.33.21,44.75.1,53.13a97.924,97.924,0,0,0,1.65,18.19c7.1-.45,37.27-.05,45.07-.36,9.31-.38,18.62.62,27.95,0,6.09-.39,12.21-.44,18.32-.43,5.59,0,58.23-1,64.62-.61.7,0,1.11-.21,1.12-.8,0-3.06.11-6.13-.1-9.18-.26-3.84-.82-7.65-1.17-11.49s-3.15-14.64-.65-16.38a48.261,48.261,0,0,0,5.69-5.08,11.169,11.169,0,0,0,.25-3.13c-.57-4.37-1.38-37.13-2.21-44.71Zm1.38,86.5c.51,7.56,3.05,50,3.53,53.7.1.79-.24,2.33,1.23,2.31,3.95-.07,23.3-2.22,29-3.19,6-1,23.86-2.55,23.86-2.55s.22-12.62-.06-16.22c-.23-2.87.3-2.82,2.5-3.88a36.636,36.636,0,0,0,4.62-3.42c2.55-2,3.33-1.45,5.31-1.13,4.48.71,9,1.24,13.79,1.88-1.07-7-.7-13.83-1.33-20.57-.8-8.62-1.13-17.25-1.29-25.89-.1-5.68-.4-11.37-.32-17,0-1.92.7-3.8-2.19-3.5-13.35,1.42-26.76,2.27-40.07,4.15-12.69,1.79-25.45,3.14-38.18,4.63-1.87.22-3,1.34-3,3,.02,2.36,2.21,22.05,2.61,27.68Zm80.86-48.67c3.23.87,6.44.08,9.59.33,1.24.1,1.77.26,1.69,1.74A101.173,101.173,0,0,0,588.9,279c.58,7.86,1,15.7,1.1,23.59,0,1.94-.34,4.08.27,6,.25.75,5.18,7.91,6.85,11,.29.54,1.61,2.47,1.61,2.47s6.85.13,10.51,0c7.49-.29,27.71-1.05,28.86-2.22,2-2.07,4-5.25,4-8,.24-7.14-.5-14.32-.95-21.47-.23-3.71.07-7.43-.3-11.18-.2-2,.36-2.54,2.49-2.6,6.08-.16,20.79-2.6,20.79-2.6s.71-11.25.66-16.06c-.07-5-.61-10-.6-15,0-4.62.21-9.22-.68-13.73-12.36-.39-53.39,1-61.86.95a130.368,130.368,0,0,0-21.63,1.5c-1.08.16-1.85.7-1.85,1.77,0,4.87.21,9.74.19,14.61.03,5.26.43,10.65-.51,16.22Zm140.66,10.87a355.791,355.791,0,0,0-75.12,4.94c1.78,25.63.9,51.07,4.13,76.3,3.88-.6,11.6,0,11.6,0a7.36,7.36,0,0,1,1.52-3.5c3.45-3.41,10.49-6.35,16.31-6.77,12.8-.92,25.56-.81,38.35-.92.89,0,3.22.65,2.67-1.86s-.4-4.77-.68-7.13c-1-8.88.13-17.72.21-26.57,0-5,.7-10.09.48-15.11C717.7,288.12,719.29,281.85,718.51,275.12Zm19.71,138.64a23.684,23.684,0,0,1,0-2.39c.91-9.07.25-18.63.65-27.27s.2-18.59-.09-27.74c0-1.74-1.16-2.06-2.81-2q-9.53.21-19.06.36c-6.95.11-13.92.59-20.83.2a204,204,0,0,0-29.67.63c-1.29.12-3.9-.53-4,1.75-.47,10.64-.66,21.28-1,31.93-.25,8.44-.48,16.89-.8,25.33-.17,4.34,1.06,6.21,4,5.92,5-.49,10-1.17,14.94-1.24C688.5,419.09,733.57,416,738.22,413.76ZM557.06,349.12c.51,5.14,0,44.08,0,51.65,0,1.75,1.43,2.88,3.8,3.28,3.35.57,6.72.75,10.06,1.24,5.54.82,11,2.28,16.56,2.84,4.94.49,9.93,1.14,14.76,1.92,6,1,12,2,18.07,1.83.85,0,2.2.5,2.25-.46.22-3.87.09-7.74.09-12-1.92,2.45-3.52,4.3-5.22,6.66s-4.7,2.06-3.32-.05a66.3,66.3,0,0,1,4.12-6.26c2.73-3.31,5.32-6.59,5.57-11.13.21-3.68.57-7.33.47-11.05-.13-4.95.41-9.91.68-14.87.18-3.19.31-6.52-4.11-6.65-7.69-.21-15.08-2.45-22.76-2.9-6.16-.36-12.27-1.66-18.47-2.06-7.44-.53-14.86-1.31-22.55-1.99ZM504,142.56c-.28-3.66-3.59-2.2-5.53-2.51-1.56-.24-1.12,21.94-1.19,27.55-.05,4.92-.09,9.84,0,14.76,0,4-.21,8.1-.07,12,.14,3.7.41,7.48.5,11.22.15,5.84,3.34,49.57,3.06,57.89a73.55,73.55,0,0,0,.71,8.5c1.08-.94,6.17-1.47,6.29-5.31s-.18-12.18-.53-17.36c-.38-5.75.11-20.33.11-20.33s-8.25-16.84-5.92-18.07,5.09,5.92,5.09,5.79c-.32-10.03-2.14-69.78-2.52-74.13Zm-6,136.52c4.78-.67,9.56-1.43,14.36-2,6.61-.77,13.24-1.34,19.85-2.1,6-.68,12-1.59,18-2.21,8-.83,25.81-1.69,27.66-1.83s4.11-3.74,4.11-3.74-14.52.57-20,.59a391.7,391.7,0,0,0-42.61,2.61c-7.88.9-16.01,1.36-21.37,8.68Zm90,62.49a17.968,17.968,0,0,0,.09-2c-.5-8.26-1.2-16.51-.87-24.82.09-2.22.3-4.89-1.91-6.8-1.5-1.3-3.06-2.82-2.37-5.09,1.92-1.23,2.25,1.31,3.82,1.39.53-12-1.74-23.9-.41-36.68-2.82,2.26-6,2.89-6,6.4.17,7.94.37,15.89.78,23.81.72,13.53,3.07,42.66,3.07,42.66Zm137,3.24s-.84-15.75-.48-20.36c.4-5.18,1.3-10.3-1.7-15.09a2,2,0,0,1,.05-2.49c.86-1,1.8-.15,3.32,0,0-8.79.76-29.76.76-29.76l-5.3-1.64s-2.69,46.62-.38,69.32C722.12,344.7,725,344.81,725,344.81Zm22,6c-1.78.49-4.45,2.41-5,3.56a7.38,7.38,0,0,0-.59,3.4c.11,6.93.33,13.86.27,20.78-.09,10.51-.39,21-.56,31.51,0,.86.31,2.23,1.4,1.69,1.54-.76,3.28-1.72,3.57-3.76.2-1.38.91-18.34.91-18.34s-1.42-2.38-2.37-3.59c-.84-1.06-1.91-4.06-.53-4.21s1.62.83,2.54,2c-.23-4.79.27-7.73.36-12.48.12-6.47-.1-14.61,0-20.6Zm-112.58,4.46c-4.39,1.41-6.42,1.82-6.42,1.82s-.21,17-.41,23.46c0,.52.11,1.23.84,1,1.66-.5,1.5.67,1.51,1.58,0,2.25-1.58,3.94-2.11,6-1.33,5.22-1.17,10.61-1.71,15.92-.23,2.25,0,4.54,0,7.25a46.281,46.281,0,0,1,7.11-4.44s-.34-12.13,0-25c.23-11.98,1.19-24.61,1.19-27.63Zm-2-3a52.429,52.429,0,0,0-10.29-2.5c-6.24-1-13.53-2.71-18.84-2.71-9.18-1.69-19.61-2.78-28.72-4.86-3.57-.81-9.79-1.76-9.79-1.76s-7,4.15-7,5.52,37.9,3.6,44.94,4.61c7.5,1.08,15.08,1.42,22.52,3,2.4.53,7.19-1.3,7.19-1.3Zm-32.57-27.46c.17.61.23.95.35,1.27,2.17,5.83,5,11.46,5.89,17.71a1.6,1.6,0,0,0,1,1.11c2.32.42,4.67.7,7,1-.59-6.85-1.18-13.61-1.77-20.5Zm-88.65-56.1,6.73-1.26s-.3-7.18-.91-10.72c-.91-5.28-2-10.53-3.33-15.72a93.573,93.573,0,0,0-3.3-9.06c-.33,4.78.82,36.76.82,36.76Zm233.72,79s-61.95,0-71.87.95c-1.91.17-5.13,2.73-7.2,3.93,22.06-1.06,72.65-.78,72.65-.78Zm-142.19-3.89c-.53-2.12-1.14-4-1.61-6-.89-3.77-4.62-12.91-4.62-12.91l-6.23-.21.73,17.1a12.139,12.139,0,0,0,2.54,1.07c3.01.56,6.01,1.38,9.2.94Zm128.54,1.52s-2.36-14.57-3.37-20.52c-.66,5.7,0,20.08,0,20.08ZM594,321.56c-1.14-2.6-2-5.11-3.71-7.24,0,1.76-.05,7.26-.05,7.26a15.39,15.39,0,0,0,3.76-.02Z" transform="translate(-57.488 -136.3)"/>
  <path id="Path_940" data-name="Path 940" d="M374.32,407.09c.68,7.88,1.31,15.19,1.94,22.51.36,4.18,1.69,10.47-.12,12.28s-16.88,1.76-20.59,1.77a2.12,2.12,0,0,0-2.36,2.42c.12,4.56.23,9.13.29,13.69,0,1.37.89,1.38,1.81,1.3,1.52-.15,2.81.35,2.7,2s-1.66,1.33-2.84,1.3c-2.9-.08-4.73-.93-4.56-4.47.27-5.17.07-10.37.07-15.45-6.83,1.38-14.07,3.09-21.68,3.41.47,4.9,1,10,1.47,15.21,1.8.2,5.15,2.59,4.53,4s-5.1-.14-6.9-1.36c-1.42-1-.78-2.59-.6-4.12.51-4.52-.7-8.93-.88-13.25-7.31-.12-17,3.07-19.53,2.23-1.6-.53-4.22-1.87-5.61-2.25-1.67-.46-2.37-.75-2.44-3.06-.18-6.12.51-12.23-.22-18.43-.66,3.83-1.44,7.63-1.95,11.47-.36,2.64-.32,5.34-.5,8-.08,1.13-.46,2.27-1.87,2.11s-1.13-1.24-1.07-2.34a107.2,107.2,0,0,1,5.79-30.48,9.828,9.828,0,0,0,.43-2.27s-.71-19-.82-23.84c-.1-4.5-.39-9-.65-13.51-.09-1.53.47-2.17,2-2.5,13-2.78,26.3-2.88,39.33-5.25,7.3-1.32,14.61-2.53,21.91-3.85a4.14,4.14,0,0,1,4.53,1.57c2.05,2.66,5.05,4.83,6.3,7.78s.7,6.34.82,9.55c.27,7.54-.45,15.06,3.61,22.19,3.65,6.4,5.8,13.56,7.65,20.76,1.14,4.46,3,9.28,3.57,13.36.55.89-.34,1.42-1,1.69a1.028,1.028,0,0,1-1.52-.74c-.15-2.83-4.56-18.85-6.38-24.05-1.08-3.07-1.98-6.36-4.66-9.38Zm-66.08-25.52v6.2c.11,8.67.52,17.34.29,26a225.928,225.928,0,0,0,1.33,32c.16,1.41.66,1.51,1.79,1.32,2.9-.5,5.8-1,8.72-1.37,6.18-.77,12.41-1.19,18.54-2.22,7.87-1.33,15.71-2.66,23.69-2.91,3.22-.1,6.44.12,9.66.17,1.25,0,2.11-.54,2.06-1.89-.1-2.32-.29-4.64-.45-7-.76-10.46-2-20.88-2.24-31.39-.15-8.22-.79-16.43-1.22-24.6-20.86-.97-41.41,3.42-62.17,5.69Zm-1.17,65.54s-1-17.14-1.26-25.23c-.16-5,.86-9.88.41-15-.66-7.47-.31-15-.19-22.56.08-4.44-.37-5.23-5.19-6.3,1.17,11-.43,21.91.61,33,1.12-.79,1.84-2.66,3.32-1.36s-.31,2.18-.86,3.14a14.65,14.65,0,0,0-2.13,7c-.24,6.43-.15,25.14-.15,25.14Zm56-80.85c-2.81.38-6.13,1.53-8.9,1.72-5,.34-11.85,1.85-18.87,2.74-15.79,2-32.69,3.95-32.93,4.19a29.172,29.172,0,0,0,3.1,1.78c1.95.88,3.69,2.31,6.1,2,4.45-.59,24.49-2.56,39.61-4.13,9.95-1,17.61-.75,17.61-2.05-1.33-1.43-3.79-3.74-5.79-6.25Z" transform="translate(-57.488 -136.3)"/>
  <path id="Path_941" data-name="Path 941" d="M436.45,206.76c.15-2.39-.65-4.1,2.22-4,1.81-.23,1.77,2.37,1.36,4.45a43.612,43.612,0,0,0-1,5.65c-.1,1.46-1.41,1.59-5.1,2s-35,1.14-36.85,1c-2.47-.17-5.05-.13-4.81-4.14.14-2.42-1-4.95-1.78-7.37-.39-1.2-.45-2.2.7-2.71s1.78.24,2.1,1.42c.64,2.32,1.69,4.56,2,6.91.25,1.78,1.13,2.58,2.56,2.57,8.81.32,30.55-.47,34.28-.55S436.29,209.15,436.45,206.76Z" transform="translate(-57.488 -136.3)"/>
  <path id="Path_942" data-name="Path 942" d="M382.73,182.16c-1,1.69-2.52,1.37-3.66-.19a1.87,1.87,0,0,1,0-2.41c.69-.95,1.61-.78,2.53-.53C383.42,179.52,383.74,180.47,382.73,182.16Z" transform="translate(-57.488 -136.3)"/>
  <path id="Path_943" data-name="Path 943" d="M445.49,185.29c-.7,1.38-2.74.7-3.64-.37a1.494,1.494,0,0,1,.53-2.6,2.43,2.43,0,0,1,2.52.13c.99.68,1.28,1.46.59,2.84Z" transform="translate(-57.488 -136.3)"/>
  <path id="Path_944" data-name="Path 944" d="M555.32,315.84a9.087,9.087,0,0,0-.21-1.91,1.63,1.63,0,0,1,.87-2.21c.42-.2,1.3-.31,1.43-.11.51.76.89,4.31,1,5.27.24,1.55-.53,2.95-2.35,2.57-4.12-.87-8,.4-12.06.67-3.41.23-6.48,1.45-9.7,2.22a2,2,0,0,1-2.64-1.71c-.38-2.07-.88-4.12-1.31-6.18-.2-.95-.08-1.88,1-2.15s1.28.92,1.32,1.48c.36,4.47,2.4,5.26,6.67,4.22,5.18-1.25,10.57-1.47,15.98-2.16Z" transform="translate(-57.488 -136.3)"/>
  <path id="Path_945" data-name="Path 945" d="M520.05,300.58c-.87-.22-1.29-1.06-1.13-2.29a1.26,1.26,0,0,1,1.66-1.12c.78.2,1.39.52,1.24,1.71-.11.86-.56,2.05-1.77,1.7Z" transform="translate(-57.488 -136.3)"/>
  <path id="Path_946" data-name="Path 946" d="M554.61,298.22c.11.82-.28,1.2-1.09,1.18s-1.71-.31-1.71-1.13.35-1.8,1.51-1.8,1.11.98,1.29,1.75Z" transform="translate(-57.488 -136.3)"/>
  <path id="Path_947" data-name="Path 947" d="M633.41,266c1.54.66.38,5.47-.1,8-.52,2.67-3.27,2.67-5.38,2.84a23.564,23.564,0,0,1-3,0c-2.14-.06-3.55.28-6.48.24-1.66,0-1.76-1.66-2-2.83-.42-2-.57-4.06-.8-6.11-.1-.88.7-1.59,1.2-1.5a2.21,2.21,0,0,1,1.65,2.4c-.12,3.48,0,5,4.37,5.13a34.3,34.3,0,0,0,8.65-1s.36-7.85,1.89-7.17Z" transform="translate(-57.488 -136.3)"/>
  <path id="Path_948" data-name="Path 948" d="M633.42,255.81a2.19,2.19,0,0,1-1.82-2.75,1.39,1.39,0,0,1,1.73-.86,1.71,1.71,0,0,1,1.55,1.59c.22,1.32-.19,2.21-1.46,2.02Z" transform="translate(-57.488 -136.3)"/>
  <path id="Path_949" data-name="Path 949" d="M616.13,254.34c0,1.51-2.56,1.36-3,.58s-.92-1.52,0-2.07C614.74,252,616.13,252.84,616.13,254.34Z" transform="translate(-57.488 -136.3)"/>
  <path id="Path_950" data-name="Path 950" d="M670.19,322.66c7.07.15,13.87-.09,21.11-.61,1.55-.16,2.58.3,2.74,1.33.19,1.25-.32,1.84-2.17,1.93-5.69.26-11.39.51-17.08.8-.63,0-4.81.88-6.59.28-1.58-.53-1.2-2.49-1.27-4s-.53-3.11-.69-4.68c-.11-1-1.17-2.43.82-2.81s1.92,1.64,2,2.38a30.63,30.63,0,0,0,1.13,5.38Z" transform="translate(-57.488 -136.3)"/>
  <path id="Path_951" data-name="Path 951" d="M667.69,303.36a1.93,1.93,0,1,1-1.65-2.89C667.53,300.69,668.31,302.62,667.69,303.36Z" transform="translate(-57.488 -136.3)"/>
  <path id="Path_952" data-name="Path 952" d="M688.1,305.06c-1.68,0-1.69-2.76-1.09-3.93.42-.81,1.56-.67,2.63,0a2.24,2.24,0,0,1-1.54,3.93Z" transform="translate(-57.488 -136.3)"/>
  <path id="Path_953" data-name="Path 953" d="M707.8,385.93c.88-2.19.37-6.15,2-6.2s1.72,1.49,1.59,2.9c-.16,1.88-.81,3.5-.76,5.39,0,1.69-1.35,1.8-2.52,1.4-5.43-1.88-10-.94-15.48-.84-2.38.05-3-.44-3.07-2.09a67.317,67.317,0,0,1,0-7c0-.57.16-1.2,1-1.27a1.44,1.44,0,0,1,1.76,1.11,22.993,22.993,0,0,1,.47,4c0,1.49.42,2.3,2.11,2.23a76.278,76.278,0,0,1,12.9.37Z" transform="translate(-57.488 -136.3)"/>
  <path id="Path_954" data-name="Path 954" d="M691.2,364.79c1.22.38,2.3.89,2.29,2.34a1.71,1.71,0,0,1-1.87,1.72,2.18,2.18,0,0,1-2-2.3,1.73,1.73,0,0,1,1.58-1.76Z" transform="translate(-57.488 -136.3)"/>
  <path id="Path_955" data-name="Path 955" d="M715.06,370.43a1.25,1.25,0,0,1-1.54.82c-.93-.2-2.29-.7-2.2-1.9a2.07,2.07,0,0,1,2.23-1.77c.94.08,1.69.72,1.51,2.85Z" transform="translate(-57.488 -136.3)"/>
  <path id="Path_956" data-name="Path 956" d="M580.13,376.74c1.55-.58,2.79,1.16,2.77,2.87,0,1,.69,2,1.51,1.91,5.15-.6,10.18.72,15.29.74,1.85,0,2.37-.84,2.7-2.4.18-.9.21-2.44,1.74-2.09s1.42,1.1,1,2.79c-1.3,4.94-.5,4.48-5.58,4.25-4.81-.21-11.08-1.2-15.91-.14-2.06.46-2.6.43-2.85-1.78-.25-1.98-2.21-5.57-.67-6.15Z" transform="translate(-57.488 -136.3)"/>
  <path id="Path_957" data-name="Path 957" d="M578,362.81c1.34,0,2.07.89,1.72,2.41-.23,1-1.59,1.2-2.52.51a1.57,1.57,0,0,1,.8-2.92Z" transform="translate(-57.488 -136.3)"/>
  <path id="Path_958" data-name="Path 958" d="M599.55,365.74c1.66-.62,2.25.23,2.5,1.23.17.68-.28,1.08-1,1.62C598.93,369.74,597.89,366.36,599.55,365.74Z" transform="translate(-57.488 -136.3)"/>
  <path id="Path_959" data-name="Path 959" d="M256.73,304.8c-3.27.59-8.05,1.36-12.79,2.34-1.74.35-2.68.23-2.92-1.79a33,33,0,0,0-1.21-5.27,1.81,1.81,0,0,1,.3-2c.21-.21,1.13,0,1.23.08.28.34,1.82,5.07,1.82,5.07s2.35-.15,3.47-.17c6.64-.09,13.08-2,19.75-1.69,1.9.1,3.62-.67,3.21-3.25a1.86,1.86,0,0,1,1.74-2.4c1.56-.09,1.2,1.16,1.17,2.19s.27,2,.24,3,0,2.48-1.48,2.64c-4.33.45-8.67.77-14.53,1.25Z" transform="translate(-57.488 -136.3)"/>
  <path id="Path_960" data-name="Path 960" d="M226.86,403.48c1.09.36.27,4.8.7,7.06.16.86,1.1,1.18,2,1.26,5.37.44,24-1.17,24-1.17a11.579,11.579,0,0,1-.21-2c0-1.65,0-4.18,1.91-4.13,1.49-.05.65,2.64.74,4.27.27,4.54-1.74,4.15-4.21,4.47S231.56,415,226.86,415c-2,0-1.37-1.64-1.39-2.59-.05-2.49-.23-5.51-.23-7.47s.53-1.83,1.62-1.46Z" transform="translate(-57.488 -136.3)"/>
  <path id="Path_961" data-name="Path 961" d="M179,281.28c-6.08.68-12.21,1.09-18.22,2.17-2.81.51-3.17-5.76-3.42-7.41-.13-.89-.3-1.93.82-2.26a1.8,1.8,0,0,1,2.19,1.39c.11,2.58.59,5.83.59,5.83s13.52-2.51,17-3c1.53-.21,3.81-.56,3.75,1.33C181.69,281.05,180.45,281.38,179,281.28Z" transform="translate(-57.488 -136.3)"/>
  <path id="Path_962" data-name="Path 962" d="M178.36,255.45a2.17,2.17,0,0,1,1.95-1.89c1.15,0,1.7,1.05,1.73,2.07.05,1.34-1.08,1.74-2.16,1.85-1.5.15-1.5-1.18-1.52-2.03Z" transform="translate(-57.488 -136.3)"/>
  <path id="Path_963" data-name="Path 963" d="M146.76,255.83a2,2,0,0,1,2.24,2.73c-.26.91-1.09,1.77-2.16,1.25C144.38,258.6,145.38,256.08,146.76,255.83Z" transform="translate(-57.488 -136.3)"/>
  <path id="Path_964" data-name="Path 964" d="M103.71,355.1c.58.1,2.19,5.09,2.19,5.09s14.38-3.92,18.66-4.84c1.19-.25,1.67-.36,1.27-1.74-.22-.75-.59-2.06.62-2.47,1.39-.48,1.42.92,1.76,1.69,1.58,3.56-.43,6.11-5.06,6.32-4.82.22-9.15,2.35-13.62,3.73-4.91,1.52-5.71,1.62-6.67-3.64s-.31-4.35.85-4.14Z" transform="translate(-57.488 -136.3)"/>
  <path id="Path_965" data-name="Path 965" d="M120.51,338.12a1.6,1.6,0,0,1,1.56,1.81c-.07.76-.18,2.05-1.55,2-.93-.05-1.65-.47-1.51-1.53s.29-2.03,1.5-2.28Z" transform="translate(-57.488 -136.3)"/>
  <path id="Path_966" data-name="Path 966" d="M95.09,343.81c-1.09.85-2.4-.16-2.53-1.53a1.51,1.51,0,0,1,1.93-1.75C96.08,340.79,96.19,343,95.09,343.81Z" transform="translate(-57.488 -136.3)"/>
  <path id="Path_967" data-name="Path 967" d="M329.4,411.42c.69,0,2.51,3.39,2.51,3.39l14.51-1.67s-.38-2.68,1.46-2.94,2.9,5.4-.22,5.87-10.2,1.21-14.21,1.58c-1.36.12-3.07,1.33-3.71-.51-.74-2.03-2.03-5.71-.34-5.72Z" transform="translate(-57.488 -136.3)"/>
  <path id="Path_968" data-name="Path 968" d="M347.66,398.63c0,1.05-.48,1.71-1.56,1.75a2.06,2.06,0,0,1-2.08-2c-.18-1.24,1.07-1.41,2-1.53,1.21-.18,1.45.83,1.64,1.78Z" transform="translate(-57.488 -136.3)"/>
  <path id="Path_969" data-name="Path 969" d="M330.13,399c-.21.72,0,2-1.46,2a1.92,1.92,0,0,1-2-2c0-1.35,1.12-1.5,2.15-1.56S330.23,397.86,330.13,399Z" transform="translate(-57.488 -136.3)"/>
  <path id="Path_970" data-name="Path 970" d="M224.43,387.06a1.384,1.384,0,0,1-1.42,1.59,1.87,1.87,0,0,1-1.88-1.82c-.17-1.14,1-1.28,1.76-1.39,1.11-.16,1.37.76,1.54,1.62Z" transform="translate(-57.488 -136.3)"/>
  <path id="Path_971" data-name="Path 971" d="M251.72,386.25c0,.95-.44,1.56-1.42,1.59a1.86,1.86,0,0,1-1.88-1.82c-.17-1.13,1-1.28,1.76-1.39,1.15-.16,1.37.76,1.54,1.62Z" transform="translate(-57.488 -136.3)"/>
  <path id="Path_972" data-name="Path 972" d="M269.74,276.34a1.523,1.523,0,0,1-1.57,1.75,2,2,0,0,1-2.07-2c-.18-1.25,1.06-1.42,1.94-1.53C269.3,274.39,269.54,275.4,269.74,276.34Z" transform="translate(-57.488 -136.3)"/>
  <path id="Path_973" data-name="Path 973" d="M246.15,277.77c-.21.72,0,2-1.46,2a1.91,1.91,0,0,1-2-2c0-1.35,1.13-1.5,2.15-1.56s1.42.38,1.31,1.56Z" transform="translate(-57.488 -136.3)"/>
  <path id="Path_974" data-name="Path 974" d="M319.21,326.07c-.67-2.42-1.43-4.83-1.88-7.3-2.12-11.6-7.15-22.11-12.44-32.47-1.83-3.59-4.48-6.94-5.41-10.81a100.469,100.469,0,0,1-2.73-18.94c-.13-2.92-.24-5.85-.19-8.77,0-.51-.84-2.45-1.72-2.33-4.81.66-9.64,1.23-14.45,1.91-8.87,1.23-17.73,2.57-26.6,3.76-5.61.75-11.32,1-16.86,2C231,254.27,218,255.7,218,255.7s-2.2-9.64-2.8-13.47c-.75-4.77-2.06-9.95-2.67-13.84-.42-2.74-2.13-2.58-3.64-2.42-6,.61-22.6,1.8-25.93,2.27q-6,.85-12.14,1.39c-7.29.65-14.62,1-21.88,1.8-11.14,1.29-22.23,3-33.46,3.4-1.91.07-4.28-1.24-5.6.19-1.7,1.85-3.82,3.13-5.48,4.91-1.35,1.44-3.88,1.85-3.86,4.6,0,3.9.1,17.59.34,20.39A96.782,96.782,0,0,0,102,275.27c.93,4.91,1.83,9.44-.8,14.34a50.422,50.422,0,0,0-3.3,9.54,53.108,53.108,0,0,0-1.34,8.49s-20.74,3.05-29.25,4c-3.71.4-6.41.74-6.34,5.26,0,2.78-.36,5.57-.24,8.35.27,6.26.63,12.53,1.15,18.78.4,4.84.89,9.68,1.72,14.46.4,2.34.68,5.25.68,5.25s-5.08,12.08-5.64,15.57a60.441,60.441,0,0,0-1.11,14c.28,4.11.47,8.25,2.83,11.86.43.66,1,1.29,1.9.91s.68-1,.48-2.05-1.11-1.82-1.38-3c-1.36-5.9-.87-11.77-.2-17.66a42,42,0,0,1,4-13.35c-.11,2.08,2.09,16.75,3.22,23.14.34,2,.48,5.59,1.94,6.31s5.34,2.55,7.4,2.8,6.74-2.05,9.14-2.5c4.58-.86,9.12-2,13.71-2.73.81-.13,2.65-1.45,3,1.41.4,3.17.44,6.32.64,9.49.31,5,1.21,7.52,1.19,11.41,0,2.33-.76,5.71,1.86,7,3.43,1.63,10.12,4.35,11.2,3.47s-.34-3.69-2.92-4.13-6.17-.17-6.93-3.94c-1.6-7.93-1.78-16-2.65-24-.12-1.11.33-1.56,1.48-1.94,3.35-1.11,6.83-1.24,10.26-1.72,5.31-.75,15.34-1.46,15.34-1.46s3.31,20,2.67,25.44c-.27,2.28.84,3.53,3.25,3.66a10.09,10.09,0,0,1,4.94,1.08c.5.31,1.21.86,1.92.13a1.89,1.89,0,0,0,.63-2.07c-.29-.77-1.14-.78-1.82-1.08-2.08-.93-5.52.18-6-3.24-1-7.47-1.64-15-2.39-22.44-.1-.95-.09-1.94,1.41-1.84,2.69.18,19.14-1.83,22.41-2.19s5.22-1.34,5.22-3.28-2.79-20.32-3.79-28.7c-.32-2.68-2-5.49-.27-8.19a2.1,2.1,0,0,0-.54-3.2,2.49,2.49,0,0,1-1.07-2.1c-.54-6.93-1-13.86-1.5-20.91l3.81-.64c1,7.63,1.95,15.09,3,22.55.24,1.8-.32,4.07,1.12,5.25,2,1.64,4.69,2.19,7.26,2.64.39.07,1-.51,1.35-.94a1.26,1.26,0,0,0-.31-1.77,8.22,8.22,0,0,0-2.69-1.28c-2.05-.48-3.2-1.26-3.25-3.74a89.091,89.091,0,0,0-1.23-10.24c-.61-4.45-1.25-8.89-1.92-13.59l25.28-2.7c-2,8.39-3.92,16.43-2,24.76.33,1.47.25,4.08,2.34,3.59,1.83-.42.4-2.34-.08-3.59a1.36,1.36,0,0,1-.07-.35c-1-8.1.56-15.91,2.85-23.61.5-1.7,2.38-1.51,3.81-1.58,1.21-.07.9,1,1.07,1.77,1.53,6.85,1.31,13.94,2.92,20.81.45,1.89,1.95,12.52,5.12,13.19s6.45,2.05,10.26.63c8.81-3.28,18.17-4.87,26.94-8.13v15.28c-5.07,1-9.75,2.1-14.49,2.7-8.3,1.07-34.26,4-39.09,6a27,27,0,0,0-8,5.2c-1.76,1.84-2.27,4.37-1.54,7.34s.92,6.2,1.56,9.27c.89,4.24,1.08,8.57,2.31,12.79.07.26.15.55.23.86.9,3.4,2,9.06,2,9.06a13.322,13.322,0,0,1-.65,2.25c-3.53,7.76-7,15.47-7.39,24.16,0,1.22-.28,3.1,1.38,3.18s1-1.71,1-2.72c.19-7.14,6.06-21.52,6.06-21.52s2.48,15.47,3.56,21.8c.66,3.84.34,8.36,5.78,9.39,3.64.68,7,2.22,11,1.14,4.25-1.14,18.95-3.27,21.95-2.51.39,5.79.85,11.5,1.12,17.21.08,1.7-.35,3.35,1.52,4.42,1.38.8,8,.71,8.07-.52.08-1.06-2.71-2.08-3.59-2-4.07.3-3.57-2.81-4-5.15a37.005,37.005,0,0,1-.17-4.6c-.12-2.75-.7-5.56-.34-8.24.54-4,3.54-3.16,8.06-4.22s11.2-1.66,18.4-3.65c-.28,1.33.3,12.56.23,17.57,0,1.63-1.34,3.84.67,5.26a36,36,0,0,0,5.49,3.44c1.93.89,4.32,2.13,5.11-1.42-.82-1.13-2.07-1-3.17-1.38-2.27-.77-5.32-1.16-5.44-4.61-.15-4.73-.5-9.49-.23-14.2.1-1.7-.62-4.5,2-5.19a67.772,67.772,0,0,1,9.61-2.25c5-.6,9.91-2,14.9-2.27,3.2-.18,3.88-1.51,3.5-4-1-6.36-2-12.73-3.25-19a85,85,0,0,1-1.78-16.6c1.64,2.69,2.9,4.8,3.48,7.26,1,4.1,1.95,8.2,3,12.28.23.93.63,2,1.89,1.7,1-.21,1.19-1.14.95-2-1.78-6.5-2.58-13.25-5.9-19.35-2-3.71-4.64-7.31-4.88-11.83-.21-3.86-3.46-22.36-3.22-28,.11-2.55-1.27-2.8-3.28-2.13a19.828,19.828,0,0,1-3.94.55s-.64-10.49-.79-14c-.09-2.07.29-3.64,2.88-4.23,3-.68,6-1.42,9.12-1.84,3.91-.54,7.77-1.45,11.67-2a37.925,37.925,0,0,1,5.73-.76c1.42,0,4-2.49,3.76-4.33-1.69-15.11-6.07-46.59-6.07-46.59s4.91,9.71,6.64,13.29a75.411,75.411,0,0,1,5.43,13.88c1.33,5.17,2.78,10.31,4.06,15.49.3,1.22,1.2,1.22,1.92,1.2s.91-.73.69-1.52ZM102.62,244.53l6.94-5.51s1,19.58,1.9,28.8c.59,6.24,1.86,12.42,2.38,18.66.44,5.28,3.58,18.49,3.58,18.49l-5.9.94s-2.11-8.8-2.6-13.32-3.66-9.15,0-13.79c.59-.74.73-2.05-.51-2.34-1.79-.42-3,3.27-3,3.27s-.87-7.2-1.34-10.39c-1.13-7.69-1.45-24.81-1.45-24.81Zm-1.82,54.38c.77-3.59,3-7.7,4-10.45,1.42,6.11,2.74,11.74,4.12,17.67-2.42.25-9.11,1.27-9.11,1.27a45.169,45.169,0,0,1,.99-8.49Zm-25,14.19c10.8-.65,25-3.5,36.77-5,14.8-1.86,27.55-2.55,27.55-2.55l12.26,4.13s-21.12,1.45-29.25,2.06-44.37,5.51-51.22,6.41c-1.3.17-4.94-1.83-5.46-3.62a54,54,0,0,1,9.35-1.43Zm-12,3.89c2.09-.07,3.28,3.52,3.28,3.52s2.43,33.07,3.06,39.34a3.4,3.4,0,0,0-3,.71c-1.34-14.45-5.52-29.29-3.36-43.56Zm7.89,79.37S69,379.49,67.9,371.15c-.45-3.37-.94-6.59,2.51-9.3,1.84,12.27,2.93,24.51,6.76,36.75-1.88-.85-5.5-2.24-5.5-2.24Zm87-36.85c.87,5.62,1.47,10.25,2.34,14.82a81.789,81.789,0,0,1,1.13,9.5c.15,2.16-1.08,2.31-2.47,2.57a216.666,216.666,0,0,1-29.55,3.05c-7.48.34-14.87,2.27-22.34,3.13-8.69,1-17.19,3-25.73,4.74-2.79.57-2.73-1.88-3-3.19-1.64-7.65-3.29-15.31-4.41-23.05-1.65-11.31-2.93-22.67-4.2-34-.54-4.77-.62-15.81-.62-15.81s64.77-9.1,80.77-9.06c1.63,0,3.27.24,5.27.4-1.17,5.43-.16,10.75,0,16.09a91.222,91.222,0,0,0,1,11.19,43.2,43.2,0,0,1-2.67,23.75,39,39,0,0,1-8.69,12.74,2.43,2.43,0,0,0-.55,2.77,2.08,2.08,0,0,0,1.89,1.39c1.12.09,1.19-1,1.7-1.56,4.7-5.42,7.72-11.73,10.15-19.47Zm34.81-48.83a35.447,35.447,0,0,0-2.06,5s-21.74,2.46-29.58,3.55c-1.36.19-3.7.71-4-.35a12,12,0,0,1,.38-6.47,2.76,2.76,0,0,0-1.43-3c-2-1.22-10.65-4.29-12.26-5.09s-4.15-.94-6.92-.86c-6.13.17-14.6,1.7-17.56,1.64a446.23,446.23,0,0,1-8.41-67c2.56,0,28.14-3,53-5.22,18.69-1.69,37.48-2.76,43.19-3.27,1.23-.11,1.49.55,1.63,1.38.9,5.62,4.48,22.69,5.31,25.89-4.28,1-8.45,2.09-12.67,2.91-2.2.43-6.76,3.55-8.34,5.13s-1.81,2.89-1.16,6.37c1.21,6.57,2.5,16.57,3,20.94s1.71,12.95,1.71,12.95a44.836,44.836,0,0,0-3.81,5.5Zm4.37,4-2.43.61a17.351,17.351,0,0,1,.85-3.52,7.19,7.19,0,0,1,1.7-2.55Zm7.43,31.7a151.878,151.878,0,0,1-3.47-22.15c-.43-5.74-1.45-11.45-1-17.24a2.11,2.11,0,0,1,.55-1.35s.85-1.77.11-2.37-1.94,0-1.94,0-1.85-15.13-3.14-21.38c-.93-4.51-1.72-14.18-1.72-14.18l3.4-2.91s6.05,51.61,8,62.14c1.57,8.4,5.58,24.52,4.86,25.24s-4.49-.72-4.49-.72-.62-2.77-1.14-5.08Zm-11.41,98.55c-.94-5.33-1.71-10.69-2.55-16.05-.57-3.63-1.05-7.28-1.73-10.89-.5-2.6,1.34-4.08,2.41-6,.66-1.15,2.84-2.48,1.23-3.61S189,412.3,189,412.3s-2.16-8.46-3-12.4c-1.3-6.55-2.72-13.09-3.17-19.78-.32-4.66,3.91-4.37,6.62-6.49.72,13.14,3.1,25.6,5.55,38s1.41,25.42,5.83,37.68c-1.71,1.04-6.41-1.48-6.92-4.38Zm82.86-84.18c2.38-.2,2.22,2.2,2.46,3.62.94,5.45,6.25,57.89,8.23,63.16a29.156,29.156,0,0,1,1,6c.12.82-.52,1.07-1.11,1.07-5.34.62-24.42,4.37-30.19,5.63-10.37,2.26-20.68,4.87-31.23,6.26-5.36.71-10.68,1.63-16,2.45h-.35c-6.38,1.34-6.39,1.34-7.7-5.12-2.39-11.8-3.26-23.8-4.84-35.7-.69-5.2-2.18-10.3-3.3-15.44a7.765,7.765,0,0,1-.15-.88c-.67-6.18-1.24-11.5-1.85-16.82-.18-1.54.33-2,2-2.31,5.83-1,29.88-4.62,36.07-5.48,9.75-1.36,19.44-3.09,29.18-4.49,5.89-.79,11.84-1.44,17.8-1.95ZM247.49,349c-.09-1.91.17-3.2,2.33-3.82,6.35-1.8,12.64-3.88,19.22-4.76a3.379,3.379,0,0,1,.8.1V358a169.813,169.813,0,0,1-21.12,3.06C246.89,357,247.7,352.94,247.49,349ZM302,317a126.2,126.2,0,0,1,1.52,12.54c.09,1.87-2.49,2.25-3.69,2.28-7.25.16-14.05,2.42-21,3.82-5.19,1-10.49,1.57-15.72,2.42-6.23,1-12.05,3.59-18.18,4.94-9.46,2.09-18.42,5.86-27.83,8.11-2.24.54-3.63.3-4.23-2.32-2.26-9.88-3.65-19.9-5.27-29.89-1.37-8.56-2.43-17.13-3.36-25.74-.87-8-2.3-15.95-3.48-23.92-.75-5,.15-6,5.14-7.35,9.86-2.71,20-3.91,30-5.26,19.25-2.57,38.49-5.22,58.07-7.88.38,5.12.6,10.22,1.16,15.29.86,7.86,2,15.7,2.93,23.55.67,5.56,1.15,11.14,1.88,16.69C300.48,308.51,301.36,312.72,302,317Z" transform="translate(-57.488 -136.3)"/>
</svg>
