<svg id="teamwork" xmlns="http://www.w3.org/2000/svg" width="355.375" height="334.013" viewBox="0 0 355.375 334.013">
  <path id="Path_549" data-name="Path 549" d="M427.4,398.6s-44.9-6.6-63.1-17.1-29.8-27.2-29.8-27.2" transform="translate(-232.6 -124.533)" fill="none" stroke="#9dd3cc" stroke-miterlimit="10" stroke-width="6"/>
  <path id="Path_550" data-name="Path 550" d="M332.3,215.6l28.1-27.8" transform="translate(-232.6 -124.533)" fill="none" stroke="#9dd3cc" stroke-miterlimit="10" stroke-width="6"/>
  <path id="Path_551" data-name="Path 551" d="M531,202.6s27.5,22.7,34.2,38.3,9.4,11.8,11.2,30.4c1.7,18.6.3,25.7.3,25.7" transform="translate(-232.6 -124.533)" fill="none" stroke="#9dd3cc" stroke-miterlimit="10" stroke-width="6"/>
  <path id="Path_552" data-name="Path 552" d="M569.9,288.4l6.1,9.2,10.8-4.3" transform="translate(-232.6 -124.533)" fill="none" stroke="#9dd3cc" stroke-miterlimit="10" stroke-width="4.243"/>
  <g id="Group_29" data-name="Group 29" transform="translate(-232.6 -124.533)">
    <path id="Path_553" data-name="Path 553" d="M428.1,352.3c.3,2.5.5,3.3,1.3,4.7a39.042,39.042,0,0,0,7.5,10.1c2.4,2.2,4.9,4.4,7.3,6.5a3.327,3.327,0,0,0,.6.3,1.268,1.268,0,0,0-.1-.6c-.4-1-1-2-1.4-3l-2.7-6.6c-1.9-4.5-3.8-9-5.7-13.6-1.2-2.8-2.2-5.7-3.3-8.5a3.508,3.508,0,0,0-.5-.8,3.508,3.508,0,0,0-.5.8c-1.3,3.4-2.7,8.2-2.5,10.7ZM471,290.8c.3,1.1.4,2,.7,2.8.6,1.8,1.2,3.7,1.9,5.4a73.489,73.489,0,0,0,3.4,7.6c.8,1.5.8,1.3,2.3.3a80,80,0,0,1,7.9-4.9c3-1.6,6.1-2.8,9.2-4.1a1.406,1.406,0,0,0,1-2c-.6-2.2-.9-4.5-1.5-6.8-.7-2.7-1.5-5.4-2.3-8.1a3.508,3.508,0,0,0-.5-.8c-.3-.6-.7-.6-1.3-.3-1.6.9-3.3,1.8-5,2.7-3,1.5-6,3.1-9,4.6-1.9,1-3.9,1.8-5.8,2.7a4.3,4.3,0,0,0-1,.9Zm-13.8,38.4c.8-.4,1.4-.8,2.1-1.2,3.7-2.3,7.3-4.8,11.1-7,2.9-1.7,6-3,9-4.6,3.6-1.9,7.2-3.9,10.7-5.9,4.2-2.4,8.3-4.8,12.4-7.2,4-2.3,8.1-4.7,12.2-7,5.8-3.2,11.5-6.4,17.3-9.7.2-.1.2-.9.1-.9-1-.3-2.1-1-2.9-.7a41.577,41.577,0,0,0-7.4,2.8c-6.2,3-12.3,6.1-18.4,9.2-2.5,1.2-4.9,2.6-7.5,3.7a91.4,91.4,0,0,0-13.1,7c-5,3.1-9.5,7.2-15,9.5a92.036,92.036,0,0,0-9.3,4.9c-2,1.1-4,2.1-5.9,3.2-.4.3-1.4.9-.5,1.4a34.543,34.543,0,0,0,5.1,2.5ZM455,335c.2-3.5-.1-4-2.8-5.3a10.911,10.911,0,0,1-1.1-.6c-.7-.3-1.1-.3-1,.6l.3,7.2c0,3.5,0,7-.1,10.5-.1,3-.3,6.1-.4,9.1-.2,3.3-.3,6.6-.5,9.9-.1,3-.2,6-.3,9.1,0,1,.3,1.4,1.3,1.7a4.9,4.9,0,0,1,2,1.1,1.768,1.768,0,0,1,.3,1.6c-.1.3-.8.6-1.3.6a14.817,14.817,0,0,1-1.9-.3c-.5-.1-.8-.1-.8.6-.1,2.6-.4,5.2-.4,7.9-.1,2.1.1,4.2.1,6.3,0,2.6-.2,5.1-.2,7.7,0,1.6-.4,11.8-.6,15.3a83.3,83.3,0,0,0,.7,14.1c.1,1,.1,2.4.7,3,1.7,1.8,3.4,3.6,5.8,4.5.1.1.6-.2.6-.3,0-1.4-.1-2.8-.2-4.2l-.3-3.6a12.749,12.749,0,0,0-.1-2,83.952,83.952,0,0,1-.9-15c0-5.2.5-10.3.8-15.5.2-3.9.2-7.9.3-11.8l.3-14.1c.1-2.9.2-5.7.2-8.6.1-5,.1-10,.1-15,0-3.2-.1-6.3-.2-9.5-.1-2-.3-3.7-.4-5Zm13-43.4a3.386,3.386,0,0,0-.8.3c-1.4.6-2.8,1.3-4.2,1.9-3.7,1.6-7.4,3.2-11.1,4.9-2.4,1.1-4.7,2.1-7,3.4-3.3,1.8-6.5,3.8-9.9,5.5a65.116,65.116,0,0,0-9.6,5.6c-.3.3-.7.9-.6,1.2.4,1.9,1,3.9,1.5,5.8,1,4.1,3.8,7.6,4.7,11.8a3.553,3.553,0,0,0,.4.9c1,2.3,2,4.6,2.8,7,1.6,5,3.7,9.9,5.7,14.8,1.8,4.3,3.7,8.4,5.6,12.7.2.5.5,1,.7,1.5.2-.6.3-1.1.5-1.7V367c-.1-4.3.8-8.5.4-12.7-.2-2.2.4-4.4.5-6.7.1-1.5,0-2.9.2-4.4.5-4.9-.1-9.8-.7-14.6a4,4,0,0,1,1.6-4c2.5-1.4,5-2.8,7.6-4.2,4.1-2.2,8.2-4.2,12.2-6.4,2-1.1,3.8-2.4,5.7-3.6a1.338,1.338,0,0,0,.4-2,39.835,39.835,0,0,1-2.4-5.1c-1.3-3.5-2.4-7.1-3.7-10.7a3.128,3.128,0,0,0-.5-1Zm-9.8,147.1c.2,2,.7,2.3,2.5,1.2,2.8-1.6,5.4-3.4,8.2-5,5.3-2.8,10.6-5.5,16-8.2,1.4-.7,3-1.4,4.4-2.2,2.4-1.3,4.7-2.7,7.1-4.1,2.8-1.6,5.6-3,8.4-4.6,2.7-1.5,5.3-3.2,8-4.7,6.8-3.7,13.7-7.3,20.5-11,1.6-.9,1.7-1.3,1.3-3.2a9.692,9.692,0,0,1-.3-2.3,60.047,60.047,0,0,0-.5-11.2,4.1,4.1,0,0,1-.1-1.1l-.3-13.8c0-2.9.2-5.8.2-8.7,0-4.1-.2-8.3-.2-12.4,0-2.7.3-5.3.2-8a113.127,113.127,0,0,1,.3-15.4c.4-4.6.6-9.2.7-13.9.1-3.9.1-7.8,0-11.6,0-2.9-.2-5.8-.3-8.7-.1-1.2-.6-1.5-1.6-.9-2,1.1-3.9,2.3-5.8,3.3-3.3,1.8-6.7,3.6-10,5.4-1.5.8-2.9,1.9-4.4,2.7-2.4,1.4-4.8,2.7-7.1,4-2.2,1.3-4.4,2.6-6.7,3.8a16.672,16.672,0,0,1-2,.8c-3.3,1.9-6.5,4-9.8,5.9-2.4,1.4-4.8,2.7-7.2,4s-4.9,2.3-7.2,3.8c-1.9,1.3-4.2,2.2-6.2,3.7-2.3,1.7-4.7,3.2-7.2,4.8a2.441,2.441,0,0,0-1.2,2.9,35.052,35.052,0,0,1,.3,5.6c0,3.2-.2,6.4-.2,9.6s.3,6.5.3,9.7c0,3.5-.2,7.1-.3,10.6-.2,5.2-.4,10.5-.6,15.7-.1,4.1,0,8.2-.2,12.3-.1,3.3-.4,6.5-.4,9.8,0,3.4.2,6.7.3,10.1Zm-12.7-4.1c-.1-4.8-.3-9.3-.4-13.9-.1-2.4-.1-4.9,0-7.3.1-1.8.4-3.6.5-5.4.1-1.7.1-3.4.1-5.1,0-5.9,0-11.9.1-17.8,0-1.8.2-3.6.2-5.3a2.575,2.575,0,0,0-.7-1.6c-3.6-3.2-7.3-6.2-10.8-9.4a40.939,40.939,0,0,1-4-5.1,28.963,28.963,0,0,1-1.9-2.9c-1-1.7-3.5-5.2-3.5-7.8a77.067,77.067,0,0,1,1-8.4,24.424,24.424,0,0,1,2.6-5.7,3.849,3.849,0,0,0,.5-3.6c-1.2-3.3-2.1-6.7-3.2-10.1-.9-2.4-2-4.8-3-7.2-.6-1.5-.9-3-1.4-4.5a1.843,1.843,0,0,1,1-2.4c2.4-1.3,4.8-2.5,7.1-3.7,2.5-1.4,5-2.8,7.6-4.1,2.4-1.3,4.8-2.4,7.1-3.7,3-1.5,5.9-3.2,8.9-4.6,3.3-1.5,6.7-2.7,10-4.1,2.8-1.2,5.6-2.5,8.4-3.8,1.8-.8,3.6-1.5,5.3-2.4,3.4-1.7,6.7-3.6,10-5.3a63.63,63.63,0,0,1,5.9-2.8,2.12,2.12,0,0,1,2.7,1.9c0,2.4,1.2,4.4,1.7,6.6l2.4,9.3c.4,1.6.5,1.7,1.9.8l1.5-.9c3.6-1.8,7.1-3.6,10.7-5.3,3.3-1.6,6.6-3.1,9.9-4.7.4-.2,2-1.2,3.4-2-.2.1.9-1,4.1.6,2.3,1.1,2.7,1.1,5,2.1a1.507,1.507,0,0,1,1.2,1.8c-.2,2.4-.3,4.7-.4,7.1-.1,2.1-.1,4.2-.2,6.2v6.1c0,1.1.2,2.2.2,3.2,0,1.3-.2,2.6-.2,3.9-.2,9.6-.4,19.2-.7,28.8-.1,4.8-.2,9.6-.3,14.5v7.9c.1,4.9.1,9.7.2,14.6.1,4.2.4,8.4.7,12.6.2,2.1.6,4.1.8,6.2a8.175,8.175,0,0,1-.1,2.7,2.55,2.55,0,0,1-.9,1.2c-1.8,1-3.6,1.8-5.4,2.8-2.4,1.3-4.8,2.6-7.2,4-2,1.1-4,2.2-5.9,3.3a2.1,2.1,0,0,0-.7,1.1,110.333,110.333,0,0,0-1.3,19.9c.1,3.7.3,7.5.5,11.2.1,1.6-.8,2.5-2.3,2a6.83,6.83,0,0,1-2.8-1.7,63.953,63.953,0,0,1-4-5.1c-.4-.6-1.2-1.3-.4-1.8a2.874,2.874,0,0,1,2.4,0,16.753,16.753,0,0,1,2.9,2.5c.2.2.5.4.7.6a3.554,3.554,0,0,0,.2-1c0-3.3,0-6.5.1-9.8.1-2.6.5-5.3.5-7.9.1-2.2-.2-4.4-.3-6.6-.1-.8-.4-1.1-1.2-.6-2.3,1.4-4.7,2.8-7.1,4.2-3.4,1.9-6.9,3.8-10.3,5.7-3.3,1.8-6.7,3.5-10,5.2-1,.5-1.7,1.1-1.5,2.4.3,2.7.5,5.5.6,8.2.2,4.3.3,8.6.4,12.9,0,1.1.2,2.1.1,3.1a3.768,3.768,0,0,1-1,2.1c-.2.2-1.4-.3-1.8-.7-1.4-1.6-2.7-3.3-4-5-.8-1.1-1.7-2.2-2.5-3.3-.5-.7-1.1-1.6-.4-2.2a1.8,1.8,0,0,1,2.4.6c1.1,1.4,2.1,2.8,3.2,4.1a9.336,9.336,0,0,0,1.5,1.3,6.686,6.686,0,0,0,.5-1.9,54.418,54.418,0,0,0-.3-5.7c-.4-4.2-.9-8.4-1.3-12.5-.1-1.1-.6-1.1-1.4-.7-4.4,2.5-8.8,4.9-13.2,7.4-2.4,1.4-4.7,3-7.1,4.4a2.345,2.345,0,0,1-1.2.2c-2.5.1-4.4-1.4-6.3-2.7-2-1.3-3.9-2.6-5.9-3.9-.9-.6-.6-1.4-.7-2.1.5-.8.5-1.1.5-1.2Z" fill="#181715" fill-rule="evenodd"/>
    <path id="Path_554" data-name="Path 554" d="M378.2,190.2a9.578,9.578,0,0,0,4,6.9c.8.6,1.1.3,1.1-.6.1-2.2.3-4.5.3-6.7.1-3.6.2-7.1.3-10.7a3.179,3.179,0,0,0-.3-.9,2.507,2.507,0,0,0-.7.4,17.807,17.807,0,0,0-4.7,11.6Zm105.7-59.3c.3,0,.6-.3.9-.4-.3-.1,3.6-1.8,3.3-1.9-4.6-.3-13.4-.5-18-.7-6.5-.3-13.1-.5-19.6-.7-6.6-.2-13.3-.3-19.9-.2-7.9,0-15.7.3-23.6.4-5.3,0-10.5-.1-15.8-.2-1.5,0-4,3.2-4.1,3.4.2.1.5.3.7.2,1.2-.1,2.4-.2,3.6-.2,3.5,0,7,.1,10.5,0,4.9-.1,9.9-.2,14.8-.4,6.8-.3,30.6,0,35.7.2,3.8.1,7.6.1,11.4.3,4.3,0,17.7.2,20.1.2Zm5,84s.2-20.5.6-33.3c.2-6.4-.3-11.3-.3-12.8.1-2.6.1-5.1.1-7.7.1-3.4.2-6.8.4-10.2.1-2.7.3-5.4.4-8,.2-3.6.4-7.3.5-10.9v-.6c-.2.1-.5.1-.7.2a18.568,18.568,0,0,1-2.7,2.2,1.956,1.956,0,0,0-1.2,2.1c-.1,3.9-.2,7.7-.3,11.6,0,1,.2,2,.2,3,0,4.2-.1,8.4-.2,12.6-.1,2.4-.3,4.7-.5,7.1-.2,3.4-.4,6.7-.6,10.1a3.179,3.179,0,0,0,.3.9l.6-.6a.749.749,0,0,0,.1-.5c.4-.9,1.6-1.6,2.3-1.2,1.1.6.6,1.5.3,2.4-.1.1-.1.3-.2.4-.9,1.3-1.9,2.5-2.7,3.9a3.606,3.606,0,0,0-.6,2c0,1.9.2,3.8.2,5.7v13.8c-.1,0,.2,7.6.4,11.3a2.118,2.118,0,0,0,.3.7c.2-.1.5-.2.6-.4,1-1.8,2.6-3.5,2.6-3.7m-87.7,10.3h3.5c3.4,0,3.4,0,3-3.3-.6-4.8-1.2-9.6-1.9-14.4a1.533,1.533,0,0,0-.7-1,27.935,27.935,0,0,0-4-.7,42.942,42.942,0,0,1-13.8-2.8c-1.5-.5-1.7-.4-1.8,1.2v.8c.1,2.8.3,5.6.2,8.3a52.56,52.56,0,0,0,.5,8.9c.4,2.6.7,2.8,3.3,3h11.7Zm56-2.1s2.4-.1,2.6-.1c4.1-.1,8.2-.2,12.3-.4,3.1-.1,6.2.3,9.3-.7a2.162,2.162,0,0,0,1.7-2.3c-.1-1.3-.3-2.6-.3-3.9-.1-3.1-.3-6.3-.3-9.4,0-5.2.1-10.5.1-15.8,0-.2-.1-.4-.1-.6-.2.1-.5.1-.7.3-.8.8-1.6,1.5-2.3,2.3-4.1,4.3-9.4,6.7-14.7,9a34.8,34.8,0,0,1-6.3,1.8c-.9.2-1.2.6-1.2,1.4,0,1.2-.1,2.4-.1,3.6-.1,4-.3,4.6,0,14.8ZM410.8,183h-1.4c-1.6-.1-1.7-.1-1.9,1.5a25.726,25.726,0,0,0-.2,4.8c.2,4.5.6,9,.9,13.5.1,1.4.4,1.7,1.9,1.6a8.684,8.684,0,0,1,2.3.1,1.655,1.655,0,0,1,1.5,1.8,1.841,1.841,0,0,1-2.1,1.4,18.1,18.1,0,0,0-2.3-.3.877.877,0,0,0-.7.6,19.655,19.655,0,0,0,0,4.2c.4,3.6,1,7.2,1.3,10.8a52.093,52.093,0,0,0,2,10.3,1.126,1.126,0,0,0,.8.5,69.417,69.417,0,0,0,7.9-.1c4.5-.5,9-1.3,13.6-1.8,5.7-.5,11.3-.8,17-1.3.8-.1,1.6-.2,2.3-.3s.9-.3.8-1.1a40.324,40.324,0,0,1-.4-6c.2-4.8.5-9.7.8-14.5.1-1.1.1-2.2.1-3.3,0-1.5-.1-1.6-1.6-1.3-.8.1-1.8.7-2.6.8-2.5.4-4.5,1.3-7,1.5-1.6.1-1.4-2-.6-2.3,1.9-.5,9.1-2,10.9-2.3.7-.1,1-.4.9-1.2-.1-1.7-.2-3.3-.2-5,0-1.8,0-3.6.1-5.4,0-1,.1-2.1,0-3.1a1.188,1.188,0,0,0-.8-1c-2.4-.6-4.8-1.3-7.2-1.7-3.2-.5-6.5-.9-9.7-1.2a25.613,25.613,0,0,0-3.9-.3l-17.2-.3c-1.8.1-5.3.4-5.3.4Zm-5.8,4.8v-5.7c0-1.1.4-1.5,1.5-1.5,3.2.1,6.4,0,9.7.1.9,0,9.9,0,18.9.7s17.9,2.1,19,2.1h1.4c1.7.1,2,.6,1.7,2.2a22.3,22.3,0,0,0-.4,2.3c0,3.9.2,7.8.2,11.8,0,1,.4,1.2,1.3,1.1a5.275,5.275,0,0,0,1.2-.3c3.5-1.4,7-2.8,10.5-4.3a11.009,11.009,0,0,0,3.5-2c2.9-2.9,5.6-5.9,8.4-8.9a2.654,2.654,0,0,0,.5-1.4c.5-6.7,1-13.4,1.3-20.2a120.625,120.625,0,0,0-.3-17c-.2-2.1-.1-4.3-.1-6.4,0-1.6.1-3.2,0-4.7-.1-1.8-.4-2-2.2-1.9a41.692,41.692,0,0,1-5,0c-5.4-.1-10.8-.3-16.1-.5-5.2-.2-10.4-.5-15.6-.7-1.9-.1-3.7.1-5.6.1h-4a48.734,48.734,0,0,0-5.4-.2c-3.4,0-6.8.2-10.2.3-2.8.1-5.7.2-8.5.3-.7,0-1.4-.1-2-.1-1.6.1-3.2.4-4.8.4-6.4.1-12.8.2-19.3.3-.8,0-1.1.2-1,1.1.3,3.3.4,6.6.6,9.9.1,1.5.2,3,.3,4.6.1,1.3.3,2.6.3,3.9.1,2.9,0,5.9.2,8.8.2,4.6.7,9.1.8,13.7.1,7.4-.2,14.9-.3,22.3,0,.9.2,1.4,1,1.7a56.153,56.153,0,0,0,5.3,1.9c4.3.9,8.6,1.5,12.9,2.2.9.2,1.3-.2,1.2-1.1-.1-1-.1-2.1-.2-3.1-.5-4-.8-11.8-.7-11.8Zm81.3-61.7c1.6.1,3.2,0,4.8,0,1,0,1.5.3,1.8,1.5.4,1.8.1,4.8,0,6.6-.3,3.9-.3,7.9-.3,11.8,0,1.9-1.1,29.4-1.3,31.9-.1,1.7-.3,31.2-.3,33.3,0,1.7-.1,3.5-.2,5.2a1.974,1.974,0,0,1-.6,1.2,55.828,55.828,0,0,1-3.2,5.2,4.347,4.347,0,0,1-3.3,2.2l-12.6.3h-7.7c-1.8,0-3.7.2-5.5.3-.9,0-1.1.6-1.2,1.4-.1,1.8-.1,3.6-.2,5.4,0,1.1-.3,1.4-1.7,1.3a60.638,60.638,0,0,0-7.4-.1c-.2,0-.5.5-.6.9-1,3.4-.6,9.5-.4,13,.1,1.7,1.8,4.5,2.2,5.2.6.9,1.1,1.9,1.7,2.8,1,1.6,2.1,3.1,3.2,4.7.3.5.7,1.2-.1,1.5-.5.2-1.5.2-1.8-.2a17.026,17.026,0,0,1-1.8-2.6c-1.3-2-2.3-4.3-3.9-5.9-2.3-2.1-2.1-12.7-2.2-15.5,0-1.1-.6-3.6-.3-3.4.2.3-.5-.5-.8-.4a21.3,21.3,0,0,0-2.5.3c-3.9.6-7.9,1.2-11.8,1.7-2.7.3-5.4.5-8.2.7-.8.1-1.2.3-1.3,1.2a57.93,57.93,0,0,0,.5,11c.1.9,1,3.6.1,4.8a17.43,17.43,0,0,1-2.3,2.5l-3.3,3.3a1.845,1.845,0,0,1-1.2.5,1.524,1.524,0,0,1-1-.6c-.1-.2.2-.7.4-.9,1.3-1.5,2.5-2.9,3.9-4.3,1.6-1.6,1.3-3.5,1.1-5.5-.1-2-.3-4.1-.5-6.1-.1-1.4-.3-2.7-.5-4.1a1.4,1.4,0,0,0-1.7-1.4,21.658,21.658,0,0,0-2.5.4,1.474,1.474,0,0,1-2-1.2c-.5-2-1-4-1.3-6-.3-1.7-.4-1.9-2.1-1.9-3.5,0-7,.1-10.4.1s-6.8-.2-10.3-.2c-1.2,0-1.7-.5-1.8-1.7-.3-3-.8-6-1-8.9-.1-1.5,0-3,0-4.5.1-3.4.2-6.7.2-10.1a1.974,1.974,0,0,0-.6-1.2c-2.4-1.7-4.7-3.5-6-6.2a12.221,12.221,0,0,1-1.1-6.3,17.34,17.34,0,0,1,2.7-8.1,30.528,30.528,0,0,1,3.8-4.9,4.26,4.26,0,0,0,1.5-3.5c-.4-4-.2-8.1-.5-12.1-.3-5-.8-9.9-1.2-14.9-.2-2.6-.5-5.1-.7-7.7-.1-1.4-.5-2.7-.5-4a2.842,2.842,0,0,1,.9-1.9c2.6-2,5.3-5.2,8.1-7.1a3.079,3.079,0,0,1,1.3-.3c3-.4,89,1.1,95.5,1.5Z" fill="#181715" fill-rule="evenodd"/>
    <path id="Path_555" data-name="Path 555" d="M297.6,334.9a3.035,3.035,0,0,1-.3-1.1c-.2.1-.5.1-.7.3-.8.7-1.6,1.3-2.4,2.1a4.7,4.7,0,0,0-.6.9,4.1,4.1,0,0,0,1.1-.1,11.4,11.4,0,0,0,1.9-1,9.955,9.955,0,0,0,1-1.1Zm3.8-.9c.9-.6,1.8-1.2,2.7-1.9.4-.3.2-.5-.2-.5a22.751,22.751,0,0,0-2.6-.2c-.7-.1-1.4,0-1.5.9S300.3,333.8,301.4,334Zm26.2-42c-.2-.7-.4-1.6-.7-2.5-.2-.5-.6-1-.8-1.5l-3.3-7.5a1.38,1.38,0,0,1-.3-.4c0,.2-.1.3-.1.5.1,2.3.3,4.6.5,6.9.2,2.8.4,5.6.7,8.5,0,.3.6.8.8.7,1.8-.2,2.6-1,2.9-2.9.1-.5.2-1,.3-1.8Zm-70.1,43.5c.3,2.1.6,4,.9,6,.6,3.6,1.2,7.1,1.8,10.7.4,2.5.9,5.1,1.4,7.6.3,1.5.7,1.5,1.9.5.2-.1.3-.3.5-.4,4.2-3.8,8.4-7.6,12.6-11.3l6.6-5.7a5.548,5.548,0,0,1,.8-.6c-.3-.1-.7-.2-1-.3a2.2,2.2,0,0,0-.8-.1,31.59,31.59,0,0,1-8.6-1c-2.2-.5-4.6-.3-6.8-1.2-3-1.2-6.3-2-8.8-4.4-.1-.1-.3-.1-.4-.2A1.034,1.034,0,0,1,257.5,335.5Zm53-111.6c-.4.1-.7.1-1,.2-2.2.9-4.4,1.8-6.5,2.7-2.5,1.1-5,2.3-7.4,3.5-3.1,1.6-6.1,3.3-9.2,5l-8.1,4.5c-1.8,1-3.6,1.9-5.5,2.8-4.4,2-8.8,4-13.1,6.1-4.6,2.3-9.2,4.7-13.7,7.1-2.8,1.5-5.5,3.2-8.3,4.9-.2.1-.3.3-.5.5.3,0,.6.2.8.1a36.9,36.9,0,0,0,6.6-1.4,96.456,96.456,0,0,0,15.2-7.3c3.3-1.9,6.7-3.5,10.1-5.2,3.9-2,7.8-3.9,11.7-5.8,6.1-2.9,12.2-5.6,18.3-8.5,3.2-1.5,6.3-3.3,9.4-5.1,1.4-.8,2.8-1.6,4.2-2.5a6.034,6.034,0,0,0,.8-.8c-.3-.1-.6-.4-.9-.4a13.524,13.524,0,0,1-2.9-.4ZM253.7,325.6h.1c-.5-2.3-1-4.6-1.3-7-.7-4-1.2-8.1-1.9-12.1-.5-3-1.3-6-1.9-9.1-.7-3.8-1.2-7.7-1.9-11.5-.6-3.4-1.6-6.7-2.2-10.1-.8-4.1-1.4-8.3-2.1-12.4-.1-.6-.3-.7-.8-.5-1.2.3-2.4.5-3.6.7-2.6.5-2.6.5-2.4,3.1a6.15,6.15,0,0,0,.1,1.3,24.164,24.164,0,0,0,.5,4.7c.8,3.4,1.8,6.8,2.7,10.3a50.182,50.182,0,0,1,1.6,7.5,122.518,122.518,0,0,0,2.6,15.9c1.1,5.2,2.2,10.3,3.2,15.5,1.2,6.3,2.4,12.6,3.5,18.9,1.1,6.1,2.1,12.2,3.2,18.4a3.032,3.032,0,0,0,3.4,2.5,4.879,4.879,0,0,1,1.7.1c.6,0,1-.1.9-.9-.6-4.2-1.1-8.3-1.7-12.5-.7-4.7-1.5-9.4-2.3-14.1a2.99,2.99,0,0,0-1-1.7,13.254,13.254,0,0,1-3.8-5.2c-1.3-2.5-1.1-5.2-1.5-7.8a10.206,10.206,0,0,1,.3-3,1.649,1.649,0,0,1,1-.8,1.337,1.337,0,0,1,.8.7,31.755,31.755,0,0,0,.6,4.3c.5,2,1.2,3.9,1.8,5.8.1.2.3.3.5.5a1.7,1.7,0,0,0,.1-.7,3.091,3.091,0,0,1-.2-.8Zm62.6,4a2.214,2.214,0,0,0,2.6-1.5c1.8-3.4,3.6-6.9,5.5-10.3.5-1,1.3-1.9,1.8-2.9.9-1.7,1.5-3.6,2.4-5.3,2.4-4.4,5-8.6,7.4-13a10.907,10.907,0,0,0,.6-1.1,6.108,6.108,0,0,0-1.3.3c-1,.2-1.9.6-2.9.8-1.6.3-3.2.5-3.4,2.7a1.721,1.721,0,0,1-1,1.9,1.2,1.2,0,0,1-1.5-1.2c-.3-1.5-1.2-1.1-2.1-.8a33.849,33.849,0,0,1-5.4,1.7c-3.2.5-6.1,2-9.1,3.1-2.7.9-5.5,1.9-8.1,2.9a5.739,5.739,0,0,0-2.3,1.5c-3.3,4.1-6.5,8.2-9.7,12.3-2,2.5-4.1,4.9-6.1,7.3-.5.6-.9,1.2-1.3,1.7a16.151,16.151,0,0,0,2.2,0c3.8-.1,7.7-.3,11.5-.5.7,0,6.5-.1,7.2-.1,3.6.3,12.3.4,13,.5Zm3-69.3c0-1.5.1-3,0-4.4-.2-3-.4-6.1-.7-9.1-.1-1.8-.3-3.5-.5-5.3-.5-4.5-1.2-9-1.6-13.5-.1-1-.4-.9-1.1-.6-1.2.7-2.5,1.3-3.7,2-3.7,2-7.3,4.1-11.1,5.9-4.7,2.3-9.5,4.3-14.2,6.5-4.3,2-8.7,4-13,6.1-5.1,2.6-10,5.3-15.1,7.9-3.9,2-7.9,3.9-11.9,5.8a1.919,1.919,0,0,0-1.3,2.1c.3,2.7.6,5.5,1.1,8.2.6,3.2,1.5,6.4,2.2,9.7s1.1,6.7,1.7,10.1c.8,5.1,1.7,10.2,2.5,15.2.6,3.8,1.3,7.6,2,11.5a70.035,70.035,0,0,1,1.4,9c.1,3.2,2.1,5,4.4,6.2,3.6,1.9,7.2,3.8,11.4,4.4,4.8.6,9.5,1.7,14.4,1a3.865,3.865,0,0,0,2.1-.8c2-1.6,3.8-3.3,5.7-5,.2-.2.5-.4.6-.7.1-.1-.1-.5-.2-.5a1.387,1.387,0,0,0-.9,0,47.045,47.045,0,0,1-14.5.8c-.7-.1-1.3-.4-.8-1.2a11.029,11.029,0,0,1,1.9-2.5c1.2-1.2,2.6-2.3,3.7-3.6,2.7-3.2,5.3-6.4,7.8-9.7a85.548,85.548,0,0,0,5.9-8.5,7.344,7.344,0,0,1,5.5-3.7,11.629,11.629,0,0,0,1.8-.4c4.2-1.5,8.5-3.1,12.7-4.6,3.3-1.2,3.5-1.1,3.3-4.5-.2-5.6-.6-11.2-.9-16.8-.2-2.7-.5-5.5-.6-8.2-.1-2.9,0-5.8,0-8.8Zm-5.5,71.4c-.4,0-3.2.1-3.2.1s-2.9,1.7-3.1,1.8c-2.1,1.2-4.3,2.3-6.4,3.7-.5.3-.7,1.4-.8,2.1,0,1.2.2,2.4.3,3.6.2,3,.4,6,.7,8.9.3,2.2.7,4.5,1.2,6.6a3.989,3.989,0,0,0,2.6,2.9,67.155,67.155,0,0,1,6.6,3.2c.6.3,1.4,1.3,1.3,1.6-.4,1-1.5.9-2.3.6-1.1-.4-2.1-1.1-3.2-1.6-1.6-.7-3.2-1.2-4.8-1.9a7.715,7.715,0,0,1-1.9-.8,1.99,1.99,0,0,1-.8-1.2c-.3-3-.5-5.9-.9-8.9-.5-4.1-1-8.3-1.5-12.4-.2-1.6-.2-1.6-1.7-1-2.2.8-4.4,1.4-6.5,2.2a3.67,3.67,0,0,0-1.7,1c-1.2,1.1-2.8,2.2-3.5,3.6-.6,1.4-.3,3.3-.2,4.9.3,3.7.6,7.3,1.2,10.9.4,2.4,1.5,9.8,2.1,10.7.2.4,3.3,1.9,4.1,2.4a12.659,12.659,0,0,0,3.2,1.3,2.387,2.387,0,0,1,1.9,1.7c.1.4-.4,1-.9,1.3a2.275,2.275,0,0,1-2.5-.1,32.914,32.914,0,0,0-4.2-2.1,12.6,12.6,0,0,0-3.3-1c-1.1-.3-1.2-1-1.2-1.9a22.853,22.853,0,0,0,0-3.7c-.5-3.6-1.3-7.1-1.8-10.7-.4-2.9-.7-5.9-1-8.9v-.3a5.782,5.782,0,0,0-.5-1.4,10.477,10.477,0,0,0-1.1.8c-3.9,3.2-7.8,6.4-11.8,9.5-1.4,1.1-3.5,3-4.9,4.2s-2,1.3-3.2,1.2c-2.3-.1-4.7-.3-7-.3-1.3,0-1.7-.4-2-1.6-1.1-6.5-2.3-13.1-3.4-19.6-.8-5-1.5-10-2.4-15-.5-3-1.5-5.9-2.1-8.9-.5-2.3-.8-4.6-1.2-6.8-.8-4.2-1.7-8.4-2.4-12.6-.9-4.7-1.6-9.5-2.5-14.2-.6-3-1.3-6-2-8.9-.7-3.2-1.6-6.5-2.2-9.7a30.833,30.833,0,0,1-.3-5.3,1.644,1.644,0,0,1,.8-1.2c1.5-.9,3.1-1.8,4.6-2.6,3.6-1.9,7.3-3.7,10.9-5.5,3-1.5,6-3,8.9-4.6,1.3-.7,2.5-1.5,3.8-2.2.4-.2.8-.4,1.3-.6,2-1,4.1-1.9,6.1-2.9,1.1-.5,2.3-1,3.4-1.5a29.6,29.6,0,0,0,5-2.6,71.141,71.141,0,0,1,9.8-5.3c1.4-.6,2.6-1.7,4-2.4,3.1-1.6,6.2-3.2,9.2-4.8,1.6-.8,3.1-1.8,4.7-2.7,2.9-1.6,5.9-1.2,9-.8,1.6.2,3.3.4,4.5,1.7a2.829,2.829,0,0,1,.9,2c-.6,5,.3,9.8.8,14.8.2,2.4.5,4.7.5,7.1.2,4.9.2,9.8.4,14.7.1,3.7.3,7.3.6,11,0,.4.5.8.7,1.2.5,1,1.1,2,1.6,3,1.7,3.5,3.5,7,5,10.5a11.145,11.145,0,0,1,.8,6c-.1.8.1.9.8.7,2.2-.7,4.4-1.4,6.6-2s3.3.5,2.9,2.7a2.577,2.577,0,0,1-.8,1.3,35.316,35.316,0,0,0-6.8,9.4c-2,3.8-4.2,7.5-6.2,11.3-1.4,2.7-2.6,5.5-4,8.2a59.531,59.531,0,0,1-3.1,5.5,1.525,1.525,0,0,1-1.2.7c-1.3-.1-4.3-.1-4.3-.1Z" fill="#181715" fill-rule="evenodd"/>
    <path id="Path_556" data-name="Path 556" d="M574.3,283.5c.9-5.6-.9-10.2-2.1-14.8a86.061,86.061,0,0,0-4.6-14.1c-2.2-4.9-4.3-10-7.5-14.4-2.5-3.4-4.5-7.2-7-10.5a137.949,137.949,0,0,0-19.6-20.8c-1.5-1.3-3-2.6-4.5-4-1-.9-1.2-1.7-.5-2.4.8-.8,1.7-.6,2.6.1,1.9,1.6,3.8,3.2,5.6,4.9A214.226,214.226,0,0,1,555.3,227a84.083,84.083,0,0,1,14.1,22.3c2.2,5.2,3.7,10.8,5.4,16.2a68.961,68.961,0,0,1,2.1,7.8,74.855,74.855,0,0,1,1.3,9.5c.2,2.3,0,4.7,0,7.1a4.1,4.1,0,0,1-.1,1.1c-.1.4-.2.9-.3,1.3.5-.2.9-.3,1.4-.5,2.1-.8,4.1-1.7,6.2-2.4,1.3-.5,2.2,0,2.5,1,.3,1.1-.3,1.9-1.7,2.2-3.5.7-6.5,2.5-9.4,4.4-2.2,1.5-3.1,1.3-4.1-1.1a23.05,23.05,0,0,0-3.5-6.1,2.452,2.452,0,0,1-.6-1.6,1.6,1.6,0,0,1,.9-1.3,2.273,2.273,0,0,1,1.8.5,40.8,40.8,0,0,1,2.5,3.3,1.2,1.2,0,0,0,.5.5,1.854,1.854,0,0,0,.2-.7c-.1-2.6-.2-5.1-.2-7Z" fill="#181715" fill-rule="evenodd"/>
    <path id="Path_557" data-name="Path 557" d="M403.6,398.8a153.6,153.6,0,0,1-33-10.8,117.881,117.881,0,0,1-26.1-16.9c-3.4-2.8-6.7-5.9-10-8.8-.7-.7-1.5-1.3-.5-2.4a1.82,1.82,0,0,1,2.7.1c1.8,1.5,3.4,3.1,5.2,4.7,8.5,7.5,17.6,14.4,27.9,19.4a135.68,135.68,0,0,0,26.3,9.6,230.929,230.929,0,0,0,29.8,5.9,1.61,1.61,0,0,1,1.6,1.9c-.1,1.2-1.1,1.6-3.5,1.4-2.5-.3-13.4-2.6-20.4-4.1Z" fill="#181715" fill-rule="evenodd"/>
    <path id="Path_558" data-name="Path 558" d="M364.3,189.3a5.267,5.267,0,0,1-1.2,1.5c-9.9,7.5-18.4,16.4-26.4,25.9a14.48,14.48,0,0,1-1.7,1.8c-.7.6-1.5.9-2.2.1a1.418,1.418,0,0,1,.1-2.2c8.3-9.8,16.9-19.3,27.1-27.1a8.449,8.449,0,0,1,2.7-1.3C363.5,187.6,364.3,188.2,364.3,189.3Z" fill="#181715" fill-rule="evenodd"/>
    <path id="Path_559" data-name="Path 559" d="M436.6,316.9c-.5-.5-1.1-.8-1.4-1.4-.4-1,.5-1.2,1.2-1.4,1.8-.7,3.5-1.3,5.2-2,1.2-.5,2.4-1,3.6-1.6,1.8-.9,3.7-1.7,5.5-2.6a1.884,1.884,0,0,1,.8-.2c.4,0,1,1.3.7,1.5a12.749,12.749,0,0,1-2.5,1.5,66.065,66.065,0,0,0-10,4.9,15.218,15.218,0,0,1-3.1,1.3Z" fill="#181715" fill-rule="evenodd"/>
    <path id="Path_560" data-name="Path 560" d="M450.7,315.6c-3.8,1.7-7.5,3.4-11.3,5.1a1.309,1.309,0,0,1-1.9-.8c-.4-.9.4-1.3,1-1.5,1.7-.7,3.4-1.3,5.1-2,1.9-.7,3.7-1.4,5.6-2.1a4.711,4.711,0,0,1,1.7-.4c.2,0,.2,1.5-.2,1.7Z" fill="#181715" fill-rule="evenodd"/>
    <path id="Path_561" data-name="Path 561" d="M412.4,162.2a1.807,1.807,0,0,1,1.6-1.6c1.1,0,1.8.5,1.8,1.3,0,1.1-.3,2.6-1.7,2.6-.9,0-1.7-1-1.7-2.3Z" fill="#181715" fill-rule="evenodd"/>
    <path id="Path_562" data-name="Path 562" d="M445.8,165.4a1.63,1.63,0,0,1-1.6,1.5,1.689,1.689,0,0,1-1.8-1.6,2.019,2.019,0,0,1,1.7-1.8,2.54,2.54,0,0,1,1.7,1.9Z" fill="#181715" fill-rule="evenodd"/>
    <path id="Path_563" data-name="Path 563" d="M274.5,304.9c-1.9-.2-2.1-.5-2-2.3,0-.9-.1-1.7-.1-2.6-.1-1.1.7-1.4,1.5-1.4s1.4.2,1.4,1.2c-.1,2.1.1,2.2,2.3,1.7a22.267,22.267,0,0,1,3.6-.5c.7-.1,1.4,0,1.5,1,.1.8-.5,1.1-1.1,1.2-1.2.3-2.3.6-3.5.8a31.49,31.49,0,0,1-3.6.9Z" fill="#181715" fill-rule="evenodd"/>
    <path id="Path_564" data-name="Path 564" d="M271.2,282.7c0,1.4-.5,2-1.8,2-1.2,0-1.9-.6-1.9-1.6a2.569,2.569,0,0,1,2.2-2.4c1,0,1.5.6,1.5,2Z" fill="#181715" fill-rule="evenodd"/>
    <path id="Path_565" data-name="Path 565" d="M296.8,271.3a1.378,1.378,0,0,1-1.3,1.7,1.7,1.7,0,1,1,0-3.4c1,0,1.4.6,1.3,1.7Z" fill="#181715" fill-rule="evenodd"/>
    <path id="Path_566" data-name="Path 566" d="M322.9,306.1c-.1.5,0,.8-.1,1-1.1,1.9-1.7,4.1-3.6,5.7a15.174,15.174,0,0,0-2.6,3.5c-.9,1.2-1.8,2.4-2.7,3.7l-1.8,2.4a3.126,3.126,0,0,1-1.1.9,1.232,1.232,0,0,1-1-.2.94.94,0,0,1-.1-.9.85.85,0,0,1,.3-.5c2.4-3.5,4.9-7,7.3-10.6,1.1-1.6,1.9-3.4,3-4.9.3-.4,1.1-.5,1.7-.6.3-.1.5.4.7.5Z" fill="#181715" fill-rule="evenodd"/>
    <path id="Path_567" data-name="Path 567" d="M315.4,309a8.509,8.509,0,0,1-1,1.3c-2.9,2.1-5,5-7,7.8-1.1,1.6-2.2,3.2-3.3,4.7a2.325,2.325,0,0,1-1.2.8c-.9.2-1.3-.3-.9-1.2a10.886,10.886,0,0,1,1.4-2.3c2.7-3.5,5.5-6.9,8.2-10.3a2.9,2.9,0,0,1,2.6-1.5,5.227,5.227,0,0,1,1.2.7Z" fill="#181715" fill-rule="evenodd"/>
  </g>
</svg>
