<svg id="usercontrol" xmlns="http://www.w3.org/2000/svg" width="460.009" height="386.429" viewBox="0 0 460.009 386.429">
  <path id="Path_826" data-name="Path 826" d="M350.2,411l-44.5-97.8,152.6-53.4,5.4,15.8L327.9,318.8l34.7,86Z" transform="translate(-195.1 -106.5)" fill="#e5e723"/>
  <path id="Path_827" data-name="Path 827" d="M370.1,421.1l72-3.3,147.3-73.9,27.1.1-185,94.6Z" transform="translate(-195.1 -106.5)" fill="#e5e723"/>
  <path id="Path_828" data-name="Path 828" d="M368.6,404.3l-8.9-73.6,123.2-42.5v15.9l-15.3,9.7,7.8,27.7,10.8,2.4,2.7,15.8Z" transform="translate(-195.1 -106.5)" fill="#9dd3cc"/>
  <path id="Path_829" data-name="Path 829" d="M514.2,291.5l-5.3-101.4,62.8-14.5,7.6,54-47,10,2.1,41.2Z" transform="translate(-195.1 -106.5)" fill="#9dd3cc"/>
  <path id="Path_830" data-name="Path 830" d="M598.3,113l3.8,60.6,45.9-4,1.5-58.3Zm34.3,38.9-18.9,2.3V132l18.9-4.4Z" transform="translate(-195.1 -106.5)" fill="#a1dba3"/>
  <path id="Path_831" data-name="Path 831" d="M568,249.9h42.3v25.7H568Z" transform="translate(-195.1 -106.5)" fill="#a1dba3"/>
  <g id="Group_46" data-name="Group 46" transform="translate(-195.1 -106.5)">
    <path id="Path_832" data-name="Path 832" d="M412.4,269.5s12.9-4.8,18.5-6.8c1.1-.4,1.3-.9.7-1.8a14.8,14.8,0,0,0-1.3-2.1c-3-2.9-5.9-5.8-9-8.5a23.762,23.762,0,0,0-5.4-3.1c-1.3-.7-2.8-1.3-4.1-1.9-.2,1.6-.5,3.2-.6,4.7-.1,5,1.2,19.5,1.2,19.5Zm27.1,146v.2a15.815,15.815,0,0,0,3.8-.4c4.7-1.3,9.4-2.5,13.9-4.2,6.7-2.5,13.4-5.3,19.9-8.2,8.2-3.7,16.6-7,24.3-11.9,7.1-4.5,14.9-7.7,22.4-11.5,5.5-2.8,10.9-5.7,16.4-8.5,3.9-2,7.9-3.8,11.9-5.8,2.7-1.4,5.2-3.1,8-4.4,5-2.4,10.1-4.6,15.1-7a64.772,64.772,0,0,0,6.7-3.9,14.949,14.949,0,0,0,1.3-1.1,11.018,11.018,0,0,0-1.8-.2c-8,1-15.9,2-23.9,3.1-6.4.8-12.8,1.6-19.1,2.6-2.6.4-5.1,1.5-7.6,2.1-4.8,1-9.6,1.9-14.4,2.8a3.128,3.128,0,0,0-1,.5,4.951,4.951,0,0,0,1.3.4c3,0,6.1-.1,9.1-.1,4.1,0,9.6.1,12.4.3,2.8.1,3,2.4.8,3.9-4.9,2.6-9.7,5.3-14.7,7.6-6.7,3.1-13.5,6-20.3,8.8-7.2,3-14.5,5.7-21.5,9.3-8.9,4.5-18,8.5-27.1,12.6-3.7,1.7-7.3,3.4-11,5.1-5.5,2.5-11.5,2.2-17.3,3-4.2.6-8.7-.1-13,.1-9.7.6-19.3,1.5-29,2.2q-8.55.6-17.1.9a3.9,3.9,0,0,1-2.5-.7c-1.6-1.6-2.9-.9-4.3.2-.9.8-1.8,1.5-2.7,2.3a15.726,15.726,0,0,0,3.5,1.1c5.8.3,11.6.6,17.4.6,5.5,0,11-.3,16.5-.6,4.5-.3,9-.9,13.5-1,6.7-.2,13.4-.2,20.2-.3C433,415.5,436.2,415.5,439.5,415.5ZM212.6,215.6c3.9-.5,7.1-.6,10-1.5,5.4-1.7,10.9-3.3,16.1-5.8,6.5-3.1,13.3-5.3,20-8,11.1-4.5,22.1-9.1,33.2-13.6,5.5-2.2,11.2-4.2,16.8-6.3,5.9-2.1,11.8-4.2,17.7-6.1,6.9-2.2,13.8-4.1,20.7-6.1,7-2.1,14-4.2,21-6.2,7.6-2.2,15.3-4.4,22.9-6.5a33.818,33.818,0,0,0,3.4-1.1c1.8-.7,1.9-1.1.4-2.3-1.9-1.5-4.1-2.7-5.6-4.4-1.9-2.1-3.8-2.3-6.2-1.3-5.9,2.5-11.8,5.2-17.8,7.6-5.6,2.2-11.4,4.4-17.1,6.2-8.9,2.8-17.9,5.2-26.9,7.8-6.8,2-13.7,3.9-20.5,6-6.6,2.1-13.1,4.2-19.6,6.7-5.4,2-10.6,4.9-16,6.8-9.2,3.2-18.6,6-27.9,9-2.7.9-17.5,6.3-22,8.7-3.7,2-7.5,3.9-11.3,5.8a3.838,3.838,0,0,0-1.1,1.1,3.377,3.377,0,0,0,1.1.7c3.1,1,6.2,2,8.7,2.8Zm161,204.8c-.6.2-1.3.4-2,.7a19.992,19.992,0,0,0,2.1,1c6,1.3,12,2.2,17.9,3.8,3.8,1,7.5,2.2,11.5,2.6,7,.7,14,2,21,3a33.084,33.084,0,0,0,5.5.5,17.324,17.324,0,0,0,5.1-.4c3.9-1.4,7.6-3.2,11.5-4.7,6.5-2.6,13.2-4.8,19.6-7.5,5.9-2.5,39.3-17.2,41.5-18.3,1.6-.8,3.1-1.6,4.7-2.3,9.2-4,18.5-7.9,27.6-12.1,9.3-4.2,18.7-8.5,27.8-13,5.2-2.6,10-6.1,15.2-8.5,9.6-4.5,17.8-11.2,26.7-16.8.6-.3.9-1.1,1.3-1.7-.7-.2-1.4-.7-2-.6-3.7.3-7.5.8-11.2,1.2a2.112,2.112,0,0,0-1,.4c-7,3.6-14,7.3-21.1,10.8-4.5,2.3-9.2,4.3-13.7,6.5-6.9,3.5-13.7,7.1-20.6,10.6-5,2.5-10,5-15.1,7.5-6,3-12.2,5.8-18.1,8.9-10.3,5.5-20.5,11.2-30.9,16.7a98.837,98.837,0,0,1-9.4,4.1c-3,1.3-6.3,2.1-9.2,3.7a41.955,41.955,0,0,1-25,5.3c-5.4-.6-10.8-1.5-16.2-1.6-6.8-.1-13.7.1-20.5.6-5.2.4-10.4,1.5-15.7.7-2.3-.4-4.7-.7-7.3-1.1Zm98.1-108.9c.2,1,.3,1.7.4,2.3,1.1,4.5,2.3,9.1,3.4,13.6.9,3.4,1.7,6.8,2.8,10.1.3.9,1.3,2.3,1.9,2.2a44.285,44.285,0,0,0,8.1-1.4c3.2-.8,6.4-1.8,9.5-2.9,5.3-1.8,10.5-3.7,15.8-5.8,7.1-2.8,14.1-5.9,21.2-8.6,5.7-2.2,11.5-4.1,17.2-6.2,1.6-.6,3.6-1.2,3.1-3.5-.6-2.8-1.4-5.5-2-8.3-.4-1.8-1.4-2.2-3-1.9-4.2.8-8.5,1.5-12.8,2.2-2.6.4-3.6-.4-3.5-3,.2-3.4.5-6.7.8-10.1.2-1.9-.2-2.3-2.1-1.8-2.4.6-4.8,1.3-7.1,2.1-8.7,3-17.4,6.2-26.1,9.1-8.9,3-17.9,5.9-26.4,10.3a5.576,5.576,0,0,0-1.2,1.6Zm-35.4,94.1a29.543,29.543,0,0,0,6.7-1.4,81.115,81.115,0,0,0,9.1-4c8.1-3.9,16.2-8,24.4-11.7,9.8-4.4,19.8-8.4,29.7-12.7,7.5-3.3,14.8-7,22.2-10.5a7.274,7.274,0,0,0,.8-.9,3.08,3.08,0,0,0-1.2-.5,60.206,60.206,0,0,0-6.1-.5c-9,.1-18.1,0-27.1.5a82.294,82.294,0,0,0-15.5,2.6c-5.7,1.5-11.1,3.9-16.6,5.8-1.2.4-51.8,19.2-60.9,22.8-8.8,3.4-17.5,7-26.2,10.5a24.08,24.08,0,0,0-3.3,1.5,13.017,13.017,0,0,0-1.8,1.5,7.086,7.086,0,0,0,2.1,1.1,49.534,49.534,0,0,0,7.7.2c12.8-1,50.1-3.5,56-4.3Zm32.8-117.4c-1-3.3-1.9-6.3-2.9-9.3-.9-2.7-1.2-2.9-4-1.9-4.6,1.6-9.1,3.4-13.8,4.8-7.6,2.2-15.4,4-23,6.1-10.6,2.9-21.2,5.7-31.7,8.8-5.5,1.6-10.8,3.7-16.2,5.6-8,2.8-16.1,5.4-24,8.4-7.2,2.7-14.2,5.8-21.2,8.8-2.3,1-2.8,1.7-1.7,4.3,2.1,5,4.5,9.9,6.9,14.8,2.1,4.3,4.3,8.5,6.4,12.8,2.6,5.5,5.2,11,7.5,16.6,2.2,5.2,4,10.6,6,15.9,1,2.7,1.9,5.4,2.9,8.1.1.4.6.6.9.9.2-.4.6-.8.6-1.1a47.063,47.063,0,0,0-.3-7.5c-.6-3.9-1.6-7.7-2.3-11.6-.7-3.8-1-7.6-1.7-11.4-.5-3-1.5-5.9-2.1-8.9-1.3-6.3-2.5-12.6-3.9-18.9-.9-4.1.2-5.8,4.3-6.5a19.817,19.817,0,0,0,3.5-.8c4.7-1.6,9.3-3.5,14.1-5,10.4-3.2,20.8-6.3,31.3-9.4,3.5-1,7-2.1,10.5-3.1,5.7-1.6,11.4-3,17-4.8,4.4-1.4,8.6-3.1,12.9-4.8,6.1-2.3,12.2-4.7,18.3-7.1a36.8,36.8,0,0,0,4.4-2.3,5.8,5.8,0,0,0,1.3-1.5ZM208.8,311.5c.8,2.9,2,7.2,3.3,10.7,1.3,3.4,3,6.7,4.5,10a6.375,6.375,0,0,0,.8,1.4.618.618,0,0,0,.7.2.779.779,0,0,0,.3-.7c0-2.4,0-4.8-.2-7.1-.4-7.2-.9-14.4-1.3-21.5-.3-5.4-.4-10.9-.6-16.3,0-1.1-.2-2.2-.2-3.3-.1-4.1-.1-8.3-.3-12.4-.2-4.5-.6-9-.7-13.5s.1-9,.1-13.5c-.1-5.7-.3-11.4-.5-17.1a33.734,33.734,0,0,1-.2-5.5c.2-2.6.1-3-2.4-3.6a32.38,32.38,0,0,1-5.3-1.6c-6.1-2.7-7-2.2-7.5,4.5v.3c-.3,11.6-.9,23.2-.9,34.8,0,12.3.7,24.5,1.1,36.8.1,3.8,0,7.5.1,11.3.1,5.1.4,10.3.5,15.4.2,6.2.5,12.4.5,18.5a288.066,288.066,0,0,0,2.8,42.5c.8,5.1,1.3,10.2,1.8,15.4.5,4.8.7,9.7,1.2,14.6a4.15,4.15,0,0,0,1.2,2c3.3,3.1,7.6,4.3,11.6,6.3,1.8.9,2.9.2,2.9-1.9,0-1.7-.4-3.5-.4-5.2-.5-10.1-.9-20.3-1.3-30.4-.5-12.4-.9-24.7-1.5-37.1a5.142,5.142,0,0,0-1-3c-4.7-5.6-7.7-12.1-10.2-18.8-1.1-3-2.1-6-3-9.1a21.121,21.121,0,0,1-1-5,2.283,2.283,0,0,1,2.4-2.5c2.5-.1,2,1.5,2.7,4.4ZM478.4,200.7c4.8-.3,9.8-.3,14.7-.9a62.062,62.062,0,0,0,10.1-2.5,2.437,2.437,0,0,0,1.3-1.7,27.6,27.6,0,0,0-.6-5.7c-.7-3.3-.4-4.3,2.9-4.9,5.1-.9,10.2-1.4,15.3-2.2,4.9-.7,9.8-1.6,14.7-2.3,2.1-.3,2.7-1.4,2.6-3.4-.1-4,.2-7.9.1-11.9-.1-5.9-.4-11.8-.7-17.7-.1-2.2-1.5-3.2-3.8-3-1.1.1-2.2.5-3.3.6-13.7,1.1-27.4,2.1-41,3.5-10.6,1-21.2,2.5-31.8,3.9-3.3.4-3.5.9-2.5,4.2,3.3,11.2,6.6,22.4,9.9,33.5.8,2.7,1.6,5.4,2.2,8.2a2.674,2.674,0,0,0,3.1,2.4c2.2-.2,4.4-.1,6.8-.1Zm-22.2,58.9a8.671,8.671,0,0,0-1.3.3c-2.7.7-5.3,1.5-8,2.3-6.6,1.9-13.4,3.1-19.9,5.8-5.6,2.4-11.7,4-17.5,6-2.1.7-4,1.9-6.1,2.6-6.7,2.1-13.4,4.1-20.1,6.2-5.9,1.9-11.8,3.8-17.5,6-9.6,3.7-19.2,7.6-28.7,11.4-1.3.5-2.6.8-3.9,1.4-8.6,3.9-18.9,7.7-27.5,11.7-2.5,1.1-2.5,2.2-1.5,4.7,1.3,3,9.1,17.4,11.1,21.4,1.2,2.4,2.5,4.7,3.7,7.1.8,1.7,1.3,3.5,2.2,5.1,4.5,7.6,9.3,15.1,13.5,22.8a140.878,140.878,0,0,1,7,15.3c2.7,6.5,5.1,13.2,7.7,19.7a17.745,17.745,0,0,0,1.9,3.3,1.367,1.367,0,0,0,1.4.2c2.5-1.3,5-2.8,7.5-4.2,1-.6,1-1.3.2-2.2-.7-.8-1.6-1.8-1.6-2.7.1-5.1-2.6-9.4-3.9-14-1-3.6-2.6-7.1-3.9-10.6-1.5-3.8-2.9-7.5-4.5-11.2-1.4-3.3-3-6.5-4.4-9.8-1.7-3.9-3.2-7.8-5-11.6-4.1-8.2-8.4-16.4-12.5-24.6a3.734,3.734,0,0,1-.3-2.1c.2-2.4,1.8-3.4,3.9-4,3.4-1,6.9-1.9,10.3-3.2,3.5-1.3,6.8-2.9,10.2-4.2,4-1.5,8.1-2.6,12.1-4,8.2-2.9,16.2-6.1,24.5-8.6,9.8-2.9,19.3-6.6,29.4-8.7,9.6-2,19.1-4.8,28.5-7.7,6.5-2,12.8-4.5,19.2-6.8,1.3-.5,1.3-1.3.9-2.4a67.534,67.534,0,0,1-2.5-7.6c-.6-2.4-1.9-3.2-4.6-3.1ZM226,419.6c.2,2.1,1.5,2.4,3.1,2.2a35.309,35.309,0,0,0,5.4-1.3c4.5-1.5,9-3.1,13.6-4.7,6.7-2.4,13.4-4.7,20.1-7.1,1.3-.5,2.5-1.2,3.8-1.6,3-.9,17.5-6,21.9-7.5,12.7-4.3,25.5-8.5,38.3-12.7,1.5-.5,1.9-1.2,1.3-2.6-1.8-3.8-3.6-7.6-5.6-11.4a2.227,2.227,0,0,0-1.7-.9,9.349,9.349,0,0,0-3.3.4,119.947,119.947,0,0,1-29.8,3.8,104.089,104.089,0,0,1-37.9-6.7c-4.1-1.5-8.2-2.9-12.1-4.6a31.271,31.271,0,0,1-7.1-4.1c-4.1-3.3-7.9-6.9-11.9-10.3a4.5,4.5,0,0,0-1.2-.6c-.2.5-.6,1-.6,1.4,0,1.5.3,2.9.4,4.4.4,11,.6,22.1,1,33.2.3,6.6,2,27.2,2.3,30.7ZM574.7,220.7,571.1,197c-.8-4.8-1.6-9.6-2.4-14.5-.5-3.2-2.3-4.3-5.5-3.7-3.8.8-7.6,1.5-11.4,2.2-3.3.6-6.5,1.3-9.8,1.8-5.6,1-11.3,1.8-16.9,2.8-4.5.7-8.9,1.5-13.4,2.4-2.8.6-3.1,1.2-3,4,.4,8.7.8,17.4,2.3,26,1.2,7.3,1.8,14.6,3,21.9,1.7,9.8,1.7,19.7,2.1,29.6.1,3.4.4,6.8.8,10.1.2,2.4.8,4.7.9,7.1.1,1.5.4,2.2,1.9,1.7,4.1-1.3,8.2-2.6,12.4-3.9,1.9-.6,2.5-1.9,2.3-3.8-1.3-10.4-2.5-20.8-5.5-31-.7-2.4-.1-5.1-.5-7.6a2.438,2.438,0,0,1,2-3.1c3.4-1.1,6.8-2.2,10.3-3,8.1-1.7,16.3-3.3,24.4-4.9,2.6-.5,6.7-1.5,9.4-2,1.8-.2.5-6.5.2-8.4Zm-36.3,71.1c0,.3-.6,4.8.7,6.6.9,1.2,2.7.3,5.6-.1,5.1-.8,10.2-1.5,15.2-2.3,7.5-1.2,15.1-2.3,22.6-3.5,4.9-.8,9.7-2.1,14.6-2.9,5.7-1,11.5-1.5,17.2-2.4a92.154,92.154,0,0,0,11.6-2.5c3.1-.9,3.2-1.5,3.2-4.6.2-12.4.7-24.8,2.7-37.1a143.585,143.585,0,0,0,1.9-15.9c.3-3.8-.8-4.4-4.4-3.8-6.8,1.3-13.5,2.7-20.3,3.9-8.8,1.5-17.7,2.5-26.4,4.2-10.1,1.9-20.2,4.2-30.2,6.4-5.5,1.2-10.9,2.9-16.3,4.3-1.4.4-3.1.6-3,2.6.2,3.3.3,6.6.8,9.8.9,5.4,2.3,10.8,2.9,16.3a179.844,179.844,0,0,1,1.6,21ZM366,393.2c.3,3.3.6,6.6.8,9.9.1,1.2.1,2,1.7,1.3q6.75-3,13.5-5.7c7.6-3.1,15.2-6,22.9-9,2.9-1.1,5.9-2,8.8-3.2,6.6-2.8,13.2-5.8,19.8-8.4,8.1-3.1,16.3-5.9,24.4-8.8a45.152,45.152,0,0,1,5.2-1.7,76.749,76.749,0,0,0,22.6-8.7c1.7-1,2.6-2.4,2.2-4.3-.7-2.8-1.7-5.6-2.5-8.4-.4-1.5-1-2.2-2.8-1.7-1.6.4-3.3.4-4.9.7-1.3.2-1.7-.3-2-1.5-1.3-4.9-2.5-9.9-4.1-14.7-2-6.2-4.1-12.4-4.7-19a2.319,2.319,0,0,1,.8-2c2.1-1,4.4-1.8,6.6-2.7,2.6-1.1,5.1-2.1,7.6-3.3.5-.3,1.2-1,1.2-1.6a86.7,86.7,0,0,0-.6-8.8c-.1-.5-1.2-1.3-1.6-1.2-4,1.3-8,2.6-12,4.2-3.3,1.3-6.3,3.1-9.6,4.3-5.4,2-10.9,3.8-16.4,5.7-7.2,2.5-14.4,5.2-21.7,7.3-9.3,2.6-18.8,4.5-28.1,7.2-7.3,2.1-14.3,4.8-21.5,7.3-4,1.4-8,2.9-11.9,4.5-3.2,1.4-3.5,1.9-3,5.3.6,4.4,1.6,8.7,2.4,13,1.4,7.2,2.9,14.5,4.4,21.7.5,2.6,1.2,5.2,1.5,7.8a114.267,114.267,0,0,1,1,14.5Zm-71.4-21.5c8.5,0,17.8-1.6,26.9-3.8,3.2-.8,3.2-1,1.7-3.8-2.7-5.1-5.3-10.3-8-15.4-2.4-4.7-4.7-9.5-7.4-14.1-3.1-5.3-5.2-11.1-9.6-15.7-3.4-3.6-2-7,2.6-8.5,5.6-1.8,11.1-3.9,16.6-6.2,6.2-2.6,12.2-5.6,18.5-8,12-4.6,24-9.1,36.1-13.3,10.8-3.7,21.7-7.1,32.7-10.4,2.4-.7,3-1.8,3-4.1-.3-11-.3-22-.7-32.9-.5-13.8-1.3-27.6-2.2-41.4-.3-4.9-1.3-9.7-1.6-14.5-.4-5.2-.3-10.5-.6-15.7a29.6,29.6,0,0,0-1.3-5.9c-.1-.3-.8-.6-1.1-.6-3.9,1-7.8,2.1-11.7,3.1-11,2.9-22,5.7-32.9,8.5-2.1.6-4.3.9-6.4,1.6-2.9.9-5.7,2.1-8.5,3-4.2,1.3-8.5,2.4-12.7,3.8-7.1,2.5-14.2,5.1-21.2,7.8-9.6,3.6-19.2,7.2-28.7,11-13.2,5.2-26.3,10.5-39.5,15.9-2.3.9-4.5,2.2-6.8,3.1-3.4,1.4-7,2.5-10.3,4-1.5.7-3.6,1.3-3.5,3.7.1,4.1.3,8.3.4,12.4.1,3,0,6.1,0,9.1,0,5.1,0,10.1.2,15.2.4,9.2.9,18.4,1.3,27.6.4,8.5.5,17,.9,25.4.3,6.2.7,12.3,1.2,18.5.4,4.5-.2,8.9,3,13.1a62.528,62.528,0,0,0,15.4,14.1c3.3,2.3,7.5,3.3,11.4,4.8a121.639,121.639,0,0,0,23,6.8c6.2,1,12.4,2.2,19.8,1.8ZM544.4,177.5c.1,2.3,1.4,1.6,2.4,1.3,4.8-1.1,9.5-2.3,14.3-3.4,2.6-.6,5.2-1.1,7.8-1.8,1.8-.5,2.6.3,2.8,2,1.8,11.4,3.6,22.7,5.5,34.1.7,4.1,1.4,8.2,2.3,12.2a18.2,18.2,0,0,0,1.7,4.4,1.945,1.945,0,0,0,1.4.9,15.138,15.138,0,0,0,3-.2c9.3-1.5,18.6-2.9,27.8-4.5,5.3-.9,10.5-2.2,15.7-3.4,1.9-.4,3.8-.7,5.7-1.1s3,.3,3.1,2.1a95.487,95.487,0,0,1,0,10.7c-.3,3.1-1.4,6.1-1.8,9.2-1.1,8.3-2.7,16.5-2.7,24.9,0,4.1.2,8.3.3,12.4.1,2.9.1,5.9.2,8.8.1,1.9-.9,2.7-2.6,2.8-17.3,1.5-34.3,4.8-51.3,7.9-6.8,1.3-13.6,2.2-20.5,3.1-2.2.3-2.5,1.1-2,3,.8,3.4,1.3,6.9,1.9,10.3.5,2.8-1,4.7-3.8,5.4-14.6,3.8-28.8,8.5-42.3,15.3-6.7,3.3-13.4,6.9-21.1,8-3.1.4-3.2,1-2.3,4,.9,3.4,1.9,6.7,2.7,10.1.4,1.4,1.2,1.7,2.5,1.6,3.6-.5,7.3-.8,10.9-1.5,9-1.8,18-4.3,27.1-5.8,11.6-1.9,23.2-3.1,34.9-4.4,8.3-.9,16.5-1.5,24.8-2.2,6.9-.6,13.7-1.4,20.6-2.1a12.1,12.1,0,0,1,1.9-.1c1.8.2,2.4,1,1.4,2.5a25.667,25.667,0,0,1-2.8,3.7c-2.3,2.6-15.7,14.2-20.6,16.7-3.9,1.9-20.6,11.6-25.3,14.2-6.1,3.3-12.4,6.1-18.3,9.6-8.1,4.8-97.5,43.6-106.4,47-2.8,1.1-5.7,2.2-8.5,3.2a6.054,6.054,0,0,1-3,.2c-10.9-2.1-21.9-4.2-32.8-6.5-7.5-1.6-15-3.6-22.5-5.3-4.8-1-9.6-1.7-14.4-2.5-3.3-.6-6.5-1.2-9.8-1.6a4.615,4.615,0,0,1-4.1-3.2c-3-7.6-6-15.3-9.2-22.8a46.745,46.745,0,0,0-3.3-5.7,1.286,1.286,0,0,0-1.2-.4c-1.8.4-3.9.5-5.2,1.5-1,.8-1.4,2.9-1.4,4.3.1,5.6.7,11.2.9,16.8.2,5.2,0,10.3.2,15.5.4,7.1,1,14.2,1.5,21.2a67.609,67.609,0,0,0,1,7.7,8.854,8.854,0,0,0,3.3,5.6c5.2,4,10.2,8.1,15.3,12.2l.2.2c1.3,1.2,2.8,2.4,1.9,4.4-.6,1.2-2.6,1-4.6-.6-4-3.2-7.9-6.6-12-9.8a28.83,28.83,0,0,0-5.7-3.2c-2.1-.9-3.3-2.1-2.7-4.2,1.1-3.7-.2-7.1-.5-10.6-.6-8.2-1.5-16.4-1.2-24.8.2-6.1-.5-12.3-.9-18.5-.2-3.7-.7-7.3-.9-11-.2-2.9-.9-3.5-3.6-2.6-9.2,3.1-18.3,6.1-27.5,9.4-5.6,2-11.2,4.3-16.8,6.4a2.155,2.155,0,0,0-1.6,2.5c.5,8.6.7,17.1,1.4,25.7,1.1,12.9,2.7,25.8,4,38.7.4,4.2,2.3,6.5,6.4,7.3,3.7.8,7.3,2.1,10.9,3.2,3,.6,2.5,2.9,2.3,3.8a2.438,2.438,0,0,1-2.1,1.2c-2.7-.6-5.2-.9-7.8-1.7-3.3-1-12.2-1.6-12.6-4.5-.4-3-1.5-10.4-2-15.6-1.2-12.6-2.4-25.3-3.4-37.9-.5-5.6-.5-11.2-.7-16.8a12.1,12.1,0,0,0-.1-1.9c-.4-1.4-1.1-1.9-2.7-1.4-8.8,3.1-17.7,6.1-26.6,9.3-4,1.4-7.8,3.2-11.7,4.9a5.128,5.128,0,0,1-4.8-.2c-5.1-2.5-10.5-4.3-15.8-6.4-.6-.2-1.2-.4-1.9-.6a5.893,5.893,0,0,1-4.4-5,87.284,87.284,0,0,1-1.6-15.3c-.3-7.1-1.4-14.1-2.1-21.1-.8-8.1-1.6-16.1-2-24.2-.4-7.8-.3-15.6-.4-23.5-.1-9.6,0-19.1-.2-28.7-.1-5.3-.7-10.7-.9-16q-.3-8.85-.3-17.7c0-8.4,0-16.9.2-25.3.2-8,.6-16,.9-24a36.374,36.374,0,0,0,0-6.6,3.7,3.7,0,0,1,2.3-4.2c12.6-6.1,25-12.7,38.6-16.7,15-4.4,29.6-9.7,44.2-15.3a221.985,221.985,0,0,1,31-9.5c6.2-1.4,12.1-3.8,18.2-5.9,11-3.8,22-7.6,33-11.5,6.3-2.2,12.4-4.7,18.6-7.2,3.2-1.3,4.7-1,7.5,1.1,3,2.3,6.2,4.3,9.3,6.5,8.1,5.8,7.9,5.9,8.1,15.7.2,7,1,14,1.5,20.9.7,9.4,1.3,18.9,1.9,28.3.3,4.4.6,8.8.9,13.3.1,1.4.1,2.8.1,4.1,0,5.6,0,5.6,4.8,8.4,2,1.1,4.1,2,6.1,3.1a18.049,18.049,0,0,1,4.3,2.9c2.7,2.9,6.5,4.6,8.3,8.5,2.3,5.3,2.6,5.4,8.2,3.9,4.9-1.3,9.7-3,14.5-4.5,3.3-1.1,3.5-1.2,4.8,1.8,2.4,5.4,4.5,10.9,6.5,16.4,1.4,4,2.4,8.1,3.7,12.2.5,1.6,1.3,2.8,3.5,1.8a41.565,41.565,0,0,1,7-2.5c3-.8,4.7.3,4.9,3.4.1,2-.3,4-.4,6,0,1.8.2,3.6.3,5.4a40.209,40.209,0,0,0,5-1c6.4-2.2,12.7-4.5,19.1-6.6,1.5-.5,2.1-1.1,1.8-2.8-.3-1.3.1-2.7,0-4.1-.4-6.3-.9-12.6-1.3-18.9-.1-2.5.1-5-.2-7.5-1.4-13.2-2.8-26.4-4.3-39.6-.5-4.5-1.1-8.9-1.6-13.4-.2-1.9-.7-2.5-3-2.3-6.4.7-12.8.8-19.2,1.4-5.3.5-16.7,2.9-18.3.7a6.453,6.453,0,0,1-1.2-2.8c-1.2-5.7-2.3-11.4-3.4-17a56.34,56.34,0,0,0-1.4-5.9c-2.3-7.4-4.8-14.9-7.1-22.3a31.748,31.748,0,0,1-1.4-6.1c-.2-1.7,1-2.7,2.7-2.8,2.5-.1,5-.1,7.5-.3s4.9-.6,7.4-.8c5.5-.5,11-.9,16.5-1.5,8.1-.9,16.2-2,24.4-3,6.7-.8,13.4-1.5,20.1-2.2,3.1-.4,6.2-.9,9.3-1.3s4,.2,4.1,3.5c-.6,5.3.7,28.5,1,35Z" fill="#181715" fill-rule="evenodd"/>
    <path id="Path_833" data-name="Path 833" d="M597.9,146.7c-.1,0,.8,14.3,1.4,21.4a11.374,11.374,0,0,0,1.1,4c.3.6,1.1,1.5,1.7,1.5a44.17,44.17,0,0,0,6.3-.1c7-.7,13.9-1.6,20.9-2.3,4.5-.4,9-.3,13.4-1,5.2-.8,5.1-1,5.7-6.4a8.755,8.755,0,0,0,.2-1.6c-.7-11.7.6-23.3,1.8-34.9.4-4.4.5-8.8.7-13.2.1-1.2.2-2.5-1.6-2.7-4.1-.3-8.2-.9-12.4-.9-4.7,0-9.3.5-14,.7-2.9.1-5.9.1-8.8.3-5,.4-10,.8-15.1,1.3-1.9.2-2.9,1.1-2.6,3.3a36.854,36.854,0,0,1,.4,5.8c.4,8.3.6,16.6.9,24.8ZM648.8,174c-11.6,1.1-23.3.3-34.7,2.8-3,.7-6,1.1-9,1.6a16.2,16.2,0,0,1-2.2.1c-5.1-.1-5.2-.4-6.7-5.4-1.6-5.5-1.4-11.1-1.6-16.7-.1-4.7-.2-9.4-.5-14.1-.6-9.3-1.3-18.5-2-27.8a10.286,10.286,0,0,1,.1-1.7c.4-4.1-.1-3.7,3.9-4,4.4-.4,8.7-1.3,13.1-1.6,6.1-.3,12.2-.2,18.2-.3,4.6-.1,9.2-.4,13.8-.4,3.9,0,7.9.2,11.8.3,1.5,0,2.2.8,2.1,2.3-.2,3.6-.2,7.2-.5,10.7-.7,9.5-1.7,18.9-2.1,28.4-.3,6.4.3,12.9.5,19.3,0,.6.1,1.3.1,1.9.2,5.4-1,5.1-4.3,4.6Z" fill="#181715" fill-rule="evenodd"/>
    <path id="Path_834" data-name="Path 834" d="M488.8,221.8c-.3-1.2-1-1.6-2.3-1.3-1,.3-2,.5-2.9.7-1.5.4-2.1,1.3-1.7,2.8.6,3.1,1.1,6.2,1.6,9.2.6,3.6-2.6,5.5-6.2,6.4-2.4.9-1.2,1.8-.2,2.7,1.8,1.6,9.7,5.6,11,5.1,1.8-.7,3.7-2.5,5.3-4.3,1.9-2.2,3.9-4,3.3-4.4-.7-.3-2.3.2-3.7.3-1.9.1-2-.6-2.2-1.9-.3-2.5-1.6-13.7-2-15.3Zm3.7-.1c.3,5.1.5,9.7.8,14.3.1,1.5,4,.7,5.6.5.8-.1,2,1.9,1.6,2.6a67.676,67.676,0,0,1-9.6,11.9c-1.2,1.1-2.3,1.9-3.8,1-2-1.2-4-2.5-6-3.8-2.2-1.4-4.5-2.7-6.7-4.3-1-.7-2.4-1.8-2.4-2.7a3.478,3.478,0,0,1,2.9-3.2,13.969,13.969,0,0,0,2.9-.9,3.056,3.056,0,0,0,1.8-3.8,111.591,111.591,0,0,1-1.6-11.4c-.3-2.9,1-3.9,4.4-4.3a9.474,9.474,0,0,0,2.9-.7c4.7-2,7.5-.1,7.2,4.8Z" fill="#181715" fill-rule="evenodd"/>
    <path id="Path_835" data-name="Path 835" d="M610.1,191.3c.2,2.4.7,7.9.9,10.2.1,1.1-1.5,1.7-3.5,2.2-.4.1-.8.6-.3.9,1.1.7,7.5,7.1,9.8,6.8,1.4-.2,8.9-5.5,8.7-7.7-.1-.5-3.6.3-4.2,0-.3-.1-.6-4.5-.7-5-.2-2.8-.2-4-.2-4a20.857,20.857,0,0,0,0-2.5c-.2-1.9-1-3.2-3.2-2.7l-6.7.6C610.7,190.2,610,190.7,610.1,191.3Zm11.2-5.1c1.8-.1,2.8.6,2.7,2.5-.1,3.7,0,7.3,0,11,0,1,.1,1.5,1.5,1.5h2.6c3.6,0,1.4,3,.7,3.7-2.6,2.6-5.3,5-7.9,7.6-2.8,2.8-6.7,2.8-9.1-.3-1.7-2.1-7.9-5.5-8.6-6.2-1.6-1.6-1.2-3.3,1-3.9,2.4-.7,3.4-2.2,3.1-5-.2-2.4-.5-4.8-.8-7.1-.2-1.6.2-2.6,2.1-2.8C611.5,187,619.9,186.3,621.3,186.2Z" fill="#181715" fill-rule="evenodd"/>
    <path id="Path_836" data-name="Path 836" d="M313.6,282.1c-3.3.3-6.6.4-9.9.5-2.9,0-3.6-.9-3.4-3.7.2-2.9.2-5.9.5-8.8,0-.5.8-1.5,1.1-1.5.7.1,1.7.5,1.9,1.1a25.572,25.572,0,0,1,1,4.8c.4,3.1.8,3.6,3.9,3.7a78.411,78.411,0,0,0,18.1-1.2,32.251,32.251,0,0,1,9.3-.3,1.851,1.851,0,1,1,0,3.7c-2.1,0-16,1.2-22.5,1.7Z" fill="#181715" fill-rule="evenodd"/>
    <path id="Path_837" data-name="Path 837" d="M296.4,236.6a3.166,3.166,0,0,1,3.4-3,2.857,2.857,0,0,1,2.8,2.8,3.659,3.659,0,0,1-3.9,3.2C296.9,239.4,296.5,238.1,296.4,236.6Z" fill="#181715" fill-rule="evenodd"/>
    <path id="Path_838" data-name="Path 838" d="M359.7,229.6c-1.3-.1-2.7-.4-2.9-2.2-.1-1.4,1.4-3.4,2.6-3.5a3.243,3.243,0,0,1,3.2,2.8,2.783,2.783,0,0,1-2.9,2.9Z" fill="#181715" fill-rule="evenodd"/>
    <path id="Path_839" data-name="Path 839" d="M461.8,339.2c-.8.2-1.1.3-1.5.4-6.5,1.8-13.1,3.6-19.6,5.4-1.3.3-1.6,1.1-1.3,2.3.9,3.1,1.8,6.2,2.9,9.2a2.61,2.61,0,0,0,2,1c6.7-1.9,13.4-4,20.1-6.1,1.3-.4,1.9-1.3,1.5-2.5q-1.2-4.2-2.7-8.4C463.1,339.9,462.2,339.5,461.8,339.2Zm-2-4.9c3-1.1,5.6-1.2,6.9,2.6,1.5,4.5,3,9.1,4.4,13.7.5,1.7-1.4,4-4,4.3-6.8.8-22.2,6.9-23.6,7.5-2.6,1-3.1.9-3.9-1.7-1.4-4.5-6.1-17.5-5-18.5C435.5,341.4,455,336.1,459.8,334.3Z" fill="#181715" fill-rule="evenodd"/>
    <path id="Path_840" data-name="Path 840" d="M374,348.5c-.9-.3-2.1-.4-2.7-1.1-.7-.7-1.5-2.3-1.1-2.8a4.608,4.608,0,0,1,3.1-2c10.2-.5,19.5-4.3,29-7.6.3-.1.7-.2,1.1-.3,1.1-.2,2.7-1,3.1.5.3,1.2-.4,2.8-1.1,4-.3.6-1.4.8-2.2,1-5.2,1.3-10.4,2.4-15.5,3.8-3.9,1.1-7.7,2.5-11.6,3.8a17.237,17.237,0,0,1-2.1.7Z" fill="#181715" fill-rule="evenodd"/>
    <path id="Path_841" data-name="Path 841" d="M379,356.1c-1.8.1-2.6-1-2.9-2.5-.4-1.8,1.3-2.1,2.4-2.5,4.5-1.4,9-2.5,13.5-3.7,1.9-.5,3.7-1,5.6-1.4a12.287,12.287,0,0,1,2.7-.2c1.2,0,2.5.3,2.3,1.7a3.444,3.444,0,0,1-2,2.4c-2.1.7-4.3.9-6.4,1.5-3.1.9-6.1,2.1-9.1,3A60.931,60.931,0,0,1,379,356.1Z" fill="#181715" fill-rule="evenodd"/>
    <path id="Path_842" data-name="Path 842" d="M592.3,272.4c0,.1,10.2-1.2,15.3-2,.4-.1.7-.2,1.1-.3a2,2,0,0,0,1.6-2.7c-.3-1.6-.5-3.3-.7-4.9-.4-4-.5-8.1-1-12.1-.4-3.1-1.5-3.7-4.6-3-4.9,1.1-9.8,2.5-14.8,3.4-5.7,1.1-11.4,1.9-17.2,2.7-2.6.4-3.4,1-3.1,3.8.4,4.4.8,8.8,1.2,13.1.4,4.1.9,4.6,5,4.5a23.28,23.28,0,0,0,3.8-.4C583.4,273.8,587.8,273.1,592.3,272.4Zm21.3-3.9a3.18,3.18,0,0,1-1.8,4.1,16.854,16.854,0,0,1-4.5,1.4c-6,.8-12,1.4-18.1,2.2-4.7.6-9.5,1.3-14.2,1.9-.9.1-1.8.3-2.7.4-3.3.2-3.8-.3-4.2-3.6-.9-7.2-1.9-14.4-2.9-21.5-.3-2.2.3-3.3,2.4-3.3,3.5,0,6.8-1,10.2-1.4a188.427,188.427,0,0,0,24.6-4.1c1.6-.4,3.3-.6,4.9-.9,3.5-.5,4-.2,4.3,3.4C612.1,252,613,266.3,613.6,268.5Z" fill="#181715" fill-rule="evenodd"/>
    <path id="Path_843" data-name="Path 843" d="M530.8,205.6c5.3-1.1,10.6-2.2,15.9-3.2a7.2,7.2,0,0,1,2.9.3,1.357,1.357,0,0,1,.7,1.3,1.818,1.818,0,0,1-1.1,1c-5.3,1.2-16.8,3.4-19.5,3.8-2.1.4-2.5-2.5,1.1-3.2Z" fill="#181715" fill-rule="evenodd"/>
    <path id="Path_844" data-name="Path 844" d="M547.2,211.6c1.4-.2,1.3,3.1.1,3.5-3.7,1.1-10.2,2.2-14,3a21.353,21.353,0,0,1-4.4.8c-1.7,0-2.2-1.1-1.7-2.6.5-1.7,15.8-4,20-4.7Z" fill="#181715" fill-rule="evenodd"/>
    <path id="Path_845" data-name="Path 845" d="M478,160.7c7.5,1.1,15.1-.5,22.6-2.3,1.4-.3,2.8-.4,3.2,1.2.3,1.8-1,2.1-2.6,2.4-4.4.7-8.7,1.6-13,2.3-3.2.5-6.4.8-9.6,1.1h-1.1c-1.9-.3-3.4-1.5-3.2-2.8C474.4,161.1,475.4,160.6,478,160.7Z" fill="#181715" fill-rule="evenodd"/>
    <path id="Path_846" data-name="Path 846" d="M497.3,170.9c0-1.9-4.9-1.1-5.1-1.1-3.8.3-7.5.6-11.2,1.1-.8.1-.6,3.1.1,3.5a69.648,69.648,0,0,0,13.7-1.5C496.6,172.4,497.3,171.5,497.3,170.9Z" fill="#181715" fill-rule="evenodd"/>
    <path id="Path_847" data-name="Path 847" d="M498.9,314.1c-.9-.6-1.2-3.2-.4-3.4,5-1.6,10-3.1,15.1-4.6a88.221,88.221,0,0,1,8.9-2c2.4-.2,3.4,2.2.6,2.6-4.3,1.2-8.8,2.2-13.1,3.4a44.692,44.692,0,0,0-4.6,1.9c-2.1.7-4.2,1.4-6.5,2.1Z" fill="#181715" fill-rule="evenodd"/>
    <path id="Path_848" data-name="Path 848" d="M498,318.2c-.2-2,2.4-1.7,3.7-2,3.7-1,7.6-1.7,11.4-2.4.8-.1,1.4,1.8.7,2.1,0,0-15.6,4.5-15.8,2.3Z" fill="#181715" fill-rule="evenodd"/>
    <path id="Path_849" data-name="Path 849" d="M625,150.3h1.1l3.6-.3c2.9-.3,3.2-.8,3-3.7-.3-3.8-.6-7.5-.9-11.3-.2-2.3,1-5.1-3.6-4.8-5.7.7-11,.7-13.4,1.1-1.6.2-1.7,2.2-1.7,3.9-.1,4.3-.2,8.6-.5,13-.1,1.8.5,2.3,2.2,2.2,3.4-.1,6.8-.1,10.2-.1Zm-13-21.9c5.6-.4,10.1.2,14.9-1a8.2,8.2,0,0,1,2.2-.2c3.7-.3,5.5.8,5.5,4.4,0,4.7,6,10.7,8.2,14.2.4.6-1.2,2.5-1.9,2.4-.6-.1-4-3.7-4.5-4.1,0,.7-.1,1.4-.1,2.1-.1,1.4-.3,3.6-.5,5-.3,1.9-5.7,2.1-5.7,2.1a13.61,13.61,0,0,1,.6,3.3c0,1.5.5,2.5,2.1,2.7a9.3,9.3,0,0,1,2.4.5c.4.2,1.1.7,1,.9-.1.5-.5,1.4-.9,1.4a28.811,28.811,0,0,1-7.2-.2c-.9-.2-1.3-4.3-1.3-5.3-.1-3.1-.2-3.3-2.7-3.3-3.4,0-4,.5-4.1,3.3a8.6,8.6,0,0,0,.1,1.6c.8,3.1.8,3.1-2.3,4.3a9.354,9.354,0,0,1-3.1,1,1.882,1.882,0,0,1-2.2-1.2c-.7-1.4,3.8-2.5,4.3-3.3.6-1.1.1-5,.1-5s-4.2,0-4.5-.1c-2.7-.3-3.1-.5-2.6-3.1a39.119,39.119,0,0,1,.1-6c.1-.6-.3-1.3-.4-2a15.923,15.923,0,0,0-1.3,1.3c-1.2,1.4-2.2,2.9-3.5,4.2-.4.4-2.5-1-2.1-1.7.6-1.2,1.5-2.3,2.2-3.5,1.6-2.8,3.2-5.6,4.6-8.5.5-1,.2-2.3.1-3.5-.3-2.2.2-2.7,2.5-2.7Z" fill="#181715" fill-rule="evenodd"/>
    <path id="Path_850" data-name="Path 850" d="M624.5,143.3a3.023,3.023,0,0,1,1.7,1.8c.1.4-1.5,1.7-1.5,1.7-1.9.4-7.5-.1-8-.9-1-1.5-.3-2.6,1.6-2.8A32.9,32.9,0,0,1,624.5,143.3Z" fill="#181715" fill-rule="evenodd"/>
    <path id="Path_851" data-name="Path 851" d="M617.6,135.5c1.1-.1,1.4,1.5,1.4,2.1.1.6-.8,1.3-1.5,1.3-.7-.1-1.1-.7-1.3-1.5-.1-.6.2-1.9,1.4-1.9Z" fill="#181715" fill-rule="evenodd"/>
    <path id="Path_852" data-name="Path 852" d="M625,137.5a1.22,1.22,0,0,1-1.1,1.6c-1.1.1-1.4-.8-1.3-1.8,0-.1,0-1,1.2-1.1s1.1.7,1.2,1.3Z" fill="#181715" fill-rule="evenodd"/>
  </g>
</svg>
