<svg id="usercontrol" xmlns="http://www.w3.org/2000/svg" width="677.123" height="312.297" viewBox="0 0 677.123 312.297">
  <path id="Path_325" data-name="Path 325" d="M143.93,408.5A433.47,433.47,0,0,1,342,300.82c8.91-2.12,18.09-4,27.18-2.85,11.88,1.46,22.54,7.82,34,11.25a71.39,71.39,0,0,0,57.32-7.65c43.88,2.15,81.06,28,116.48,54l34.23,25.13L440.3,390.23c-5,.28-10.05.55-14.93-.54-4.14-.93-8-2.8-12-4.23-23.44-8.36-51.94.75-66.18,21.16-61.19-1.72-127.53,2.55-188.54,7.59-6.97.58-11.06.22-14.72-5.71Z" transform="translate(-109.593 -145.005)" fill="#68cec6"/>
  <path id="Path_326" data-name="Path 326" d="M224.47,279.45c-1.8-11.45,3.06-22.79,7.81-33.37l5.31-11.82a36,36,0,0,1,10.84-.91" transform="translate(-109.593 -145.005)" fill="none"/>
  <path id="Path_327" data-name="Path 327" d="M259.48,203.38a8.33,8.33,0,0,0-.59-3.55,12.291,12.291,0,0,0-2.13-2.55,13.08,13.08,0,0,1-.45-16.64,15.64,15.64,0,0,1,8.74-5c3.51-.79,7.48-.51,10.28,1.75s3.89,6.18,4.44,9.82.65,7.59-1.75,10.27a34.592,34.592,0,0,0-2.84,2.84,9.67,9.67,0,0,0-1.26,4.79l-1.54,18.23c-.21,2.53-.56,5.34-2.51,7-5.79,4.81-7.76-1.56-8.46-5.95a157.782,157.782,0,0,1-1.93-21.01Z" transform="translate(-109.593 -145.005)" fill="#f39d74"/>
  <path id="Path_328" data-name="Path 328" d="M287.92,264.42a5.89,5.89,0,0,0,4.75-.53,5,5,0,0,0,2.39-2.23,2.46,2.46,0,0,0-.65-3,1.86,1.86,0,0,1-.57-.43A1.22,1.22,0,0,1,294,257a7.77,7.77,0,0,1,4.48-3.69,11.32,11.32,0,0,0,2.09-.67,2,2,0,0,0,1.19-1.71,1.87,1.87,0,0,0-1.3-1.58,5.54,5.54,0,0,0-2.15-.2,4.91,4.91,0,0,0-1.83.29c-3.82,1.66-.6,7.45-4.53,9.06-1.73.72-3.93-.59-5.42,1.13a3,3,0,0,0,1.39,4.79Z" transform="translate(-109.593 -145.005)" fill="#f39d74"/>
  <path id="Path_329" data-name="Path 329" d="M411,389.16a48.85,48.85,0,0,0-26.59-4,43.156,43.156,0,0,0-10.2,2.35c-12.36,4.62-22,17.14-23.12,31.1S358,447,370.3,451.89c8.61,3.42,18.23,2.21,27.11-.31,10.44-2.95,20.95-8.09,27.11-17.58,4.26-6.55,9-19.25,5.77-27.22-3.12-7.65-12.48-14.4-19.29-17.62Z" transform="translate(-109.593 -145.005)" fill="#e7df00"/>
  <path id="Path_330" data-name="Path 330" d="M434,398.19c2.53,9.76,8.59,21.1,1,29.82-5.32,6.23-8.74,14.07-15.79,18.69-29.77,24.2-86.83,5.21-71.25-39.09-41,5.82-83.62,0-125.13,4.6-13.55-.66-27.12.72-40.73.65-11,1.74-23.45-.84-33.29,5,2.94,2.37,4.84,5.68,8.57,7.1,1.82.68,1.17,2.58.56,3.71-2.32,6.32-12.08-8-13.73-10.92-3.13,3-8.61,4.79-12.52,2.59-3.83-4.55-13.93-.16-19,.85-3,1.06-4.32-2.3-1.67-3.75,5.54-2,11.39-2.64,17.52-3.78-2.16-5.22-12.64-6.06-10.89-12.41,1.4-2.59,10.45,6.72,14,7.55-.65-10.31-5.89-8.88-7.4-14,3.57-11.05,10.54,9.5,12.42,12.74,2.29-1.51,5.38-.87,7.09-3.5,8.89-11.48,19.18-21.88,29.09-32.54C189.18,357.4,208.8,348.16,228,339c24.39-11.5,64.8-27.05,78.93-30.87s28.13-5.81,42-9.2c-9.23-2.52-19.34-4.15-28.2-7.85-2.82-1.34-5.22-.84-7.84-.93-13.54.62-26.71-3.56-40.37-2.92-14.35-.22-28.4-3.56-42.73-3.36-14.23,1.3-7.75-8.83-8.31-18.08.82-5.6,5.41-9.93,7.11-15.43,2.53-5.08,7-16.74,8.59-17.84s9.55-.12,9.55-.12a18.66,18.66,0,0,1,8.67-5.69c1.28-.38,1.7-.92,1.52-2.37-2.56-7.44-4.13-15-3.61-23a2.44,2.44,0,0,0-.88-2.58c-13-13.49,11.1-34.17,24.65-24.26,6.47,4.41,11.51,13.22,7,21.58-.79,3.66-9.06,5.85-5.32,9.54A73,73,0,0,0,313,221.8c5.51,1,30.21,3.8,31.1-2.9,2.75-12.32,9.78-23.16,12.39-35.48,2-4.29.58-11.42,5.23-13.71a9.37,9.37,0,0,0,3.15-2c13.49-11.89,12.92-5.58,27.87-1.78,12.69,3.7,25.88,4.91,38.42,9,2.74-4.57,5.26-9.26,9.73-12.69-2.72-1.91-.63-4.77-2.08-7.21-4.35-18.62,32.41-8.19,18.56,6.11-8,6.14-12.18-4.34-21.73,15.09,13,3.86,25.18,9.8,38.07,14,4,2.72,26.56,5.26,22.57,11.64-11.56,26.33-21.87,53.14-33.58,79.4-1.08,2.57-6.66,10.73-2.41,11.89,7.07.34,61.11,15.37,79.19,26.31,16.29,9.18,30.39,16.08,46.42,30.74,7.3,6.69,14.25,13.33,18.59,18.45,2.59,3.06,7.33,9.09,7.33,9.09a24.559,24.559,0,0,0,6.33-.32c18.15-11.24,34.53-26.82,48.16-43.09-2.53-3.38-19.43-11.45-13.75-15.54,12.11-5,25.15-5.13,37.07-11.21-6.63-2.94-12.28-7.16-19.09-9-1-.28-1.93-.46-1.79-1.75,3.35-5.85,21.66-5.76,28.1-9.34,8.15-1.9-9.06-11.58-11.81-13.07-2.87-1.28-3-3.17-.4-4.87,3.78-2.45,7.31-5.34,11.62-6.94,1.79-.67,2.45-2.69,4-3.61,1.66-1.45,4.77-.68,4,1.9,0,1.37-1.39,1.39-2,1.61a36.987,36.987,0,0,0-12.71,8.66c2.86,4.65,9.77,10.2,15,12,13.81,6.92-24.58,10.55-28,14.34,6.86,2.95,12.27,5.72,19.35,7.49,1.36.36,2.72,1,2.65,2.61a3.09,3.09,0,0,1-2.87,2.82c-12.34,4-25,6.36-37.18,11,2.88,4.7,8.53,7.55,13.43,9.77a1.89,1.89,0,0,1,1.48,1.92,3,3,0,0,1-1.35,3.08c-8.37,6.05-14.52,14.62-22.32,21.36a278.34,278.34,0,0,1-25.21,21c-2.51,1.16-.8,3.34-3.31,4.22-6.73,3.36-14.46,2.72-21.72,3.51a121.339,121.339,0,0,1-19.12,2.42c-29.82.2-59.49,3.05-89.27,4.2-18.95,1-38.75.17-57.11,5.27Zm-28-89.71c-20-5.42-40.2-10.76-60.58-4.65-14.49,4.54-29.71,5.31-44.09,10.31-15,5.85-31,8.87-45.23,16.75-28.29,12-57.37,24-81.17,43.9-9.83,10.46-20.08,20.42-27.88,32.55,4.17-2.62,8.58-4,12.22-6.73a2,2,0,0,1,3.14,1.51c.34,3.37-2.41,4.09-4.6,4.82-3.71,1.24-6.68,3.85-10.39,5.12,15.24-3.45,30.93-2.71,46.39-3.92,6.95.34,12.59-4.59,18.75-7.2,4.85-3.6,20.23-8.43,16.72-16.08-1.09-2.45,3.65-4.4,4.43-1.47,5.4,9.95-20.83,20.41-22.06,23.07,16.81,3.18,34.29-2,51.22-.62,27.37.27,55,1.08,82.16-2.1,6.44-.11,7.58-7.26,11.78-10.91,9.61-9.17,23.27-13.51,36.59-13.08,12.54,1.2,27.9.33,36.1,11.72,1.92,2.71,4.09,2.73,6.59,2,22.12-5.28,45-4,67.49-5,16.93-1.77,47.7-2.62,68.57-3.58a336.941,336.941,0,0,0,36.23-3.53s-2.87-9.68-25.9-29.45-55.34-33.24-65.48-38.7c-18.38-7.54-38.08-11-57.42-15-6-2.09-3.78,8.12-10.64,9.31-8.06.71-14.67,8.74-22.81,4.54a98.219,98.219,0,0,1-15-3c-7.81,8.51-15.88,17.11-23.64,25.76-6.4,3.17,16.31,17.4,19.52,19s4.15,3.87,2,6.82c-2.32,1.79-3.11,7.47-6.68,6.33-2.63-1.24-1.44-4.56.42-6,1.55-1.2,1.62-2.25-.17-3.5-3.4-3.37-29.88-17.94-21.57-22.1,8.57-8.7,17.39-17.37,24.99-26.89Zm68-100.29c-6.32-7.49-80.6-30.34-109-34.21-1.13-.06-1.79,0-2,1.31-2.78,15.37-9.91,29.42-14.43,44.29.87.5,1.8-.2,2.42.64a3.07,3.07,0,0,1-1.72,4.07c-8,6.47-7.77,23.16-12.4,32.58-2.89,9.05-8.56,17.85-10.15,27,4.84.56,49.79-5.1,84.39-13.38,16.57-4,29.05-8.84,36.85-13.33,7-1.79,7.65-9.67,10.73-15.26,5.31-11.05,9.14-23.06,15.31-33.71ZM392.55,383.78c-17.17.12-34.12,6.24-39.65,23.08-6.6,15.47-1.22,37.42,16.79,41.69,17.27,5.92,39.9,5,51.63-10.84,4.07-6.13,11.59-11.54,11.83-19.31C433.27,390.5,416.3,385,392.55,383.78Zm-59.22-95.43.08.56c17.87,6.87,37.36,6.75,56,10.3,13.21,2.86,26.21,6.64,39.74,7.91,6.41,1.64,6.57-8.42,9.5-12.29,3.87-11.38,9.44-22.51,12.1-34.14-6.56,2.91-15.09,7.35-24.78,10.62-10.19,3.44-21.66,5.69-33.37,8.14s-32.5,5.05-35.16,5.37c-8.39,1.23-15.8,1.86-24.11,3.53ZM277.1,211.64c-2,3.9-1.16,8.6-2.62,12.81-.06,3.78,6.41,5.29,5.65,9.51a18.3,18.3,0,0,0,.43,4.57s27.78,2.77,36.8,4.88c2,.39,2.54,1.58,1.4,3.53-5.66,9.49-8.53,20.42-13.52,30.17a12.68,12.68,0,0,0-2.14,7.73c4.8-.4,15.39,2.41,18.27-1.69a451.819,451.819,0,0,0,19.3-54.82c-22.67-.17-44.6-3.08-63.57-16.69ZM245,236.86c-4.71-1-5.62-.74-7.12,2.41-3.38,7.1-6.62,14.26-9.91,21.39-.91,2,.2,2.59,1.9,2.81,18.73,3.8,37.61,5.87,56.61,7.37,5.1-.52,12.87,5.37,16.66,1.14,3.32-7.58,6.53-15.2,10.21-22.65,1.24-2.3,1-3.38-1.6-3.39q-16.56-2.35-33.28-3.51c-2.92,5.29-3.23,16.14-10,17.13-5.42-.51-10.12,3.5-15.64.47-19.67-5.5-8.57-7.54-7.83-23.17Zm194.51,69c3.17-.85,9.94-3.38,9.94-3.38s10.15-22.4,19.63-45.48c8.22-20,15.63-40.31,18.94-49.15-4.91-2.42-6.89-1.89-9.12,2.63s-19.13,34-17.11,42.34c1.14,3.1-4.2,3.49-4.25,6.53-5.69,15.88-12.54,30.51-18.06,46.53Zm-140.32-27.6c-21.39-5.4-43.47-4.57-64.84-9.72-2.1-.25-8.34-2.45-8.81.51.05,3.13-.87,6.31.58,9.58,20.26,1.84,40.62,4.75,61.23,5-.33-6.12,4-5.94,6.27-2.35,1.17,1,2.48,2,4,1.81,1.69-.21.61-2.05,1.22-3a6,6,0,0,0,.32-1.81ZM370.3,169c22.05,5.12,42.73,11,64.12,18,8.68,3,42.41,16.24,42.41,16.24s9.49-.38,12.74-1.41c-15.4-6.45-31.16-12-47-17.75-1.9-.83-7.67-2.89-7.67-2.89s-2.86,2.77-6,1.78-1.07-2.55-1.42-4.11c-6.17-1.64-50-13.76-50-13.76a81.451,81.451,0,0,0-7.18,3.9Zm-108.54,8.3c-4.83,2.3-9.2,7.55-8.72,12.14s2.41,8.09,9.85,8.54c3.51.21,15.68,4.37,18.24-6.84,1.7-7.51-7.13-19.75-19.37-13.88ZM249,237.44c-.69,4-4.4,13.37-.78,15.58,13.3,7.44,25.19,2.13,25.82-13.68-8.83,1.56-17.19,3.35-25.04-1.9Zm9-34.6c-.26,10.12,3.32,19.15,5.82,28.35,3.11,0,5.46-.83,6-3.84,1.21-7.89,2.76-15.27,3-23.37-5.11.54-9.9-.6-14.88-1.14Zm184.71-51.58c-.31,3.67.55,6.24,3.19,7.21s5.94,0,8-.48c6.27-4.85-6.71-10.47-11.25-6.73ZM258.43,230c-1.88,1.15-3.81,1.41-4.91,3-.43,5.53,25.53,3.57,20.11-1.14-3.63,3.89-15.55,6.05-15.2-1.86ZM137.72,416.07c2.23.59,3.07-1.2,3.34-3.18C139.88,406.4,129.55,416.7,137.72,416.07Z" transform="translate(-109.593 -145.005)"/>
  <path id="Path_331" data-name="Path 331" d="M783.05,238.19c-2.12,0-3.66-.87-3.86-3.81-.84-15.46-14.57-24.51-27.12-31-20.29-7.82-42.22-.63-61.11,7.8-6.12,2.23-11.66,7.46-17.82,8.68-4.62-1.54,1.89-6.37,4.23-6.54,25.39-12.68,57.56-27,84.53-10.75,6.56,4.7,14.33,8,18.55,15.43,3.18,4.46,2.95,10.09,5.55,14.78,1.67,2.05.31,6.02-2.95,5.41Z" transform="translate(-109.593 -145.005)"/>
  <path id="Path_332" data-name="Path 332" d="M765.86,244.61c-2.89-.16-6.14.95-7-2.32-7.78-32.8-50.11-27.76-72.67-13.68-3.59,2.61-5.77-1.83-1.73-3.58,18.17-10.64,45.64-18.75,64.59-6.44,5.85,2.91,10.7,7.06,12.94,13.25,2.09,4.16,4.72,7.99,3.87,12.77Z" transform="translate(-109.593 -145.005)"/>
  <path id="Path_333" data-name="Path 333" d="M723.43,230c-5.34.33-10.6,1-15.44,3.57-2.92,2.43-4.67-2.05-1.7-3.56,9.39-4.84,23.21-8.28,31.67-.25,2.62,3.19,9.16,10.55,2.84,13-5.89,1.92-4.4-13.63-17.37-12.76Z" transform="translate(-109.593 -145.005)"/>
  <path id="Path_334" data-name="Path 334" d="M264.89,353.84c-3.1,1.14-4.61-2.76-2.06-4.38C266.29,347.09,265.74,351.86,264.89,353.84Z" transform="translate(-109.593 -145.005)"/>
  <path id="Path_335" data-name="Path 335" d="M368.44,240.82c-1.89-.22-3.92-1.61-3.33-3.28,1.36-3.31,1.62-11.14,6.43-10.86,2.37,2.26-1.52,5.36-.94,8.36,14.71,3.54,30.11,2.23,44.83,5.88,7.82,1.81.34-10.09,8.42-8.12,2.09,3.36-.71,7.12-.41,10.79-.34,3.13-1.91,3.82-4.84,2.8C414.71,244.52,381.28,242.31,368.44,240.82Z" transform="translate(-109.593 -145.005)"/>
  <path id="Path_336" data-name="Path 336" d="M419,213.1c-.49-3.28,4.95-5,5-1.37C424.3,214.92,419.44,217.15,419,213.1Z" transform="translate(-109.593 -145.005)"/>
  <path id="Path_337" data-name="Path 337" d="M386.4,203.4c-.11,1.81-.89,3.23-2.73,3.34C377.88,205.79,385.72,196.91,386.4,203.4Z" transform="translate(-109.593 -145.005)"/>
  <path id="Path_338" data-name="Path 338" d="M362.75,418.18c.34-7.83,6.64-19.37,14.6-21.52,14-7.5,33-3,39.24,12.61C423.34,440.93,363.05,454.8,362.75,418.18Zm49.45-3.1c-3-29.61-55.75-18.13-42.85,10.51,4.51,6.7,12.21,10.78,20.19,9.16C399.45,431.58,411.91,428,412.2,415.08Z" transform="translate(-109.593 -145.005)"/>
  <path id="Path_339" data-name="Path 339" d="M296.79,256c7.29,8.79-4.71,17.91-12.11,10-6-7.27,2.07-9.15,8-10.55-5.21-7.92,8.19-10.42,12.07-5.6,1.99,4.42-3.82,7.15-7.96,6.15Zm-6.86,4.15c-6.49.51,3.06,6.16,4.07,3.31,1.15-2.33-2.78-2.53-4.07-3.3Zm11.88-8.61c0-2-6.61-1.37-6.9.23s6.21,1.36,6.9-.22Z" transform="translate(-109.593 -145.005)"/>
</svg>
