<svg xmlns="http://www.w3.org/2000/svg" width="446.965" height="560.061" viewBox="0 0 446.965 560.061">
  <g id="vote-2831241" transform="translate(-82.314 -111.59)">
    <path id="XMLID_2_" d="M205.5,428.6c-9.3,8.4-18.6,16.8-28.2,25-6.5,5.6-13.1,11.1-20.5,15.4-11.7,6.9-25,10.8-36.9,17.5a89.285,89.285,0,0,0-22.1,17.6c5.8,54.5.4,111.1-14.1,163.9,26.1-11,52.3-21.9,78.4-32.9a14.715,14.715,0,0,0,5.5-3.3,13.644,13.644,0,0,0,2.8-5.8c8.6-30.2,12.7-63.4,16.2-94.6,3.9-35.2,9.5-66.9,19.2-101" transform="translate(321.433)" fill="none" stroke="#000" stroke-miterlimit="10" stroke-width="4.252"/>
    <path id="XMLID_3_" d="M225.2,428.3c-31.3-6.2-62.2-13.9-93.2-21.6-11.5-2.9-23-5.7-34.5-8.6-3.9-1-7.8-1.9-11.8-2.9" transform="translate(300.033)" fill="none" stroke="#000" stroke-miterlimit="10" stroke-width="4.252"/>
    <path id="XMLID_4_" d="M473.735,504.9c-24.3-6.3-48.5-12.6-72.2-20.8-9.3-3.2-18.4-6.7-27.8-9.3-10.2-2.9-20.6-4.9-31-6.9-50.8-9.7-102.4-19.9-148-44.2-.9-.5-1.8-1-2.1-2a3.579,3.579,0,0,1,1.2-2.8c3.7-4,9-6.3,14-8.5q47.7-20.55,95.3-41.1c2.4-1,4.8-2.1,7.4-2,2.7.1,5.2,1.4,7.6,2.6a127.928,127.928,0,0,0,35.1,11.5" transform="translate(-44.135)" fill="none" stroke="#000" stroke-miterlimit="10" stroke-width="4.252"/>
    <path id="XMLID_5_" d="M347.039,446.3a206.6,206.6,0,0,0-49.8-15.3c-7.3-1.3-14.7-2.1-21.9-4-12.6-3.3-24.2-9.5-36.7-13.1-16.3-4.8-33.9-5.2-49.1-12.6-.7-.3-1-1.3-1.8-1.5s-.3,1.5-.1.8" transform="translate(80.55)" fill="none" stroke="#000" stroke-miterlimit="10" stroke-width="4.252"/>
    <path id="XMLID_6_" d="M324.693,635.1c2.2-7,4.3-14,6.5-21.1,3.8-12.4,7.7-25.1,7.5-38.1a238.5,238.5,0,0,1-79.4-17.7c2.8,14.5-7.3,27.9-11.6,42.1-2.7,8.8-3.7,19.3-11.2,24.7" transform="translate(40.623)" fill="none" stroke="#000" stroke-miterlimit="10" stroke-width="4.252"/>
    <path id="XMLID_7_" d="M353.7,567.8c-12.5-14-17.9-32.9-28.3-48.5a6.92,6.92,0,0,0-2-2.2c-2.1-1.3-4.8-.2-7,.9a132.791,132.791,0,0,1-50.6,12.9c12.3,18.1,17,40.2,21.3,61.6" transform="translate(-2.975)" fill="none" stroke="#000" stroke-miterlimit="10" stroke-width="4.252"/>
    <path id="XMLID_8_" d="M428.4,523.8c-10.2-14.3-20.5-28.6-30.7-43a4.036,4.036,0,0,0-1.3-1.3,3.63,3.63,0,0,0-2.3-.1c-19.1,3.3-38.2,6.7-57.3,10,3.6,3.9,7.2,7.9,10.8,11.8a245.85,245.85,0,0,1,16.2,19,125.162,125.162,0,0,1,20.4,42.2" transform="translate(-146.415)" fill="none" stroke="#000" stroke-miterlimit="10" stroke-width="4.252"/>
    <path id="XMLID_9_" d="M403.8,558.3c-8.6,5.5-18.7,8.3-28.6,11-13,3.5-26,7.1-39,10.6a169.639,169.639,0,0,0,33.7,48.5,274.753,274.753,0,0,1,58.5-24.3h-2.6" transform="translate(-145.821)" fill="none" stroke="#000" stroke-miterlimit="10" stroke-width="4.252"/>
    <path id="XMLID_10_" d="M476.8,668a1529.012,1529.012,0,0,1-216.7-21.2c-1.7-.3-3.6-.6-4.8-1.8a8.626,8.626,0,0,1-2.2-4.6q-27.9-108.75-46.7-219.6" transform="translate(-61)" fill="none" stroke="#000" stroke-miterlimit="10" stroke-width="4.252"/>
    <path id="XMLID_11_" d="M297,433.5a227.632,227.632,0,0,0-14.5-58.6c-5.4-13.6-12.1-26.9-15.2-41.2-1.6-7.1-2.3-14.7-6-21a13.724,13.724,0,0,0-5-5.4c-3.3-1.8-7.2-1.5-11-1.1-7.9.8-15.7,1.6-23.6,2.4" transform="translate(96.33)" fill="none" stroke="#000" stroke-miterlimit="10" stroke-width="4.252"/>
    <path id="XMLID_19_" d="M305.9,344.4c8.2,19.8,17.8,45.3,24.6,65.7" transform="translate(-19.647)" fill="none" stroke="#000" stroke-miterlimit="10" stroke-width="4.252"/>
    <path id="XMLID_17_" d="M339.6,314.9a25.016,25.016,0,0,0-3.8,1.5c1.7,3.6,5.3,11.7,6.9,15.4" transform="translate(-61.225)" fill="none" stroke="#000" stroke-miterlimit="10" stroke-width="4.252"/>
    <path id="XMLID_16_" d="M323.8,311.5c-3.4.3-1.7-.5-5,0" transform="translate(-25.778)" fill="none" stroke="#000" stroke-miterlimit="10" stroke-width="4.252"/>
    <path id="XMLID_12_" d="M217.2,417.7c4.2,13.4,9,26.5,14.4,39.4.8,1.8,1.7,3.8,3.5,4.7a8,8,0,0,0,4.6.3c21.5-2.8,42.8-6.2,64.1-10.1a21.206,21.206,0,0,1-5.1-13.8,23.362,23.362,0,0,1-.4,2.6" transform="translate(94.018)" fill="none" stroke="#000" stroke-miterlimit="10" stroke-width="4.252"/>
    <path id="XMLID_14_" d="M301.378,113.5q41.1,20.1,81.1,42c8.3,4.5,16.6,9.2,24.5,14.4,7.1,4.8,13.9,10,20.7,15.3,20.5,16,41.2,32.2,58.1,52.1,17.6,20.8,30.6,45,43.4,69.1,3.7,6.9,7.4,14,8.8,21.7s.1,16.4-5.3,22.1a3.316,3.316,0,0,1-1.6,1.1c-2.1.6-3.5-2-4.2-4a120.965,120.965,0,0,0-29-46.9c3.6,8.2,7.3,16.7,7.1,25.7s-5.5,18.5-14.3,20.5a92.761,92.761,0,0,0-7.3-42.6c-.6,9.6-1.3,19.3-1.9,28.9-.2,3.4-.5,7-2.2,10s-5.3,5.2-8.6,4.2a72,72,0,0,0-5.4-42.2c-.6,6.3-1.1,12.5-1.7,18.8-.7,7.3-1.5,15.1-6.3,20.6-3.5,4-9.4,6.4-14.3,4.3s-7.1-9.4-3.3-13.1c2.8-2.7,7.6-2.7,10.1-5.7,2.1-2.5,1.8-6.2.3-9.1-1.5-2.8-4-5-6.3-7.2a118.5,118.5,0,0,1-34.1-58.9c-.9-3.7-1.6-7.4-3.4-10.7-2.3-4.1-6.1-7.1-10.1-9.6-10-6.4-21.2-10.5-32.1-15.2a300.069,300.069,0,0,1-76.4-47.8" transform="translate(-203.978)" fill="none" stroke="#000" stroke-miterlimit="10" stroke-width="4.252"/>
    <path id="XMLID_15_" d="M529,147.2c-17.7,29.4-48.7,50.5-82.6,56" transform="translate(-353.2)" fill="none" stroke="#000" stroke-miterlimit="10" stroke-width="4.252"/>
  </g>
</svg>
