<svg id="workwithus" xmlns="http://www.w3.org/2000/svg" width="603.659" height="286.141" viewBox="0 0 603.659 286.141">
  <path id="Path_737" data-name="Path 737" d="M258,277l13.5,7.1V277l239-10.3,3.8,15.9,8.3-11.5s101.2-14.7,110-10.8,33.5,22.8,41.1,37.3,9.4,43.9,9.4,43.9l22.5,22.3s26,23.5,6.9,26.7c-19.2,3.2-29-4.2-30.5-12.4S665.6,340,665.6,340l1.5-37.3-10.5-14.9s-42.6,3.6-56.4,4c-13.8.5-138.5-1.3-173.5,0-35.1,1.3-124.4,3.3-151.4,5.1s-83,8.7-90.1,23.9-13.4,37.5-13.4,37.5,13.6,13.6,15.7,23.5-16.7,10.2-18.9,9.9-36.2-18.6-42.1-26.9c-6-8.3,9.3-41,14.3-59.1,5.1-18.1,29.1-26.8,49.3-27.1,20.1-.4,66.4-2,66.4-2" transform="translate(-120.344 -149.023)" fill="#a1dba3"/>
  <g id="Group_37" data-name="Group 37" transform="translate(-120.344 -149.023)">
    <path id="Path_738" data-name="Path 738" d="M268,278.7c-.3-1-.3-1.8-.7-2.1a7.565,7.565,0,0,0-2.6-1.1c-.4-.1-1,.5-1.5.8l1.8,1.5a6.191,6.191,0,0,0,1.7,1.1c.4.2.9-.1,1.3-.2Zm-111.5-.5c1.2-.4,2.1-.8,3-1.1-.6-.6-1.3-1.2-1.9-1.8a5.6,5.6,0,0,0-1.5-1c-.2-.1-.8,0-.8.1a8.156,8.156,0,0,0,0,2.7c.1.4.8.7,1.2,1.1Zm359.8-3h.2c0,.4-.2.8-.1,1.2s.3.9.4,1.3a8.707,8.707,0,0,0,.9-1.1c.5-1.1.9-2.2,1.3-3.3.3-.7.6-1.5-.6-1.7-.9-.1-1.7-.3-1.7,1-.2,1-.3,1.8-.4,2.6Zm3.4-6.7c.2-.1.9-.5,1-.9.2-1.1.7-2.7.1-3.4-1.2-1.7-.7-2.4.9-3.1a3.09,3.09,0,0,0,1.5-1.2c1.3-3.3,2.5-6.7,3.6-10.1.2-.5-.3-1.9-.6-1.9a3.9,3.9,0,0,0-2.7.5,8.193,8.193,0,0,0-1.8,3.3c-1.5,4.6-3,9.3-4.5,14C516.7,267.7,517.3,268.6,519.7,268.5ZM174.5,363.2c-.4.4-.9.6-.9.9a96.968,96.968,0,0,0-2.3,10.7c-.1.8,1.7,1.8,2.7,2.6.1.1,1-1,1.5-1.6,1-1.3,1.9-2.8,3-4a14.52,14.52,0,0,1,2.9-1.9c-.7-1-1.5-2-2.2-3-.1-.1-.2-.3-.3-.4-1.4-1.1-2.9-2.2-4.4-3.3Zm89.6-91.7c-.1-.3-.2-.5-.3-.8-2.9-4.8-5.8-9.6-8.7-14.3-.3-.4-.6-1.1-1-1.1a6.548,6.548,0,0,0-2.8.3c-.5.2-1.1,1.2-1,1.5a5.174,5.174,0,0,0,1.7,1.6c.6.4,1.7.5,2,1,.4.6.5,2.1.2,2.3-1.7.9-1,1.9-.3,2.9,1.7,2.4,3.3,4.8,5.1,7.2.4.5,1,1.3,1.4,1.3a16.914,16.914,0,0,0,3.6-1.2C264.1,272.1,264.1,271.7,264.1,271.5Zm-33.5-18.9c.1,2.4.2,4.2.3,5.9,0,1.1.4,1.7,1.6,1.8,4.2.1,8.3.3,12.5.5.3,0,.7-.1,1-.1a6.034,6.034,0,0,0-.8-.8c-3.3-2.9-6.7-5.7-10-8.7a41.773,41.773,0,0,1-4-4.4C231,249,230.8,251.1,230.6,252.6Zm325.6-7.4c-.2-2.3-.4-4.6-.8-6.8-.2-1.1-.8-1.3-1.7-.3-2.8,2.9-5.6,5.7-8.5,8.6-1.5,1.5-3,3-4.4,4.6a2.947,2.947,0,0,0-.5,1.3c.4,0,.8.1,1.2.1,4-.3,8-.7,12-.8,2.1,0,2.7-.8,2.5-2.8,0-1.3.2-3.9.2-3.9Zm-188.1,1.9v7.5c0,1.4.8,1.9,2,1.6,1.9-.4,4.1,1.2,5.5-1.2.1-.2,0-.5,0-.8-.5-4.7-.6-9.5-2.2-14.1-1.8-5.2-3.4-10.4-5.1-15.5a22.875,22.875,0,0,0-1-2.3c-.2.9-.3,1.8-.5,2.6v.3c.5,6.9.9,13.9,1.3,21.9ZM179,393.5c2.6,0,4.5-.7,5.9-2.4,3.3-3.7,3.5-11.4.5-15.3a2.805,2.805,0,0,0-4.6-.1c-2.1,2.4-2.1,4.3-.2,6.9.4.5,1,1.1,1,1.7a3.488,3.488,0,0,1-.6,2.5,2.641,2.641,0,0,1-2.3,0,16.826,16.826,0,0,1-2.9-2.4c-1.2-1.2-2.3-2.5-3.5-3.7a2.541,2.541,0,0,0-1.3-.5c-.1.4-.4.8-.3,1.2a43.651,43.651,0,0,0,1.1,6.3c.9,2.7,4.9,5.8,7.2,5.8Zm56.1-54.8a22.155,22.155,0,0,0-3-3.1c-3.1-2.1-6.3-4.1-9.4-6.1-1.9-1.2-3.7-2.6-5.7-3.8-3.4-2-7-3.9-10.4-6-2.1-1.3-4-2.9-6-4.3-.5-.3-1.4-.6-1.8-.3-1.7.9-3.4,2-5.1,3-1.3.8-1,1.6.1,2.3l3.9,2.4a63.418,63.418,0,0,0,7.3,4.6c4.5,2.2,9.2,4,13.8,6.1,1.8.8,3.4,1.9,5.1,2.8,2.8,1.5,5.7,3,8.5,4.4,1.7.8,2.4-.1,2.7-2Zm448,2.8c-.1,2.3-.2,11.5,2.2,13a8.168,8.168,0,0,1,1.9,2.2,1.381,1.381,0,0,1,.3.4c2.7,3.5,5.3,7.1,8,10.6,1.5,2,1.9,2.2,3.3.1,1.7-2.5,4-3.5,6.8-4,1.4-.2,1.6-.7.6-1.7-2.5-2.7-5-5.4-7.6-8-4.4-4.5-8.8-8.9-13.2-13.4ZM558.9,168c.6,0,1.4.3,1.8.1a29.711,29.711,0,0,0,3.4-2.8c-.7-.4-1.3-1.1-2.1-1.2-7.8-1.2-15.7-2.4-23.5-3.6-4.1-.6-8.2-1.6-12.4-2.1-8.4-1-16.9-1.8-25.4-2.6-4.9-.5-9.9-.8-14.8-1.2-1.4-.1-2.9-.1-4.3-.3-3.1-.4-6.2-1.1-9.3-1.4-2-.2-4.1-.2-6.1-.2-2.8,0-5.7.2-8.5.3a1.489,1.489,0,0,0-.9.4,3.45,3.45,0,0,0-.8.9c.3.2.6.6,1,.6,4.4.8,8.7,1.6,13.1,2.2,5.4.8,10.8,1.4,16.3,2,5.1.6,10.2,1.3,15.2,1.6,6.4.4,12.8,0,19.1.8,7.9,1,15.7,2.9,23.6,4.4C549.2,166.8,558.9,168.1,558.9,168Zm69.9,87.8c.1,0,.4-.7.3-.8a7.4,7.4,0,0,0-6.4-3.2c-8,.1-16.1.4-24.1.8-4.9.3-9.7.9-14.6,1.4-7.6.7-15.1,1.5-22.7,2.1-8.3.7-16.7,1.1-25,1.7a6.529,6.529,0,0,0-2.4.6c-2.2,1.3-4.3,2.7-6.5,4.1-.3.2-.4.5-.6.7.3.1.6.3.9.2,2.9-.3,5.7-.6,8.6-.9,5-.5,10-1.4,15-1.3a109.289,109.289,0,0,0,18.1-1c1.6-.2,3.2-.6,4.8-.7,6.2-.4,12.4-.5,18.6-1,9.5-.8,33.6-2.4,36-2.7ZM222.2,210.3H222v7.9c0,3.1-.1,6.2-.1,9.4,0,6,0,11.9.1,17.9,0,2.6.2,5.1.4,7.7a45.339,45.339,0,0,0,.5,5.3,2.517,2.517,0,0,0,2.9,2c1.4-.1,1.7-.9,1.7-2.1.2-5.9.3-11.8.4-17.7a6.529,6.529,0,0,0-.6-2.4c-2.2-5.3-2.8-10.9-3.5-16.5-.1-1.1-.1-2.4,1.4-2.5s1.7,1.2,1.8,2.3c.3,2.4.6,4.7.9,7.1a5.388,5.388,0,0,0,.3,1,2.353,2.353,0,0,0,.2-.8c.3-7.9.7-15.8,1-23.8.1-4.6.2-9.2.1-13.8-.1-5.7-.2-11.4-.5-17.1a2.851,2.851,0,0,0-1.3-2.2,18.669,18.669,0,0,0-3.5-1.6c-1.4-.7-1.9-.1-1.9,1.2,0,2.9,0,5.8.1,8.7.1,3.2.5,6.5.4,9.7,0,6.6-.4,13.4-.6,20.3Zm212.7,44.9c2.4-.3,5.9.7,9.3-.8,1.5-.7,2.2-1.1,2.3-2.6,0-1,.1-2,.1-3.1-.1-8.2-.4-16.4-.4-24.6.1-5.3.7-10.6,1-15.8a4.707,4.707,0,0,0-.4-1.6c-.4.4-1,.6-1.2,1.1-3.6,7-7.5,13.8-10.8,21-3.6,7.9-6.5,16-9.7,24-.8,2-.4,2.4,1.8,2.5,2.4-.1,4.7-.1,8-.1ZM679,338.5c-.1,0,.2-8.6-.4-12.8a160.192,160.192,0,0,0-3.9-19.5c-1.5-5.6-4.2-10.8-10.2-13.1a9,9,0,0,0-1.6-.3,4.191,4.191,0,0,0,.4,1.6c1.6,2.6,3.2,5.2,4.8,7.9a4.1,4.1,0,0,1,.6,2.4q-.75,9.15-1.8,18.3c-.5,4.2-1.1,8.3-1.6,12.5a6.1,6.1,0,0,0,.4,3c3.7,7,7.5,14,11.3,20.9.3.6,1.9.2,2.1-.6V339.1a2.8,2.8,0,0,1-.1-.6ZM296.6,156.7c-6.4.3-12.8.9-19.1,1.4V158a7.568,7.568,0,0,0-1.5.1c-4.9.6-9.8,1-14.7,1.7-4,.6-7.9,1.5-11.8,2.1-5.1.9-10.3,1.6-15.4,2.5-2.3.4-4.5.8-6.8,1.3-.2,0-.4.5-.5.7a1.854,1.854,0,0,0,.7.2c1.5-.1,3-.4,4.5-.5,4.1-.3,8.2-.5,12.3-.8,6.1-.4,12.3-.7,18.4-1.2s12.2-1.2,18.3-1.8a78.872,78.872,0,0,1,8.4-.5c4.7,0,9.4.3,14.1.3,4.3,0,8.7-.5,13-.4,5.2.1,10.3.1,15.5-.3,6.9-.6,14-.2,21-.2,1.9,0,3.8-.2,5.8-.4a5.02,5.02,0,0,0,1.2-.2,4.221,4.221,0,0,0-.3-1.2c-1.7-2.7-4-4.7-7.4-4.7-3,0-5.9.4-8.9.6-2.5.2-5.1.5-7.6.6-4.9.2-9.7.2-14.6.3h-6.6M684.1,373.5c.9,5.5,2.2,10.8,7,14.5a12.711,12.711,0,0,0,6.6,2.9,48.536,48.536,0,0,1,5.5.8c4.1.9,7.9-.5,11.2-2.4,3.2-1.8,4.2-5.3,4.1-9.1-.1-3-1.5-5.5-2.8-8.1-2.5-5-10.2-5.3-13-2.4-1.7,1.8-2.3,3.9-3.4,5.9-1.2,2.3-1.8,2.4-3.2.2a10.923,10.923,0,0,0-.6-1.1c-2-2.9-4-5.9-6.1-8.8a43.058,43.058,0,0,0-3.9-4.6c-.5-.6-2.7.4-2.7,1.3,0,1.2.8,8.5,1.3,10.9ZM254.1,272c.1-2.4-4.8-7.5-7.3-7.5-2.3,0-4.6.2-6.9,0-9.2-.9-18.3.2-27.4.8-10.7.8-21.4,1.9-32.1,2.9-6.3.6-12.5,1.1-18.8,1.6a28.25,28.25,0,0,0-2.9.2c.5.5,1.6,1.5,2.2,2,3.9,2.9,7.9,5,13.1,3,2.3-.9,5.3-.7,7.8-.3,5.9,1,36.3-.3,40.5-.6s7.7-.6,12.6-.9l19.2-1.2Zm309-20.8a13.333,13.333,0,0,1,2,0c2,.2,2.8-.6,2.8-2.6,0-1.6.3-3.2.4-4.9.3-10.3.5-20.7.7-31,.2-8.1.4-16.2.4-24.3,0-6.6-.2-13.1-.4-19.7-.1-2-.6-2.3-2.2-1-2.5,1.9-4.7,4.1-7,6.2-.4.3-.4,1.1-.5,1.7-.2,4.3-.3,8.5-.5,12.8l-.3,8.7c-.1,3,0,6-.1,8.9-.1,4.8-.3,9.7-.4,14.5a3.446,3.446,0,0,0,.5,1.1c.1-.3.3-.6.4-.9.4-2.3.9-4.5,1.3-6.8.2-1.2.5-2.1,1.9-1.8a1.849,1.849,0,0,1,1.7,2.4c-1.5,5.1-3.1,10.1-4.7,15.1a8.756,8.756,0,0,0-.7,3.2c.3,4.8.8,9.7,1,14.5,0,4.1-.1,4.1,3.7,3.9ZM303.7,262.4l-36.4.6c-3,.1-3.3.5-1.9,3.1.3.5.4,1.1.7,1.7,1.9,3.8,3.5,4.5,7.6,3.5,1-.2,11.1-.1,15-.4,6.2-.5,32.1-2.4,38.9-2.7,6.1-.3,12.3-.6,18.4-.9,2.9-.1,23.2-1.1,30.4-1.2,9.7-.2,19.4-.1,29.1-.2l20.9-.3c12.6-.1,25.1-.3,37.7-.4,5.2-.1,10.4-.1,15.6-.3,10.2-.4,20.5-.9,30.7-1.5a9.892,9.892,0,0,0,3.5-.5c.8-.4,1.2-1.7,1.6-2.6.1-.1-.9-1-1.4-1-3.8,0-7.7.2-11.5.3-1,0-2,.2-3.1.2-6.2-.1-12.5-.2-18.7-.2-5.5,0-11.1.5-16.6.4-4.9,0-9.7-.6-14.6-.7-5.4-.1-10.7.2-16.1.3h-7.9c-3.6.1-7.1.5-10.7.5-6.6,0-13.1-.3-19.7-.4-6.3-.1-12.7-.1-19-.2-4.6,0-9.3-.3-13.9-.1s-9.2.8-13.8,1c-14.9,1.2-44.8,2.3-44.8,2ZM560,316.2c-12.7.6-25.4,1.6-38.1,2.5-7.6.5-15.1,1.2-22.7,1.9-7.1.6-14.3,1.2-21.5,1.8-5.4.4-10.9.7-16.4,1.1-6.4.5-12.8,1-19.1,1.5-8.7.6-17.4,1.3-26.1,1.9-6.4.4-12.8.7-19.2,1.1-4.6.3-9.2.8-13.8.9-7.8.3-15.5.3-23.3.6-11.4.4-22.7.9-34.1,1.4-11.7.5-23.5.9-35.2,1.4-7.3.3-14.7.9-22,1.4l-27.3,2.1c-1.6.1-2.4,1.9-2.1,4.8.2,1.8,1,2.1,2.6,1.6a12.048,12.048,0,0,1,3.3-.1,48.659,48.659,0,0,0,5.4-.1c4.8-.4,9.5-.8,14.3-1.2,1.7-.2,10.9-.6,12.8-.5,1.4,0,2.9-.3,4.3-.4,6.9-.4,13.8-.7,20.7-1.2,10.1-.7,20.3-1.5,30.4-2.1,7.4-.4,14.8-.6,22.2-.9,2.7-.1,5.5-.4,8.2-.6,6.4-.4,12.8-.7,19.2-1.2,10.5-.7,21-1.5,31.4-2.4,4.3-.3,8.5-1.1,12.7-1.3,5.4-.3,10.7.1,16.1-.2,11.7-.5,23.4-1.3,35.1-1.9,7.5-.3,15.1-.3,22.6-.5,13.5-.5,47.3-1.8,50.7-2,4.7-.3,9.4-.4,14.1-.7,13.1-.8,26.1-1.6,39.2-2.4,6.4-.4,12.8-.7,19.2-1.3,6.5-.7,13-1.8,19.5-2.8,5.6-.8,11.2-1.6,16.7-2.5.9-.1,2.2-.5,2.4-1.1a24.3,24.3,0,0,0,1-6c0-.4-1.2-1.3-1.7-1.3-3.8.4-7.6,1.1-11.4,1.5-7.4.8-14.8,1.6-22.2,2.3-9.4.9-18.9,1.7-28.3,2.6-3.4.3-6.8,1.2-10.2,1.3ZM450.7,208.7c-.5,8.1-1,16.2-1.3,24.3-.3,6.7-.3,13.5-.3,20.2a2.467,2.467,0,0,0,1.2,1.8,5.242,5.242,0,0,0,2.5.3c6.1.2,12.1.5,18.2.5,13,.1,26,0,39,0,1.9,0,3.8-.1,5.6-.1a2.66,2.66,0,0,0,2.9-2.2c.7-2.4,1.5-4.7,2.1-7.1a1.983,1.983,0,0,1,2.1-1.8,41.467,41.467,0,0,1,6.1.2c2,.2,2.4,1,1.9,3-.4,1.7-.8,3.5-1.3,5.2-.4,1.5.4,1.7,1.6,1.7,2.4.1,3.6-1.8,5-3.2,3-3.1,5.8-6.3,8.7-9.4,2.8-2.9,5.7-5.7,8.4-8.6a7.841,7.841,0,0,0,1.7-6.5,28.827,28.827,0,0,1-.3-5.9c.3-14.5.7-29,1.1-43.5a18.6,18.6,0,0,0-.1-4.1,3.4,3.4,0,0,0-1.9-2c-2.2-.6-4.5-.9-6.7-1.4-5.7-1.2-11.3-2.4-17-3.7-1.6-.3-3.1-.9-4.7-1.1-3.8-.4-7.6-.8-11.4-1-3.6-.2-7.2-.1-10.7-.3a93.913,93.913,0,0,1-11.9-.6c-5.9-.8-11.7-2.3-17.6-3.2-6.3-.9-12.7-1.2-19.1-1.9-1.8-.2-2.4.5-2.4,2,0,1.3.2,2.6.1,3.8-.2,4.3-.7,8.5-.8,12.8-.1,8.6-.6,29.6-.7,31.8ZM587.8,311.5c5.1-.4,10.2-1.2,15.3-1.6,7-.6,14-.8,21-1.4,6.5-.5,12.9-1.2,19.4-1.9,5.8-.7,11.5-1.5,17.2-2.4,2.5-.4,2.6-.8,1.4-3-2.2-3.7-4.4-7.3-6.7-10.8a3.228,3.228,0,0,0-2-1.4c-9.4-2.3-18.8-1.9-28.2-.8-6.6.8-13.1,2-19.7,3a97,97,0,0,1-10.7,1.1c-8.3.2-16.7.1-25,.1-5.2,0-10.4.2-15.6.3-7.5.2-15,.4-22.5.5-7.9.1-15.9,0-23.8.2-6.8.2-13.6.8-20.5,1.1-6.4.3-12.8.2-19.2.5-4.9.2-9.9.7-14.8,1q-4.5.3-9,.3c-4.5,0-9-.2-13.5,0-6.2.2-12.4.9-18.7.9-13.5,0-27-.3-40.5-.5-.3,0-.5.1-.8.1-6.6.1-13.2.2-19.7.2-4.3,0-8.5-.2-12.8,0-9.2.3-18.4.7-27.6,1.1-2.9.1-5.8,0-8.7.2-6,.5-12.1,1.2-18.1,1.7-5.4.4-10.9.6-16.3,1-6,.4-11.9,1.4-17.9,1.5a131.734,131.734,0,0,0-23.4,2.4,128.855,128.855,0,0,0-20,6.3c-1.3.5-1.5,1.1-.5,2,2.6,2.1,5,4.5,7.8,6.2,6,3.4,12.3,6.2,17.7,10.6a6.507,6.507,0,0,0,3.7,1.6c4.6.2,9.2.2,13.7,0,5.1-.2,10.2-.8,15.2-1.2,11.7-.8,23.3-1.6,35-2.3,5.7-.3,11.4-.3,17.2-.5,6.2-.2,12.4-.7,18.7-.9,6.4-.2,12.8-.3,19.2-.5,10.2-.3,20.5-.7,30.7-1,9.1-.3,18.3-.6,27.4-1.2,11.9-.8,23.8-2,35.7-2.9,7.1-.6,14.3-.9,21.5-1.5,13.4-1.1,26.9-2.4,40.3-3.6q13.65-1.2,27.3-2.1c11.3-.6,45.1-1.9,50.8-2.4ZM230.9,234.4c.2,1.8,0,3.7.7,5.3A38.578,38.578,0,0,0,243.7,255a2.542,2.542,0,0,0,1.9.1c1.6-2.6,4.5-3.3,6.9-4.7,2-1.2,3.2-.6,4.2,1.5a44.174,44.174,0,0,0,3.2,6.1,3.369,3.369,0,0,0,2.3,1.3c1.6.1,3.2-.2,4.8-.2,7.3,0,14.7.2,22,.1,11-.1,22.1-.5,33.1-.7,6.6-.1,13.3-.1,19.9-.3q4.2-.15,8.4-.6c4.1-.4,8.2-.9,12.2-1.3,1.4-.1,2-.7,1.9-2.1-.1-2-.2-3.9-.2-5.9-.3-7.7-.6-15.4-.7-23.1-.1-4.5.2-8.9.3-13.4,0-1.5-.4-3.1-.4-4.6-.2-7.7-.3-15.5-.7-23.2-.2-5.1-.9-10.2-1.3-15.3-.2-2.5.5-4-4.1-4.1s-12.7.5-19.1.4c-6.9-.1-30.2.5-35,.5-4.9,0-23.6.6-28.1.9-7.7.5-15.3,1-23,1.5-2.7.2-5.4.7-8.1.9-2.9.3-5.8.3-8.6.7-2.9.5-3.4,1.2-3.4,4.2,0,8.3.1,16.6,0,24.8-.1,12.1-1,35.9-1.2,35.9Zm210.6,58h3.6c10.7-.5,21.3-.9,32-1.4,7.8-.4,15.5-.9,23.3-1.1s15.5-.2,23.3-.3c13.4-.3,26.8-.6,40.2-.8,5-.1,9.9.3,14.9.3,5.5,0,10.9-.2,16.4-.5,6.1-.4,12.3-.8,18.4-1.6,4.1-.5,8.1-2.1,12.2-2.6a75.4,75.4,0,0,1,14.2-1c6.1.3,12.2,1.3,18.3,2.1a27.22,27.22,0,0,1,5.5,1.8,4.873,4.873,0,0,0,.7.3,2.483,2.483,0,0,0-.1-.9,79.3,79.3,0,0,0-5.9-7.1c-4.3-4.2-8.7-8.4-13.2-12.4-5.1-4.4-11-7.4-17.9-7.4-7.8.1-15.5.5-23.3.9-3.1.1-6.3.4-9.4.8-3.3.4-6.6,1.3-9.9,1.6-8.2.7-16.3,1.4-24.5,1.9-3.7.2-7.3,0-11,.1-3.5.1-6.9,0-10.4.3-3.4.3-6.7,1-10.1,1.4-2.9.4-5.3,1.1-6,4.4-.4,1.7-1.1,3.2-1.6,4.9a16.8,16.8,0,0,1-5,7.3c-1.1,1.1-1.6.6-1.7-.7a35.7,35.7,0,0,1-.4-4.6c0-2.6.1-5.1.1-7.7-.1-3.2-.3-3.4-3.5-3.7-1-.1-2-.1-3.1-.1-6.1.3-12.1.9-18.2,1.1-9.6.3-19.1.4-28.7.6-12,.2-23.9.3-35.9.4-14.3.2-28.6.2-42.8.5-12.6.3-25.1.8-37.7,1.3-11.1.5-22.2,1.1-33.3,1.9-11.8.8-23.7,1.7-35.5,2.6-4.4.3-4.4.3-3.4,4.7.1.5.1,4-.5,4.4a4.2,4.2,0,0,1-3.3,0c-1.4-.6-8.3-5.1-10.2-7.1a4.571,4.571,0,0,0-3-1.5c-7.8.3-15.7.8-23.5,1.3-5.5.3-11.1.9-16.6,1.2-4.5.2-9,.1-13.5.2-4.7.1-9.4.4-14,.3-7.1-.2-14.2-.3-21.1,1.2-5,1.1-10.2,1.2-14.9,4.1-5.2,3.1-9.4,6.8-12,12.4A163.424,163.424,0,0,0,128.8,329a229.826,229.826,0,0,0-3.7,23.5c-1.1,9.6,2.7,17.3,10.4,22.8a122.112,122.112,0,0,0,31.3,16.1,14.6,14.6,0,0,0,2.2.3,16.151,16.151,0,0,0,0-2.2c-.7-5.8-2.3-11.4-.3-17.3,1.5-4.5,2.3-9.3,3.6-13.9,1.2-4.7,2.7-9.4,3.9-14.1,1.7-6.7,3.5-13.4,7.1-19.4,1.9-3.2,3.4-6.6,6.7-8.5,2.9-1.7,5.8-3.6,8.7-5.2a81.849,81.849,0,0,1,15.4-6.8,129.788,129.788,0,0,1,26.8-5.3c6-.4,12.1-.4,18.1-.8,10.5-.8,20.9-1.8,31.4-2.6,8.8-.7,17.5-1.3,26.3-1.2,7.3.1,14.5-.5,21.8-.7,4.9-.1,9.7-.3,14.6-.3,3.4,0,6.8.3,10.2.2,10.6-.2,21.1-.6,31.7-.6,8.7,0,17.4.6,26.1-.1,6.3-.5,20.4-.4,20.4-.5ZM233.9,352.5c.3-7.1,1.2-6.5-5.9-10-3.2-1.6-6-4-9.2-5.5-4.8-2.4-9.9-4.2-14.7-6.7-4-2.1-7.8-4.5-11.6-7-3-2-3.6-2.1-5.5.9-2.9,4.5-5.6,9.1-6.6,14.6a107.155,107.155,0,0,1-4.2,14.7c-1.3,3.8.4,6.1,2.8,8.6,4.7,5,10.3,9.5,11.6,16.7.8,4.4.9,8.8-1.1,13-1.9,3.9-5.2,5.2-9,5.9a25.657,25.657,0,0,1-4.8,0,3.685,3.685,0,0,0-1.5.1c-3.4,2-6-.3-8.8-1.6-2.1-1-4.2-1.7-6.3-2.8-6.1-3.1-12.2-6.1-18-9.6A73.067,73.067,0,0,1,124.6,371a6.342,6.342,0,0,1-1.4-2.7c-2.2-6.4-3.9-12.8-2.1-19.8,1.5-5.9,2.2-11.9,3.5-17.8,1.5-7,2.7-14.1,5.5-20.7,2-4.7,3.4-9.6,5.5-14.3a40.1,40.1,0,0,1,5.2-8.7c1.4-1.8,3.7-3,5.8-4.1,4.7-2.5,5.5-3.6,5.2-8.8v-1.8c0-5.1-.5-4.1,4.4-5,4.7-.9,9.5-1,14.2-1.4,7.5-.6,15.1-1.1,22.7-1.6,6.1-.5,12.2-1,18.3-1.6,2.4-.3,4.8-.9,7.2-1.4,1.4-.3,1.7-1.2,1.5-2.5-.6-5.9-1.2-11.7-1.7-17.6a80.659,80.659,0,0,1,.1-8.5c.2-9.5.4-19.1.7-28.6.1-4.4.6-8.9.7-13.3.1-6.7-.2-13.5-.1-20.2a24.06,24.06,0,0,1,1.2-6.5c.4-1.4.7-.9,5.4-2.1s11.3-1.7,16.9-2.6c2.4-.4,4.8-1.1,7.3-1.5,4.1-.7,8.2-1.2,12.4-1.8,3.1-.4,6.3-.8,9.4-1.1,8.3-.7,16.6-1.6,25-2,6-.3,12.1.1,18.2,0,5.9-.1,11.7-.4,17.6-.7,5.5-.3,11-1,16.5-1.3a15.668,15.668,0,0,0,5.2-.8c.9-.3,2.9,1.1,3.9,2.2a53,53,0,0,1,5,6.7,7.061,7.061,0,0,1,1.5,5.6,52.325,52.325,0,0,0-.2,11.2c.3,5,.8,10,1.3,15,.2,2.7.5,5.4.6,8.2.2,4.7.2,9.4.4,14.1a5.491,5.491,0,0,0,.7,2.4c.6,1.4,1.6,2.7,2.1,4.1,2.7,8.1,5.4,16.2,7.7,24.5.8,2.7.8,5.6,1,8.4.2,3.3.4,3.6,3.8,3.6h14.6c7.1-.1,14.2-.3,21.3-.4,2.1,0,3-.8,3.8-2.9,2.1-5.9,4.6-11.6,6.8-17.4,2.3-6.2,5.7-11.8,8.6-17.7,2.9-5.8,5.1-11.9,8.4-17.4,2.2-3.8,1.7-7.5,1.8-11.3.2-5.6.7-11.2.9-16.9.2-3.8.1-7.7.1-11.5,0-4.2,1.9-7.2,5.9-8.7,1.8-.7,3.5-1.9,5.3-2.4a14.529,14.529,0,0,1,5.5-.5c3.6.3,7.1,1,10.6,1.4,7.6.8,15.2,1.6,22.9,2.4,5.7.6,11.4,1,17.1,1.7,13.3,1.6,26.6,3.3,39.9,5,4.6.6,9.3,1.2,13.9,2.1a3.9,3.9,0,0,1,2.5,2.5,52.53,52.53,0,0,1,.6,7.9c.1,6.2.4,12.4.3,18.7-.1,9.7-.6,19.4-.7,29.2-.1,6.4,0,12.8,0,19.2,0,3.2-.1,6.3-.1,9.5,0,2.7.3,3.2,2.9,2.8,16.1-2.5,32.3-1.7,48.4-2.4,2.3-.1,4.6.2,6.9.2,1.6,0,2.4.9,3.1,2.2,1.3,2.3,2.8,4.4,4.3,6.6a3.449,3.449,0,0,0,1.2.9c7.2,3.4,12.9,8.8,18.6,14.2,5.8,5.4,10.3,11.8,14.9,18.2a95.38,95.38,0,0,1,6.5,9.6c1.1,1.9,1.3,4.4,1.7,6.6,1.2,7.2,2.3,16.5,3.6,23.7.5,2.7,10.4,14.5,15.2,18.9,6.5,6.1,12.7,12.5,19.1,18.8a22.759,22.759,0,0,1,2.9,3.4c.5.8,1.9,3.7,2,8.6s-2.6,8.5-6.8,12.2c-4.3,3.7-8.9,3.4-13.7,2.8a51.808,51.808,0,0,1-9.5-2c-6.2-2-10.7-5.8-12.3-12.5a69.1,69.1,0,0,0-3-9.8c-2.3-5.8-4.4-11.6-8.3-16.6-1.5-1.9-2.3-4.3-3.5-6.5a4.441,4.441,0,0,0-.8-1.1,5.02,5.02,0,0,0-.2,1.2q-.3,10.8-.6,21.6c-.2,7.6-.2,15.2-.4,22.8,0,1.1-3.9,2.6-4.4-.3s.4-35.6.5-53.4c0-5.6.8-11.3,1.3-16.9.2-1.7-.2-2.3-2-2.1-6.7.8-13.4,1.6-20.1,2.3-2.5.3-5.1.6-7.6.9-1.6.2-2.7.6-2.9,2.5-.4,4.8-.9,9.7-1.3,14.5-.2,2.3-.3,4.6-.4,6.9,0,3.8.1,7.7.1,11.5,0,1.9-1.4,2.8-2.8,1.7a3.9,3.9,0,0,1-.8-2.2c-1.1-10.2,0-20.3.9-30.4,0-.3.1-.5.1-.8.1-2.8,0-2.9-2.8-2.7-7.6.5-15.2,1-22.8,1.4-12.3.8-24.6,1.5-36.9,2.2-8.2.5-16.4.9-24.6,1.3-1.9.1-2.5.8-2.2,2.4.4,2.2-.5,3.4-2.5,4.3a81.166,81.166,0,0,0-7.4,4.5,16.144,16.144,0,0,1-2.6.9c-.9,0-2.6-1.8-.1-3.4,2.1-1.4,4.1-3,6.2-4.5a5.02,5.02,0,0,0,1.4-1,13.043,13.043,0,0,0,1-2.5,9.765,9.765,0,0,0-2.3-.6c-8.3.2-16.6.6-24.9.8-6.2.2-12.3.3-18.5.3-1.8,0-2.5.5-2.2,2.3.2,1-.1,2.1.1,3.1.5,2.2-.6,3.1-2.5,3.6-2.8.8-5.5,1.7-8.3,2.6-1.1.4-2.3.9-2.9-.5s.6-2,1.6-2.5a65.414,65.414,0,0,1,6-2.8c1.7-.7,3.1-3.2,2.3-4.9a2.24,2.24,0,0,0-1.7-.7c-3.6.1-7.2.4-10.8.6l-21.3.9c-13.2.5-26.3,1.1-39.4,2.8-9.9,1.3-19.9,1.6-29.9,2.3-7.4.5-14.8,1-22.2,1.4-8.1.4-16.2.6-24.3,1-3.3.2-6.6.6-9.9.8a2.383,2.383,0,0,0-2.4,1.9,37.242,37.242,0,0,0-.5,14.5,6.1,6.1,0,0,0,1.9,2.7c1.8,1.9,3.8,3.7,5.7,5.5.8.7,1.6,1.6.6,2.6a2.569,2.569,0,0,1-2.2-.3q-4.65-3-9-6.3a2.865,2.865,0,0,1-1-2.2c0-4,0-8,.4-12,.6-5.4,0-6-5.5-5.6-5.3.4-10.6.6-15.9.9-6.2.3-12.5.7-18.7,1.1-1.3.1-1.7.5-1.8,1.8-.5,6.5-.8,13,1,19.3a5.9,5.9,0,0,0,1.2,2.2c1.8,2.1,3.7,4,5.5,6.1a3.316,3.316,0,0,1,1,1.4,2.522,2.522,0,0,1-.5,2,2.083,2.083,0,0,1-2-.2,21.837,21.837,0,0,1-2.1-2.2c-2.2-2.2-4.4-4.2-6.5-6.5a4.417,4.417,0,0,1-1.2-2.8c-.1-5.3,0-10.6-.2-15.9-.2-5.4.3-5-5-4.6-4.9.4-9.7,1.1-14.5,1.6-2.5.2-4.9.4-7.4.4-1.9,0-2.9.8-3,2.7-.4,8.5-.8,17.1-1.3,25.6a58.15,58.15,0,0,0-.2,5.9c.3,17.3.6,34.6.9,51.8,0,1,.8,2.6-1,3-1.6.4-3.2-1.1-3.3-3.1-.4-5.8-.9-11.6-1.1-17.4-.3-7.6.4-48.8.9-62.1Z" fill="#181715" fill-rule="evenodd"/>
    <path id="Path_739" data-name="Path 739" d="M316.7,231.5c.1,3.4,0,3.2-2.9,3.2-4.4,0-8.8.3-13.2.5s-8.8.5-13.2.9c-2.6.2-5.2.6-7.9,1-1.5.2-3.3.6-3.9-1-.6-1.5-.3-3.3-.2-5,0-.3,1-.8,1.4-.8.5.1,1.4.7,1.4,1.1.3,2.3,1.7,2.1,3.4,1.9a49.093,49.093,0,0,1,5.3-.4c4.4-.1,8.8-.1,13.2-.3,3.7-.2,7.5-.7,11.2-1.2a2.7,2.7,0,0,0,1.5-1.1c.8-.7,1.6-2.2,2.3-2.2,1.6.1,1.5,1.7,1.5,3,.1.3.1.6.1.4Z" fill="#181715" fill-rule="evenodd"/>
    <path id="Path_740" data-name="Path 740" d="M266.2,211.5c.3-.2.7-1,1.4-1.2,1-.3,2.6,1.6,2.3,2.8a2.484,2.484,0,0,1-1.6,1.2c-1.5.1-2.1-.9-2.1-2.8Z" fill="#181715" fill-rule="evenodd"/>
    <path id="Path_741" data-name="Path 741" d="M311.1,213c-.3,1.5-2.1,1.6-2.9,1.7-.3.1-1.3-1.1-1.3-1.7a2.286,2.286,0,0,1,1.3-2.1C309.3,210.5,311.4,211.5,311.1,213Z" fill="#181715" fill-rule="evenodd"/>
    <path id="Path_742" data-name="Path 742" d="M477.5,220.4a10.327,10.327,0,0,0-.1,1.4c-.2.8-.7,1.9-.4,2.3a5.983,5.983,0,0,0,2.5,1.6c3.2,1.5,6.5,2.9,9.7,4.5a3.531,3.531,0,0,1,1.7,1.5,1.557,1.557,0,0,1-1.5,2.3,3.255,3.255,0,0,1-1.4-.4c-4.6-2.2-9.2-4.4-13.7-6.7-2.7-1.3-2.7-1.7-1.3-4.3.4-.8.8-1.7,1.3-2.5.4-.6,1.5-1.5,1.7-1.4a10.731,10.731,0,0,1,1.5,1.7Z" fill="#181715" fill-rule="evenodd"/>
    <path id="Path_743" data-name="Path 743" d="M520.6,208.9c-.5.4-1.2,1.4-2,1.5-1.4.1-2.2-1.1-2.4-2.5-.1-1.5,1-1.8,2.2-1.9C520,205.9,520.3,207.1,520.6,208.9Z" fill="#181715" fill-rule="evenodd"/>
    <path id="Path_744" data-name="Path 744" d="M479.6,204.5c.3-.2.9-1.2,1.6-1.3a1.765,1.765,0,0,1,2,2.3,2.689,2.689,0,0,1-1.7,2C480.3,207.6,479.3,206.8,479.6,204.5Z" fill="#181715" fill-rule="evenodd"/>
  </g>
</svg>
